<?xml version="1.0" standalone="no"?>
<!DOCTYPE svg PUBLIC "-//W3C//DTD SVG 1.1//EN" "http://www.w3.org/Graphics/SVG/1.1/DTD/svg11.dtd" >
<svg xmlns="http://www.w3.org/2000/svg" xmlns:xlink="http://www.w3.org/1999/xlink" version="1.1">
<metadata>
Created by FontForge 20170731 at Tue Dec  1 20:03:38 2020
 By Aleksey,,,
Copyright (c) 2019 by Eko Bimantara. All rights reserved.
</metadata>
<defs>
<font id="Ageo-ExtraBold" horiz-adv-x="1228" >
  <font-face 
    font-family="Ageo ExtraBold"
    font-weight="800"
    font-stretch="normal"
    units-per-em="2048"
    panose-1="2 0 0 0 0 0 0 0 0 0"
    ascent="1546"
    descent="-502"
    x-height="979"
    cap-height="1421"
    bbox="-114.522 -492.01 2378 1902.74"
    underline-thickness="102"
    underline-position="-358"
    unicode-range="U+000D-FB04"
  />
<missing-glyph horiz-adv-x="0" 
 />
    <glyph glyph-name="f_f" unicode="ff" horiz-adv-x="1361" 
d="M1327 958v-206q0 -21 -20 -21h-228v-711q0 -20 -20 -20h-228q-20 0 -20 20v711h-381v-711q0 -20 -20 -20h-228q-20 0 -20 20l-2 711h-121q-21 0 -21 21v206q0 21 21 21h121v129q0 206 82.5 299.5t246.5 93.5q79 0 151 -27.5t103 -58.5q17 -10 7 -29l-82 -182
q-6 -15 -27 -6q-68 41 -109 41q-101 0 -104 -154v-106h381v129q0 206 83 299.5t247 93.5q80 0 150.5 -26.5t105.5 -59.5q14 -9 4 -29l-80 -182q-9 -16 -29 -6q-65 41 -108 41q-52 0 -77.5 -35.5t-25.5 -118.5v-106h228q20 0 20 -21z" />
    <glyph glyph-name="fi" unicode="fi" horiz-adv-x="1173" 
d="M1024 1303l-86 -181q-10 -16 -27 -2q-166 122 -282 119q-198 0 -201 -154v-106h614q19 0 19 -18v-941q0 -20 -19 -20h-227q-20 0 -20 20v711h-365v-711q0 -20 -20 -20h-228q-20 0 -20 20l-2 711h-121q-21 0 -21 21v206q0 21 21 21h121v129q0 205 116 299t295 94
q295 0 451 -170q9 -16 2 -28z" />
    <glyph glyph-name="fl" unicode="fl" horiz-adv-x="1202" 
d="M164 20l-2 711h-123q-21 0 -21 21v206q0 21 21 21h123v129q0 204 117 299q119 94 294 94q111 0 248 -28q30 -5 133 -31l109 -27q24 -9 24 -35l3 -1355q0 -25 -29 -25h-213q-27 0 -27 25v1169q-105 45 -205 45q-183 0 -186 -154v-106h256q21 0 21 -21v-206q0 -21 -21 -21
h-256l2 -711q0 -20 -20 -20h-228q-20 0 -20 20z" />
    <glyph glyph-name="f_f_i" unicode="ffi" horiz-adv-x="1818" 
d="M489 1501q79 0 151 -27.5t103 -58.5q17 -10 7 -29l-82 -182q-6 -15 -27 -6q-68 41 -109 41q-101 0 -104 -154v-106h377v129q0 204 117 299q116 94 295 94q307 0 448 -170q13 -13 4 -28l-86 -181q-10 -16 -27 -2l-16 13q-142 106 -266 106q-198 0 -201 -154v-106h613
q20 0 20 -18v-941q0 -20 -20 -20h-226q-20 0 -20 20v711h-367l2 -711q0 -20 -20 -20h-228q-20 0 -20 20l-2 711h-375v-711q0 -20 -20 -20h-228q-20 0 -20 20l-2 711h-121q-21 0 -21 21v206q0 21 21 21h121v129q0 206 82.5 299.5t246.5 93.5z" />
    <glyph glyph-name="f_f_l" unicode="ffl" horiz-adv-x="1843" 
d="M641 1198q-68 41 -109 41q-101 0 -104 -154v-106h375v129q0 204 117 299q119 94 294 94q104 0 209 -22q49 -8 93 -19q37 -6 100 -24q19 -4 38.5 -9t31.5 -8t18 -4q27 -6 27 -35v-1355q0 -25 -29 -25h-213q-25 0 -25 25l-2 1169q-105 45 -202 45q-187 0 -187 -154v-106
h254q21 0 21 -21v-206q0 -21 -21 -21h-254v-711q0 -20 -20 -20h-228q-20 0 -20 20v711h-375v-711q0 -20 -20 -20h-228q-20 0 -20 20l-2 711h-121q-21 0 -21 21v206q0 21 21 21h121v129q0 206 82.5 299.5t246.5 93.5q79 0 151 -27.5t103 -58.5q17 -10 7 -29l-82 -182
q-6 -15 -27 -6z" />
    <glyph glyph-name=".notdef" horiz-adv-x="0" 
 />
    <glyph glyph-name=".null" horiz-adv-x="0" 
 />
    <glyph glyph-name="nonmarkingreturn" horiz-adv-x="682" 
 />
    <glyph glyph-name="NULL" horiz-adv-x="0" 
 />
    <glyph glyph-name="NULL" horiz-adv-x="0" 
 />
    <glyph glyph-name="CR.001" unicode="&#xd;" horiz-adv-x="0" 
 />
    <glyph glyph-name="space" unicode=" " horiz-adv-x="512" 
 />
    <glyph glyph-name="exclam" unicode="!" horiz-adv-x="516" 
d="M373 418h-234q-20 0 -20 20l-4 963q0 20 20 20h242q20 0 20 -20l-4 -963q0 -20 -20 -20zM408 133q0 -68 -42.5 -110.5t-109.5 -42.5t-109.5 42.5t-42.5 110.5q0 69 42 110.5t110 41.5q69 0 110.5 -41.5t41.5 -110.5z" />
    <glyph glyph-name="quotedbl" unicode="&#x22;" horiz-adv-x="753" 
d="M465 872l-86 70q-14 12 4 27q124 95 154 219h-5l-4 2q-51 11 -80 49.5t-28 95.5q0 68 41 110t108 42q64 0 105.5 -38.5t42.5 -100.5q15 -139 -55 -285q-73 -148 -168 -199q-15 -6 -29 8zM193 1188h-3q-2 2 -4 2q-51 11 -80.5 49.5t-29.5 95.5q0 68 41 110t110 42
q64 0 105.5 -38.5t42.5 -100.5q15 -137 -56 -285q-73 -149 -167 -199q-15 -6 -29 8l-86 70q-16 9 2 27q124 92 154 219z" />
    <glyph glyph-name="numbersign" unicode="#" horiz-adv-x="1333" 
d="M16 367l64 204q6 21 29 21h141l63 237h-155q-21 0 -15 21l64 205q9 18 26 18h146l86 328q3 20 24 20h222q20 0 14 -20l-86 -328h258l86 328q6 20 27 20h219q20 0 14 -20l-86 -328h146q21 0 12 -18l-62 -205q-6 -21 -28 -21h-131l-64 -237h146q23 0 14 -21l-64 -204
q-10 -19 -26 -19h-135l-86 -328q-6 -20 -27 -20h-219q-20 0 -17 20l89 328h-259l-88 -328q-3 -20 -24 -20h-219q-20 0 -17 20l88 328h-155q-11 0 -15 5t0 14zM512 592h256l63 237h-258z" />
    <glyph glyph-name="dollar" unicode="$" horiz-adv-x="1204" 
d="M535 264v314q-229 48 -339 147.5t-114 271.5q-3 182 119 301q126 123 334 138v61q0 21 20 21h96q20 0 23 -21v-61q124 -10 229.5 -50.5t149.5 -82.5q16 -9 6 -29l-96 -219q-9 -18 -29 -4q-130 86 -260 104v-311q233 -57 340.5 -156t113.5 -274q3 -177 -118 -295
q-123 -120 -336 -135v-193q0 -20 -23 -20h-96q-20 0 -20 20v191q-156 12 -281 67q-125 58 -170 103q-14 9 -4 26l119 213q13 16 30 2q47 -40 131.5 -78.5t174.5 -50.5zM674 547v-285q79 8 126.5 44.5t47.5 92.5q0 99 -174 148zM535 877v278q-77 -10 -125 -48.5t-48 -88.5
q0 -51 38 -81.5t135 -59.5z" />
    <glyph glyph-name="percent" unicode="%" horiz-adv-x="1619" 
d="M131 860q-98 101 -98 264q0 164 98 265q100 100 264 100t264 -100q101 -101 101 -265q0 -163 -101 -264q-101 -98 -264 -98t-264 98zM270 1124q0 -56 34 -90.5t91 -34.5t92 34t35 91t-35 92t-92 35t-91 -35t-34 -92zM1153 434q-35 -35 -35 -92t35 -92q35 -32 92.5 -32
t89.5 32q35 35 35 92t-35 92q-32 35 -89.5 35t-92.5 -35zM981 78q-100 100 -100 264t100 264q101 101 264 101q164 0 262 -101q101 -101 101 -264t-101 -264q-98 -98 -262 -98q-163 0 -264 98zM293 29l809 1435q9 15 28 15h220q10 0 16.5 -7.5t1.5 -15.5l-815 -1442
q-8 -14 -27 -14h-217q-32 0 -16 29z" />
    <glyph glyph-name="ampersand" unicode="&#x26;" horiz-adv-x="1374" 
d="M563 1161q-48 0 -77 -31.5t-29 -85.5q0 -58 51 -126q25 -32 49 -56q29 -29 68 -63q23 -20 65 -62l244 -237q34 118 37 286q0 21 20 21h230q23 0 20 -21q-3 -329 -82 -510l254 -247q10 -11 7 -20t-17 -9h-301q-20 0 -37 14l-64 62q-142 -109 -372 -109q-259 0 -424 127
q-160 127 -160 334q0 237 234 354q-115 130 -115 289q0 166 106 267.5t279 101.5q143 0 230 -56t141 -167q9 -17 -9 -31l-186 -119q-17 -10 -27 6q-7 7 -23 27t-27 30.5t-34 20.5t-51 10zM807 266l-383 371q-102 -67 -102 -186q0 -109 85 -177.5t220 -68.5q107 0 180 61z
" />
    <glyph glyph-name="quotesingle" unicode="'" horiz-adv-x="409" 
d="M123 872l-88 72q-13 10 2 25q121 93 156 221h-9q-108 27 -108 145q0 69 41 112.5t108 43.5q65 0 106 -38.5t46 -102.5q15 -134 -58 -285q-70 -147 -169 -199q-12 -9 -27 6z" />
    <glyph glyph-name="parenleft" unicode="(" horiz-adv-x="647" 
d="M317 1405q10 16 33 16h228q19 -3 10 -18q-57 -92 -133 -293q-103 -269 -103 -565q-3 -463 234 -856q14 -17 -8 -17h-228q-24 0 -33 19q-56 85 -133 280q-46 116 -73 268t-27 306q0 195 53 399q53 206 96 297q41 89 84 164z" />
    <glyph glyph-name="parenright" unicode=")" horiz-adv-x="647" 
d="M70 1419l229 2q21 0 31 -16q43 -75 84 -164q44 -91 96 -297q53 -204 53 -399q0 -154 -27 -306t-73 -268q-77 -195 -133 -280q-10 -19 -31 -19h-229q-19 0 -9 17q237 393 234 856q0 195 -53 399q-52 203 -97 295q-54 110 -86 164q-6 16 11 16z" />
    <glyph glyph-name="asterisk" unicode="*" horiz-adv-x="864" 
d="M563 641l-125 201l-125 -201q-6 -11 -19 -11t-20 11l-155 141q-7 6 -6.5 18.5t6.5 18.5l131 142l-207 102q-22 9 -12 29l119 190q15 15 32 6l140 -108l-21 211q0 26 18 26h236q20 0 20 -26l-22 -211l139 108q21 15 33 -6l121 -190q10 -23 -12 -29l-209 -102l131 -142
q21 -21 2 -37l-158 -141q-6 -11 -19 -11t-18 11z" />
    <glyph glyph-name="plus" unicode="+" horiz-adv-x="1189" 
d="M696 150h-202q-21 0 -21 20v311h-305q-21 0 -21 21v192q0 21 21 21h305v309q0 20 21 20h202q21 0 21 -20v-309h305q20 0 20 -21v-192q0 -21 -20 -21h-305v-311q0 -20 -21 -20z" />
    <glyph glyph-name="comma" unicode="," horiz-adv-x="512" 
d="M152 -356l-95 77q-14 14 4 29q133 104 168 240h-8q-56 14 -88 56.5t-31 103.5q0 75 44.5 120t119.5 45q70 0 115.5 -42.5t46.5 -110.5q15 -149 -61 -307q-77 -159 -183 -217q-16 -10 -32 6z" />
    <glyph glyph-name="hyphen" unicode="-" horiz-adv-x="878" 
d="M115 508v182q0 22 24 25h600q25 -3 25 -25v-182q0 -25 -25 -25h-600q-24 0 -24 25z" />
    <glyph glyph-name="period" unicode="." horiz-adv-x="538" 
d="M119 131q0 69 41 112t110 44q67 0 109.5 -43.5t42.5 -112.5q0 -66 -43 -108.5t-109 -42.5q-68 0 -109.5 42t-41.5 109z" />
    <glyph glyph-name="slash" unicode="/" horiz-adv-x="888" 
d="M2 25l623 1435q9 19 26 19h219q27 0 15 -27l-623 -1432q-9 -20 -31 -20h-217q-10 0 -13.5 9t1.5 16z" />
    <glyph glyph-name="zero" unicode="0" horiz-adv-x="1222" 
d="M1139 711q0 -329 -146 -531q-143 -198 -381 -198q-239 0 -383 200q-145 201 -145 529q0 327 145 528t383 201q236 0 381 -201q146 -202 146 -528zM362 711q0 -204 68.5 -327.5t181.5 -123.5q110 0 178 124.5t68 326.5t-68 326t-178 124q-112 0 -181 -123.5t-69 -326.5z
" />
    <glyph glyph-name="one" unicode="1" horiz-adv-x="700" 
d="M106 1180v219q3 22 21 22h446q21 0 21 -22v-1379q0 -20 -21 -20h-237q-21 0 -21 20v1139h-188q-21 0 -21 21z" />
    <glyph glyph-name="two" unicode="2" horiz-adv-x="1132" 
d="M950 791l-24 -41l-355 -488h420q25 0 25 -24v-218q0 -20 -23 -20h-606h-78h-209q-13 0 -17.5 12t3.5 23l580 790q90 122 90 203q-2 65 -44.5 108t-117.5 42q-106 0 -221 -142q-16 -16 -37 8l-139 150q-15 15 6 41q163 205 422 205q170 0 284 -105q117 -105 117 -295
q0 -61 -24 -133.5t-52 -115.5z" />
    <glyph glyph-name="three" unicode="3" horiz-adv-x="1116" 
d="M467 854h88q62 0 108 48.5t46 115.5q0 63 -45.5 103t-118.5 40q-107 0 -217 -131q-16 -16 -31 0l-152 178q-15 16 0 31q165 201 418 201q177 0 299 -107q125 -107 125 -276q0 -187 -137 -312q182 -111 182 -321q0 -198 -139 -328q-138 -129 -344 -129q-204 0 -340 121
q-132 123 -141 322q0 20 20 20h234q22 0 22 -18q4 -73 62.5 -119.5t146.5 -46.5q90 0 144.5 52.5t54.5 139.5q0 82 -48 136.5t-126 60.5h-111q-21 0 -21 20v179q0 20 21 20z" />
    <glyph glyph-name="four" unicode="4" horiz-adv-x="1253" 
d="M1001 543h132q20 0 20 -21v-196q0 -21 -20 -21h-132v-285q3 -20 -20 -20h-238q-20 0 -20 20v285h-426h-64h-186q-26 0 -14 27l647 1071q9 18 31 18h270q20 -3 20 -22v-856zM723 543v469l-283 -469h283z" />
    <glyph glyph-name="five" unicode="5" horiz-adv-x="1116" 
d="M907 1159h-450l-23 -287q73 29 144 29q202 0 329 -121q125 -119 125 -327q0 -219 -131 -353q-133 -133 -344 -133q-204 0 -336 117q-128 116 -137 309q0 21 20 21h234q22 0 22 -21q5 -69 59 -112t138 -43q88 0 143.5 59.5t55.5 155.5q0 94 -56 152.5t-149 58.5t-139 -52
h-256q-24 0 -21 21l64 766q3 22 24 22h684q21 0 21 -22v-219q0 -21 -21 -21z" />
    <glyph glyph-name="six" unicode="6" horiz-adv-x="1110" 
d="M1026 451q0 -216 -129 -345q-126 -129 -340 -129q-212 0 -344 129q-129 132 -129 343q0 102 33 190q60 148 104 242l133 282l115 238q6 20 29 20h237q35 0 19 -28l-224 -484q36 4 41 4q206 -6 330 -133q125 -125 125 -329zM555 643q-87 0 -140 -53.5t-53 -140.5
q0 -88 53.5 -141.5t139.5 -53.5t139.5 53.5t53.5 141.5t-52.5 141t-140.5 53z" />
    <glyph glyph-name="seven" unicode="7" horiz-adv-x="1003" 
d="M94 1421h873q35 0 20 -35l-516 -1366q-6 -20 -29 -20h-252q-18 0 -12 20l436 1139h-520q-22 0 -22 21v219q0 22 22 22z" />
    <glyph glyph-name="eight" unicode="8" horiz-adv-x="1112" 
d="M979 1032q0 -178 -135 -280q184 -114 184 -328q0 -202 -131 -324q-129 -120 -340 -120q-212 0 -344 120q-129 123 -129 324q0 214 184 328q-135 108 -135 280q0 184 117 295q116 113 307 113t306.5 -112t115.5 -296zM760 438q0 84 -57.5 138.5t-145.5 54.5
q-86 0 -144.5 -55.5t-58.5 -137.5q0 -80 58.5 -134t144.5 -54t144.5 54t58.5 134zM395 1036q0 -75 44 -118.5t118 -43.5q71 0 115 44q45 45 45 118q0 75 -43 115q-43 43 -117 43t-118 -42.5t-44 -115.5z" />
    <glyph glyph-name="nine" unicode="9" horiz-adv-x="1110" 
d="M952 690l-311 -672q-9 -18 -29 -18h-237q-35 0 -19 29l224 483q-16 -4 -35 -4q-208 3 -334 129q-127 127 -127 332q0 217 127 344q129 129 342 129q214 0 342 -131q131 -128 131 -340q0 -124 -74 -281zM555 776q86 0 139.5 54.5t53.5 140.5q0 87 -54 141q-53 53 -139 53
t-139 -53q-54 -54 -54 -141q0 -88 52.5 -141.5t140.5 -53.5z" />
    <glyph glyph-name="colon" unicode=":" horiz-adv-x="487" 
d="M78 899q0 75 45.5 122t120.5 48q75 0 121.5 -47.5t46.5 -122.5q0 -74 -46.5 -120t-121.5 -46t-120.5 46t-45.5 120zM78 152q0 75 45.5 121t120.5 46q75 1 121.5 -45.5t46.5 -121.5q0 -74 -46.5 -120t-121.5 -46t-120.5 46t-45.5 120z" />
    <glyph glyph-name="semicolon" unicode=";" horiz-adv-x="522" 
d="M96 899q0 75 46.5 121.5t121.5 48.5q73 0 119.5 -47.5t46.5 -122.5q0 -73 -46 -119.5t-120 -46.5q-75 0 -121.5 46t-46.5 120zM164 -356l-94 77q-14 14 4 29q133 104 168 240h-9q-56 14 -87.5 56.5t-30.5 103.5q0 75 44.5 120t119.5 45q70 0 115 -42t46 -111
q15 -149 -61 -307q-77 -160 -182 -217q-15 -9 -33 6z" />
    <glyph glyph-name="less" unicode="&#x3c;" horiz-adv-x="1103" 
d="M78 481v254q0 29 18 35l905 332q25 6 25 -19v-233q0 -26 -20 -35l-609 -207l609 -207q20 -9 20 -34v-234q0 -24 -25 -18l-905 331q-18 9 -18 35z" />
    <glyph glyph-name="equal" unicode="=" horiz-adv-x="1073" 
d="M924 672h-774q-27 0 -27 26v170q0 27 27 27h774q26 0 26 -27v-170q0 -26 -26 -26zM924 299h-774q-27 0 -27 27v170q0 26 27 26h774q26 0 26 -26v-170q0 -27 -26 -27z" />
    <glyph glyph-name="greater" unicode="&#x3e;" horiz-adv-x="1103" 
d="M98 401l609 207l-609 207q-20 9 -20 35v233q0 25 24 19l906 -332q18 -6 18 -35v-254q0 -26 -18 -35l-906 -331q-24 -6 -24 18v234q0 25 20 34z" />
    <glyph glyph-name="question" unicode="?" horiz-adv-x="968" 
d="M616 1018q0 73 -45.5 114.5t-119.5 41.5q-114 0 -220 -127q-13 -16 -26 -3l-156 173q-15 15 0 30q156 193 422 193q179 0 301 -107q126 -108 123 -276q0 -179 -109 -301q-15 -15 -53 -52t-57.5 -59t-46 -57.5t-39.5 -74t-15 -81.5q0 -20 -20 -20h-246q-20 0 -20 20
q4 88 37.5 166.5t83.5 132.5q18 19 56 56t58.5 59t45 53t35.5 60t11 59zM436 -20q-72 0 -114.5 42.5t-42.5 114.5q0 70 43 113t114 43q73 0 113 -43q43 -40 43 -113q0 -71 -43 -114t-113 -43z" />
    <glyph glyph-name="at" unicode="@" horiz-adv-x="1855" 
d="M1739 682q0 -177 -95 -288.5t-253 -117.5q-125 0 -222 97q-91 -137 -274 -137q-164 0 -268 110t-107 285q0 176 105 284q106 109 270 109q154 0 242 -98l32 47q9 12 23 12h131q18 0 18 -20v-375q0 -115 91 -115q55 0 85.5 58t28.5 149q3 247 -160 397q-161 152 -417 152
q-294 0 -469 -166q-173 -161 -176 -430q3 -269 178 -432q177 -162 467 -162q201 0 370 135q19 19 37 4l115 -114q16 -25 0 -41q-201 -195 -522 -195q-381 0 -619 221q-233 220 -233 582q0 364 233 584q235 223 619 223q343 0 555 -209q215 -209 215 -549zM922 487
q65 0 104 40t39 102q0 65 -39 104t-104 39q-66 0 -107 -41q-39 -39 -39 -102q0 -64 40.5 -103.5t105.5 -38.5z" />
    <glyph glyph-name="A" unicode="A" horiz-adv-x="1372" 
d="M1090 14l-129 336h-549l-129 -336q-6 -14 -23 -14h-240q-23 0 -16 23l531 1378q6 18 28 18h248q21 0 27 -18l528 -1378q10 -23 -14 -23h-242q-17 0 -20 14zM870 588l-184 481l-184 -481h368z" />
    <glyph glyph-name="B" unicode="B" horiz-adv-x="1245" 
d="M688 645h-266v-379h248q103 0 164 54t61 145q0 85 -55 132.5t-152 47.5zM623 854q184 0 184 162q0 66 -55.5 103.5t-149.5 35.5h-180v-303h100q53 2 101 2zM164 1421h467q204 0 329.5 -104.5t126.5 -276.5q0 -160 -133 -266q216 -109 222 -350q3 -188 -134 -307
q-132 -117 -358 -117h-520q-23 0 -23 20v1379q0 22 23 22z" />
    <glyph glyph-name="C" unicode="C" horiz-adv-x="1368" 
d="M1307 168q-200 -188 -512 -188q-327 0 -527 200q-198 201 -198 529q0 174 60 316t165 232q217 183 500 183q302 3 508 -191q12 -12 0 -26l-136 -185q-9 -19 -28 0q-143 125 -344 125q-199 3 -324 -125q-121 -127 -121 -329t123 -328q122 -125 322 -125q193 0 344 127
q16 16 28 0l138 -186q15 -15 2 -29z" />
    <glyph glyph-name="D" unicode="D" horiz-adv-x="1394" 
d="M598 1155l-176 2v-891h176q202 0 326 121q123 120 123 324q0 203 -123 323q-124 124 -326 121zM598 0h-436q-21 0 -21 20l2 1381q0 20 19 20h436q330 0 528 -192q199 -193 199 -518q0 -328 -199 -521q-199 -190 -528 -190z" />
    <glyph glyph-name="E" unicode="E" horiz-adv-x="1089" 
d="M874 594h-452v-328h569q21 0 21 -20v-228q0 -18 -19 -18h-831q-21 0 -21 20v1381q0 20 21 20h809q20 0 20 -20v-227q0 -19 -18 -19h-551v-299h452q21 0 21 -20v-222q0 -20 -21 -20z" />
    <glyph glyph-name="F" unicode="F" horiz-adv-x="1044" 
d="M874 594h-452v-571q0 -23 -23 -23h-237q-21 0 -21 20v1381q0 20 21 20h809q20 0 20 -20v-227q0 -19 -18 -19h-551v-299h452q21 0 21 -20v-222q0 -20 -21 -20z" />
    <glyph glyph-name="G" unicode="G" horiz-adv-x="1503" 
d="M1147 547h-342q-21 0 -21 18v189q0 20 21 20h600q27 0 27 -26q-5 -369 -171.5 -568t-488.5 -198q-316 0 -510 200q-192 198 -192 529q0 328 200 528q201 201 531 201q299 0 512 -195q10 -10 0 -26l-144 -185q-14 -14 -28 0q-57 51 -148.5 89t-191.5 38q-203 0 -328 -125
q-123 -123 -123 -325q0 -201 115 -328q117 -123 307 -123q307 0 375 287z" />
    <glyph glyph-name="H" unicode="H" horiz-adv-x="1409" 
d="M401 0h-239q-21 0 -21 20l2 1381q0 20 19 20h241q19 0 19 -18v-572h567v570q0 20 21 20h239q21 0 21 -18l-2 -1383q0 -20 -19 -20h-239q-21 0 -21 20v574h-567v-574q0 -20 -21 -20z" />
    <glyph glyph-name="I" unicode="I" horiz-adv-x="563" 
d="M422 1401v-1383q0 -18 -21 -18h-239q-21 0 -21 18v1383q0 20 21 20h239q21 0 21 -20z" />
    <glyph glyph-name="J" unicode="J" horiz-adv-x="860" 
d="M438 463l-2 938q0 20 21 20h237q21 0 21 -20l4 -995q1 -202 -90 -313t-254 -113q-218 3 -355 116q-14 11 -4 31l111 199q10 24 35 8q3 -1 16 -8.5t32 -18t30 -16.5q69 -31 104 -31q54 0 71.5 40.5t22.5 162.5z" />
    <glyph glyph-name="K" unicode="K" horiz-adv-x="1198" 
d="M422 1401v-610l448 618q9 12 25 12h264q26 0 12 -26l-495 -678l571 -692q19 -25 -12 -25h-291q-16 0 -26 10l-496 627v-619q0 -18 -21 -18h-239q-21 0 -21 18v1383q0 20 21 20h239q21 0 21 -20z" />
    <glyph glyph-name="L" unicode="L" horiz-adv-x="944" 
d="M422 1401v-1151h444q21 0 21 -21v-211q0 -18 -19 -18h-706q-19 0 -19 18l-2 1383q0 20 21 20h239q21 0 21 -20z" />
    <glyph glyph-name="M" unicode="M" horiz-adv-x="1763" 
d="M172 1421h236q18 0 24 -16l447 -907l436 909q6 14 22 14h265q20 0 20 -20v-1381q0 -20 -20 -20h-238q-21 0 -21 20v869l-331 -660q-10 -16 -25 -16h-215q-16 0 -24 14l-326 652v-859q0 -20 -23 -20h-235q-23 0 -23 23v1368q0 30 31 30z" />
    <glyph glyph-name="N" unicode="N" horiz-adv-x="1474" 
d="M1073 1421h240q20 0 20 -20v-1381q0 -20 -20 -20h-275q-13 0 -22 12l-594 946v-938q0 -20 -21 -20h-239q-21 0 -21 20l2 1381q0 20 21 20h274q17 0 25 -14l590 -942l2 936q0 20 18 20z" />
    <glyph glyph-name="O" unicode="O" horiz-adv-x="1597" 
d="M801 -18q-331 0 -531 200t-200 529q0 328 200 528q204 201 531 201q325 0 526 -201t201 -528q0 -328 -201 -529q-200 -200 -526 -200zM801 260q200 0 323 123q125 125 125 328t-125 325q-122 125 -323 125q-203 0 -328 -125q-123 -123 -123 -325t123 -328
q123 -123 328 -123z" />
    <glyph glyph-name="P" unicode="P" horiz-adv-x="1144" 
d="M682 530h-260v-510q0 -20 -23 -20h-235q-23 0 -23 20v1379q0 22 23 22h518q212 0 334 -125q123 -123 123 -319t-123 -322q-122 -125 -334 -125zM422 1155v-356l231 -2q95 0 151 44.5t56 133.5q0 91 -56 136.5t-151 43.5h-231z" />
    <glyph glyph-name="Q" unicode="Q" horiz-adv-x="1601" 
d="M1225 100l293 -176q15 -12 6 -28l-113 -187q-12 -18 -29 -8l-450 289q-52 -8 -131 -8q-331 0 -531 200t-200 529q0 328 200 528q204 201 531 201q325 0 526 -201t201 -528q0 -202 -78.5 -359.5t-224.5 -251.5zM1249 711q0 203 -125 325q-122 125 -323 125
q-203 0 -328 -125q-123 -123 -123 -325q0 -200 123 -326q125 -125 328 -125q202 0 325 123t123 328z" />
    <glyph glyph-name="R" unicode="R" horiz-adv-x="1220" 
d="M885 10l-297 520h-166v-510q0 -20 -21 -20h-239q-21 0 -21 20l2 1381q0 20 19 20h538q210 0 332 -125q122 -122 125 -319q-2 -156 -81 -267.5t-218 -152.5l324 -532q16 -25 -13 -25h-264q-13 0 -20 10zM705 1155l-283 2v-358l283 -2q69 0 120.5 46.5t51.5 131.5
t-51.5 132.5t-120.5 47.5z" />
    <glyph glyph-name="S" unicode="S" horiz-adv-x="1204" 
d="M84 152q-14 9 -4 26l119 211q14 19 32 4q46 -41 160 -90q107 -45 227 -45q101 0 165.5 38t64.5 103q0 121 -270 170q-253 45 -371.5 146t-124.5 282q-6 195 137 320q144 126 389 123q161 -3 279 -49q123 -48 166 -88q16 -9 6 -29l-96 -217q-9 -18 -29 -6
q-163 111 -338 108q-101 1 -167.5 -39.5t-66.5 -101.5t57.5 -95t217.5 -71q255 -56 370 -156t121 -282q6 -192 -139 -316q-145 -121 -393 -118q-177 3 -320 61q-138 57 -192 111z" />
    <glyph glyph-name="T" unicode="T" horiz-adv-x="1126" 
d="M424 18v1137h-369q-18 0 -18 19v227q0 20 20 20h1014q19 0 19 -20v-227q0 -19 -19 -19h-369v-1137q0 -18 -18 -18h-242q-18 0 -18 18z" />
    <glyph glyph-name="U" unicode="U" horiz-adv-x="1392" 
d="M141 557v844q0 18 21 18h241q19 0 19 -18v-846q0 -136 75.5 -215.5t200.5 -79.5t199.5 79.5t73.5 215.5v846q0 18 20 18h242q18 0 18 -18v-846q0 -274 -159 -424q-155 -149 -394 -149q-232 0 -397 151q-160 151 -160 424z" />
    <glyph glyph-name="V" unicode="V" horiz-adv-x="1376" 
d="M516 18l-512 1377q-9 24 16 24h252q15 0 23 -14l393 -1065l393 1065q3 14 23 14h252q22 0 16 -24l-514 -1377q-6 -18 -27 -18h-286q-20 0 -29 18z" />
    <glyph glyph-name="W" unicode="W" horiz-adv-x="1929" 
d="M1255 16l-290 1053l-293 -1053q-3 -16 -21 -16h-211q-17 0 -20 16l-418 1385q-6 20 16 20h244q20 0 23 -18l266 -967l280 967q3 18 25 18h215q20 0 23 -18l284 -977l271 981q3 14 18 14h244q22 0 16 -20l-418 -1385q-6 -16 -24 -16h-207q-17 0 -23 16z" />
    <glyph glyph-name="X" unicode="X" horiz-adv-x="1236" 
d="M297 0h-281q-24 0 -10 20l455 682l-445 699q-14 20 13 20h286q19 0 25 -12l281 -457l290 455q9 12 27 12h283q24 0 10 -20l-461 -692l438 -687q14 -20 -10 -20h-287q-18 0 -24 12l-277 447l-288 -447q-6 -12 -25 -12z" />
    <glyph glyph-name="Y" unicode="Y" horiz-adv-x="1267" 
d="M494 18v547l-488 830q-15 24 14 24h254q17 0 27 -16l334 -592l334 592q6 16 26 16h252q30 0 15 -24l-490 -828v-549q3 -18 -18 -18h-240q-20 0 -20 18z" />
    <glyph glyph-name="Z" unicode="Z" horiz-adv-x="1232" 
d="M1153 1386l-649 -1124h626q19 0 19 -20v-222q0 -20 -19 -20h-1040q-32 0 -18 33l651 1126h-563q-21 0 -21 19v223q0 20 21 20h975q39 0 18 -35z" />
    <glyph glyph-name="bracketleft" unicode="[" horiz-adv-x="681" 
d="M352 1194l2 -1296h172q23 0 23 -25v-178q0 -27 -23 -27l-409 2q-25 0 -25 23v1704q0 24 25 24h407q25 0 25 -24v-178q0 -25 -25 -25h-172z" />
    <glyph glyph-name="backslash" unicode="\" horiz-adv-x="884" 
d="M18 1479h220q14 0 24 -19l623 -1433q5 -11 1 -19t-14 -8h-217q-22 0 -28 18l-625 1434q-6 10 -1 18.5t17 8.5z" />
    <glyph glyph-name="bracketright" unicode="]" horiz-adv-x="681" 
d="M106 -102h175v1296h-172q-25 0 -25 25v178q0 24 25 24h407q25 0 25 -24v-1704q0 -23 -25 -23h-410q-22 0 -22 25v178q0 25 22 25z" />
    <glyph glyph-name="asciicircum" unicode="^" horiz-adv-x="1193" 
d="M68 557l370 844q9 18 29 18h260q23 0 29 -18l370 -844q6 -10 0 -18.5t-20 -8.5h-234q-23 0 -32 21l-244 588l-242 -588q-9 -21 -32 -21h-234q-14 0 -20 8.5t0 18.5z" />
    <glyph glyph-name="underscore" unicode="_" horiz-adv-x="1222" 
d="M111 -57h1001q27 0 27 -31v-156q0 -30 -27 -30h-1001q-27 0 -27 28v162q0 27 27 27z" />
    <glyph glyph-name="grave" unicode="`" horiz-adv-x="567" 
d="M418 1096l-359 237q-21 15 -4 29l117 145q14 17 35 2l303 -307q15 -15 2 -24l-66 -80q-16 -16 -28 -2z" />
    <glyph glyph-name="a" unicode="a" horiz-adv-x="1208" 
d="M836 862l32 99q9 21 23 18h186q21 0 21 -21v-938q-3 -20 -23 -20h-186q-17 0 -23 20l-30 95q-105 -138 -287 -138q-219 -3 -356 140q-136 145 -136 370q0 228 136 367q135 141 356 141q181 3 287 -133zM322 487q0 -108 67.5 -175.5t173.5 -67.5q110 0 178.5 66.5
t69.5 176.5q-1 110 -70 177t-178 67t-175 -67t-66 -177z" />
    <glyph glyph-name="b" unicode="b" horiz-adv-x="1189" 
d="M297 0h-166q-20 0 -20 18v1442q0 21 22 21h223q23 0 23 -21v-573q95 108 262 108q220 3 356 -139t136 -369q0 -226 -136 -368t-356 -142q-182 0 -289 140l-33 -97q-6 -20 -22 -20zM627 733q-110 0 -179 -68t-69 -178t68.5 -177.5t179.5 -67.5q106 0 172.5 68t66.5 177
q0 111 -65.5 178.5t-173.5 67.5z" />
    <glyph glyph-name="c" unicode="c" horiz-adv-x="1046" 
d="M979 180q-138 -203 -416 -203q-227 0 -366 142q-140 143 -140 368q0 237 146 371q148 136 352 139q291 6 440 -221q16 -19 0 -28l-172 -140q-17 -17 -32 6q-82 119 -228 119q-109 0 -175 -68t-66 -178t66 -177.5t175 -67.5q133 0 221 108q20 20 37 4l154 -145
q14 -9 4 -29z" />
    <glyph glyph-name="d" unicode="d" horiz-adv-x="1189" 
d="M549 -23q-220 0 -356 142t-136 368q0 227 136 369t356 139q165 0 264 -108v573q0 21 21 21h225q20 0 20 -21v-1440q0 -20 -22 -20h-162q-19 0 -25 20l-32 97q-103 -140 -289 -140zM811 487q1 110 -67 178t-179 68q-109 0 -175 -68t-66 -178q0 -108 67.5 -176.5
t173.5 -68.5q109 0 177.5 67.5t68.5 177.5z" />
    <glyph glyph-name="e" unicode="e" horiz-adv-x="1126" 
d="M336 575h452q-19 81 -77.5 127t-147.5 46q-91 0 -149.5 -46t-77.5 -127zM1049 385h-707q53 -158 246 -158q130 0 203 64q21 18 34 2l140 -146q14 -14 2 -30q-128 -137 -396 -140q-229 0 -372 140q-142 142 -142 370q0 226 140 369q138 141 366 141q243 0 375 -148.5
t131 -442.5q0 -10 -6 -16.5t-14 -4.5z" />
    <glyph glyph-name="f" unicode="f" horiz-adv-x="724" 
d="M641 731h-211v-711q0 -20 -20 -20h-228q-20 0 -20 20l-2 711h-121q-21 0 -21 21v206q0 21 21 21h121v129q0 206 82.5 299.5t246.5 93.5q79 0 151 -27.5t103 -58.5q17 -10 7 -29l-80 -178q-6 -20 -29 -10q-68 41 -109 41q-101 0 -104 -154v-106h213q21 0 21 -21v-206
q0 -21 -21 -21z" />
    <glyph glyph-name="g" unicode="g" horiz-adv-x="1198" 
d="M551 1001q193 0 295 -147l39 104q3 21 24 21h158q20 0 20 -21l3 -919q0 -235 -146 -381q-145 -145 -377 -145q-234 3 -399 104q-20 9 -10 33l96 196q9 19 29 9q119 -67 268 -76q129 1 199.5 72.5t70.5 197.5v41q-104 -116 -270 -113q-222 3 -358 142t-136 368t136 371
q137 143 358 143zM324 489q0 -109 66 -176t175 -67q113 0 183.5 67.5t70.5 175.5q0 112 -69 179t-185 67q-109 0 -175 -68t-66 -178z" />
    <glyph glyph-name="h" unicode="h" horiz-adv-x="1130" 
d="M113 20l-2 1438q0 21 22 21h223q23 0 23 -21v-573q98 119 276 119q166 0 267 -119q102 -120 102 -320v-545q0 -20 -20 -20h-226q-23 0 -20 20v490q0 105 -50 165t-133 60q-83 -2 -136.5 -68.5t-59.5 -189.5v-457q0 -20 -21 -20h-225q-20 0 -20 20z" />
    <glyph glyph-name="i" unicode="i" horiz-adv-x="491" 
d="M379 961v-941q0 -20 -21 -20h-225q-20 0 -20 20v938q0 21 22 21h225q19 0 19 -18zM123 1176q-45 45 -45 122q0 76 45 121t123 45q76 0 121 -45t45 -121q0 -77 -45 -122q-46 -46 -121 -46q-77 0 -123 46z" />
    <glyph glyph-name="j" unicode="j" horiz-adv-x="561" 
d="M190 1176q-45 45 -45 122q0 76 45 121t123 45q76 0 121 -45t45 -121q0 -77 -45 -122q-46 -46 -121 -46q-77 0 -123 46zM182 -96v1054q0 21 21 21h225q21 0 21 -21l2 -1087q0 -165 -83.5 -261.5t-230.5 -96.5q-153 0 -237 84q-9 9 -6 26l83 189q10 30 35 8q44 -35 86 -35
q41 -2 62 27t22 92z" />
    <glyph glyph-name="k" unicode="k" horiz-adv-x="1005" 
d="M668 977h301q31 0 10 -27l-340 -438l405 -485q21 -27 -10 -27h-295q-16 0 -26 10l-334 412v-404q0 -18 -19 -18h-229q-18 0 -18 18l-2 1442q0 19 20 19h229q19 0 19 -19v-862l268 369q7 10 21 10z" />
    <glyph glyph-name="l" unicode="l" horiz-adv-x="493" 
d="M381 1458v-1438q0 -20 -21 -20h-227q-20 0 -20 20v1438q0 21 20 21h225q23 0 23 -21z" />
    <glyph glyph-name="m" unicode="m" horiz-adv-x="1658" 
d="M133 979h182q22 3 25 -21l20 -86q92 132 269 132q197 0 289 -185q92 185 305 185q155 0 249.5 -119.5t94.5 -319.5v-542q0 -23 -21 -23h-225q-23 0 -23 23v487q0 225 -155 225q-169 -3 -172 -282l2 -430q0 -23 -21 -23h-227q-20 0 -20 23v487q0 225 -156 225
q-76 -2 -121 -66t-49 -188v-461q0 -20 -21 -20h-227q-18 0 -18 20l-2 938q0 21 22 21z" />
    <glyph glyph-name="n" unicode="n" horiz-adv-x="1130" 
d="M113 20l-2 938q0 21 22 21h180q21 0 27 -21l22 -94q96 140 293 140q166 0 267 -119q102 -120 102 -320v-545q0 -20 -20 -20h-226q-8 0 -14.5 6.5t-5.5 13.5v490q0 105 -50 165t-133 60q-83 -2 -136.5 -68.5t-59.5 -189.5v-457q0 -18 -21 -18h-225q-20 0 -20 18z" />
    <glyph glyph-name="o" unicode="o" horiz-adv-x="1132" 
d="M565 1004q230 0 369 -142q141 -141 141 -370q0 -230 -141 -371q-138 -141 -369 -141q-227 0 -368 141q-140 143 -140 371q0 227 140 370q142 142 368 142zM565 246q110 0 177 68t67 178t-67 177.5t-177 67.5q-109 0 -175 -67.5t-66 -177.5t66 -178t175 -68z" />
    <glyph glyph-name="p" unicode="p" horiz-adv-x="1193" 
d="M358 -467h-225q-22 0 -22 23v1402q3 23 22 23h160q17 0 26 -20l33 -101q102 141 291 141q223 0 358 -141q136 -142 136 -371q0 -228 -136 -370t-358 -142q-162 0 -264 111v-534q0 -21 -21 -21zM627 735q-109 0 -176.5 -68t-67.5 -178t67.5 -177.5t176.5 -67.5t176 67.5
t67 177.5q0 111 -66.5 178.5t-176.5 67.5z" />
    <glyph glyph-name="q" unicode="q" horiz-adv-x="1193" 
d="M1081 958v-1402q0 -23 -20 -23h-221q-25 0 -25 23v532q-102 -111 -264 -111q-222 0 -358 142t-136 370q0 229 136 371q135 141 358 141q189 0 291 -141l32 101q9 20 23 20h164q20 -3 20 -23zM565 244q110 0 178 67.5t68 177.5t-68 178t-178 68q-109 0 -175 -68t-66 -178
t66 -177.5t175 -67.5z" />
    <glyph glyph-name="r" unicode="r" horiz-adv-x="755" 
d="M662 700q-66 29 -127 29q-102 0 -154 -104v-605q0 -20 -23 -20h-225q-20 0 -20 20l-2 938q0 21 22 21h156q22 0 28 -21l23 -59q106 100 246 100q56 0 147 -24q21 -6 15 -27l-56 -235q-9 -22 -30 -13z" />
    <glyph glyph-name="s" unicode="s" horiz-adv-x="917" 
d="M76 88q-16 9 -6 29l90 180q6 15 28 6q122 -67 228 -76q69 -6 118.5 11.5t49.5 46.5q0 31 -38.5 50t-154.5 52l-26 8q-289 79 -295 293q-6 150 110 232q119 84 295 81q100 -1 193 -35t143 -73q16 -13 6 -29l-90 -170q-9 -17 -33 -8q-1 0 -12 6t-27.5 14.5t-27.5 12.5
q-58 25 -119 33q-70 10 -121 -8t-51 -50q0 -30 38.5 -50t133.5 -44q179 -39 260 -107t82 -192q3 -147 -105 -235q-110 -87 -282 -84q-131 0 -238 36q-113 39 -149 70z" />
    <glyph glyph-name="t" unicode="t" horiz-adv-x="692" 
d="M442 731v-264q0 -130 14 -171.5t58 -41.5q22 0 78 29q20 10 29 -9l63 -194q10 -23 -6 -33q-86 -68 -217 -65q-133 0 -209 88.5t-74 242.5v418h-121q-20 0 -20 19v208q0 21 20 21h121l2 293q0 20 19 20h223q20 0 20 -20v-293h185q20 0 20 -21v-208q0 -19 -20 -19h-185z
" />
    <glyph glyph-name="u" unicode="u" horiz-adv-x="1144" 
d="M805 20l-21 93q-120 -138 -319 -138q-162 0 -260.5 119.5t-98.5 319.5l-2 542q0 23 21 23h227q21 0 21 -23v-487q0 -242 190 -242q86 0 142 69.5t63 203.5v456q0 23 20 23h226q20 0 20 -21v-938q0 -20 -20 -20h-183q-20 0 -26 20z" />
    <glyph glyph-name="v" unicode="v" horiz-adv-x="1036" 
d="M1032 952l-358 -934q-6 -18 -29 -18h-254q-23 0 -29 18l-358 934q-9 27 19 27h241q17 0 23 -16l231 -646l230 646q6 16 24 16h242q27 0 18 -27z" />
    <glyph glyph-name="w" unicode="w" horiz-adv-x="1386" 
d="M295 961l123 -582l157 582q6 18 23 18h190q22 0 25 -18l158 -617l119 617q3 18 20 18h258q20 0 14 -21l-258 -942q-6 -16 -24 -16h-240q-18 0 -24 16l-144 578l-145 -578q-6 -16 -25 -16h-233q-20 0 -23 16l-262 942q-9 21 12 21h258q18 0 21 -18z" />
    <glyph glyph-name="x" unicode="x" horiz-adv-x="1040" 
d="M512 274l-180 -258q-10 -16 -31 -16h-274q-11 0 -14.5 9t3.5 16l336 464l-338 463q-7 10 -3.5 18.5t14.5 8.5h278q20 0 33 -16l180 -254l180 254q13 16 33 16h272q12 0 16.5 -8.5t-3.5 -16.5l-338 -458l338 -471q8 -7 4 -16t-17 -9h-280q-18 0 -31 16z" />
    <glyph glyph-name="y" unicode="y" horiz-adv-x="1034" 
d="M776 979h234q31 0 16 -27l-547 -1401q-9 -18 -28 -18h-232q-28 0 -16 27l174 448l-371 944q-9 27 14 27h242q19 0 25 -18l217 -625l246 625q6 18 26 18z" />
    <glyph glyph-name="z" unicode="z" horiz-adv-x="940" 
d="M850 0h-766q-26 0 -14 27l385 704h-344q-21 0 -21 19v208q0 21 21 21h743q28 0 10 -35l-379 -696h365q18 0 18 -21v-207q0 -20 -18 -20z" />
    <glyph glyph-name="braceleft" unicode="{" horiz-adv-x="739" 
d="M137 647q142 53 142 162v319q0 114 32 195q41 96 172 96h146q26 0 26 -26v-183q0 -28 -26 -28h-58q-36 0 -36 -54v-311q0 -184 -158 -274q158 -90 158 -275v-311q0 -53 36 -53h58q26 0 26 -29v-182q0 -27 -26 -27h-146q-131 0 -172 96q-32 81 -32 195v319q0 109 -142 162
q-14 6 -14 19v174q0 10 14 16z" />
    <glyph glyph-name="bar" unicode="|" horiz-adv-x="442" 
d="M348 1450v-1888q0 -29 -26 -29h-197q-29 0 -29 29v1888q-3 29 29 29h194q29 0 29 -29z" />
    <glyph glyph-name="braceright" unicode="}" horiz-adv-x="739" 
d="M166 1182h-57q-27 0 -27 28v183q0 26 27 26h145q132 0 170 -96q35 -82 35 -195v-319q0 -109 141 -162q14 -6 14 -16v-174q0 -13 -14 -19q-141 -52 -141 -162v-319q0 -113 -35 -195q-38 -96 -170 -96h-145q-27 0 -27 27v184q0 27 27 27h57q37 3 37 53v311q0 186 157 275
q-157 89 -157 274v311q0 54 -37 54z" />
    <glyph glyph-name="asciitilde" unicode="~" horiz-adv-x="1165" 
d="M229 293q-4 -11 -14.5 -12.5t-17.5 6.5l-138 145q-18 21 -8 41q42 120 130 194t196 74q75 0 142.5 -31.5t107.5 -76.5q105 -105 168 -103q31 0 55 27q25 25 38.5 51.5t35.5 87.5l6 17q14 33 39 8l137 -141q17 -17 8 -37q-45 -124 -131.5 -203.5t-194.5 -79.5
q-72 0 -140.5 31t-115.5 74q-98 106 -163 106q-20 0 -36.5 -9t-32 -31.5t-24 -37t-25 -51.5t-22.5 -49z" />
    <glyph glyph-name="uni00A0" unicode="&#xa0;" horiz-adv-x="641" 
 />
    <glyph glyph-name="exclamdown" unicode="&#xa1;" horiz-adv-x="514" 
d="M137 1001h234q20 0 20 -20l4 -961q0 -20 -20 -20h-242q-20 0 -20 20l4 961q0 20 20 20zM102 1286q0 69 42.5 111.5t111.5 42.5t110.5 -42.5t41.5 -111.5q0 -68 -41.5 -108.5t-110.5 -40.5t-111.5 41t-42.5 108z" />
    <glyph glyph-name="cent" unicode="&#xa2;" horiz-adv-x="1046" 
d="M639 723l-88 -481h12q133 0 221 108q20 20 33 8l160 -151q13 -9 2 -27q-132 -203 -416 -203q-43 0 -61 3l-35 -181q-3 -20 -25 -20h-75q-22 0 -19 20l39 205q-154 47 -242 176t-88 307q0 234 146 371q148 136 350 139h20l21 113q3 20 24 20h78q20 0 17 -20l-25 -125
q194 -41 307 -209q12 -16 0 -28l-176 -144q-13 -13 -28 10q-63 85 -152 109zM438 272l84 457h-4q-91 -13 -143.5 -78.5t-52.5 -163.5q0 -154 116 -215z" />
    <glyph glyph-name="sterling" unicode="&#xa3;" horiz-adv-x="1005" 
d="M850 0h-694q-12 0 -18 9t-1 20q175 390 123 592h-151q-27 0 -27 28v76q0 29 27 29h98q-76 155 -76 290q3 173 119 283q116 113 291 113q225 0 372 -176q15 -16 -2 -33l-151 -162q-17 -17 -35 4q-86 105 -186 105q-61 -1 -99.5 -39t-38.5 -95q0 -42 15 -88
q10 -32 42.5 -106t39.5 -96h207q26 0 26 -29v-76q0 -28 -26 -28h-175q24 -158 -41 -371h363q25 0 25 -23v-200q0 -27 -27 -27z" />
    <glyph glyph-name="currency" unicode="&#xa4;" horiz-adv-x="1196" 
d="M600 954q116 0 205 -47l115 125q14 12 26 0l156 -155q12 -12 0 -27l-127 -121q39 -77 39 -188q0 -120 -47 -209l133 -123q15 -12 0 -27l-156 -155q-14 -15 -29 0l-129 137q-79 -39 -186 -39q-98 0 -182 35l-129 -144q-15 -12 -27 0l-158 158q-15 15 0 27l129 123
q-51 92 -51 217q0 96 35 180l-131 121q-14 12 0 26l156 156q12 12 26 0l115 -121q92 51 217 51zM375 541q0 -99 62.5 -161.5t160.5 -62.5q100 0 161.5 62t63.5 162q0 99 -61.5 160.5t-163.5 62.5q-103 2 -163.5 -59t-59.5 -164z" />
    <glyph glyph-name="yen" unicode="&#xa5;" horiz-adv-x="1267" 
d="M494 20v232h-226q-20 0 -20 20v64q0 20 20 20h226v144h-226q-20 0 -20 20v64q0 20 20 20h195h8l-465 791q-15 24 14 24h252q19 0 29 -16l334 -592l334 592q6 16 28 16h250q30 0 15 -24l-465 -791h12h180q21 0 21 -20v-64q0 -20 -21 -20h-217v-144h217q21 0 21 -20v-64
q0 -20 -21 -20h-217v-232q3 -20 -18 -20h-240q-20 0 -20 20z" />
    <glyph glyph-name="brokenbar" unicode="&#xa6;" horiz-adv-x="440" 
d="M125 254h190q18 0 21 -21v-679q0 -21 -21 -21h-190q-21 0 -21 21v679q0 21 21 21zM125 1479h190q21 0 21 -21v-680q0 -20 -21 -20h-188q-23 0 -23 20v680q0 21 21 21z" />
    <glyph glyph-name="section" unicode="&#xa7;" horiz-adv-x="1187" 
d="M82 1040q-6 188 131.5 295t380.5 105q159 -3 272 -47q119 -46 162 -86q16 -9 6 -29l-94 -199q-12 -15 -31 -6q-163 105 -327 105q-101 0 -160.5 -30.5t-59.5 -84.5q0 -46 44 -72q20 -11 81 -26l136 -29q240 -54 358 -152q115 -95 121 -286q3 -127 -80 -236
q77 -77 80 -225q3 -179 -141 -281q-142 -103 -377 -100q-177 3 -312 59q-141 60 -188 107q-14 9 -4 26l119 193q8 19 30 4q54 -45 156 -84q107 -43 221 -43q215 0 215 113q0 49 -51 75q-55 30 -205 56q-247 43 -363 142t-120 276q-6 134 78 247q-75 75 -78 213zM623 426
q89 -20 127 -33q71 38 71 101q0 133 -256 180q-121 24 -123 26q-80 -38 -80 -100q0 -63 60 -103t201 -71z" />
    <glyph glyph-name="dieresis" unicode="&#xa8;" horiz-adv-x="727" 
d="M102 1229q-37 37 -37 96t37 96t96.5 37t96.5 -37t37 -96t-37 -96t-96.5 -37t-96.5 37zM426 1229q-37 37 -37 96t37 96t96 37t96 -37t37 -96t-37 -96t-96 -37t-96 37z" />
    <glyph glyph-name="copyright" unicode="&#xa9;" horiz-adv-x="1619" 
d="M1141 467q-108 -156 -324 -156q-177 0 -285 111t-108 287q0 120 56.5 214t146.5 136q84 44 184 47t191.5 -39.5t142.5 -124.5q9 -16 -4 -29l-129 -114q-19 -16 -35 4q-70 76 -160 76q-75 2 -121.5 -45t-46.5 -125t45 -124t123 -46q103 0 162 71q16 22 37 4l121 -112
q16 -16 4 -35zM80 709q0 331 199 530q201 201 530 201t530 -201t201 -530t-203 -529q-200 -200 -528 -200t-528 200q-201 201 -201 529zM242 709q0 -255 155 -410q156 -156 412 -156q258 0 414 156q157 157 157 410q0 254 -157 411q-158 158 -414 158q-254 0 -412 -158
q-155 -155 -155 -411z" />
    <glyph glyph-name="ordfeminine" unicode="&#xaa;" horiz-adv-x="886" 
d="M627 1442h153q21 0 21 -21v-645q0 -22 -23 -22h-153q-17 0 -23 20l-20 57q-71 -92 -193 -92q-155 0 -250.5 99t-95.5 260t95.5 259.5t250.5 98.5q122 0 193 -92l20 57q6 21 25 21zM553 1100q0 61 -39.5 97t-101.5 36q-63 0 -103 -37q-38 -37 -38 -98.5t38 -98.5
q39 -36 103 -36q63 0 102 37t39 100z" />
    <glyph glyph-name="guillemotleft" unicode="&#xab;" horiz-adv-x="1052" 
d="M522 526v37q0 24 17 41l301 318q22 22 43 0l114 -113q17 -17 2 -39l-221 -225l221 -226q15 -21 -2 -38l-114 -113q-21 -22 -43 0l-301 317q-17 17 -17 41zM436 922l113 -113q21 -21 2 -39l-219 -225l219 -226q18 -18 -2 -38l-113 -113q-25 -22 -43 0l-303 317
q-16 16 -16 41v37q0 25 16 41l303 318q18 21 43 0z" />
    <glyph glyph-name="logicalnot" unicode="&#xac;" horiz-adv-x="1290" 
d="M1153 811l-2 -436q0 -25 -25 -25h-174q-24 0 -24 27v233h-764q-27 0 -27 27v170q0 28 27 31h960q26 0 29 -27z" />
    <glyph glyph-name="uni00AD" unicode="&#xad;" horiz-adv-x="681" 
 />
    <glyph glyph-name="registered" unicode="&#xae;" horiz-adv-x="1613" 
d="M78 709q0 332 198 530q201 201 531 201q327 0 528 -201t201 -530q0 -328 -201 -529q-200 -200 -528 -200t-528 200q-201 201 -201 529zM807 1278q-254 0 -412 -158q-155 -155 -155 -411q0 -255 155 -410q156 -156 412 -156q257 0 414 154q157 157 157 412q0 256 -157 413
q-156 156 -414 156zM1108 862q0 -79 -40.5 -141t-109.5 -88l154 -281q9 -26 -18 -26h-172q-21 0 -31 16l-123 272h-41l-2 -262q1 -12 -7 -19t-22 -7h-164q-30 0 -30 30v721q0 25 26 25h330q114 0 182 -66.5t68 -173.5zM727 907v-114h113q61 0 61 59q0 55 -61 55h-113z" />
    <glyph glyph-name="overscore" unicode="&#xaf;" horiz-adv-x="665" 
d="M70 1423h526q20 3 20 -18v-135q0 -21 -20 -21h-526q-21 0 -21 21v135q0 18 21 18z" />
    <glyph glyph-name="degree" unicode="&#xb0;" horiz-adv-x="870" 
d="M436 1470q173 0 279 -106q108 -108 108 -281q0 -170 -108 -278q-107 -107 -279 -107q-174 0 -282 105q-107 107 -107 280q0 174 107 281q106 106 282 106zM287 1081q0 -63 41.5 -104t107.5 -41q63 0 105.5 41t42.5 104q0 69 -41 110.5t-107 41.5q-69 0 -109 -41.5
t-40 -110.5z" />
    <glyph glyph-name="plusminus" unicode="&#xb1;" horiz-adv-x="1206" 
d="M705 362h-203q-21 0 -21 21v270h-305q-20 0 -20 21v192q0 21 20 21h305v270q0 18 21 21h203q20 0 20 -21v-270h305q21 0 21 -21v-192q0 -21 -21 -21h-305v-270q0 -21 -20 -21zM1047 231v-157q0 -25 -25 -25h-834q-24 0 -24 25v157q0 25 24 25h834q25 0 25 -25z" />
    <glyph glyph-name="twosuperior" unicode="&#xb2;" horiz-adv-x="667" 
d="M590 979l-29 -57l-24 -35l-58 -86l-47 -68h180q19 0 19 -20v-170q0 -23 -19 -23h-534q-45 0 -25 45l316 467q53 80 53 129q-3 64 -72 64q-66 0 -119 -62q-12 -15 -24 2l-111 129q-10 10 0 21q103 127 283 127q121 0 191.5 -72.5t70.5 -191.5q0 -74 -35 -162
q-7 -20 -16 -37z" />
    <glyph glyph-name="threesuperior" unicode="&#xb3;" horiz-adv-x="720" 
d="M258 932v123q0 20 21 20h51q82 0 82 90q0 32 -22 54t-54 22q-66 0 -121 -55q-16 -16 -25 0l-96 114q-9 16 0 25q103 115 268 115q123 0 201 -69t78 -175q0 -121 -84 -205q111 -64 111 -215q0 -123 -87.5 -199.5t-228.5 -76.5q-135 0 -221.5 77.5t-93.5 206.5q-3 21 18 21
h178q17 0 17 -17q-1 -44 48.5 -63t98 4.5t43.5 81.5q0 94 -94 100h-67q-21 0 -21 21z" />
    <glyph glyph-name="acute" unicode="&#xb4;" horiz-adv-x="567" 
d="M393 1509l119 -147q16 -16 -4 -31l-358 -235q-16 -13 -31 2l-66 78q-9 15 4 28l303 305q18 18 33 0z" />
    <glyph glyph-name="mu" unicode="&#xb5;" horiz-adv-x="1153" 
d="M774 500v454q0 25 23 25h223q20 0 20 -21v-938q0 -20 -20 -20h-186q-18 0 -21 20l-22 93q-120 -138 -318 -138q-53 0 -96 19v-426q0 -33 -33 -33h-201q-32 0 -32 33v1388q0 23 22 23h225q21 0 21 -23v-487q0 -242 190 -242q86 0 142.5 69.5t62.5 203.5z" />
    <glyph glyph-name="paragraph" unicode="&#xb6;" horiz-adv-x="1187" 
d="M815 1171h-168v-1245q0 -24 -22 -24h-170q-25 0 -25 24v744q-167 0 -271 103.5t-104 270.5t104 271t271 104h78q3 3 6 0h594q22 0 22 -22v-201q0 -25 -22 -25h-76v-1245q0 -24 -22 -24h-168q-27 0 -27 26v1243z" />
    <glyph glyph-name="middot" unicode="&#xb7;" horiz-adv-x="432" 
d="M35 571q0 84 50 134.5t132 50.5q81 0 131.5 -51.5t50.5 -133.5t-50 -133t-132 -51t-132 51t-50 133z" />
    <glyph glyph-name="cedilla" unicode="&#xb8;" horiz-adv-x="608" 
d="M209 0h207l-33 -76q179 -22 176 -172q-1 -94 -71.5 -146t-180.5 -52q-144 0 -250 77q-14 11 -4 27l45 76q10 10 27 4q84 -35 156 -35q38 0 62 16.5t24 42.5q0 58 -105 58h-110q-22 0 -13 18z" />
    <glyph glyph-name="onesuperior" unicode="&#xb9;" horiz-adv-x="442" 
d="M47 1421h299q25 0 25 -24v-852q0 -27 -25 -27h-184q-27 0 -27 27v659h-84q-23 0 -26 25v168q0 24 22 24z" />
    <glyph glyph-name="ordmasculine" unicode="&#xba;" horiz-adv-x="800" 
d="M43 1100q0 160 98 259t258 99q161 0 260 -98.5t99 -259.5t-99 -261t-260 -100q-160 0 -258 100t-98 261zM266 1100q0 -62 36.5 -99.5t96.5 -37.5t96.5 37.5t36.5 99.5q0 60 -36.5 96.5t-96.5 36.5t-96.5 -36.5t-36.5 -96.5z" />
    <glyph glyph-name="guillemotright" unicode="&#xbb;" horiz-adv-x="1056" 
d="M547 563v-37q0 -24 -17 -41l-303 -317q-19 -22 -41 0l-114 113q-23 23 -2 38l221 226l-221 225q-18 18 2 39l114 113q22 22 41 0l303 -318q17 -17 17 -41zM520 809l113 113q21 22 43 0l303 -318q16 -16 16 -41v-37q0 -25 -16 -41l-303 -317q-22 -22 -43 0l-113 113
q-23 23 -2 38l219 226l-219 225q-18 18 2 39z" />
    <glyph glyph-name="onequarter" unicode="&#xbc;" horiz-adv-x="1687" 
d="M1614 315v-135q3 -20 -19 -20h-79v-133q0 -27 -23 -27h-190q-23 0 -23 25v135h-408q-42 0 -24 37l358 686q8 19 31 16h256q20 0 23 -20v-545h77q21 0 21 -19zM274 29l811 1435q6 15 29 15h215q12 0 19 -7.5t2 -15.5l-813 -1442q-8 -14 -29 -14h-215q-35 0 -19 29z
M182 545v659h-84q-24 0 -24 25l-2 168q0 24 24 24h299q23 0 23 -24l2 -852q0 -27 -27 -27h-184q-27 0 -27 27zM1112 334h168v321z" />
    <glyph glyph-name="onehalf" unicode="&#xbd;" horiz-adv-x="1693" 
d="M274 29l811 1435q6 15 29 15h215q30 0 21 -25l-813 -1440q-8 -14 -29 -14h-213q-37 0 -21 29zM96 1421h299q23 0 23 -24l2 -852q0 -27 -27 -27h-182q-29 0 -29 27v659h-84q-24 0 -24 25v168q0 24 22 24zM1552 424l-12 -23l-129 -188h180q19 0 19 -18v-172q3 -23 -19 -23
h-534q-45 3 -23 45l111 172q73 112 141 205l62 90q56 95 53 131q0 27 -19 44.5t-51 17.5q-65 0 -119 -60q-12 -14 -26 0l-111 129q-10 13 0 23q107 125 283 125q122 0 193 -72t71 -191q0 -50 -18 -120q-2 -13 -17 -47q-10 -25 -35 -68z" />
    <glyph glyph-name="threequarters" unicode="&#xbe;" horiz-adv-x="1900" 
d="M469 31l807 1431q14 17 35 17h211q12 0 18.5 -7.5t1.5 -15.5l-811 -1440q-13 -16 -33 -16h-211q-37 0 -18 31zM303 932v123q0 20 21 20h51q82 3 82 90q0 32 -22 54t-54 22q-65 0 -123 -55q-13 -16 -22 0l-97 114q-9 16 0 25q95 115 269 115q122 0 199 -69t77 -175
q0 -123 -82 -205q111 -64 111 -215q0 -123 -87.5 -199.5t-228.5 -76.5q-136 0 -222.5 78t-92.5 206q-3 21 18 21h179q16 0 16 -17q0 -44 49.5 -63t97 4.5t41.5 81.5q0 94 -92 100h-67q-24 0 -21 21zM1827 315v-135q0 -20 -21 -20h-77v-133q0 -27 -25 -27h-188q-26 0 -23 25
v135h-408q-42 0 -24 37l358 686q8 19 31 16h256q20 0 23 -20v-545h77q21 0 21 -19zM1325 334h168v321z" />
    <glyph glyph-name="questiondown" unicode="&#xbf;" horiz-adv-x="968" 
d="M393 987q3 21 23 21h243q21 0 21 -21q-4 -89 -37.5 -167.5t-85.5 -131.5q-20 -21 -55 -56t-57 -58.5t-46 -53.5t-35.5 -59t-11.5 -58q1 -76 46 -115.5t120 -41.5q117 0 219 129q13 16 29 0l154 -172q16 -12 0 -31q-158 -192 -422 -192q-177 0 -301 106q-123 108 -123 276
q0 93 30 171t78 129q17 19 53 54.5t57.5 59t46.5 58t38.5 72.5t15.5 81zM532 1126q-69 0 -112 43.5t-43 112.5q0 72 43 115t112.5 42.5t112.5 -44.5q45 -42 45 -113q0 -70 -43 -113t-115 -43z" />
    <glyph glyph-name="Agrave" unicode="&#xc0;" horiz-adv-x="1372" 
d="M1090 14l-129 336h-549l-129 -336q-6 -14 -23 -14h-240q-23 0 -16 23l531 1378q6 18 28 18h246q23 0 29 -18l528 -1378q10 -23 -14 -23h-242q-17 0 -20 14zM870 588l-184 481l-184 -481h368zM834 1446l-394 190q-22 13 -6 29l96 162q12 21 33 6l348 -266q16 -13 7 -29
l-54 -86q-9 -15 -30 -6z" />
    <glyph glyph-name="Aacute" unicode="&#xc1;" horiz-adv-x="1372" 
d="M1090 14l-129 336h-549l-129 -336q-6 -14 -23 -14h-240q-23 0 -16 23l531 1378q6 18 28 18h246q23 0 29 -18l528 -1378q10 -23 -14 -23h-242q-17 0 -20 14zM870 588l-184 481l-184 -481h368zM858 1831l96 -160q13 -22 -8 -31l-393 -190q-22 -9 -31 6l-53 88q-9 15 6 27
l350 266q18 15 33 -6z" />
    <glyph glyph-name="Acircumflex" unicode="&#xc2;" horiz-adv-x="1372" 
d="M1090 14l-129 336h-549l-129 -336q-6 -14 -23 -14h-240q-23 0 -16 23l531 1378q6 18 28 18h246q23 0 29 -18l528 -1378q10 -23 -14 -23h-242q-17 0 -20 14zM870 588l-184 481l-184 -481h368zM786 1534l-100 92l-102 -92q-17 -10 -25 -10h-209q-26 0 -8 18l229 213
q21 12 29 12h170q14 0 29 -12l229 -213q10 -8 6.5 -13t-14.5 -5h-207q-10 0 -27 10z" />
    <glyph glyph-name="Atilde" unicode="&#xc3;" horiz-adv-x="1372" 
d="M1090 14l-129 336h-549l-129 -336q-6 -14 -23 -14h-240q-23 0 -16 23l531 1378q6 18 28 18h246q23 0 29 -18l528 -1378q10 -23 -14 -23h-242q-17 0 -20 14zM870 588l-184 481l-184 -481h368zM471 1524q-9 -28 -29 -8l-65 71q-16 9 -8 21q29 84 85.5 136t114.5 52
q37 0 68 -15.5t51 -37t38.5 -43.5t41 -37.5t47.5 -15.5q70 0 105 96q9 23 24 8l72 -74q9 -9 6 -20q-26 -84 -82.5 -135.5t-118.5 -51.5q-37 0 -68.5 15.5t-52.5 37.5t-39.5 44t-40.5 37.5t-45 15.5q-70 -3 -104 -96z" />
    <glyph glyph-name="Adieresis" unicode="&#xc4;" horiz-adv-x="1372" 
d="M1090 14l-129 336h-549l-129 -336q-6 -14 -23 -14h-240q-23 0 -16 23l531 1378q6 18 28 18h246q23 0 29 -18l528 -1378q10 -23 -14 -23h-242q-17 0 -20 14zM870 588l-184 481l-184 -481h368zM389 1616q0 61 37 98t96 36.5t96 -38.5q37 -37 37 -96q0 -60 -36.5 -96.5
t-96.5 -36.5q-62 0 -98 36.5t-35 96.5zM713 1616q0 61 36.5 98t96.5 37t95.5 -37.5t35.5 -97.5t-35.5 -96.5t-95.5 -36.5t-96.5 36.5t-36.5 96.5z" />
    <glyph glyph-name="Aring" unicode="&#xc5;" horiz-adv-x="1372" 
d="M1090 14l-129 336h-549l-129 -336q-6 -14 -23 -14h-240q-23 0 -16 23l531 1378q6 18 28 18h246q23 0 29 -18l528 -1378q10 -23 -14 -23h-242q-17 0 -20 14zM870 588l-184 481l-184 -481h368zM532 1505q-53 56 -53 144t53 141t142 53q88 0 141 -53q55 -52 55 -141
t-55 -144q-53 -53 -141 -53q-89 0 -142 53zM594 1649q0 -37 22.5 -59.5t57.5 -22.5q37 0 59.5 22.5t22.5 59.5q0 35 -22.5 57.5t-59.5 22.5q-35 0 -57.5 -22.5t-22.5 -57.5z" />
    <glyph glyph-name="AE" unicode="&#xc6;" horiz-adv-x="1687" 
d="M272 0h-245q-20 0 -25.5 8t2.5 25l729 1370q9 18 31 18h803q24 0 24 -26v-197q0 -27 -24 -27h-377v-325h283q20 0 20 -23v-202q0 -20 -20 -23h-283l-2 -346h401q21 -3 21 -23v-206q0 -23 -19 -23h-661q-21 3 -21 23v333h-432l-176 -340q-6 -16 -29 -16zM909 1192
l-309 -596h309v596z" />
    <glyph glyph-name="Ccedilla" unicode="&#xc7;" horiz-adv-x="1368" 
d="M1307 168q-200 -188 -512 -188q-327 0 -527 200q-198 201 -198 529q0 174 60 316t165 232q217 183 500 183q302 3 508 -191q12 -12 0 -26l-136 -185q-9 -19 -28 0q-143 125 -344 125q-199 3 -324 -125q-121 -127 -121 -329t123 -328q122 -125 322 -125q193 0 344 127
q16 16 28 0l138 -186q15 -15 2 -29zM715 0h196l-30 -72q81 -11 125 -51.5t43 -112.5q-1 -88 -69 -138t-171 -50q-135 0 -238 74q-16 12 -4 24l43 74q9 9 25 2q88 -33 147 -33q36 0 59 16.5t23 41.5q0 53 -98 53h-104q-22 0 -13 18z" />
    <glyph glyph-name="Egrave" unicode="&#xc8;" horiz-adv-x="1089" 
d="M874 594h-452v-328h569q21 0 21 -20v-228q0 -18 -19 -18h-831q-21 0 -21 20v1381q0 20 21 20h809q20 0 20 -20v-227q0 -19 -18 -19h-551v-299h452q21 0 21 -20v-222q0 -20 -21 -20zM662 1446l-394 190q-25 12 -8 29l96 162q9 22 35 6l348 -266q12 -15 4 -29l-51 -86
q-12 -15 -30 -6z" />
    <glyph glyph-name="Eacute" unicode="&#xc9;" horiz-adv-x="1089" 
d="M874 594h-452v-328h569q21 0 21 -20v-228q0 -18 -19 -18h-831q-21 0 -21 20v1381q0 20 21 20h809q20 0 20 -20v-227q0 -19 -18 -19h-551v-299h452q21 0 21 -20v-222q0 -20 -21 -20zM778 1831l96 -160q13 -22 -8 -31l-393 -190q-22 -9 -31 6l-53 88q-9 15 6 27l350 266
q18 15 33 -6z" />
    <glyph glyph-name="Ecircumflex" unicode="&#xca;" horiz-adv-x="1089" 
d="M874 594h-452v-328h569q21 0 21 -20v-228q0 -18 -19 -18h-831q-21 0 -21 20v1381q0 20 21 20h809q20 0 20 -20v-227q0 -19 -18 -19h-551v-299h452q21 0 21 -20v-222q0 -20 -21 -20zM678 1524l-103 90l-102 -90q-18 -11 -24 -11h-209q-28 0 -9 19l230 211q17 14 28 14h170
q21 0 29 -14l230 -211q10 -8 6.5 -13.5t-13.5 -5.5h-209q-13 0 -24 11z" />
    <glyph glyph-name="Edieresis" unicode="&#xcb;" horiz-adv-x="1089" 
d="M874 594h-452v-328h569q21 0 21 -20v-228q0 -18 -19 -18h-831q-21 0 -21 20v1381q0 20 21 20h809q20 0 20 -20v-227q0 -19 -18 -19h-551v-299h452q21 0 21 -20v-222q0 -20 -21 -20zM408 1755q55 1 89.5 -33.5t34.5 -91.5t-34 -92t-90 -35q-57 0 -92 35t-35 92t35 91
t92 34zM715 1755q57 1 92 -33.5t35 -91.5t-35.5 -92t-91.5 -35q-57 0 -92 35t-35 92t35 91t92 34z" />
    <glyph glyph-name="Igrave" unicode="&#xcc;" horiz-adv-x="563" 
d="M422 1401v-1383q0 -18 -21 -18h-239q-21 0 -21 18v1383q0 20 21 20h239q21 0 21 -20zM416 1446l-393 190q-23 13 -7 29l97 162q12 20 32 6l349 -266q16 -13 6 -29l-51 -86q-12 -15 -33 -6z" />
    <glyph glyph-name="Iacute" unicode="&#xcd;" horiz-adv-x="563" 
d="M422 1401v-1383q0 -18 -21 -18h-239q-21 0 -21 18v1383q0 20 21 20h239q21 0 21 -20zM453 1831l96 -160q13 -22 -8 -31l-394 -190q-21 -9 -30 6l-54 88q-9 14 7 27l350 266q18 15 33 -6z" />
    <glyph glyph-name="Icircumflex" unicode="&#xce;" horiz-adv-x="563" 
d="M424 1401v-1383q0 -18 -21 -18h-239q-21 0 -21 18v1383q0 20 21 20h239q21 0 21 -20zM162 1733l37 43h174q10 0 26 -13l242 -225q10 -6 7 -12t-15 -6h-219q-12 0 -27 12zM-82 1538l242 225q23 13 28 13h174l37 -43l-225 -201q-21 -12 -27 -12h-221q-10 0 -13 6t5 12z" />
    <glyph glyph-name="Idieresis" unicode="&#xcf;" horiz-adv-x="563" 
d="M422 1401v-1383q0 -18 -21 -18h-239q-21 0 -21 18v1383q0 20 21 20h239q21 0 21 -20zM-14 1632q0 61 36.5 98t96.5 37q57 0 94 -37.5t37 -97.5t-37 -96.5t-94 -36.5q-61 0 -98 36.5t-35 96.5zM309 1632q0 62 35.5 98.5t95.5 36.5t96.5 -37.5t36.5 -97.5t-36.5 -96.5
t-96.5 -36.5t-95.5 36.5t-35.5 96.5z" />
    <glyph glyph-name="Eth" unicode="&#xd0;" horiz-adv-x="1392" 
d="M596 0h-434q-21 0 -21 20v615h-94q-20 0 -20 20v95q0 20 20 20h94v631q0 20 21 20h434q330 0 528 -192q201 -195 201 -518q0 -328 -199 -521q-199 -190 -530 -190zM422 635v-369h176q202 0 326 121q123 120 123 324q0 203 -123 323q-124 124 -328 121l-174 2v-387h250
q20 0 20 -20v-95q0 -20 -20 -20h-250z" />
    <glyph glyph-name="Ntilde" unicode="&#xd1;" horiz-adv-x="1474" 
d="M1073 1421h240q20 0 20 -20v-1381q0 -20 -20 -20h-275q-13 0 -22 12l-594 946v-938q0 -20 -21 -20h-239q-21 0 -21 20l2 1381q0 20 21 20h274q17 0 25 -14l590 -942l2 936q0 20 18 20zM508 1522q-2 -11 -9.5 -13.5t-15.5 4.5l-67 72q-11 11 -8 25q28 84 85.5 135
t116.5 51q38 0 69.5 -15.5t52 -37t39 -43.5t40.5 -37.5t47 -15.5q67 3 107 96q9 23 24 8l72 -74q12 -9 6 -20q-26 -85 -84 -137t-121 -52q-37 0 -67.5 15.5t-51 38t-39.5 45t-41 38t-47 15.5q-67 -3 -108 -98z" />
    <glyph glyph-name="Ograve" unicode="&#xd2;" horiz-adv-x="1597" 
d="M801 -18q-331 0 -531 200t-200 529q0 328 200 528q204 201 531 201q325 0 526 -201t201 -528q0 -328 -201 -529q-200 -200 -526 -200zM801 260q200 0 323 123q125 125 125 328t-125 325q-122 125 -323 125q-203 0 -328 -125q-123 -123 -123 -325t123 -328
q123 -123 328 -123zM897 1462l-391 191q-24 12 -8 28l96 162q12 21 33 6l348 -266q16 -13 6 -29l-51 -86q-12 -15 -33 -6z" />
    <glyph glyph-name="Oacute" unicode="&#xd3;" horiz-adv-x="1597" 
d="M801 -18q-331 0 -531 200t-200 529q0 328 200 528q204 201 531 201q325 0 526 -201t201 -528q0 -328 -201 -529q-200 -200 -526 -200zM801 260q200 0 323 123q125 125 125 328t-125 325q-122 125 -323 125q-203 0 -328 -125q-123 -123 -123 -325t123 -328
q123 -123 328 -123zM989 1831l96 -160q13 -22 -8 -31l-393 -190q-22 -9 -31 6l-53 88q-9 15 6 27l350 266q18 15 33 -6z" />
    <glyph glyph-name="Ocircumflex" unicode="&#xd4;" horiz-adv-x="1597" 
d="M272 182q-200 200 -200 529q0 328 200 528q201 201 529 201q325 0 526 -201t201 -528q0 -328 -201 -529q-200 -200 -526 -200q-329 0 -529 200zM348 711q0 -202 123 -328q126 -123 330 -123q202 0 325 123q125 125 125 328q0 202 -125 327q-122 125 -325 125
q-205 0 -330 -125q-123 -123 -123 -327zM889 1530l-101 92l-104 -92q-11 -8 -22 -8h-211q-23 0 -7 16l230 213q12 12 28 12h170q17 0 29 -12l229 -213q22 -16 -8 -16h-209q-11 0 -24 8z" />
    <glyph glyph-name="Otilde" unicode="&#xd5;" horiz-adv-x="1597" 
d="M801 -18q-331 0 -531 200t-200 529q0 328 200 528q204 201 531 201q325 0 526 -201t201 -528q0 -328 -201 -529q-200 -200 -526 -200zM801 260q200 0 323 123q125 125 125 328t-125 325q-122 125 -323 125q-203 0 -328 -125q-123 -123 -123 -325t123 -328
q123 -123 328 -123zM573 1522q-2 -11 -9 -13.5t-15 4.5l-68 72q-11 11 -8 25q28 84 86 135t117 51q46 0 83 -23.5t57 -51t48 -51t58 -23.5q68 3 108 96q9 24 25 8l71 -74q12 -9 7 -20q-26 -85 -84 -137t-121 -52q-37 0 -67.5 15.5t-51 38t-39.5 45t-41 38t-47 15.5
q-68 -3 -109 -98z" />
    <glyph glyph-name="Odieresis" unicode="&#xd6;" horiz-adv-x="1597" 
d="M801 -18q-331 0 -531 200t-200 529q0 328 200 528q204 201 531 201q325 0 526 -201t201 -528q0 -328 -201 -529q-200 -200 -526 -200zM801 260q200 0 323 123q125 125 125 328t-125 325q-122 125 -323 125q-203 0 -328 -125q-123 -123 -123 -325t123 -328
q123 -123 328 -123zM504 1632q0 61 36.5 98t96.5 37q57 0 94 -37.5t37 -97.5t-37 -96.5t-94 -36.5q-61 0 -98 36.5t-35 96.5zM827 1632q0 62 35.5 98.5t95.5 36.5t97 -37.5t37 -97.5t-37 -96.5t-97 -36.5t-95.5 36.5t-35.5 96.5z" />
    <glyph glyph-name="multiply" unicode="&#xd7;" horiz-adv-x="964" 
d="M315 657l-217 217q-14 14 0 29l135 135q14 17 29 0l217 -217l219 221q16 13 29 0l141 -141q16 -13 0 -29l-219 -221l217 -217q16 -9 0 -28l-135 -136q-15 -14 -29 0l-217 217l-221 -219q-16 -16 -28 0l-142 142q-14 14 0 28z" />
    <glyph glyph-name="Oslash" unicode="&#xd8;" horiz-adv-x="1581" 
d="M801 -18q-331 0 -531 200t-200 529q0 328 200 528q204 201 531 201q325 0 526 -201t201 -528q0 -328 -201 -529q-200 -200 -526 -200zM801 260q200 0 323 123q125 125 125 328t-125 325q-122 125 -323 125q-203 0 -328 -125q-123 -123 -123 -325t123 -328
q123 -123 328 -123zM135 47l1237 1380q14 17 31 3l61 -56q14 -14 0 -28l-1237 -1383q-14 -14 -28 0l-62 55q-15 12 -2 29z" />
    <glyph glyph-name="Ugrave" unicode="&#xd9;" horiz-adv-x="1382" 
d="M135 557v844q0 18 21 18h241q19 0 19 -18v-846q0 -136 75.5 -215.5t200.5 -79.5t199.5 79.5t73.5 215.5v846q0 18 20 18h242q18 0 18 -18v-846q0 -273 -160 -424q-155 -149 -393 -149q-232 0 -397 151q-160 151 -160 424zM760 1446l-393 190q-23 13 -7 29l97 162
q12 20 32 6l349 -266q16 -13 6 -29l-53 -86q-9 -15 -31 -6z" />
    <glyph glyph-name="Uacute" unicode="&#xda;" horiz-adv-x="1382" 
d="M135 557v844q0 18 21 18h241q19 0 19 -18v-846q0 -136 75.5 -215.5t200.5 -79.5t199.5 79.5t73.5 215.5v846q0 18 20 18h242q18 0 18 -18v-846q0 -273 -160 -424q-155 -149 -393 -149q-232 0 -397 151q-160 151 -160 424zM862 1831l96 -160q13 -22 -8 -31l-393 -190
q-22 -9 -31 6l-53 88q-9 15 6 27l350 266q18 15 33 -6z" />
    <glyph glyph-name="Ucircumflex" unicode="&#xdb;" horiz-adv-x="1382" 
d="M135 557v844q0 20 21 20h239q19 0 19 -20v-846q0 -136 75.5 -215.5t200.5 -79.5q128 0 202 79.5t73 215.5v846q0 20 20 20h240q20 0 20 -20v-846q0 -273 -160 -424q-158 -149 -395 -149q-235 0 -395 151t-160 424zM793 1530l-101 92l-104 -92q-13 -8 -23 -8h-211
q-21 0 -8 16l232 213q12 12 28 12h168q19 0 31 -12l229 -213q22 -16 -8 -16h-209q-11 0 -24 8z" />
    <glyph glyph-name="Udieresis" unicode="&#xdc;" horiz-adv-x="1382" 
d="M135 557v844q0 18 21 18h241q19 0 19 -18v-846q0 -136 75.5 -215.5t200.5 -79.5t199.5 79.5t73.5 215.5v846q0 18 20 18h242q18 0 18 -18v-846q0 -273 -160 -424q-155 -149 -393 -149q-232 0 -397 151q-160 151 -160 424zM397 1632q0 61 36.5 98t96.5 37q57 0 94.5 -37.5
t37.5 -97.5q0 -59 -37 -96t-95 -37q-62 0 -98 36.5t-35 96.5zM721 1632q0 62 35.5 98.5t95.5 36.5t96.5 -37.5t36.5 -97.5t-36.5 -96.5t-96.5 -36.5t-95.5 36.5t-35.5 96.5z" />
    <glyph glyph-name="Yacute" unicode="&#xdd;" horiz-adv-x="1267" 
d="M494 18v547l-488 830q-15 24 14 24h254q17 0 27 -16l334 -592l334 592q6 16 26 16h252q30 0 15 -24l-490 -828v-549q3 -18 -18 -18h-240q-20 0 -20 18zM807 1831l96 -160q13 -22 -8 -31l-393 -190q-22 -9 -31 6l-53 88q-9 15 6 27l350 266q18 15 33 -6z" />
    <glyph glyph-name="Thorn" unicode="&#xde;" horiz-adv-x="1128" 
d="M123 23v1374q0 24 24 24h234q22 0 22 -22v-244h201q210 0 332 -125q122 -122 125 -319q-3 -197 -125 -322q-122 -122 -332 -125h-201v-241q0 -23 -24 -23h-234q-22 0 -22 23zM575 889h-172v-357h172q93 0 149 44.5t56 132.5q0 90 -56.5 136t-148.5 44z" />
    <glyph glyph-name="germandbls" unicode="&#xdf;" horiz-adv-x="1198" 
d="M629 260q53 -35 106 -35q54 1 83.5 28t29.5 62q0 41 -43 96.5t-105 104.5q-61 52 -104 124t-43 142t78 166q80 95 80 137q0 109 -113 109q-97 0 -137.5 -95t-42.5 -300v-776q0 -23 -25 -23h-231q-25 0 -25 25v950q0 219 123 343t330 126q172 -3 287 -98q112 -93 112 -261
q3 -47 -24 -94.5t-61 -79.5t-63.5 -69t-31.5 -66q0 -31 33 -62t79.5 -63t93.5 -73t80 -108t33 -151q3 -165 -108 -270q-110 -104 -289 -104q-103 0 -207 55q-19 5 -10 33l86 219q9 18 29 8z" />
    <glyph glyph-name="agrave" unicode="&#xe0;" horiz-adv-x="1208" 
d="M836 862l32 99q9 21 23 18h186q21 0 21 -21v-938q-3 -20 -23 -20h-186q-17 0 -23 20l-30 95q-105 -138 -287 -138q-219 -3 -356 140q-136 145 -136 370q0 228 136 367q135 141 356 141q181 3 287 -133zM322 487q0 -108 67.5 -175.5t173.5 -67.5q110 0 178.5 66.5
t69.5 176.5q-1 110 -70 177t-178 67t-175 -67t-66 -177zM647 1049l-358 237q-21 15 -4 29l116 145q14 17 35 2l303 -307q15 -12 2 -25l-65 -79q-14 -14 -29 -2z" />
    <glyph glyph-name="aacute" unicode="&#xe1;" horiz-adv-x="1208" 
d="M836 862l32 99q9 21 23 18h186q21 0 21 -21v-938q-3 -20 -23 -20h-186q-17 0 -23 20l-30 95q-105 -138 -287 -138q-219 -3 -356 140q-136 145 -136 370q0 228 136 367q135 141 356 141q181 3 287 -133zM322 487q0 -108 67.5 -175.5t173.5 -67.5q110 0 178.5 66.5
t69.5 176.5q-1 110 -70 177t-178 67t-175 -67t-66 -177zM776 1464l117 -147q7 -6 6.5 -15t-8.5 -14l-363 -241q-19 -9 -30 2l-66 81q-11 11 2 27l309 307q15 21 33 0z" />
    <glyph glyph-name="acircumflex" unicode="&#xe2;" horiz-adv-x="1208" 
d="M836 862l32 99q9 21 23 18h186q21 0 21 -21v-938q-3 -20 -23 -20h-186q-17 0 -23 20l-30 95q-105 -138 -287 -138q-219 -3 -356 140q-136 145 -136 370q0 228 136 367q135 141 356 141q181 3 287 -133zM322 487q0 -108 67.5 -175.5t173.5 -67.5q110 0 178.5 66.5
t69.5 176.5q-1 110 -70 177t-178 67t-175 -67t-66 -177zM272 1118l195 273q6 9 27 12h180q16 0 28 -12l193 -271q12 -18 -8 -18h-189q-14 0 -24 10l-90 141l-90 -139q-9 -12 -23 -12h-192q-20 0 -7 16z" />
    <glyph glyph-name="atilde" unicode="&#xe3;" horiz-adv-x="1208" 
d="M836 862l32 99q9 21 23 18h186q21 0 21 -21v-938q-3 -20 -23 -20h-186q-17 0 -23 20l-30 95q-105 -138 -287 -138q-219 -3 -356 140q-136 145 -136 370q0 228 136 367q135 141 356 141q181 3 287 -133zM322 487q0 -108 67.5 -175.5t173.5 -67.5q110 0 178.5 66.5
t69.5 176.5q-1 110 -70 177t-178 67t-175 -67t-66 -177zM369 1120q-12 -21 -27 -6l-68 70q-6 13 -4 18q26 83 81 133.5t114 50.5q36 0 65.5 -15t49 -37t37 -43.5t39 -36.5t46.5 -15q69 3 103 96q6 21 22 8l70 -71q9 -9 6 -19q-24 -83 -79 -132.5t-117 -49.5q-36 0 -65.5 15
t-49.5 36.5t-38 43t-39.5 36.5t-45.5 15q-66 -3 -100 -97z" />
    <glyph glyph-name="adieresis" unicode="&#xe4;" horiz-adv-x="1208" 
d="M836 862l32 99q9 21 23 18h186q21 0 21 -21v-938q-3 -20 -23 -20h-186q-17 0 -23 20l-30 95q-105 -138 -287 -138q-219 -3 -356 140q-136 145 -136 370q0 228 136 367q135 141 356 141q181 3 287 -133zM322 487q0 -108 67.5 -175.5t173.5 -67.5q110 0 178.5 66.5
t69.5 176.5q-1 110 -70 177t-178 67t-175 -67t-66 -177zM430 1112q-60 0 -96.5 37.5t-36.5 97.5t36.5 96.5t96.5 36.5t95.5 -36.5t35.5 -96.5t-37 -97.5t-94 -37.5zM655 1149q-35 38 -35 97.5t35 96.5q37 37 96.5 37t96.5 -37q38 -37 38 -96.5t-38 -97.5q-37 -37 -96.5 -37
t-96.5 37z" />
    <glyph glyph-name="aring" unicode="&#xe5;" horiz-adv-x="1208" 
d="M836 862l32 99q9 21 23 18h186q21 0 21 -21v-938q-3 -20 -23 -20h-186q-17 0 -23 20l-30 95q-105 -138 -287 -138q-219 -3 -356 140q-136 145 -136 370q0 228 136 367q135 141 356 141q181 3 287 -133zM322 487q0 -108 67.5 -175.5t173.5 -67.5q110 0 178.5 66.5
t69.5 176.5q-1 110 -70 177t-178 67t-175 -67t-66 -177zM786 1270q0 -91 -52.5 -144t-143.5 -53q-88 0 -144 53q-53 56 -53 144t53 141q55 55 144 55q88 0 142 -54t54 -142zM524 1270q0 -31 18.5 -49.5t47.5 -18.5q31 0 49 18.5t18 49.5q0 30 -18.5 48.5t-48.5 18.5
q-29 0 -47.5 -19t-18.5 -48z" />
    <glyph glyph-name="ae" unicode="&#xe6;" horiz-adv-x="1900" 
d="M1565 293q19 14 34 2l140 -148q15 -15 0 -30q-122 -137 -393 -140q-133 0 -250 60v-21q-3 -16 -21 -16h-186q-17 0 -23 20l-30 95q-105 -138 -287 -138q-219 -3 -356 140q-136 145 -136 370q0 228 136 367q135 141 356 141q181 3 287 -133l32 99q9 21 23 18h186
q21 0 21 -18v-23q103 59 239 59q258 0 381 -163q125 -162 125 -428q0 -21 -22 -21h-705q53 -158 244 -158q127 0 205 66zM563 244q110 0 178.5 66.5t69.5 176.5q-1 110 -70 177t-178 67t-175 -67t-66 -177q0 -108 67.5 -175.5t173.5 -67.5zM1110 578h453q-19 79 -78 124.5
t-148 45.5q-91 0 -149.5 -45t-77.5 -125z" />
    <glyph glyph-name="ccedilla" unicode="&#xe7;" horiz-adv-x="1046" 
d="M979 180q-138 -203 -416 -203q-227 0 -366 142q-140 143 -140 368q0 237 146 371q148 136 352 139q291 6 440 -221q16 -19 0 -28l-172 -140q-17 -17 -32 6q-82 119 -228 119q-109 0 -175 -68t-66 -178t66 -177.5t175 -67.5q133 0 221 108q20 20 37 4l154 -145
q14 -9 4 -29zM440 0h197l-33 -72q171 -23 168 -164q-1 -89 -67.5 -138.5t-172.5 -49.5q-134 0 -237 74q-13 13 -4 24l43 74q8 8 26 2q82 -33 148 -33q36 0 59 16.5t23 41.5q0 53 -101 53h-104q-21 0 -12 18z" />
    <glyph glyph-name="egrave" unicode="&#xe8;" horiz-adv-x="1126" 
d="M336 575h452q-19 81 -77.5 127t-147.5 46q-91 0 -149.5 -46t-77.5 -127zM1049 385h-707q53 -158 246 -158q130 0 203 64q21 18 34 2l140 -146q14 -14 2 -30q-128 -137 -396 -140q-229 0 -372 140q-142 142 -142 370q0 226 140 369q138 141 366 141q243 0 375 -148.5
t131 -442.5q0 -10 -6 -16.5t-14 -4.5zM625 1047l-359 237q-21 15 -4 29l117 145q15 22 35 2l303 -307q15 -12 2 -25l-66 -79q-14 -14 -28 -2z" />
    <glyph glyph-name="eacute" unicode="&#xe9;" horiz-adv-x="1126" 
d="M336 575h452q-19 81 -77.5 127t-147.5 46q-91 0 -149.5 -46t-77.5 -127zM1049 385h-707q53 -158 246 -158q130 0 203 64q21 18 34 2l140 -146q14 -14 2 -30q-128 -137 -396 -140q-229 0 -372 140q-142 142 -142 370q0 226 140 369q138 141 366 141q243 0 375 -148.5
t131 -442.5q0 -10 -6 -16.5t-14 -4.5zM700 1462l117 -145q17 -17 -4 -29l-358 -237q-16 -13 -31 2l-66 80q-9 9 2 26l308 303q15 20 32 0z" />
    <glyph glyph-name="ecircumflex" unicode="&#xea;" horiz-adv-x="1124" 
d="M336 575h452q-19 81 -77.5 127t-147.5 46q-91 0 -149.5 -46t-77.5 -127zM1049 385h-707q53 -158 246 -158q130 0 203 64q21 18 34 2l140 -146q14 -14 2 -30q-128 -137 -396 -140q-229 0 -372 140q-142 142 -142 370q0 226 140 369q138 141 366 141q243 0 375 -148.5
t131 -442.5q0 -10 -6 -16.5t-14 -4.5zM238 1102l194 272q8 12 27 15h182q12 0 27 -15l192 -270q16 -19 -8 -19h-188q-12 0 -23 11l-92 141l-90 -139q-10 -13 -23 -13h-190q-22 0 -8 17z" />
    <glyph glyph-name="edieresis" unicode="&#xeb;" horiz-adv-x="1126" 
d="M336 575h452q-19 81 -77.5 127t-147.5 46q-91 0 -149.5 -46t-77.5 -127zM1049 385h-707q53 -158 246 -158q130 0 203 64q21 18 34 2l140 -146q14 -14 2 -30q-128 -137 -396 -140q-229 0 -372 140q-142 142 -142 370q0 226 140 369q138 141 366 141q243 0 375 -148.5
t131 -442.5q0 -10 -6 -16.5t-14 -4.5zM270 1243q0 59 36 95t93 36t91 -35.5t34 -95.5q0 -55 -35 -90t-90 -35q-57 0 -93 35t-36 90zM582 1243q0 59 36 95t93 36t91 -35.5t34 -95.5q0 -55 -35 -90t-90 -35q-57 0 -93 35t-36 90z" />
    <glyph glyph-name="igrave" unicode="&#xec;" horiz-adv-x="493" 
d="M381 961v-941q0 -20 -21 -20h-227q-20 0 -20 20v941q0 20 18 20h229q21 0 21 -20zM358 1059l-356 237q-26 13 -4 29l117 145q15 20 35 3l303 -308q15 -15 2 -24l-66 -80q-15 -15 -31 -2z" />
    <glyph glyph-name="iacute" unicode="&#xed;" horiz-adv-x="491" 
d="M381 961v-941q0 -20 -21 -20h-227q-20 0 -20 20v941q0 20 18 20h229q21 0 21 -20zM358 1464l121 -147q16 -16 -6 -31l-358 -237q-16 -13 -31 2l-66 82q-12 9 2 26l306 305q17 17 32 0z" />
    <glyph glyph-name="icircumflex" unicode="&#xee;" horiz-adv-x="493" 
d="M381 961v-941q0 -20 -21 -20h-227q-20 0 -20 20v941q0 20 18 20h229q21 0 21 -20zM-76 1106l205 287q7 11 29 14h190q15 0 29 -14l203 -285q15 -18 -9 -18h-198q-15 0 -25 10l-96 149l-94 -147q-9 -12 -25 -12h-201q-21 0 -8 16z" />
    <glyph glyph-name="idieresis" unicode="&#xef;" horiz-adv-x="493" 
d="M381 961v-941q0 -20 -21 -20h-227q-20 0 -20 20v941q0 20 18 20h229q21 0 21 -20zM-16 1130q-37 37 -37 96.5t37 96.5q35 38 94 38t96 -38q37 -37 37 -96.5t-37 -96.5t-96 -37t-94 37zM305 1130q-37 37 -37 96.5t37 96.5q37 38 96.5 38t96.5 -38q37 -37 37 -96.5
t-37 -96.5t-96.5 -37t-96.5 37z" />
    <glyph glyph-name="eth" unicode="&#xf0;" horiz-adv-x="1103" 
d="M551 -20q-199 0 -332 124q-135 126 -135 320q0 195 117 315q118 121 309 121q68 0 141 -31q-68 121 -182 220l-193 -99q-9 -9 -22 4l-57 58q-15 15 4 24l170 88q-72 50 -170 101q-17 8 -8 26l104 187q10 16 29 10q171 -59 317 -184l178 90q17 10 27 -4l55 -58
q15 -15 -4 -24l-170 -86q140 -152 217.5 -340.5t73.5 -384.5q0 -226 -133 -353q-130 -124 -336 -124zM756 432q0 88 -54 137t-151 49q-91 0 -145 -52t-54 -138q0 -84 55.5 -135t143.5 -51q85 0 145 55.5t60 134.5z" />
    <glyph glyph-name="ntilde" unicode="&#xf1;" horiz-adv-x="1122" 
d="M102 20l-2 938q0 21 23 21h180q21 0 27 -21l22 -94q96 140 293 140q165 0 266 -119q103 -121 103 -320v-545q0 -20 -21 -20h-225q-10 0 -16 6t-4 14v490q0 105 -50 165t-133 60q-83 -2 -136.5 -68.5t-59.5 -189.5v-457q0 -18 -21 -18h-225q-21 0 -21 18zM342 1159
q-12 -24 -25 -8l-65 70q-11 8 -8 20q26 80 81 129t113 49q35 0 64 -14.5t49 -35.5t37.5 -41.5t39 -35t44.5 -14.5q67 3 102 92q9 22 23 8l69 -71q9 -9 6 -19q-24 -80 -79.5 -130t-114.5 -50q-35 0 -64.5 14.5t-49.5 36t-38.5 42.5t-39.5 35.5t-44 14.5q-65 -3 -100 -92z" />
    <glyph glyph-name="ograve" unicode="&#xf2;" horiz-adv-x="1132" 
d="M565 1004q230 0 369 -142q141 -141 141 -370q0 -230 -141 -371q-138 -141 -369 -141q-227 0 -368 141q-140 143 -140 371q0 227 140 370q142 142 368 142zM565 246q110 0 177 68t67 178t-67 177.5t-177 67.5q-109 0 -175 -67.5t-66 -177.5t66 -178t175 -68zM621 1047
l-359 237q-21 15 -4 29l117 145q15 22 35 2l303 -307q15 -12 2 -25l-66 -79q-14 -14 -28 -2z" />
    <glyph glyph-name="oacute" unicode="&#xf3;" horiz-adv-x="1132" 
d="M55 492q0 229 140 372q142 142 370 142q229 0 371 -142q141 -141 141 -372q0 -229 -141 -373q-142 -142 -371 -142q-228 0 -370 142q-140 146 -140 373zM326 492q0 -111 65.5 -178t173.5 -66q109 0 176.5 67.5t67.5 176.5q0 110 -67.5 177.5t-176.5 67.5t-174.5 -67.5
t-64.5 -177.5zM696 1462l117 -145q18 -15 -4 -31l-356 -237q-17 -10 -33 2l-64 79q-14 14 2 29l306 303q17 20 32 0z" />
    <glyph glyph-name="ocircumflex" unicode="&#xf4;" horiz-adv-x="1132" 
d="M565 1004q230 0 369 -142q141 -141 141 -370q0 -230 -141 -371q-138 -141 -369 -141q-227 0 -368 141q-140 143 -140 371q0 227 140 370q142 142 368 142zM565 246q110 0 177 68t67 178t-67 177.5t-177 67.5q-109 0 -175 -67.5t-66 -177.5t66 -178t175 -68zM254 1126
l195 273q8 11 26 14h182q13 0 27 -14l193 -271q16 -16 -9 -16h-188q-18 0 -23 8l-92 144l-90 -142q-10 -10 -22 -10h-191q-22 0 -8 14z" />
    <glyph glyph-name="otilde" unicode="&#xf5;" horiz-adv-x="1132" 
d="M565 1004q230 0 369 -142q141 -141 141 -370q0 -230 -141 -371q-138 -141 -369 -141q-227 0 -368 141q-140 143 -140 371q0 227 140 370q142 142 368 142zM565 246q110 0 177 68t67 178t-67 177.5t-177 67.5q-109 0 -175 -67.5t-66 -177.5t66 -178t175 -68zM348 1130
q-10 -24 -29 -8l-65 70q-9 9 -6 20q26 80 81.5 131.5t112.5 51.5q37 0 67 -15t49.5 -36.5t37.5 -43t39 -36.5t45 -15q70 3 104 97q2 8 9.5 10t13.5 -4l70 -72q9 -8 6 -16q-24 -83 -80 -134t-117 -51q-35 0 -64.5 15t-49.5 37t-38.5 44t-40 37t-44.5 15q-71 -3 -101 -97z" />
    <glyph glyph-name="odieresis" unicode="&#xf6;" horiz-adv-x="1132" 
d="M565 1004q230 0 369 -142q141 -141 141 -370q0 -230 -141 -371q-138 -141 -369 -141q-227 0 -368 141q-140 143 -140 371q0 227 140 370q142 142 368 142zM565 246q110 0 177 68t67 178t-67 177.5t-177 67.5q-109 0 -175 -67.5t-66 -177.5t66 -178t175 -68zM305 1151
q-37 38 -37 98t37 97t96.5 37t96.5 -37t37 -97t-37 -98q-37 -37 -96.5 -37t-96.5 37zM629 1151q-37 38 -37 98t37 97t96 37t96 -37t37 -97t-37 -98q-37 -37 -96 -37t-96 37z" />
    <glyph glyph-name="divide" unicode="&#xf7;" horiz-adv-x="1103" 
d="M553 1077q68 0 110 -42t42 -111t-42 -111.5t-110 -42.5q-69 0 -111.5 42.5t-42.5 111.5t42.5 111t111.5 42zM399 272q0 69 42.5 112.5t111.5 43.5q67 0 109.5 -43.5t42.5 -112.5q0 -68 -42.5 -110.5t-109.5 -42.5q-69 0 -111.5 42.5t-42.5 110.5zM90 506v176q0 20 21 20
h882q21 0 21 -20v-176q0 -21 -21 -21h-882q-21 0 -21 21z" />
    <glyph glyph-name="oslash" unicode="&#xf8;" horiz-adv-x="1132" 
d="M872 913l62 70q15 15 31 2l61 -55q16 -16 2 -29l-63 -72q110 -137 110 -337q0 -230 -141 -371q-138 -141 -369 -141q-168 0 -293 79l-94 -104q-14 -14 -28 0l-62 55q-15 12 -2 29l92 102q-121 139 -121 351q0 227 140 370q142 142 368 142q174 0 307 -91zM776 623
l-317 -355q52 -22 106 -22q110 0 177 68t67 178q0 81 -33 131zM362 348l326 361q-54 28 -123 28q-109 0 -175 -67.5t-66 -177.5q0 -86 38 -144z" />
    <glyph glyph-name="ugrave" unicode="&#xf9;" horiz-adv-x="1144" 
d="M805 20l-21 93q-120 -138 -319 -138q-162 0 -260.5 119.5t-98.5 319.5l-2 542q0 23 21 23h227q21 0 21 -23v-487q0 -242 190 -242q86 0 142 69.5t63 203.5v456q0 23 20 23h226q20 0 20 -21v-938q0 -20 -20 -20h-183q-20 0 -26 20zM614 1042l-358 238q-21 12 -4 29
l117 145q15 18 37 2l303 -307q12 -15 2 -25l-68 -80q-14 -17 -29 -2z" />
    <glyph glyph-name="uacute" unicode="&#xfa;" horiz-adv-x="1144" 
d="M805 20l-21 93q-120 -138 -319 -138q-162 0 -260.5 119.5t-98.5 319.5l-2 542q0 23 21 23h227q21 0 21 -23v-487q0 -242 190 -242q86 0 142 69.5t63 203.5v456q0 23 20 23h226q20 0 20 -21v-938q0 -20 -20 -20h-183q-20 0 -26 20zM754 1464l116 -145q15 -15 -2 -29
l-358 -237q-18 -15 -31 2l-65 80q-10 10 2 26l305 303q18 21 33 0z" />
    <glyph glyph-name="ucircumflex" unicode="&#xfb;" horiz-adv-x="1144" 
d="M805 20l-21 93q-120 -138 -319 -138q-162 0 -260.5 119.5t-98.5 319.5l-2 542q0 23 21 23h227q21 0 21 -23v-487q0 -242 190 -242q86 0 142 69.5t63 203.5v456q0 23 20 23h226q20 0 20 -21v-938q0 -20 -20 -20h-183q-20 0 -26 20zM248 1110l203 285q7 11 28 14h189
q14 0 28 -14l201 -283q15 -18 -8 -18h-197q-14 0 -24 10l-97 147l-92 -145q-9 -12 -24 -12h-199q-21 0 -8 16z" />
    <glyph glyph-name="udieresis" unicode="&#xfc;" horiz-adv-x="1144" 
d="M805 20l-21 93q-120 -138 -319 -138q-162 0 -260.5 119.5t-98.5 319.5l-2 542q0 23 21 23h227q21 0 21 -23v-487q0 -242 190 -242q86 0 142 69.5t63 203.5v456q0 23 20 23h226q20 0 20 -21v-938q0 -20 -20 -20h-183q-20 0 -26 20zM412 1362q57 0 94 -37.5t37 -97.5
t-35.5 -96.5t-95.5 -36.5t-96.5 36.5t-36.5 96.5t36.5 97.5t96.5 37.5zM639 1130q-37 37 -37 96.5t37 96.5q37 38 96 38t96 -38q37 -37 37 -96.5t-37 -96.5t-96 -37t-96 37z" />
    <glyph glyph-name="yacute" unicode="&#xfd;" horiz-adv-x="1034" 
d="M776 979h234q31 0 16 -27l-547 -1401q-9 -18 -28 -18h-232q-28 0 -16 27l174 448l-371 944q-9 27 14 27h242q19 0 25 -18l217 -625l246 625q6 18 26 18zM694 1438l117 -146q18 -15 -4 -30l-358 -236q-12 -12 -31 0l-64 80q-14 14 2 29l306 303q16 22 32 0z" />
    <glyph glyph-name="thorn" unicode="&#xfe;" horiz-adv-x="1183" 
d="M129 1479h215q21 0 21 -21v-565q99 108 262 108q223 0 358 -141t135 -371q0 -229 -135 -370q-136 -142 -358 -142q-162 0 -262 109v-532q0 -21 -21 -21h-215q-20 0 -20 21v1904q0 21 20 21zM854 489q0 108 -68 177t-174 69q-111 0 -179 -66.5t-68 -176.5q0 -112 68 -180
t179 -68q109 0 175.5 67.5t66.5 177.5z" />
    <glyph glyph-name="ydieresis" unicode="&#xff;" horiz-adv-x="1034" 
d="M776 979h234q31 0 16 -27l-547 -1401q-9 -18 -28 -18h-232q-28 0 -16 27l174 448l-371 944q-9 27 14 27h242q19 0 25 -18l217 -625l246 625q6 18 26 18zM188 1110q-35 38 -35 98t35 97q37 37 96.5 37t96.5 -37t37 -97t-37 -98q-37 -37 -96.5 -37t-96.5 37zM512 1110
q-37 38 -37 98t37 97t96.5 37t96.5 -37q38 -37 38 -97t-38 -98q-37 -37 -96.5 -37t-96.5 37z" />
    <glyph glyph-name="Amacron" unicode="&#x100;" horiz-adv-x="1372" 
d="M1090 14l-129 336h-549l-129 -336q-6 -14 -23 -14h-240q-23 0 -16 23l531 1378q6 18 28 18h248q21 0 27 -18l528 -1378q10 -23 -14 -23h-242q-17 0 -20 14zM870 588l-184 481l-184 -481h368zM424 1710h528q19 0 19 -20v-144q0 -18 -19 -18h-528q-21 0 -21 18v144
q0 20 21 20z" />
    <glyph glyph-name="amacron" unicode="&#x101;" horiz-adv-x="1208" 
d="M836 862l32 99q9 21 23 18h186q21 0 21 -21v-938q-3 -20 -23 -20h-186q-17 0 -23 20l-30 95q-105 -138 -287 -138q-219 -3 -356 140q-136 145 -136 370q0 228 136 367q135 141 356 141q181 3 287 -133zM322 487q0 -108 67.5 -175.5t173.5 -67.5q110 0 178.5 66.5
t69.5 176.5q-1 110 -70 177t-178 67t-175 -67t-66 -177zM324 1368h518q26 -3 26 -25v-141q0 -24 -26 -24h-518q-25 0 -25 22v143q0 25 25 25z" />
    <glyph glyph-name="Abreve" unicode="&#x102;" horiz-adv-x="1372" 
d="M1090 14l-129 336h-549l-129 -336q-6 -14 -23 -14h-240q-23 0 -16 23l531 1378q6 18 28 18h248q21 0 27 -18l528 -1378q10 -23 -14 -23h-242q-17 0 -20 14zM870 588l-184 481l-184 -481h368zM834 1757l131 2q18 0 18 -18q-4 -126 -83 -194t-214 -68q-132 0 -211.5 68
t-85.5 194q0 18 21 18h131q17 0 20 -18q5 -42 40 -70.5t85 -28.5t86 28.5t41 70.5q3 16 21 16z" />
    <glyph glyph-name="abreve" unicode="&#x103;" horiz-adv-x="1208" 
d="M836 862l32 99q9 21 23 18h186q21 0 21 -21v-938q-3 -20 -23 -20h-186q-17 0 -23 20l-30 95q-105 -138 -287 -138q-219 -3 -356 140q-136 145 -136 370q0 228 136 367q135 141 356 141q181 3 287 -133zM322 487q0 -108 67.5 -175.5t173.5 -67.5q110 0 178.5 66.5
t69.5 176.5q-1 110 -70 177t-178 67t-175 -67t-66 -177zM723 1403h133q16 0 16 -21q-5 -134 -86 -214.5t-211 -80.5q-129 0 -209 80.5t-85 214.5q0 21 18 21h133q17 0 17 -21q8 -54 41.5 -87t84.5 -33q54 0 89 33t41 87q3 21 18 21z" />
    <glyph glyph-name="Aogonek" unicode="&#x104;" horiz-adv-x="1409" 
d="M1090 14l-129 336h-549l-129 -336q-6 -14 -23 -14h-240q-23 0 -16 23l531 1378q6 18 28 18h248q21 0 27 -18l528 -1378q10 -23 -14 -23h-242q-17 0 -20 14zM870 588l-184 481l-184 -481h368zM1417 -362q-26 -35 -80 -56.5t-112 -21.5q-108 0 -167 53.5t-61 148.5
q0 149 271 340l86 -102q-120 -120 -144 -164q-40 -64 9 -98q18 -14 44 -12t44 22q9 11 18 2l92 -88q9 -9 0 -24z" />
    <glyph glyph-name="aogonek" unicode="&#x105;" horiz-adv-x="1208" 
d="M836 862l32 99q9 21 23 18h186q21 0 21 -21v-938q-3 -20 -23 -20h-186q-17 0 -23 20l-30 95q-105 -138 -287 -138q-219 -3 -356 140q-136 145 -136 370q0 228 136 367q135 141 356 141q181 3 287 -133zM322 487q0 -108 67.5 -175.5t173.5 -67.5q110 0 178.5 66.5
t69.5 176.5q-1 110 -70 177t-178 67t-175 -67t-66 -177zM1155 -352q-26 -35 -80 -56.5t-112 -21.5q-107 0 -165.5 54t-60.5 149q0 145 269 340l88 -103q-118 -118 -146 -164q-40 -64 8 -100q48 -31 88 12q9 12 19 2l92 -90q8 -8 0 -22z" />
    <glyph glyph-name="Cacute" unicode="&#x106;" horiz-adv-x="1368" 
d="M1307 168q-200 -188 -512 -188q-327 0 -527 200q-198 201 -198 529q0 174 60 316t165 232q217 183 500 183q302 3 508 -191q12 -12 0 -26l-136 -185q-9 -19 -28 0q-143 125 -344 125q-199 3 -324 -125q-121 -127 -121 -329t123 -328q122 -125 322 -125q193 0 344 127
q16 16 28 0l138 -186q15 -15 2 -29zM920 1831l96 -160q13 -22 -8 -31l-394 -190q-21 -9 -30 6l-54 88q-9 14 7 27l350 266q18 15 33 -6z" />
    <glyph glyph-name="cacute" unicode="&#x107;" horiz-adv-x="1046" 
d="M979 180q-138 -203 -416 -203q-227 0 -366 142q-140 143 -140 368q0 237 146 371q148 136 352 139q291 6 440 -221q16 -19 0 -28l-172 -140q-17 -17 -32 6q-82 119 -228 119q-109 0 -175 -68t-66 -178t66 -177.5t175 -67.5q133 0 221 108q20 20 37 4l154 -145
q14 -9 4 -29zM707 1466l116 -145q18 -15 -4 -31l-356 -237q-17 -10 -33 2l-63 80q-13 13 2 28l305 303q18 18 33 0z" />
    <glyph glyph-name="Ccircumflex" unicode="&#x108;" horiz-adv-x="1368" 
d="M1307 168q-200 -188 -512 -188q-327 0 -527 200q-198 201 -198 529q0 174 60 316t165 232q217 183 500 183q302 3 508 -191q12 -12 0 -26l-136 -185q-9 -19 -28 0q-143 125 -344 125q-199 3 -324 -125q-121 -127 -121 -329t123 -328q122 -125 322 -125q193 0 344 127
q16 16 28 0l138 -186q15 -15 2 -29zM852 1516l-102 92l-105 -92q-18 -11 -24 -11h-211q-28 0 -9 19l232 215q15 12 29 12h172q16 0 28 -12l234 -215q19 -19 -9 -19h-210q-14 0 -25 11z" />
    <glyph glyph-name="ccircumflex" unicode="&#x109;" horiz-adv-x="1046" 
d="M979 180q-138 -203 -416 -203q-227 0 -366 142q-140 143 -140 368q0 237 146 371q148 136 352 139q291 6 440 -221q16 -19 0 -28l-172 -140q-17 -17 -32 6q-82 119 -228 119q-109 0 -175 -68t-66 -178t66 -177.5t175 -67.5q133 0 221 108q20 20 37 4l154 -145
q14 -9 4 -29zM238 1102l194 272q4 12 27 15h180q14 0 29 -15l192 -270q14 -17 -8 -17h-188q-14 0 -25 11l-90 141l-90 -141q-11 -11 -25 -11h-190q-21 0 -6 15z" />
    <glyph glyph-name="Cdotaccent" unicode="&#x10a;" horiz-adv-x="1368" 
d="M1307 168q-200 -188 -512 -188q-327 0 -527 200q-198 201 -198 529q0 174 60 316t165 232q217 183 500 183q302 3 508 -191q12 -12 0 -26l-136 -185q-9 -19 -28 0q-143 125 -344 125q-199 3 -324 -125q-121 -127 -121 -329t123 -328q122 -125 322 -125q193 0 344 127
q16 16 28 0l138 -186q15 -15 2 -29zM627 1634q0 55 33.5 88t87.5 33t85 -32.5t31 -88.5q0 -54 -31 -86t-85 -32t-87.5 32t-33.5 86z" />
    <glyph glyph-name="cdotaccent" unicode="&#x10b;" horiz-adv-x="1046" 
d="M979 180q-138 -203 -416 -203q-227 0 -366 142q-140 143 -140 368q0 237 146 371q148 136 352 139q291 6 440 -221q16 -19 0 -28l-172 -140q-17 -17 -32 6q-82 119 -228 119q-109 0 -175 -68t-66 -178t66 -177.5t175 -67.5q133 0 221 108q20 20 37 4l154 -145
q14 -9 4 -29zM422 1251q0 57 33 90t90 33t89 -33t32 -90q0 -56 -33 -90.5t-88 -34.5t-89 34.5t-34 90.5z" />
    <glyph glyph-name="Ccaron" unicode="&#x10c;" horiz-adv-x="1368" 
d="M1307 168q-200 -188 -512 -188q-327 0 -527 200q-198 201 -198 529q0 174 60 316t165 232q217 183 500 183q302 3 508 -191q12 -12 0 -26l-136 -185q-9 -19 -28 0q-143 125 -344 125q-199 3 -324 -125q-121 -127 -121 -329t123 -328q122 -125 322 -125q193 0 344 127
q16 16 28 0l138 -186q15 -15 2 -29zM635 1745l108 -96l107 96q12 12 27 12h219q28 0 8 -20l-242 -224q-12 -12 -31 -12h-178q-15 0 -30 12l-240 224q-10 7 -7 13.5t15 6.5h219q10 0 25 -12z" />
    <glyph glyph-name="ccaron" unicode="&#x10d;" horiz-adv-x="1046" 
d="M979 180q-138 -203 -416 -203q-227 0 -366 142q-140 143 -140 368q0 237 146 371q148 136 352 139q291 6 440 -221q16 -19 0 -28l-172 -140q-17 -17 -32 6q-82 119 -228 119q-109 0 -175 -68t-66 -178t66 -177.5t175 -67.5q133 0 221 108q20 20 37 4l154 -145
q14 -9 4 -29zM244 1411h186q15 0 25 -10l90 -139l92 137q3 12 22 12h189q25 0 8 -14l-192 -273q-9 -12 -27 -12h-184q-16 0 -25 12l-195 271q-13 16 11 16z" />
    <glyph glyph-name="Dcaron" unicode="&#x10e;" horiz-adv-x="1394" 
d="M598 1155l-176 2v-891h176q202 0 326 121q123 120 123 324q0 203 -123 323q-124 124 -326 121zM598 0h-436q-21 0 -21 20l2 1381q0 20 19 20h436q330 0 528 -192q199 -193 199 -518q0 -328 -199 -521q-199 -190 -528 -190zM580 1745l108 -96l107 96q12 12 26 12h219
q29 0 9 -20l-242 -224q-12 -12 -31 -12h-178q-16 0 -31 12l-239 224q-9 6 -6.5 13t14.5 7h219q10 0 25 -12z" />
    <glyph glyph-name="dcaron" unicode="&#x10f;" horiz-adv-x="1546" 
d="M549 -23q-220 0 -356 142t-136 368q0 227 136 369t356 139q165 0 264 -108v573q0 21 21 21h225q20 0 20 -21v-1440q0 -20 -22 -20h-162q-19 0 -25 20l-32 97q-103 -140 -289 -140zM811 487q1 110 -67 178t-179 68q-109 0 -175 -68t-66 -178q0 -108 67.5 -176.5
t173.5 -68.5q109 0 177.5 67.5t68.5 177.5zM1225 973l-86 69q-15 15 4 27q124 95 151 221h-6q-51 12 -80.5 51t-29.5 95q2 69 43 110t108 41q62 1 102.5 -37t45.5 -100q15 -137 -56 -285q-70 -146 -168 -198q-14 -8 -28 6z" />
    <glyph glyph-name="Dcroat" unicode="&#x110;" horiz-adv-x="1394" 
d="M596 0h-434q-21 0 -21 20v615h-94q-20 0 -20 20v95q0 20 20 20h94v631q0 20 21 20h434q330 0 528 -192q201 -195 201 -518q0 -328 -199 -521q-199 -190 -530 -190zM422 635v-369h176q202 0 326 121q123 120 123 324q0 203 -123 323q-124 124 -328 121l-174 2v-387h250
q20 0 20 -20v-95q0 -20 -20 -20h-250z" />
    <glyph glyph-name="dslash" unicode="&#x111;" horiz-adv-x="1198" 
d="M625 1239h188v221q0 21 21 21h225q20 0 20 -21v-221h74q21 0 21 -20v-97q0 -18 -21 -18h-74v-1084q0 -20 -22 -20h-162q-19 0 -25 20l-32 97q-103 -140 -289 -140q-220 0 -356 142t-136 368q0 227 136 369t356 139q165 0 264 -108v217h-188q-21 0 -21 18v97q0 20 21 20z
M565 242q109 0 177.5 67.5t68.5 177.5q1 110 -67 178t-179 68q-109 0 -175 -68t-66 -178q0 -108 67.5 -176.5t173.5 -68.5z" />
    <glyph glyph-name="Emacron" unicode="&#x112;" horiz-adv-x="1089" 
d="M874 594h-452v-328h569q21 0 21 -20v-228q0 -18 -19 -18h-831q-21 0 -21 20v1381q0 20 21 20h809q20 0 20 -20v-227q0 -19 -18 -19h-551v-299h452q21 0 21 -20v-222q0 -20 -21 -20zM297 1718h528q19 0 19 -20v-144q0 -18 -19 -18h-528q-21 0 -21 18v144q0 20 21 20z" />
    <glyph glyph-name="emacron" unicode="&#x113;" horiz-adv-x="1126" 
d="M336 575h452q-19 81 -77.5 127t-147.5 46q-91 0 -149.5 -46t-77.5 -127zM1049 385h-707q53 -158 246 -158q130 0 203 64q21 18 34 2l140 -146q14 -14 2 -30q-128 -137 -396 -140q-229 0 -372 140q-142 142 -142 370q0 226 140 369q138 141 366 141q243 0 375 -148.5
t131 -442.5q0 -10 -6 -16.5t-14 -4.5zM293 1368h518q25 -3 25 -25v-141q0 -24 -25 -24h-518q-25 0 -25 20v145q0 25 25 25z" />
    <glyph glyph-name="Ebreve" unicode="&#x114;" horiz-adv-x="1089" 
d="M874 594h-452v-328h569q21 0 21 -20v-228q0 -18 -19 -18h-831q-21 0 -21 20v1381q0 20 21 20h809q20 0 20 -20v-227q0 -19 -18 -19h-551v-299h452q21 0 21 -20v-222q0 -20 -21 -20zM707 1774l131 2q18 0 18 -19q-4 -126 -83 -194t-214 -68q-132 0 -211.5 68t-85.5 194
q0 19 21 19h131q17 0 20 -19q5 -42 40 -70t85 -28q51 0 86.5 28t40.5 70q3 17 21 17z" />
    <glyph glyph-name="ebreve" unicode="&#x115;" horiz-adv-x="1126" 
d="M336 575h452q-19 81 -77.5 127t-147.5 46q-91 0 -149.5 -46t-77.5 -127zM1049 385h-707q53 -158 246 -158q130 0 203 64q21 18 34 2l140 -146q14 -14 2 -30q-128 -137 -396 -140q-229 0 -372 140q-142 142 -142 370q0 226 140 369q138 141 366 141q243 0 375 -148.5
t131 -442.5q0 -10 -6 -16.5t-14 -4.5zM694 1401h133q17 0 17 -21q-4 -133 -86 -214t-211 -81t-210 80.5t-85 214.5q0 21 18 21h133q17 0 17 -21q8 -54 42 -87t85 -33q54 0 88.5 33t40.5 87q3 21 18 21z" />
    <glyph glyph-name="Edotaccent" unicode="&#x116;" horiz-adv-x="1089" 
d="M874 594h-452v-328h569q21 0 21 -20v-228q0 -18 -19 -18h-831q-21 0 -21 20v1381q0 20 21 20h809q20 0 20 -20v-227q0 -19 -18 -19h-551v-299h452q21 0 21 -20v-222q0 -20 -21 -20zM432 1634q0 57 34.5 91t90.5 34q57 0 90 -34t33 -91q0 -56 -34 -90.5t-89 -34.5
t-90 34.5t-35 90.5z" />
    <glyph glyph-name="edotaccent" unicode="&#x117;" horiz-adv-x="1126" 
d="M336 575h452q-19 81 -77.5 127t-147.5 46q-91 0 -149.5 -46t-77.5 -127zM1049 385h-707q53 -158 246 -158q130 0 203 64q21 18 34 2l140 -146q14 -14 2 -30q-128 -137 -396 -140q-229 0 -372 140q-142 142 -142 370q0 226 140 369q138 141 366 141q243 0 375 -148.5
t131 -442.5q0 -10 -6 -16.5t-14 -4.5zM426 1264q0 55 34.5 88.5t90.5 33.5q57 0 90 -32.5t33 -89.5t-33 -91t-90 -34q-56 0 -90.5 34t-34.5 91z" />
    <glyph glyph-name="Eogonek" unicode="&#x118;" horiz-adv-x="1089" 
d="M874 594h-452v-328h569q21 0 21 -20v-228q0 -18 -19 -18h-831q-21 0 -21 20v1381q0 20 21 20h809q20 0 20 -20v-227q0 -19 -18 -19h-551v-299h452q21 0 21 -20v-222q0 -20 -21 -20zM987 -356q-27 -33 -82 -55.5t-110 -22.5q-108 0 -167 54t-61 149q0 149 271 340l86 -103
q-120 -120 -144 -164q-40 -64 8 -98q48 -35 89 12q10 10 18 2l92 -90q9 -9 0 -24z" />
    <glyph glyph-name="eogonek" unicode="&#x119;" horiz-adv-x="1126" 
d="M336 575h452q-19 81 -77.5 127t-147.5 46q-91 0 -149.5 -46t-77.5 -127zM1049 385h-707q53 -158 246 -158q130 0 203 64q21 18 34 2l140 -146q14 -14 2 -30q-128 -137 -396 -140q-229 0 -372 140q-142 142 -142 370q0 226 140 369q138 141 366 141q243 0 375 -148.5
t131 -442.5q0 -10 -6 -16.5t-14 -4.5zM881 -342q-26 -35 -80.5 -56.5t-112.5 -21.5q-107 0 -165 54t-60 149q0 146 268 340l88 -103q-111 -110 -145 -163q-40 -64 8 -101q51 -29 88 13q9 14 18 2l93 -90q10 -10 0 -23z" />
    <glyph glyph-name="Ecaron" unicode="&#x11a;" horiz-adv-x="1089" 
d="M874 594h-452v-328h569q21 0 21 -20v-228q0 -18 -19 -18h-831q-21 0 -21 20v1381q0 20 21 20h809q20 0 20 -20v-227q0 -19 -18 -19h-551v-299h452q21 0 21 -20v-222q0 -20 -21 -20zM459 1745l108 -96l107 96q12 12 26 12h220q28 0 8 -20l-242 -224q-12 -12 -31 -12h-178
q-16 0 -31 12l-239 224q-10 7 -7 13.5t15 6.5h219q10 0 25 -12z" />
    <glyph glyph-name="ecaron" unicode="&#x11b;" horiz-adv-x="1126" 
d="M336 575h452q-19 81 -77.5 127t-147.5 46q-91 0 -149.5 -46t-77.5 -127zM1049 385h-707q53 -158 246 -158q130 0 203 64q21 18 34 2l140 -146q14 -14 2 -30q-128 -137 -396 -140q-229 0 -372 140q-142 142 -142 370q0 226 140 369q138 141 366 141q243 0 375 -148.5
t131 -442.5q0 -10 -6 -16.5t-14 -4.5zM258 1411h186q18 0 25 -10l90 -141l92 139q9 12 23 12h188q24 0 8 -16l-192 -271q-8 -14 -27 -14h-182q-19 0 -27 14l-194 269q-12 18 10 18z" />
    <glyph glyph-name="Gcircumflex" unicode="&#x11c;" horiz-adv-x="1556" 
d="M1171 547h-342q-20 0 -20 18v189q0 20 20 20h601q26 0 26 -26q-5 -370 -171 -568.5t-488 -197.5q-316 0 -510 200q-193 199 -193 529q0 327 201 528t530 201q299 0 512 -195q10 -10 0 -26l-143 -185q-14 -14 -29 0q-57 51 -148.5 89t-191.5 38q-202 0 -327 -125
q-123 -123 -123 -325t114 -328q117 -123 308 -123q306 0 374 287zM881 1528l-103 92l-102 -92q-17 -10 -25 -10h-209q-26 0 -8 18l230 213q21 12 28 12h170q14 0 29 -12l229 -213q10 -8 7 -13t-13 -5h-209q-14 0 -24 10z" />
    <glyph glyph-name="gcircumflex" unicode="&#x11d;" horiz-adv-x="1198" 
d="M551 1001q193 0 295 -147l39 104q3 21 24 21h158q20 0 20 -21l3 -919q0 -235 -146 -381q-145 -145 -377 -145q-234 3 -399 104q-20 9 -10 33l96 196q9 19 29 9q119 -67 268 -76q129 1 199.5 72.5t70.5 197.5v41q-104 -116 -270 -113q-222 3 -358 142t-136 368t136 371
q137 143 358 143zM324 489q0 -109 66 -176t175 -67q113 0 183.5 67.5t70.5 175.5q0 112 -69 179t-185 67q-109 0 -175 -68t-66 -178zM258 1110l197 274q8 12 26 15h185q11 0 26 -15l195 -272q15 -18 -8 -18h-191q-12 0 -22 10l-93 143l-92 -141q-6 -12 -22 -12h-193
q-21 0 -8 16z" />
    <glyph glyph-name="Gbreve" unicode="&#x11e;" horiz-adv-x="1556" 
d="M1174 547h-343q-20 0 -20 18v189q0 20 20 20h601q26 0 26 -26q-5 -370 -171 -568.5t-488 -197.5q-316 0 -510 200q-193 199 -193 529q0 327 201 528t530 201q299 0 512 -195q10 -10 0 -26l-143 -185q-14 -14 -29 0q-57 51 -148.5 89t-191.5 38q-202 0 -327 -125
q-123 -123 -123 -325q0 -201 115 -328q117 -123 307 -123q307 0 375 287zM924 1774l131 2q18 0 18 -19q-4 -126 -83.5 -194t-215.5 -68q-132 0 -210.5 68t-84.5 194q0 19 19 19h133q17 0 20 -19q5 -42 39.5 -70t83.5 -28q53 0 88.5 28t40.5 70q3 17 21 17z" />
    <glyph glyph-name="gbreve" unicode="&#x11f;" horiz-adv-x="1198" 
d="M551 1001q193 0 295 -147l39 104q3 21 24 21h158q20 0 20 -21l3 -919q0 -235 -146 -381q-145 -145 -377 -145q-234 3 -399 104q-20 9 -10 33l96 196q9 19 29 9q119 -67 268 -76q129 1 199.5 72.5t70.5 197.5v41q-104 -116 -270 -113q-222 3 -358 142t-136 368t136 371
q137 143 358 143zM324 489q0 -109 66 -176t175 -67q113 0 183.5 67.5t70.5 175.5q0 112 -69 179t-185 67q-109 0 -175 -68t-66 -178zM709 1401h133q18 0 18 -21q-4 -133 -86 -214t-213 -81q-127 0 -208 80.5t-87 214.5q0 21 19 21h133q16 0 16 -21q8 -54 42 -87t85 -33
q54 0 88.5 33t40.5 87q3 21 19 21z" />
    <glyph glyph-name="Gdotaccent" unicode="&#x120;" horiz-adv-x="1556" 
d="M1174 547h-343q-20 0 -20 18v189q0 20 20 20h601q26 0 26 -26q-5 -370 -171 -568.5t-488 -197.5q-316 0 -510 200q-193 199 -193 529q0 327 201 528t530 201q299 0 512 -195q10 -10 0 -26l-143 -185q-14 -14 -29 0q-57 51 -148.5 89t-191.5 38q-202 0 -327 -125
q-123 -123 -123 -325q0 -201 115 -328q117 -123 307 -123q307 0 375 287zM655 1632q0 57 33.5 91t89.5 34q57 0 90 -34t33 -91q0 -56 -33.5 -90.5t-89.5 -34.5q-55 0 -89 34.5t-34 90.5z" />
    <glyph glyph-name="gdotaccent" unicode="&#x121;" horiz-adv-x="1198" 
d="M551 1001q193 0 295 -147l39 104q3 21 24 21h158q20 0 20 -21l3 -919q0 -235 -146 -381q-145 -145 -377 -145q-234 3 -399 104q-20 9 -10 33l96 196q9 19 29 9q119 -67 268 -76q129 1 199.5 72.5t70.5 197.5v41q-104 -116 -270 -113q-222 3 -358 142t-136 368t136 371
q137 143 358 143zM324 489q0 -109 66 -176t175 -67q113 0 183.5 67.5t70.5 175.5q0 112 -69 179t-185 67q-109 0 -175 -68t-66 -178zM440 1262q0 57 34.5 90.5t90.5 33.5q57 0 90 -33.5t33 -90.5q0 -56 -34 -90.5t-89 -34.5t-90 34.5t-35 90.5z" />
    <glyph glyph-name="uni0122" unicode="&#x122;" horiz-adv-x="1503" 
d="M1147 547h-342q-21 0 -21 18v189q0 20 21 20h600q27 0 27 -26q-5 -369 -171.5 -568t-488.5 -198q-316 0 -510 200q-192 198 -192 529q0 328 200 528q201 201 531 201q299 0 512 -195q10 -10 0 -26l-144 -185q-14 -14 -28 0q-57 51 -148.5 89t-191.5 38q-203 0 -328 -125
q-123 -123 -123 -325q0 -201 115 -328q117 -123 307 -123q307 0 375 287zM715 -309q-6 0 -8 2q-76 27 -76 123q0 60 36.5 97.5t96.5 37.5q56 0 92 -35.5t41 -91.5q12 -116 -63 -203q-72 -87 -172 -102q-19 -3 -25 8l-37 72q-9 15 4 18q76 27 111 74z" />
    <glyph glyph-name="uni0123" unicode="&#x123;" horiz-adv-x="1198" 
d="M551 1001q193 0 295 -147l39 104q3 21 24 21h158q20 0 20 -21l3 -919q0 -235 -146 -381q-145 -145 -377 -145q-234 3 -399 104q-20 9 -10 33l96 196q9 19 29 9q119 -67 268 -76q129 1 199.5 72.5t70.5 197.5v41q-104 -116 -270 -113q-222 3 -358 142t-136 368t136 371
q137 143 358 143zM324 489q0 -109 66 -176t175 -67q113 0 183.5 67.5t70.5 175.5q0 112 -69 179t-185 67q-109 0 -175 -68t-66 -178zM618 1323q7 0 9 -2q75 -26 75 -123q0 -60 -36.5 -97.5t-96.5 -37.5q-56 0 -92 35.5t-41 91.5q-12 114 62 203q75 87 174 102q18 3 24 -8
l37 -72q9 -15 -4 -18q-76 -27 -111 -74z" />
    <glyph glyph-name="Hcircumflex" unicode="&#x124;" horiz-adv-x="1409" 
d="M401 0h-239q-21 0 -21 20l2 1381q0 20 19 20h241q19 0 19 -18v-572h567v570q0 20 21 20h239q21 0 21 -18l-2 -1383q0 -20 -19 -20h-239q-21 0 -21 20v574h-567v-574q0 -20 -21 -20zM807 1534l-102 90l-103 -90q-17 -10 -22 -10h-211q-11 0 -13.5 5t4.5 11l230 213
q17 14 31 14h167q21 0 29 -14l232 -213q7 -6 4.5 -11t-13.5 -5h-209q-7 0 -24 10z" />
    <glyph glyph-name="hcircumflex" unicode="&#x125;" horiz-adv-x="1130" 
d="M113 20l-2 1438q0 21 22 21h223q23 0 23 -21v-573q98 119 276 119q166 0 267 -119q102 -120 102 -320v-545q0 -20 -20 -20h-226q-23 0 -20 20v490q0 105 -50 165t-133 60q-83 -2 -136.5 -68.5t-59.5 -189.5v-457q0 -20 -21 -20h-225q-20 0 -20 20zM659 1559l-100 92
l-104 -92q-18 -11 -23 -11h-211q-24 0 -8 19l231 211q14 14 29 14h168q17 0 31 -14l229 -211q19 -19 -8 -19h-209q-7 0 -25 11z" />
    <glyph glyph-name="Hbar" unicode="&#x126;" horiz-adv-x="1363" 
d="M410 1346v-193h544v193q0 18 21 18h229q19 0 19 -18v-193h34q21 0 21 -20v-95q0 -20 -21 -20h-34v-1000q0 -18 -21 -18h-227q-21 0 -21 18v553h-546v-553q0 -18 -19 -18h-227q-21 0 -21 18v1000h-41q-20 0 -20 20v95q0 20 20 20h41v193q0 18 21 18h229q19 0 19 -18z
M954 1018h-544v-219h544v219z" />
    <glyph glyph-name="hbar" unicode="&#x127;" horiz-adv-x="1130" 
d="M616 1190v-94q0 -21 -18 -21h-219v-190q98 119 276 119q166 0 267 -119q102 -120 102 -320v-545q0 -20 -20 -20h-226q-23 0 -20 20v490q0 105 -50 165t-133 60q-83 -2 -136.5 -68.5t-59.5 -189.5v-457q0 -20 -21 -20h-225q-20 0 -20 20l-2 1055h-72q-19 0 -19 21v94
q0 20 19 20h72v248q0 21 22 21h223q23 0 23 -21v-248h219q18 0 18 -20z" />
    <glyph glyph-name="Itilde" unicode="&#x128;" horiz-adv-x="563" 
d="M422 1401v-1383q0 -18 -21 -18h-239q-21 0 -21 18v1383q0 20 21 20h239q21 0 21 -20zM61 1524q-9 -25 -26 -8l-66 71q-16 9 -8 21q29 84 86 136t115 52q37 0 67.5 -15.5t51 -37t39 -43.5t40.5 -37.5t46 -15.5q71 0 106 96q10 23 25 8l71 -74q9 -9 6 -20
q-26 -84 -83 -135.5t-119 -51.5q-32 -2 -63 13.5t-54 38.5t-44 46t-42.5 38.5t-40.5 13.5q-67 -3 -107 -96z" />
    <glyph glyph-name="itilde" unicode="&#x129;" horiz-adv-x="493" 
d="M379 961v-943q0 -18 -19 -18h-229q-18 0 -18 18v943q0 11 3.5 15t14.5 3h229q19 0 19 -18zM27 1155q-10 -22 -27 -8l-66 70q-9 9 -6 20q26 80 82 131t113 51q37 0 67 -15t49.5 -36.5t37 -42.5t38.5 -36t45 -15q74 3 103 96q9 21 24 6l70 -71q9 -9 6 -17
q-24 -83 -79.5 -133.5t-116.5 -50.5q-43 0 -78.5 23t-56 50.5t-48 50.5t-55.5 23q-68 -3 -102 -96z" />
    <glyph glyph-name="Imacron" unicode="&#x12a;" horiz-adv-x="563" 
d="M422 1401v-1383q0 -18 -21 -18h-239q-21 0 -21 18v1383q0 20 21 20h239q21 0 21 -20zM23 1731h518q24 -3 24 -25v-141q0 -25 -24 -25h-518q-25 0 -25 21v145q0 25 25 25z" />
    <glyph glyph-name="imacron" unicode="&#x12b;" horiz-adv-x="493" 
d="M379 961v-943q0 -18 -19 -18h-229q-18 0 -18 18v943q0 11 3.5 15t14.5 3h229q19 0 19 -18zM-14 1368h518q24 -3 24 -27v-139q0 -26 -24 -26h-518q-25 0 -25 22v143q0 27 25 27z" />
    <glyph glyph-name="Ibreve" unicode="&#x12c;" horiz-adv-x="563" 
d="M422 1401v-1383q0 -18 -21 -18h-239q-21 0 -21 18v1383q0 20 21 20h239q21 0 21 -20zM438 1778l140 2q18 0 18 -21q-4 -132 -87.5 -204t-225.5 -72q-139 0 -222.5 72t-89.5 204q0 21 21 21h139q18 0 21 -21q5 -43 41.5 -72.5t89.5 -29.5q55 0 92.5 29.5t42.5 72.5
q3 19 20 19z" />
    <glyph glyph-name="ibreve" unicode="&#x12d;" horiz-adv-x="493" 
d="M379 961v-941q0 -20 -19 -20h-227q-20 0 -20 20v941q0 18 20 18h227q19 0 19 -18zM403 1407h140q18 0 18 -21q-4 -141 -90 -226t-223 -85q-135 0 -220 85.5t-91 225.5q0 21 20 21h139q19 0 19 -21q8 -57 43.5 -93t89.5 -36q55 0 92 36t43 93q3 21 20 21z" />
    <glyph glyph-name="Iogonek" unicode="&#x12e;" horiz-adv-x="563" 
d="M422 1401v-1383q0 -18 -21 -18h-239q-21 0 -21 18v1383q0 20 21 20h239q21 0 21 -20zM479 -354q-26 -35 -80 -56.5t-112 -21.5q-107 0 -165.5 53.5t-60.5 147.5q0 147 269 342l88 -105q-119 -119 -144 -162q-45 -66 7 -100q53 -35 88 12q9 13 20 2l90 -90q9 -13 0 -22z
" />
    <glyph glyph-name="iogonek" unicode="&#x12f;" horiz-adv-x="493" 
d="M379 958v-940q0 -18 -19 -18h-229q-16 0 -16 18l-2 940q0 12 3.5 16.5t14.5 4.5h229q19 0 19 -21zM78 1300q0 73 46.5 118.5t121.5 45.5t120.5 -45t45.5 -119q0 -78 -45.5 -124t-120.5 -46t-121.5 47.5t-46.5 122.5zM391 -342q-66 -78 -194 -78q-107 0 -165.5 54
t-60.5 149q0 145 269 340l88 -103q-118 -121 -144 -163q-45 -62 9 -101q18 -12 43.5 -8.5t42.5 21.5q9 13 20 2l92 -90q3 -10 0 -23z" />
    <glyph glyph-name="Idot" unicode="&#x130;" horiz-adv-x="563" 
d="M422 1401v-1383q0 -18 -21 -18h-239q-21 0 -21 18v1383q0 20 21 20h239q21 0 21 -20zM287 1804q68 0 109.5 -42t41.5 -111t-42 -112.5t-109 -43.5q-69 0 -112.5 43.5t-43.5 112.5t43.5 111t112.5 42z" />
    <glyph glyph-name="dotlessi" unicode="&#x131;" horiz-adv-x="483" 
d="M371 881v-856q0 -7 -9.5 -16t-17.5 -9h-205q-8 0 -17 9t-9 16v858q0 8 7.5 16t14.5 8h209q8 2 17.5 -7t9.5 -19z" />
    <glyph glyph-name="IJ" unicode="&#x132;" horiz-adv-x="1345" 
d="M420 1401v-1381q0 -20 -21 -20h-237q-19 0 -19 20v1381q0 20 19 20h237q21 0 21 -20zM999 461l-2 940q0 20 19 20h237q21 0 21 -20l2 -995q1 -202 -89 -313t-253 -113q-224 3 -354 118q-14 7 -5 29l111 197q9 20 35 10q130 -74 182 -74q56 0 75 41t21 160z" />
    <glyph glyph-name="ij" unicode="&#x133;" horiz-adv-x="950" 
d="M379 958v-940q0 -18 -19 -18h-229q-16 0 -16 18l-2 940q0 12 3.5 16.5t14.5 4.5h229q19 0 19 -21zM78 1300q0 73 46.5 118.5t121.5 45.5t120.5 -45t45.5 -119q0 -78 -45.5 -124t-120.5 -46t-121.5 47.5t-46.5 122.5zM705 1462q74 0 118.5 -44.5t44.5 -119.5t-45 -121.5
t-118 -46.5q-75 0 -122.5 46.5t-47.5 121.5t46 119.5t124 44.5zM571 -96l-2 1054q0 21 23 21h225q19 0 19 -23l2 -1087q2 -165 -81.5 -260t-230.5 -94q-145 0 -239 79q-9 14 -2 31l80 189q15 24 36 6q44 -35 86 -35q81 0 84 119z" />
    <glyph glyph-name="Jcircumflex" unicode="&#x134;" horiz-adv-x="858" 
d="M438 463l-2 938q0 20 21 20h237q21 0 21 -20l4 -995q1 -202 -90 -313t-254 -113q-218 3 -355 116q-14 11 -4 31l111 199q10 24 35 8q3 -1 16 -8.5t32 -18t30 -16.5q69 -31 104 -31q54 0 71.5 40.5t22.5 162.5zM678 1526l-103 92l-102 -92q-17 -10 -22 -10h-211
q-24 0 -9 18l230 213q21 12 31 12h167q16 0 31 -12l230 -213q18 -18 -9 -18h-209q-7 0 -24 10z" />
    <glyph glyph-name="jcircumflex" unicode="&#x135;" horiz-adv-x="534" 
d="M182 -96v1054q0 21 21 21h225q21 0 21 -21l2 -1087q0 -165 -83.5 -261.5t-230.5 -96.5q-153 0 -237 84q-9 9 -6 26l83 189q10 30 35 8q44 -35 86 -35q41 -2 62 27t22 92zM-20 1106l204 287q7 11 29 14h190q15 0 29 -14l203 -285q15 -18 -8 -18h-199q-15 0 -25 10l-96 149
l-94 -147q-9 -12 -25 -12h-200q-21 0 -8 16z" />
    <glyph glyph-name="uni0136" unicode="&#x136;" horiz-adv-x="1198" 
d="M393 1401v-610l449 618q9 12 24 12h264q27 0 13 -26l-496 -678l572 -692q19 -25 -13 -25h-291q-16 0 -26 10l-496 627v-619q0 -18 -20 -18h-240q-20 0 -20 18v1383q0 20 20 20h240q20 0 20 -20zM571 -309q-6 0 -8 2q-76 27 -76 123q0 60 37 97.5t97 37.5q56 0 92 -35.5
t41 -91.5q12 -115 -64 -203q-72 -87 -172 -102q-18 -3 -24 8l-37 72q-9 15 4 18q75 26 110 74z" />
    <glyph glyph-name="uni0137" unicode="&#x137;" horiz-adv-x="1005" 
d="M668 977h301q31 0 10 -27l-340 -438l405 -485q21 -27 -10 -27h-295q-16 0 -26 10l-334 412v-404q0 -18 -19 -18h-229q-18 0 -18 18l-2 1442q0 19 20 19h229q19 0 19 -19v-862l268 369q7 10 21 10zM498 -309q-7 0 -9 2q-75 26 -75 123q0 60 36.5 97.5t96.5 37.5
q56 0 92 -35.5t41 -91.5q12 -115 -64 -203q-72 -87 -172 -102q-18 -3 -24 8l-37 72q-9 15 4 18q76 27 111 74z" />
    <glyph glyph-name="kgreenlandic" unicode="&#x138;" horiz-adv-x="989" 
d="M668 977h301q31 0 10 -27l-340 -461l405 -462q24 -27 -10 -27h-295q-16 0 -26 10l-334 389v-381q0 -18 -19 -18h-229q-18 0 -18 18l-2 940q0 19 20 19h229q19 0 19 -19v-383l268 392q7 10 21 10z" />
    <glyph glyph-name="Lacute" unicode="&#x139;" horiz-adv-x="944" 
d="M422 1401v-1151h444q21 0 21 -21v-211q0 -18 -19 -18h-706q-19 0 -19 18l-2 1383q0 20 21 20h239q21 0 21 -20zM457 1831l96 -160q13 -22 -8 -31l-393 -190q-22 -9 -31 6l-53 88q-9 15 6 27l350 266q18 15 33 -6z" />
    <glyph glyph-name="lacute" unicode="&#x13a;" horiz-adv-x="493" 
d="M381 1458v-1438q0 -20 -21 -20h-227q-20 0 -20 20v1438q0 21 20 21h225q23 0 23 -21zM410 1890l92 -153q15 -21 -8 -29l-377 -184q-17 -10 -27 6l-53 84q-10 16 6 26l336 256q22 16 31 -6z" />
    <glyph glyph-name="uni013B" unicode="&#x13b;" horiz-adv-x="946" 
d="M422 1401v-1151h444q21 0 21 -21v-211q0 -18 -19 -18h-706q-19 0 -19 18l-2 1383q0 20 21 20h239q21 0 21 -20zM475 -309q-6 0 -8 2q-76 27 -76 123q0 60 36.5 97.5t96.5 37.5q56 0 92 -35.5t41 -91.5q12 -116 -63 -203q-72 -87 -172 -102q-19 -3 -25 8l-37 72
q-9 15 5 18q75 26 110 74z" />
    <glyph glyph-name="uni013C" unicode="&#x13c;" horiz-adv-x="493" 
d="M381 1458v-1438q0 -20 -21 -20h-227q-20 0 -20 20v1438q0 21 20 21h225q23 0 23 -21zM190 -309q-6 0 -8 2q-76 27 -76 123q0 60 37 97.5t97 37.5q56 0 92 -35.5t41 -91.5q12 -115 -64 -203q-72 -87 -172 -102q-18 -3 -24 8l-37 72q-9 15 4 18q75 26 110 74z" />
    <glyph glyph-name="Lcaron" unicode="&#x13d;" horiz-adv-x="944" 
d="M422 1401v-1151h444q21 0 21 -21v-211q0 -18 -19 -18h-706q-19 0 -19 18l-2 1383q0 20 21 20h239q21 0 21 -20zM614 872l-86 72q-16 10 2 25q124 95 154 221h-8q-109 27 -109 147q0 69 41 110.5t109 41.5q66 0 106.5 -37.5t44.5 -103.5q15 -133 -57 -283
q-71 -145 -168 -199q-14 -9 -29 6z" />
    <glyph glyph-name="lcaron" unicode="&#x13e;" horiz-adv-x="831" 
d="M381 1458v-1438q0 -20 -21 -20h-227q-20 0 -20 20v1438q0 21 20 21h225q23 0 23 -21zM524 872l-88 72q-15 9 4 25q124 95 154 221h-8q-109 27 -109 147q0 69 41 110.5t109 41.5q66 0 106.5 -37.5t44.5 -103.5q15 -133 -57 -283q-71 -145 -168 -199q-14 -9 -29 6z" />
    <glyph glyph-name="Ldot" unicode="&#x13f;" horiz-adv-x="944" 
d="M422 1401v-1151h444q21 0 21 -21v-211q0 -18 -19 -18h-706q-19 0 -19 18l-2 1383q0 20 21 20h239q21 0 21 -20zM696 948q70 0 115 -45t45 -117q0 -69 -45.5 -113t-114.5 -44q-72 0 -114.5 42.5t-42.5 114.5q0 73 43 117.5t114 44.5z" />
    <glyph glyph-name="ldot" unicode="&#x140;" horiz-adv-x="813" 
d="M381 1458v-1438q0 -20 -21 -20h-227q-20 0 -20 20v1438q0 21 20 21h225q23 0 23 -21zM504 678q-37 37 -37 96t37 94q37 37 96 37t94 -37q37 -35 37 -94t-37 -96q-35 -37 -94 -37t-96 37z" />
    <glyph glyph-name="Lslash" unicode="&#x141;" horiz-adv-x="944" 
d="M94 641l553 236q19 9 19 -13v-98q0 -20 -19 -29l-553 -237q-18 -9 -18 12v100q0 20 18 29zM422 1401v-1151h444q21 0 21 -21v-211q0 -18 -19 -18h-706q-19 0 -19 18l-2 1383q0 20 21 20h239q21 0 21 -20z" />
    <glyph glyph-name="lslash" unicode="&#x142;" horiz-adv-x="514" 
d="M150 1419h215q20 0 20 -18v-608l123 61q18 6 18 -12v-101q0 -19 -18 -28l-123 -60v-633q0 -20 -20 -20h-215q-21 0 -21 20v504l-119 -59q-22 -9 -22 14v92q0 26 22 35l119 60v735q0 18 21 18z" />
    <glyph glyph-name="Nacute" unicode="&#x143;" horiz-adv-x="1474" 
d="M1073 1421h240q20 0 20 -20v-1381q0 -20 -20 -20h-275q-13 0 -22 12l-594 946v-938q0 -20 -21 -20h-239q-21 0 -21 20l2 1381q0 20 21 20h274q17 0 25 -14l590 -942l2 936q0 20 18 20zM879 1831l96 -160q13 -22 -8 -31l-394 -190q-21 -9 -30 6l-54 88q-9 14 7 27l350 266
q18 15 33 -6z" />
    <glyph glyph-name="nacute" unicode="&#x144;" horiz-adv-x="1132" 
d="M113 20l-2 938q0 21 22 21h180q21 0 27 -21l22 -94q96 140 293 140q166 0 267 -119q102 -120 102 -320v-545q0 -20 -20 -20h-226q-8 0 -14.5 6.5t-5.5 13.5v490q0 105 -50 165t-133 60q-83 -2 -136.5 -68.5t-59.5 -189.5v-457q0 -18 -21 -18h-225q-20 0 -20 18zM711 1464
l116 -145q15 -15 -4 -31l-358 -237q-16 -10 -31 2l-65 80q-8 8 2 28l307 303q15 21 33 0z" />
    <glyph glyph-name="uni0145" unicode="&#x145;" horiz-adv-x="1474" 
d="M1073 1421h240q20 0 20 -20v-1381q0 -20 -20 -20h-275q-13 0 -22 12l-594 946v-938q0 -20 -21 -20h-239q-21 0 -21 20l2 1381q0 20 21 20h274q17 0 25 -14l590 -942l2 936q0 20 18 20zM692 -309q-6 0 -8 2q-76 27 -76 123q0 60 36.5 97.5t96.5 37.5q56 0 92 -35.5
t41 -91.5q12 -116 -63 -203q-72 -87 -172 -102q-19 -3 -25 8l-36 72q-9 15 4 18q75 26 110 74z" />
    <glyph glyph-name="uni0146" unicode="&#x146;" horiz-adv-x="1132" 
d="M113 20l-2 938q0 21 22 21h180q21 0 27 -21l22 -94q96 140 293 140q166 0 267 -119q102 -120 102 -320v-545q0 -20 -20 -20h-226q-8 0 -14.5 6.5t-5.5 13.5v490q0 105 -50 165t-133 60q-83 -2 -136.5 -68.5t-59.5 -189.5v-457q0 -18 -21 -18h-225q-20 0 -20 18zM528 -309
q-6 0 -8 2q-76 27 -76 123q0 60 37 97.5t97 37.5q56 0 92 -35.5t41 -91.5q12 -115 -64 -203q-72 -87 -172 -102q-18 -3 -24 8l-37 72q-9 15 4 18q75 26 110 74z" />
    <glyph glyph-name="Ncaron" unicode="&#x147;" horiz-adv-x="1474" 
d="M1073 1421h240q20 0 20 -20v-1381q0 -20 -20 -20h-275q-13 0 -22 12l-594 946v-938q0 -20 -21 -20h-239q-21 0 -21 20l2 1381q0 20 21 20h274q17 0 25 -14l590 -942l2 936q0 20 18 20zM629 1745l108 -96l107 96q12 12 26 12h220q28 0 8 -20l-242 -224q-12 -12 -31 -12
h-178q-16 0 -31 12l-239 224q-9 6 -6.5 13t14.5 7h219q10 0 25 -12z" />
    <glyph glyph-name="ncaron" unicode="&#x148;" horiz-adv-x="1132" 
d="M113 20l-2 938q0 21 22 21h180q21 0 27 -21l22 -94q96 140 293 140q166 0 267 -119q102 -120 102 -320v-545q0 -20 -20 -20h-226q-8 0 -14.5 6.5t-5.5 13.5v490q0 105 -50 165t-133 60q-83 -2 -136.5 -68.5t-59.5 -189.5v-457q0 -18 -21 -18h-225q-20 0 -20 18zM242 1415
h196q17 0 27 -10l94 -148l96 146q9 12 25 12h199q24 0 8 -16l-203 -285q-8 -14 -29 -14h-192q-21 0 -27 14l-205 283q-12 18 11 18z" />
    <glyph glyph-name="napostrophe" unicode="&#x149;" horiz-adv-x="1323" 
d="M303 20l-2 938q0 21 23 21h180q20 0 26 -21l23 -94q96 140 293 140q165 0 266 -119q102 -120 102 -320v-545q0 -20 -20 -20h-225q-10 0 -16.5 6t-4.5 14v490q0 105 -49.5 165t-132.5 60q-83 -2 -137 -68.5t-60 -189.5v-457q0 -18 -20 -18h-225q-21 0 -21 18zM100 940
l-86 70q-14 9 4 24q124 95 154 221q-6 0 -8 2q-51 10 -80 49t-29 95q0 69 41 111t109 42q63 0 104 -38t45 -101q15 -132 -57 -282t-168 -201q-14 -7 -29 8z" />
    <glyph glyph-name="Eng" unicode="&#x14a;" horiz-adv-x="1462" 
d="M1047 -102v100l-631 960v-938q0 -20 -21 -20h-239q-21 0 -21 20l2 1381q0 20 21 20h274q19 0 25 -14l590 -936l2 930q0 20 18 20h240q20 0 20 -20v-1514q0 -174 -87.5 -269.5t-246.5 -94.5q-86 0 -176 41q-87 40 -127 74q-18 15 -6 38l109 179q12 22 30 10
q91 -70 148 -70q76 0 76 103z" />
    <glyph glyph-name="eng" unicode="&#x14b;" horiz-adv-x="1136" 
d="M475 -406q-16 9 -6 29l84 191q9 25 35 6q41 -35 86 -35q41 -2 62 27t22 92v606q0 105 -50 165t-133 60q-83 -2 -136.5 -68.5t-59.5 -189.5v-457q0 -18 -21 -18h-225q-20 0 -20 18l-2 938q0 21 22 21h180q21 0 27 -21l22 -94q96 140 293 140q166 0 267 -119
q102 -120 102 -320v-694q3 -163 -82 -260q-82 -98 -229 -98q-151 0 -238 81z" />
    <glyph glyph-name="Omacron" unicode="&#x14c;" horiz-adv-x="1597" 
d="M801 -18q-331 0 -531 200t-200 529q0 328 200 528q204 201 531 201q325 0 526 -201t201 -528q0 -328 -201 -529q-200 -200 -526 -200zM801 260q200 0 323 123q125 125 125 328t-125 325q-122 125 -323 125q-203 0 -328 -125q-123 -123 -123 -325t123 -328
q123 -123 328 -123zM539 1726h526q20 0 20 -20v-143q0 -19 -20 -19h-526q-23 0 -23 19v143q0 20 23 20z" />
    <glyph glyph-name="omacron" unicode="&#x14d;" horiz-adv-x="1132" 
d="M565 1004q230 0 369 -142q141 -141 141 -370q0 -230 -141 -371q-138 -141 -369 -141q-227 0 -368 141q-140 143 -140 371q0 227 140 370q142 142 368 142zM565 246q110 0 177 68t67 178t-67 177.5t-177 67.5q-109 0 -175 -67.5t-66 -177.5t66 -178t175 -68zM309 1368h518
q25 -3 25 -25v-141q0 -24 -25 -24h-518q-24 0 -24 22v143q0 25 24 25z" />
    <glyph glyph-name="Obreve" unicode="&#x14e;" horiz-adv-x="1597" 
d="M801 -18q-331 0 -531 200t-200 529q0 328 200 528q204 201 531 201q325 0 526 -201t201 -528q0 -328 -201 -529q-200 -200 -526 -200zM801 260q200 0 323 123q125 125 125 328t-125 325q-122 125 -323 125q-203 0 -328 -125q-123 -123 -123 -325t123 -328
q123 -123 328 -123zM940 1772l127 2q16 0 16 -19q-1 -120 -78 -187t-206 -67t-204 66t-81 188q0 19 18 19h125q18 0 21 -19q5 -39 39 -67.5t82 -28.5t83.5 27.5t41.5 66.5q0 19 16 19z" />
    <glyph glyph-name="obreve" unicode="&#x14f;" horiz-adv-x="1132" 
d="M565 1004q230 0 369 -142q141 -141 141 -370q0 -230 -141 -371q-138 -141 -369 -141q-227 0 -368 141q-140 143 -140 371q0 227 140 370q142 142 368 142zM565 246q110 0 177 68t67 178t-67 177.5t-177 67.5q-109 0 -175 -67.5t-66 -177.5t66 -178t175 -68zM711 1401h133
q16 0 16 -21q-4 -133 -86 -214t-211 -81t-209.5 80.5t-85.5 214.5q0 21 19 21h133q16 0 16 -21q8 -54 42 -87t85 -33q54 0 88.5 33t40.5 87q3 21 19 21z" />
    <glyph glyph-name="Ohungarumlaut" unicode="&#x150;" horiz-adv-x="1597" 
d="M801 -18q-331 0 -531 200t-200 529q0 328 200 528q204 201 531 201q325 0 526 -201t201 -528q0 -328 -201 -529q-200 -200 -526 -200zM801 260q200 0 323 123q125 125 125 328t-125 325q-122 125 -323 125q-203 0 -328 -125q-123 -123 -123 -325t123 -328
q123 -123 328 -123zM1018 1849l135 -94q22 -13 6 -29l-207 -251q-9 -15 -26 -5l-88 68q-19 10 -9 27l158 276q17 17 31 8zM698 1849l144 -94q15 -15 4 -26l-207 -254q-13 -16 -27 -5l-90 66q-16 16 -8 29l158 276q9 18 26 8z" />
    <glyph glyph-name="ohungarumlaut" unicode="&#x151;" horiz-adv-x="1132" 
d="M565 1004q230 0 369 -142q141 -141 141 -370q0 -230 -141 -371q-138 -141 -369 -141q-227 0 -368 141q-140 143 -140 371q0 227 140 370q142 142 368 142zM565 246q110 0 177 68t67 178t-67 177.5t-177 67.5q-109 0 -175 -67.5t-66 -177.5t66 -178t175 -68zM766 1456
l131 -86q19 -12 4 -27l-199 -256q-10 -14 -26 -4l-86 62q-9 15 -4 26l151 277q12 21 29 8zM461 1458l135 -88q20 -10 6 -27l-203 -256q-10 -13 -24 -4l-86 62q-15 9 -8 29l151 276q12 18 29 8z" />
    <glyph glyph-name="OE" unicode="&#x152;" horiz-adv-x="1523" 
d="M1425 0h-661q-310 3 -504 197q-190 193 -190 514q0 318 188 512q192 195 502 198h643q22 0 22 -26v-197q0 -27 -22 -27h-379v-325h285q20 0 20 -23v-202q0 -23 -20 -23h-285v-346h401q21 -3 21 -25v-204q0 -23 -21 -23zM743 274v871q-181 -17 -286.5 -131.5
t-106.5 -302.5q0 -189 104.5 -304.5t288.5 -132.5z" />
    <glyph glyph-name="oe" unicode="&#x153;" horiz-adv-x="1880" 
d="M565 737q-109 0 -175 -67.5t-66 -177.5t66 -178t175 -68t176.5 68t67.5 178t-67 177.5t-177 67.5zM1090 578h454q-19 80 -77.5 125t-149.5 45t-149.5 -45t-77.5 -125zM565 1004q243 0 381 -156q137 149 371 149q269 0 387 -161q122 -162 119 -430q0 -21 -21 -21h-704
q24 -75 86 -116.5t157 -41.5q125 0 203 66q20 14 35 2l141 -150q12 -12 0 -28q-128 -137 -395 -140q-245 0 -383 156q-138 -153 -377 -153q-227 0 -368 141q-140 143 -140 371q0 227 140 370q142 142 368 142z" />
    <glyph glyph-name="Racute" unicode="&#x154;" horiz-adv-x="1200" 
d="M868 10l-297 520h-165v-510q0 -20 -21 -20h-240q-20 0 -20 20l2 1381q0 20 18 20h539q210 0 332 -125q122 -122 125 -319q-2 -156 -81 -267.5t-218 -152.5l323 -532q16 -25 -12 -25h-264q-14 0 -21 10zM688 1155l-282 2v-358l282 -2q69 0 120.5 46.5t51.5 131.5
t-51.5 132.5t-120.5 47.5zM801 1831l96 -160q13 -22 -8 -31l-393 -190q-22 -9 -31 6l-53 88q-9 15 6 27l350 266q18 15 33 -6z" />
    <glyph glyph-name="racute" unicode="&#x155;" horiz-adv-x="755" 
d="M662 700q-66 29 -127 29q-102 0 -154 -104v-605q0 -20 -23 -20h-225q-20 0 -20 20l-2 938q0 21 22 21h156q22 0 28 -21l23 -59q106 100 246 100q56 0 147 -24q21 -6 15 -27l-56 -235q-9 -22 -30 -13zM528 1460l117 -145q16 -16 -4 -31l-358 -235q-15 -12 -31 0l-66 79
q-8 8 2 29l308 303q15 20 32 0z" />
    <glyph glyph-name="uni0156" unicode="&#x156;" horiz-adv-x="1220" 
d="M885 10l-297 520h-166v-510q0 -20 -21 -20h-239q-21 0 -21 20l2 1381q0 20 19 20h538q210 0 332 -125q122 -122 125 -319q-2 -156 -81 -267.5t-218 -152.5l324 -532q16 -25 -13 -25h-264q-13 0 -20 10zM705 1155l-283 2v-358l283 -2q69 0 120.5 46.5t51.5 131.5
t-51.5 132.5t-120.5 47.5zM578 -309q-7 0 -9 2q-75 26 -75 123q0 60 36.5 97.5t96.5 37.5q56 0 92 -35.5t41 -91.5q12 -115 -64 -203q-72 -87 -172 -102q-18 -3 -24 8l-37 72q-9 15 4 18q76 27 111 74z" />
    <glyph glyph-name="uni0157" unicode="&#x157;" horiz-adv-x="755" 
d="M662 700q-66 29 -127 29q-102 0 -154 -104v-605q0 -20 -23 -20h-225q-20 0 -20 20l-2 938q0 21 22 21h156q22 0 28 -21l23 -59q106 100 246 100q56 0 147 -24q21 -6 15 -27l-56 -235q-9 -22 -30 -13zM188 -309q-6 0 -8 2q-76 27 -76 123q0 60 37 97.5t97 37.5
q56 0 92 -35.5t41 -91.5q12 -115 -64 -203q-72 -87 -172 -102q-18 -3 -24 8l-37 72q-9 15 4 18q75 26 110 74z" />
    <glyph glyph-name="Rcaron" unicode="&#x158;" horiz-adv-x="1210" 
d="M879 10l-297 520h-166v-510q0 -20 -21 -20h-239q-21 0 -21 20l2 1381q0 20 19 20h538q210 0 332 -125q122 -122 125 -319q-2 -156 -81 -267.5t-218 -152.5l324 -532q16 -25 -13 -25h-264q-13 0 -20 10zM698 1155l-282 2v-358l282 -2q69 0 120.5 46.5t51.5 131.5
t-51.5 132.5t-120.5 47.5zM485 1745l109 -96l106 96q12 12 27 12h219q28 0 8 -20l-241 -224q-12 -12 -31 -12h-178q-16 0 -31 12l-240 224q-9 6 -6 13t15 7h219q9 0 24 -12z" />
    <glyph glyph-name="rcaron" unicode="&#x159;" horiz-adv-x="755" 
d="M662 700q-66 29 -127 29q-102 0 -154 -104v-605q0 -20 -23 -20h-225q-20 0 -20 20l-2 938q0 21 22 21h156q22 0 28 -21l23 -59q106 100 246 100q56 0 147 -24q21 -6 15 -27l-56 -235q-9 -22 -30 -13zM68 1413h196q17 0 27 -10l94 -148l96 146q9 12 25 12h199q24 0 8 -16
l-203 -285q-8 -14 -29 -14h-192q-19 0 -27 14l-205 283q-12 18 11 18z" />
    <glyph glyph-name="Sacute" unicode="&#x15a;" horiz-adv-x="1204" 
d="M84 152q-14 9 -4 26l119 211q14 19 32 4q46 -41 160 -90q107 -45 227 -45q101 0 165.5 38t64.5 103q0 121 -270 170q-253 45 -371.5 146t-124.5 282q-6 195 137 320q144 126 389 123q161 -3 279 -49q123 -48 166 -88q16 -9 6 -29l-96 -217q-9 -18 -29 -6
q-163 111 -338 108q-101 1 -167.5 -39.5t-66.5 -101.5t57.5 -95t217.5 -71q255 -56 370 -156t121 -282q6 -192 -139 -316q-145 -121 -393 -118q-177 3 -320 61q-138 57 -192 111zM776 1831l96 -160q13 -22 -8 -31l-393 -190q-22 -9 -31 6l-53 88q-9 15 6 27l350 266
q18 15 33 -6z" />
    <glyph glyph-name="sacute" unicode="&#x15b;" horiz-adv-x="917" 
d="M76 88q-16 9 -6 29l92 182q6 18 24 6q126 -69 230 -78q70 -5 119 12t49 46q0 22 -29 41q-7 6 -14.5 10.5t-18.5 9t-18.5 8t-23.5 8t-25 7.5t-32 9.5t-36 10.5q-2 0 -9.5 3t-12.5 3q-289 79 -295 293q-3 153 112 234q120 85 293 82q99 -1 191 -35t147 -74q15 -12 6 -31
l-90 -168q-10 -26 -35 -10q-112 58 -184 66q-71 7 -121.5 -9.5t-50.5 -46.5q0 -31 39.5 -52t130.5 -42q178 -39 260.5 -108t83.5 -193q3 -147 -104 -235q-109 -89 -283 -86q-136 3 -236 38q-110 38 -153 70zM586 1464l116 -145q18 -15 -4 -31l-358 -237q-16 -10 -31 2
l-63 80q-13 13 2 28l305 303q15 21 33 0z" />
    <glyph glyph-name="Scircumflex" unicode="&#x15c;" horiz-adv-x="1204" 
d="M84 152q-14 9 -4 26l119 211q14 19 32 4q46 -41 160 -90q107 -45 227 -45q101 0 165.5 38t64.5 103q0 121 -270 170q-253 45 -371.5 146t-124.5 282q-6 195 137 320q144 126 389 123q161 -3 279 -49q123 -48 166 -88q16 -9 6 -29l-96 -217q-9 -18 -29 -6
q-163 111 -338 108q-101 1 -167.5 -39.5t-66.5 -101.5t57.5 -95t217.5 -71q255 -56 370 -156t121 -282q6 -192 -139 -316q-145 -121 -393 -118q-177 3 -320 61q-138 57 -192 111zM707 1516l-103 90l-102 -90q-18 -11 -25 -11h-209q-10 0 -13 5.5t5 11.5l229 213q17 14 29 14
h170q15 0 29 -14l229 -213q10 -6 7 -11.5t-13 -5.5h-209q-13 0 -24 11z" />
    <glyph glyph-name="scircumflex" unicode="&#x15d;" horiz-adv-x="917" 
d="M76 88q-16 9 -6 29l90 180q6 15 28 6q122 -67 228 -76q69 -6 118.5 11.5t49.5 46.5q0 31 -38.5 50t-154.5 52l-26 8q-289 79 -295 293q-6 150 110 232q119 84 295 81q100 -1 193 -35t143 -73q16 -13 6 -29l-90 -170q-9 -17 -33 -8q-1 0 -12 6t-27.5 14.5t-27.5 12.5
q-58 25 -119 33q-70 10 -121 -8t-51 -50q0 -30 38.5 -50t133.5 -44q179 -39 260 -107t82 -192q3 -147 -105 -235q-110 -87 -282 -84q-131 0 -238 36q-113 39 -149 70zM129 1110l205 287q7 11 28 14h191q15 0 29 -14l202 -285q15 -18 -8 -18h-198q-15 0 -25 10l-96 149
l-95 -147q-9 -12 -24 -12h-201q-21 0 -8 16z" />
    <glyph glyph-name="Scedilla" unicode="&#x15e;" horiz-adv-x="1204" 
d="M84 152q-14 9 -4 26l119 211q14 19 32 4q46 -41 160 -90q107 -45 227 -45q101 0 165.5 38t64.5 103q0 121 -270 170q-253 45 -371.5 146t-124.5 282q-6 195 137 320q144 126 389 123q161 -3 279 -49q123 -48 166 -88q16 -9 6 -29l-96 -217q-9 -18 -29 -6
q-163 111 -338 108q-101 1 -167.5 -39.5t-66.5 -101.5t57.5 -95t217.5 -71q255 -56 370 -156t121 -282q6 -192 -139 -316q-145 -121 -393 -118q-177 3 -320 61q-138 57 -192 111zM514 0h197l-31 -72q169 -23 166 -164q0 -89 -66 -138.5t-172 -49.5q-142 0 -237 74
q-16 12 -4 24l43 74q8 8 24 2q82 -33 148 -33q36 0 59 16.5t23 41.5q0 53 -99 53h-106q-19 0 -10 18z" />
    <glyph glyph-name="scedilla" unicode="&#x15f;" horiz-adv-x="917" 
d="M76 88q-16 9 -6 29l90 180q6 15 28 6q122 -67 228 -76q69 -6 118.5 11.5t49.5 46.5q0 31 -38.5 50t-154.5 52l-26 8q-289 79 -295 293q-6 150 110 232q119 84 295 81q100 -1 193 -35t143 -73q16 -13 6 -29l-90 -170q-9 -17 -33 -8q-1 0 -12 6t-27.5 14.5t-27.5 12.5
q-58 25 -119 33q-70 10 -121 -8t-51 -50q0 -30 38.5 -50t133.5 -44q179 -39 260 -107t82 -192q3 -147 -105 -235q-110 -87 -282 -84q-131 0 -238 36q-113 39 -149 70zM362 0h207l-32 -76q179 -22 176 -172q-1 -94 -71.5 -146t-180.5 -52q-144 0 -250 77q-14 11 -4 27l45 76
q10 10 27 4q84 -35 155 -35q38 0 62 16.5t24 42.5q0 58 -104 58h-111q-21 0 -12 18z" />
    <glyph glyph-name="Scaron" unicode="&#x160;" horiz-adv-x="1204" 
d="M84 152q-14 9 -4 26l119 211q14 19 32 4q46 -41 160 -90q107 -45 227 -45q101 0 165.5 38t64.5 103q0 121 -270 170q-253 45 -371.5 146t-124.5 282q-6 195 137 320q144 126 389 123q161 -3 279 -49q123 -48 166 -88q16 -9 6 -29l-96 -217q-9 -18 -29 -6
q-163 111 -338 108q-101 1 -167.5 -39.5t-66.5 -101.5t57.5 -95t217.5 -71q255 -56 370 -156t121 -282q6 -192 -139 -316q-145 -121 -393 -118q-177 3 -320 61q-138 57 -192 111zM496 1745l108 -96l107 96q12 12 26 12h219q29 0 9 -20l-242 -224q-12 -12 -31 -12h-178
q-16 0 -31 12l-239 224q-10 7 -7 13.5t15 6.5h219q10 0 25 -12z" />
    <glyph glyph-name="scaron" unicode="&#x161;" horiz-adv-x="919" 
d="M78 88q-16 9 -6 29l90 180q6 15 28 6q122 -67 228 -76q69 -6 118.5 11.5t49.5 46.5q0 31 -38.5 50t-154.5 52l-26 8q-289 79 -295 293q-6 150 110 232q119 84 295 81q100 -1 193 -35t143 -73q16 -13 6 -29l-90 -170q-9 -17 -33 -8q-1 0 -12 6t-27.5 14.5t-27.5 12.5
q-58 25 -119 33q-70 10 -121 -8t-51 -50q0 -30 38.5 -50t133.5 -44q179 -39 260 -107t82 -192q3 -147 -104 -235q-110 -87 -283 -84q-131 0 -238 36q-113 39 -149 70zM133 1415h197q16 0 26 -10l95 -148l96 146q9 12 24 12h199q24 0 8 -16l-203 -285q-8 -14 -28 -14h-193
q-18 0 -26 14l-205 283q-12 18 10 18z" />
    <glyph glyph-name="uni0162" unicode="&#x162;" horiz-adv-x="1126" 
d="M705 1401v-1383q0 -18 -21 -18h-242q-18 0 -18 18v1383q0 18 18 18h242q21 0 21 -18zM37 1174v227q0 18 20 18h1014q21 0 21 -18v-227q0 -21 -23 -21h-1014q-18 0 -18 21z" />
    <glyph glyph-name="uni0163" unicode="&#x163;" horiz-adv-x="694" 
d="M590 283q22 13 28 -2l68 -201q10 -22 -4 -29q-27 -25 -91.5 -47t-129.5 -22q-134 0 -209 88t-74 243l2 959q0 20 19 20h225q18 0 18 -20l-2 -805q2 -130 16 -172.5t58 -42.5q34 0 76 31zM37 752v206q0 21 20 21h570q20 0 20 -21v-206q0 -21 -20 -21h-570q-20 0 -20 21z
" />
    <glyph glyph-name="Tcaron" unicode="&#x164;" horiz-adv-x="1126" 
d="M424 18v1137h-369q-18 0 -18 19v227q0 20 20 20h1014q19 0 19 -20v-227q0 -19 -19 -19h-369v-1137q0 -18 -18 -18h-242q-18 0 -18 18zM455 1745l108 -96l107 96q12 12 26 12h219q29 0 9 -20l-242 -224q-12 -12 -31 -12h-178q-16 0 -31 12l-239 224q-10 7 -7 13.5t15 6.5
h219q10 0 25 -12z" />
    <glyph glyph-name="tcaron" unicode="&#x165;" horiz-adv-x="870" 
d="M442 731v-264q0 -130 14 -171.5t58 -41.5q22 0 78 29q20 10 29 -9l63 -194q10 -23 -6 -33q-86 -68 -217 -65q-133 0 -209 88.5t-74 242.5v418h-121q-20 0 -20 19v208q0 21 20 21h121l2 293q0 20 19 20h223q20 0 20 -20v-293h185q20 0 20 -21v-208q0 -19 -20 -19h-185z
M639 1243q-6 0 -8 2q-76 27 -76 123q0 60 36.5 97.5t96.5 37.5q56 0 92 -35.5t41 -91.5q12 -115 -63 -202q-73 -88 -172 -103q-19 -3 -25 8l-37 72q-9 15 4 18q76 27 111 74z" />
    <glyph glyph-name="Tbar" unicode="&#x166;" horiz-adv-x="1126" 
d="M1090 1401v-227q0 -19 -19 -19h-369v-344h191q20 0 20 -18v-97q0 -18 -20 -18h-191v-660q0 -18 -18 -18h-242q-18 0 -18 18v660h-191q-18 0 -18 18v97q0 18 18 18h191v344h-369q-18 0 -18 19v227q0 20 20 20h1014q19 0 19 -20z" />
    <glyph glyph-name="tbar" unicode="&#x167;" horiz-adv-x="692" 
d="M598 455h-156v-33q2 -99 16.5 -133.5t55.5 -34.5q22 0 78 29q20 10 29 -9l63 -194q10 -23 -6 -33q-86 -68 -217 -65q-133 0 -209 88.5t-74 242.5v142h-119q-18 0 -18 20v96q0 19 18 19h119v141h-121q-20 0 -20 19v208q0 21 20 21h121l2 293q0 20 19 20h223q20 0 20 -20
v-293h185q20 0 20 -21v-208q0 -19 -20 -19h-185v-141h156q18 0 18 -19v-96q0 -20 -18 -20z" />
    <glyph glyph-name="Utilde" unicode="&#x168;" horiz-adv-x="1011" 
d="M-51 557v844q0 18 20 18h242q18 0 18 -18v-846q0 -136 76 -215.5t201 -79.5t199 79.5t73 215.5v846q0 18 21 18h241q19 0 19 -18v-846q0 -273 -160 -424q-155 -149 -393 -149q-232 0 -397 151q-160 151 -160 424zM276 1522q-9 -24 -24 -9l-68 72q-11 11 -8 25
q28 84 86 135t117 51q46 0 83 -23.5t57 -51t48 -51t58 -23.5q68 3 108 96q1 10 9.5 13t15.5 -5l71 -74q12 -9 7 -20q-26 -85 -84 -137t-121 -52q-37 0 -67.5 15.5t-51 38t-39.5 45t-41 38t-47 15.5q-68 -3 -109 -98z" />
    <glyph glyph-name="utilde" unicode="&#x169;" horiz-adv-x="1144" 
d="M805 20l-21 93q-120 -138 -319 -138q-162 0 -260.5 119.5t-98.5 319.5l-2 542q0 23 21 23h227q21 0 21 -23v-487q0 -242 190 -242q86 0 142 69.5t63 203.5v456q0 23 20 23h226q20 0 20 -21v-938q0 -20 -20 -20h-183q-20 0 -26 20zM354 1130q-12 -22 -26 -8l-68 70
q-7 7 -4 20q26 83 81 133t114 50q36 0 65.5 -15t49 -36.5t37 -43t38.5 -36.5t45 -15q71 3 105 97q8 20 22 6l70 -72q9 -8 6 -16q-24 -83 -80 -134t-117 -51q-36 0 -65.5 15t-49 37t-37.5 44t-39.5 37t-45.5 15q-71 -3 -101 -97z" />
    <glyph glyph-name="Umacron" unicode="&#x16a;" horiz-adv-x="1382" 
d="M135 557v844q0 18 21 18h241q19 0 19 -18v-846q0 -136 75.5 -215.5t200.5 -79.5t199.5 79.5t73.5 215.5v846q0 18 20 18h242q18 0 18 -18v-846q0 -273 -160 -424q-155 -149 -393 -149q-232 0 -397 151q-160 151 -160 424zM428 1718h528q19 0 19 -20v-144q0 -18 -19 -18
h-528q-20 0 -20 18v144q0 20 20 20z" />
    <glyph glyph-name="umacron" unicode="&#x16b;" horiz-adv-x="1144" 
d="M805 20l-21 93q-120 -138 -319 -138q-162 0 -260.5 119.5t-98.5 319.5l-2 542q0 23 21 23h227q21 0 21 -23v-487q0 -242 190 -242q86 0 142 69.5t63 203.5v456q0 23 20 23h226q20 0 20 -21v-938q0 -20 -20 -20h-183q-20 0 -26 20zM307 1366h518q25 -3 25 -25v-141
q0 -24 -25 -24h-518q-24 0 -24 20v145q0 25 24 25z" />
    <glyph glyph-name="Ubreve" unicode="&#x16c;" horiz-adv-x="1382" 
d="M135 557v844q0 18 21 18h241q19 0 19 -18v-846q0 -136 75.5 -215.5t200.5 -79.5t199.5 79.5t73.5 215.5v846q0 18 20 18h242q18 0 18 -18v-846q0 -273 -160 -424q-155 -149 -393 -149q-232 0 -397 151q-160 151 -160 424zM838 1774l133 2q16 0 16 -19q-4 -126 -83 -194
t-214 -68q-132 0 -211.5 68t-85.5 194q0 19 21 19h131q17 0 20 -19q5 -42 40.5 -70t84.5 -28q53 0 87.5 28t39.5 70q3 17 21 17z" />
    <glyph glyph-name="ubreve" unicode="&#x16d;" horiz-adv-x="1144" 
d="M805 20l-21 93q-120 -138 -319 -138q-162 0 -260.5 119.5t-98.5 319.5l-2 542q0 23 21 23h227q21 0 21 -23v-487q0 -242 190 -242q86 0 142 69.5t63 203.5v456q0 23 20 23h226q20 0 20 -21v-938q0 -20 -20 -20h-183q-20 0 -26 20zM711 1397h131q18 0 18 -21
q-4 -133 -86 -214t-213 -81q-127 0 -208 80.5t-87 214.5q0 21 21 21h131q18 0 18 -21q6 -55 40 -89t85 -34q53 0 88 34t41 89q3 21 21 21z" />
    <glyph glyph-name="Uring" unicode="&#x16e;" horiz-adv-x="1382" 
d="M135 557v844q0 18 21 18h241q19 0 19 -18v-846q0 -136 75.5 -215.5t200.5 -79.5t199.5 79.5t73.5 215.5v846q0 18 20 18h242q18 0 18 -18v-846q0 -273 -160 -424q-155 -149 -393 -149q-232 0 -397 151q-160 151 -160 424zM547 1509q-53 56 -53 144t53 141q55 55 143 55
q89 0 141 -55q56 -53 56 -141t-56 -144q-53 -53 -141 -53q-87 0 -143 53zM625 1653q0 -31 18 -50.5t47 -19.5q31 0 49.5 19.5t18.5 50.5q0 29 -18.5 47t-49.5 18q-29 0 -47 -18t-18 -47z" />
    <glyph glyph-name="uring" unicode="&#x16f;" horiz-adv-x="1144" 
d="M805 20l-21 93q-120 -138 -319 -138q-162 0 -260.5 119.5t-98.5 319.5l-2 542q0 23 21 23h227q21 0 21 -23v-487q0 -242 190 -242q86 0 142 69.5t63 203.5v456q0 23 20 23h226q20 0 20 -21v-938q0 -20 -20 -20h-183q-20 0 -26 20zM565 1051q-88 0 -142 54t-54 142
t54 142.5t142 54.5t142.5 -54.5t54.5 -142.5t-53.5 -142t-143.5 -54zM500 1247q0 -31 18 -49t47 -18q31 0 50.5 18.5t19.5 48.5q0 29 -19.5 47.5t-50.5 18.5q-29 0 -47 -18.5t-18 -47.5z" />
    <glyph glyph-name="Uhungarumlaut" unicode="&#x170;" horiz-adv-x="1382" 
d="M135 557v844q0 18 21 18h241q19 0 19 -18v-846q0 -136 75.5 -215.5t200.5 -79.5t199.5 79.5t73.5 215.5v846q0 18 20 18h242q18 0 18 -18v-846q0 -273 -160 -424q-155 -149 -393 -149q-232 0 -397 151q-160 151 -160 424zM887 1831l135 -94q22 -10 6 -29l-207 -252
q-9 -14 -26 -4l-88 66q-16 16 -9 28l158 277q17 17 31 8zM567 1831l144 -94q15 -15 4 -27l-207 -254q-12 -16 -27 -4l-90 66q-15 15 -8 28l158 279q12 15 26 6z" />
    <glyph glyph-name="uhungarumlaut" unicode="&#x171;" horiz-adv-x="1144" 
d="M805 20l-21 93q-120 -138 -319 -138q-162 0 -260.5 119.5t-98.5 319.5l-2 542q0 23 21 23h227q21 0 21 -23v-487q0 -242 190 -242q86 0 142 69.5t63 203.5v456q0 23 20 23h226q20 0 20 -21v-938q0 -20 -20 -20h-183q-20 0 -26 20zM764 1417l131 -84q22 -12 6 -28
l-201 -254q-12 -16 -24 -4l-86 59q-15 15 -6 29l151 276q15 18 29 6zM459 1419l137 -86q16 -13 4 -28l-201 -254q-12 -15 -26 -4l-86 59q-15 15 -6 31l151 276q15 15 27 6z" />
    <glyph glyph-name="Uogonek" unicode="&#x172;" horiz-adv-x="1382" 
d="M135 557v844q0 18 21 18h241q19 0 19 -18v-846q0 -136 75.5 -215.5t200.5 -79.5t199.5 79.5t73.5 215.5v846q0 18 20 18h242q18 0 18 -18v-846q0 -273 -160 -424q-155 -149 -393 -149q-232 0 -397 151q-160 151 -160 424zM827 -360q-26 -35 -80 -56.5t-112 -21.5
q-107 0 -165 53.5t-60 148.5q0 84 67.5 163.5t200.5 176.5l88 -102q-118 -118 -143 -164q-46 -64 6 -98q20 -14 45.5 -12t42.5 22q9 13 20 2l90 -88q9 -9 0 -24z" />
    <glyph glyph-name="uogonek" unicode="&#x173;" horiz-adv-x="1144" 
d="M805 20l-21 93q-120 -138 -319 -138q-162 0 -260.5 119.5t-98.5 319.5l-2 542q0 23 21 23h227q21 0 21 -23v-487q0 -242 190 -242q86 0 142 69.5t63 203.5v456q0 23 20 23h226q20 0 20 -21v-938q0 -20 -20 -20h-183q-20 0 -26 20zM1092 -354q-26 -35 -80.5 -56.5
t-112.5 -21.5q-107 0 -165 54t-60 149q0 146 268 340l88 -103q-113 -116 -143 -164q-45 -62 8 -100q18 -12 43.5 -9t42.5 21q9 13 20 2l91 -90q9 -9 0 -22z" />
    <glyph glyph-name="Wcircumflex" unicode="&#x174;" horiz-adv-x="1929" 
d="M420 16l-418 1385q-6 20 16 20h244q20 0 23 -18l266 -967l280 967q3 18 25 18h215q20 0 23 -18l284 -977l271 981q3 14 18 14h244q22 0 16 -20l-418 -1385q-6 -16 -24 -16h-207q-17 0 -23 16l-290 1053l-293 -1053q-3 -16 -21 -16h-211q-17 0 -20 16zM879 1767h170
q16 0 28 -12l230 -213q9 -8 6 -13t-13 -5h-208q-15 0 -25 10l-102 92l-103 -92q-17 -10 -22 -10h-211q-26 0 -8 18l229 213q21 12 29 12z" />
    <glyph glyph-name="wcircumflex" unicode="&#x175;" horiz-adv-x="1386" 
d="M1100 0h-240q-18 0 -24 16l-144 578l-145 -578q-6 -16 -25 -16h-233q-20 0 -23 16l-262 942q-9 21 12 21h258q18 0 21 -18l123 -582l157 582q6 18 23 18h190q22 0 25 -18l158 -617l119 617q3 18 20 18h258q20 0 14 -21l-258 -942q-6 -16 -24 -16zM573 1090h-200
q-21 0 -8 16l204 287q7 11 29 14h190q15 0 29 -14l203 -285q15 -18 -8 -18h-199q-15 0 -25 10l-96 149l-94 -147q-9 -12 -25 -12z" />
    <glyph glyph-name="Ycircumflex" unicode="&#x176;" horiz-adv-x="1267" 
d="M494 18v547l-488 830q-15 24 14 24h254q17 0 27 -16l334 -592l334 592q6 16 26 16h252q30 0 15 -24l-490 -828v-549q3 -18 -18 -18h-240q-20 0 -20 18zM735 1526l-100 90l-103 -90q-17 -10 -24 -10h-209q-11 0 -13 5t5 11l229 213q17 14 29 14h170q15 0 29 -14l229 -213
q10 -6 7 -11t-15 -5h-207q-10 0 -27 10z" />
    <glyph glyph-name="ycircumflex" unicode="&#x177;" horiz-adv-x="1034" 
d="M776 979h234q31 0 16 -27l-547 -1401q-9 -18 -28 -18h-232q-28 0 -16 27l174 448l-371 944q-9 27 14 27h242q19 0 25 -18l217 -625l246 625q6 18 26 18zM188 1092l205 286q8 12 29 15h190q14 0 29 -15l203 -284q16 -19 -8 -19h-199q-15 0 -25 10l-96 150l-94 -148
q-9 -12 -25 -12h-200q-23 0 -9 17z" />
    <glyph glyph-name="Ydieresis" unicode="&#x178;" horiz-adv-x="1267" 
d="M494 18v547l-488 830q-15 24 14 24h254q17 0 27 -16l334 -592l334 592q6 16 26 16h252q30 0 15 -24l-490 -828v-549q3 -18 -18 -18h-240q-20 0 -20 18zM338 1632q0 62 37 99t96 36.5t96 -38.5q37 -37 37 -97q0 -59 -37.5 -96t-95.5 -37q-61 0 -97 36.5t-36 96.5z
M662 1632q0 61 36.5 98t96.5 37t95.5 -37.5t35.5 -97.5t-35.5 -96.5t-95.5 -36.5t-96.5 36.5t-36.5 96.5z" />
    <glyph glyph-name="Zacute" unicode="&#x179;" horiz-adv-x="1232" 
d="M1153 1386l-649 -1124h626q19 0 19 -20v-222q0 -20 -19 -20h-1040q-32 0 -18 33l651 1126h-563q-21 0 -21 19v223q0 20 21 20h975q39 0 18 -35zM784 1831l97 -160q12 -22 -9 -31l-393 -190q-21 -9 -30 6l-54 88q-9 15 6 27l351 266q17 14 32 -6z" />
    <glyph glyph-name="zacute" unicode="&#x17a;" horiz-adv-x="940" 
d="M850 0h-766q-26 0 -14 27l385 704h-344q-21 0 -21 19v208q0 21 21 21h743q28 0 10 -35l-379 -696h365q18 0 18 -21v-207q0 -20 -18 -20zM651 1456l117 -145q17 -14 -4 -29l-358 -238q-16 -12 -31 3l-64 79q-13 12 2 27l305 303q15 21 33 0z" />
    <glyph glyph-name="Zdotaccent" unicode="&#x17b;" horiz-adv-x="1232" 
d="M1153 1386l-649 -1124h626q19 0 19 -20v-222q0 -20 -19 -20h-1040q-32 0 -18 33l651 1126h-563q-21 0 -21 19v223q0 20 21 20h975q39 0 18 -35zM514 1642q0 57 34.5 91t90.5 34q57 0 90 -34t33 -91q0 -56 -34 -90t-89 -34q-56 0 -90.5 34.5t-34.5 89.5z" />
    <glyph glyph-name="zdotaccent" unicode="&#x17c;" horiz-adv-x="940" 
d="M850 0h-766q-26 0 -14 27l385 704h-344q-21 0 -21 19v208q0 21 21 21h743q28 0 10 -35l-379 -696h365q18 0 18 -21v-207q0 -20 -18 -20zM473 1133q-60 0 -95.5 35.5t-35.5 95.5t35.5 94.5t95.5 34.5t93.5 -34.5t33.5 -94.5t-35 -95.5t-92 -35.5z" />
    <glyph glyph-name="Zcaron" unicode="&#x17d;" horiz-adv-x="1232" 
d="M1153 1386l-649 -1124h626q19 0 19 -20v-222q0 -20 -19 -20h-1040q-32 0 -18 33l651 1126h-563q-21 0 -21 19v223q0 20 21 20h975q39 0 18 -35zM508 1745l108 -96l107 96q12 12 27 12h219q28 0 8 -20l-242 -224q-12 -12 -30 -12h-179q-15 0 -30 12l-240 224
q-10 7 -7 13.5t15 6.5h219q10 0 25 -12z" />
    <glyph glyph-name="zcaron" unicode="&#x17e;" horiz-adv-x="940" 
d="M848 0h-766q-12 0 -16 8t2 19l385 704h-344q-21 0 -21 19v208q0 21 21 21h743q28 0 10 -35l-379 -696h365q18 0 18 -21v-207q0 -20 -18 -20zM164 1411h196q17 0 27 -10l94 -148l97 146q9 12 24 12h199q24 0 8 -16l-203 -285q-8 -14 -28 -14h-193q-21 0 -27 14l-204 283
q-12 18 10 18z" />
    <glyph glyph-name="longs" unicode="&#x17f;" horiz-adv-x="638" 
d="M391 1085l2 -1065q0 -20 -20 -20h-228q-20 0 -20 20l-2 1088q0 206 82.5 299.5t245.5 93.5q79 0 152 -27.5t104 -58.5q13 -9 6 -29l-82 -182q-6 -15 -27 -6q-68 41 -110 41q-52 0 -77 -35t-26 -119z" />
    <glyph glyph-name="florin" unicode="&#x192;" horiz-adv-x="985" 
d="M1053 1368l-129 -151q-17 -20 -33 -7q-1 1 -10.5 8t-18 12t-19.5 11t-22 9t-20 1q-61 0 -76 -94l-25 -178h162q10 0 16.5 -6.5t4.5 -14.5l-29 -206q-3 -21 -20 -21h-168l-76 -543q-35 -222 -228 -301q-193 -82 -407 25q-21 6 -8 31l110 182q9 15 27 6q106 -49 178.5 -8
t89.5 160l62 448h-146q-23 0 -20 21l31 206q6 21 22 21h148l26 188q21 141 105 238q87 96 202 96q155 0 271 -96q22 -15 0 -37z" />
    <glyph glyph-name="uni0218" unicode="&#x218;" horiz-adv-x="1204" 
d="M84 152q-14 9 -4 26l119 211q14 19 32 4q46 -41 160 -90q107 -45 227 -45q101 0 165.5 38t64.5 103q0 121 -270 170q-253 45 -371.5 146t-124.5 282q-6 195 137 320q144 126 389 123q161 -3 279 -49q123 -48 166 -88q16 -9 6 -29l-96 -217q-9 -18 -29 -6
q-163 111 -338 108q-101 1 -167.5 -39.5t-66.5 -101.5t57.5 -95t217.5 -71q255 -56 370 -156t121 -282q6 -192 -139 -316q-145 -121 -393 -118q-177 3 -320 61q-138 57 -192 111zM563 -309q-6 0 -8 2q-76 27 -76 123q0 60 36.5 97.5t96.5 37.5q56 0 92 -35.5t41 -91.5
q12 -116 -63 -203q-72 -87 -172 -102q-19 -3 -25 8l-36 72q-9 15 4 18q75 26 110 74z" />
    <glyph glyph-name="uni0219" unicode="&#x219;" horiz-adv-x="917" 
d="M76 88q-16 9 -6 29l90 180q6 15 28 6q122 -67 228 -76q69 -6 118.5 11.5t49.5 46.5q0 31 -38.5 50t-154.5 52l-26 8q-289 79 -295 293q-6 150 110 232q119 84 295 81q100 -1 193 -35t143 -73q16 -13 6 -29l-90 -170q-9 -17 -33 -8q-1 0 -12 6t-27.5 14.5t-27.5 12.5
q-58 25 -119 33q-70 10 -121 -8t-51 -50q0 -30 38.5 -50t133.5 -44q179 -39 260 -107t82 -192q3 -147 -105 -235q-110 -87 -282 -84q-131 0 -238 36q-113 39 -149 70zM420 -309q-6 0 -8 2q-76 27 -76 123q0 60 36.5 97.5t96.5 37.5q56 0 92 -35.5t41 -91.5q12 -116 -63 -203
q-72 -87 -172 -102q-19 -3 -25 8l-37 72q-9 15 4 18q76 27 111 74z" />
    <glyph glyph-name="uni021A" unicode="&#x21a;" horiz-adv-x="1126" 
d="M424 18v1137h-369q-18 0 -18 19v227q0 20 20 20h1014q19 0 19 -20v-227q0 -19 -19 -19h-369v-1137q0 -18 -18 -18h-242q-18 0 -18 18zM508 -309q-6 0 -8 2q-76 27 -76 123q0 60 36.5 97.5t96.5 37.5q56 0 92 -35.5t41 -91.5q12 -116 -63 -203q-72 -87 -172 -102
q-19 -3 -25 8l-37 72q-9 15 4 18q76 27 111 74z" />
    <glyph glyph-name="uni021B" unicode="&#x21b;" horiz-adv-x="692" 
d="M442 731v-264q0 -130 14 -171.5t58 -41.5q22 0 78 29q20 10 29 -9l63 -194q10 -23 -6 -33q-86 -68 -217 -65q-133 0 -209 88.5t-74 242.5v418h-121q-20 0 -20 19v208q0 21 20 21h121l2 293q0 20 19 20h223q20 0 20 -20v-293h185q20 0 20 -21v-208q0 -19 -20 -19h-185z
M313 -309q-6 0 -8 2q-76 27 -76 123q0 60 36.5 97.5t96.5 37.5q56 0 92.5 -35.5t41.5 -91.5q12 -115 -64 -203q-72 -87 -172 -102q-18 -3 -24 8l-37 72q-9 15 4 18q75 26 110 74z" />
    <glyph glyph-name="uni0237" unicode="&#x237;" horiz-adv-x="530" 
d="M180 -98v1067q0 20 21 20l225 -2q20 0 20 -20l3 -1098q0 -167 -83.5 -264.5t-230.5 -96.5q-153 0 -241 82q-14 14 -5 29l82 191q12 28 35 8q46 -37 90 -37q81 0 84 121z" />
    <glyph glyph-name="circumflex" unicode="&#x2c6;" horiz-adv-x="755" 
d="M49 1114l205 287q7 11 29 14h190q15 0 29 -14l203 -285q15 -18 -9 -18h-198q-15 0 -25 10l-96 149l-94 -147q-9 -12 -25 -12h-201q-21 0 -8 16z" />
    <glyph glyph-name="caron" unicode="&#x2c7;" horiz-adv-x="763" 
d="M63 1413h197q17 0 27 -10l94 -148l96 146q9 12 25 12h198q25 0 9 -16l-203 -285q-8 -14 -29 -14h-192q-19 0 -27 14l-205 283q-12 18 10 18z" />
    <glyph glyph-name="uni02C9" unicode="&#x2c9;" horiz-adv-x="665" 
d="M70 1425h526q20 0 20 -20v-135q0 -21 -20 -21h-526q-21 0 -21 21v135q0 20 21 20z" />
    <glyph glyph-name="breve" unicode="&#x2d8;" horiz-adv-x="692" 
d="M494 1419h131q18 0 18 -18q-4 -133 -86 -214t-213 -83q-128 2 -208.5 83t-86.5 214q0 18 19 18h131q17 0 20 -18q6 -55 40.5 -89t84.5 -34q54 0 89 34.5t40 88.5q3 18 21 18z" />
    <glyph glyph-name="dotaccent" unicode="&#x2d9;" horiz-adv-x="405" 
d="M201 1206q-60 0 -95.5 35.5t-35.5 95.5t35.5 94.5t95.5 34.5t93.5 -34.5t33.5 -94.5t-35 -95.5t-92 -35.5z" />
    <glyph glyph-name="ring" unicode="&#x2da;" horiz-adv-x="491" 
d="M244 1489q90 0 144 -53.5t54 -141.5q0 -91 -53.5 -143.5t-144.5 -52.5q-88 0 -141.5 54t-53.5 142t53.5 141.5t141.5 53.5zM178 1292q0 -30 21 -47.5t46.5 -17.5t46.5 17.5t21 47.5q0 31 -21 49t-46.5 18t-46.5 -18t-21 -49z" />
    <glyph glyph-name="ogonek" unicode="&#x2db;" horiz-adv-x="501" 
d="M463 -362q-29 -35 -83 -56.5t-110 -21.5q-103 1 -164 58t-61 144q0 68 66 160q8 11 27 30t41 39.5t26 24.5l55 45q39 31 51 43l88 -104q-118 -118 -143 -164q-40 -64 8 -98q48 -35 84 10q8 11 23 2l92 -90q8 -8 0 -22z" />
    <glyph glyph-name="tilde" unicode="&#x2dc;" horiz-adv-x="761" 
d="M154 1180q-12 -24 -27 -9l-70 74q-11 8 -8 21q29 85 86.5 136.5t118.5 51.5q38 0 69 -15.5t51 -37t38 -43.5t40 -37.5t48 -15.5q70 3 108 98q9 22 23 8l74 -76q9 -9 6 -18q-26 -86 -84 -138.5t-121 -52.5q-36 0 -67 15.5t-52 38t-40.5 45t-42 38t-46.5 15.5
q-69 -3 -104 -98z" />
    <glyph glyph-name="hungarumlaut" unicode="&#x2dd;" horiz-adv-x="753" 
d="M557 1501l137 -90q22 -13 6 -29l-208 -266q-14 -14 -27 -4l-90 66q-15 12 -6 26l159 287q9 20 29 10zM238 1501l143 -90q19 -13 6 -29l-211 -266q-8 -14 -24 -4l-93 64q-16 16 -8 28l160 289q12 17 27 8z" />
    <glyph glyph-name="uni0313" unicode="&#x313;" horiz-adv-x="454" 
d="M133 -309q-6 0 -8 2q-76 27 -76 123q0 60 36.5 97.5t96.5 37.5q56 0 92 -35.5t41 -91.5q12 -116 -63 -203q-72 -87 -172 -102q-19 -3 -25 8l-37 72q-9 15 5 18q75 26 110 74z" />
    <glyph glyph-name="uni0394" unicode="&#x394;" horiz-adv-x="1347" 
d="M729 1384l-541 -1364l-2 -2q-6 -18 -26 -18h-109q-29 0 -20 27l561 1372q9 20 29 20h106zM621 1419h106h-2q22 0 31 -20l559 -1368q9 -31 -21 -31h-92q-22 0 -28 20l-553 1364v35zM1210 0h-1063v135h1063v-135z" />
    <glyph glyph-name="uni03A9" unicode="&#x3a9;" horiz-adv-x="1632" 
d="M1380 283l176 2q7 0 16 -9.5t9 -17.5v-231q0 -8 -9 -17.5t-16 -9.5h-534q-21 0 -18 20v259q117 48 186 165q72 126 72 267q0 203 -123 329q-121 127 -322 127q-198 0 -325 -127q-123 -126 -123 -329q0 -141 77 -262q77 -116 201 -164v-265q-3 -20 -20 -20h-535
q-7 0 -14.5 8.5t-7.5 16.5v235q0 8 7.5 16.5t14.5 8.5h158q-162 177 -162 426q0 329 199 528q201 201 530 201q325 0 526 -201q200 -200 203 -528q-3 -250 -166 -428z" />
    <glyph glyph-name="uni03BC" unicode="&#x3bc;" horiz-adv-x="1150" 
d="M344 -465h-201q-32 0 -32 33v1388q0 23 22 23h225q21 0 21 -23v-487q0 -242 190 -242q86 0 142.5 69.5t62.5 203.5v456q0 23 21 23h225q20 0 20 -21v-938q0 -20 -20 -20h-186q-18 0 -21 20l-22 93q-120 -138 -318 -138q-53 0 -96 19v-426q0 -33 -33 -33z" />
    <glyph glyph-name="pi" unicode="&#x3c0;" horiz-adv-x="1105" 
d="M29 750v206q0 22 22 25h1004q22 -3 22 -25v-206q0 -23 -20 -23h-96v-707q0 -20 -19 -20h-213q-20 0 -20 20v707h-310v-707q0 -20 -18 -20h-215q-19 0 -19 20v707h-96q-22 0 -22 23z" />
    <glyph glyph-name="Wgrave" unicode="&#x1e80;" horiz-adv-x="1929" 
d="M420 16l-418 1385q-6 20 16 20h244q20 0 23 -18l266 -967l280 967q3 18 25 18h215q20 0 23 -18l284 -977l271 981q3 14 18 14h244q22 0 16 -20l-418 -1385q-6 -16 -24 -16h-207q-17 0 -23 16l-290 1053l-293 -1053q-3 -16 -21 -16h-211q-17 0 -20 16zM1065 1462l-393 191
q-24 12 -8 28l96 162q9 22 35 6l348 -266q12 -15 4 -29l-51 -86q-12 -15 -31 -6z" />
    <glyph glyph-name="wgrave" unicode="&#x1e81;" horiz-adv-x="1386" 
d="M332 0l-2 47l245 914q6 18 23 18h154q14 0 22 -11t4 -24l-231 -926q-6 -18 -25 -18h-190zM489 25l-8 -25h-192q-20 0 -23 16l-262 945q-6 18 12 18h256q20 0 23 -18zM932 0l-21 23l179 938q3 18 22 18h258q15 0 12 -21l-258 -940q-6 -18 -22 -18h-170zM1038 63l4 -63
h-182q-21 0 -24 18l-222 897q-9 61 -12 64h41h148q19 0 22 -18zM743 1040l-356 238q-22 16 -4 31l117 145q12 21 35 2l303 -307q14 -15 2 -27l-66 -80q-15 -12 -31 -2z" />
    <glyph glyph-name="Wacute" unicode="&#x1e82;" horiz-adv-x="1929" 
d="M420 16l-418 1385q-6 20 16 20h244q20 0 23 -18l266 -967l280 967q3 18 25 18h215q20 0 23 -18l284 -977l271 981q3 14 18 14h244q22 0 16 -20l-418 -1385q-6 -16 -24 -16h-207q-17 0 -23 16l-290 1053l-293 -1053q-3 -16 -21 -16h-211q-17 0 -20 16zM1090 1831l96 -160
q13 -22 -8 -31l-394 -190q-21 -9 -30 6l-54 88q-9 14 7 27l350 266q18 15 33 -6z" />
    <glyph glyph-name="wacute" unicode="&#x1e83;" horiz-adv-x="1386" 
d="M1100 0h-240q-18 0 -24 16l-144 578l-145 -578q-6 -16 -25 -16h-233q-20 0 -23 16l-262 942q-9 21 12 21h258q18 0 21 -18l123 -582l157 582q6 18 23 18h190q22 0 25 -18l158 -617l119 617q3 18 20 18h258q20 0 14 -21l-258 -942q-6 -16 -24 -16zM827 1456l117 -145
q15 -15 -2 -29l-358 -238q-17 -14 -31 3l-66 79q-11 11 2 27l306 303q17 20 32 0z" />
    <glyph glyph-name="Wdieresis" unicode="&#x1e84;" horiz-adv-x="1929" 
d="M420 16l-418 1385q-6 20 16 20h244q20 0 23 -18l266 -967l280 967q3 18 25 18h215q20 0 23 -18l284 -977l271 981q3 14 18 14h244q22 0 16 -20l-418 -1385q-6 -16 -24 -16h-207q-17 0 -23 16l-290 1053l-293 -1053q-3 -16 -21 -16h-211q-17 0 -20 16zM672 1632
q0 61 35 99q37 37 96 36.5t96 -38.5q37 -37 37 -97q0 -59 -37.5 -96t-95.5 -37q-61 0 -97 36.5t-34 96.5zM993 1632q0 61 36.5 98t96.5 37t97 -37.5t37 -97.5t-37 -96.5t-97 -36.5t-96.5 36.5t-36.5 96.5z" />
    <glyph glyph-name="wdieresis" unicode="&#x1e85;" horiz-adv-x="1386" 
d="M1100 0h-240q-18 0 -24 16l-144 578l-145 -578q-6 -16 -25 -16h-233q-20 0 -23 16l-262 942q-9 21 12 21h258q18 0 21 -18l123 -582l157 582q6 18 23 18h190q22 0 25 -18l158 -617l119 617q3 18 20 18h258q20 0 14 -21l-258 -942q-6 -16 -24 -16zM432 1130
q-35 37 -35 96.5t35 96.5q37 38 96.5 38t96.5 -38q37 -37 37 -96.5t-37 -96.5t-96.5 -37t-96.5 37zM756 1130q-37 37 -37 96.5t37 96.5q37 38 96 38t96 -38q38 -37 38 -96.5t-38 -96.5q-37 -37 -96 -37t-96 37z" />
    <glyph glyph-name="LatinCapitalLetterSharpS" unicode="&#x1e9e;" horiz-adv-x="1294" 
d="M711 260q53 -35 108 -35q53 1 82 28t29 62q0 41 -43 96.5t-105 104.5q-61 52 -104 124t-43 142t78 166q80 95 80 137q0 52 -40.5 80.5t-105.5 28.5q-118 0 -172 -85t-59 -275v-811q1 -10 -6 -16.5t-19 -6.5h-229q-27 0 -27 25v942q0 228 137 350q136 124 361 127
q186 -3 313 -98q125 -94 125 -261q3 -47 -24 -94.5t-61 -79.5t-63.5 -69t-31.5 -66q0 -31 33 -62t79.5 -63t93.5 -73t80 -108t33 -151q3 -165 -108 -270q-110 -104 -289 -104q-103 0 -207 55q-19 8 -10 33l86 219q9 18 29 8z" />
    <glyph glyph-name="endash" unicode="&#x2013;" horiz-adv-x="1185" 
d="M180 713h821q25 0 25 -25v-180q0 -25 -25 -25h-821q-24 0 -24 25v180q0 25 24 25z" />
    <glyph glyph-name="emdash" unicode="&#x2014;" horiz-adv-x="1730" 
d="M180 713h1370q25 0 25 -25v-182q0 -23 -25 -23h-1370q-24 0 -24 23v182q0 25 24 25z" />
    <glyph glyph-name="quoteleft" unicode="&#x2018;" horiz-adv-x="409" 
d="M289 1475l84 -70q16 -9 -2 -27q-124 -95 -154 -219h4q2 -2 4 -2q51 -10 80 -49t29 -96q0 -68 -41.5 -110t-108.5 -42q-63 0 -104 38t-45 101q-15 140 55 283q70 146 170 199q10 10 29 -6z" />
    <glyph glyph-name="quoteright" unicode="&#x2019;" horiz-adv-x="409" 
d="M119 872l-86 72q-16 10 2 25q123 94 153 221h-8q-108 27 -108 147q0 69 41 110.5t110 41.5q64 0 105 -38t45 -103q15 -132 -58 -283q-71 -145 -168 -199q-13 -9 -28 6z" />
    <glyph glyph-name="quotesinglbase" unicode="&#x201a;" horiz-adv-x="450" 
d="M143 -360l-86 69q-16 9 2 27q124 92 154 219h-2q-2 2 -4 2q-51 11 -81 49.5t-30 95.5q0 68 41.5 110t110.5 42q64 0 105 -38t42 -101q15 -140 -55 -283q-71 -147 -168 -199q-14 -8 -29 7z" />
    <glyph glyph-name="quotedblleft" unicode="&#x201c;" horiz-adv-x="753" 
d="M287 1475l86 -70q16 -9 -2 -27q-124 -92 -154 -219h2q2 -2 4 -2q51 -11 81 -49.5t30 -95.5q0 -68 -41.5 -110t-110.5 -42q-64 0 -105 38t-42 101q-15 140 55 283q71 147 168 199q14 9 29 -6zM559 1159h2l4 -2q51 -11 81 -49.5t30 -95.5q0 -68 -41.5 -110t-108.5 -42
q-63 0 -104 38t-45 101q-15 140 55 283q70 146 170 199q10 10 29 -6l84 -70q14 -8 -2 -27q-124 -95 -154 -219z" />
    <glyph glyph-name="quotedblright" unicode="&#x201d;" horiz-adv-x="768" 
d="M473 872l-86 70q-14 12 4 27q124 95 154 219h-4l-4 2q-51 11 -80.5 49.5t-28.5 95.5q0 68 41.5 110t108.5 42q64 0 105 -38t42 -101q15 -139 -55 -285q-73 -148 -168 -199q-15 -6 -29 8zM201 1188h-2q-2 2 -4 2q-51 11 -81 49.5t-30 95.5q0 68 41.5 110t110.5 42
q64 0 105 -38t42 -101q15 -139 -55 -285q-73 -148 -168 -199q-15 -6 -29 8l-86 70q-16 9 2 27q124 92 154 219z" />
    <glyph glyph-name="quotedblbase" unicode="&#x201e;" horiz-adv-x="794" 
d="M485 -367l-86 70q-14 12 4 27q124 95 154 219q-2 0 -4 2h-4q-51 11 -80.5 49.5t-28.5 95.5q0 68 41.5 110t108.5 42q64 0 105 -38t42 -101q15 -140 -55 -283q-72 -150 -168 -201q-15 -6 -29 8zM213 -51l-2 2h-4q-51 11 -81 49.5t-30 95.5q0 68 41.5 110t110.5 42
q64 0 105 -38t42 -101q15 -140 -55 -283q-72 -150 -168 -201q-15 -6 -29 8l-86 70q-16 9 2 27q124 92 154 219z" />
    <glyph glyph-name="dagger" unicode="&#x2020;" horiz-adv-x="868" 
d="M788 842h-223v-1047q0 -20 -20 -20h-221q-21 0 -21 20v1047h-225q-19 0 -19 18v227q0 19 19 19h225v352q0 21 21 21h221q20 0 20 -21v-352h223q21 0 21 -19v-227q0 -18 -21 -18z" />
    <glyph glyph-name="daggerdbl" unicode="&#x2021;" horiz-adv-x="868" 
d="M303 207h-225q-21 0 -21 18v226q0 20 21 20h225v371h-225q-19 0 -19 18v227q0 19 19 19h225v352q0 21 21 21h221q20 0 20 -21v-352h226q18 0 18 -19v-227q0 -18 -18 -18h-226v-371h223q21 0 21 -20v-226q0 -18 -21 -18h-223v-412q0 -20 -20 -20h-221q-21 0 -21 20v412z
" />
    <glyph glyph-name="bullet" unicode="&#x2022;" horiz-adv-x="768" 
d="M709 664q0 -146 -89 -236t-235 -90t-234 89.5t-88 236.5q0 146 87.5 232.5t234.5 86.5q146 0 235 -88t89 -231z" />
    <glyph glyph-name="ellipsis" unicode="&#x2026;" horiz-adv-x="1617" 
d="M1196 131q0 69 42 111.5t110 42.5t109.5 -42.5t41.5 -111.5q0 -67 -41.5 -109t-109.5 -42t-110 42t-42 109zM270 285q68 0 110 -42.5t42 -111.5q0 -67 -43 -109t-109 -42q-69 0 -110.5 42t-40.5 109q0 69 41 111.5t110 42.5zM811 -20q-69 0 -110.5 41.5t-41.5 109.5
q0 69 42 111.5t110 42.5t110 -42.5t42 -111.5q0 -67 -42 -109t-110 -42z" />
    <glyph glyph-name="perthousand" unicode="&#x2030;" horiz-adv-x="2418" 
d="M133 860q-100 100 -100 264q0 165 100 265t264 100q165 0 262 -100q101 -101 101 -265q0 -163 -101 -264q-98 -98 -262 -98q-163 0 -264 98zM270 1124q0 -56 35 -90.5t92 -34.5t91 34t34 91t-34 92t-91 35t-92 -35t-35 -92zM1225 217q57 0 92 34t35 91t-35 92t-92 35
t-91 -35t-34 -92t34.5 -91t90.5 -34zM963 78q-101 101 -101 264t101 264t264 101q164 0 262 -101q100 -100 100 -264t-100 -264q-98 -98 -262 -98q-163 0 -264 98zM1751 78q-100 100 -100 264t100 264q101 101 264 101q164 0 262 -101q101 -101 101 -264t-101 -264
q-98 -98 -262 -98q-163 0 -264 98zM1923 434q-35 -35 -35 -92t35 -92q35 -32 92.5 -32t89.5 32q35 35 35 92t-35 92q-32 35 -89.5 35t-92.5 -35zM283 29l811 1435q9 15 28 15h217q11 0 17 -8t2 -15l-813 -1442q-8 -14 -29 -14h-213q-36 0 -20 29z" />
    <glyph glyph-name="guilsinglleft" unicode="&#x2039;" horiz-adv-x="698" 
d="M469 922l113 -113q20 -21 2 -39l-219 -225l219 -226q21 -15 -2 -38l-113 -113q-25 -22 -43 0l-303 317q-17 17 -17 41v37q0 24 17 41l303 318q18 21 43 0z" />
    <glyph glyph-name="guilsinglright" unicode="&#x203a;" horiz-adv-x="698" 
d="M119 809l114 113q21 22 43 0l304 -318q16 -19 16 -41v-37q0 -22 -16 -41l-304 -317q-22 -22 -43 0l-114 113q-19 22 0 38l219 226l-219 225q-20 16 0 39z" />
    <glyph glyph-name="fraction" unicode="&#x2044;" horiz-adv-x="1081" 
d="M6 29l809 1435q9 15 29 15h217q12 0 16.5 -8.5t-0.5 -18.5l-811 -1438q-8 -14 -28 -14h-213q-38 0 -19 29z" />
    <glyph glyph-name="franc" unicode="&#x20a3;" horiz-adv-x="1024" 
d="M422 274v-251q0 -23 -21 -23h-237q-21 0 -21 20v254h-84q-20 0 -20 21v90q0 21 20 21h84v995q0 20 21 20h809q20 0 20 -20v-227q0 -19 -20 -19h-551v-299h452q21 0 21 -20v-222q0 -20 -21 -20h-452v-188h240q20 0 20 -21v-90q0 -21 -20 -21h-240z" />
    <glyph glyph-name="lira" unicode="&#x20a4;" horiz-adv-x="1069" 
d="M522 250h363q24 0 24 -23v-200q0 -27 -26 -27h-695q-10 0 -16.5 10.5t-1.5 18.5q100 221 125 364h-156q-24 0 -24 27v76q0 28 24 28h168q-3 62 -18 111h-148q-26 0 -26 27v75q0 29 26 29h92q-69 144 -69 278q3 173 119 283q116 113 290 113q226 0 373 -176q16 -16 -2 -33
l-151 -162q-17 -17 -35 4q-82 105 -187 105q-61 -1 -99 -39t-38 -95q0 -42 12 -86q21 -57 41 -100q28 -62 39 -92h211q12 1 19.5 -7t7.5 -22v-75q0 -27 -27 -27h-176q8 -39 8 -111h168q25 0 25 -28v-76q0 -14 -6.5 -21t-18.5 -6h-180q-12 -68 -35 -143z" />
    <glyph glyph-name="peseta" unicode="&#x20a7;" horiz-adv-x="2265" 
d="M604 530h-254v-510q0 -20 -20 -20h-238q-22 0 -22 20l2 1379q0 22 20 22h512q210 0 332 -125q122 -122 125 -319q-3 -197 -125 -322t-332 -125zM573 1155h-223v-356l225 -2q95 0 150 44.5t55 133.5q0 91 -56 136.5t-151 43.5zM1118 1292h223q21 0 21 -18v-295h184
q19 0 19 -21v-206q0 -21 -19 -21h-186v-264q0 -130 14 -171.5t60 -41.5q20 0 84 43q17 14 26 -4l60 -213q6 -23 -2 -31q-88 -70 -224 -67q-131 0 -206.5 88.5t-75.5 242.5l2 418h-123q-19 0 -19 21v206q0 21 19 21h123v293q0 20 20 20zM1436 88q-16 13 -6 29l90 182
q8 13 26 4q122 -67 230 -76q69 -6 118.5 11.5t49.5 46.5q0 22 -29 41q-7 6 -14.5 10.5t-18.5 9t-18.5 8t-23.5 8t-25 7.5t-32 9.5t-36 10.5q-1 0 -9.5 3t-13.5 3q-285 79 -294 293q-3 151 112 232q119 84 293 81q100 -1 192.5 -34t143.5 -72q15 -15 6 -31l-88 -168
q-15 -21 -35 -10q-112 58 -184 66q-70 10 -122 -8t-50 -50q0 -31 37 -50t133 -44q178 -39 259 -106.5t85 -192.5q3 -147 -105 -235q-110 -87 -282 -84q-131 0 -238 36q-114 39 -151 70z" />
    <glyph glyph-name="Euro" unicode="&#x20ac;" horiz-adv-x="1273" 
d="M940 422l193 -121q13 -10 4 -29q-63 -140 -169 -215t-239 -75q-171 0 -295.5 122t-171.5 336h-156q-24 0 -24 29v76q0 28 24 28h134q-7 79 -7 138v4h-127q-24 0 -24 28v76q0 29 24 29h134q27 271 159 430q131 162 330 162q142 0 253 -86.5t173 -245.5q9 -21 -8 -31
l-199 -121q-20 -14 -30 9q-39 112 -82.5 161.5t-108.5 49.5q-78 0 -133 -89t-72 -239h193q26 0 26 -29v-76q0 -28 -26 -28h-201v-4q0 -86 8 -138h193q26 0 26 -28v-76q0 -29 -26 -29h-168q26 -93 73 -144.5t107 -51.5q110 0 180 172q10 23 33 6z" />
    <glyph glyph-name="uni2113" unicode="&#x2113;" horiz-adv-x="919" 
d="M492 1440q144 0 243 -99q101 -94 101 -272q0 -310 -408 -541q0 -360 127 -360q35 0 72 47q8 13 27.5 50.5t21.5 41.5q3 9 20 6l185 -84q14 -8 8 -20q-108 -270 -332 -270q-318 0 -371 477l-57 -21q-20 -6 -27 11l-82 190q-9 24 11 27q68 20 141 47q-5 262 18 403
q61 366 302 367zM512 1190q-92 -30 -86 -379q136 95 154 203q18 64 13 106.5t-27 61t-54 8.5z" />
    <glyph glyph-name="trademark" unicode="&#x2122;" horiz-adv-x="1400" 
d="M668 1417h123q21 0 30 -18l152 -289l151 291q10 16 29 16l143 2q21 0 21 -22v-586q0 -20 -21 -20h-139q-22 0 -22 20l2 287l-103 -195q-9 -18 -28 -18h-56q-21 0 -30 18l-99 187v-279q0 -20 -20 -20h-144q-20 0 -20 20v575q0 14 9 23t22 8zM598 1401v-105q0 -20 -20 -20
h-154v-461q0 -20 -21 -20h-143q-20 0 -20 20v461h-152q-20 0 -20 18v105q0 22 20 22h490q20 0 20 -20z" />
    <glyph glyph-name="Omega" unicode="&#x2126;" horiz-adv-x="1652" 
d="M102 285h158q-164 182 -164 426q0 327 201 528q204 201 530 201t527 -201q200 -200 200 -528q0 -248 -165 -428l178 2q7 0 14.5 -9.5t7.5 -17.5v-231q0 -8 -7.5 -17.5t-14.5 -9.5h-535q-20 0 -20 20v259q119 47 188 165q72 126 72 267q0 203 -123 329q-124 127 -322 127
t-325 -127q-123 -126 -123 -329q0 -140 78 -262q78 -117 198 -164v-265q-3 -20 -18 -20h-535q-7 0 -15.5 8.5t-8.5 16.5v235q0 8 8.5 16.5t15.5 8.5z" />
    <glyph glyph-name="estimated" unicode="&#x212e;" horiz-adv-x="1824" 
d="M911 70q423 0 602 270q9 12 23 12h94q24 0 15 -20q-101 -180 -297 -283q-192 -98 -437 -98q-356 0 -589 205q-234 206 -234 555t234 555q235 204 589 204q358 0 590 -204q236 -205 236 -555v-25q3 -31 -29 -31h-1309v-417q186 -168 512 -168zM399 1184v-414h1024v414
q-186 168 -512 168t-512 -168z" />
    <glyph glyph-name="partialdiff" unicode="&#x2202;" horiz-adv-x="1103" 
d="M555 1438q432 0 432 -607q0 -244 -53 -444q-44 -183 -155.5 -292t-297.5 -113q-178 0 -286 120q-107 119 -107 304q0 180 115 307q117 126 297 123q171 0 248 -115q2 27 2 110q0 114 -17 193q-14 83 -58 127.5t-128 50.5q-81 0 -156 -57q-20 -10 -29 6l-108 166
q-9 16 6 31q122 90 295 90zM686 367q6 105 -40 169t-146 64q-79 0 -127.5 -53.5t-48.5 -140.5t42 -137t115 -50q137 0 205 148z" />
    <glyph glyph-name="increment" unicode="&#x2206;" horiz-adv-x="1347" 
d="M823 1399l502 -1370q10 -29 -20 -29h-1266q-28 0 -19 27l498 1374q9 18 31 18h244q27 0 30 -20zM403 260l564 -2l-289 793z" />
    <glyph glyph-name="product" unicode="&#x220f;" horiz-adv-x="1271" 
d="M879 -250v1323h-502v-1323q0 -22 -21 -22h-229q-21 0 -21 22v1573q0 20 21 20h1001q21 0 21 -20v-1573q0 -22 -21 -22h-229q-20 0 -20 22z" />
    <glyph glyph-name="summation" unicode="&#x2211;" horiz-adv-x="1236" 
d="M86 -244l485 779l-487 780q-16 28 16 28h1030q23 0 23 -24v-223q0 -23 -23 -23h-532l344 -522q13 -17 0 -33l-340 -518h528q10 1 16.5 -5.5t6.5 -17.5v-227q0 -27 -25 -24h-1028q-35 0 -14 30z" />
    <glyph glyph-name="minus" unicode="&#x2212;" horiz-adv-x="1185" 
d="M147 713h891q27 -3 27 -25v-180q0 -25 -27 -25h-891q-24 0 -24 25v180q0 22 24 25z" />
    <glyph glyph-name="uni2215" unicode="&#x2215;" horiz-adv-x="1081" 
d="M6 29l809 1435q9 15 29 15h219q12 0 16 -8.5t-2 -18.5l-811 -1438q-8 -14 -28 -14h-213q-38 0 -19 29z" />
    <glyph glyph-name="uni2219" unicode="&#x2219;" horiz-adv-x="538" 
d="M92 518q0 82 49 132t131 50q79 0 129 -50.5t50 -131.5q0 -78 -50.5 -128t-128.5 -50q-80 0 -130 49.5t-50 128.5z" />
    <glyph glyph-name="radical" unicode="&#x221a;" horiz-adv-x="1146" 
d="M420 20l-168 642h-186q-27 0 -27 26v191q0 12 8 20t19 8h364q22 0 25 -18l129 -486l315 1055q6 21 29 21h209q20 0 14 -21l-428 -1438q-6 -20 -27 -20h-247q-23 0 -29 20z" />
    <glyph glyph-name="infinity" unicode="&#x221e;" horiz-adv-x="1884" 
d="M942 674q153 203 395 203q197 0 318 -121t121 -318q0 -196 -121 -317t-318 -121q-236 0 -395 203q-159 -203 -395 -203q-197 0 -318 121q-120 120 -120 317q0 198 120 318q121 121 318 121q242 0 395 -203zM547 631q-86 0 -139.5 -53.5t-53.5 -139.5q0 -87 53 -139.5
t140 -52.5q180 0 262 190q-43 95 -112.5 145t-149.5 50zM1075 436q82 -190 262 -190q87 0 140 52.5t53 139.5q0 86 -53.5 139.5t-139.5 53.5q-80 0 -149.5 -50t-112.5 -145z" />
    <glyph glyph-name="integral" unicode="&#x222b;" horiz-adv-x="815" 
d="M852 1378l-109 -172q-9 -15 -24 -6q-1 1 -17 13t-25 17.5t-24.5 12t-27.5 6.5q-79 0 -76 -133v-594l6 -655q6 -351 -342 -354q-62 0 -128 24t-103 53q-14 9 -5 27l111 170q9 15 25 6q48 -31 84 -31q48 0 67 32.5t19 101.5l-2 593l-5 676q-1 162 82.5 247t229.5 87
q140 0 262 -96q12 -12 2 -25z" />
    <glyph glyph-name="approxequal" unicode="&#x2248;" horiz-adv-x="1220" 
d="M860 883l27 63q4 13 16 16t19 -8l122 -129q18 -14 9 -34q-38 -114 -117 -186.5t-178 -72.5q-65 0 -128.5 28.5t-103.5 68.5q-96 96 -149 96q-39 0 -68 -43q-2 -4 -17 -31.5t-24.5 -47.5t-15.5 -38q-15 -22 -33 -4l-123 129q-14 14 -8 39q39 108 118 175t177 67
q67 0 128.5 -28t100.5 -69q94 -94 152 -92q23 0 39 11.5t33 42.5q22 43 24 47zM885 465q14 32 35 8l124 -127q18 -18 9 -35q-38 -114 -117 -187t-178 -73q-67 0 -130 28t-104 68q-93 97 -147 97q-15 0 -29 -7.5t-23.5 -16.5t-21 -28t-18 -32t-18 -38.5t-17.5 -37.5
q-9 -20 -31 -4l-123 131q-17 17 -8 39q39 108 118 175t177 67q68 0 130 -28.5t97 -68.5q94 -94 154 -94q27 0 53 29q8 10 14.5 19.5t10.5 16t10 19.5t9 20t11 27.5t13 32.5z" />
    <glyph glyph-name="notequal" unicode="&#x2260;" horiz-adv-x="1073" 
d="M774 895h150q26 0 26 -27v-170q0 -26 -26 -26h-248l-64 -150h312q26 0 26 -26v-170q0 -27 -26 -27h-408l-61 -139q-3 -15 -23 -15h-192q-26 0 -17 25l56 129h-129q-27 0 -27 27v170q0 26 27 26h225l65 150h-290q-27 0 -27 26v170q0 27 27 27h387l61 143q7 17 25 17h192
q25 0 16 -25z" />
    <glyph glyph-name="lessequal" unicode="&#x2264;" horiz-adv-x="1107" 
d="M999 305l-903 316q-18 6 -18 34v254q0 27 18 33l903 299q27 6 27 -18v-234q0 -27 -18 -33l-576 -178l576 -188q18 -6 18 -33v-233q0 -25 -27 -19zM1010 -2h-912q-20 0 -20 20v197q0 21 20 21h912q20 0 20 -21v-197q0 -20 -20 -20z" />
    <glyph glyph-name="greaterequal" unicode="&#x2265;" horiz-adv-x="1107" 
d="M1012 621l-903 -316q-12 -2 -19 3.5t-6 15.5v233q0 27 16 33l576 188l-576 178q-16 6 -16 33v234q-2 12 5.5 17t19.5 1l903 -299q18 -6 18 -33v-254q0 -28 -18 -34zM1010 -2h-912q-20 0 -20 20v197q0 21 20 21h912q20 0 20 -21v-197q0 -20 -20 -20z" />
    <glyph glyph-name="uni24C5" unicode="&#x24c5;" horiz-adv-x="1691" 
d="M104 709q0 331 199 530q201 201 531 201q329 0 530 -201t201 -530t-203 -529q-200 -200 -528 -200q-329 0 -529 200q-201 201 -201 529zM1405 709q0 255 -158 413q-156 156 -413 156q-254 0 -412 -158q-156 -156 -156 -411q0 -254 156 -410t412 -156t413 154
q158 158 158 412zM575 356v721q0 25 27 25h197h133q115 0 181.5 -65t68.5 -175q-2 -111 -69 -179.5t-181 -68.5h-133v-262q0 -26 -31 -26h-162q-31 0 -31 30zM911 907h-112v-114h112q64 0 64 59q0 55 -64 55z" />
    <glyph glyph-name="lozenge" unicode="&#x25ca;" horiz-adv-x="1075" 
d="M317 -66l-274 713q-6 21 0 39l274 715q9 18 33 18h78h199h80q23 0 32 -18l273 -715q10 -16 0 -39l-275 -713q-9 -20 -28 -20h-80h-201h-80q-22 0 -31 20zM528 1204l-198 -536l198 -537l199 537z" />
    <glyph glyph-name="ijacute" unicode="&#xe132;" horiz-adv-x="956" 
d="M596 979h225q21 0 21 -21l2 -1087q0 -167 -82.5 -262.5t-229.5 -95.5q-144 0 -237 84q-16 10 -6 26l82 189q12 24 37 8q41 -35 86 -35q41 -2 62 27t22 92l-3 1054q0 21 21 21zM135 979h225q19 0 19 -18v-941q0 -20 -21 -20h-225q-20 0 -20 20v938q0 21 22 21zM59 1143
l306 305q17 17 32 0l119 -145q16 -16 -4 -31l-358 -238q-19 -10 -31 2l-66 80q-9 16 2 27zM864 1446l119 -146q16 -16 -4 -30l-358 -236q-18 -15 -31 2l-66 78q-9 16 4 29l303 305q17 14 33 -2z" />
    <glyph glyph-name="IJacute" unicode="&#xe133;" horiz-adv-x="1292" 
d="M422 1401v-1383q0 -18 -21 -18h-239q-21 0 -21 18v1383q0 20 21 20h239q21 0 21 -20zM926 463v938q0 20 18 20h240q20 0 20 -20l2 -995q1 -203 -89 -313.5t-255 -112.5q-217 3 -354 116q-14 14 -4 31l110 199q16 22 35 8q3 -1 16 -8.5t32 -18t30 -16.5q69 -31 104 -31
q55 0 74 42.5t21 160.5zM1214 1821l97 -162q16 -19 -8 -29l-394 -192q-21 -9 -30 6l-54 88q-10 17 6 27l351 266q17 17 32 -4zM446 1821l97 -162q16 -19 -8 -29l-394 -192q-20 -9 -30 8l-54 86q-10 17 6 27l351 266q17 17 32 -4z" />
    <glyph glyph-name="_1" horiz-adv-x="0" 
 />
    <glyph glyph-name="CR" horiz-adv-x="681" 
 />
    <glyph glyph-name="grave.case" horiz-adv-x="591" 
d="M47 1647l98 161q10 20 33 4l348 -266q15 -12 6 -26l-53 -88q-9 -16 -30 -7l-394 193q-24 10 -8 29z" />
    <glyph glyph-name="dieresis.case" horiz-adv-x="716" 
d="M195 1747q57 2 95 -35.5t38 -97.5t-36.5 -96.5t-96.5 -36.5t-97 36.5t-37 96.5t37 96.5t97 36.5zM518 1747q60 1 96.5 -36t36.5 -97t-36.5 -96.5t-96.5 -36.5t-96.5 36.5t-36.5 96.5t36.5 96.5t96.5 36.5z" />
    <glyph glyph-name="macron.case" horiz-adv-x="657" 
d="M66 1679h526q20 0 20 -20v-143q0 -21 -20 -21h-526q-21 0 -21 21v143q0 20 21 20z" />
    <glyph glyph-name="acute.case" horiz-adv-x="591" 
d="M428 1810l96 -159q15 -18 -8 -31l-393 -190q-20 -10 -29 6l-55 88q-10 16 6 26l350 267q21 15 33 -7z" />
    <glyph glyph-name="circumflex.case" horiz-adv-x="811" 
d="M512 1511l-106 97l-109 -97q-17 -10 -25 -10h-221q-27 0 -8 19l242 223q17 14 30 14h179q16 0 30 -14l242 -223q10 -8 6.5 -13.5t-14.5 -5.5h-219q-10 0 -27 10z" />
    <glyph glyph-name="caron.case" horiz-adv-x="811" 
d="M297 1745l109 -96l106 96q12 12 27 12h219q28 0 8 -20l-242 -224q-12 -12 -30 -12h-179q-15 0 -30 12l-240 224q-9 6 -6.5 13t14.5 7h219q10 0 25 -12z" />
    <glyph glyph-name="breve.case" horiz-adv-x="681" 
d="M487 1755l131 2q11 0 15.5 -4.5t3.5 -13.5q-4 -126 -83 -195t-214 -69q-132 0 -210.5 69t-84.5 195q-3 18 18 18h132q17 0 20 -18q5 -42 40.5 -70.5t84.5 -28.5q50 0 87 29t42 68q0 18 18 18z" />
    <glyph glyph-name="dotaccent.case" horiz-adv-x="430" 
d="M80 1628q0 57 35 92q37 37 96 37t94 -35t35 -94q0 -60 -36 -95.5t-93 -35.5q-60 0 -95.5 35.5t-35.5 95.5z" />
    <glyph glyph-name="ring.case" horiz-adv-x="479" 
d="M43 1651q0 88 54.5 142t142.5 54t142 -54t54 -142q0 -90 -54 -143.5t-142 -53.5t-142.5 53.5t-54.5 143.5zM160 1651q0 -37 22.5 -59.5t57.5 -22.5q37 0 59.5 22.5t22.5 59.5q0 35 -22.5 57.5t-59.5 22.5q-35 0 -57.5 -22.5t-22.5 -57.5z" />
    <glyph glyph-name="tilde.case" horiz-adv-x="751" 
d="M147 1501q-9 -22 -26 -8l-68 74q-11 11 -8 22q29 84 86.5 136.5t116.5 52.5q38 0 69.5 -15.5t52 -38t39 -45t40.5 -38t47 -15.5q71 3 106 98q9 25 25 9l71 -74q11 -15 9 -21q-29 -85 -86 -136.5t-119 -51.5q-33 -2 -64 14t-54 39t-44.5 46t-43.5 38t-42 12
q-73 0 -107 -98z" />
    <glyph glyph-name="hungarumlaut.case" horiz-adv-x="737" 
d="M549 1810l135 -94q22 -12 6 -28l-207 -252q-9 -14 -26 -4l-88 67q-19 10 -9 27l158 276q17 17 31 8zM229 1810l144 -94q15 -15 4 -26l-207 -254q-12 -16 -27 -4l-90 65q-16 16 -8 29l158 276q9 18 26 8z" />
    <glyph glyph-name="zero.onum" horiz-adv-x="1204" 
d="M68 492q0 228 147 366q147 141 389 141q241 0 385 -141q148 -139 148 -366q0 -231 -148 -373q-145 -139 -385 -139q-242 0 -389 141t-147 371zM352 492q0 -104 70 -169t182 -65q110 0 179 65t69 169q0 102 -68.5 164.5t-179.5 62.5q-115 0 -183.5 -62t-68.5 -165z" />
    <glyph glyph-name="one.onum" horiz-adv-x="931" 
d="M82 799l262 180h264q21 0 21 -21l2 -737h221q22 0 22 -22v-176q0 -23 -22 -23h-764q-22 0 -22 23v176q0 22 22 22h256v504l-248 -172q-14 -8 -20 -4.5t-6 20.5v207q0 17 12 23z" />
    <glyph glyph-name="two.onum" horiz-adv-x="1028" 
d="M936 0h-854q-20 0 -25.5 16.5t11.5 28.5l503 434q77 68 95 101q13 29 10 53q-6 92 -146 92q-130 0 -225 -123q-15 -15 -31 -2l-153 178q-17 17 -2 35q71 87 182.5 137.5t243.5 50.5q180 0 290.5 -84.5t118.5 -220.5q9 -203 -153 -340q0 -1 -158 -135h293q25 0 25 -22
v-176q0 -23 -25 -23z" />
    <glyph glyph-name="three.onum" horiz-adv-x="1038" 
d="M434 272q-22 0 -22 23v237l157 166h-422q-22 0 -22 23v237q0 21 22 21h734q22 0 22 -21l-2 -260l-207 -221q131 -55 204 -154.5t73 -228.5q0 -191 -125 -307q-123 -117 -324 -117q-193 0 -319 123q-126 120 -135 320q0 22 22 22h242q22 0 22 -22q5 -72 51.5 -116
t118.5 -44t116 39t44 102q0 175 -250 178z" />
    <glyph glyph-name="four.onum" horiz-adv-x="1218" 
d="M702 979h304q22 0 22 -21v-737h105q22 0 22 -22v-174q0 -23 -22 -23h-105v-287q0 -22 -22 -22h-240q-21 0 -21 22v287h-704q-16 0 -20 10.5t4 22.5l643 928q13 16 34 16zM745 221v426l-299 -426h299z" />
    <glyph glyph-name="five.onum" horiz-adv-x="1087" 
d="M569 588q200 0 326 -129q125 -128 125 -330q0 -205 -133 -332t-348 -127q-200 0 -332 123q-130 121 -139 322q0 22 22 22h242q22 0 22 -22q4 -72 56.5 -117t130.5 -45q85 0 138.5 51t53.5 133q0 86 -50 138.5t-132 52.5q-86 0 -184 -52h-220q-22 0 -22 23l39 659
q0 23 24 23h689q24 0 24 -23v-227q0 -22 -24 -22h-486l-8 -154q85 33 186 33z" />
    <glyph glyph-name="six.onum" horiz-adv-x="1042" 
d="M532 1296h238q17 0 21.5 -8t-3.5 -20l-241 -410l28 4q182 -18 291 -139t109 -301q0 -191 -127 -318t-326 -127q-203 0 -329 123q-125 125 -125 324q0 142 77 260l353 592q9 20 34 20zM692 426q0 74 -47.5 121t-122.5 47t-121.5 -46.5t-46.5 -121.5q0 -73 46.5 -118.5
t121.5 -45.5t122.5 46t47.5 118z" />
    <glyph glyph-name="seven.onum" horiz-adv-x="997" 
d="M594 707h-531q-22 0 -22 22v227q0 23 22 23h889q14 0 22.5 -11t4.5 -24l-471 -1231q-9 -20 -31 -20h-248q-8 0 -14 8.5t-2 15.5z" />
    <glyph glyph-name="eight.onum" horiz-adv-x="1087" 
d="M68 410q0 191 163 311q-73 85 -73 215q0 170 110 274q113 107 277 107t274 -107q111 -108 111 -274q0 -132 -74 -215q164 -120 164 -311q0 -181 -133 -308q-131 -122 -342 -122q-213 0 -344 122q-133 127 -133 308zM354 424q0 -72 53.5 -117t139.5 -45q82 0 134 45
t52 117q0 78 -51 122t-137 44t-138.5 -44.5t-52.5 -121.5zM422 936q0 -54 33.5 -86.5t89.5 -32.5q54 0 87.5 32.5t33.5 86.5q0 51 -33.5 83t-87.5 32q-55 0 -89 -32t-34 -83z" />
    <glyph glyph-name="nine.onum" horiz-adv-x="1042" 
d="M512 -313h-240q-35 0 -16 28l240 410q-6 -2 -27 -2q-178 15 -291 137q-110 122 -110 299q0 195 125 320q127 127 327 127q204 0 330 -123q125 -122 125 -324q0 -141 -76 -260l-352 -592q-14 -20 -35 -20zM352 557q0 -74 46.5 -121t121.5 -47t122.5 46.5t47.5 121.5
q0 73 -47.5 118.5t-122.5 45.5q-74 0 -121 -46t-47 -118z" />
    <glyph glyph-name="zero.numr" horiz-adv-x="780" 
d="M135 629q-96 134 -96 342q0 209 96 340q99 129 256 129q159 0 254 -129q96 -131 96 -340q0 -208 -96 -342q-95 -129 -254 -129q-157 0 -256 129zM391 717q60 0 96.5 69.5t36.5 184.5q0 113 -36.5 182.5t-96.5 69.5q-62 0 -98.5 -68.5t-36.5 -183.5q0 -116 37 -185t98 -69
z" />
    <glyph glyph-name="one.numr" horiz-adv-x="442" 
d="M131 545v659h-84q-24 0 -24 25l-3 168q0 24 23 24h299q25 0 25 -24v-852q0 -27 -25 -27h-184q-27 0 -27 27z" />
    <glyph glyph-name="two.numr" horiz-adv-x="712" 
d="M612 520h-534q-19 2 -26.5 15t3.5 30l314 467q10 10 34 58q19 38 19 73q0 27 -19 44.5t-51 17.5q-69 0 -119 -62q-12 -12 -26 2l-111 129q-10 13 0 23q107 125 283 125q122 0 193 -71.5t71 -190.5q0 -45 -18 -115q-2 -16 -17 -49q-12 -31 -35 -70l-12 -24l-129 -189h180
q19 0 19 -18v-172q3 -23 -19 -23z" />
    <glyph glyph-name="three.numr" horiz-adv-x="706" 
d="M258 932v123q0 20 21 20h51q82 3 82 90q0 32 -22 54t-54 22q-63 0 -121 -55q-15 -15 -25 -2l-96 116q-9 16 0 25q103 115 268 115q123 0 201 -69t78 -175q0 -121 -84 -205q111 -64 111 -215q0 -123 -87.5 -199.5t-228.5 -76.5q-136 0 -222.5 78t-92.5 206q-3 21 18 21
h178q17 0 17 -17q-1 -44 48.5 -63t98 4.5t43.5 81.5q0 94 -94 100h-67q-21 0 -21 21z" />
    <glyph glyph-name="four.numr" horiz-adv-x="788" 
d="M274 854h168v320zM776 834v-134q0 -20 -20 -20h-78v-135q0 -27 -25 -27h-188q-26 0 -23 25v137h-407q-43 0 -25 35l359 686q9 18 30 18h256q20 -3 23 -20v-545h76q22 -3 22 -20z" />
    <glyph glyph-name="five.numr" horiz-adv-x="745" 
d="M274 793q24 -76 107 -76q48 0 75.5 30.5t26.5 83.5q1 48 -32 75.5t-80 27.5q-26 0 -78 -21h-191q-12 0 -12 13l33 481q0 14 14 14h473q13 0 13 -14v-186q0 -15 -13 -15h-297l-8 -116q40 12 72 12q146 0 233.5 -76.5t89.5 -204.5q0 -146 -88.5 -233.5t-234.5 -87.5
q-139 0 -227.5 81.5t-94.5 215.5q0 14 13 14h190q13 0 16 -18z" />
    <glyph glyph-name="six.numr" horiz-adv-x="739" 
d="M315 1421l201 -2q18 0 12 -16l-135 -285h17q128 -11 204 -94t76 -213q0 -139 -88 -225t-231 -86t-232.5 86t-89.5 225q0 79 31 139l217 459q3 12 18 12zM266 809q0 -44 29 -72t76 -28t74.5 27.5t27.5 72.5q0 47 -27.5 74.5t-74.5 27.5q-48 0 -76.5 -27.5t-28.5 -74.5z
" />
    <glyph glyph-name="seven.numr" horiz-adv-x="638" 
d="M342 1204h-315q-13 0 -13 15v188q0 14 13 14h598q23 0 14 -22l-328 -869q-7 -10 -14 -10h-203q-13 0 -10 15z" />
    <glyph glyph-name="eight.numr" horiz-adv-x="774" 
d="M305 1157q-5 -50 38.5 -71t87 0t38.5 71q0 39 -25.5 61t-56.5 22t-56.5 -22t-25.5 -61zM274 809q0 -39 32.5 -65.5t82.5 -26.5q49 0 80 26.5t31 65.5q0 41 -32 68.5t-81 27.5t-81 -27.5t-32 -68.5zM57 801q0 119 99 196q-68 68 -68 162q0 127 82 204t217 77t217 -77
t82 -204q0 -96 -68 -164q99 -77 99 -194q0 -134 -91.5 -217.5t-238.5 -83.5q-148 0 -239 83t-91 218z" />
    <glyph glyph-name="nine.numr" horiz-adv-x="739" 
d="M328 821q-129 12 -206 95t-77 212q0 141 88.5 227.5t231.5 86.5q146 0 233.5 -86.5t87.5 -227.5q0 -70 -29 -139l-217 -457q-6 -12 -20 -12h-201q-19 0 -10 19l133 284q-2 -2 -14 -2zM469 1133q0 44 -29 72t-73 28q-34 4 -60.5 -14.5t-37 -46.5t-5.5 -60t27 -53t54.5 -26
t61 4.5t47.5 35.5t15 60z" />
    <glyph glyph-name="zero.dnom" horiz-adv-x="780" 
d="M135 109q-96 134 -96 342q0 209 96 340q99 129 256 129q159 0 254 -129q96 -131 96 -340q0 -208 -96 -342q-95 -129 -254 -129q-157 0 -256 129zM391 197q60 0 96.5 69.5t36.5 184.5q0 113 -36.5 182t-96.5 69q-62 0 -98.5 -68t-36.5 -183q0 -116 37 -185t98 -69z" />
    <glyph glyph-name="one.dnom" horiz-adv-x="442" 
d="M45 901h299q23 0 23 -22l2 -854q0 -28 -27 -25h-184q-27 -3 -27 25v659h-84q-24 0 -24 25l-3 168q0 24 25 24z" />
    <glyph glyph-name="two.dnom" horiz-adv-x="712" 
d="M272 0h-194q-45 3 -23 45l111 172q73 112 141 205l62 90q56 95 53 131q0 27 -19 44.5t-51 17.5q-69 0 -119 -62q-12 -12 -26 2l-111 129q-10 13 0 23q107 125 283 125q122 0 193 -72t71 -191q0 -44 -18 -114q-2 -16 -17 -49q-12 -31 -35 -70l-12 -25l-123 -188h174
q19 0 19 -18v-172q3 -23 -19 -23h-317h-23z" />
    <glyph glyph-name="three.dnom" horiz-adv-x="706" 
d="M254 412v123q0 20 20 20h52q82 3 82 90q0 32 -22 54t-54 22q-65 0 -123 -55q-13 -16 -23 0l-96 114q-9 16 0 25q95 115 268 115q122 0 199.5 -69t77.5 -175q0 -123 -82 -205q111 -65 111 -215q0 -123 -87.5 -199.5t-228.5 -76.5q-136 0 -222.5 78t-92.5 206q-3 21 18 21
h178q17 0 17 -17q0 -44 49.5 -63t97 4.5t41.5 81.5q0 94 -92 100h-68q-23 0 -20 21z" />
    <glyph glyph-name="four.dnom" horiz-adv-x="788" 
d="M274 336h168v319zM776 315v-133q0 -20 -20 -20h-78v-135q0 -27 -25 -27h-188q-26 0 -23 25v137h-407q-43 0 -25 35l359 686q9 18 30 18h256q20 -3 23 -20v-545h76q22 -3 22 -21z" />
    <glyph glyph-name="five.dnom" horiz-adv-x="745" 
d="M258 272q24 -75 107 -75q48 0 75.5 30.5t26.5 83.5q1 48 -32 75.5t-81 27.5q-26 0 -78 -21h-190q-12 0 -12 13l32 481q0 14 15 14h473q12 0 12 -14v-187q0 -14 -12 -14h-297l-8 -117q44 13 71 13q146 0 234 -76.5t90 -204.5q0 -146 -88.5 -233.5t-235.5 -87.5
q-139 0 -227 81t-94 215q0 15 12 15h191q13 0 16 -19z" />
    <glyph glyph-name="six.dnom" horiz-adv-x="739" 
d="M313 901l203 -2q16 0 10 -16l-135 -285h17q128 -11 204 -94t76 -213q0 -139 -88 -225t-231 -86t-232.5 86t-89.5 225q0 69 31 139l217 459q9 12 18 12zM264 289q0 -45 29 -73t76 -28t74.5 28t27.5 73q0 47 -28.5 74.5t-73.5 27.5q-48 0 -76.5 -27.5t-28.5 -74.5z" />
    <glyph glyph-name="seven.dnom" horiz-adv-x="638" 
d="M342 686h-315q-13 0 -13 14v189q0 12 13 12h598q23 0 14 -20l-328 -871q-8 -8 -14 -8h-203q-13 0 -10 14z" />
    <glyph glyph-name="eight.dnom" horiz-adv-x="774" 
d="M305 635q-5 -50 38.5 -71t87 0t38.5 71q0 39 -25.5 61t-56.5 22t-56.5 -22t-25.5 -61zM274 287q0 -39 32.5 -65.5t82.5 -26.5q49 0 80 26.5t31 65.5q0 41 -32 68.5t-81 27.5t-81 -27.5t-32 -68.5zM57 279q0 119 99 196q-68 68 -68 162q0 127 82 204t217 77t217 -77
t82 -204q0 -96 -68 -164q99 -77 99 -194q0 -134 -91.5 -218t-238.5 -84q-148 0 -239 83.5t-91 218.5z" />
    <glyph glyph-name="nine.dnom" horiz-adv-x="739" 
d="M330 301q-129 12 -206 95t-77 212q0 141 88.5 227.5t231.5 86.5q146 0 233.5 -86.5t87.5 -227.5q0 -70 -29 -139l-217 -457q-6 -12 -20 -12h-201q-19 0 -10 18l133 285q-2 -2 -14 -2zM471 612q0 44 -29 72.5t-73 28.5q-34 4 -60.5 -14.5t-37 -46.5t-5.5 -60t27 -53
t54.5 -26.5t61 4.5t47.5 35.5t15 59.5z" />
    <glyph glyph-name="zero.tnum" 
d="M1143 711q0 -329 -146 -531q-143 -198 -381 -198q-239 0 -383 200q-145 201 -145 529q0 327 145 528t383 201q236 0 381 -201q146 -202 146 -528zM367 711q0 -204 68 -327.5t181 -123.5q110 0 178 124.5t68 326.5t-68 326t-178 124q-112 0 -180.5 -123.5t-68.5 -326.5z
" />
    <glyph glyph-name="one.tnum" 
d="M264 1180v219q0 22 21 22h452q21 0 21 -22v-1168h243q23 0 23 -22v-184q0 -25 -25 -25h-772q-22 0 -22 23v186q0 22 24 22h250v928h-194q-21 0 -21 21z" />
    <glyph glyph-name="two.tnum" 
d="M1012 791l-25 -41l-354 -488h420q24 0 24 -24v-218q0 -20 -22 -20h-606h-78h-209q-13 0 -18 12t3 23l580 790q90 122 90 203q-2 65 -44.5 108t-117.5 42q-106 0 -221 -142q-16 -16 -37 8l-139 150q-15 15 6 41q163 205 422 205q171 0 285 -105q116 -104 116 -295
q0 -61 -23.5 -133.5t-51.5 -115.5z" />
    <glyph glyph-name="three.tnum" 
d="M532 854h89q62 0 107.5 48.5t45.5 115.5q0 63 -45.5 103t-118.5 40q-107 0 -217 -131q-15 -16 -31 0l-151 178q-15 16 0 31q165 201 418 201q177 0 299 -107q125 -107 125 -276q0 -186 -138 -312q183 -112 183 -321q0 -197 -140 -328q-138 -129 -344 -129
q-204 0 -340 121q-132 123 -141 322q0 20 21 20h233q23 0 23 -18q5 -74 62.5 -120t145.5 -46q90 0 144.5 52.5t54.5 139.5q0 82 -48 136.5t-126 60.5h-111q-20 0 -20 20v179q0 20 20 20z" />
    <glyph glyph-name="four.tnum" 
d="M1028 543h131q21 0 21 -21v-196q0 -21 -21 -21h-131v-285q3 -20 -20 -20h-238q-20 0 -20 20v285h-426h-64h-186q-30 0 -15 27l648 1071q9 18 30 18h271q20 -3 20 -22v-856zM750 543v469l-283 -469h283z" />
    <glyph glyph-name="five.tnum" 
d="M965 1159h-451l-22 -287q72 29 143 29q203 0 330 -121q125 -119 125 -327q0 -218 -132 -353q-133 -133 -344 -133q-203 0 -335 117q-129 117 -138 309q0 21 21 21h233q23 0 23 -21q5 -69 58.5 -112t137.5 -43q88 0 143.5 59.5t55.5 155.5q0 94 -56 152.5t-149 58.5
t-139 -52h-256q-23 0 -20 21l63 766q3 22 25 22h684q20 0 20 -22v-219q0 -21 -20 -21z" />
    <glyph glyph-name="six.tnum" 
d="M1085 451q0 -216 -129 -345q-126 -129 -340 -129q-212 0 -344 129q-129 132 -129 343q0 102 33 190q53 130 105 242l133 282l114 238q6 20 29 20h238q34 0 18 -28l-223 -484q36 4 41 4q206 -6 330 -133q124 -124 124 -329zM614 643q-86 0 -139 -53t-53 -141t53 -141.5
t139 -53.5t139.5 53.5t53.5 141.5t-52.5 141t-140.5 53z" />
    <glyph glyph-name="seven.tnum" 
d="M174 1421h873q35 0 20 -35l-516 -1366q-6 -20 -29 -20h-252q-18 0 -12 20l436 1139h-520q-22 0 -22 21v219q0 22 22 22z" />
    <glyph glyph-name="eight.tnum" 
d="M1036 1032q0 -178 -135 -280q184 -114 184 -328q0 -202 -131 -324q-129 -120 -340 -120q-212 0 -344 120q-129 123 -129 324q0 214 185 328q-136 109 -136 280q0 184 117 295q116 113 307 113t306.5 -112t115.5 -296zM817 438q0 84 -57.5 138.5t-145.5 54.5
q-86 0 -144 -55.5t-58 -137.5q0 -80 58 -134t144 -54t144.5 54t58.5 134zM453 1036q0 -75 43.5 -118.5t117.5 -43.5q71 0 115 44q45 45 45 118q0 75 -43 115q-43 43 -117 43t-117.5 -42.5t-43.5 -115.5z" />
    <glyph glyph-name="nine.tnum" 
d="M1012 690l-312 -672q-9 -18 -28 -18h-238q-34 0 -18 29l223 483q-16 -4 -35 -4q-208 3 -334 129q-127 127 -127 332q0 217 127 344q129 129 342 129q214 0 342 -131q131 -128 131 -340q0 -126 -73 -281zM614 776q86 0 139.5 54.5t53.5 140.5q0 88 -53 141t-140 53
q-86 0 -139 -53t-53 -141t52.5 -141.5t139.5 -53.5z" />
    <glyph glyph-name="zero.pnum" horiz-adv-x="1222" 
d="M1139 711q0 -329 -146 -531q-143 -198 -381 -198q-239 0 -383 200q-145 201 -145 529q0 327 145 528t383 201q236 0 381 -201q146 -202 146 -528zM362 711q0 -204 68.5 -327.5t181.5 -123.5q110 0 178 124.5t68 326.5t-68 326t-178 124q-112 0 -181 -123.5t-69 -326.5z
" />
    <glyph glyph-name="one.pnum" horiz-adv-x="700" 
d="M106 1180v219q3 22 21 22h446q21 0 21 -22v-1379q0 -20 -21 -20h-237q-21 0 -21 20v1139h-188q-21 0 -21 21z" />
    <glyph glyph-name="two.pnum" horiz-adv-x="1132" 
d="M950 791l-24 -41l-355 -488h420q25 0 25 -24v-218q0 -20 -23 -20h-606h-78h-209q-13 0 -17.5 12t3.5 23l580 790q90 122 90 203q-2 65 -44.5 108t-117.5 42q-106 0 -221 -142q-16 -16 -37 8l-139 150q-15 15 6 41q163 205 422 205q170 0 284 -105q117 -105 117 -295
q0 -61 -24 -133.5t-52 -115.5z" />
    <glyph glyph-name="three.pnum" horiz-adv-x="1116" 
d="M467 854h88q62 0 108 48.5t46 115.5q0 63 -45.5 103t-118.5 40q-107 0 -217 -131q-16 -16 -31 0l-152 178q-15 16 0 31q165 201 418 201q177 0 299 -107q125 -107 125 -276q0 -187 -137 -312q182 -111 182 -321q0 -198 -139 -328q-138 -129 -344 -129q-204 0 -340 121
q-132 123 -141 322q0 20 20 20h234q22 0 22 -18q4 -73 62.5 -119.5t146.5 -46.5q90 0 144.5 52.5t54.5 139.5q0 82 -48 136.5t-126 60.5h-111q-21 0 -21 20v179q0 20 21 20z" />
    <glyph glyph-name="four.pnum" horiz-adv-x="1253" 
d="M1001 543h132q20 0 20 -21v-196q0 -21 -20 -21h-132v-285q3 -20 -20 -20h-238q-20 0 -20 20v285h-426h-64h-186q-26 0 -14 27l647 1071q9 18 31 18h270q20 -3 20 -22v-856zM723 543v469l-283 -469h283z" />
    <glyph glyph-name="five.pnum" horiz-adv-x="1116" 
d="M907 1159h-450l-23 -287q73 29 144 29q202 0 329 -121q125 -119 125 -327q0 -219 -131 -353q-133 -133 -344 -133q-204 0 -336 117q-128 116 -137 309q0 21 20 21h234q22 0 22 -21q5 -69 59 -112t138 -43q88 0 143.5 59.5t55.5 155.5q0 94 -56 152.5t-149 58.5t-139 -52
h-256q-24 0 -21 21l64 766q3 22 24 22h684q21 0 21 -22v-219q0 -21 -21 -21z" />
    <glyph glyph-name="six.pnum" horiz-adv-x="1110" 
d="M1026 451q0 -216 -129 -345q-126 -129 -340 -129q-212 0 -344 129q-129 132 -129 343q0 102 33 190q60 148 104 242l133 282l115 238q6 20 29 20h237q35 0 19 -28l-224 -484q36 4 41 4q206 -6 330 -133q125 -125 125 -329zM555 643q-87 0 -140 -53.5t-53 -140.5
q0 -88 53.5 -141.5t139.5 -53.5t139.5 53.5t53.5 141.5t-52.5 141t-140.5 53z" />
    <glyph glyph-name="seven.pnum" horiz-adv-x="1003" 
d="M94 1421h873q35 0 20 -35l-516 -1366q-6 -20 -29 -20h-252q-18 0 -12 20l436 1139h-520q-22 0 -22 21v219q0 22 22 22z" />
    <glyph glyph-name="eight.pnum" horiz-adv-x="1112" 
d="M979 1032q0 -178 -135 -280q184 -114 184 -328q0 -202 -131 -324q-129 -120 -340 -120q-212 0 -344 120q-129 123 -129 324q0 214 184 328q-135 108 -135 280q0 184 117 295q116 113 307 113t306.5 -112t115.5 -296zM760 438q0 84 -57.5 138.5t-145.5 54.5
q-86 0 -144.5 -55.5t-58.5 -137.5q0 -80 58.5 -134t144.5 -54t144.5 54t58.5 134zM395 1036q0 -75 44 -118.5t118 -43.5q71 0 115 44q45 45 45 118q0 75 -43 115q-43 43 -117 43t-118 -42.5t-44 -115.5z" />
    <glyph glyph-name="nine.pnum" horiz-adv-x="1110" 
d="M952 690l-311 -672q-9 -18 -29 -18h-237q-35 0 -19 29l224 483q-16 -4 -35 -4q-208 3 -334 129q-127 127 -127 332q0 217 127 344q129 129 342 129q214 0 342 -131q131 -128 131 -340q0 -124 -74 -281zM555 776q86 0 139.5 54.5t53.5 140.5q0 87 -54 141q-53 53 -139 53
t-139 -53q-54 -54 -54 -141q0 -88 52.5 -141.5t140.5 -53.5z" />
    <glyph glyph-name="zero.onum.pnum" horiz-adv-x="1126" 
d="M68 492q0 228 147 366q147 141 389 141q241 0 385 -141q148 -139 148 -366q0 -231 -148 -373q-145 -139 -385 -139q-242 0 -389 141t-147 371zM352 492q0 -104 70 -169t182 -65q110 0 179 65t69 169q0 102 -68.5 164.5t-179.5 62.5q-115 0 -183.5 -62t-68.5 -165z" />
    <glyph glyph-name="one.onum.pnum" horiz-adv-x="931" 
d="M82 799l262 180h264q21 0 21 -21l2 -737h221q22 0 22 -22v-176q0 -23 -22 -23h-764q-22 0 -22 23v176q0 22 22 22h256v504l-248 -172q-14 -8 -20 -4.5t-6 20.5v207q0 17 12 23z" />
    <glyph glyph-name="two.onum.pnum" horiz-adv-x="1028" 
d="M936 0h-854q-20 0 -25.5 16.5t11.5 28.5l503 434q77 68 95 101q13 29 10 53q-6 92 -146 92q-130 0 -225 -123q-15 -15 -31 -2l-153 178q-17 17 -2 35q71 87 182.5 137.5t243.5 50.5q180 0 290.5 -84.5t118.5 -220.5q9 -203 -153 -340q0 -1 -158 -135h293q25 0 25 -22
v-176q0 -23 -25 -23z" />
    <glyph glyph-name="three.onum.pnum" horiz-adv-x="1038" 
d="M434 272q-22 0 -22 23v237l157 166h-422q-22 0 -22 23v237q0 21 22 21h734q22 0 22 -21l-2 -260l-207 -221q131 -55 204 -154.5t73 -228.5q0 -191 -125 -307q-123 -117 -324 -117q-193 0 -319 123q-126 120 -135 320q0 22 22 22h242q22 0 22 -22q5 -72 51.5 -116
t118.5 -44t116 39t44 102q0 175 -250 178z" />
    <glyph glyph-name="four.onum.pnum" horiz-adv-x="1218" 
d="M702 979h304q22 0 22 -21v-737h105q22 0 22 -22v-174q0 -23 -22 -23h-105v-287q0 -22 -22 -22h-240q-21 0 -21 22v287h-704q-16 0 -20 10.5t4 22.5l643 928q13 16 34 16zM745 221v426l-299 -426h299z" />
    <glyph glyph-name="five.onum.pnum" horiz-adv-x="1087" 
d="M569 588q200 0 326 -129q125 -128 125 -330q0 -205 -133 -332t-348 -127q-200 0 -332 123q-130 121 -139 322q0 22 22 22h242q22 0 22 -22q4 -72 56.5 -117t130.5 -45q85 0 138.5 51t53.5 133q0 86 -50 138.5t-132 52.5q-86 0 -184 -52h-220q-22 0 -22 23l39 659
q0 23 24 23h689q24 0 24 -23v-227q0 -22 -24 -22h-486l-8 -154q85 33 186 33z" />
    <glyph glyph-name="six.onum.pnum" horiz-adv-x="1042" 
d="M532 1296h238q17 0 21.5 -8t-3.5 -20l-241 -410l28 4q182 -18 291 -139t109 -301q0 -191 -127 -318t-326 -127q-203 0 -329 123q-125 125 -125 324q0 142 77 260l353 592q9 20 34 20zM692 426q0 74 -47.5 121t-122.5 47t-121.5 -46.5t-46.5 -121.5q0 -73 46.5 -118.5
t121.5 -45.5t122.5 46t47.5 118z" />
    <glyph glyph-name="seven.onum.pnum" horiz-adv-x="997" 
d="M594 707h-531q-22 0 -22 22v227q0 23 22 23h889q14 0 22.5 -11t4.5 -24l-471 -1231q-9 -20 -31 -20h-248q-8 0 -14 8.5t-2 15.5z" />
    <glyph glyph-name="eight.onum.pnum" horiz-adv-x="1087" 
d="M68 410q0 191 163 311q-73 85 -73 215q0 170 110 274q113 107 277 107t274 -107q111 -108 111 -274q0 -132 -74 -215q164 -120 164 -311q0 -181 -133 -308q-131 -122 -342 -122q-213 0 -344 122q-133 127 -133 308zM354 424q0 -72 53.5 -117t139.5 -45q82 0 134 45
t52 117q0 78 -51 122t-137 44t-138.5 -44.5t-52.5 -121.5zM422 936q0 -54 33.5 -86.5t89.5 -32.5q54 0 87.5 32.5t33.5 86.5q0 51 -33.5 83t-87.5 32q-55 0 -89 -32t-34 -83z" />
    <glyph glyph-name="nine.onum.pnum" horiz-adv-x="1042" 
d="M512 -313h-240q-35 0 -16 28l240 410q-6 -2 -27 -2q-178 15 -291 137q-110 122 -110 299q0 195 125 320q127 127 327 127q204 0 330 -123q125 -122 125 -324q0 -141 -76 -260l-352 -592q-14 -20 -35 -20zM352 557q0 -74 46.5 -121t121.5 -47t122.5 46.5t47.5 121.5
q0 73 -47.5 118.5t-122.5 45.5q-74 0 -121 -46t-47 -118z" />
    <glyph glyph-name="zero.onum.tnum" 
d="M80 492q0 228 147 366q147 141 389 141q241 0 385 -141q148 -139 148 -366q0 -231 -148 -373q-145 -139 -385 -139q-242 0 -389 141t-147 371zM365 492q0 -104 69.5 -169t181.5 -65q110 0 179 65t69 169q0 102 -68.5 164.5t-179.5 62.5q-115 0 -183 -62t-68 -165z" />
    <glyph glyph-name="one.onum.tnum" 
d="M225 799l262 180h265q20 0 20 -21l2 -737h221q23 0 23 -22v-176q0 -23 -23 -23h-764q-22 0 -22 23v176q0 22 22 22h256v504l-247 -172q-27 -15 -27 16v207q0 17 12 23z" />
    <glyph glyph-name="two.onum.tnum" 
d="M1044 0h-854q-20 0 -25.5 16.5t11.5 28.5l504 434q75 66 94 101q13 29 10 53q-6 92 -145 92q-131 0 -225 -123q-15 -15 -31 -2l-154 178q-17 17 -2 35q71 87 182.5 137.5t243.5 50.5q180 0 291 -84.5t119 -220.5q9 -202 -154 -340q0 -2 -157 -135h292q25 0 25 -22v-176
q0 -23 -25 -23z" />
    <glyph glyph-name="three.onum.tnum" 
d="M530 272q-22 0 -22 23v237l158 166h-422q-23 0 -23 23v237q0 21 23 21h733q22 0 22 -21l-2 -260l-206 -221q130 -55 203 -154.5t73 -228.5q0 -191 -125 -307q-123 -117 -324 -117q-193 0 -319 123q-126 120 -135 320q0 22 22 22h242q23 0 23 -22q5 -72 51.5 -116
t118.5 -44t115.5 39t43.5 102q0 175 -250 178z" />
    <glyph glyph-name="four.onum.tnum" 
d="M733 979h303q23 0 23 -21v-737h104q23 0 23 -22v-174q0 -23 -23 -23h-104v-287q0 -22 -23 -22h-239q-21 0 -21 22v287h-704q-14 0 -20.5 10.5t3.5 22.5l643 928q13 16 35 16zM776 221v426l-299 -426h299z" />
    <glyph glyph-name="five.onum.tnum" 
d="M641 588q200 0 326 -129q125 -128 125 -330q0 -204 -134 -332q-133 -127 -348 -127q-199 0 -331 123q-131 122 -140 322q0 22 23 22h241q23 0 23 -22q4 -72 56 -117t130 -45q85 0 139 51t54 133q0 86 -50 138.5t-132 52.5q-87 0 -185 -52h-219q-22 0 -22 23l39 659
q0 23 24 23h688q25 0 25 -23v-227q0 -22 -25 -22h-485l-8 -154q85 33 186 33z" />
    <glyph glyph-name="six.onum.tnum" 
d="M625 1296h237q17 0 22 -8t-3 -20l-242 -410q28 4 29 4q181 -18 290 -139t109 -301q0 -191 -127 -318t-326 -127q-203 0 -329 123q-125 125 -125 324q0 141 78 260l352 592q9 20 35 20zM784 426q0 74 -47.5 121t-122.5 47t-121.5 -46.5t-46.5 -121.5q0 -73 46.5 -118.5
t121.5 -45.5t122.5 46t47.5 118z" />
    <glyph glyph-name="seven.onum.tnum" 
d="M694 707h-530q-23 0 -23 22v227q0 23 23 23h889q14 0 22 -11t4 -24l-471 -1231q-9 -20 -30 -20h-248q-10 0 -14.5 8t-2.5 16z" />
    <glyph glyph-name="eight.onum.tnum" 
d="M137 410q0 191 164 311q-74 86 -74 215q0 169 111 274q113 107 276 107q165 0 275 -107t110 -274q0 -133 -73 -215q164 -120 164 -311q0 -180 -134 -308q-131 -122 -342 -122q-213 0 -344 122q-133 127 -133 308zM424 424q0 -72 53 -117t139 -45q82 0 134.5 45t52.5 117
q0 78 -51.5 122t-137.5 44t-138 -44.5t-52 -121.5zM492 936q0 -54 33.5 -86.5t88.5 -32.5q54 0 87.5 32.5t33.5 86.5q0 51 -33.5 83t-87.5 32q-55 0 -88.5 -32t-33.5 -83z" />
    <glyph glyph-name="nine.onum.tnum" 
d="M604 -313h-239q-36 0 -17 28l240 410q-6 -2 -27 -2q-178 15 -291 137q-110 122 -110 299q0 195 125 320q127 127 327 127q204 0 330 -123q125 -122 125 -324q0 -141 -76 -260l-352 -592q-14 -20 -35 -20zM444 557q0 -74 46.5 -121t121.5 -47t122.5 46.5t47.5 121.5
q0 73 -47.5 118.5t-122.5 45.5q-74 0 -121 -46t-47 -118z" />
    </font>
</defs>
</svg>
