<?xml version="1.0" standalone="no"?>
<!DOCTYPE svg PUBLIC "-//W3C//DTD SVG 1.1//EN" "http://www.w3.org/Graphics/SVG/1.1/DTD/svg11.dtd" >
<svg xmlns="http://www.w3.org/2000/svg" xmlns:xlink="http://www.w3.org/1999/xlink" version="1.1">
<metadata>
Created by FontForge 20170731 at Tue Dec  1 20:03:39 2020
 By Aleksey,,,
Copyright (c) 2019 by Eko Bimantara. All rights reserved.
</metadata>
<defs>
<font id="Ageo-SemiBold" horiz-adv-x="1228" >
  <font-face 
    font-family="Ageo SemiBold"
    font-weight="600"
    font-stretch="normal"
    units-per-em="2048"
    panose-1="2 0 0 0 0 0 0 0 0 0"
    ascent="1546"
    descent="-502"
    x-height="942"
    cap-height="1421"
    bbox="-144.633 -502.041 2286 1905.11"
    underline-thickness="102"
    underline-position="-358"
    unicode-range="U+000D-FB04"
  />
<missing-glyph horiz-adv-x="0" 
 />
    <glyph glyph-name="f_f" unicode="ff" horiz-adv-x="1292" 
d="M1255 922v-142q0 -20 -22 -20h-229v-740q0 -20 -19 -20h-160q-20 0 -20 20l-2 740h-428v-740q0 -20 -21 -20h-159q-21 0 -21 20v740h-139q-21 0 -21 20v142q0 20 21 20h139l-2 197q0 180 77.5 271t219.5 91q128 0 231 -74q15 -9 5 -28l-66 -131q-6 -16 -27 -4
q-77 41 -120 41q-116 0 -119 -185l2 -178h428v197q0 180 76.5 271t218.5 91q128 0 231 -74q15 -9 6 -28l-65 -131q-10 -17 -27 -4q-77 41 -121 41q-115 0 -118 -185v-178h229q22 0 22 -20z" />
    <glyph glyph-name="fi" unicode="fi" horiz-adv-x="1114" 
d="M961 1278l-82 -121q-9 -13 -25 0l-10 10q-23 28 -51 54.5t-88 55t-123 28.5q-96 0 -152 -47t-57 -138l2 -178l583 2q21 0 21 -20v-904q0 -20 -18 -20h-160q-21 0 -21 20v740h-405v-740q0 -20 -21 -20h-159q-21 0 -21 20v740h-139q-21 0 -21 20v142q0 20 21 20h139l-2 197
q0 176 102 269t277 93q277 0 412 -196q8 -14 -2 -27z" />
    <glyph glyph-name="fl" unicode="fl" horiz-adv-x="1128" 
d="M176 20l-2 740h-139q-21 0 -21 20v142q0 20 21 20h139v197q0 179 107 270q110 93 272 90q104 0 229 -29q44 -8 111 -26q77 -21 78 -21q22 -6 22 -28v-1372q0 -23 -22 -23h-154q-22 0 -22 23l-2 1232q-109 50 -215 50q-203 0 -203 -185v-178h243q21 0 21 -20v-142
q0 -20 -21 -20h-243v-742q0 -18 -19 -18h-161q-19 0 -19 20z" />
    <glyph glyph-name="f_f_i" unicode="ffi" horiz-adv-x="1742" 
d="M469 1501q136 0 231 -74q15 -9 5 -28l-66 -131q-6 -16 -27 -4q-68 41 -120 41q-116 0 -119 -185l2 -178h426v197q0 176 101.5 269t277.5 93q274 0 409 -196q8 -14 -2 -27l-80 -121q-12 -12 -24 0l-17 19q-31 34 -69 63q-81 66 -187 66q-97 0 -153 -47t-56 -138v-178h586
q21 0 21 -18v-904q0 -20 -21 -20h-160q-18 0 -18 20v740h-408v-740q0 -20 -20 -20h-158q-20 0 -20 20l-2 740h-426v-740q0 -20 -21 -20h-159q-21 0 -21 20v740h-139q-21 0 -21 20v142q0 20 21 20h139l-2 197q0 180 77.5 271t219.5 91z" />
    <glyph glyph-name="f_f_l" unicode="ffl" horiz-adv-x="1753" 
d="M612 1264q-68 41 -120 41q-116 0 -119 -185l2 -178h426v197q0 180 106 270q110 93 273 90q98 0 192 -20q30 -5 82 -19q72 -13 143 -37q23 -3 23 -28v-1372q0 -23 -23 -23h-153q-23 0 -23 23l-2 1232q-118 50 -215 50q-203 0 -203 -185v-178h244q21 0 21 -20v-142
q0 -20 -21 -20h-244v-742q0 -18 -18 -18h-162q-18 0 -18 20l-2 740h-426v-740q0 -20 -21 -20h-159q-21 0 -21 20v740h-139q-21 0 -21 20v142q0 20 21 20h139l-2 197q0 180 77.5 271t219.5 91q136 0 231 -74q15 -9 5 -28l-66 -131q-6 -16 -27 -4z" />
    <glyph glyph-name=".notdef" horiz-adv-x="0" 
 />
    <glyph glyph-name=".null" horiz-adv-x="0" 
 />
    <glyph glyph-name="nonmarkingreturn" horiz-adv-x="682" 
 />
    <glyph glyph-name="NULL" horiz-adv-x="0" 
 />
    <glyph glyph-name="NULL" horiz-adv-x="0" 
 />
    <glyph glyph-name="CR.001" unicode="&#xd;" horiz-adv-x="0" 
 />
    <glyph glyph-name="space" unicode=" " horiz-adv-x="512" 
 />
    <glyph glyph-name="exclam" unicode="!" horiz-adv-x="516" 
d="M340 401h-168q-20 0 -20 21l-5 979q0 20 21 20h176q21 0 21 -20l-5 -979q0 -21 -20 -21zM348 201q35 -35 35 -92.5t-35 -94.5q-32 -35 -89.5 -35t-94.5 35q-35 37 -35 94.5t35 92.5q37 35 94.5 35t89.5 -35z" />
    <glyph glyph-name="quotedbl" unicode="&#x22;" horiz-adv-x="747" 
d="M444 893l-59 55q-11 12 4 27q131 104 152 233l-4 2q-51 5 -82 40t-31 89q0 60 35.5 97t95.5 37q51 0 86 -29t43 -76q27 -128 -39 -276t-170 -207q-16 -7 -31 8zM213 1208q0 2 -4 2q-51 5 -82 40t-31 89q0 60 36.5 97t96.5 37q51 0 85 -28.5t42 -76.5q27 -128 -39 -276
t-170 -207q-16 -6 -30 8l-58 55q-13 12 2 27q131 104 152 233z" />
    <glyph glyph-name="numbersign" unicode="#" horiz-adv-x="1333" 
d="M49 406l43 139q9 18 29 18h164l75 281h-190q-20 0 -14 20l45 140q9 18 26 18h181l100 379q3 20 24 20h156q17 0 14 -20l-100 -379h291l100 379q3 20 27 20h154q20 0 14 -20l-101 -379h185q23 0 14 -18l-45 -140q-6 -20 -27 -20h-174l-73 -281h196q24 0 15 -18l-45 -139
q-3 -21 -27 -21h-186l-97 -365q-6 -20 -26 -20h-154q-19 0 -16 20l96 365h-289l-98 -365q-3 -20 -25 -20h-155q-21 0 -15 20l97 365h-177q-18 0 -12 21zM481 563h291l74 281h-291z" />
    <glyph glyph-name="dollar" unicode="$" horiz-adv-x="1173" 
d="M528 195v409q-220 51 -324.5 152t-109.5 266q-3 171 115 283q119 116 319 131v61q0 21 21 21h80q20 0 20 -21v-59q88 -6 178 -35q128 -39 191 -98q15 -15 6 -33l-72 -158q-6 -19 -24 -4q-134 100 -279 115v-418q230 -58 333.5 -150.5t107.5 -250.5q6 -182 -111 -296.5
t-330 -127.5v-191q0 -20 -20 -20h-80q-21 0 -21 20v191q-144 11 -259 61t-177 107q-13 13 -4 30l88 152q10 19 27 2q136 -115 325 -139zM649 575v-382q106 8 168 60t62 134q0 64 -54 108.5t-176 79.5zM528 838v387q-98 -10 -160.5 -63.5t-62.5 -125.5q0 -73 48.5 -116.5
t174.5 -81.5z" />
    <glyph glyph-name="percent" unicode="%" horiz-adv-x="1568" 
d="M55 1124q0 154 93 247t247 93q152 0 245 -93t93 -247q0 -152 -93 -245t-245 -93q-154 0 -247 93t-93 245zM393 975q68 0 110 41t42 108q0 68 -41.5 110t-110.5 42q-67 0 -108 -42t-41 -110q0 -67 41.5 -108t107.5 -41zM1085 319q0 -69 42 -110t110 -41q67 0 108 41
t41 110q0 68 -41 109t-108 41q-68 0 -110 -41.5t-42 -108.5zM897 319q0 152 93 245t247 93q152 0 245 -93t93 -245q0 -153 -92.5 -246t-245.5 -93q-154 0 -247 92.5t-93 246.5zM324 27l811 1437q9 15 24 15h164q24 0 14 -23l-815 -1442q-6 -14 -24 -14h-162q-27 0 -12 27z
" />
    <glyph glyph-name="ampersand" unicode="&#x26;" horiz-adv-x="1370" 
d="M543 1233q-68 0 -110 -45.5t-42 -118.5q-7 -56 60 -147q7 -11 24 -29.5t36 -38.5t24 -25l49 -47q27 -23 49 -45l325 -311q61 143 64 344q0 21 22 21h166q21 0 21 -21q-6 -314 -105 -508l248 -237q11 -7 8 -16t-16 -9h-215q-20 0 -37 14l-104 99q-152 -146 -389 -146
q-256 0 -412 129t-156 332q0 126 64.5 220.5t181.5 146.5q-125 134 -125 290q0 160 101.5 257.5t265.5 97.5q238 0 327 -191q9 -19 -6 -28l-139 -91q-14 -9 -27 7q-55 93 -153 96zM860 256l-442 420q-154 -71 -154 -238q0 -120 98 -202q103 -80 256 -80q142 0 242 100z" />
    <glyph glyph-name="quotesingle" unicode="'" horiz-adv-x="419" 
d="M117 895l-60 55q-13 12 2 27q127 103 154 233h-6q-51 6 -82 42.5t-31 90.5q0 60 36.5 98t96.5 38q51 0 87.5 -30t43.5 -79q27 -127 -41 -278q-67 -149 -170 -205q-16 -9 -30 8z" />
    <glyph glyph-name="parenleft" unicode="(" horiz-adv-x="618" 
d="M322 1403q9 18 32 18h162q19 -3 10 -18q-57 -92 -133 -293q-46 -121 -74 -269.5t-28 -295.5q-3 -465 233 -856q14 -17 -8 -17h-162q-22 0 -32 19q-59 89 -134 280q-46 116 -73 268t-27 306q0 195 53 399q52 200 97 295q41 89 84 164z" />
    <glyph glyph-name="parenright" unicode=")" horiz-adv-x="618" 
d="M102 1421h164q22 0 31 -18q43 -75 84 -164q43 -90 96 -295q53 -204 53 -399q0 -154 -27 -306t-73 -268q-77 -195 -133 -280q-9 -19 -31 -19h-164q-18 0 -8 17q237 393 234 856q0 191 -54 399q-53 208 -96 295q-54 110 -86 164q-9 18 10 18z" />
    <glyph glyph-name="asterisk" unicode="*" horiz-adv-x="858" 
d="M580 662l-148 221l-149 -221q-13 -23 -33 -3l-115 105q-18 15 0 33l154 174l-232 125q-18 9 -10 28l88 138q12 18 31 6l178 -129l-16 256q0 22 20 22h168q19 0 19 -22l-17 -256l180 129q16 9 31 -6l86 -138q11 -20 -8 -28l-234 -125l156 -174q17 -17 0 -33l-117 -105
q-15 -21 -32 3z" />
    <glyph glyph-name="plus" unicode="+" horiz-adv-x="1157" 
d="M655 150h-153q-21 0 -21 20v336h-329q-21 0 -21 20v144q0 20 21 20h329v334q0 20 21 20h153q21 0 21 -20v-334h330q20 0 20 -20v-144q0 -20 -20 -20h-330v-336q0 -20 -21 -20z" />
    <glyph glyph-name="comma" unicode="," horiz-adv-x="491" 
d="M141 -336l-63 57q-13 16 4 29q133 106 160 244l-2 2h-4q-54 6 -85.5 42.5t-31.5 92.5q0 63 38 102t101 39q54 0 91 -29.5t44 -80.5q28 -135 -43 -291q-72 -158 -176 -215q-19 -6 -33 8z" />
    <glyph glyph-name="hyphen" unicode="-" horiz-adv-x="845" 
d="M115 530v138q0 22 22 22h572q22 0 22 -22v-138q0 -22 -22 -22h-572q-22 0 -22 22z" />
    <glyph glyph-name="period" unicode="." horiz-adv-x="538" 
d="M137 113q0 62 36 98.5t97 36.5q60 0 95.5 -36.5t35.5 -98.5q0 -59 -36.5 -96t-94.5 -37q-61 0 -97 36.5t-36 96.5z" />
    <glyph glyph-name="slash" unicode="/" horiz-adv-x="827" 
d="M2 23l623 1437q9 19 28 19h158q11 0 14.5 -6.5t-0.5 -16.5l-624 -1436q-6 -20 -29 -20h-158q-22 0 -12 23z" />
    <glyph glyph-name="zero" unicode="0" horiz-adv-x="1222" 
d="M1122 711q0 -331 -141 -531q-137 -198 -369 -198q-231 0 -372 200q-140 202 -140 529t142 528t370 201q230 0 369 -201q141 -199 141 -528zM311 711q0 -236 82 -379q83 -142 219 -142q132 0 215 144q82 143 82 377q0 233 -82 376q-83 144 -215 144q-136 0 -219 -144
q-82 -143 -82 -376z" />
    <glyph glyph-name="one" unicode="1" horiz-adv-x="669" 
d="M127 1245v154q0 22 20 22h375q21 0 21 -22l2 -1379q0 -20 -21 -20h-172q-20 0 -20 20v1205h-185q-20 0 -20 20z" />
    <glyph glyph-name="two" unicode="2" horiz-adv-x="1128" 
d="M932 795l-25 -37l-69 -90l-183 -240l-176 -231h510q23 0 23 -23v-154q0 -20 -21 -20h-655h-55h-164q-13 0 -17 9t4 20l619 817l18 28q22 34 41 83.5t19 84.5q0 87 -55 143t-146 56q-139 0 -252 -143q-12 -18 -31 4l-104 110q-15 18 4 37q150 191 397 191q171 0 281 -107
q111 -105 111 -284q0 -67 -23 -140t-51 -114z" />
    <glyph glyph-name="three" unicode="3" horiz-adv-x="1116" 
d="M467 825h96q85 0 142 61t57 152q0 88 -56 141.5t-147 53.5q-135 0 -248 -137q-14 -17 -28 0l-111 125q-15 15 0 30q154 189 395 189q176 0 289 -107q115 -106 115 -276q0 -199 -146 -312q191 -105 191 -333q0 -195 -131 -320t-332 -125q-199 0 -326 115
q-126 117 -135 303q0 21 21 21h168q22 0 22 -19q6 -94 76 -152.5t176 -58.5q110 0 179 69t69 175q0 101 -59.5 168t-155.5 71h-121q-21 0 -21 21v125q0 20 21 20z" />
    <glyph glyph-name="four" unicode="4" horiz-adv-x="1253" 
d="M973 489h151q21 0 21 -20v-143q0 -21 -21 -21h-151v-285q0 -20 -21 -20h-172q-20 0 -20 20v285h-488h-39h-145q-31 0 -16 27l649 1071q9 18 31 18l200 -2q21 0 21 -20v-910zM760 489v623l-375 -623h375z" />
    <glyph glyph-name="five" unicode="5" horiz-adv-x="1116" 
d="M895 1225h-487l-27 -385q80 45 180 45q205 0 330 -125q125 -122 125 -324q0 -205 -127 -338q-125 -131 -332 -131q-199 0 -324 113q-124 112 -133 297q0 20 21 20h168q19 0 22 -20q6 -91 74 -148t172 -57q110 0 179 74t69 190t-70 188t-188 72q-121 0 -182 -67h-187
q-21 0 -18 20l57 750q0 22 23 22h655q20 0 20 -22v-154q0 -20 -20 -20z" />
    <glyph glyph-name="six" unicode="6" horiz-adv-x="1107" 
d="M1008 432q0 -205 -125 -330q-122 -125 -328 -125q-205 0 -330 125t-125 328q0 101 35 188q44 104 109 244l137 297l115 242q6 20 28 20h172q35 0 19 -28l-244 -529q43 15 92 15q201 -3 322 -127q123 -120 123 -320zM799 430q0 112 -68 180q-64 70 -176 70
q-110 0 -180 -70q-68 -71 -68 -180q0 -111 68 -179.5t180 -68.5q108 0 176 69.5t68 178.5z" />
    <glyph glyph-name="seven" unicode="7" horiz-adv-x="997" 
d="M86 1421h850q34 0 20 -32l-518 -1369q-6 -20 -28 -20h-185q-20 0 -14 20l463 1205h-588q-20 0 -20 20v154q0 22 20 22z" />
    <glyph glyph-name="eight" unicode="8" horiz-adv-x="1130" 
d="M969 1044q0 -190 -146 -286q207 -109 207 -342q0 -198 -129 -318q-124 -118 -336 -118q-211 0 -338 118q-127 121 -127 318q0 234 205 342q-143 94 -143 286q0 180 110 287q112 109 293 109t293 -109q111 -108 111 -287zM823 424q0 109 -71.5 177.5t-184.5 68.5
q-112 0 -186 -70t-74 -176q0 -105 72.5 -171.5t187.5 -66.5q112 0 184 67t72 171zM567 844q91 0 145 55.5t54 147.5q0 93 -54 147.5t-145 54.5q-92 0 -147 -55t-55 -147t55 -147.5t147 -55.5z" />
    <glyph glyph-name="nine" unicode="9" horiz-adv-x="1107" 
d="M944 737l-332 -719q-9 -18 -30 -18h-172q-30 0 -17 29l244 524q-47 -12 -90 -12q-201 3 -324 123q-123 123 -123 323q0 207 123 330q125 125 330 125q203 0 328 -125q127 -127 127 -328q0 -109 -64 -252zM553 739q109 0 177.5 70t68.5 180q0 112 -67.5 180t-178.5 68
q-109 0 -177.5 -69t-68.5 -179q0 -112 68 -181t178 -69z" />
    <glyph glyph-name="colon" unicode=":" horiz-adv-x="487" 
d="M137 793q-41 41 -41 106q0 64 41 105t106.5 41t106.5 -41t41 -105q0 -65 -41 -106t-106.5 -41t-106.5 41zM137 23q-41 41 -41 106.5t41 106.5t106.5 41t106.5 -41t41 -106.5t-41 -106.5q-41 -38 -106.5 -38t-106.5 38z" />
    <glyph glyph-name="semicolon" unicode=";" horiz-adv-x="522" 
d="M266 752q-67 0 -107 40.5t-40 106.5t40.5 105.5t106.5 39.5t106 -39.5t40 -105.5t-40 -106.5t-106 -40.5zM154 -336l-64 57q-13 16 4 29q135 110 158 244q-4 0 -6 2q-54 6 -85.5 42.5t-31.5 92.5q2 63 40 102t99 39q55 0 91 -29.5t44 -80.5q28 -135 -43 -291
q-72 -158 -176 -215q-17 -8 -30 8z" />
    <glyph glyph-name="less" unicode="&#x3c;" horiz-adv-x="1103" 
d="M78 514v191q0 23 18 32l908 367q22 6 22 -17v-172q0 -24 -20 -30l-705 -275l705 -276q20 -6 20 -31v-172q0 -23 -22 -14l-908 364q-18 9 -18 33z" />
    <glyph glyph-name="equal" unicode="=" horiz-adv-x="1073" 
d="M909 692h-747q-23 0 -23 25v131q0 24 23 24h747q25 0 25 -24v-131q0 -25 -25 -25zM909 352h-747q-23 0 -23 25v131q0 24 23 24h747q25 0 25 -24v-131q0 -25 -25 -25z" />
    <glyph glyph-name="greater" unicode="&#x3e;" horiz-adv-x="1103" 
d="M96 334l707 276l-707 275q-18 6 -18 30v172q0 23 22 17l908 -367q18 -9 18 -32v-191q0 -24 -18 -33l-908 -364q-22 -9 -22 14v172q0 25 18 31z" />
    <glyph glyph-name="question" unicode="?" horiz-adv-x="974" 
d="M666 1036q0 92 -57 147.5t-146 55.5q-142 0 -250 -135q-13 -16 -27 -2l-112 123q-15 15 0 30q150 185 397 185q176 0 289 -107q117 -108 117 -276q0 -183 -113 -305q-18 -19 -55.5 -56.5t-60 -62.5t-49 -61t-40.5 -74.5t-16 -81.5q0 -21 -21 -21h-180q-20 0 -20 21
q4 88 39 164t88 129q14 14 49.5 48t52 51t43 49t39.5 56t23 56.5t10 66.5zM567 111q4 -43 -19.5 -76t-59 -46.5t-76 -7t-68.5 34.5t-34.5 69t6.5 76.5t46 59t76 19.5q57 0 93 -36t36 -93z" />
    <glyph glyph-name="at" unicode="@" horiz-adv-x="1855" 
d="M1739 682q0 -179 -92.5 -290.5t-245.5 -115.5q-139 0 -221 111q-89 -151 -285 -151q-164 0 -266 108q-102 111 -105 287q0 175 103 284t268 109q168 0 256 -113l29 62q9 12 20 12h98q17 0 17 -16v-398q-2 -60 28.5 -97.5t88.5 -37.5q68 0 108.5 69.5t38.5 176.5
q3 259 -172 422q-173 164 -438 164q-306 0 -494 -176q-185 -173 -188 -457q3 -286 188 -459q186 -174 494 -174q221 0 399 152q16 16 31 2l94 -95q19 -15 0 -34q-203 -197 -524 -197q-381 0 -619 221q-233 220 -233 582q0 364 233 584q235 223 619 223q343 0 555 -209
q215 -209 215 -549zM1106 629q0 93 -52.5 147.5t-140.5 54.5t-141 -55.5t-53 -146.5t53 -146t141 -55t140.5 55t52.5 146z" />
    <glyph glyph-name="A" unicode="A" horiz-adv-x="1345" 
d="M1124 14l-153 389h-596l-156 -389q-3 -14 -20 -14h-172q-27 0 -17 23l547 1378q6 18 27 18h178q20 0 26 -18l547 -1378q10 -23 -16 -23h-172q-17 0 -23 14zM899 588l-225 571l-228 -571h453z" />
    <glyph glyph-name="B" unicode="B" horiz-adv-x="1226" 
d="M680 682h-309v-485l288 2q127 0 202 67t75 178q0 107 -70 173t-186 65zM371 840h241q116 0 176 53t60 149q0 86 -67 134t-189 47h-221v-383zM180 1421h424q210 0 332 -98t125 -268q3 -168 -156 -275q114 -50 178.5 -141.5t65.5 -214.5q3 -192 -127 -307
q-129 -117 -346 -117h-496q-20 0 -20 20v1379q0 22 20 22z" />
    <glyph glyph-name="C" unicode="C" horiz-adv-x="1382" 
d="M1315 168q-197 -188 -512 -188q-325 0 -524 202q-201 204 -201 527q0 237 106 403q106 165 266 246.5t353 81.5q302 3 508 -191q14 -12 0 -26l-103 -125q-9 -16 -28 0q-157 136 -377 133q-227 3 -371 -144q-141 -144 -141 -378q0 -233 141 -377t371 -144q220 0 377 136
q19 16 28 0l107 -127q15 -15 0 -29z" />
    <glyph glyph-name="D" unicode="D" horiz-adv-x="1386" 
d="M578 1225h-207v-1026h209q237 0 374 137q142 139 142 375q0 235 -142 374q-143 140 -376 140zM578 0h-400q-20 0 -20 20v1381q0 20 20 20h400q330 0 528 -192q201 -195 201 -518q0 -328 -199 -521q-199 -190 -530 -190z" />
    <glyph glyph-name="E" unicode="E" horiz-adv-x="1071" 
d="M856 627h-485v-428h602q20 0 20 -21v-160q0 -18 -18 -18h-797q-18 0 -18 20v1381q0 20 20 20h774q19 0 19 -20v-160q0 -18 -19 -18h-583v-400h485q21 0 21 -20v-156q0 -20 -21 -20z" />
    <glyph glyph-name="F" unicode="F" horiz-adv-x="1028" 
d="M856 627h-485v-604q0 -23 -23 -23h-168q-20 0 -20 20v1381q0 20 20 20h772q21 0 21 -20v-158q0 -20 -21 -20h-581v-400h485q21 0 21 -20v-156q0 -20 -21 -20z" />
    <glyph glyph-name="G" unicode="G" horiz-adv-x="1519" 
d="M1229 573h-408q-20 0 -20 21v139q0 21 20 21h598q23 0 23 -23q-6 -361 -175 -555.5t-487 -193.5q-316 0 -510 200q-192 198 -192 529q0 327 201 528q204 201 530 201q303 0 508 -193q15 -9 0 -24l-109 -127q-12 -14 -26 0q-150 135 -373 135q-231 0 -375 -144
q-143 -143 -143 -376t135 -377t354 -144q385 0 449 383z" />
    <glyph glyph-name="H" unicode="H" horiz-adv-x="1390" 
d="M350 0h-172q-20 0 -20 20v1381q0 20 20 20h172q21 0 21 -18v-592h649v590q0 20 18 20h174q19 0 19 -18v-1383q0 -20 -19 -20h-174q-20 0 -20 20l2 607h-649v-607q-3 -20 -21 -20z" />
    <glyph glyph-name="I" unicode="I" horiz-adv-x="528" 
d="M371 1401v-1383q0 -18 -21 -18h-172q-18 0 -18 18v1383q0 20 18 20h172q21 0 21 -20z" />
    <glyph glyph-name="J" unicode="J" horiz-adv-x="831" 
d="M463 393l-2 1008q0 20 20 20h170q21 0 21 -20l2 -1041q1 -182 -85 -280t-245 -100q-182 3 -313 114q-14 14 -4 31l79 141q10 23 33 6q125 -82 191 -82q72 0 100 44.5t33 158.5z" />
    <glyph glyph-name="K" unicode="K" horiz-adv-x="1171" 
d="M371 1401v-641l512 649q12 12 22 12h201q31 0 10 -24l-541 -682l613 -690q22 -25 -10 -25h-222q-16 0 -26 10l-559 654v-646q0 -18 -21 -18h-172q-18 0 -18 18v1383q0 20 18 20h172q21 0 21 -20z" />
    <glyph glyph-name="L" unicode="L" horiz-adv-x="925" 
d="M371 1401v-1211h477q20 0 20 -20v-152q0 -18 -20 -18h-670q-20 0 -20 18v1383q0 20 20 20h172q21 0 21 -20z" />
    <glyph glyph-name="M" unicode="M" horiz-adv-x="1753" 
d="M190 1421h166q19 0 25 -16l493 -979l488 981q6 14 24 14h187q20 0 20 -20v-1381q0 -20 -20 -20h-170q-21 0 -21 20v992l-401 -783q-6 -16 -25 -16h-161q-17 0 -25 14l-399 779v-986q0 -20 -21 -20h-164q-26 0 -26 27v1364q0 30 30 30z" />
    <glyph glyph-name="N" unicode="N" horiz-adv-x="1464" 
d="M1114 1421h172q21 0 21 -20l-2 -1381q0 -20 -19 -20h-203q-13 0 -22 12l-690 1069v-1061q0 -20 -21 -20h-172q-20 0 -20 20v1381q0 20 20 20h203q17 0 25 -14l688 -1065v1059q0 20 20 20z" />
    <glyph glyph-name="O" unicode="O" horiz-adv-x="1615" 
d="M1536 711q0 -330 -201 -531q-198 -198 -526 -198q-330 0 -530 200q-201 201 -201 529q0 327 201 528q204 201 530 201q325 0 526 -201t201 -528zM809 190q232 0 373 144q143 143 143 377q0 233 -143 376q-141 144 -373 144q-233 0 -377 -144q-141 -141 -141 -376
t141 -379q145 -142 377 -142z" />
    <glyph glyph-name="P" unicode="P" horiz-adv-x="1130" 
d="M662 571h-291v-551q0 -20 -21 -20h-170q-20 0 -20 20v1379q0 22 20 22h152h178h152q210 0 332 -114t124 -310q-2 -196 -124 -311t-332 -115zM371 1223v-453h278q123 0 190.5 58t67.5 167q0 112 -68 171t-190 57h-278z" />
    <glyph glyph-name="Q" unicode="Q" horiz-adv-x="1617" 
d="M1182 72l334 -193q18 -9 8 -26l-84 -138q-12 -18 -29 -8l-463 285q-78 -10 -139 -10q-330 0 -530 200q-201 201 -201 529q0 327 201 528q204 201 530 201q325 0 526 -201t201 -528q0 -218 -93 -384.5t-261 -254.5zM1325 711q0 233 -143 376q-141 144 -373 144
q-233 0 -377 -144q-141 -144 -141 -376q0 -233 141 -377q144 -144 377 -144t375 142q141 144 141 379z" />
    <glyph glyph-name="R" unicode="R" horiz-adv-x="1177" 
d="M887 10l-332 561h-184v-551q0 -20 -21 -20h-172q-20 0 -20 20v1381q0 20 20 20h471q210 0 332.5 -114.5t124.5 -309.5q-1 -164 -89.5 -271.5t-248.5 -139.5l352 -561q12 -25 -14 -25h-199q-13 0 -20 10zM653 1223l-282 2v-455h282q111 0 176.5 59t65.5 166
q0 108 -66.5 168t-175.5 60z" />
    <glyph glyph-name="S" unicode="S" horiz-adv-x="1175" 
d="M92 152q-14 8 -4 28l86 150q13 16 31 4q64 -57 172 -100.5t227 -43.5q124 0 199.5 53.5t75.5 143.5q0 74 -73 123.5t-243 85.5q-239 51 -351.5 153.5t-117.5 272.5q-3 181 135 301t365 117q144 -1 257 -43t169 -94q14 -8 4 -31l-70 -156q-9 -20 -28 -4q-156 117 -342 117
q-121 0 -200 -55.5t-79 -137.5q0 -84 68 -131q66 -45 254 -92q242 -58 350.5 -151t114.5 -256q3 -192 -129 -312q-132 -117 -375 -114q-186 3 -312 59q-128 57 -184 113z" />
    <glyph glyph-name="T" unicode="T" horiz-adv-x="1110" 
d="M449 18v1205h-402q-18 0 -18 18v160q0 20 20 20h1014q18 0 18 -20v-160q0 -18 -20 -18h-402l3 -1205q0 -18 -21 -18h-172q-20 0 -20 18z" />
    <glyph glyph-name="U" unicode="U" horiz-adv-x="1378" 
d="M158 557v844q0 18 20 18h172q21 0 21 -18v-846q0 -175 85 -270t234 -95q148 0 232.5 95t83.5 270v846q0 18 20 18h174q19 0 19 -18v-846q0 -275 -148 -426q-147 -147 -381 -147q-236 0 -385 149q-147 150 -147 426z" />
    <glyph glyph-name="V" unicode="V" horiz-adv-x="1341" 
d="M545 18l-537 1377q-9 24 17 24h186q14 0 22 -14l439 -1149l438 1149q3 14 20 14h187q25 0 16 -24l-536 -1377q-6 -18 -29 -18h-197q-20 0 -26 18z" />
    <glyph glyph-name="W" unicode="W" horiz-adv-x="1845" 
d="M1225 16l-303 1137l-306 -1137q-3 -16 -22 -16h-150q-16 0 -22 16l-416 1385q-6 20 14 20h179q19 0 22 -18l301 -1061l291 1061q9 18 25 18h166q19 0 22 -18l295 -1069l305 1073q3 14 19 14h178q22 0 16 -20l-418 -1385q-6 -16 -24 -16h-150q-19 0 -22 16z" />
    <glyph glyph-name="X" unicode="X" horiz-adv-x="1204" 
d="M227 0h-207q-24 0 -10 20l469 685l-456 696q-14 20 12 20h213q18 0 24 -12l330 -518l346 516q9 12 27 12h207q26 0 12 -20l-475 -690l455 -689q14 -20 -11 -20h-213q-18 0 -24 12l-330 510l-344 -510q-6 -12 -25 -12z" />
    <glyph glyph-name="Y" unicode="Y" horiz-adv-x="1208" 
d="M498 18v547l-488 830q-15 24 15 24h186q19 0 29 -16l364 -649l365 649q10 16 28 16h187q29 0 14 -24l-487 -828v-549q0 -18 -21 -18h-172q-20 0 -20 18z" />
    <glyph glyph-name="Z" unicode="Z" horiz-adv-x="1185" 
d="M1104 1386l-711 -1189h703q20 0 20 -21v-156q0 -20 -20 -20h-1014q-39 0 -19 33l709 1192h-647q-19 0 -19 18v158q0 20 19 20h960q37 0 19 -35z" />
    <glyph glyph-name="bracketleft" unicode="[" horiz-adv-x="681" 
d="M322 1247v-1403h213q22 0 22 -22v-129q0 -25 -22 -25l-388 2q-22 0 -22 21l-2 1708q0 22 24 22h388q22 0 22 -22v-129q0 -23 -22 -23h-213z" />
    <glyph glyph-name="backslash" unicode="\" horiz-adv-x="815" 
d="M18 1479h158q18 0 25 -17l622 -1437q5 -7 0.5 -16t-14.5 -9h-156q-20 0 -26 16l-623 1436q-12 27 14 27z" />
    <glyph glyph-name="bracketright" unicode="]" horiz-adv-x="681" 
d="M123 -154h211v1401h-211q-23 0 -23 23v129q0 22 23 22h387q22 0 22 -22v-1708q0 -21 -22 -21h-387q-23 0 -23 23v129q0 24 23 24z" />
    <glyph glyph-name="asciicircum" unicode="^" horiz-adv-x="1189" 
d="M94 557l375 844q6 18 29 18h194q23 0 29 -18l375 -844q9 -27 -19 -27h-172q-20 0 -26 19l-285 668l-283 -668q-6 -19 -26 -19h-172q-28 0 -19 27z" />
    <glyph glyph-name="underscore" unicode="_" horiz-adv-x="1206" 
d="M123 -109h960q23 0 23 -24v-115q0 -26 -23 -26h-960q-23 0 -23 24v119q0 22 23 22z" />
    <glyph glyph-name="grave" unicode="`" horiz-adv-x="565" 
d="M410 1110l-334 229q-23 10 -4 29l96 119q16 15 29 2l297 -287q15 -9 2 -22l-60 -68q-8 -8 -26 -2z" />
    <glyph glyph-name="a" unicode="a" horiz-adv-x="1193" 
d="M868 801l29 125q9 18 23 18h127q18 0 18 -20v-904q0 -20 -21 -20h-126q-14 0 -23 18l-27 123q-109 -161 -325 -161q-211 -3 -344 133q-131 137 -131 358q0 220 131 354q132 135 344 138q215 0 325 -162zM557 176q134 0 216 81t83 214q-3 133 -86 213t-213 80
q-131 0 -213 -82q-80 -80 -80 -211t81.5 -213t211.5 -82z" />
    <glyph glyph-name="b" unicode="b" horiz-adv-x="1185" 
d="M262 0h-112q-21 0 -21 20v1438q0 21 21 21h159q21 0 21 -21v-647q109 152 313 152q212 0 344 -138q131 -134 131 -354q0 -219 -131 -356q-132 -135 -344 -135q-218 0 -328 165l-28 -125q-6 -20 -25 -20zM629 766q-133 0 -216 -82t-83 -213t83 -213t216 -82
q130 0 211.5 82t81.5 213t-81.5 213t-211.5 82z" />
    <glyph glyph-name="c" unicode="c" horiz-adv-x="1034" 
d="M961 178q-133 -201 -404 -201q-219 0 -354 138t-135 356q0 232 143 360q143 131 344 134q130 2 237.5 -52.5t176.5 -158.5q15 -12 -2 -29l-121 -98q-17 -17 -33 6q-88 131 -256 131q-131 0 -212 -81t-81 -212q0 -133 81 -214t212 -81q165 0 254 127q16 19 35 6l110 -102
q14 -14 5 -29z" />
    <glyph glyph-name="d" unicode="d" horiz-adv-x="1185" 
d="M543 -20q-212 0 -344 135q-131 137 -131 356q0 220 131 354q132 138 344 138q205 0 313 -150v647q0 19 21 19h159q21 0 21 -19v-1440q0 -20 -21 -20h-112q-20 0 -23 18l-31 125q-108 -163 -327 -163zM856 471q0 131 -83 213t-216 82q-131 0 -211 -81t-80 -214
q0 -131 80.5 -213t210.5 -82q132 0 215.5 81.5t83.5 213.5z" />
    <glyph glyph-name="e" unicode="e" horiz-adv-x="1112" 
d="M274 545h564q-19 105 -94 166t-187 61q-114 0 -189 -61t-94 -166zM1024 391h-748q23 -104 103.5 -163.5t200.5 -59.5q145 0 235 84q18 15 35 2l102 -104q14 -14 0 -29q-129 -141 -381 -141q-226 0 -364 135q-139 139 -139 356q0 219 135 354q135 138 354 138
q231 0 359.5 -143t127.5 -410q0 -22 -20 -19z" />
    <glyph glyph-name="f" unicode="f" horiz-adv-x="667" 
d="M596 760h-221v-740q0 -20 -21 -20h-159q-21 0 -21 20v740h-139q-21 0 -21 20v142q0 20 21 20h139l-2 197q0 180 77.5 271t219.5 91q136 0 231 -74q15 -9 5 -28l-64 -129q-9 -19 -29 -6q-68 41 -120 41q-116 0 -119 -185l2 -178h221q20 0 20 -20v-142q0 -20 -20 -20z" />
    <glyph glyph-name="g" unicode="g" horiz-adv-x="1189" 
d="M543 965q218 0 331 -168l33 127q3 17 23 20h110q21 0 21 -20l2 -912q0 -224 -139 -360q-136 -136 -365 -139q-217 3 -377 100q-18 9 -8 31l70 139q9 18 26 8q115 -71 281 -80q147 1 228 81t83 222v117q-112 -154 -319 -154q-212 3 -344 138q-131 134 -131 356
q0 219 131 356q132 138 344 138zM266 471q0 -131 80.5 -212t210.5 -81q135 0 219 81t84 212q0 133 -83.5 214t-219.5 81q-131 0 -211 -81t-80 -214z" />
    <glyph glyph-name="h" unicode="h" horiz-adv-x="1120" 
d="M129 20v1438q0 21 21 21h159q21 0 21 -21v-649q94 155 301 158q169 -2 266.5 -112t97.5 -310l2 -525q0 -20 -20 -20h-160q-20 0 -20 20v496q0 125 -56.5 188.5t-158.5 61.5q-105 0 -175.5 -85.5t-76.5 -221.5v-439q0 -20 -21 -20h-159q-21 0 -21 20z" />
    <glyph glyph-name="i" unicode="i" horiz-adv-x="466" 
d="M334 924v-904q0 -20 -21 -20h-159q-19 0 -19 20v904q0 20 21 20h157q21 0 21 -20zM98 1278q0 60 37.5 96.5t97.5 36.5q61 0 98.5 -36.5t37.5 -96.5q0 -61 -37 -98t-99 -37q-60 0 -97.5 37t-37.5 98z" />
    <glyph glyph-name="j" unicode="j" horiz-adv-x="526" 
d="M156 1278q0 60 37 96.5t98 36.5t97 -36.5t36 -96.5q0 -62 -36 -99.5t-97 -37.5t-98 37.5t-37 99.5zM193 -119v1043q0 18 20 18h158q20 0 20 -20l2 -1063q0 -160 -77 -253t-210 -93q-135 0 -223 73q-16 9 -6 29l66 131q14 20 34 6q51 -39 109 -39q107 0 107 168z" />
    <glyph glyph-name="k" unicode="k" horiz-adv-x="966" 
d="M682 942h219q33 0 12 -27l-372 -413l438 -475q24 -27 -12 -27h-215q-17 0 -27 10l-395 434v-426q0 -18 -21 -18h-159q-21 0 -21 18v1442q0 19 21 19h159q21 0 21 -19v-909l329 381q10 10 23 10z" />
    <glyph glyph-name="l" unicode="l" horiz-adv-x="468" 
d="M334 1458v-1438q0 -20 -21 -20h-159q-19 0 -19 20v1438q0 21 19 21h159q21 0 21 -21z" />
    <glyph glyph-name="m" unicode="m" horiz-adv-x="1675" 
d="M150 944h122q22 0 25 -20l22 -119q88 162 283 162q213 -3 297 -193q102 193 318 193q158 -2 248 -112t89 -310l2 -525q0 -20 -20 -20h-160q-20 0 -20 20v496q0 250 -189 250q-101 0 -162.5 -85.5t-62.5 -238.5v-422q0 -20 -20 -20h-158q-21 0 -21 20v496q0 127 -49 189.5
t-141 60.5q-94 0 -156.5 -84.5t-66.5 -220.5v-441q0 -20 -21 -20h-159q-21 0 -21 20v904q0 20 21 20z" />
    <glyph glyph-name="n" unicode="n" horiz-adv-x="1122" 
d="M129 20v904q0 20 21 20h122q20 0 23 -20l24 -127q99 170 312 170q169 -2 266.5 -112t97.5 -310l2 -525q0 -20 -20 -20h-160q-20 0 -20 20v496q0 125 -56.5 188.5t-158.5 61.5q-105 0 -175.5 -85.5t-76.5 -223.5v-437q0 -20 -21 -20h-159q-21 0 -21 20z" />
    <glyph glyph-name="o" unicode="o" horiz-adv-x="1116" 
d="M557 967q221 0 356 -138q136 -136 136 -356q0 -219 -136 -358q-135 -135 -356 -135q-220 0 -354 137q-135 138 -135 356t135 356t354 138zM346 686q-80 -80 -80 -213q0 -132 80 -215q80 -80 211 -80t211 80q82 82 82 215q0 134 -82 213q-79 82 -211 82t-211 -82z" />
    <glyph glyph-name="p" unicode="p" horiz-adv-x="1187" 
d="M309 -467h-159q-21 0 -21 21v1370q0 20 23 20h108q21 0 27 -20l28 -125q111 166 330 166q212 0 344 -138q131 -137 131 -356t-131 -356q-132 -138 -344 -138q-207 0 -315 150v-573q0 -21 -21 -21zM414 684q-82 -82 -82 -213t82 -213t215 -82q131 0 211 80q82 82 82 215
q0 134 -82 213q-79 82 -211 82q-133 0 -215 -82z" />
    <glyph glyph-name="q" unicode="q" horiz-adv-x="1187" 
d="M1059 922l-2 -1368q0 -21 -21 -21h-155q-23 0 -23 21v575q-109 -152 -315 -152q-212 0 -344 138q-131 137 -131 356t131 356q132 138 344 138q218 0 329 -166l29 125q6 20 25 20h112q21 0 21 -22zM557 176q133 0 216 82t83 213t-83 213t-216 82q-131 0 -211 -81t-80 -214
t80 -214t211 -81z" />
    <glyph glyph-name="r" unicode="r" horiz-adv-x="724" 
d="M639 735q-71 27 -131 27q-117 0 -178 -131v-611q0 -20 -21 -20h-159q-21 0 -21 20v904q0 18 21 18h110q22 0 25 -18l18 -70q103 109 244 109q56 0 145 -25q21 -3 15 -25l-41 -165q-9 -22 -27 -13z" />
    <glyph glyph-name="s" unicode="s" horiz-adv-x="864" 
d="M76 84q-14 8 -4 31l65 125q9 16 29 6q126 -75 244 -78q84 -4 136 22.5t50 71.5q0 45 -47 72t-172 59q-152 41 -223.5 108.5t-75.5 176.5q-1 130 101 209.5t267 79.5q177 -3 302 -97q15 -12 6 -30l-64 -123q-6 -17 -28 -8q-101 61 -203 67q-77 6 -128.5 -20t-51.5 -68
q0 -46 40.5 -71.5t153.5 -55.5q171 -44 247 -107.5t77 -177.5q4 -134 -97.5 -215t-269.5 -79q-216 0 -354 102z" />
    <glyph glyph-name="t" unicode="t" horiz-adv-x="665" 
d="M385 760v-365q0 -120 20 -166.5t70 -46.5q37 0 86 37q16 13 29 -4l61 -135q9 -22 -6 -31q-88 -70 -201 -67q-125 0 -192 86.5t-66 244.5v447h-137q-20 0 -20 20v144q0 18 20 18h137l2 305q0 21 19 21h158q20 0 20 -21v-305h209q20 0 20 -18v-144q0 -20 -20 -20h-209z" />
    <glyph glyph-name="u" unicode="u" horiz-adv-x="1128" 
d="M834 18l-25 129q-108 -170 -322 -170q-168 0 -265 111t-97 311v523q0 20 18 20h160q21 0 21 -20v-496q0 -258 219 -258q107 0 178.5 86.5t77.5 230.5v437q0 20 20 20h160q20 0 20 -18v-904q0 -20 -20 -20h-123q-19 0 -22 18z" />
    <glyph glyph-name="v" unicode="v" horiz-adv-x="978" 
d="M967 915l-361 -897q-9 -18 -28 -18h-177q-22 0 -28 18l-363 897q-9 27 19 27h176q16 0 22 -14l262 -695l261 693q6 16 24 16h176q26 0 17 -27z" />
    <glyph glyph-name="w" unicode="w" horiz-adv-x="1337" 
d="M229 926l158 -658l186 658q6 16 23 16h145q22 0 25 -18l186 -674l156 676q3 16 20 16h187q17 0 14 -18l-260 -908q-6 -16 -25 -16h-174q-21 0 -24 16l-176 654l-178 -654q-6 -16 -25 -16h-172q-20 0 -23 16l-262 908q-9 18 13 18h184q19 0 22 -16z" />
    <glyph glyph-name="x" unicode="x" horiz-adv-x="985" 
d="M483 307l-207 -291q-10 -16 -30 -16h-199q-31 0 -12 25l330 442l-336 451q-18 24 12 24h203q19 0 32 -16l213 -293l218 293q13 16 32 16h199q30 0 12 -24l-342 -443l334 -450q19 -25 -12 -25h-203q-21 0 -31 16z" />
    <glyph glyph-name="y" unicode="y" horiz-adv-x="983" 
d="M780 942h170q28 0 19 -27l-553 -1364q-9 -18 -29 -18h-162q-27 0 -18 27l178 446l-371 909q-9 27 17 27h174q20 0 26 -16l252 -676l271 676q6 16 26 16z" />
    <glyph glyph-name="z" unicode="z" horiz-adv-x="927" 
d="M827 0h-725q-32 0 -16 31l440 729h-403q-19 0 -19 20v144q0 18 19 18h698q37 0 17 -33l-441 -727h430q19 0 19 -20v-142q0 -20 -19 -20z" />
    <glyph glyph-name="braceleft" unicode="{" horiz-adv-x="739" 
d="M154 627q56 13 98.5 62.5t42.5 119.5v328q0 101 33 184q42 98 172 98h114q25 0 25 -22v-135q0 -25 -25 -25h-67q-58 0 -58 -100v-320q0 -185 -153 -274q153 -89 153 -273v-319q0 -103 58 -103h67q25 0 25 -24v-133q0 -25 -25 -25h-114q-205 0 -205 285v325
q0 73 -42 121.5t-99 63.5q-15 3 -15 16v133q0 11 15 17z" />
    <glyph glyph-name="bar" unicode="|" horiz-adv-x="442" 
d="M317 1454v-1896q0 -25 -22 -25h-143q-25 0 -25 25l-2 1896q0 25 25 25h143q24 0 24 -25z" />
    <glyph glyph-name="braceright" unicode="}" horiz-adv-x="739" 
d="M193 1237h-70q-23 0 -23 25v135q0 22 23 22h115q133 0 172 -98q32 -81 32 -184v-328q0 -70 43.5 -119.5t100.5 -62.5q11 -5 14 -19v-131q0 -13 -14 -16q-59 -15 -101.5 -63.5t-42.5 -121.5v-325q0 -285 -204 -285h-115q-23 0 -23 25v133q0 24 23 24h70q55 0 55 103v319
q0 182 153 273q-153 91 -153 274v320q0 100 -55 100z" />
    <glyph glyph-name="asciitilde" unicode="~" horiz-adv-x="1159" 
d="M205 319q-10 -25 -29 -6l-102 107q-16 16 -6 35q42 117 124 187.5t181 70.5q75 0 140.5 -32t104.5 -77q100 -105 175 -102q51 0 86.5 45t70.5 139q9 32 33 8l100 -104q15 -18 9 -33q-42 -118 -124 -191.5t-182 -74.5q-63 0 -117.5 22.5t-92.5 55t-71 64t-68 52.5t-70 19
q-52 0 -86.5 -43.5t-75.5 -141.5z" />
    <glyph glyph-name="uni00A0" unicode="&#xa0;" horiz-adv-x="641" 
 />
    <glyph glyph-name="exclamdown" unicode="&#xa1;" horiz-adv-x="509" 
d="M170 1018h168q20 0 20 -21l4 -977q0 -20 -20 -20h-176q-21 0 -21 20l5 977q0 21 20 21zM256 1440q57 0 91 -34.5t34 -94.5q0 -57 -34 -91t-91 -34q-60 0 -94.5 34t-34.5 91q0 58 35 93.5t94 35.5z" />
    <glyph glyph-name="cent" unicode="&#xa2;" horiz-adv-x="1034" 
d="M645 754l-106 -578h18q171 0 254 127q18 21 31 8l116 -106q11 -11 5 -27q-133 -201 -406 -201q-6 0 -14.5 1t-20 2t-20.5 2l-35 -183q-3 -20 -25 -20h-75q-22 0 -19 20l39 205q-148 47 -233.5 171.5t-85.5 295.5q0 231 141 360q146 131 340 134h18l27 145q3 20 24 20h78
q20 0 17 -20l-31 -160q181 -40 289 -196q11 -18 -2 -27l-125 -102q-14 -14 -29 6q-66 97 -170 123zM424 203l104 561q-2 -2 -4 -2q-118 -11 -189 -90t-71 -201q0 -194 160 -268z" />
    <glyph glyph-name="sterling" unicode="&#xa3;" horiz-adv-x="1038" 
d="M870 0h-702q-28 0 -16 27q178 388 131 594h-160q-23 0 -23 24v84q0 25 23 25h108q-68 160 -71 290q3 176 112 285q114 111 285 111q226 0 373 -176q16 -16 -2 -33l-107 -115q-20 -20 -35 2q-102 123 -231 123q-84 -1 -136 -56.5t-52 -140.5q0 -54 26 -145q4 -10 18 -43
t25 -60t15 -42h241q23 0 23 -25v-84q0 -24 -23 -24h-207q28 -179 -63 -431h448q23 0 23 -22v-145q0 -23 -23 -23z" />
    <glyph glyph-name="currency" unicode="&#xa4;" horiz-adv-x="1196" 
d="M602 954q128 0 229 -61l111 119q12 12 27 0l114 -115q15 -15 0 -29l-118 -116q51 -89 51 -213q0 -137 -62 -232l127 -119q12 -12 0 -26l-114 -115q-15 -15 -29 0l-125 127q-88 -49 -211 -49q-116 0 -207 45l-125 -133q-12 -12 -26 0l-117 117q-12 14 0 26l123 121
q-66 104 -66 238q0 115 47 204l-122 117q-15 14 0 29l114 115q15 12 27 0l112 -115q106 65 240 65zM352 539q0 -110 69 -179t179 -69q112 0 180 68.5t70 179.5q0 112 -68.5 179.5t-181.5 69.5q-115 0 -182.5 -68t-65.5 -181z" />
    <glyph glyph-name="yen" unicode="&#xa5;" horiz-adv-x="1208" 
d="M498 20v232h-256q-21 0 -21 20v64q0 20 21 20h256v144h-256q-21 0 -21 20v64q0 20 21 20h227h6l-465 791q-15 24 15 24h186q19 0 29 -16l364 -649l365 649q10 16 30 16h185q29 0 14 -24l-465 -791h10h220q20 0 20 -20v-64q0 -20 -20 -20h-252v-144h252q20 0 20 -20v-64
q0 -20 -20 -20h-252v-232q0 -20 -21 -20h-172q-20 0 -20 20z" />
    <glyph glyph-name="brokenbar" unicode="&#xa6;" horiz-adv-x="442" 
d="M152 254h139q20 0 20 -21v-679q0 -21 -20 -21h-139q-21 0 -21 21v679q0 21 21 21zM152 1479h139q20 0 20 -21v-680q0 -20 -20 -20h-139q-21 0 -21 20v680q0 21 21 21z" />
    <glyph glyph-name="section" unicode="&#xa7;" horiz-adv-x="1124" 
d="M94 1071q-3 166 123 268q128 104 338 101q130 -1 235 -38.5t156 -84.5q14 -14 4 -33l-65 -137q-9 -22 -31 -6q-149 96 -309 96q-107 0 -173.5 -41.5t-66.5 -110.5q0 -73 57 -110q61 -36 222 -76q226 -55 326 -141.5t104 -239.5q3 -137 -88 -242q92 -83 86 -233
q-3 -171 -133 -260q-131 -93 -330 -90q-166 3 -285 55q-124 54 -170 100q-14 9 -4 29l82 135q10 19 31 4q58 -49 156 -85.5t206 -36.5q104 0 170 40.5t66 116.5q0 66 -58 103t-217 69q-221 44 -324 138t-108 253q-3 132 84 236q-81 81 -84 221zM305 629q0 -78 62.5 -124.5
t216.5 -84.5q85 -23 139 -41q78 44 78 129q0 71 -63 118.5t-212 78.5q-83 17 -145 43q-76 -46 -76 -119z" />
    <glyph glyph-name="dieresis" unicode="&#xa8;" horiz-adv-x="729" 
d="M106 1235q-32 35 -32 90t32 90q35 35 90.5 35t90.5 -35t35 -90t-35 -90t-90.5 -35t-90.5 35zM406 1325q2 56 35.5 90.5t88.5 34.5q54 0 88.5 -35t34.5 -90t-34.5 -90t-88.5 -35q-57 0 -90.5 34.5t-33.5 90.5z" />
    <glyph glyph-name="copyright" unicode="&#xa9;" horiz-adv-x="1656" 
d="M1157 469q-108 -156 -321 -156q-176 0 -285 109q-109 112 -109 287q0 151 86 254q85 102 203 129t238 -13q124 -38 190 -137q9 -19 -2 -27l-94 -84q-16 -13 -31 9q-75 90 -196 90q-100 0 -160 -60.5t-60 -160.5t60 -161t160 -61q132 0 196 88q16 19 35 7l88 -82
q17 -10 2 -31zM98 709q0 331 199 530q201 201 530 201q330 0 531 -201t201 -530t-203 -529q-200 -200 -529 -200q-328 0 -528 200q-201 201 -201 529zM240 709q0 -265 161 -426q165 -160 426 -160q263 0 428 160q162 162 162 426q0 266 -162 428q-161 161 -428 161
q-265 0 -426 -161t-161 -428z" />
    <glyph glyph-name="ordfeminine" unicode="&#xaa;" horiz-adv-x="886" 
d="M662 1434h104q20 0 20 -21v-629q0 -22 -22 -22h-105q-18 0 -24 20l-17 74q-88 -108 -229 -108q-152 0 -245 96t-93 254t93 254t245 96q147 0 229 -107l19 72q6 21 25 21zM412 913q85 0 137.5 51.5t52.5 135.5q0 82 -52.5 132t-137.5 50q-87 0 -139 -50t-52 -134
t52 -134.5t139 -50.5z" />
    <glyph glyph-name="guillemotleft" unicode="&#xab;" horiz-adv-x="1052" 
d="M516 530v31q0 23 14 37l289 311q15 15 35 0l90 -90q19 -16 0 -35l-227 -239l227 -238q16 -19 0 -35l-90 -90q-20 -17 -35 0l-289 310q-14 14 -14 38zM453 909l90 -90q17 -17 2 -35l-228 -239l228 -238q12 -21 -2 -35l-90 -90q-19 -19 -35 0l-289 310q-14 14 -14 38v31
q0 23 14 37l289 311q16 16 35 0z" />
    <glyph glyph-name="logicalnot" unicode="&#xac;" horiz-adv-x="1284" 
d="M1137 793v-420q0 -23 -23 -23h-135q-23 0 -23 23v262h-786q-23 0 -23 24v132q0 23 23 26h942q25 0 25 -24z" />
    <glyph glyph-name="uni00AD" unicode="&#xad;" horiz-adv-x="681" 
 />
    <glyph glyph-name="registered" unicode="&#xae;" horiz-adv-x="1638" 
d="M90 709q0 331 199 530q201 201 530 201q328 0 529 -201q200 -200 200 -530q0 -329 -200 -529t-529 -200q-328 0 -528 200q-201 201 -201 529zM819 1298q-265 0 -426 -161q-162 -162 -162 -428q0 -262 162 -424t426 -162q263 0 428 160q162 162 162 426q0 266 -162 428
q-161 161 -428 161zM1104 872q0 -87 -46 -145.5t-128 -77.5l178 -299q12 -24 -16 -24h-134q-22 0 -28 16l-160 295h-57v-287q0 -24 -27 -24h-119q-26 0 -26 26v727q0 23 24 23h289q116 0 183 -62.5t67 -167.5zM713 946v-162h133q94 0 94 82q0 80 -94 80h-133z" />
    <glyph glyph-name="overscore" unicode="&#xaf;" horiz-adv-x="665" 
d="M86 1421h494q20 3 20 -18v-115q0 -20 -20 -20h-494q-20 0 -20 20v115q0 18 20 18z" />
    <glyph glyph-name="degree" unicode="&#xb0;" horiz-adv-x="866" 
d="M82 1104q0 158 97 255t255 97t254 -97t96 -255q0 -156 -96 -252t-254 -96q-155 0 -256 96q-96 96 -96 252zM262 1104q0 -75 48.5 -122.5t123.5 -47.5q74 0 122 47.5t48 122.5q0 79 -47 125.5t-123 46.5q-78 0 -125 -47t-47 -125z" />
    <glyph glyph-name="plusminus" unicode="&#xb1;" horiz-adv-x="1206" 
d="M680 362h-154q-20 0 -20 21v295h-330q-20 0 -20 20v144q0 20 20 20h330v295q0 21 20 21h154q20 0 20 -21v-295h330q21 0 21 -20v-144q0 -20 -21 -20h-330v-295q0 -21 -20 -21zM1047 221v-125q0 -22 -23 -22h-840q-22 0 -22 22v125q0 23 22 23h840q23 0 23 -23z" />
    <glyph glyph-name="twosuperior" unicode="&#xb2;" horiz-adv-x="675" 
d="M557 944l-197 -260h244q21 0 21 -20v-123q0 -21 -21 -21h-524q-44 0 -21 39l340 469l9 12q55 82 55 136q0 43 -29.5 70.5t-73.5 27.5q-83 0 -143 -72q-12 -15 -27 0l-79 96q-13 12 0 25q99 117 258 117q123 0 194.5 -68t71.5 -194q0 -77 -35 -154q-7 -14 -18 -34
t-18 -32.5t-7 -13.5z" />
    <glyph glyph-name="threesuperior" unicode="&#xb3;" horiz-adv-x="700" 
d="M264 948v90q0 21 21 21h55q45 0 73.5 32.5t28.5 88.5q0 44 -27.5 72t-70.5 30q-76 0 -141 -68q-14 -17 -23 -2l-76 91q-12 14 -2 24q98 113 254 113q117 0 188.5 -67.5t71.5 -176.5q0 -126 -81 -201q110 -70 110 -219q0 -123 -82 -199.5t-217 -76.5q-129 0 -210.5 71.5
t-88.5 192.5q0 20 21 20h131q16 0 16 -16q4 -47 38.5 -73.5t90.5 -26.5q57 0 91 34t34 91q0 61 -30 97.5t-85 37.5h-69q-24 0 -21 20z" />
    <glyph glyph-name="acute" unicode="&#xb4;" horiz-adv-x="563" 
d="M395 1487l99 -121q14 -14 -5 -27l-337 -229q-14 -14 -29 2l-53 66q-9 15 2 26l295 283q14 17 28 0z" />
    <glyph glyph-name="mu" unicode="&#xb5;" horiz-adv-x="1134" 
d="M805 485v435q0 22 22 22h156q21 0 21 -20l2 -902q0 -20 -23 -20h-123q-16 0 -22 20l-23 127q-111 -170 -323 -170q-97 0 -164 43v-458q0 -27 -27 -27h-145q-27 0 -27 27v1360q0 20 21 20h159q21 0 21 -20v-496q0 -258 217 -258q108 0 180 86.5t78 230.5z" />
    <glyph glyph-name="paragraph" unicode="&#xb6;" horiz-adv-x="1165" 
d="M811 1231h-176v-1307q-3 -22 -23 -22h-129q-22 0 -22 22v746q-171 0 -273 102q-102 105 -102 272q0 169 102 271q101 104 273 104h65h4h527q22 0 22 -20v-146q0 -22 -22 -22h-72v-1307q0 -22 -20 -22h-129q-25 0 -25 24v1305z" />
    <glyph glyph-name="middot" unicode="&#xb7;" horiz-adv-x="432" 
d="M68 571q0 68 41 110t108 42q66 0 107 -42t41 -110q0 -66 -41 -106.5t-107 -40.5q-67 0 -108 40.5t-41 106.5z" />
    <glyph glyph-name="cedilla" unicode="&#xb8;" horiz-adv-x="600" 
d="M225 0h160l-33 -76q183 -21 183 -174q0 -89 -65.5 -141.5t-170.5 -52.5q-132 0 -225 75q-16 10 -4 25l43 65q10 13 26 5q68 -41 146 -41q43 0 69.5 19.5t26.5 51.5q0 64 -115 64h-100q-21 0 -12 18z" />
    <glyph glyph-name="onesuperior" unicode="&#xb9;" horiz-adv-x="448" 
d="M63 1421h259q22 0 22 -22v-856q0 -25 -22 -25h-134q-24 0 -24 25v710h-98q-22 0 -25 23v123q0 22 22 22z" />
    <glyph glyph-name="ordmasculine" unicode="&#xba;" horiz-adv-x="800" 
d="M399 1450q158 0 254.5 -96t96.5 -254t-96.5 -255t-254.5 -97q-156 0 -252 96q-96 101 -96 256q0 158 96 254t252 96zM219 1100q0 -85 49 -136t131 -51t131.5 51t49.5 136q0 81 -50.5 131.5t-130.5 50.5q-82 0 -131 -50t-49 -132z" />
    <glyph glyph-name="guillemotright" unicode="&#xbb;" horiz-adv-x="1054" 
d="M545 561v-31q0 -23 -15 -38l-288 -310q-16 -19 -35 0l-90 90q-19 19 0 35l225 238l-225 239q-19 19 0 35l90 90q19 16 35 0l288 -311q15 -15 15 -37zM518 819l90 90q19 16 35 0l289 -311q14 -14 14 -37v-31q0 -24 -14 -38l-289 -310q-16 -19 -35 0l-90 90q-18 18 -2 35
l227 238l-227 239q-16 16 2 35z" />
    <glyph glyph-name="onequarter" unicode="&#xbc;" horiz-adv-x="1648" 
d="M1552 299v-100q3 -21 -18 -21h-94v-155q0 -23 -21 -23h-137q-22 0 -22 23v155h-412q-38 0 -23 35l377 670q13 19 31 16h186q21 0 21 -20v-562h92q20 0 20 -18zM285 27l813 1437q6 15 26 15h158q12 0 17 -6.5t-1 -16.5l-813 -1442q-6 -14 -26 -14h-158q-31 0 -16 27z
M217 543v710h-98q-25 0 -25 23v123q0 22 23 22h258q22 0 22 -22v-856q0 -25 -22 -25h-133q-25 0 -25 25zM1040 317h220v383z" />
    <glyph glyph-name="onehalf" unicode="&#xbd;" horiz-adv-x="1671" 
d="M287 29l811 1435q6 15 26 15h156q27 0 18 -25l-813 -1440q-6 -14 -26 -14h-156q-32 0 -16 29zM117 1421h258q22 0 22 -22v-856q0 -25 -22 -25h-133q-25 0 -25 25v710h-98q-23 0 -23 23v123q0 22 21 22zM1501 426l-35 -45l-84 -111l-79 -106h245q19 0 19 -21v-120
q0 -23 -19 -23h-526q-43 3 -18 39l339 471l17 27q45 70 45 120q0 43 -27.5 70t-74.5 27q-86 0 -144 -70q-12 -15 -24 0l-82 96q-13 12 0 25q99 117 260 117q122 0 193 -69.5t71 -193.5q-1 -36 -7.5 -70.5t-17 -61.5t-19.5 -45t-20 -36t-12 -20z" />
    <glyph glyph-name="threequarters" unicode="&#xbe;" horiz-adv-x="1880" 
d="M483 29l807 1427q13 23 39 23h148q34 0 18 -25l-807 -1431q-13 -23 -41 -23h-145q-35 0 -19 29zM315 948v90q0 21 21 21h55q48 2 75.5 33.5t27.5 87.5q0 44 -28 72t-71 30q-74 0 -139 -68q-15 -15 -25 -2l-75 91q-9 15 0 24q98 113 252 113q117 0 189.5 -67.5
t72.5 -176.5q0 -123 -84 -201q110 -70 110 -219q0 -123 -82 -199.5t-217 -76.5q-127 0 -209 72.5t-88 191.5q-3 20 19 20h131q16 0 16 -16q5 -45 40 -72.5t89 -27.5q57 0 92 34t35 91q0 61 -29.5 97.5t-84.5 37.5h-72q-21 0 -21 20zM1786 299v-100q0 -21 -21 -21h-92v-155
q0 -23 -22 -23h-138q-23 0 -20 23v155h-414q-37 0 -22 35l377 670q11 19 30 16h187q19 0 22 -20v-562h92q21 0 21 -18zM1274 317h219l-2 383z" />
    <glyph glyph-name="questiondown" unicode="&#xbf;" horiz-adv-x="974" 
d="M432 1004q3 20 23 20h178q20 0 20 -20q-9 -175 -129 -295q-13 -13 -48 -47t-51.5 -50.5t-43 -48.5t-39 -56t-23 -57.5t-10.5 -66.5q1 -93 57 -147t148 -54q142 0 250 135q12 18 27 0l110 -122q15 -15 0 -31q-153 -184 -397 -184q-176 0 -291 106q-115 109 -115 276
q0 94 31.5 173.5t81.5 132.5q18 19 55.5 56.5t60 62.5t49 61t40.5 74.5t16 81.5zM668 1309q0 -57 -35.5 -92t-95.5 -35q-59 0 -94 35t-35 92q0 59 36 95t93 36q58 0 94.5 -36t36.5 -95z" />
    <glyph glyph-name="Agrave" unicode="&#xc0;" horiz-adv-x="1345" 
d="M1124 14l-153 389h-596l-156 -389q-3 -14 -20 -14h-172q-27 0 -17 23l547 1378q6 18 27 18h178q20 0 26 -18l547 -1378q10 -23 -16 -23h-172q-17 0 -23 14zM899 588l-225 571l-228 -571h453zM801 1452l-385 201q-17 13 -4 26l77 131q10 22 31 7l348 -258q16 -10 6 -27
l-47 -74q-10 -19 -26 -6z" />
    <glyph glyph-name="Aacute" unicode="&#xc1;" horiz-adv-x="1345" 
d="M1124 14l-153 389h-596l-156 -389q-3 -14 -20 -14h-172q-27 0 -17 23l547 1378q6 18 27 18h178q20 0 26 -18l547 -1378q10 -23 -16 -23h-172q-17 0 -23 14zM899 588l-225 571l-228 -571h453zM852 1815l80 -132q13 -19 -8 -28l-381 -201q-20 -10 -29 6l-45 74q-14 17 6 27
l348 258q19 16 29 -4z" />
    <glyph glyph-name="Acircumflex" unicode="&#xc2;" horiz-adv-x="1345" 
d="M1124 14l-153 389h-596l-156 -389q-3 -14 -20 -14h-172q-27 0 -17 23l547 1378q6 18 27 18h178q20 0 26 -18l547 -1378q10 -23 -16 -23h-172q-17 0 -23 14zM899 588l-225 571l-228 -571h453zM801 1534l-127 108l-129 -108q-17 -10 -25 -10h-178q-26 0 -6 20l239 203
q12 12 29 12h139q15 0 27 -12l240 -203q23 -20 -9 -20h-174q-9 0 -26 10z" />
    <glyph glyph-name="Atilde" unicode="&#xc3;" horiz-adv-x="1345" 
d="M1124 14l-153 389h-596l-156 -389q-3 -14 -20 -14h-172q-27 0 -17 23l547 1378q6 18 27 18h178q20 0 26 -18l547 -1378q10 -23 -16 -23h-172q-17 0 -23 14zM899 588l-225 571l-228 -571h453zM473 1534q-8 -25 -27 -10l-55 53q-13 13 -10 27q29 82 80.5 131t107.5 49
q37 0 68 -15t51 -37t38 -44t39.5 -37t45.5 -15q65 3 102 103q10 22 27 8l57 -53q15 -9 9 -25q-26 -83 -78.5 -131.5t-110.5 -48.5q-37 0 -68 15t-51 36.5t-38 43.5t-39.5 37t-45.5 15q-66 -3 -102 -102z" />
    <glyph glyph-name="Adieresis" unicode="&#xc4;" horiz-adv-x="1345" 
d="M1124 14l-153 389h-596l-156 -389q-3 -14 -20 -14h-172q-27 0 -17 23l547 1378q6 18 27 18h178q20 0 26 -18l547 -1378q10 -23 -16 -23h-172q-17 0 -23 14zM899 588l-225 571l-228 -571h453zM383 1620q0 57 33.5 91t89.5 34q56 1 90.5 -33.5t34.5 -91.5q0 -54 -35 -88.5
t-90 -34.5t-89 34.5t-34 88.5zM715 1620q0 57 33.5 91t89.5 34q55 1 89 -33.5t34 -91.5q0 -54 -34 -88.5t-89 -34.5t-89 34.5t-34 88.5z" />
    <glyph glyph-name="Aring" unicode="&#xc5;" horiz-adv-x="1345" 
d="M1124 14l-153 389h-596l-156 -389q-3 -14 -20 -14h-172q-27 0 -17 23l547 1378q6 18 27 18h178q20 0 26 -18l547 -1378q10 -23 -16 -23h-172q-17 0 -23 14zM899 588l-225 571l-228 -571h453zM666 1833q88 0 140 -52.5t52 -138.5t-52 -138t-140 -52q-85 0 -137 52t-52 138
t52 138.5t137 52.5zM602 1706q-23 -23 -23 -63.5t25 -65.5t63.5 -25t63.5 25t25 65.5t-25 63.5q-23 25 -63.5 25t-65.5 -25z" />
    <glyph glyph-name="AE" unicode="&#xc6;" horiz-adv-x="1671" 
d="M203 0h-180q-17 0 -22 8.5t3 20.5l748 1374q9 18 30 18h770q23 0 23 -24v-142q0 -24 -23 -24h-448v-412h352q21 0 21 -22v-146q0 -20 -21 -20h-352v-441h469q20 0 20 -20v-150q0 -20 -18 -20h-662q-20 3 -20 23v385h-455l-209 -392q-10 -16 -26 -16zM893 1262l-358 -670
h358v670z" />
    <glyph glyph-name="Ccedilla" unicode="&#xc7;" horiz-adv-x="1382" 
d="M1315 168q-197 -188 -512 -188q-325 0 -524 202q-201 204 -201 527q0 237 106 403q106 165 266 246.5t353 81.5q302 3 508 -191q14 -12 0 -26l-103 -125q-9 -16 -28 0q-157 136 -377 133q-227 3 -371 -144q-141 -144 -141 -378q0 -233 141 -377t371 -144q220 0 377 136
q19 16 28 0l107 -127q15 -15 0 -29zM739 0h152l-31 -72q172 -21 172 -166q0 -85 -62 -134.5t-161 -49.5q-126 0 -213 72q-16 10 -4 22l41 64q10 10 24 4q59 -39 140 -39q41 0 65.5 18.5t24.5 49.5q0 59 -109 59h-96q-19 0 -10 18z" />
    <glyph glyph-name="Egrave" unicode="&#xc8;" horiz-adv-x="1071" 
d="M856 627h-485v-428h602q20 0 20 -21v-160q0 -18 -18 -18h-797q-18 0 -18 20v1381q0 20 20 20h774q19 0 19 -20v-160q0 -18 -19 -18h-583v-400h485q21 0 21 -20v-156q0 -20 -21 -20zM670 1452l-383 201q-19 10 -6 26l77 131q12 19 33 7l348 -258q12 -12 6 -27l-47 -74
q-9 -15 -28 -6z" />
    <glyph glyph-name="Eacute" unicode="&#xc9;" horiz-adv-x="1071" 
d="M856 627h-485v-428h602q20 0 20 -21v-160q0 -18 -18 -18h-797q-18 0 -18 20v1381q0 20 20 20h774q19 0 19 -20v-160q0 -18 -19 -18h-583v-400h485q21 0 21 -20v-156q0 -20 -21 -20zM772 1815l80 -132q13 -19 -8 -28l-381 -201q-20 -10 -29 6l-45 74q-14 17 6 27l348 258
q19 16 29 -4z" />
    <glyph glyph-name="Ecircumflex" unicode="&#xca;" horiz-adv-x="1071" 
d="M856 627h-485v-428h602q20 0 20 -21v-160q0 -18 -18 -18h-797q-18 0 -18 20v1381q0 20 20 20h774q19 0 19 -20v-160q0 -18 -19 -18h-583v-400h485q21 0 21 -20v-156q0 -20 -21 -20zM711 1522l-129 108l-127 -108q-18 -11 -27 -11h-176q-12 0 -14 5.5t8 13.5l239 205
q12 12 27 12h139q17 0 29 -12l240 -205q10 -8 6 -13.5t-15 -5.5h-176q-6 0 -24 11z" />
    <glyph glyph-name="Edieresis" unicode="&#xcb;" horiz-adv-x="1071" 
d="M856 627h-485v-428h602q20 0 20 -21v-160q0 -18 -18 -18h-797q-18 0 -18 20v1381q0 20 20 20h774q19 0 19 -20v-160q0 -18 -19 -18h-583v-400h485q21 0 21 -20v-156q0 -20 -21 -20zM289 1628q0 54 31.5 86.5t85.5 32.5t86 -32.5t32 -86.5q0 -52 -32.5 -84.5t-85.5 -32.5
t-85 32.5t-32 84.5zM606 1628q0 56 31 87.5t86 31.5q54 0 85.5 -32.5t31.5 -86.5q0 -51 -33 -84t-84 -33q-55 0 -86 31.5t-31 85.5z" />
    <glyph glyph-name="Igrave" unicode="&#xcc;" horiz-adv-x="528" 
d="M371 1401v-1383q0 -18 -21 -18h-172q-18 0 -18 18v1383q0 20 18 20h172q21 0 21 -20zM385 1452l-383 201q-22 10 -6 26l78 131q15 22 30 7l349 -258q15 -12 6 -27l-47 -74q-6 -18 -27 -6z" />
    <glyph glyph-name="Iacute" unicode="&#xcd;" horiz-adv-x="528" 
d="M371 1401v-1383q0 -18 -21 -18h-172q-18 0 -18 18v1383q0 20 18 20h172q21 0 21 -20zM444 1815l80 -132q13 -19 -8 -28l-381 -201q-20 -10 -29 6l-45 74q-13 17 7 27l348 258q18 15 28 -4z" />
    <glyph glyph-name="Icircumflex" unicode="&#xce;" horiz-adv-x="528" 
d="M371 1401v-1383q0 -18 -21 -18h-172q-18 0 -18 18v1383q0 20 18 20h172q21 0 21 -20zM162 1731l35 38h141q12 0 27 -12l251 -217q10 -8 8 -14t-16 -6h-182q-14 0 -29 12zM-92 1540l252 217q15 12 28 12h142l32 -38l-235 -199q-12 -12 -27 -12h-184q-14 0 -16 6t8 14z" />
    <glyph glyph-name="Idieresis" unicode="&#xcf;" horiz-adv-x="528" 
d="M371 1401v-1383q0 -18 -21 -18h-172q-18 0 -18 18v1383q0 20 18 20h172q21 0 21 -20zM-25 1628q0 57 33 91t90 34q55 1 89 -33.5t34 -91.5q0 -54 -34 -88.5t-89 -34.5q-56 0 -89.5 33.5t-33.5 89.5zM307 1628q0 57 33.5 91t89.5 34q55 1 89 -33.5t34 -91.5
q0 -54 -34 -88.5t-89 -34.5t-89 34.5t-34 88.5z" />
    <glyph glyph-name="Eth" unicode="&#xd0;" horiz-adv-x="1378" 
d="M580 0h-402q-18 0 -18 20v615h-101q-20 0 -20 20v95q0 20 20 20h101v631q0 20 20 20h400q330 0 528 -192q199 -193 199 -518q0 -328 -199 -521q-199 -190 -528 -190zM371 635v-436h209q237 0 374 137q142 139 142 375q0 235 -142 374q-143 140 -376 140h-207v-455h274
q19 0 19 -20v-95q0 -20 -19 -20h-274z" />
    <glyph glyph-name="Ntilde" unicode="&#xd1;" horiz-adv-x="1464" 
d="M1114 1421h172q21 0 21 -20l-2 -1381q0 -20 -19 -20h-203q-13 0 -22 12l-690 1069v-1061q0 -20 -21 -20h-172q-20 0 -20 20v1381q0 20 20 20h203q17 0 25 -14l688 -1065v1059q0 20 20 20zM506 1530q-10 -24 -27 -10l-59 55q-11 6 -8 24q29 86 81.5 136.5t112.5 50.5
q38 0 69 -16t51.5 -38.5t39 -45t41 -37.5t47.5 -13q63 0 104 103q10 23 29 10l60 -55q11 -6 8 -25q-29 -86 -81.5 -135t-113.5 -49q-38 0 -69.5 16t-52.5 39t-40 45t-41 36.5t-47 12.5q-64 -3 -104 -104z" />
    <glyph glyph-name="Ograve" unicode="&#xd2;" horiz-adv-x="1615" 
d="M1536 711q0 -330 -201 -531q-198 -198 -526 -198q-330 0 -530 200q-201 201 -201 529q0 327 201 528q204 201 530 201q325 0 526 -201t201 -528zM809 190q232 0 373 144q143 143 143 377q0 233 -143 376q-141 144 -373 144q-233 0 -377 -144q-141 -141 -141 -376
t141 -379q145 -142 377 -142zM911 1460l-385 201q-6 5 -8 13t4 14l78 131q9 22 31 6l348 -258q15 -12 6 -27l-47 -74q-10 -20 -27 -6z" />
    <glyph glyph-name="Oacute" unicode="&#xd3;" horiz-adv-x="1615" 
d="M1536 711q0 -330 -201 -531q-198 -198 -526 -198q-330 0 -530 200q-201 201 -201 529q0 327 201 528q204 201 530 201q325 0 526 -201t201 -528zM809 190q232 0 373 144q143 143 143 377q0 233 -143 376q-141 144 -373 144q-233 0 -377 -144q-141 -141 -141 -376
t141 -379q145 -142 377 -142zM997 1815l80 -132q13 -19 -8 -28l-381 -201q-20 -10 -29 6l-45 74q-13 17 7 27l348 258q18 15 28 -4z" />
    <glyph glyph-name="Ocircumflex" unicode="&#xd4;" horiz-adv-x="1615" 
d="M80 711q0 327 201 528t530 201q325 0 526 -201t201 -528t-201 -531q-200 -200 -526 -200q-330 0 -530 200q-201 204 -201 531zM291 711q0 -235 141 -379q144 -144 379 -144q232 0 373 144q143 143 143 379q3 235 -141 379q-140 143 -375 143q-236 0 -379 -143
q-144 -144 -141 -379zM932 1534l-129 111l-129 -111q-13 -8 -25 -8h-178q-24 0 -6 18l240 205q12 12 28 12h139q18 0 27 -12l240 -205q21 -18 -9 -18h-174q-13 0 -24 8z" />
    <glyph glyph-name="Otilde" unicode="&#xd5;" horiz-adv-x="1615" 
d="M1536 711q0 -330 -201 -531q-198 -198 -526 -198q-330 0 -530 200q-201 201 -201 529q0 327 201 528q204 201 530 201q325 0 526 -201t201 -528zM809 190q232 0 373 144q143 143 143 377q0 233 -143 376q-141 144 -373 144q-233 0 -377 -144q-141 -141 -141 -376
t141 -379q145 -142 377 -142zM584 1530q-10 -26 -29 -10l-57 55q-15 9 -9 24q29 85 82 136t111 51q38 0 69 -16t52 -38.5t40 -45t41.5 -37.5t47.5 -13q63 0 104 103q10 24 27 10l61 -55q12 -6 9 -25q-29 -86 -81.5 -135t-113.5 -49q-38 0 -69.5 16t-52.5 39t-40 45t-41 36.5
t-47 12.5q-67 -3 -104 -104z" />
    <glyph glyph-name="Odieresis" unicode="&#xd6;" horiz-adv-x="1615" 
d="M1536 711q0 -330 -201 -531q-198 -198 -526 -198q-330 0 -530 200q-201 201 -201 529q0 327 201 528q204 201 530 201q325 0 526 -201t201 -528zM809 190q232 0 373 144q143 143 143 377q0 233 -143 376q-141 144 -373 144q-233 0 -377 -144q-141 -141 -141 -376
t141 -379q145 -142 377 -142zM518 1628q0 57 33.5 91t89.5 34q56 1 90.5 -33.5t34.5 -91.5q0 -54 -35 -88.5t-90 -34.5t-89 34.5t-34 88.5zM852 1628q0 57 33 91t88 34q55 1 89 -33.5t34 -91.5q0 -56 -34 -89.5t-89 -33.5t-88 33.5t-33 89.5z" />
    <glyph glyph-name="multiply" unicode="&#xd7;" horiz-adv-x="993" 
d="M367 655l-236 236q-16 16 0 29l100 102q15 14 29 0l236 -238l237 238q15 14 29 0l104 -102q13 -16 0 -29l-237 -238l235 -235q13 -16 0 -29l-100 -102q-16 -13 -29 0l-237 235l-236 -235q-16 -16 -29 0l-104 102q-13 16 0 29z" />
    <glyph glyph-name="Oslash" unicode="&#xd8;" horiz-adv-x="1566" 
d="M1536 711q0 -330 -201 -531q-198 -198 -526 -198q-330 0 -530 200q-201 201 -201 529q0 327 201 528q204 201 530 201q325 0 526 -201t201 -528zM809 190q232 0 373 144q143 143 143 377q0 233 -143 376q-141 144 -373 144q-233 0 -377 -144q-141 -141 -141 -376
t141 -379q145 -142 377 -142zM135 47l1237 1380q14 17 31 3l61 -56q14 -14 0 -28l-1237 -1383q-14 -14 -28 0l-62 55q-15 12 -2 29z" />
    <glyph glyph-name="Ugrave" unicode="&#xd9;" horiz-adv-x="1345" 
d="M141 557v844q0 18 21 18h172q20 0 20 -18v-846q0 -175 85 -270t235 -95q148 0 232 95t83 270v846q0 18 21 18h174q18 0 18 -18v-846q0 -276 -147 -426q-147 -147 -381 -147q-236 0 -385 149q-148 151 -148 426zM760 1452l-383 201q-22 10 -6 26l78 131q15 22 30 7
l348 -258q16 -13 7 -27l-48 -74q-6 -18 -26 -6z" />
    <glyph glyph-name="Uacute" unicode="&#xda;" horiz-adv-x="1345" 
d="M141 557v844q0 18 21 18h172q20 0 20 -18v-846q0 -175 85 -270t235 -95q148 0 232 95t83 270v846q0 18 21 18h174q18 0 18 -18v-846q0 -276 -147 -426q-147 -147 -381 -147q-236 0 -385 149q-148 151 -148 426zM852 1815l80 -132q13 -19 -8 -28l-381 -201q-20 -10 -29 6
l-45 74q-14 17 6 27l348 258q19 16 29 -4z" />
    <glyph glyph-name="Ucircumflex" unicode="&#xdb;" horiz-adv-x="1345" 
d="M141 557v844q0 20 21 20h170q20 0 20 -20v-844q0 -177 85.5 -273t234.5 -96t234 96t85 273v844q0 20 19 20h172q20 0 20 -20v-844q-3 -277 -149 -426q-145 -148 -381 -151q-237 0 -383 149q-148 151 -148 428zM801 1534l-127 111l-129 -111q-13 -8 -25 -8h-178
q-24 0 -6 18l239 205q12 12 27 12h141q15 0 27 -12l240 -205q21 -18 -9 -18h-174q-13 0 -26 8z" />
    <glyph glyph-name="Udieresis" unicode="&#xdc;" horiz-adv-x="1345" 
d="M141 557v844q0 18 21 18h172q20 0 20 -18v-846q0 -175 85 -270t235 -95q148 0 232 95t83 270v846q0 18 21 18h174q18 0 18 -18v-846q0 -276 -147 -426q-147 -147 -381 -147q-236 0 -385 149q-148 151 -148 426zM383 1628q0 57 33.5 91t89.5 34q56 1 90.5 -33.5
t34.5 -91.5q0 -54 -35 -88.5t-90 -34.5t-89 34.5t-34 88.5zM717 1628q0 57 33 91t90 34q55 1 88 -33.5t33 -91.5q0 -56 -33 -89.5t-88 -33.5q-56 0 -89.5 33.5t-33.5 89.5z" />
    <glyph glyph-name="Yacute" unicode="&#xdd;" horiz-adv-x="1208" 
d="M498 18v547l-488 830q-15 24 15 24h186q19 0 29 -16l364 -649l365 649q10 16 28 16h187q29 0 14 -24l-487 -828v-549q0 -18 -21 -18h-172q-20 0 -20 18zM784 1815l80 -132q13 -19 -8 -28l-381 -201q-20 -10 -29 6l-45 74q-13 17 7 27l348 258q18 15 28 -4z" />
    <glyph glyph-name="Thorn" unicode="&#xde;" horiz-adv-x="1128" 
d="M139 23v1376q0 22 23 22h170q20 0 20 -20v-266h240q210 0 332.5 -114.5t124.5 -309.5q-2 -195 -124.5 -309.5t-332.5 -114.5h-240v-264q0 -23 -22 -23h-168q-23 0 -23 23zM580 936h-228v-451h228q120 -2 188 56.5t68 167.5q0 111 -68 170t-188 57z" />
    <glyph glyph-name="germandbls" unicode="&#xdf;" horiz-adv-x="1171" 
d="M592 197q59 -41 129 -41q72 1 116 39.5t44 95.5q0 51 -34.5 101t-83.5 92.5t-98 86.5t-83.5 99t-34.5 114q0 37 19 74.5t46.5 68t55 59.5t46.5 60.5t19 59.5q0 67 -44.5 104t-115.5 37q-76 0 -120 -37.5t-70 -107.5q-15 -38 -21 -96q-8 -101 -8 -215v-29v-742
q0 -20 -22 -20h-166q-25 0 -25 23v952q0 213 114.5 340.5t313.5 128.5q160 -3 269 -92q106 -87 106 -246q0 -49 -19.5 -91t-48 -71.5t-57 -55t-49 -54t-22.5 -56.5q0 -26 25.5 -54t64 -53t83.5 -62t83.5 -77.5t64 -102.5t25.5 -134q0 -154 -107 -252q-104 -98 -266 -98
q-94 0 -209 53q-19 8 -10 33l63 157q6 21 27 9z" />
    <glyph glyph-name="agrave" unicode="&#xe0;" horiz-adv-x="1193" 
d="M868 801l29 125q9 18 23 18h127q18 0 18 -20v-904q0 -20 -21 -20h-126q-14 0 -23 18l-27 123q-109 -161 -325 -161q-211 -3 -344 133q-131 137 -131 358q0 220 131 354q132 135 344 138q215 0 325 -162zM557 176q134 0 216 81t83 214q-3 133 -86 213t-213 80
q-131 0 -213 -82q-80 -80 -80 -211t81.5 -213t211.5 -82zM649 1065l-336 227q-17 13 -4 29l99 119q12 15 28 2l297 -287q8 -8 2 -22l-59 -66q-10 -16 -27 -2z" />
    <glyph glyph-name="aacute" unicode="&#xe1;" horiz-adv-x="1193" 
d="M868 801l29 125q9 18 23 18h127q18 0 18 -20v-904q0 -20 -21 -20h-126q-14 0 -23 18l-27 123q-109 -161 -325 -161q-211 -3 -344 133q-131 137 -131 358q0 220 131 354q132 135 344 138q215 0 325 -162zM557 176q134 0 216 81t83 214q-3 133 -86 213t-213 80
q-131 0 -213 -82q-80 -80 -80 -211t81.5 -213t211.5 -82zM770 1436l100 -123q15 -15 -4 -31l-346 -238q-15 -15 -31 5l-55 67q-14 14 2 27l303 295q19 10 31 -2z" />
    <glyph glyph-name="acircumflex" unicode="&#xe2;" horiz-adv-x="1193" 
d="M868 801l29 125q9 18 23 18h127q18 0 18 -20v-904q0 -20 -21 -20h-126q-14 0 -23 18l-27 123q-109 -161 -325 -161q-211 -3 -344 133q-131 137 -131 358q0 220 131 354q132 135 344 138q215 0 325 -162zM557 176q134 0 216 81t83 214q-3 133 -86 213t-213 80
q-131 0 -213 -82q-80 -80 -80 -211t81.5 -213t211.5 -82zM258 1108l211 272q10 13 27 13h147q19 0 29 -13l207 -270q15 -18 -9 -18h-153q-14 0 -21 10l-127 170l-125 -168q-6 -12 -24 -12h-154q-21 0 -8 16z" />
    <glyph glyph-name="atilde" unicode="&#xe3;" horiz-adv-x="1193" 
d="M868 801l29 125q9 18 23 18h127q18 0 18 -20v-904q0 -20 -21 -20h-126q-14 0 -23 18l-27 123q-109 -161 -325 -161q-211 -3 -344 133q-131 137 -131 358q0 220 131 354q132 135 344 138q215 0 325 -162zM557 176q134 0 216 81t83 214q-3 133 -86 213t-213 80
q-131 0 -213 -82q-80 -80 -80 -211t81.5 -213t211.5 -82zM356 1126q-10 -22 -28 -10l-58 53q-11 11 -8 23q29 85 82 134.5t111 49.5q38 0 68 -15.5t49.5 -37.5t37 -43.5t39 -36t47.5 -12.5q68 3 105 104q9 21 24 6l64 -55q9 -6 6 -18q-26 -85 -79 -135t-114 -50
q-37 0 -67.5 15.5t-50.5 37.5t-38.5 44t-40 36.5t-44.5 12.5q-68 -3 -105 -103z" />
    <glyph glyph-name="adieresis" unicode="&#xe4;" horiz-adv-x="1193" 
d="M868 801l29 125q9 18 23 18h127q18 0 18 -20v-904q0 -20 -21 -20h-126q-14 0 -23 18l-27 123q-109 -161 -325 -161q-211 -3 -344 133q-131 137 -131 358q0 220 131 354q132 135 344 138q215 0 325 -162zM557 176q134 0 216 81t83 214q-3 133 -86 213t-213 80
q-131 0 -213 -82q-80 -80 -80 -211t81.5 -213t211.5 -82zM334 1149q-32 35 -32 90t32 90q35 35 90 35t90 -35t35 -90t-35 -90t-90 -35t-90 35zM668 1149q-32 35 -32 90t32 90q35 35 90.5 35t87.5 -35t32 -90t-32 -90t-87.5 -35t-90.5 35z" />
    <glyph glyph-name="aring" unicode="&#xe5;" horiz-adv-x="1193" 
d="M868 801l29 125q9 18 23 18h127q18 0 18 -20v-904q0 -20 -21 -20h-126q-14 0 -23 18l-27 123q-109 -161 -325 -161q-211 -3 -344 133q-131 137 -131 358q0 220 131 354q132 135 344 138q215 0 325 -162zM557 176q134 0 216 81t83 214q-3 133 -86 213t-213 80
q-131 0 -213 -82q-80 -80 -80 -211t81.5 -213t211.5 -82zM451 1118q-52 52 -52 139q0 86 52 138q53 53 139 53q84 0 137 -53t53 -138q0 -86 -53 -139q-51 -51 -137 -51q-88 0 -139 51zM508 1257q0 -50 41 -71.5t82 -1t41 72.5q0 36 -23 59t-59 23q-35 0 -58.5 -23.5
t-23.5 -58.5z" />
    <glyph glyph-name="ae" unicode="&#xe6;" horiz-adv-x="1914" 
d="M1618 254q18 15 31 2l104 -104q15 -18 2 -31q-132 -141 -381 -141q-188 0 -309 100v-62q-3 -18 -21 -18h-126q-17 0 -23 20l-27 121q-109 -161 -325 -161q-211 -3 -344 133q-131 137 -131 358q0 220 131 354q132 135 344 138q215 0 325 -162l29 123q3 20 25 20h122
q21 0 21 -20v-58q123 97 293 97q234 0 362 -152q127 -151 127 -399q0 -21 -20 -21h-748q20 -103 100 -163t201 -60q152 0 238 86zM557 176q134 0 216 81t83 214q-3 133 -86 213t-213 80q-131 0 -213 -82q-80 -80 -80 -211t81.5 -213t211.5 -82zM1075 545h565
q-19 105 -93.5 166t-188.5 61t-189 -61t-94 -166z" />
    <glyph glyph-name="ccedilla" unicode="&#xe7;" horiz-adv-x="1034" 
d="M961 178q-133 -201 -404 -201q-219 0 -354 138t-135 356q0 232 143 360q143 131 344 134q130 2 237.5 -52.5t176.5 -158.5q15 -12 -2 -29l-121 -98q-17 -17 -33 6q-88 131 -256 131q-131 0 -212 -81t-81 -212q0 -133 81 -214t212 -81q165 0 254 127q16 19 35 6l110 -102
q14 -14 5 -29zM451 0h151l-31 -72q174 -21 174 -166q0 -85 -63 -134.5t-162 -49.5q-123 0 -213 72q-16 10 -4 22l41 64q10 13 25 4q62 -39 139 -39q41 0 65.5 18.5t24.5 49.5q0 59 -109 59h-94q-21 0 -12 18z" />
    <glyph glyph-name="egrave" unicode="&#xe8;" horiz-adv-x="1112" 
d="M274 545h564q-19 105 -94 166t-187 61q-114 0 -189 -61t-94 -166zM1024 391h-748q23 -104 103.5 -163.5t200.5 -59.5q145 0 235 84q18 15 35 2l102 -104q14 -14 0 -29q-129 -141 -381 -141q-226 0 -364 135q-139 139 -139 356q0 219 135 354q135 138 354 138
q231 0 359.5 -143t127.5 -410q0 -22 -20 -19zM623 1063l-334 227q-21 12 -4 29l96 119q13 17 31 2l295 -287q11 -8 2 -23l-60 -65q-5 -14 -26 -2z" />
    <glyph glyph-name="eacute" unicode="&#xe9;" horiz-adv-x="1112" 
d="M274 545h564q-19 105 -94 166t-187 61q-114 0 -189 -61t-94 -166zM1024 391h-748q23 -104 103.5 -163.5t200.5 -59.5q145 0 235 84q18 15 35 2l102 -104q14 -14 0 -29q-129 -141 -381 -141q-226 0 -364 135q-139 139 -139 356q0 219 135 354q135 138 354 138
q231 0 359.5 -143t127.5 -410q0 -22 -20 -19zM707 1436l96 -119q15 -15 -4 -31l-336 -229q-17 -10 -29 4l-53 65q-16 9 2 27l293 285q19 10 31 -2z" />
    <glyph glyph-name="ecircumflex" unicode="&#xea;" horiz-adv-x="1110" 
d="M274 545h564q-19 105 -94 166t-187 61q-114 0 -189 -61t-94 -166zM1024 391h-748q23 -104 103.5 -163.5t200.5 -59.5q145 0 235 84q18 15 35 2l102 -104q14 -14 0 -29q-129 -141 -381 -141q-226 0 -364 135q-139 139 -139 356q0 219 135 354q135 138 354 138
q231 0 359.5 -143t127.5 -410q0 -22 -20 -19zM238 1100l211 272q9 12 26 12h150q17 0 26 -12l207 -270q16 -19 -6 -19h-154q-15 0 -22 11l-127 170l-123 -168q-10 -13 -27 -13h-153q-18 0 -8 17z" />
    <glyph glyph-name="edieresis" unicode="&#xeb;" horiz-adv-x="1112" 
d="M274 545h564q-19 105 -94 166t-187 61q-114 0 -189 -61t-94 -166zM1024 391h-748q23 -104 103.5 -163.5t200.5 -59.5q145 0 235 84q18 15 35 2l102 -104q14 -14 0 -29q-129 -141 -381 -141q-226 0 -364 135q-139 139 -139 356q0 219 135 354q135 138 354 138
q231 0 359.5 -143t127.5 -410q0 -22 -20 -19zM389 1368q54 0 86.5 -33.5t32.5 -87.5q0 -55 -32.5 -88t-86.5 -33q-55 0 -88 33t-33 88t33 88t88 33zM715 1368q54 0 87.5 -33.5t33.5 -87.5q0 -55 -33.5 -88t-87.5 -33q-55 0 -88 33t-33 88t33 88t88 33z" />
    <glyph glyph-name="igrave" unicode="&#xec;" horiz-adv-x="466" 
d="M334 926l2 -906q0 -20 -21 -20h-161q-21 0 -21 20v906q0 20 21 20h161q19 0 19 -20zM336 1057l-336 227q-20 15 -4 31l98 119q12 12 29 2l295 -287q12 -9 2 -25l-58 -65q-9 -15 -26 -2z" />
    <glyph glyph-name="iacute" unicode="&#xed;" horiz-adv-x="466" 
d="M334 926l2 -906q0 -20 -21 -20h-161q-21 0 -21 20v906q0 20 21 20h161q19 0 19 -20zM371 1436l98 -121q13 -17 -4 -27l-340 -231q-14 -14 -27 2l-55 67q-9 13 2 27l295 285q19 10 31 -2z" />
    <glyph glyph-name="icircumflex" unicode="&#xee;" horiz-adv-x="466" 
d="M334 926l2 -906q0 -20 -21 -20h-161q-21 0 -21 20v906q0 20 21 20h161q19 0 19 -20zM-92 1090l221 286q10 13 29 13h155q19 0 29 -13l219 -284q16 -19 -8 -19h-162q-15 0 -22 10l-133 179l-132 -177q-9 -12 -26 -12h-162q-22 0 -8 17z" />
    <glyph glyph-name="idieresis" unicode="&#xef;" horiz-adv-x="466" 
d="M334 926l2 -906q0 -20 -21 -20h-161q-21 0 -21 20v906q0 20 21 20h161q19 0 19 -20zM-59 1227q0 57 32.5 91t87.5 34q56 0 90.5 -34t34.5 -91q0 -55 -34.5 -89t-90.5 -34q-55 0 -87.5 33.5t-32.5 89.5zM272 1227q0 57 33.5 91t89.5 34t89.5 -34t33.5 -91q0 -55 -34 -89
t-89 -34t-89 34t-34 89z" />
    <glyph glyph-name="eth" unicode="&#xf0;" horiz-adv-x="1103" 
d="M551 -20q-199 0 -324 122q-127 124 -127 318q0 193 117 313q119 119 313 119q106 0 189 -53q-70 149 -197 276l-213 -108q-9 -9 -22 4l-58 57q-15 15 4 25l197 100q-88 70 -199 121q-18 9 -8 26l74 138q9 20 29 10q165 -64 307 -191l188 97q14 9 27 -4l55 -58
q15 -15 -4 -24l-182 -94q136 -151 213.5 -350.5t73.5 -395.5q-3 -209 -130 -330q-124 -118 -323 -118zM805 426q-2 113 -69 177.5t-185 64.5q-113 0 -180.5 -68t-67.5 -180q0 -109 69 -176.5t179 -67.5q108 0 180 72q74 71 74 178z" />
    <glyph glyph-name="ntilde" unicode="&#xf1;" horiz-adv-x="1118" 
d="M125 20v904q0 20 20 20h123q20 0 23 -20l24 -127q99 170 312 170q169 -2 266.5 -112t97.5 -310l2 -525q0 -20 -20 -20h-160q-20 0 -20 20v496q0 125 -56.5 188.5t-158.5 61.5q-105 0 -175.5 -85.5t-76.5 -223.5v-437q0 -20 -21 -20h-160q-20 0 -20 20zM342 1155
q-9 -21 -25 -8l-59 53q-9 6 -6 21q29 82 79.5 130t106.5 48q35 0 64 -14.5t49 -35.5t38 -42t39.5 -35.5t45.5 -14.5q63 3 100 101q9 22 23 8l61 -55q9 -6 6 -19q-24 -81 -76 -129.5t-110 -48.5q-35 0 -64.5 15t-49.5 36.5t-38.5 42.5t-39.5 35t-44 12q-60 0 -100 -100z" />
    <glyph glyph-name="ograve" unicode="&#xf2;" horiz-adv-x="1116" 
d="M557 967q221 0 356 -138q136 -136 136 -356q0 -219 -136 -358q-135 -135 -356 -135q-220 0 -354 137q-135 138 -135 356t135 356t354 138zM346 686q-80 -80 -80 -213q0 -132 80 -215q80 -80 211 -80t211 80q82 82 82 215q0 134 -82 213q-79 82 -211 82t-211 -82z
M610 1063l-334 227q-21 12 -4 29l97 119q13 16 30 2l295 -287q11 -8 2 -23l-59 -65q-6 -14 -27 -2z" />
    <glyph glyph-name="oacute" unicode="&#xf3;" horiz-adv-x="1116" 
d="M559 967q219 0 354 -138q138 -135 138 -356q0 -218 -138 -356q-134 -137 -354 -137q-221 0 -356 135q-135 138 -135 358q0 221 135 356q135 138 356 138zM268 473q0 -131 80.5 -212t210.5 -81t210.5 81t80.5 212q0 133 -80 213t-211 80q-133 0 -212 -79.5t-79 -213.5z
M694 1432l97 -119q12 -14 -3 -29l-337 -229q-16 -13 -29 4l-53 63q-12 15 2 29l295 283q13 13 28 -2z" />
    <glyph glyph-name="ocircumflex" unicode="&#xf4;" horiz-adv-x="1116" 
d="M557 967q221 0 356 -138q136 -136 136 -356q0 -219 -136 -358q-135 -135 -356 -135q-220 0 -354 137q-135 138 -135 356t135 356t354 138zM346 686q-80 -80 -80 -213q0 -132 80 -215q80 -80 211 -80t211 80q82 82 82 215q0 134 -82 213q-79 82 -211 82t-211 -82z
M246 1110l211 272q10 13 26 13h150q16 0 26 -13l207 -270q16 -16 -6 -16h-153q-15 0 -23 8l-127 170l-123 -168q-10 -10 -26 -10h-154q-16 0 -8 14z" />
    <glyph glyph-name="otilde" unicode="&#xf5;" horiz-adv-x="1116" 
d="M557 967q221 0 356 -138q136 -136 136 -356q0 -219 -136 -358q-135 -135 -356 -135q-220 0 -354 137q-135 138 -135 356t135 356t354 138zM346 686q-80 -80 -80 -213q0 -132 80 -215q80 -80 211 -80t211 80q82 82 82 215q0 134 -82 213q-79 82 -211 82t-211 -82z
M334 1130q-10 -24 -27 -10l-59 54q-11 11 -8 22q29 85 81.5 134.5t110.5 49.5q37 0 68 -15.5t51 -37.5t38 -43.5t39.5 -36t45.5 -12.5q66 3 106 104q3 23 23 7l63 -58q9 -3 6 -16q-26 -85 -78.5 -135t-113.5 -50q-36 0 -66.5 15.5t-50.5 37.5t-38.5 44t-40.5 36.5t-46 12.5
q-67 -3 -104 -103z" />
    <glyph glyph-name="odieresis" unicode="&#xf6;" horiz-adv-x="1116" 
d="M557 967q221 0 356 -138q136 -136 136 -356q0 -219 -136 -358q-135 -135 -356 -135q-220 0 -354 137q-135 138 -135 356t135 356t354 138zM346 686q-80 -80 -80 -213q0 -132 80 -215q80 -80 211 -80t211 80q82 82 82 215q0 134 -82 213q-79 82 -211 82t-211 -82z
M299 1159q-32 35 -32 90t32 90q35 35 90 35t90 -35t35 -90t-35 -90t-90 -35t-90 35zM633 1159q-32 35 -32 90t32 90q35 35 90.5 35t87.5 -35t32 -90t-32 -90t-87.5 -35t-90.5 35z" />
    <glyph glyph-name="divide" unicode="&#xf7;" horiz-adv-x="1103" 
d="M553 1057q61 0 99 -37.5t38 -99.5t-38 -101t-99 -39q-63 0 -101 39t-38 101t38 99.5t101 37.5zM414 291q0 63 38 100t101 37q62 0 99.5 -37t37.5 -100q0 -61 -38 -99t-99 -38q-63 0 -101 37.5t-38 99.5zM123 530v138q0 18 20 18h818q20 0 20 -18v-138q0 -18 -20 -18h-818
q-20 0 -20 18z" />
    <glyph glyph-name="oslash" unicode="&#xf8;" horiz-adv-x="1116" 
d="M846 885l78 84q12 15 28 2l62 -56q15 -12 2 -28l-78 -86q111 -129 111 -328q0 -219 -136 -358q-135 -135 -356 -135q-166 0 -285 79l-94 -104q-14 -14 -28 0l-62 55q-15 12 -2 29l92 102q-110 137 -110 332q0 218 135 356t354 138q164 0 289 -82zM801 647l-391 -434
q65 -35 147 -35q131 0 212 81t81 214q0 104 -49 174zM317 295l392 436q-64 37 -152 37q-131 0 -211 -81t-80 -214q0 -104 51 -178z" />
    <glyph glyph-name="ugrave" unicode="&#xf9;" horiz-adv-x="1128" 
d="M834 18l-25 129q-108 -170 -322 -170q-168 0 -265 111t-97 311v523q0 20 18 20h160q21 0 21 -20v-496q0 -258 219 -258q107 0 178.5 86.5t77.5 230.5v437q0 20 20 20h160q20 0 20 -18v-904q0 -20 -20 -20h-123q-19 0 -22 18zM621 1049l-334 227q-20 15 -4 31l96 118
q14 14 29 2l297 -286q12 -9 2 -25l-60 -65q-9 -12 -26 -2z" />
    <glyph glyph-name="uacute" unicode="&#xfa;" horiz-adv-x="1128" 
d="M834 18l-25 129q-108 -170 -322 -170q-168 0 -265 111t-97 311v523q0 20 18 20h160q21 0 21 -20v-496q0 -258 219 -258q107 0 178.5 86.5t77.5 230.5v437q0 20 20 20h160q20 0 20 -18v-904q0 -20 -20 -20h-123q-19 0 -22 18zM725 1432l98 -119q13 -16 -4 -29l-336 -229
q-15 -15 -30 4l-52 63q-13 12 2 27l293 285q17 13 29 -2z" />
    <glyph glyph-name="ucircumflex" unicode="&#xfb;" horiz-adv-x="1128" 
d="M834 18l-25 129q-108 -170 -322 -170q-168 0 -265 111t-97 311v523q0 20 18 20h160q21 0 21 -20v-496q0 -258 219 -258q107 0 178.5 86.5t77.5 230.5v437q0 20 20 20h160q20 0 20 -18v-904q0 -20 -20 -20h-123q-19 0 -22 18zM248 1102l213 278q10 13 28 13h152
q17 0 27 -13l213 -276q16 -19 -9 -19h-155q-16 0 -23 11l-129 174l-127 -172q-10 -13 -26 -13h-158q-20 0 -6 17z" />
    <glyph glyph-name="udieresis" unicode="&#xfc;" horiz-adv-x="1128" 
d="M834 18l-25 129q-108 -170 -322 -170q-168 0 -265 111t-97 311v523q0 20 18 20h160q21 0 21 -20v-496q0 -258 219 -258q107 0 178.5 86.5t77.5 230.5v437q0 20 20 20h160q20 0 20 -18v-904q0 -20 -20 -20h-123q-19 0 -22 18zM274 1227q0 57 33.5 91t89.5 34t90.5 -34
t34.5 -91q0 -55 -34.5 -89t-90.5 -34q-55 0 -89 34t-34 89zM608 1227q0 57 33.5 91t89.5 34t89.5 -34t33.5 -91q0 -55 -34 -89t-89 -34t-89 34t-34 89z" />
    <glyph glyph-name="yacute" unicode="&#xfd;" horiz-adv-x="983" 
d="M780 942h170q28 0 19 -27l-553 -1364q-9 -18 -29 -18h-162q-27 0 -18 27l178 446l-371 909q-9 27 17 27h174q20 0 26 -16l252 -676l271 676q6 16 26 16zM682 1399l98 -117q10 -17 -4 -31l-338 -229q-13 -13 -28 4l-54 64q-10 13 2 28l295 283q17 13 29 -2z" />
    <glyph glyph-name="thorn" unicode="&#xfe;" horiz-adv-x="1183" 
d="M150 1479h153q21 0 21 -21v-643q108 150 313 150q212 0 344 -138q133 -136 133 -356q0 -217 -133 -356q-132 -135 -344 -135q-206 0 -313 149v-575q0 -21 -21 -21h-153q-21 0 -21 21v1904q0 21 21 21zM324 473q1 -134 84.5 -215.5t214.5 -81.5q130 0 211 82t81 213
t-81 213t-211 82q-132 0 -215 -80t-84 -213z" />
    <glyph glyph-name="ydieresis" unicode="&#xff;" horiz-adv-x="983" 
d="M780 942h170q28 0 19 -27l-553 -1364q-9 -18 -29 -18h-162q-27 0 -18 27l178 446l-371 909q-9 27 17 27h174q20 0 26 -16l252 -676l271 676q6 16 26 16zM289 1333q77 7 109.5 -59t0 -132t-109.5 -59q-55 0 -88 34.5t-33 90.5t33 90.5t88 34.5zM532 1118q-32 35 -32 90
t32 90q35 35 91 35t88 -35q35 -35 35 -90t-35 -90q-32 -35 -88 -35t-91 35z" />
    <glyph glyph-name="Amacron" unicode="&#x100;" horiz-adv-x="1345" 
d="M1124 14l-153 389h-596l-156 -389q-3 -14 -20 -14h-172q-27 0 -17 23l547 1378q6 18 27 18h178q20 0 26 -18l547 -1378q10 -23 -16 -23h-172q-17 0 -23 14zM899 588l-225 571l-228 -571h453zM426 1700h496q18 0 18 -19v-118q0 -21 -18 -21h-496q-20 0 -20 21v118
q0 19 20 19z" />
    <glyph glyph-name="amacron" unicode="&#x101;" horiz-adv-x="1193" 
d="M868 801l29 125q9 18 23 18h127q18 0 18 -20v-904q0 -20 -21 -20h-126q-14 0 -23 18l-27 123q-109 -161 -325 -161q-211 -3 -344 133q-131 137 -131 358q0 220 131 354q132 135 344 138q215 0 325 -162zM557 176q134 0 216 81t83 214q-3 133 -86 213t-213 80
q-131 0 -213 -82q-80 -80 -80 -211t81.5 -213t211.5 -82zM324 1343h491q8 0 15 -6.5t6 -13.5v-119q3 -24 -21 -24h-491q-21 0 -21 22v121q-1 7 6 13.5t15 6.5z" />
    <glyph glyph-name="Abreve" unicode="&#x102;" horiz-adv-x="1345" 
d="M1124 14l-153 389h-596l-156 -389q-3 -14 -20 -14h-172q-27 0 -17 23l547 1378q6 18 27 18h178q20 0 26 -18l547 -1378q10 -23 -16 -23h-172q-17 0 -23 14zM899 588l-225 571l-228 -571h453zM848 1759l104 2q19 0 19 -20q-6 -118 -87 -185t-212 -67q-130 0 -209 67
t-86 185q0 20 18 20h107q15 0 18 -20q6 -45 49 -77t103 -32q62 0 104.5 30.5t50.5 78.5q0 18 21 18z" />
    <glyph glyph-name="abreve" unicode="&#x103;" horiz-adv-x="1193" 
d="M868 801l29 125q9 18 23 18h127q18 0 18 -20v-904q0 -20 -21 -20h-126q-14 0 -23 18l-27 123q-109 -161 -325 -161q-211 -3 -344 133q-131 137 -131 358q0 220 131 354q132 135 344 138q215 0 325 -162zM557 176q134 0 216 81t83 214q-3 133 -86 213t-213 80
q-131 0 -213 -82q-80 -80 -80 -211t81.5 -213t211.5 -82zM739 1403h107q16 0 16 -21q-5 -134 -86 -214.5t-211 -80.5q-129 0 -210 80.5t-87 214.5q0 21 21 21h104q18 0 21 -21q6 -63 47.5 -105t103.5 -42q65 0 107.5 42t48.5 107q3 19 18 19z" />
    <glyph glyph-name="Aogonek" unicode="&#x104;" horiz-adv-x="1363" 
d="M1124 14l-153 389h-596l-156 -389q-3 -14 -20 -14h-172q-27 0 -17 23l547 1378q6 18 27 18h178q20 0 26 -18l547 -1378q10 -23 -16 -23h-172q-17 0 -23 14zM899 588l-225 571l-228 -571h453zM1399 -362q-58 -76 -182 -76q-98 0 -156 52t-60 140q0 62 43 129
q26 39 57.5 72.5t53.5 52t75 59.5q13 10 19 15l78 -80q-83 -81 -117 -124.5t-41 -84.5q-21 -68 45 -90q54 -15 84 25q12 9 25 2l74 -68q11 -11 2 -24z" />
    <glyph glyph-name="aogonek" unicode="&#x105;" horiz-adv-x="1193" 
d="M868 801l29 125q9 18 23 18h127q18 0 18 -20v-904q0 -20 -21 -20h-126q-14 0 -23 18l-27 123q-109 -161 -325 -161q-211 -3 -344 133q-131 137 -131 358q0 220 131 354q132 135 344 138q215 0 325 -162zM557 176q134 0 216 81t83 214q-3 133 -86 213t-213 80
q-131 0 -213 -82q-80 -80 -80 -211t81.5 -213t211.5 -82zM1135 -350q-61 -76 -183 -76q-98 0 -155.5 52.5t-59.5 140.5q0 64 45 129q41 61 80.5 98.5t122.5 101.5l78 -82q-84 -79 -117.5 -121.5t-40.5 -87.5q-11 -31 1.5 -56t43.5 -32q53 -15 84 23q12 12 25 2l74 -66
q11 -11 2 -26z" />
    <glyph glyph-name="Cacute" unicode="&#x106;" horiz-adv-x="1382" 
d="M1315 168q-197 -188 -512 -188q-325 0 -524 202q-201 204 -201 527q0 237 106 403q106 165 266 246.5t353 81.5q302 3 508 -191q14 -12 0 -26l-103 -125q-9 -16 -28 0q-157 136 -377 133q-227 3 -371 -144q-141 -144 -141 -378q0 -233 141 -377t371 -144q220 0 377 136
q19 16 28 0l107 -127q15 -15 0 -29zM928 1815l80 -132q13 -19 -9 -28l-381 -201q-19 -9 -28 6l-45 74q-14 17 6 27l348 258q19 16 29 -4z" />
    <glyph glyph-name="cacute" unicode="&#x107;" horiz-adv-x="1034" 
d="M961 178q-133 -201 -404 -201q-219 0 -354 138t-135 356q0 232 143 360q143 131 344 134q130 2 237.5 -52.5t176.5 -158.5q15 -12 -2 -29l-121 -98q-17 -17 -33 6q-88 131 -256 131q-131 0 -212 -81t-81 -212q0 -133 81 -214t212 -81q165 0 254 127q16 19 35 6l110 -102
q14 -14 5 -29zM711 1436l96 -119q12 -15 -2 -29l-338 -229q-16 -13 -29 4l-53 63q-12 15 2 29l295 283q14 14 29 -2z" />
    <glyph glyph-name="Ccircumflex" unicode="&#x108;" horiz-adv-x="1382" 
d="M1315 168q-197 -188 -512 -188q-325 0 -524 202q-201 204 -201 527q0 237 106 403q106 165 266 246.5t353 81.5q302 3 508 -191q14 -12 0 -26l-103 -125q-9 -16 -28 0q-157 136 -377 133q-227 3 -371 -144q-141 -144 -141 -378q0 -233 141 -377t371 -144q220 0 377 136
q19 16 28 0l107 -127q15 -15 0 -29zM881 1524l-133 112l-132 -112q-18 -11 -26 -11h-182q-31 0 -7 21l246 211q12 12 29 12h145q15 0 27 -12l248 -211q24 -21 -9 -21h-180q-8 0 -26 11z" />
    <glyph glyph-name="ccircumflex" unicode="&#x109;" horiz-adv-x="1034" 
d="M961 178q-133 -201 -404 -201q-219 0 -354 138t-135 356q0 232 143 360q143 131 344 134q130 2 237.5 -52.5t176.5 -158.5q15 -12 -2 -29l-121 -98q-17 -17 -33 6q-88 131 -256 131q-131 0 -212 -81t-81 -212q0 -133 81 -214t212 -81q165 0 254 127q16 19 35 6l110 -102
q14 -14 5 -29zM225 1100l211 272q10 10 27 10h147q19 0 29 -10l207 -270q16 -19 -6 -19h-156q-13 0 -20 11l-127 170l-125 -168q-6 -13 -25 -13h-154q-22 0 -8 17z" />
    <glyph glyph-name="Cdotaccent" unicode="&#x10a;" horiz-adv-x="1382" 
d="M1315 168q-197 -188 -512 -188q-325 0 -524 202q-201 204 -201 527q0 237 106 403q106 165 266 246.5t353 81.5q302 3 508 -191q14 -12 0 -26l-103 -125q-9 -16 -28 0q-157 136 -377 133q-227 3 -371 -144q-141 -144 -141 -378q0 -233 141 -377t371 -144q220 0 377 136
q19 16 28 0l107 -127q15 -15 0 -29zM637 1649q0 50 31 80t82 30q49 0 78.5 -30t29.5 -80q0 -51 -29.5 -82t-78.5 -31q-51 0 -82 31t-31 82z" />
    <glyph glyph-name="cdotaccent" unicode="&#x10b;" horiz-adv-x="1034" 
d="M961 178q-133 -201 -404 -201q-219 0 -354 138t-135 356q0 232 143 360q143 131 344 134q130 2 237.5 -52.5t176.5 -158.5q15 -12 -2 -29l-121 -98q-17 -17 -33 6q-88 131 -256 131q-131 0 -212 -81t-81 -212q0 -133 81 -214t212 -81q165 0 254 127q16 19 35 6l110 -102
q14 -14 5 -29zM418 1237q0 51 30.5 80t81.5 29q50 0 79.5 -29t29.5 -80q0 -50 -30 -80.5t-79 -30.5q-51 0 -81.5 30.5t-30.5 80.5z" />
    <glyph glyph-name="Ccaron" unicode="&#x10c;" horiz-adv-x="1382" 
d="M1315 168q-197 -188 -512 -188q-325 0 -524 202q-201 204 -201 527q0 237 106 403q106 165 266 246.5t353 81.5q302 3 508 -191q14 -12 0 -26l-103 -125q-9 -16 -28 0q-157 136 -377 133q-227 3 -371 -144q-141 -144 -141 -378q0 -233 141 -377t371 -144q220 0 377 136
q19 16 28 0l107 -127q15 -15 0 -29zM610 1737l135 -113l136 113q9 12 26 12h183q34 0 8 -23l-250 -213q-12 -12 -31 -12h-145q-17 0 -29 12l-252 213q-23 23 10 23h181q16 0 28 -12z" />
    <glyph glyph-name="ccaron" unicode="&#x10d;" horiz-adv-x="1034" 
d="M961 178q-133 -201 -404 -201q-219 0 -354 138t-135 356q0 232 143 360q143 131 344 134q130 2 237.5 -52.5t176.5 -158.5q15 -12 -2 -29l-121 -98q-17 -17 -33 6q-88 131 -256 131q-131 0 -212 -81t-81 -212q0 -133 81 -214t212 -81q165 0 254 127q16 19 35 6l110 -102
q14 -14 5 -29zM242 1395h151q9 0 27 -11l125 -167l121 165q12 12 28 15h152q24 0 8 -19l-209 -270q-12 -12 -27 -12h-149q-18 0 -27 12l-206 270q-17 17 6 17z" />
    <glyph glyph-name="Dcaron" unicode="&#x10e;" horiz-adv-x="1386" 
d="M578 1225h-207v-1026h209q237 0 374 137q142 139 142 375q0 235 -142 374q-143 140 -376 140zM578 0h-400q-20 0 -20 20v1381q0 20 20 20h400q330 0 528 -192q201 -195 201 -518q0 -328 -199 -521q-199 -190 -530 -190zM557 1737l135 -113l135 113q9 12 27 12h182
q34 0 8 -23l-249 -213q-12 -12 -31 -12h-146q-16 0 -28 12l-252 213q-23 23 10 23h180q17 0 29 -12z" />
    <glyph glyph-name="dcaron" unicode="&#x10f;" horiz-adv-x="1503" 
d="M543 -20q-212 0 -344 135q-131 137 -131 356q0 220 131 354q132 138 344 138q205 0 313 -150v647q0 19 21 19h159q21 0 21 -19v-1440q0 -20 -21 -20h-112q-20 0 -23 18l-31 125q-108 -163 -327 -163zM856 471q0 131 -83 213t-216 82q-131 0 -211 -81t-80 -214
q0 -131 80.5 -213t210.5 -82q132 0 215.5 81.5t83.5 213.5zM1186 944l-60 53q-13 16 4 29q131 104 152 234q-4 0 -4 2q-51 5 -82 40t-31 89q0 60 36.5 96.5t96.5 36.5q51 0 85 -28.5t42 -76.5q27 -128 -39 -276q-67 -148 -169 -207q-18 -9 -31 8z" />
    <glyph glyph-name="Dcroat" unicode="&#x110;" horiz-adv-x="1386" 
d="M580 0h-402q-18 0 -18 20v615h-101q-20 0 -20 20v95q0 20 20 20h101v631q0 20 20 20h400q330 0 528 -192q199 -193 199 -518q0 -328 -199 -521q-199 -190 -528 -190zM371 635v-436h209q237 0 374 137q142 139 142 375q0 235 -142 374q-143 140 -376 140h-207v-455h274
q19 0 19 -20v-95q0 -20 -19 -20h-274z" />
    <glyph glyph-name="dslash" unicode="&#x111;" horiz-adv-x="1198" 
d="M649 1239h207v221q0 19 21 19h159q21 0 21 -19v-221h88q20 0 20 -20v-97q0 -18 -20 -18h-88v-1084q0 -20 -21 -20h-112q-20 0 -23 18l-31 125q-108 -163 -327 -163q-212 0 -344 135q-131 137 -131 356q0 220 131 354q132 138 344 138q205 0 313 -150v291h-207
q-20 0 -20 18v97q0 20 20 20zM856 471q0 131 -83 213t-216 82q-131 0 -211 -81t-80 -214q0 -131 80.5 -213t210.5 -82q132 0 215.5 81.5t83.5 213.5z" />
    <glyph glyph-name="Emacron" unicode="&#x112;" horiz-adv-x="1071" 
d="M856 627h-485v-428h602q20 0 20 -21v-160q0 -18 -18 -18h-797q-18 0 -18 20v1381q0 20 20 20h774q19 0 19 -20v-160q0 -18 -19 -18h-583v-400h485q21 0 21 -20v-156q0 -20 -21 -20zM319 1704h496q21 0 21 -18v-119q0 -21 -21 -21h-496q-20 0 -20 21v119q0 18 20 18z" />
    <glyph glyph-name="emacron" unicode="&#x113;" horiz-adv-x="1112" 
d="M274 545h564q-19 105 -94 166t-187 61q-114 0 -189 -61t-94 -166zM1024 391h-748q23 -104 103.5 -163.5t200.5 -59.5q145 0 235 84q18 15 35 2l102 -104q14 -14 0 -29q-129 -141 -381 -141q-226 0 -364 135q-139 139 -139 356q0 219 135 354q135 138 354 138
q231 0 359.5 -143t127.5 -410q0 -22 -20 -19zM307 1343h490q23 0 20 -22v-119q3 -22 -20 -22h-490q-22 0 -22 20v121q-3 22 22 22z" />
    <glyph glyph-name="Ebreve" unicode="&#x114;" horiz-adv-x="1071" 
d="M856 627h-485v-428h602q20 0 20 -21v-160q0 -18 -18 -18h-797q-18 0 -18 20v1381q0 20 20 20h774q19 0 19 -20v-160q0 -18 -19 -18h-583v-400h485q21 0 21 -20v-156q0 -20 -21 -20zM741 1767l105 2q18 0 18 -20q-6 -118 -86 -185t-211 -67t-210.5 67t-86.5 185
q0 20 21 20h104q16 0 19 -20q6 -45 49.5 -77t103.5 -32q61 0 104.5 30.5t51.5 78.5q0 18 18 18z" />
    <glyph glyph-name="ebreve" unicode="&#x115;" horiz-adv-x="1112" 
d="M274 545h564q-19 105 -94 166t-187 61q-114 0 -189 -61t-94 -166zM1024 391h-748q23 -104 103.5 -163.5t200.5 -59.5q145 0 235 84q18 15 35 2l102 -104q14 -14 0 -29q-129 -141 -381 -141q-226 0 -364 135q-139 139 -139 356q0 219 135 354q135 138 354 138
q231 0 359.5 -143t127.5 -410q0 -22 -20 -19zM721 1401h106q17 0 17 -21q-4 -133 -86 -214t-211 -81t-210 80.5t-85 214.5q0 21 18 21h105q17 0 20 -21q6 -63 48 -105t104 -42q65 0 107 42t48 107q3 19 19 19z" />
    <glyph glyph-name="Edotaccent" unicode="&#x116;" horiz-adv-x="1071" 
d="M856 627h-485v-428h602q20 0 20 -21v-160q0 -18 -18 -18h-797q-18 0 -18 20v1381q0 20 20 20h774q19 0 19 -20v-160q0 -18 -19 -18h-583v-400h485q21 0 21 -20v-156q0 -20 -21 -20zM453 1634q0 51 31.5 82t82.5 31t81 -31t30 -82q0 -54 -30 -84t-81 -30q-52 0 -83 30.5
t-31 83.5z" />
    <glyph glyph-name="edotaccent" unicode="&#x117;" horiz-adv-x="1112" 
d="M274 545h564q-19 105 -94 166t-187 61q-114 0 -189 -61t-94 -166zM1024 391h-748q23 -104 103.5 -163.5t200.5 -59.5q145 0 235 84q18 15 35 2l102 -104q14 -14 0 -29q-129 -141 -381 -141q-226 0 -364 135q-139 139 -139 356q0 219 135 354q135 138 354 138
q231 0 359.5 -143t127.5 -410q0 -22 -20 -19zM551 1366q51 0 81 -30t30 -81q4 -39 -16 -67.5t-50.5 -39.5t-66.5 -5.5t-62 28.5q-23 26 -28.5 62t5.5 66.5t39.5 50.5t67.5 16z" />
    <glyph glyph-name="Eogonek" unicode="&#x118;" horiz-adv-x="1071" 
d="M856 627h-485v-428h602q20 0 20 -21v-160q0 -18 -18 -18h-797q-18 0 -18 20v1381q0 20 20 20h774q19 0 19 -20v-160q0 -18 -19 -18h-583v-400h485q21 0 21 -20v-156q0 -20 -21 -20zM983 -350q-58 -76 -180 -76q-99 0 -157 52.5t-60 140.5q0 62 45 127q41 61 80.5 98.5
t122.5 101.5l77 -82q-146 -139 -157 -207q-21 -69 47 -90q52 -15 82 23q11 11 24 2l74 -66q15 -15 2 -24z" />
    <glyph glyph-name="eogonek" unicode="&#x119;" horiz-adv-x="1112" 
d="M274 545h564q-19 105 -94 166t-187 61q-114 0 -189 -61t-94 -166zM1024 391h-748q23 -104 103.5 -163.5t200.5 -59.5q145 0 235 84q18 15 35 2l102 -104q14 -14 0 -29q-129 -141 -381 -141q-226 0 -364 135q-139 139 -139 356q0 219 135 354q135 138 354 138
q231 0 359.5 -143t127.5 -410q0 -22 -20 -19zM874 -344q-58 -76 -182 -76q-98 0 -155.5 52.5t-59.5 140.5q0 62 43 129q10 14 19 27t20.5 25.5t19 21.5t21.5 21.5t20.5 18.5t24.5 20.5t23.5 19t28 22t28.5 22.5l78 -80q-83 -82 -117 -124.5t-41 -83.5q-22 -69 45 -91
q54 -15 84 25q12 9 25 2l73 -67q12 -12 2 -25z" />
    <glyph glyph-name="Ecaron" unicode="&#x11a;" horiz-adv-x="1071" 
d="M856 627h-485v-428h602q20 0 20 -21v-160q0 -18 -18 -18h-797q-18 0 -18 20v1381q0 20 20 20h774q19 0 19 -20v-160q0 -18 -19 -18h-583v-400h485q21 0 21 -20v-156q0 -20 -21 -20zM436 1737l135 -113l136 113q9 12 26 12h182q35 0 9 -23l-250 -213q-12 -12 -31 -12h-145
q-17 0 -29 12l-252 213q-23 23 10 23h181q16 0 28 -12z" />
    <glyph glyph-name="ecaron" unicode="&#x11b;" horiz-adv-x="1112" 
d="M274 545h564q-19 105 -94 166t-187 61q-114 0 -189 -61t-94 -166zM1024 391h-748q23 -104 103.5 -163.5t200.5 -59.5q145 0 235 84q18 15 35 2l102 -104q14 -14 0 -29q-129 -141 -381 -141q-226 0 -364 135q-139 139 -139 356q0 219 135 354q135 138 354 138
q231 0 359.5 -143t127.5 -410q0 -22 -20 -19zM254 1395h152q15 0 24 -9l125 -169l123 167q10 10 27 13h151q24 0 8 -19l-209 -268q-8 -14 -26 -14h-150q-15 0 -24 12l-209 270q-7 8 -5 12.5t13 4.5z" />
    <glyph glyph-name="Gcircumflex" unicode="&#x11c;" horiz-adv-x="1556" 
d="M1241 573h-407q-21 0 -21 21v139q0 21 21 21h598q22 0 22 -23q-6 -361 -174.5 -555.5t-486.5 -193.5q-316 0 -510 200q-193 199 -193 529q0 327 201 528q204 201 530 201q303 0 508 -193q15 -9 0 -24l-108 -127q-12 -15 -27 0q-150 135 -373 135q-231 0 -375 -144
q-143 -143 -143 -376t135 -377t355 -144q384 0 448 383zM907 1532l-129 108l-127 -108q-17 -10 -26 -10h-176q-30 0 -7 20l240 203q12 12 27 12h139q17 0 29 -12l239 -203q20 -20 -8 -20h-176q-8 0 -25 10z" />
    <glyph glyph-name="gcircumflex" unicode="&#x11d;" horiz-adv-x="1189" 
d="M543 965q218 0 331 -168l33 127q3 17 23 20h110q21 0 21 -20l2 -912q0 -224 -139 -360q-136 -136 -365 -139q-217 3 -377 100q-18 9 -8 31l70 139q9 18 26 8q115 -71 281 -80q147 1 228 81t83 222v117q-112 -154 -319 -154q-212 3 -344 138q-131 134 -131 356
q0 219 131 356q132 138 344 138zM266 471q0 -131 80.5 -212t210.5 -81q135 0 219 81t84 212q0 133 -83.5 214t-219.5 81q-131 0 -211 -81t-80 -214zM262 1096l215 280q10 13 29 13h153q17 0 27 -13l215 -278q16 -19 -8 -19h-158q-15 0 -22 11l-131 174l-127 -172
q-10 -13 -27 -13h-160q-20 0 -6 17z" />
    <glyph glyph-name="Gbreve" unicode="&#x11e;" horiz-adv-x="1556" 
d="M1247 573h-407q-21 0 -21 21v139q0 21 21 21h598q22 0 22 -23q-6 -361 -174.5 -555.5t-486.5 -193.5q-316 0 -510 200q-193 199 -193 529q0 327 201 528q204 201 530 201q303 0 508 -193q15 -9 0 -24l-108 -127q-15 -15 -27 0q-150 135 -373 135q-230 0 -374 -144
t-144 -376q0 -233 135 -377t355 -144q384 0 448 383zM946 1767l107 2q16 0 16 -20q-6 -118 -86 -185t-211 -67t-210.5 67t-86.5 185q0 20 21 20h104q18 0 21 -20q5 -45 48 -77t103 -32q62 0 105 30.5t51 78.5q0 18 18 18z" />
    <glyph glyph-name="gbreve" unicode="&#x11f;" horiz-adv-x="1189" 
d="M543 965q218 0 331 -168l33 127q3 17 23 20h110q21 0 21 -20l2 -912q0 -224 -139 -360q-136 -136 -365 -139q-217 3 -377 100q-18 9 -8 31l70 139q9 18 26 8q115 -71 281 -80q147 1 228 81t83 222v117q-112 -154 -319 -154q-212 3 -344 138q-131 134 -131 356
q0 219 131 356q132 138 344 138zM266 471q0 -131 80.5 -212t210.5 -81q135 0 219 81t84 212q0 133 -83.5 214t-219.5 81q-131 0 -211 -81t-80 -214zM752 1401h104q18 0 18 -21q-4 -133 -86 -214t-213 -81q-127 0 -207.5 80.5t-86.5 214.5q0 21 18 21h107q15 0 18 -21
q6 -63 47.5 -105t103.5 -42q65 0 107.5 42t48.5 107q3 19 21 19z" />
    <glyph glyph-name="Gdotaccent" unicode="&#x120;" horiz-adv-x="1556" 
d="M1247 573h-407q-21 0 -21 21v139q0 21 21 21h598q22 0 22 -23q-6 -361 -174.5 -555.5t-486.5 -193.5q-316 0 -510 200q-193 199 -193 529q0 327 201 528q204 201 530 201q303 0 508 -193q15 -9 0 -24l-108 -127q-15 -15 -27 0q-150 135 -373 135q-230 0 -374 -144
t-144 -376q0 -233 135 -377t355 -144q384 0 448 383zM696 1559q-31 32 -31 83t31 82q32 31 83.5 31t80.5 -31q31 -31 31 -82t-31 -83q-29 -31 -80.5 -31t-83.5 31z" />
    <glyph glyph-name="gdotaccent" unicode="&#x121;" horiz-adv-x="1189" 
d="M543 965q218 0 331 -168l33 127q3 17 23 20h110q21 0 21 -20l2 -912q0 -224 -139 -360q-136 -136 -365 -139q-217 3 -377 100q-18 9 -8 31l70 139q9 18 26 8q115 -71 281 -80q147 1 228 81t83 222v117q-112 -154 -319 -154q-212 3 -344 138q-131 134 -131 356
q0 219 131 356q132 138 344 138zM266 471q0 -131 80.5 -212t210.5 -81q135 0 219 81t84 212q0 133 -83.5 214t-219.5 81q-131 0 -211 -81t-80 -214zM672 1274q0 -51 -30 -83t-81 -32t-83 32t-32 83t30.5 80.5t84.5 29.5q111 0 111 -110z" />
    <glyph glyph-name="uni0122" unicode="&#x122;" horiz-adv-x="1519" 
d="M1229 573h-408q-20 0 -20 21v139q0 21 20 21h598q23 0 23 -23q-6 -361 -175 -555.5t-487 -193.5q-316 0 -510 200q-192 198 -192 529q0 327 201 528q204 201 530 201q303 0 508 -193q15 -9 0 -24l-109 -127q-12 -14 -26 0q-150 135 -373 135q-231 0 -375 -144
q-143 -143 -143 -376t135 -377t354 -144q385 0 449 383zM737 -287q-4 0 -6 2q-78 21 -78 111q0 55 32.5 88t86.5 33q44 0 75.5 -27t39.5 -70q21 -102 -43 -190q-65 -89 -164 -119q-18 -9 -27 6l-32 60q-9 14 6 20q81 45 110 86z" />
    <glyph glyph-name="uni0123" unicode="&#x123;" horiz-adv-x="1189" 
d="M543 965q218 0 331 -168l33 127q3 17 23 20h110q21 0 21 -20l2 -912q0 -224 -139 -360q-136 -136 -365 -139q-217 3 -377 100q-18 9 -8 31l70 139q9 18 26 8q115 -71 281 -80q147 1 228 81t83 222v117q-112 -154 -319 -154q-212 3 -344 138q-131 134 -131 356
q0 219 131 356q132 138 344 138zM266 471q0 -131 80.5 -212t210.5 -81q135 0 219 81t84 212q0 133 -83.5 214t-219.5 81q-131 0 -211 -81t-80 -214zM594 1262q4 0 6 -2q78 -21 78 -111q0 -55 -32.5 -88t-86.5 -33q-44 0 -75.5 26.5t-39.5 69.5q-21 103 43 191q65 89 164 119
q18 9 27 -7l33 -59q9 -14 -6 -20q-83 -45 -111 -86z" />
    <glyph glyph-name="Hcircumflex" unicode="&#x124;" horiz-adv-x="1390" 
d="M350 0h-172q-20 0 -20 20v1381q0 20 20 20h172q21 0 21 -18v-592h649v590q0 20 18 20h174q19 0 19 -18v-1383q0 -20 -19 -20h-174q-20 0 -20 20l2 607h-649v-607q-3 -20 -21 -20zM823 1530l-127 108l-129 -108q-17 -10 -24 -10h-178q-27 0 -7 20l240 203q12 12 29 12h139
q15 0 27 -12l239 -203q23 -20 -8 -20h-174q-10 0 -27 10z" />
    <glyph glyph-name="hcircumflex" unicode="&#x125;" horiz-adv-x="1120" 
d="M129 20v1438q0 21 21 21h159q21 0 21 -21v-649q94 155 301 158q169 -2 266.5 -112t97.5 -310l2 -525q0 -20 -20 -20h-160q-20 0 -20 20v496q0 125 -56.5 188.5t-158.5 61.5q-105 0 -175.5 -85.5t-76.5 -221.5v-439q0 -20 -21 -20h-159q-21 0 -21 20zM686 1559l-127 110
l-129 -110q-15 -9 -24 -9h-179q-10 0 -13 6t7 13l240 205q12 12 26 12h142q14 0 26 -12l240 -205q10 -7 8 -13t-16 -6h-174q-12 0 -27 9z" />
    <glyph glyph-name="Hbar" unicode="&#x126;" horiz-adv-x="1368" 
d="M365 1374v-221h639v219q0 21 18 21h168q18 0 18 -19v-221h49q21 0 21 -20v-95q0 -20 -21 -20h-49v-1000q0 -18 -18 -18h-168q-21 0 -21 20v594h-636v-596q0 -18 -21 -18h-166q-20 0 -20 20l2 998h-60q-20 0 -20 20v95q0 20 20 20h60v219q0 21 18 21h168q19 0 19 -19z
M1004 1018h-639v-223h639v223z" />
    <glyph glyph-name="hbar" unicode="&#x127;" horiz-adv-x="1120" 
d="M600 1182v-95q0 -20 -18 -20h-252v-258q94 155 301 158q169 -2 266.5 -112t97.5 -310l2 -525q0 -20 -20 -20h-160q-20 0 -20 20v496q0 125 -56.5 188.5t-158.5 61.5q-105 0 -175.5 -85.5t-76.5 -221.5v-439q0 -20 -21 -20h-159q-21 0 -21 20v1047h-80q-18 0 -18 20v95
q0 20 18 20h80v256q0 21 21 21h159q21 0 21 -21v-256h252q18 0 18 -20z" />
    <glyph glyph-name="Itilde" unicode="&#x128;" horiz-adv-x="528" 
d="M371 1401v-1383q0 -18 -21 -18h-172q-18 0 -18 18v1383q0 20 18 20h172q21 0 21 -20zM51 1534q-3 -25 -24 -10l-56 53q-13 13 -10 27q29 81 81 130.5t108 49.5q36 0 66 -15t50.5 -37t39 -44t40 -37t45.5 -15q66 3 103 103q9 23 24 8l60 -53q15 -9 8 -25
q-26 -83 -78.5 -131.5t-110.5 -48.5q-37 0 -67.5 15t-50.5 36.5t-38 43.5t-39.5 37t-45.5 15q-66 -3 -105 -102z" />
    <glyph glyph-name="itilde" unicode="&#x129;" horiz-adv-x="466" 
d="M334 924v-906q0 -18 -19 -18h-159q-21 0 -21 18l-2 906q0 20 21 20h161q19 0 19 -20zM8 1130q-9 -21 -26 -8l-60 54q-11 11 -8 22q29 85 81.5 134.5t110.5 49.5q37 0 68 -15.5t51 -37.5t38 -43.5t39.5 -36t45.5 -12.5q67 3 107 104q3 23 22 7l64 -58q9 -6 6 -16
q-26 -84 -80.5 -135.5t-112.5 -51.5q-32 -2 -62.5 14t-53 38.5t-43.5 45.5t-42 38t-40 12q-67 -3 -105 -105z" />
    <glyph glyph-name="Imacron" unicode="&#x12a;" horiz-adv-x="528" 
d="M371 1401v-1383q0 -18 -21 -18h-172q-18 0 -18 18v1383q0 20 18 20h172q21 0 21 -20zM18 1712h492q10 0 16 -7t4 -15v-119q2 -8 -4 -15.5t-16 -7.5h-492q-20 0 -20 21v121q-2 8 4 15t16 7z" />
    <glyph glyph-name="imacron" unicode="&#x12b;" horiz-adv-x="466" 
d="M334 924v-906q0 -18 -19 -18h-159q-21 0 -21 18l-2 906q0 20 21 20h161q19 0 19 -20zM-12 1341h489q10 0 17.5 -6t5.5 -14v-119q3 -24 -23 -24h-489q-23 0 -23 22v121q-2 8 5.5 14t17.5 6z" />
    <glyph glyph-name="Ibreve" unicode="&#x12c;" horiz-adv-x="528" 
d="M371 1401v-1383q0 -18 -21 -18h-172q-18 0 -18 18v1383q0 20 18 20h172q21 0 21 -20zM451 1772l110 2q19 0 19 -21q-6 -124 -91 -195t-223 -71q-137 0 -220.5 71t-90.5 195q0 21 20 21h111q17 0 20 -21q6 -50 50.5 -82.5t109.5 -32.5t110.5 32.5t53.5 82.5q0 19 21 19z
" />
    <glyph glyph-name="ibreve" unicode="&#x12d;" horiz-adv-x="471" 
d="M332 924v-906q0 -18 -19 -18h-159q-21 0 -21 18v906q0 20 19 20h161q19 0 19 -20zM418 1401h110q19 0 19 -21q-4 -141 -90.5 -226t-223.5 -85q-135 0 -220 85.5t-91 225.5q0 21 21 21h110q18 0 21 -21q6 -67 49.5 -111t109.5 -44q68 0 113 44.5t51 112.5q3 19 21 19z" />
    <glyph glyph-name="Iogonek" unicode="&#x12e;" horiz-adv-x="528" 
d="M371 1401v-1383q0 -18 -21 -18h-172q-18 0 -18 18v1383q0 20 18 20h172q21 0 21 -20zM438 -358q-64 -76 -182 -76q-98 0 -155.5 52t-59.5 140q0 64 45 129q46 67 86 107l115 94l78 -82l-80 -78q-69 -81 -78 -131q-18 -70 47 -88q53 -15 84 23q12 12 22 2l76 -66
q10 -16 2 -26z" />
    <glyph glyph-name="iogonek" unicode="&#x12f;" horiz-adv-x="466" 
d="M334 924v-906q0 -18 -19 -18h-159q-21 0 -21 18l-2 906q0 20 21 20h161q19 0 19 -20zM94 1278q0 60 38.5 96.5t98.5 36.5q61 0 97.5 -36.5t36.5 -96.5q0 -62 -36.5 -98.5t-97.5 -36.5q-62 0 -99.5 37t-37.5 98zM377 -344q-58 -76 -182 -76q-98 0 -155.5 52.5t-59.5 140.5
q0 62 43 129q9 13 18 25.5t16.5 21.5t19 21t17 18.5t20 19t18.5 16.5t22 18.5t21.5 17.5t25.5 20t26 20l78 -80q-83 -82 -117 -124.5t-41 -83.5q-21 -69 46 -91q53 -15 83 25q12 9 25 2l74 -67q11 -11 2 -25z" />
    <glyph glyph-name="Idot" unicode="&#x130;" horiz-adv-x="528" 
d="M371 1401v-1383q0 -18 -21 -18h-172q-18 0 -18 18v1383q0 20 18 20h172q21 0 21 -20zM268 1767q57 0 91 -35t34 -92t-34 -92t-91 -35q-60 0 -95.5 35t-35.5 92t35.5 92t95.5 35z" />
    <glyph glyph-name="dotlessi" unicode="&#x131;" horiz-adv-x="462" 
d="M330 885v-865q0 -20 -25 -20h-147q-8 0 -15.5 6.5t-7.5 13.5l-2 865q0 22 21 22h151q25 0 25 -22z" />
    <glyph glyph-name="IJ" unicode="&#x132;" horiz-adv-x="1312" 
d="M369 1403v-1383q0 -20 -19 -20h-170q-20 0 -20 20v1383q0 21 20 18h168q21 0 21 -18zM981 391v1012q0 20 16 20l172 -2q19 0 19 -18l2 -1045q1 -182 -85 -280t-245 -98q-182 0 -313 116q-15 9 -4 29l80 139q11 20 32 8q122 -84 193 -84q73 0 102 45t31 158z" />
    <glyph glyph-name="ij" unicode="&#x133;" horiz-adv-x="927" 
d="M334 924v-906q0 -18 -19 -18h-159q-21 0 -21 18l-2 906q0 20 21 20h161q19 0 19 -20zM94 1278q0 60 38.5 96.5t98.5 36.5q61 0 97.5 -36.5t36.5 -96.5q0 -62 -36.5 -98.5t-97.5 -36.5q-62 0 -99.5 37t-37.5 98zM557 1276q0 61 37.5 98t97.5 37q61 0 97 -36.5t36 -98.5
q0 -60 -36 -96.5t-97 -36.5q-60 0 -97.5 36.5t-37.5 96.5zM594 -121v1043q0 22 20 22l160 -2q19 0 19 -20l2 -1063q2 -160 -75 -252.5t-210 -91.5q-133 0 -225 71q-16 9 -6 29l67 131q15 21 33 6q51 -39 108 -39q104 0 107 166z" />
    <glyph glyph-name="Jcircumflex" unicode="&#x134;" horiz-adv-x="831" 
d="M463 393l-2 1008q0 20 20 20h170q21 0 21 -20l2 -1041q1 -182 -85 -280t-245 -100q-182 3 -313 114q-14 14 -4 31l79 141q10 23 33 6q125 -82 191 -82q72 0 100 44.5t33 158.5zM694 1530l-129 108l-129 -108q-10 -10 -24 -10h-176q-30 0 -7 20l240 203q9 12 27 12h139
q17 0 29 -12l237 -203q23 -20 -6 -20h-176q-8 0 -25 10z" />
    <glyph glyph-name="jcircumflex" unicode="&#x135;" horiz-adv-x="512" 
d="M193 -119v1043q0 18 20 18h158q20 0 20 -20l2 -1063q0 -160 -77 -253t-210 -93q-135 0 -223 73q-16 9 -6 29l66 131q14 20 34 6q51 -39 109 -39q107 0 107 168zM-39 1092l221 286q10 13 29 13h156q18 0 28 -13l219 -284q16 -19 -8 -19h-162q-15 0 -22 10l-133 179
l-131 -177q-9 -12 -27 -12h-162q-22 0 -8 17z" />
    <glyph glyph-name="uni0136" unicode="&#x136;" horiz-adv-x="1171" 
d="M344 1401v-641l512 649q12 12 23 12h200q32 0 11 -24l-541 -682l612 -690q22 -25 -10 -25h-221q-17 0 -27 10l-559 654v-646q0 -18 -20 -18h-172q-19 0 -19 18v1383q0 20 19 20h172q20 0 20 -20zM567 -287q-4 0 -6 2q-78 21 -78 111q0 55 32.5 88t86.5 33q44 0 75.5 -27
t39.5 -70q21 -102 -43 -190q-65 -89 -164 -119q-18 -9 -27 6l-32 60q-9 14 6 20q81 45 110 86z" />
    <glyph glyph-name="uni0137" unicode="&#x137;" horiz-adv-x="966" 
d="M682 942h219q33 0 12 -27l-372 -413l438 -475q24 -27 -12 -27h-215q-17 0 -27 10l-395 434v-426q0 -18 -21 -18h-159q-21 0 -21 18v1442q0 19 21 19h159q21 0 21 -19v-909l329 381q10 10 23 10zM481 -287q-4 0 -6 2q-78 21 -78 111q0 55 32.5 88t86.5 33q44 0 75.5 -27
t39.5 -70q21 -102 -43 -190q-65 -89 -164 -119q-18 -9 -27 6l-32 60q-9 14 6 20q81 45 110 86z" />
    <glyph glyph-name="kgreenlandic" unicode="&#x138;" horiz-adv-x="944" 
d="M682 942h219q33 0 12 -27l-372 -440l438 -448q24 -27 -12 -27h-215q-17 0 -27 10l-395 408v-400q0 -18 -21 -18h-159q-21 0 -21 18v906q0 18 21 18h159q21 0 21 -18v-400l329 408q10 10 23 10z" />
    <glyph glyph-name="Lacute" unicode="&#x139;" horiz-adv-x="925" 
d="M371 1401v-1211h477q20 0 20 -20v-152q0 -18 -20 -18h-670q-20 0 -20 18v1383q0 20 20 20h172q21 0 21 -20zM446 1815l80 -132q13 -19 -8 -28l-381 -201q-19 -9 -28 6l-46 74q-13 17 7 27l348 258q18 15 28 -4z" />
    <glyph glyph-name="lacute" unicode="&#x13a;" horiz-adv-x="468" 
d="M334 1458v-1438q0 -20 -21 -20h-159q-19 0 -19 20v1438q0 21 19 21h159q21 0 21 -21zM408 1894l77 -129q10 -17 -8 -26l-373 -197q-19 -9 -28 6l-43 72q-14 17 6 27l340 251q19 16 29 -4z" />
    <glyph glyph-name="uni013B" unicode="&#x13b;" horiz-adv-x="927" 
d="M371 1401v-1211h477q20 0 20 -20v-152q0 -18 -20 -18h-670q-20 0 -20 18v1383q0 20 20 20h172q21 0 21 -20zM485 -287q-4 0 -6 2q-78 21 -78 111q0 55 32.5 88t86.5 33q44 0 75.5 -27t39.5 -70q21 -102 -43 -190q-65 -89 -164 -119q-18 -9 -27 6l-32 60q-9 14 6 20
q81 45 110 86z" />
    <glyph glyph-name="uni013C" unicode="&#x13c;" horiz-adv-x="468" 
d="M334 1458v-1438q0 -20 -21 -20h-159q-19 0 -19 20v1438q0 21 19 21h159q21 0 21 -21zM195 -287q-5 0 -7 2q-77 21 -77 111q0 55 32 88t86 33q44 0 75.5 -27t39.5 -70q21 -102 -43 -190q-65 -89 -164 -119q-17 -9 -26 6l-33 60q-9 14 6 20q83 45 111 86z" />
    <glyph glyph-name="Lcaron" unicode="&#x13d;" horiz-adv-x="925" 
d="M371 1401v-1211h477q20 0 20 -20v-152q0 -18 -20 -18h-670q-20 0 -20 18v1383q0 20 20 20h172q21 0 21 -20zM571 895l-61 53q-12 15 2 29q127 100 154 233q-5 0 -7 2q-51 6 -81.5 42t-30.5 87q0 62 37 100t98 38q51 0 86.5 -30t42.5 -79q27 -127 -41 -278
q-67 -149 -170 -205q-15 -9 -29 8z" />
    <glyph glyph-name="lcaron" unicode="&#x13e;" horiz-adv-x="774" 
d="M334 1458v-1438q0 -20 -21 -20h-159q-19 0 -19 20v1438q0 21 19 21h159q21 0 21 -21zM469 895l-61 53q-12 15 2 29q129 102 153 233q-4 0 -6 2q-51 6 -82 40.5t-31 88.5q0 62 37 100t97 38q51 0 87.5 -30t43.5 -79q27 -127 -41 -278q-67 -149 -170 -205q-20 -10 -29 8z
" />
    <glyph glyph-name="Ldot" unicode="&#x13f;" horiz-adv-x="925" 
d="M371 1401v-1211h477q20 0 20 -20v-152q0 -18 -20 -18h-670q-20 0 -20 18v1383q0 20 20 20h172q21 0 21 -20zM666 938q60 0 97.5 -38t37.5 -99q0 -60 -37.5 -98.5t-97.5 -38.5q-61 0 -98.5 37.5t-37.5 99.5t37.5 99.5t98.5 37.5z" />
    <glyph glyph-name="ldot" unicode="&#x140;" horiz-adv-x="763" 
d="M334 1458v-1438q0 -20 -21 -20h-159q-19 0 -19 20v1438q0 21 19 21h159q21 0 21 -21zM457 684q-32 35 -32 90.5t32 87.5q35 35 90.5 35t87.5 -35q35 -32 35 -87.5t-35 -90.5q-32 -32 -87.5 -32t-90.5 32z" />
    <glyph glyph-name="Lslash" unicode="&#x141;" horiz-adv-x="925" 
d="M94 641l551 236q21 9 21 -13v-98q0 -23 -21 -29l-551 -237q-18 -6 -18 12v100q0 20 18 29zM371 1401v-1211h477q20 0 20 -20v-152q0 -18 -20 -18h-670q-20 0 -20 18v1383q0 20 20 20h172q21 0 21 -20z" />
    <glyph glyph-name="lslash" unicode="&#x142;" horiz-adv-x="479" 
d="M162 1450h153q21 0 21 -20v-656l141 70q19 10 19 -13v-100q0 -19 -19 -29l-141 -67v-615q0 -20 -19 -20h-155q-19 0 -19 20v519l-137 -66q-20 -9 -20 14v93q0 25 20 34l137 66l-2 750q0 20 21 20z" />
    <glyph glyph-name="Nacute" unicode="&#x143;" horiz-adv-x="1464" 
d="M1114 1421h172q21 0 21 -20l-2 -1381q0 -20 -19 -20h-203q-13 0 -22 12l-690 1069v-1061q0 -20 -21 -20h-172q-20 0 -20 20v1381q0 20 20 20h203q17 0 25 -14l688 -1065v1059q0 20 20 20zM897 1815l80 -132q13 -19 -8 -28l-381 -201q-20 -10 -29 6l-45 74q-14 17 6 27
l348 258q19 16 29 -4z" />
    <glyph glyph-name="nacute" unicode="&#x144;" horiz-adv-x="1124" 
d="M129 20v904q0 20 21 20h122q20 0 23 -20l24 -127q99 170 312 170q169 -2 266.5 -112t97.5 -310l2 -525q0 -20 -20 -20h-160q-20 0 -20 20v496q0 125 -56.5 188.5t-158.5 61.5q-105 0 -175.5 -85.5t-76.5 -223.5v-437q0 -20 -21 -20h-159q-21 0 -21 20zM717 1434l96 -119
q14 -14 -4 -29l-336 -229q-19 -16 -29 4l-53 63q-13 14 2 29l293 283q18 15 31 -2z" />
    <glyph glyph-name="uni0145" unicode="&#x145;" horiz-adv-x="1464" 
d="M1114 1421h172q21 0 21 -20l-2 -1381q0 -20 -19 -20h-203q-13 0 -22 12l-690 1069v-1061q0 -20 -21 -20h-172q-20 0 -20 20v1381q0 20 20 20h203q17 0 25 -14l688 -1065v1059q0 20 20 20zM686 -287q-4 0 -6 2q-78 21 -78 111q0 55 32.5 88t86.5 33q44 0 75.5 -27
t39.5 -70q21 -102 -43 -190q-65 -89 -164 -119q-18 -9 -27 6l-33 60q-9 14 6 20q83 45 111 86z" />
    <glyph glyph-name="uni0146" unicode="&#x146;" horiz-adv-x="1122" 
d="M129 20v904q0 20 21 20h122q20 0 23 -20l24 -127q99 170 312 170q169 -2 266.5 -112t97.5 -310l2 -525q0 -20 -20 -20h-160q-20 0 -20 20v496q0 125 -56.5 188.5t-158.5 61.5q-105 0 -175.5 -85.5t-76.5 -223.5v-437q0 -20 -21 -20h-159q-21 0 -21 20zM535 -287
q-5 0 -7 2q-77 21 -77 111q0 55 32 88t86 33q44 0 75.5 -27t39.5 -70q21 -102 -43 -190q-65 -89 -164 -119q-17 -9 -26 6l-33 60q-9 14 6 20q83 45 111 86z" />
    <glyph glyph-name="Ncaron" unicode="&#x147;" horiz-adv-x="1464" 
d="M1114 1421h172q21 0 21 -20l-2 -1381q0 -20 -19 -20h-203q-13 0 -22 12l-690 1069v-1061q0 -20 -21 -20h-172q-20 0 -20 20v1381q0 20 20 20h203q17 0 25 -14l688 -1065v1059q0 20 20 20zM598 1737l135 -113l135 113q9 12 27 12h182q34 0 8 -23l-249 -213
q-12 -12 -31 -12h-146q-16 0 -28 12l-252 213q-23 23 10 23h180q17 0 29 -12z" />
    <glyph glyph-name="ncaron" unicode="&#x148;" horiz-adv-x="1124" 
d="M129 20v904q0 20 21 20h122q20 0 23 -20l24 -127q99 170 312 170q169 -2 266.5 -112t97.5 -310l2 -525q0 -20 -20 -20h-160q-20 0 -20 20v496q0 125 -56.5 188.5t-158.5 61.5q-105 0 -175.5 -85.5t-76.5 -223.5v-437q0 -20 -21 -20h-159q-21 0 -21 20zM242 1397h159
q9 0 27 -11l131 -178l129 176q12 12 29 15h160q23 0 8 -21l-219 -282q-12 -15 -29 -15h-158q-16 0 -26 13l-220 284q-16 19 9 19z" />
    <glyph glyph-name="napostrophe" unicode="&#x149;" horiz-adv-x="1232" 
d="M238 20v904q0 20 20 20h123q19 0 22 -20l25 -127q99 170 311 170q170 -2 267.5 -112t97.5 -310l2 -525q0 -20 -21 -20h-159q-21 0 -21 20v496q0 125 -56.5 188.5t-158.5 61.5q-105 0 -175.5 -85.5t-76.5 -223.5v-437q0 -20 -20 -20h-160q-20 0 -20 20zM49 926l-59 55
q-15 15 4 27q130 103 151 235h-6q-51 6 -80.5 40.5t-29.5 88.5q0 62 35.5 98.5t95.5 36.5q51 0 85 -28.5t42 -75.5q28 -130 -39 -279q-66 -148 -170 -204q-14 -9 -29 6z" />
    <glyph glyph-name="Eng" unicode="&#x14a;" horiz-adv-x="1429" 
d="M1079 -121l-2 115l-723 1087v-1061q0 -20 -20 -20h-172q-21 0 -21 20v1381q0 20 21 20h203q16 0 24 -14l688 -1053v1047q0 20 21 20h172q20 0 20 -20v-1532q0 -167 -85 -258.5t-240 -91.5q-79 0 -158.5 35.5t-128.5 78.5q-18 15 -6 35l80 131q9 21 28 8q112 -81 174 -81
q66 0 94.5 35.5t30.5 117.5z" />
    <glyph glyph-name="eng" unicode="&#x14b;" horiz-adv-x="1130" 
d="M485 -414q-14 9 -4 29l66 133q9 22 31 6q59 -41 110 -41q109 0 109 166v637q0 125 -56.5 188.5t-158.5 61.5q-105 0 -175.5 -85.5t-76.5 -223.5v-437q0 -20 -21 -20h-157q-23 0 -23 20v902q0 22 21 22h120q21 0 27 -20l22 -127q99 170 312 170q169 -2 266.5 -112
t97.5 -310l2 -686q0 -160 -76.5 -253t-211.5 -93q-130 0 -224 73z" />
    <glyph glyph-name="Omacron" unicode="&#x14c;" horiz-adv-x="1615" 
d="M1536 711q0 -330 -201 -531q-198 -198 -526 -198q-330 0 -530 200q-201 201 -201 529q0 327 201 528q204 201 530 201q325 0 526 -201t201 -528zM809 190q232 0 373 144q143 143 143 377q0 233 -143 376q-141 144 -373 144q-233 0 -377 -144q-141 -141 -141 -376
t141 -379q145 -142 377 -142zM561 1708h496q20 0 20 -18v-119q0 -21 -20 -21h-496q-20 0 -20 21v119q0 18 20 18z" />
    <glyph glyph-name="omacron" unicode="&#x14d;" horiz-adv-x="1116" 
d="M557 967q221 0 356 -138q136 -136 136 -356q0 -219 -136 -358q-135 -135 -356 -135q-220 0 -354 137q-135 138 -135 356t135 356t354 138zM346 686q-80 -80 -80 -213q0 -132 80 -215q80 -80 211 -80t211 80q82 82 82 215q0 134 -82 213q-79 82 -211 82t-211 -82z
M315 1343h490q23 0 20 -20v-119q3 -24 -20 -24h-490q-22 0 -22 22v121q-2 8 5 14t17 6z" />
    <glyph glyph-name="Obreve" unicode="&#x14e;" horiz-adv-x="1615" 
d="M1536 711q0 -330 -201 -531q-198 -198 -526 -198q-330 0 -530 200q-201 201 -201 529q0 327 201 528q204 201 530 201q325 0 526 -201t201 -528zM809 190q232 0 373 144q143 143 143 377q0 233 -143 376q-141 144 -373 144q-233 0 -377 -144q-141 -141 -141 -376
t141 -379q145 -142 377 -142zM979 1765h102q19 0 19 -16q-6 -117 -84.5 -183.5t-208.5 -66.5q-126 0 -204.5 67t-84.5 183q0 16 17 16h104q15 0 18 -16q6 -48 47.5 -78.5t102.5 -30.5q63 0 104.5 30.5t46.5 78.5q3 16 21 16z" />
    <glyph glyph-name="obreve" unicode="&#x14f;" horiz-adv-x="1116" 
d="M557 967q221 0 356 -138q136 -136 136 -356q0 -219 -136 -358q-135 -135 -356 -135q-220 0 -354 137q-135 138 -135 356t135 356t354 138zM346 686q-80 -80 -80 -213q0 -132 80 -215q80 -80 211 -80t211 80q82 82 82 215q0 134 -82 213q-79 82 -211 82t-211 -82z
M729 1401h107q16 0 16 -21q-4 -133 -86 -214t-211 -81t-210 80.5t-85 214.5q0 21 19 21h104q17 0 20 -21q6 -63 48 -105t104 -42q65 0 107.5 42t48.5 107q3 19 18 19z" />
    <glyph glyph-name="Ohungarumlaut" unicode="&#x150;" horiz-adv-x="1615" 
d="M1536 711q0 -330 -201 -531q-198 -198 -526 -198q-330 0 -530 200q-201 201 -201 529q0 327 201 528q204 201 530 201q325 0 526 -201t201 -528zM809 190q232 0 373 144q143 143 143 377q0 233 -143 376q-141 144 -373 144q-233 0 -377 -144q-141 -141 -141 -376
t141 -379q145 -142 377 -142zM1036 1817l119 -84q18 -15 4 -29l-198 -225q-14 -14 -29 -2l-74 51q-14 14 -6 28l156 252q9 22 28 9zM717 1817l125 -86q19 -10 4 -25l-201 -227q-13 -13 -29 -4l-73 53q-15 12 -6 28l153 254q10 20 27 7z" />
    <glyph glyph-name="ohungarumlaut" unicode="&#x151;" horiz-adv-x="1116" 
d="M557 967q221 0 356 -138q136 -136 136 -356q0 -219 -136 -358q-135 -135 -356 -135q-220 0 -354 137q-135 138 -135 356t135 356t354 138zM346 686q-80 -80 -80 -213q0 -132 80 -215q80 -80 211 -80t211 80q82 82 82 215q0 134 -82 213q-79 82 -211 82t-211 -82z
M766 1454l117 -72q15 -12 6 -28l-205 -260q-9 -15 -27 -4l-69 45q-15 12 -8 28l157 281q9 20 29 10zM455 1454l120 -74q16 -10 5 -24l-203 -262q-13 -13 -29 -4l-69 45q-18 9 -9 30l156 281q9 18 29 8z" />
    <glyph glyph-name="OE" unicode="&#x152;" horiz-adv-x="1544" 
d="M1446 0h-664q-318 3 -512 197q-192 192 -192 514q0 320 192 512q195 195 508 198h645q23 0 23 -24v-144q0 -22 -23 -22h-448v-412h352q23 0 23 -22v-146q0 -22 -23 -22h-352v-439h469q22 0 22 -22v-148q0 -20 -20 -20zM764 207v1005q-217 -14 -345 -147.5t-128 -353.5
t127.5 -355t345.5 -149z" />
    <glyph glyph-name="oe" unicode="&#x153;" horiz-adv-x="1896" 
d="M850 473q0 133 -81 214t-212 81t-211 -81t-80 -214t80 -214t211 -81t212 80.5t81 214.5zM1057 545h565q-19 105 -94 166t-189 61t-188.5 -61t-93.5 -166zM557 967q261 0 393 -187q133 183 389 183q242 0 367 -147t123 -404q0 -21 -21 -21h-747q24 -104 103.5 -163.5
t199.5 -59.5q152 0 235 86q16 16 33 2l103 -106q15 -16 2 -29q-129 -141 -381 -141q-269 0 -406 186q-131 -186 -393 -186q-220 0 -354 137q-135 138 -135 356t135 356t354 138z" />
    <glyph glyph-name="Racute" unicode="&#x154;" horiz-adv-x="1116" 
d="M840 10l-332 561h-184v-551q0 -20 -21 -20h-172q-20 0 -20 20v1381q0 20 20 20h471q210 0 332.5 -114.5t124.5 -309.5q-1 -164 -89.5 -271.5t-248.5 -139.5l352 -561q13 -25 -14 -25h-199q-13 0 -20 10zM606 1223l-282 2v-455h282q111 0 176.5 59t65.5 166
q0 108 -66.5 168t-175.5 60zM770 1815l80 -132q13 -19 -8 -28l-381 -201q-20 -10 -29 6l-45 74q-14 17 6 27l348 258q19 16 29 -4z" />
    <glyph glyph-name="racute" unicode="&#x155;" horiz-adv-x="724" 
d="M639 735q-71 27 -131 27q-117 0 -178 -131v-611q0 -20 -21 -20h-159q-21 0 -21 20v904q0 18 21 18h110q22 0 25 -18l18 -70q103 109 244 109q56 0 145 -25q21 -3 15 -25l-41 -165q-9 -22 -27 -13zM530 1430l97 -117q15 -15 -4 -31l-336 -229q-16 -13 -29 4l-53 63
q-12 15 2 29l293 283q17 14 30 -2z" />
    <glyph glyph-name="uni0156" unicode="&#x156;" horiz-adv-x="1175" 
d="M887 10l-332 561h-184v-551q0 -20 -21 -20h-172q-20 0 -20 20v1381q0 20 20 20h471q210 0 332.5 -114.5t124.5 -309.5q-1 -164 -89.5 -271.5t-248.5 -139.5l352 -561q12 -25 -14 -25h-199q-13 0 -20 10zM653 1223l-282 2v-455h282q111 0 176.5 59t65.5 166
q0 108 -66.5 168t-175.5 60zM571 -287q-4 0 -6 2q-78 21 -78 111q0 55 32.5 88t86.5 33q44 0 75.5 -27t39.5 -70q21 -102 -43 -190q-65 -89 -164 -119q-18 -9 -27 6l-32 60q-9 14 6 20q81 45 110 86z" />
    <glyph glyph-name="uni0157" unicode="&#x157;" horiz-adv-x="727" 
d="M639 735q-71 27 -131 27q-117 0 -178 -131v-611q0 -20 -21 -20h-159q-21 0 -21 20v904q0 18 21 18h110q22 0 25 -18l18 -70q103 109 244 109q56 0 145 -25q21 -3 15 -25l-41 -165q-9 -22 -27 -13zM188 -287q-4 0 -6 2q-78 21 -78 111q0 55 32.5 88t86.5 33q44 0 75.5 -27
t39.5 -70q21 -102 -43 -190q-65 -89 -164 -119q-18 -9 -27 6l-32 60q-9 14 6 20q81 45 110 86z" />
    <glyph glyph-name="Rcaron" unicode="&#x158;" horiz-adv-x="1146" 
d="M870 10l-331 561h-185v-551q0 -20 -20 -20h-172q-21 0 -21 20v1381q0 20 21 20h471q210 0 332.5 -114.5t124.5 -309.5q-1 -164 -89.5 -271.5t-248.5 -139.5l352 -561q12 -25 -14 -25h-199q-14 0 -21 10zM637 1223l-283 2v-455h283q111 0 176.5 59t65.5 166
q0 108 -66.5 168t-175.5 60zM432 1737l135 -113l135 113q9 12 27 12h182q35 0 9 -23l-250 -213q-12 -12 -31 -12h-145q-17 0 -29 12l-252 213q-23 23 10 23h180q17 0 29 -12z" />
    <glyph glyph-name="rcaron" unicode="&#x159;" horiz-adv-x="724" 
d="M639 735q-71 27 -131 27q-117 0 -178 -131v-611q0 -20 -21 -20h-159q-21 0 -21 20v904q0 18 21 18h110q22 0 25 -18l18 -70q103 109 244 109q56 0 145 -25q21 -3 15 -25l-41 -165q-9 -22 -27 -13zM70 1397h159q9 0 27 -11l131 -178l129 176q12 12 29 15h160q23 0 8 -21
l-219 -282q-12 -15 -29 -15h-158q-16 0 -26 13l-220 284q-16 19 9 19z" />
    <glyph glyph-name="Sacute" unicode="&#x15a;" horiz-adv-x="1175" 
d="M92 152q-14 8 -4 28l86 150q13 16 31 4q64 -57 172 -100.5t227 -43.5q124 0 199.5 53.5t75.5 143.5q0 74 -73 123.5t-243 85.5q-239 51 -351.5 153.5t-117.5 272.5q-3 181 135 301t365 117q144 -1 257 -43t169 -94q14 -8 4 -31l-70 -156q-9 -20 -28 -4q-156 117 -342 117
q-121 0 -200 -55.5t-79 -137.5q0 -84 68 -131q66 -45 254 -92q242 -58 350.5 -151t114.5 -256q3 -192 -129 -312q-132 -117 -375 -114q-186 3 -312 59q-128 57 -184 113zM770 1815l80 -132q13 -19 -8 -28l-381 -201q-20 -10 -29 6l-45 74q-14 17 6 27l348 258q19 16 29 -4z
" />
    <glyph glyph-name="sacute" unicode="&#x15b;" horiz-adv-x="864" 
d="M76 84q-15 9 -6 31l69 129q9 12 25 6q133 -77 246 -80q82 -2 134 23.5t52 68.5q0 45 -44 69t-177 62q-154 43 -225 110t-72 175q-3 136 100 211q110 81 268 78q184 -3 306 -97q12 -9 6 -28l-66 -125q-9 -18 -33 -8q-91 58 -200 67q-77 4 -128.5 -21t-51.5 -67
q0 -43 41 -69t153 -58q173 -43 249 -106.5t77 -178.5q3 -135 -99 -217q-101 -82 -268 -79q-112 1 -208.5 33t-147.5 71zM563 1434l96 -119q14 -14 -4 -29l-336 -229q-15 -12 -28 4l-53 63q-12 15 2 29l292 283q18 15 31 -2z" />
    <glyph glyph-name="Scircumflex" unicode="&#x15c;" horiz-adv-x="1175" 
d="M92 152q-14 8 -4 28l86 150q13 16 31 4q64 -57 172 -100.5t227 -43.5q124 0 199.5 53.5t75.5 143.5q0 74 -73 123.5t-243 85.5q-239 51 -351.5 153.5t-117.5 272.5q-3 181 135 301t365 117q144 -1 257 -43t169 -94q14 -8 4 -31l-70 -156q-9 -20 -28 -4q-156 117 -342 117
q-121 0 -200 -55.5t-79 -137.5q0 -84 68 -131q66 -45 254 -92q242 -58 350.5 -151t114.5 -256q3 -192 -129 -312q-132 -117 -375 -114q-186 3 -312 59q-128 57 -184 113zM719 1516l-129 108l-129 -108q-11 -11 -25 -11h-176q-30 0 -6 21l240 203q9 12 26 12h139q17 0 29 -12
l238 -203q24 -21 -6 -21h-177q-6 0 -24 11z" />
    <glyph glyph-name="scircumflex" unicode="&#x15d;" horiz-adv-x="864" 
d="M76 84q-14 8 -4 31l65 125q9 16 29 6q126 -75 244 -78q84 -4 136 22.5t50 71.5q0 45 -47 72t-172 59q-152 41 -223.5 108.5t-75.5 176.5q-1 130 101 209.5t267 79.5q177 -3 302 -97q15 -12 6 -30l-64 -123q-6 -17 -28 -8q-101 61 -203 67q-77 6 -128.5 -20t-51.5 -68
q0 -46 40.5 -71.5t153.5 -55.5q171 -44 247 -107.5t77 -177.5q4 -134 -97.5 -215t-269.5 -79q-216 0 -354 102zM104 1096l222 286q10 13 28 13h156q19 0 29 -13l219 -284q16 -19 -8 -19h-162q-16 0 -23 11l-133 178l-131 -176q-10 -13 -27 -13h-161q-23 0 -9 17z" />
    <glyph glyph-name="Scedilla" unicode="&#x15e;" horiz-adv-x="1175" 
d="M92 152q-14 8 -4 28l86 150q13 16 31 4q64 -57 172 -100.5t227 -43.5q124 0 199.5 53.5t75.5 143.5q0 74 -73 123.5t-243 85.5q-239 51 -351.5 153.5t-117.5 272.5q-3 181 135 301t365 117q144 -1 257 -43t169 -94q14 -8 4 -31l-70 -156q-9 -20 -28 -4q-156 117 -342 117
q-121 0 -200 -55.5t-79 -137.5q0 -84 68 -131q66 -45 254 -92q242 -58 350.5 -151t114.5 -256q3 -192 -129 -312q-132 -117 -375 -114q-186 3 -312 59q-128 57 -184 113zM518 0h154l-33 -72q174 -21 174 -166q0 -84 -62.5 -134t-160.5 -50q-125 0 -215 72q-16 10 -4 22
l41 64q9 12 26 4q59 -39 137 -39q41 0 67 18.5t26 49.5q0 59 -111 59h-94q-21 0 -12 18z" />
    <glyph glyph-name="scedilla" unicode="&#x15f;" horiz-adv-x="864" 
d="M76 84q-14 8 -4 31l65 125q9 16 29 6q126 -75 244 -78q84 -4 136 22.5t50 71.5q0 45 -47 72t-172 59q-152 41 -223.5 108.5t-75.5 176.5q-1 130 101 209.5t267 79.5q177 -3 302 -97q15 -12 6 -30l-64 -123q-6 -17 -28 -8q-101 61 -203 67q-77 6 -128.5 -20t-51.5 -68
q0 -46 40.5 -71.5t153.5 -55.5q171 -44 247 -107.5t77 -177.5q4 -134 -97.5 -215t-269.5 -79q-216 0 -354 102zM358 0h160l-33 -76q183 -21 183 -174q0 -89 -65.5 -141.5t-170.5 -52.5q-132 0 -225 75q-16 10 -4 25l43 65q10 13 26 5q68 -41 146 -41q43 0 69.5 19.5
t26.5 51.5q0 64 -115 64h-100q-21 0 -12 18z" />
    <glyph glyph-name="Scaron" unicode="&#x160;" horiz-adv-x="1175" 
d="M92 152q-14 8 -4 28l86 150q13 16 31 4q64 -57 172 -100.5t227 -43.5q124 0 199.5 53.5t75.5 143.5q0 74 -73 123.5t-243 85.5q-239 51 -351.5 153.5t-117.5 272.5q-3 181 135 301t365 117q144 -1 257 -43t169 -94q14 -8 4 -31l-70 -156q-9 -20 -28 -4q-156 117 -342 117
q-121 0 -200 -55.5t-79 -137.5q0 -84 68 -131q66 -45 254 -92q242 -58 350.5 -151t114.5 -256q3 -192 -129 -312q-132 -117 -375 -114q-186 3 -312 59q-128 57 -184 113zM455 1737l135 -113l135 113q9 12 27 12h182q34 0 8 -23l-250 -213q-12 -12 -30 -12h-146q-17 0 -29 12
l-251 213q-23 23 10 23h180q17 0 29 -12z" />
    <glyph glyph-name="scaron" unicode="&#x161;" horiz-adv-x="866" 
d="M78 84q-14 8 -4 31l65 125q9 16 29 6q126 -75 244 -78q84 -4 136 22.5t50 71.5q0 45 -47 72t-172 59q-152 41 -223.5 108.5t-75.5 176.5q-1 130 101.5 209.5t267.5 79.5q176 -3 301 -97q15 -12 6 -30l-64 -123q-6 -17 -28 -8q-101 61 -203 67q-77 6 -128.5 -20t-51.5 -68
q0 -46 40.5 -71.5t153.5 -55.5q171 -44 247 -107.5t77 -177.5q4 -134 -97.5 -215t-269.5 -79q-216 0 -354 102zM106 1397h160q9 0 27 -11l131 -178l129 176q12 12 29 15h159q24 0 9 -21l-220 -282q-12 -15 -28 -15h-158q-17 0 -27 13l-219 284q-16 19 8 19z" />
    <glyph glyph-name="uni0162" unicode="&#x162;" horiz-adv-x="1110" 
d="M659 1401v-1383q0 -18 -18 -18h-172q-18 0 -18 18l-2 1383q0 18 18 18h174q18 0 18 -18zM29 1241v160q0 18 20 18h1014q18 0 18 -18v-160q0 -18 -20 -18h-1014q-18 0 -18 18z" />
    <glyph glyph-name="uni0163" unicode="&#x163;" horiz-adv-x="665" 
d="M563 219q16 16 27 -2l59 -137q9 -21 -2 -29q-81 -69 -203 -69q-125 0 -193 86t-67 245l4 934q0 19 19 19l160 2q18 0 18 -19l-2 -854q1 -120 21.5 -166.5t70.5 -48.5q32 0 88 39zM29 780v142q0 22 20 22h545q17 0 20 -22v-142q0 -20 -20 -20h-545q-20 0 -20 20z" />
    <glyph glyph-name="Tcaron" unicode="&#x164;" horiz-adv-x="1110" 
d="M449 18v1205h-402q-18 0 -18 18v160q0 20 20 20h1014q18 0 18 -20v-160q0 -18 -20 -18h-402l3 -1205q0 -18 -21 -18h-172q-20 0 -20 18zM420 1737l135 -113l135 113q9 12 27 12h182q34 0 8 -23l-250 -213q-12 -12 -30 -12h-146q-16 0 -28 12l-252 213q-23 23 10 23h180
q17 0 29 -12z" />
    <glyph glyph-name="tcaron" unicode="&#x165;" horiz-adv-x="825" 
d="M385 760v-365q0 -120 20 -166.5t70 -46.5q37 0 86 37q16 13 29 -4l61 -135q9 -22 -6 -31q-88 -70 -201 -67q-125 0 -192 86.5t-66 244.5v447h-137q-20 0 -20 20v144q0 18 20 18h137l2 305q0 21 19 21h158q20 0 20 -21v-305h209q20 0 20 -18v-144q0 -20 -20 -20h-209z
M618 1231q-4 0 -6 2q-77 21 -77 110q0 55 32 88t86 33q44 0 75.5 -26.5t39.5 -69.5q21 -102 -43 -190q-65 -89 -164 -119q-17 -9 -26 6l-33 59q-9 15 6 21q81 45 110 86z" />
    <glyph glyph-name="Tbar" unicode="&#x166;" horiz-adv-x="1110" 
d="M1081 1401v-160q0 -18 -20 -18h-402v-412h218q20 0 20 -18v-97q0 -18 -20 -18h-215v-660q0 -18 -21 -18h-172q-20 0 -20 18v660h-216q-20 0 -20 18v97q0 18 20 18h216v412h-402q-18 0 -18 18v160q0 20 20 20h1014q18 0 18 -20z" />
    <glyph glyph-name="tbar" unicode="&#x167;" horiz-adv-x="665" 
d="M575 459h-190v-86q1 -109 20.5 -150t69.5 -41q37 0 86 37q16 13 29 -4l61 -135q9 -22 -6 -31q-88 -70 -201 -67q-125 0 -192 86.5t-66 244.5v146h-131q-20 0 -20 18v96q0 21 20 21h131v166h-137q-20 0 -20 20v144q0 18 20 18h137l2 305q0 21 19 21h158q20 0 20 -21v-305
h209q20 0 20 -18v-144q0 -20 -20 -20h-209v-166h190q19 0 19 -21v-96q0 -18 -19 -18z" />
    <glyph glyph-name="Utilde" unicode="&#x168;" horiz-adv-x="1159" 
d="M49 557v844q0 18 21 18h172q20 0 20 -18v-846q0 -175 85 -270t235 -95q148 0 232 95t83 270v846q0 18 21 18h174q18 0 18 -18v-846q0 -276 -147 -426q-147 -147 -381 -147q-236 0 -385 149q-148 151 -148 426zM352 1530q-10 -23 -26 -10l-60 55q-12 9 -6 24q29 85 82 136
t111 51q38 0 69 -16t51.5 -38.5t39 -45t40.5 -37.5t47 -13q66 0 107 103q6 22 27 10l59 -55q11 -6 8 -25q-29 -86 -81.5 -135t-112.5 -49q-37 0 -68 16t-52.5 38.5t-41 44.5t-42 37t-46.5 13q-65 -3 -105 -104z" />
    <glyph glyph-name="utilde" unicode="&#x169;" horiz-adv-x="1128" 
d="M834 18l-25 129q-108 -170 -322 -170q-168 0 -265 111t-97 311v523q0 20 18 20h160q21 0 21 -20v-496q0 -258 219 -258q107 0 178.5 86.5t77.5 230.5v437q0 20 20 20h160q20 0 20 -18v-904q0 -20 -20 -20h-123q-19 0 -22 18zM340 1118q-9 -22 -27 -8l-59 53q-11 11 -8 23
q29 85 81.5 134.5t110.5 49.5q38 0 68 -15.5t49.5 -37.5t37.5 -43.5t39.5 -36t47.5 -12.5q70 3 104 104q9 22 25 6l63 -57q10 -7 7 -16q-26 -84 -80.5 -135.5t-112.5 -51.5q-32 -2 -62.5 14t-53.5 38.5t-44 45.5t-42 38t-40 12q-66 -3 -104 -105z" />
    <glyph glyph-name="Umacron" unicode="&#x16a;" horiz-adv-x="1345" 
d="M141 557v844q0 18 21 18h172q20 0 20 -18v-846q0 -175 85 -270t235 -95q148 0 232 95t83 270v846q0 18 21 18h174q18 0 18 -18v-846q0 -276 -147 -426q-147 -147 -381 -147q-236 0 -385 149q-148 151 -148 426zM424 1704h496q20 0 20 -18v-119q0 -21 -20 -21h-496
q-18 0 -18 21v119q0 18 18 18z" />
    <glyph glyph-name="umacron" unicode="&#x16b;" horiz-adv-x="1128" 
d="M834 18l-25 129q-108 -170 -322 -170q-168 0 -265 111t-97 311v523q0 20 18 20h160q21 0 21 -20v-496q0 -258 219 -258q107 0 178.5 86.5t77.5 230.5v437q0 20 20 20h160q20 0 20 -18v-904q0 -20 -20 -20h-123q-19 0 -22 18zM317 1341h490q23 0 20 -20v-119
q3 -22 -20 -22h-490q-22 0 -22 20v121q-2 8 5 14t17 6z" />
    <glyph glyph-name="Ubreve" unicode="&#x16c;" horiz-adv-x="1345" 
d="M141 557v844q0 18 21 18h172q20 0 20 -18v-846q0 -175 85 -270t235 -95q148 0 232 95t83 270v846q0 18 21 18h174q18 0 18 -18v-846q0 -276 -147 -426q-147 -147 -381 -147q-236 0 -385 149q-148 151 -148 426zM846 1767l106 2q17 0 17 -20q-6 -118 -86 -185t-211 -67
t-210.5 67t-86.5 185q0 20 20 20h105q17 0 20 -20q6 -45 49 -77t103 -32q62 0 104.5 30.5t50.5 78.5q0 18 19 18z" />
    <glyph glyph-name="ubreve" unicode="&#x16d;" horiz-adv-x="1128" 
d="M834 18l-25 129q-108 -170 -322 -170q-168 0 -265 111t-97 311v523q0 20 18 20h160q21 0 21 -20v-496q0 -258 219 -258q107 0 178.5 86.5t77.5 230.5v437q0 20 20 20h160q20 0 20 -18v-904q0 -20 -20 -20h-123q-19 0 -22 18zM731 1389h107q16 0 16 -21
q-5 -134 -86 -214.5t-211 -80.5q-129 0 -210 80.5t-87 214.5q0 21 21 21h104q18 0 21 -21q6 -63 47.5 -105t103.5 -42q65 0 107.5 42t48.5 107q3 19 18 19z" />
    <glyph glyph-name="Uring" unicode="&#x16e;" horiz-adv-x="1345" 
d="M141 557v844q0 18 21 18h172q20 0 20 -18v-846q0 -175 85 -270t235 -95q148 0 232 95t83 270v846q0 18 21 18h174q18 0 18 -18v-846q0 -276 -147 -426q-147 -147 -381 -147q-236 0 -385 149q-148 151 -148 426zM532 1516q-51 51 -51 139q0 86 51 137q53 53 140 53
q84 0 137 -53t53 -137q0 -86 -53 -139q-52 -52 -137 -52q-88 0 -140 52zM590 1655q0 -39 25.5 -61t56.5 -22t56.5 22t25.5 61q5 50 -38.5 71t-87 0t-38.5 -71z" />
    <glyph glyph-name="uring" unicode="&#x16f;" horiz-adv-x="1128" 
d="M834 18l-25 129q-108 -170 -322 -170q-168 0 -265 111t-97 311v523q0 20 18 20h160q21 0 21 -20v-496q0 -258 219 -258q107 0 178.5 86.5t77.5 230.5v437q0 20 20 20h160q20 0 20 -18v-904q0 -20 -20 -20h-123q-19 0 -22 18zM422 1094q-51 51 -51 139q0 86 51 137
q53 53 139 53q84 0 137 -53q54 -54 54 -137q0 -85 -54 -139q-52 -52 -137 -52q-87 0 -139 52zM502 1292q-23 -23 -23 -59t23 -59t59.5 -23t59.5 23t23 59t-23 59t-59.5 23t-59.5 -23z" />
    <glyph glyph-name="Uhungarumlaut" unicode="&#x170;" horiz-adv-x="1345" 
d="M141 557v844q0 18 21 18h172q20 0 20 -18v-846q0 -175 85 -270t235 -95q148 0 232 95t83 270v846q0 18 21 18h174q18 0 18 -18v-846q0 -276 -147 -426q-147 -147 -381 -147q-236 0 -385 149q-148 151 -148 426zM879 1815l120 -84q15 -15 2 -29l-198 -225q-15 -15 -29 -2
l-74 51q-15 12 -6 28l156 252q9 22 29 9zM561 1815l123 -86q17 -10 4 -27l-201 -225q-12 -12 -28 -2l-74 51q-15 12 -6 28l156 254q6 18 26 7z" />
    <glyph glyph-name="uhungarumlaut" unicode="&#x171;" horiz-adv-x="1128" 
d="M834 18l-25 129q-108 -170 -322 -170q-168 0 -265 111t-97 311v523q0 20 18 20h160q21 0 21 -20v-496q0 -258 219 -258q107 0 178.5 86.5t77.5 230.5v437q0 20 20 20h160q20 0 20 -18v-904q0 -20 -20 -20h-123q-19 0 -22 18zM758 1425l116 -71q21 -12 9 -31l-207 -258
q-9 -15 -25 -6l-69 47q-18 15 -9 27l158 282q9 21 27 10zM446 1425l123 -73q17 -10 4 -27l-204 -260q-12 -15 -27 -6l-72 47q-16 13 -6 29l156 282q9 18 26 8z" />
    <glyph glyph-name="Uogonek" unicode="&#x172;" horiz-adv-x="1345" 
d="M141 557v844q0 18 21 18h172q20 0 20 -18v-846q0 -175 85 -270t235 -95q148 0 232 95t83 270v846q0 18 21 18h174q18 0 18 -18v-846q0 -276 -147 -426q-147 -147 -381 -147q-236 0 -385 149q-148 151 -148 426zM807 -362q-61 -76 -180 -76q-99 0 -157 52t-60 140
q0 64 45 129q42 61 88 107q25 23 114 94l78 -82q-79 -76 -113 -120t-44 -89q-21 -70 47 -88q50 -14 84 23q11 11 22 2l74 -66q11 -11 2 -26z" />
    <glyph glyph-name="uogonek" unicode="&#x173;" horiz-adv-x="1128" 
d="M834 18l-25 129q-108 -170 -322 -170q-168 0 -265 111t-97 311v523q0 20 18 20h160q21 0 21 -20v-496q0 -258 219 -258q107 0 178.5 86.5t77.5 230.5v437q0 20 20 20h160q20 0 20 -18v-904q0 -20 -20 -20h-123q-19 0 -22 18zM1067 -356q-58 -76 -180 -76q-99 0 -157 52
t-60 140q0 62 43 129q26 39 57.5 72.5t53.5 52t75 59.5q4 4 6.5 5.5t6 4.5t6.5 5l77 -80q-82 -80 -116 -123.5t-41 -85.5q-21 -69 47 -90q52 -15 82 25q11 8 24 2l74 -68q11 -11 2 -24z" />
    <glyph glyph-name="Wcircumflex" unicode="&#x174;" horiz-adv-x="1845" 
d="M422 16l-416 1385q-6 20 14 20h179q19 0 22 -18l301 -1061l291 1061q9 18 25 18h166q19 0 22 -18l295 -1069l305 1073q3 14 19 14h178q22 0 16 -20l-418 -1385q-6 -16 -24 -16h-150q-19 0 -22 16l-303 1137l-306 -1137q-3 -16 -22 -16h-150q-16 0 -22 16zM852 1759h141
q15 0 27 -12l240 -203q23 -20 -9 -20h-174q-9 0 -26 10l-127 108l-129 -108q-17 -10 -27 -10h-176q-26 0 -6 20l239 203q12 12 27 12z" />
    <glyph glyph-name="wcircumflex" unicode="&#x175;" horiz-adv-x="1337" 
d="M1044 0h-174q-21 0 -24 16l-176 654l-178 -654q-6 -16 -25 -16h-172q-20 0 -23 16l-262 908q-9 18 13 18h184q19 0 22 -16l158 -658l186 658q6 16 23 16h145q22 0 25 -18l186 -674l156 676q3 16 20 16h187q17 0 14 -18l-260 -908q-6 -16 -25 -16zM512 1077h-162
q-22 0 -8 17l221 286q10 13 29 13h156q18 0 28 -13l219 -284q16 -19 -8 -19h-162q-15 0 -22 10l-133 179l-131 -176q-10 -13 -27 -13z" />
    <glyph glyph-name="Ycircumflex" unicode="&#x176;" horiz-adv-x="1208" 
d="M498 18v547l-488 830q-15 24 15 24h186q19 0 29 -16l364 -649l365 649q10 16 28 16h187q29 0 14 -24l-487 -828v-549q0 -18 -21 -18h-172q-20 0 -20 18zM733 1522l-129 108l-127 -108q-18 -11 -26 -11h-177q-30 0 -6 21l240 203q12 12 27 12h141q14 0 26 -12l240 -203
q21 -21 -8 -21h-176q-7 0 -25 11z" />
    <glyph glyph-name="ycircumflex" unicode="&#x177;" horiz-adv-x="983" 
d="M780 942h170q28 0 19 -27l-553 -1364q-9 -18 -29 -18h-162q-27 0 -18 27l178 446l-371 909q-9 27 17 27h174q20 0 26 -16l252 -676l271 676q6 16 26 16zM164 1085l221 287q9 12 29 12h155q20 0 29 -12l219 -285q15 -18 -8 -18h-162q-15 0 -22 10l-133 178l-132 -176
q-9 -12 -26 -12h-162q-21 0 -8 16z" />
    <glyph glyph-name="Ydieresis" unicode="&#x178;" horiz-adv-x="1208" 
d="M498 18v547l-488 830q-15 24 15 24h186q19 0 29 -16l364 -649l365 649q10 16 28 16h187q29 0 14 -24l-487 -828v-549q0 -18 -21 -18h-172q-20 0 -20 18zM315 1628q0 57 33 91t88 34q56 1 90.5 -33.5t34.5 -91.5q0 -54 -35 -88.5t-90 -34.5t-88 33.5t-33 89.5zM647 1628
q0 57 33.5 91t89.5 34q55 1 89 -33.5t34 -91.5q0 -54 -34 -88.5t-89 -34.5t-89 34.5t-34 88.5z" />
    <glyph glyph-name="Zacute" unicode="&#x179;" horiz-adv-x="1185" 
d="M1104 1386l-711 -1189h703q20 0 20 -21v-156q0 -20 -20 -20h-1014q-39 0 -19 33l709 1192h-647q-19 0 -19 18v158q0 20 19 20h960q37 0 19 -35zM770 1815l80 -132q13 -19 -8 -28l-381 -201q-20 -10 -29 6l-45 74q-14 17 6 27l348 258q19 16 29 -4z" />
    <glyph glyph-name="zacute" unicode="&#x17a;" horiz-adv-x="927" 
d="M827 0h-725q-32 0 -16 31l440 729h-403q-19 0 -19 20v144q0 18 19 18h698q37 0 17 -33l-441 -727h430q19 0 19 -20v-142q0 -20 -19 -20zM649 1419l99 -119q12 -15 -5 -28l-335 -230q-15 -15 -31 5l-51 63q-12 12 2 27l293 284q18 15 28 -2z" />
    <glyph glyph-name="Zdotaccent" unicode="&#x17b;" horiz-adv-x="1185" 
d="M1104 1386l-711 -1189h703q20 0 20 -21v-156q0 -20 -20 -20h-1014q-39 0 -19 33l709 1192h-647q-19 0 -19 18v158q0 20 19 20h960q37 0 19 -35zM489 1638q0 51 32 82t83 31t81 -31t30 -82q0 -54 -30 -84t-81 -30q-52 0 -83.5 30.5t-31.5 83.5z" />
    <glyph glyph-name="zdotaccent" unicode="&#x17c;" horiz-adv-x="927" 
d="M827 0h-725q-32 0 -16 31l440 729h-403q-19 0 -19 20v144q0 18 19 18h698q37 0 17 -33l-441 -727h430q19 0 19 -20v-142q0 -20 -19 -20zM469 1378q51 0 83 -31.5t32 -82.5q4 -39 -17.5 -68.5t-53 -41t-67.5 -5.5t-61 31t-31 61t5.5 67.5t41 52.5t68.5 17z" />
    <glyph glyph-name="Zcaron" unicode="&#x17d;" horiz-adv-x="1185" 
d="M1104 1386l-711 -1189h703q20 0 20 -21v-156q0 -20 -20 -20h-1014q-39 0 -19 33l709 1192h-647q-19 0 -19 18v158q0 20 19 20h960q37 0 19 -35zM459 1737l135 -113l135 113q9 12 27 12h182q34 0 8 -23l-250 -213q-12 -12 -30 -12h-146q-16 0 -28 12l-252 213
q-23 23 10 23h180q17 0 29 -12z" />
    <glyph glyph-name="zcaron" unicode="&#x17e;" horiz-adv-x="927" 
d="M825 0h-725q-32 0 -16 31l440 729h-403q-19 0 -19 20v144q0 18 19 18h698q37 0 17 -33l-441 -727h430q19 0 19 -20v-142q0 -20 -19 -20zM156 1397h159q9 0 27 -11l131 -178l129 176q12 12 29 15h160q23 0 8 -21l-219 -282q-12 -15 -29 -15h-158q-16 0 -26 13l-220 284
q-16 19 9 19z" />
    <glyph glyph-name="longs" unicode="&#x17f;" horiz-adv-x="630" 
d="M365 1120v-1100q0 -20 -21 -20h-160q-20 0 -20 20l-2 1119q0 180 77.5 271t219.5 91q128 0 231 -74q15 -12 6 -28l-67 -131q-6 -15 -27 -6q-64 43 -121 43q-116 0 -116 -185z" />
    <glyph glyph-name="florin" unicode="&#x192;" horiz-adv-x="958" 
d="M1018 1389l-94 -115q-17 -17 -33 -4q-71 41 -107 41q-94 0 -118 -154l-31 -215h209q21 0 18 -20l-20 -142q0 -20 -23 -20h-209l-80 -572q-30 -210 -198 -286q-167 -79 -379 10q-20 6 -8 27l82 133q12 15 28 6q116 -47 194 -1t97 171l72 512h-139q-21 0 -21 20l23 142
q0 20 22 20h139l33 225q20 148 105 241t202 93q126 0 236 -78q14 -14 0 -34z" />
    <glyph glyph-name="uni0218" unicode="&#x218;" horiz-adv-x="1175" 
d="M92 152q-14 8 -4 28l86 150q13 16 31 4q64 -57 172 -100.5t227 -43.5q124 0 199.5 53.5t75.5 143.5q0 74 -73 123.5t-243 85.5q-239 51 -351.5 153.5t-117.5 272.5q-3 181 135 301t365 117q144 -1 257 -43t169 -94q14 -8 4 -31l-70 -156q-9 -20 -28 -4q-156 117 -342 117
q-121 0 -200 -55.5t-79 -137.5q0 -84 68 -131q66 -45 254 -92q242 -58 350.5 -151t114.5 -256q3 -192 -129 -312q-132 -117 -375 -114q-186 3 -312 59q-128 57 -184 113zM553 -287q-4 0 -6 2q-78 21 -78 111q0 55 32.5 88t86.5 33q44 0 75 -27t39 -70q21 -102 -43 -190
q-65 -89 -163 -119q-18 -9 -27 6l-33 60q-9 14 6 20q83 45 111 86z" />
    <glyph glyph-name="uni0219" unicode="&#x219;" horiz-adv-x="864" 
d="M76 84q-14 8 -4 31l65 125q9 16 29 6q126 -75 244 -78q84 -4 136 22.5t50 71.5q0 45 -47 72t-172 59q-152 41 -223.5 108.5t-75.5 176.5q-1 130 101 209.5t267 79.5q177 -3 302 -97q15 -12 6 -30l-64 -123q-6 -17 -28 -8q-101 61 -203 67q-77 6 -128.5 -20t-51.5 -68
q0 -46 40.5 -71.5t153.5 -55.5q171 -44 247 -107.5t77 -177.5q4 -134 -97.5 -215t-269.5 -79q-216 0 -354 102zM403 -287q-4 0 -6 2q-78 21 -78 111q0 55 32.5 88t86.5 33q44 0 75.5 -27t39.5 -70q21 -102 -43 -190q-65 -89 -164 -119q-18 -9 -27 6l-32 60q-9 14 6 20
q81 45 110 86z" />
    <glyph glyph-name="uni021A" unicode="&#x21a;" horiz-adv-x="1110" 
d="M449 18v1205h-402q-18 0 -18 18v160q0 20 20 20h1014q18 0 18 -20v-160q0 -18 -20 -18h-402l3 -1205q0 -18 -21 -18h-172q-20 0 -20 18zM518 -287q-4 0 -6 2q-78 21 -78 111q0 55 32.5 88t86.5 33q44 0 75.5 -27t39.5 -70q21 -102 -43 -190q-65 -89 -164 -119
q-18 -9 -27 6l-33 60q-8 14 7 20q81 45 110 86z" />
    <glyph glyph-name="uni021B" unicode="&#x21b;" horiz-adv-x="665" 
d="M385 760v-365q0 -120 20 -166.5t70 -46.5q37 0 86 37q16 13 29 -4l61 -135q9 -22 -6 -31q-88 -70 -201 -67q-125 0 -192 86.5t-66 244.5v447h-137q-20 0 -20 20v144q0 18 20 18h137l2 305q0 21 19 21h158q20 0 20 -21v-305h209q20 0 20 -18v-144q0 -20 -20 -20h-209z
M348 -287q-4 0 -6 2q-78 21 -78 111q0 55 32.5 88t86.5 33q44 0 75.5 -27t39.5 -70q21 -102 -43 -190q-65 -89 -164 -119q-18 -9 -27 6l-33 60q-8 14 7 20q81 45 110 86z" />
    <glyph glyph-name="uni0237" unicode="&#x237;" horiz-adv-x="493" 
d="M186 -125v1075q0 21 21 21h162q20 0 20 -21l2 -1097q0 -164 -80 -260.5t-215 -94.5q-128 0 -231 74q-17 13 -4 29l67 137q15 21 33 6q59 -41 113 -41q109 0 112 172z" />
    <glyph glyph-name="circumflex" unicode="&#x2c6;" horiz-adv-x="770" 
d="M57 1098l222 286q10 13 28 13h156q19 0 29 -13l219 -284q7 -9 4.5 -14t-13.5 -5h-161q-16 0 -23 11l-133 178l-131 -176q-10 -13 -27 -13h-161q-23 0 -9 17z" />
    <glyph glyph-name="caron" unicode="&#x2c7;" horiz-adv-x="794" 
d="M80 1397h160q8 0 26 -11l131 -178l129 176q12 12 29 15h160q23 0 8 -21l-219 -282q-12 -15 -29 -15h-158q-16 0 -26 13l-219 284q-16 19 8 19z" />
    <glyph glyph-name="uni02C9" unicode="&#x2c9;" horiz-adv-x="665" 
d="M86 1423h494q20 0 20 -20v-115q0 -20 -20 -20h-494q-20 0 -20 20v115q0 20 20 20z" />
    <glyph glyph-name="breve" unicode="&#x2d8;" horiz-adv-x="724" 
d="M535 1419h106q18 0 18 -18q-4 -133 -86 -214t-213 -83q-128 2 -208 83t-86 214q0 18 18 18h106q16 0 19 -18q6 -63 47.5 -105.5t103.5 -42.5q64 0 107 42.5t49 105.5q3 18 19 18z" />
    <glyph glyph-name="dotaccent" unicode="&#x2d9;" horiz-adv-x="387" 
d="M76 1343q-4 37 17 66t53.5 40.5t69 6.5t60.5 -29t29 -60.5t-6.5 -69t-40 -53.5t-65.5 -17q-54 0 -85.5 31t-31.5 85z" />
    <glyph glyph-name="ring" unicode="&#x2da;" horiz-adv-x="512" 
d="M117 1141q-51 51 -51 139q0 86 51 137q53 53 139 53q84 0 137 -53t53 -137q0 -86 -53 -139q-51 -51 -137 -51q-88 0 -139 51zM197 1339q-23 -23 -23 -59t23 -59t59 -23t59 23t23 59t-23 59t-59 23t-59 -23z" />
    <glyph glyph-name="ogonek" unicode="&#x2db;" horiz-adv-x="473" 
d="M449 -362q-66 -78 -183 -78q-97 1 -156 55t-59 137q0 44 19 86q34 57 51 78q43 49 67 72l35 30l39 33l35 31l78 -82l-80 -78q-69 -81 -78 -131q-15 -71 47 -88q48 -16 82 21q8 14 25 4l75 -66q12 -12 3 -24z" />
    <glyph glyph-name="tilde" unicode="&#x2dc;" horiz-adv-x="778" 
d="M162 1184q-9 -22 -27 -8l-61 57q-11 8 -8 20q30 87 84 138t112 51q38 0 69 -15.5t51 -37.5t38.5 -44t41 -37.5t48.5 -15.5q66 3 106 107q10 23 25 8l64 -59q9 -6 6 -19q-26 -85 -81 -136.5t-116 -51.5q-36 0 -67 16t-52 38.5t-40.5 44.5t-42 37t-46.5 13q-64 0 -104 -106
z" />
    <glyph glyph-name="hungarumlaut" unicode="&#x2dd;" horiz-adv-x="770" 
d="M573 1493l121 -74q22 -12 6 -28l-208 -267q-14 -14 -27 -4l-74 49q-15 12 -6 27l160 287q8 20 28 10zM254 1493l127 -74q16 -13 4 -28l-209 -267q-13 -13 -26 -4l-74 47q-18 9 -8 29l159 289q12 17 27 8z" />
    <glyph glyph-name="uni0313" unicode="&#x313;" horiz-adv-x="450" 
d="M176 -287q-4 0 -6 2q-78 21 -78 111q0 55 32.5 88t86.5 33q44 0 75.5 -27t39.5 -70q21 -102 -43 -190q-65 -89 -164 -119q-18 -9 -27 6l-33 60q-8 14 7 20q81 45 110 86z" />
    <glyph glyph-name="uni0394" unicode="&#x394;" horiz-adv-x="1347" 
d="M729 1384l-541 -1364l-2 -2q-6 -18 -26 -18h-109q-29 0 -20 27l561 1372q9 20 29 20h106zM621 1419h106h-2q22 0 31 -20l559 -1368q9 -31 -21 -31h-92q-22 0 -28 20l-553 1364v35zM1210 0h-1063v135h1063v-135z" />
    <glyph glyph-name="uni03A9" unicode="&#x3a9;" horiz-adv-x="1632" 
d="M1319 213l240 2q22 0 22 -22v-170q0 -23 -22 -23h-537q-21 0 -18 20v191q149 59 237 197q90 140 90 303q0 235 -141 379q-140 143 -373 143q-232 0 -375 -143t-143 -379q0 -161 96 -301q98 -136 252 -195v-195q-3 -20 -20 -20h-537q-20 0 -20 23v172q0 20 20 20h221
q-223 195 -223 496q0 329 199 528q201 201 530 201q325 0 526 -201q200 -200 203 -528q-3 -299 -227 -498z" />
    <glyph glyph-name="uni03BC" unicode="&#x3bc;" horiz-adv-x="1134" 
d="M301 -465h-145q-27 0 -27 27v1360q0 20 21 20h159q21 0 21 -20v-496q0 -258 217 -258q108 0 180 86.5t78 230.5v437q0 20 20 20h158q21 0 21 -20l2 -902q0 -20 -23 -20h-123q-16 0 -22 20l-23 127q-111 -170 -323 -170q-100 0 -164 43v-458q0 -27 -27 -27z" />
    <glyph glyph-name="pi" unicode="&#x3c0;" horiz-adv-x="1138" 
d="M45 774v150q0 20 21 20h1007q21 0 21 -20v-150q0 -22 -21 -22h-125v-732q0 -20 -20 -20h-152q-20 0 -20 20v732h-371v-732q0 -20 -20 -20h-154q-18 0 -18 20v732h-127q-21 0 -21 22z" />
    <glyph glyph-name="Wgrave" unicode="&#x1e80;" horiz-adv-x="1845" 
d="M422 16l-416 1385q-6 20 14 20h179q19 0 22 -18l301 -1061l291 1061q9 18 25 18h166q19 0 22 -18l295 -1069l305 1073q3 14 19 14h178q22 0 16 -20l-418 -1385q-6 -16 -24 -16h-150q-19 0 -22 16l-303 1137l-306 -1137q-3 -16 -22 -16h-150q-16 0 -22 16zM1026 1460
l-383 201q-23 10 -6 27l78 131q9 21 30 6l349 -258q15 -12 6 -27l-47 -74q-10 -20 -27 -6z" />
    <glyph glyph-name="wgrave" unicode="&#x1e81;" horiz-adv-x="1337" 
d="M322 0l6 47l245 877q3 18 23 18h106q36 0 27 -35l-237 -889q-6 -18 -25 -18h-145zM440 25l-10 -25h-135q-20 0 -23 16l-262 908q-6 18 13 18h184q19 0 22 -18zM924 0l-19 23l203 901q3 18 22 18h183q19 0 16 -20l-260 -904q-6 -18 -25 -18h-120zM999 63l13 -63h-142
q-21 0 -24 18l-230 861q-7 39 -14 63h43h96q21 0 27 -18zM741 1051l-333 227q-22 12 -5 29l97 118q15 15 28 2l297 -286q11 -8 2 -23l-59 -65q-9 -13 -27 -2z" />
    <glyph glyph-name="Wacute" unicode="&#x1e82;" horiz-adv-x="1845" 
d="M422 16l-416 1385q-6 20 14 20h179q19 0 22 -18l301 -1061l291 1061q9 18 25 18h166q19 0 22 -18l295 -1069l305 1073q3 14 19 14h178q22 0 16 -20l-418 -1385q-6 -16 -24 -16h-150q-19 0 -22 16l-303 1137l-306 -1137q-3 -16 -22 -16h-150q-16 0 -22 16zM1079 1815
l80 -132q13 -19 -8 -28l-381 -201q-20 -10 -29 6l-45 74q-14 17 6 27l349 258q18 15 28 -4z" />
    <glyph glyph-name="wacute" unicode="&#x1e83;" horiz-adv-x="1337" 
d="M1044 0h-174q-21 0 -24 16l-176 654l-178 -654q-6 -16 -25 -16h-172q-20 0 -23 16l-262 908q-9 18 13 18h184q19 0 22 -16l158 -658l186 658q6 16 23 16h145q22 0 25 -18l186 -674l156 676q3 16 20 16h187q17 0 14 -18l-260 -908q-6 -16 -25 -16zM809 1419l96 -119
q13 -13 -4 -28l-336 -230q-18 -15 -28 5l-54 63q-13 14 2 29l293 282q18 15 31 -2z" />
    <glyph glyph-name="Wdieresis" unicode="&#x1e84;" horiz-adv-x="1845" 
d="M422 16l-416 1385q-6 20 14 20h179q19 0 22 -18l301 -1061l291 1061q9 18 25 18h166q19 0 22 -18l295 -1069l305 1073q3 14 19 14h178q22 0 16 -20l-418 -1385q-6 -16 -24 -16h-150q-19 0 -22 16l-303 1137l-306 -1137q-3 -16 -22 -16h-150q-16 0 -22 16zM633 1628
q0 57 33.5 91t89.5 34q56 1 90.5 -33.5t34.5 -91.5q0 -54 -35 -88.5t-90 -34.5t-89 34.5t-34 88.5zM967 1628q0 57 32.5 91t87.5 34q55 1 89 -33.5t34 -91.5q0 -56 -34 -89.5t-89 -33.5t-87.5 33.5t-32.5 89.5z" />
    <glyph glyph-name="wdieresis" unicode="&#x1e85;" horiz-adv-x="1337" 
d="M1044 0h-174q-21 0 -24 16l-176 654l-178 -654q-6 -16 -25 -16h-172q-20 0 -23 16l-262 908q-9 18 13 18h184q19 0 22 -16l158 -658l186 658q6 16 23 16h145q22 0 25 -18l186 -674l156 676q3 16 20 16h187q17 0 14 -18l-260 -908q-6 -16 -25 -16zM412 1139q-32 35 -32 90
t32 90q35 35 90 35t90 -35t35 -90t-35 -90t-90 -35t-90 35zM743 1139q-32 35 -32 90t32 90q35 35 91 35t88 -35q35 -35 35 -90t-35 -90q-32 -35 -88 -35t-91 35z" />
    <glyph glyph-name="LatinCapitalLetterSharpS" unicode="&#x1e9e;" horiz-adv-x="1284" 
d="M696 197q59 -41 129 -41q72 1 116 39.5t44 95.5q0 51 -34.5 101t-83.5 92.5t-98 86.5t-83.5 99t-34.5 114q-2 32 17.5 69t48 70.5t57 65.5t47.5 63t17 54q0 66 -59 103.5t-148 37.5q-134 -2 -205.5 -99.5t-71.5 -281.5v-843q0 -23 -22 -23h-166q-25 0 -25 23v929
q0 226 133 359t349 133q176 -3 301 -94q125 -88 125 -244q0 -49 -19.5 -91t-48 -71.5t-57 -55t-49.5 -54t-23 -56.5q0 -26 25.5 -54t64 -53t83.5 -62t83.5 -77.5t64 -102.5t25.5 -134q0 -155 -106 -252q-104 -98 -267 -98q-94 0 -209 53q-19 8 -10 33l64 157q6 21 26 9z" />
    <glyph glyph-name="endash" unicode="&#x2013;" horiz-adv-x="1185" 
d="M178 690h828q22 0 22 -22v-140q0 -22 -22 -22h-828q-22 0 -22 22v140q0 22 22 22z" />
    <glyph glyph-name="emdash" unicode="&#x2014;" horiz-adv-x="1730" 
d="M178 688h1374q23 0 23 -22v-138q0 -22 -23 -22h-1374q-22 0 -22 22v138q0 22 22 22z" />
    <glyph glyph-name="quoteleft" unicode="&#x2018;" horiz-adv-x="419" 
d="M303 1460l57 -55q12 -13 -2 -27q-130 -103 -151 -233q2 0 4 -2q51 -5 81.5 -40t29.5 -89q0 -60 -36 -96.5t-96 -36.5q-51 0 -85 28.5t-42 75.5q-27 128 39 275q67 149 170 208q16 7 31 -8z" />
    <glyph glyph-name="quoteright" unicode="&#x2019;" horiz-adv-x="419" 
d="M113 895l-60 53q-9 14 0 29q133 103 154 233q-4 0 -6 2q-51 6 -81 40.5t-30 88.5q0 62 36.5 100t96.5 38q54 0 88.5 -29.5t40.5 -79.5q28 -130 -39 -278q-67 -149 -170 -205q-16 -9 -30 8z" />
    <glyph glyph-name="quotesinglbase" unicode="&#x201a;" horiz-adv-x="460" 
d="M137 -348l-57 55q-12 13 2 27q130 103 151 233q0 2 -4 2q-51 6 -81.5 40.5t-30.5 88.5q0 60 36.5 96.5t96.5 36.5q51 0 85 -28.5t42 -75.5q27 -127 -39 -274q-68 -152 -170 -207q-16 -9 -31 6z" />
    <glyph glyph-name="quotedblleft" unicode="&#x201c;" horiz-adv-x="747" 
d="M303 1460l59 -53q13 -16 -4 -29q-130 -103 -151 -233h4q51 -6 82 -41.5t31 -89.5q0 -60 -37 -96.5t-97 -36.5q-51 0 -85 28.5t-42 75.5q-28 129 39 277q68 150 170 206q14 9 31 -8zM535 1145h4q51 -6 81.5 -41.5t30.5 -89.5q0 -60 -36.5 -96.5t-96.5 -36.5
q-51 0 -85 28.5t-42 75.5q-28 129 39 277q68 150 170 206q12 9 29 -8l59 -53q13 -16 -4 -29q-128 -104 -149 -233z" />
    <glyph glyph-name="quotedblright" unicode="&#x201d;" horiz-adv-x="794" 
d="M469 893l-59 55q-12 12 4 27q130 103 151 233l-4 2q-51 4 -81.5 39.5t-30.5 89.5q0 60 35.5 97t95.5 37q51 0 86 -29t43 -76q27 -128 -39 -276t-170 -207q-16 -7 -31 8zM238 1208q0 2 -5 2q-51 4 -81.5 39.5t-30.5 89.5q0 60 36.5 97t96.5 37q51 0 85 -28.5t42 -76.5
q27 -128 -39 -276t-170 -207q-16 -7 -31 8l-57 55q-12 12 2 27q131 104 152 233z" />
    <glyph glyph-name="quotedblbase" unicode="&#x201e;" horiz-adv-x="788" 
d="M465 -352l-59 55q-12 11 4 27q130 103 151 233l-4 2q-51 5 -82 40t-31 89q0 60 35.5 96.5t95.5 36.5q51 0 87 -28.5t43 -75.5q27 -128 -39 -275q-67 -149 -170 -208q-16 -7 -31 8zM233 -37q0 2 -4 2q-51 4 -81.5 39.5t-30.5 89.5q0 60 36.5 96.5t96.5 36.5q51 0 85 -28.5
t42 -75.5q27 -128 -39 -275q-67 -149 -170 -208q-16 -7 -31 8l-57 55q-12 13 2 27q130 103 151 233z" />
    <glyph glyph-name="dagger" unicode="&#x2020;" horiz-adv-x="868" 
d="M788 874h-256v-1079q0 -20 -20 -20h-156q-20 0 -20 20v1079h-258q-19 0 -19 19v162q0 18 19 18h258v385q0 21 20 21h156q20 0 20 -21v-385h256q21 0 21 -18v-162q0 -19 -21 -19z" />
    <glyph glyph-name="daggerdbl" unicode="&#x2021;" horiz-adv-x="868" 
d="M336 238h-258q-21 0 -21 20v160q0 20 21 20h258v436h-258q-19 0 -19 19v162q0 18 19 18h258v385q0 21 20 21h156q20 0 20 -21v-385h259q18 0 18 -18v-162q0 -19 -18 -19h-259v-436h256q21 0 21 -20v-160q0 -20 -21 -20h-256v-443q0 -20 -20 -20h-156q-20 0 -20 20v443z
" />
    <glyph glyph-name="bullet" unicode="&#x2022;" horiz-adv-x="768" 
d="M680 662q0 -134 -82 -215.5t-215 -81.5q-132 0 -213 81q-80 83 -80 216q0 132 80 212t213 80t215 -80.5t82 -211.5z" />
    <glyph glyph-name="ellipsis" unicode="&#x2026;" horiz-adv-x="1617" 
d="M1217 113q0 62 35.5 98.5t95.5 36.5t96.5 -37.5t36.5 -97.5t-36.5 -96.5t-96.5 -36.5t-95.5 36.5t-35.5 96.5zM270 248q57 0 94 -37.5t37 -97.5q0 -59 -36.5 -96t-94.5 -37q-61 0 -97 36.5t-36 96.5q0 62 36 98.5t97 36.5zM811 -20q-60 0 -96.5 36.5t-36.5 96.5
q0 61 37 98t96 36.5t96 -38.5q37 -37 37 -96t-37.5 -96t-95.5 -37z" />
    <glyph glyph-name="perthousand" unicode="&#x2030;" horiz-adv-x="2344" 
d="M55 1124q0 154 93 247t247 93q152 0 245 -93t93 -247q0 -152 -93 -245t-245 -93q-154 0 -247 93t-93 245zM395 975q66 0 108 41t42 108q0 68 -41.5 110t-108.5 42t-109 -42t-42 -110q0 -67 41.5 -108t109.5 -41zM1026 319q0 -69 41 -110t109 -41t109.5 41t41.5 110
q0 67 -41.5 108.5t-109.5 41.5t-109 -41.5t-41 -108.5zM836 319q0 152 94 245t246 93q154 0 247 -93t93 -245q0 -154 -93 -246.5t-247 -92.5q-153 0 -246.5 93t-93.5 246zM1606 319q0 152 94 245t246 93q154 0 247 -93t93 -245q0 -154 -93 -246.5t-247 -92.5t-247 92.5
t-93 246.5zM1794 319q0 -69 42 -110t110 -41t108.5 41t40.5 110q0 68 -41 109t-108 41q-68 0 -110 -41.5t-42 -108.5zM309 27l811 1437q9 15 27 15h160q10 0 15.5 -7.5t0.5 -15.5l-815 -1442q-8 -14 -27 -14h-155q-32 0 -17 27z" />
    <glyph glyph-name="guilsinglleft" unicode="&#x2039;" horiz-adv-x="698" 
d="M469 909l90 -90q17 -17 2 -35l-227 -239l227 -238q15 -18 -2 -35l-90 -90q-19 -19 -35 0l-289 310q-14 14 -14 38v31q0 23 14 37l289 311q16 16 35 0z" />
    <glyph glyph-name="guilsinglright" unicode="&#x203a;" horiz-adv-x="698" 
d="M141 817l90 92q20 20 35 -2l289 -309q14 -14 14 -39v-29q0 -24 -14 -38l-289 -310q-16 -22 -35 0l-90 90q-16 16 0 35l228 238l-228 239q-17 16 0 33z" />
    <glyph glyph-name="fraction" unicode="&#x2044;" horiz-adv-x="1024" 
d="M6 27l811 1437q9 15 27 15h160q26 0 14 -25l-813 -1440q-8 -14 -27 -14h-155q-32 0 -17 27z" />
    <glyph glyph-name="franc" unicode="&#x20a3;" horiz-adv-x="1024" 
d="M373 311v-288q0 -23 -21 -23h-170q-20 0 -20 20v291h-103q-20 0 -20 21v90q0 20 20 20h103v959q0 20 20 20h774q21 0 21 -20v-158q0 -20 -21 -20h-583v-400h485q21 0 21 -20v-156q0 -20 -21 -20h-485v-185h264q20 0 20 -20v-90q0 -21 -20 -21h-264z" />
    <glyph glyph-name="lira" unicode="&#x20a4;" horiz-adv-x="1069" 
d="M438 190h449q22 0 22 -22v-145q0 -23 -22 -23h-701q-10 0 -16.5 9.5t-1.5 17.5q88 199 123 344h-156q-22 0 -22 22v84q0 25 22 25h174q0 78 -14 127h-156q-22 0 -22 24v82q0 25 22 25h107q-67 146 -70 284q3 175 113 285q114 111 284 111q226 0 373 -176q16 -16 -2 -33
l-108 -117q-16 -16 -31 2q-101 125 -234 125q-84 -1 -136 -56.5t-52 -140.5q0 -60 25 -143l28 -74q6 -12 29 -67h244q22 0 22 -25v-82q0 -24 -22 -24h-207q9 -56 6 -127h197q24 0 24 -25v-84q0 -22 -24 -22h-213q-24 -103 -54 -181z" />
    <glyph glyph-name="peseta" unicode="&#x20a7;" horiz-adv-x="2207" 
d="M586 571h-264v-551q0 -20 -23 -20h-170q-20 0 -20 20v1379q0 22 22 22h455q213 0 334.5 -114t121.5 -310t-121.5 -311t-334.5 -115zM573 1223h-251v-453h251q123 0 190.5 58t67.5 167q0 110 -68 169t-190 59zM1122 1268h158q18 0 18 -21v-305h209q21 0 21 -20v-142
q0 -20 -21 -20h-209v-365q0 -120 20.5 -166.5t70.5 -46.5q45 0 90 45q18 12 28 -4l58 -143q9 -21 -4 -31q-88 -70 -203 -67q-125 0 -192 86.5t-66 244.5v447h-137q-21 0 -21 20v142q0 20 21 20h139v305q0 21 20 21zM1423 84q-16 13 -4 31l66 125q9 15 26 6q126 -75 246 -78
q81 -4 134 22.5t53 71.5t-46.5 70.5t-173.5 60.5q-155 43 -226.5 110t-72.5 175q-3 133 101 209q106 80 266 80q172 -3 303 -97q15 -9 6 -30l-63 -123q-9 -18 -31 -8q-94 61 -201 67q-78 6 -129 -20t-51 -68q0 -46 41 -71.5t154 -55.5q171 -44 246.5 -107.5t76.5 -177.5
q4 -134 -97 -215t-269 -79q-112 0 -206 30.5t-149 71.5z" />
    <glyph glyph-name="Euro" unicode="&#x20ac;" horiz-adv-x="1273" 
d="M993 389l137 -86q16 -13 7 -31q-63 -140 -169 -215t-239 -75q-172 0 -296 122.5t-171 337.5h-160q-22 0 -22 23v86q0 24 22 24h138q-7 75 -7 136v4h-131q-22 0 -22 24v84q0 25 22 25h138q27 271 159 430q131 162 330 162q142 0 253 -86.5t173 -245.5q6 -21 -10 -31
l-141 -88q-21 -12 -31 10q-83 238 -246 238q-105 0 -178 -104t-96 -285h231q23 0 23 -25v-84q0 -24 -23 -24h-238v-4q0 -61 7 -136h231q23 0 23 -24v-86q0 -11 -6.5 -17.5t-16.5 -5.5h-207q36 -124 100.5 -192t149.5 -68q148 0 234 197q9 24 32 10z" />
    <glyph glyph-name="uni2113" unicode="&#x2113;" horiz-adv-x="919" 
d="M500 1440q132 0 209 -109t77 -262q0 -316 -391 -516q15 -438 172 -438q67 0 131 123q9 15 25 8l131 -56q16 -6 10 -24q-102 -227 -297 -227q-307 0 -354 532l-92 -35q-21 -6 -27 10l-57 134q-6 20 10 26l72 25l86 31q-3 307 18 436q58 339 277 342zM512 1253
q-119 -18 -119 -493q194 114 203 280q14 78 -8 152q-21 70 -76 61z" />
    <glyph glyph-name="trademark" unicode="&#x2122;" horiz-adv-x="1400" 
d="M684 1417h88q22 0 31 -18l172 -328l172 330q10 16 29 16h104q20 0 20 -20v-586q0 -20 -20 -20h-100q-21 0 -21 20v346l-133 -254q-9 -18 -29 -18h-39q-21 0 -30 18l-131 250v-342q0 -20 -21 -20h-102q-21 0 -21 20v575q0 31 31 31zM590 1401v-80q0 -21 -21 -21h-157v-485
q0 -20 -21 -20h-102q-21 0 -21 20v485h-155q-21 0 -21 19v80q0 22 21 22h456q21 0 21 -20z" />
    <glyph glyph-name="Omega" unicode="&#x2126;" horiz-adv-x="1652" 
d="M100 215h222q-226 200 -226 496q0 327 201 528q204 201 530 201t527 -201q200 -200 200 -528q0 -299 -225 -498l240 2q7 0 13.5 -7t6.5 -15v-170q0 -8 -6.5 -15.5t-13.5 -7.5h-537q-20 0 -20 20v191q149 59 237 197q92 139 92 303q0 235 -141 379q-140 143 -373 143
q-231 0 -374 -143q-144 -144 -144 -379q0 -159 97 -301q93 -135 249 -195v-195q0 -20 -18 -20h-537q-22 0 -22 23v172q0 20 22 20z" />
    <glyph glyph-name="estimated" unicode="&#x212e;" horiz-adv-x="1824" 
d="M911 70q423 0 602 270q9 12 23 12h94q24 0 15 -20q-101 -180 -297 -283q-192 -98 -437 -98q-356 0 -589 205q-234 206 -234 555t234 555q235 204 589 204q358 0 590 -204q236 -205 236 -555v-25q3 -31 -29 -31h-1309v-417q186 -168 512 -168zM399 1184v-414h1024v414
q-186 168 -512 168t-512 -168z" />
    <glyph glyph-name="partialdiff" unicode="&#x2202;" horiz-adv-x="1103" 
d="M555 1438q432 0 432 -607q0 -244 -53 -444q-44 -183 -155.5 -292t-297.5 -113q-178 0 -286 120q-107 119 -107 304q0 178 115 305q116 125 297 125q216 0 299 -177q8 73 8 172q0 123 -23 228q-46 198 -233 198q-102 0 -191 -63q-18 -15 -28 4l-76 119q-12 15 4 31
q125 90 295 90zM735 346q8 141 -49.5 225t-185.5 84q-104 0 -168 -70t-64 -179q0 -108 57.5 -175t155.5 -67q174 0 254 182z" />
    <glyph glyph-name="increment" unicode="&#x2206;" horiz-adv-x="1347" 
d="M791 1401l528 -1372q13 -29 -21 -29h-1253q-27 0 -18 27l528 1374q9 18 31 18h174q22 0 31 -18zM317 197h730l-371 954z" />
    <glyph glyph-name="product" unicode="&#x220f;" horiz-adv-x="1271" 
d="M928 -250v1389h-592v-1389q0 -22 -21 -22h-163q-21 0 -21 22v1573q0 20 21 20h960q21 0 21 -20v-1573q0 -22 -21 -22h-164q-20 0 -20 22z" />
    <glyph glyph-name="summation" unicode="&#x2211;" horiz-adv-x="1236" 
d="M111 -244l526 779l-528 780q-19 28 16 28h997q23 0 23 -22v-162q0 -20 -23 -20h-622l413 -588q13 -17 0 -33l-411 -584h620q23 0 23 -22v-164q0 -11 -6.5 -17t-16.5 -5h-997q-35 0 -14 30z" />
    <glyph glyph-name="minus" unicode="&#x2212;" horiz-adv-x="1185" 
d="M162 686h862q23 0 23 -22v-132q0 -22 -23 -22h-862q-23 0 -23 22v132q0 22 23 22z" />
    <glyph glyph-name="uni2215" unicode="&#x2215;" horiz-adv-x="1024" 
d="M6 27l811 1437q9 15 27 15h160q12 0 16 -8.5t-2 -16.5l-813 -1440q-8 -14 -27 -14h-155q-32 0 -17 27z" />
    <glyph glyph-name="uni2219" unicode="&#x2219;" horiz-adv-x="538" 
d="M164 412q-38 41 -38 106.5t38 106.5q41 41 106.5 41t106.5 -41t41 -106.5t-41 -106.5t-106.5 -41t-106.5 41z" />
    <glyph glyph-name="radical" unicode="&#x221a;" horiz-adv-x="1132" 
d="M453 20l-201 699h-180q-23 0 -23 24v138q0 26 23 26h307q21 0 24 -18l177 -602l356 1171q6 21 29 21h149q20 0 14 -21l-436 -1438q-6 -20 -28 -20h-183q-22 0 -28 20z" />
    <glyph glyph-name="infinity" unicode="&#x221e;" horiz-adv-x="1884" 
d="M942 614q84 107 194.5 168.5t229.5 61.5q183 0 293 -113q113 -113 113 -293t-113 -293q-109 -112 -293 -112q-119 0 -230 62.5t-194 166.5q-83 -104 -194 -166.5t-230 -62.5q-183 0 -295 112q-110 113 -110 293t110 293q113 113 295 113q246 0 424 -230zM518 655
q-97 0 -157 -60t-60 -157q0 -98 59.5 -157.5t157.5 -59.5q93 0 182 59t138 156q-56 99 -145 159t-175 60zM1047 436q49 -97 137.5 -156t181.5 -59q98 0 157.5 59.5t59.5 157.5q0 97 -60 157t-157 60q-86 0 -174.5 -60t-144.5 -159z" />
    <glyph glyph-name="integral" unicode="&#x222b;" horiz-adv-x="815" 
d="M831 1384l-77 -120q-10 -17 -27 -7q-73 52 -113 52q-57 0 -80.5 -40.5t-23.5 -133.5l2 -613l4 -665q3 -341 -303 -344q-130 0 -217 75q-16 13 -4 31l78 119q9 15 26 6q59 -41 107 -41q60 0 84 39t26 133l-2 614l-4 676q-3 331 287 334q124 0 233 -86q14 -9 4 -29z" />
    <glyph glyph-name="approxequal" unicode="&#x2248;" horiz-adv-x="1220" 
d="M903 918q10 29 31 8l90 -95q12 -12 6 -30q-38 -110 -111.5 -179t-164.5 -69q-57 0 -107.5 20.5t-81 46t-68 58t-61.5 45.5q-68 45 -127 -6q-27 -23 -41.5 -48t-38.5 -81q-9 -27 -30 -6l-88 92q-15 15 -7 35q37 105 111 168t164 63q68 0 128 -28t95 -68q87 -95 158 -92
q35 0 61 26q28 27 43.5 54.5t38.5 85.5zM901 461q9 28 31 6l90 -94q11 -11 8 -31q-40 -110 -114.5 -179t-163.5 -69q-50 -2 -99 17.5t-86.5 48.5t-71.5 58.5t-65.5 49t-56.5 17.5q-46 0 -79 -38.5t-67 -117.5q-9 -28 -30 -4l-86 90q-17 17 -9 37q39 105 112.5 167t164.5 62
q68 0 128 -28t93 -68q87 -95 158 -92q82 3 143 168z" />
    <glyph glyph-name="notequal" unicode="&#x2260;" horiz-adv-x="1073" 
d="M713 872h196q25 0 25 -24v-131q0 -25 -25 -25h-274l-70 -160h344q25 0 25 -24v-131q0 -25 -25 -25h-420l-71 -159q-3 -17 -23 -17h-143q-25 0 -16 25l65 151h-139q-23 0 -23 25v131q0 24 23 24h217l70 160h-287q-23 0 -23 25v131q0 24 23 24h364l72 166q7 17 23 17h145
q25 0 16 -25z" />
    <glyph glyph-name="lessequal" unicode="&#x2264;" horiz-adv-x="1107" 
d="M999 270l-903 357q-18 9 -18 32v191q0 24 18 33l903 348q27 6 27 -19v-170q0 -22 -16 -28l-691 -260l691 -267q16 -6 16 -28v-170q0 -25 -27 -19zM1010 -2h-912q-20 0 -20 20v140q0 20 20 20h912q20 0 20 -20v-140q0 -20 -20 -20z" />
    <glyph glyph-name="greaterequal" unicode="&#x2265;" horiz-adv-x="1107" 
d="M1012 627l-903 -357q-12 -4 -19.5 1.5t-5.5 17.5v170q0 22 16 28l691 267l-691 260q-16 6 -16 28v170q-2 12 5.5 17.5t19.5 1.5l903 -348q18 -6 18 -33v-191q0 -26 -18 -32zM1010 -2h-912q-20 0 -20 20v140q0 20 20 20h912q20 0 20 -20v-140q0 -20 -20 -20z" />
    <glyph glyph-name="uni24C5" unicode="&#x24c5;" horiz-adv-x="1691" 
d="M111 709q0 332 198 530q201 201 531 201q329 0 530 -201t201 -530t-203 -529q-200 -200 -528 -200q-329 0 -529 200t-200 529zM1430 709q0 266 -162 428q-161 161 -428 161q-265 0 -426 -161q-162 -162 -162 -428q0 -262 162 -424t426 -162q263 0 428 160
q162 162 162 426zM604 352v727q0 23 25 23h147h142q116 0 182.5 -62.5t66.5 -167.5q0 -107 -66.5 -171t-182.5 -64h-142v-287q0 -24 -26 -24h-121q-25 0 -25 26zM909 946h-133v-162h133q95 0 95 82q0 80 -95 80z" />
    <glyph glyph-name="lozenge" unicode="&#x25ca;" horiz-adv-x="1075" 
d="M367 -66l-291 713q-9 21 0 39l291 715q6 18 30 18h58h145h59q22 0 31 -18l291 -715q6 -21 0 -39l-291 -713q-6 -20 -31 -20h-59h-145h-60q-22 0 -28 20zM528 1260l-239 -592l239 -592l240 592z" />
    <glyph glyph-name="ijacute" unicode="&#xe132;" horiz-adv-x="931" 
d="M616 942h160q21 0 21 -20l2 -1063q0 -160 -77 -253t-210 -93q-131 0 -225 73q-14 9 -4 29l65 131q12 24 33 6q51 -39 108 -39q106 0 109 168l-2 1043q0 18 20 18zM156 944h157q21 0 21 -20v-904q0 -20 -21 -20h-159q-19 0 -19 20v904q0 20 21 20zM70 1147l295 280
q14 17 28 0l99 -118q12 -15 -5 -29l-337 -229q-15 -15 -29 2l-53 65q-9 15 2 29zM868 1423l97 -118q15 -15 -4 -27l-336 -231q-20 -10 -31 4l-51 63q-13 17 2 29l293 282q17 14 30 -2z" />
    <glyph glyph-name="IJacute" unicode="&#xe133;" horiz-adv-x="1286" 
d="M371 1401v-1383q0 -18 -21 -18h-172q-18 0 -18 18l-2 1383q0 20 20 20h172q21 0 21 -20zM944 393l-2 1008q0 20 21 20h170q20 0 20 -20l2 -1041q1 -182 -85 -280t-245 -100q-182 3 -313 114q-14 14 -4 31l80 141q13 19 35 6q119 -82 188 -82q73 0 102 45t31 158z
M1210 1794l78 -131q13 -22 -8 -31l-381 -198q-20 -10 -29 6l-45 71q-10 20 6 29l349 258q15 15 30 -4zM444 1794l80 -131q13 -20 -8 -29l-381 -200q-20 -10 -29 6l-45 73q-13 17 7 27l346 258q21 15 30 -4z" />
    <glyph glyph-name="_1" horiz-adv-x="0" 
 />
    <glyph glyph-name="CR" horiz-adv-x="681" 
 />
    <glyph glyph-name="grave.case" horiz-adv-x="606" 
d="M53 1661l80 131q10 22 29 6l348 -260q16 -10 6 -27l-45 -73q-9 -16 -29 -6l-381 200q-21 9 -8 29z" />
    <glyph glyph-name="dieresis.case" horiz-adv-x="700" 
d="M92 1520q-32 35 -32 90t32 90q35 35 90 35t90 -35t35 -90t-35 -90q-35 -32 -90 -32t-90 32zM516 1487q-57 0 -90 33.5t-33 89.5t34 90.5t89 34.5t89 -34.5t34 -90.5q0 -55 -34.5 -89t-88.5 -34z" />
    <glyph glyph-name="macron.case" horiz-adv-x="636" 
d="M72 1667h495q19 0 19 -20v-119q0 -21 -19 -21h-495q-21 0 -21 21v119q0 20 21 20z" />
    <glyph glyph-name="acute.case" horiz-adv-x="606" 
d="M432 1794l80 -131q13 -20 -8 -29l-381 -200q-20 -10 -29 6l-45 73q-14 17 6 27l348 258q19 16 29 -4z" />
    <glyph glyph-name="circumflex.case" horiz-adv-x="786" 
d="M528 1511l-135 115l-135 -115q-17 -10 -27 -10h-186q-30 0 -6 21l252 215q12 12 28 12h148q17 0 29 -12l252 -215q24 -21 -9 -21h-184q-10 0 -27 10z" />
    <glyph glyph-name="caron.case" horiz-adv-x="786" 
d="M258 1737l135 -113l135 113q9 12 27 12h182q34 0 8 -23l-249 -213q-12 -12 -31 -12h-146q-16 0 -28 12l-252 213q-23 23 10 23h180q17 0 29 -12z" />
    <glyph glyph-name="breve.case" horiz-adv-x="696" 
d="M520 1749h107q18 0 18 -18q-6 -118 -87 -186t-212 -68q-130 0 -209.5 68t-85.5 186q0 18 19 18h106q19 0 19 -18q6 -48 48 -78.5t103 -30.5q63 0 106.5 30t49.5 77q3 20 18 20z" />
    <glyph glyph-name="dotaccent.case" horiz-adv-x="458" 
d="M111 1630q0 52 31.5 83.5t84.5 31.5q51 0 82 -31q32 -31 32 -84.5t-32 -85.5q-23 -24 -59 -29.5t-67.5 6t-53.5 41t-18 68.5z" />
    <glyph glyph-name="ring.case" horiz-adv-x="483" 
d="M102 1511q-51 51 -51 140q0 86 51 137q53 53 140 53q84 0 137 -53t53 -137q0 -87 -53 -140t-137 -53q-87 0 -140 53zM176 1714q-23 -23 -23 -63.5t23 -65.5q25 -23 65.5 -23t63.5 23q25 25 25 65.5t-25 63.5q-23 25 -63.5 25t-65.5 -25z" />
    <glyph glyph-name="tilde.case" horiz-adv-x="747" 
d="M145 1509q-6 -23 -26 -8l-58 53q-15 9 -8 27q29 85 82 135.5t111 50.5q38 0 69.5 -15.5t52 -37.5t39 -44.5t40.5 -38t47 -15.5q69 3 106 104q9 27 27 9l59 -54q13 -8 10 -24q-29 -86 -82.5 -136.5t-113.5 -50.5q-37 0 -68.5 15.5t-52.5 38t-40 45t-41 38t-46 15.5
q-67 -3 -107 -107z" />
    <glyph glyph-name="hungarumlaut.case" horiz-adv-x="720" 
d="M547 1794l119 -84q18 -15 4 -29l-199 -225q-14 -14 -29 -2l-73 51q-15 15 -7 29l156 252q9 21 29 8zM227 1794l125 -86q19 -10 4 -25l-200 -227q-12 -14 -29 -4l-74 53q-16 13 -6 29l154 254q10 19 26 6z" />
    <glyph glyph-name="zero.onum" horiz-adv-x="1191" 
d="M82 473q0 219 141 354q144 138 375 138q232 0 373 -138q141 -135 141 -354q0 -223 -141 -358q-142 -133 -373 -133q-230 0 -375 133q-141 135 -141 358zM598 188q134 0 217.5 79t83.5 206t-83.5 206t-217.5 79q-136 0 -220.5 -78.5t-84.5 -206.5t84.5 -206.5t220.5 -78.5
z" />
    <glyph glyph-name="one.onum" horiz-adv-x="903" 
d="M90 762l275 182h192q23 0 23 -22v-748h251q23 0 23 -20v-134q0 -20 -23 -20h-737q-20 0 -20 20v134q0 20 20 20h271v576l-261 -172q-14 -8 -20 -4.5t-6 20.5v145q0 17 12 23z" />
    <glyph glyph-name="two.onum" horiz-adv-x="999" 
d="M895 0h-807q-20 0 -24.5 11.5t12.5 23.5l512 426q114 92 108 172q-5 58 -53 90.5t-133 32.5q-147 0 -248 -131q-12 -14 -26 0l-113 125q-13 16 0 32q151 183 393 183q170 0 275.5 -84t113.5 -217q9 -174 -149 -308l-33 -26l-191 -156h363q20 0 20 -22v-129q0 -23 -20 -23
z" />
    <glyph glyph-name="three.onum" horiz-adv-x="1026" 
d="M449 322q-21 0 -21 22v170l197 219h-467q-21 0 -21 21v168q0 22 21 22h706q21 0 21 -22v-189l-232 -258q136 -45 212.5 -145.5t76.5 -239.5q0 -182 -119 -295q-118 -112 -311 -112q-186 0 -304.5 112.5t-125.5 296.5q0 23 22 23h170q23 0 23 -23q6 -91 64.5 -144.5
t150.5 -53.5q99 0 158 54t59 144q0 105 -72 167t-208 63z" />
    <glyph glyph-name="four.onum" horiz-adv-x="1187" 
d="M719 944h217q20 -3 20 -22v-746h140q20 0 20 -20v-133q0 -21 -20 -21h-140v-276q0 -23 -22 -23h-170q-21 0 -21 23v276h-688q-13 0 -17.5 8.5t3.5 20.5l645 895q9 18 33 18zM743 176v518l-376 -518h376z" />
    <glyph glyph-name="five.onum" horiz-adv-x="1050" 
d="M535 551q193 0 313 -123q122 -122 119 -313q3 -194 -123 -314q-121 -118 -324 -118q-189 0 -309 114t-129 299q0 23 22 23h170q23 0 23 -23q6 -91 67.5 -146.5t155.5 -55.5q105 0 168.5 61.5t63.5 163.5q0 106 -61.5 168.5t-164.5 62.5q-91 0 -200 -53h-166q-21 0 -21 20
l35 607q0 20 25 20h641q20 0 20 -20v-158q0 -23 -20 -23h-488l-14 -233q96 41 197 41z" />
    <glyph glyph-name="six.onum" horiz-adv-x="1036" 
d="M530 1257h168q36 0 17 -28l-236 -406q27 8 68 8q186 -9 297 -126q112 -118 112 -297q0 -185 -120 -308q-120 -120 -316 -120q-199 0 -317 118q-121 121 -121 312q0 136 70 243l344 584q9 20 34 20zM743 412q0 97 -62.5 159t-160.5 62q-100 0 -162.5 -61.5t-62.5 -159.5
t62.5 -158.5t162.5 -60.5q98 0 160.5 62.5t62.5 156.5z" />
    <glyph glyph-name="seven.onum" horiz-adv-x="952" 
d="M635 741h-572q-22 0 -22 23v158q0 20 22 20h836q13 0 20.5 -9.5t2.5 -21.5l-455 -1187q-6 -21 -31 -21h-178q-23 0 -14 25z" />
    <glyph glyph-name="eight.onum" horiz-adv-x="1064" 
d="M82 377q0 206 182 311q-96 81 -96 227q0 155 102 254q105 99 262 99q159 0 261 -99q104 -98 104 -254q0 -146 -96 -227q182 -105 182 -311q0 -174 -125 -287q-125 -110 -326 -110q-200 0 -325 110q-125 113 -125 287zM297 387q0 -88 66 -142.5t172 -54.5
q104 0 168.5 54.5t64.5 142.5q0 94 -64.5 151.5t-168.5 57.5q-103 0 -170.5 -58.5t-67.5 -150.5zM371 915q0 -69 44.5 -111t116.5 -42t117 42t45 111q0 68 -44.5 109t-117.5 41t-117 -41t-44 -109z" />
    <glyph glyph-name="nine.onum" horiz-adv-x="1036" 
d="M510 -309h-170q-32 0 -16 28l235 404q-35 -6 -67 -6q-184 9 -297 125q-113 119 -113 297q0 186 121 307q120 123 315 123q197 0 316 -119q120 -120 120 -311q0 -140 -67 -244l-344 -586q-15 -18 -33 -18zM295 537q0 -97 62.5 -159.5t160.5 -62.5q100 0 161.5 61.5
t61.5 160.5q0 98 -61.5 157.5t-161.5 59.5q-97 0 -160 -62t-63 -155z" />
    <glyph glyph-name="zero.numr" horiz-adv-x="780" 
d="M55 971q0 210 92 340q92 129 244 129q151 0 242 -129q92 -130 92 -340q0 -212 -92 -342q-91 -129 -242 -129q-153 0 -244 129q-92 130 -92 342zM223 971q0 -136 46.5 -219.5t121.5 -83.5t120.5 83t45.5 220q0 135 -45.5 218t-120.5 83t-121.5 -83t-46.5 -218z" />
    <glyph glyph-name="one.numr" horiz-adv-x="442" 
d="M156 541v712h-101q-22 0 -22 23v123q0 22 20 22h258q23 0 23 -22v-858q0 -23 -23 -23h-133q-25 0 -22 23z" />
    <glyph glyph-name="two.numr" horiz-adv-x="712" 
d="M606 520h-524q-19 0 -25.5 13t4.5 26l340 471q64 94 64 146q0 43 -28 70.5t-75 27.5q-83 0 -143 -72q-12 -12 -26 2l-80 96q-9 9 0 25q99 117 258 117q123 0 194.5 -69.5t71.5 -192.5q-3 -111 -78 -234l-197 -262h244q21 0 21 -20v-121q0 -23 -21 -23z" />
    <glyph glyph-name="three.numr" horiz-adv-x="706" 
d="M264 948v90q0 21 21 21h57q45 2 73.5 34.5t28.5 88.5q0 43 -27.5 70.5t-70.5 29.5q-76 0 -141 -68q-14 -14 -23 -2l-78 91q-9 15 0 24q94 113 254 113q117 0 188.5 -67.5t71.5 -176.5q0 -126 -81 -201q110 -67 110 -219q0 -123 -82 -199.5t-217 -76.5q-129 0 -210.5 71.5
t-88.5 192.5q0 20 21 20h129q15 0 18 -16q1 -44 37 -72t92 -28q57 0 91 34.5t34 90.5q0 61 -30 97.5t-85 37.5h-71q-21 0 -21 20z" />
    <glyph glyph-name="four.numr" horiz-adv-x="788" 
d="M240 838h219v383zM752 817v-98q0 -21 -21 -21h-92v-155q0 -25 -23 -25h-137q-20 0 -20 23v157h-414q-40 0 -22 35l376 668q9 18 33 18h186q18 0 21 -20v-561h92q21 0 21 -21z" />
    <glyph glyph-name="five.numr" horiz-adv-x="745" 
d="M233 768q8 -44 46 -72t96 -28q63 0 101 39.5t38 105.5q0 65 -41 101t-108 36q-46 0 -113 -28h-150q-12 0 -12 12l33 473q0 14 14 14h455q14 0 14 -14v-139q0 -13 -14 -13h-318l-12 -186q55 25 107 25q139 0 225 -79t88 -208q0 -139 -84.5 -223t-224.5 -84
q-135 0 -220.5 74.5t-89.5 197.5q0 14 13 14h141q13 0 16 -18z" />
    <glyph glyph-name="six.numr" horiz-adv-x="739" 
d="M338 1421l151 -2q19 0 13 -16l-148 -311q32 4 37 4q128 -6 205.5 -87t77.5 -210q0 -135 -83 -217t-220 -82t-221 82t-84 217q0 89 34 147l217 463q9 12 21 12zM371 664q60 0 97.5 36.5t37.5 96.5q0 61 -37 98t-99 36.5t-100 -38.5q-37 -37 -37 -96q0 -60 38 -96.5
t100 -36.5z" />
    <glyph glyph-name="seven.numr" horiz-adv-x="638" 
d="M393 1253h-358q-12 0 -12 15v139q0 14 12 14h573q24 0 15 -22l-328 -869q-7 -10 -14 -10h-154q-13 0 -10 15z" />
    <glyph glyph-name="eight.numr" horiz-adv-x="774" 
d="M387 1280q-51 0 -83 -31t-32 -82t32 -81.5t83 -30.5t83 30.5t32 81.5t-31 82t-84 31zM389 668q66 0 107 34.5t41 90.5q0 57 -41.5 93.5t-108.5 37.5q-66 -1 -107.5 -38t-41.5 -93t42 -90.5t109 -34.5zM70 786q0 132 114 209q-80 62 -80 176q0 121 77.5 195t205.5 74
t205.5 -74t77.5 -195q0 -114 -80 -176q115 -77 115 -209q0 -129 -87.5 -207.5t-230.5 -78.5t-230 78.5t-87 207.5z" />
    <glyph glyph-name="nine.numr" horiz-adv-x="739" 
d="M348 846q-129 4 -207 85t-78 210q0 135 84 218t220 83q137 0 221 -83t84 -218q0 -76 -35 -148l-217 -461q-6 -12 -19 -12h-153q-20 0 -10 19l147 309q-8 -2 -37 -2zM369 1010q60 0 97.5 37t37.5 98q0 60 -37 96.5t-98 36.5q-62 0 -100 -36.5t-38 -96.5q0 -61 38 -98
t100 -37z" />
    <glyph glyph-name="zero.dnom" horiz-adv-x="780" 
d="M55 451q0 210 92 340q92 129 244 129q151 0 242 -129q92 -130 92 -340q0 -212 -92 -342q-91 -129 -242 -129q-153 0 -244 129q-92 130 -92 342zM223 451q0 -136 46.5 -220t121.5 -84t120.5 83.5t45.5 220.5q0 135 -45.5 218t-120.5 83t-121.5 -83t-46.5 -218z" />
    <glyph glyph-name="one.dnom" horiz-adv-x="442" 
d="M53 901l258 2q23 0 23 -22v-858q0 -23 -23 -23h-133q-24 0 -24 23v710h-99q-24 0 -24 23v123q0 22 22 22z" />
    <glyph glyph-name="two.dnom" horiz-adv-x="712" 
d="M225 0h-143q-41 0 -21 39l340 471q64 94 64 145q0 43 -28 71t-75 28q-83 0 -143 -72q-12 -12 -26 2l-80 96q-9 9 0 25q99 117 258 117q123 0 194.5 -70t71.5 -193q-3 -110 -78 -233l-192 -262h239q21 0 21 -21v-120q0 -23 -21 -23h-356h-25z" />
    <glyph glyph-name="three.dnom" horiz-adv-x="706" 
d="M262 428v90q0 21 21 21h57q45 2 72.5 33t27.5 87q0 44 -27.5 72.5t-70.5 30.5q-74 0 -139 -68q-15 -15 -25 -2l-76 90q-9 16 0 25q98 113 252 113q117 0 189.5 -67.5t72.5 -176.5q0 -123 -84 -201q111 -70 111 -219q0 -123 -82 -199.5t-217 -76.5q-127 0 -209 72.5
t-88 191.5q-3 20 21 20h129q15 0 18 -16q1 -44 37 -72.5t90 -28.5q57 0 92 34t35 91q0 61 -30 98t-85 38h-71q-21 0 -21 20z" />
    <glyph glyph-name="four.dnom" horiz-adv-x="788" 
d="M240 319h219v383zM752 299v-98q0 -21 -21 -21h-92v-155q0 -25 -23 -25h-137q-20 0 -20 23v157h-414q-40 0 -22 35l376 668q9 18 33 18h186q18 0 21 -20v-562h92q21 0 21 -20z" />
    <glyph glyph-name="five.dnom" horiz-adv-x="745" 
d="M225 248q8 -44 46 -72.5t96 -28.5q63 0 101 40t38 106q0 65 -41 101t-109 36q-43 0 -112 -29h-150q-12 0 -12 13l33 473q0 14 14 14h455q14 0 14 -14v-139q0 -13 -14 -13h-318l-12 -186q52 24 106 24q140 0 226.5 -78.5t87.5 -207.5q0 -139 -84.5 -223t-224.5 -84
q-135 0 -220.5 74.5t-89.5 197.5q0 14 13 14h141q13 0 16 -18z" />
    <glyph glyph-name="six.dnom" horiz-adv-x="739" 
d="M336 901l153 -2q21 0 11 -16l-146 -312q32 4 35 4q129 -6 207 -86.5t78 -209.5q0 -135 -83 -217t-220 -82t-221 82t-84 217q0 75 34 147l217 463q9 12 19 12zM506 276q0 61 -37.5 98.5t-99.5 37.5q-44 4 -78 -21t-48 -62t-8 -79t35 -70q37 -37 99 -37t99.5 36.5
t37.5 96.5z" />
    <glyph glyph-name="seven.dnom" horiz-adv-x="638" 
d="M393 735h-358q-12 0 -12 13v139q0 14 12 14h573q24 0 15 -20l-328 -871q-7 -10 -14 -10h-154q-13 0 -10 14z" />
    <glyph glyph-name="eight.dnom" horiz-adv-x="774" 
d="M387 760q-51 0 -83 -31t-32 -82t32 -81.5t83 -30.5t83 30.5t32 81.5t-31 82t-84 31zM389 147q66 0 107 34.5t41 90.5q0 57 -41.5 93.5t-108.5 37.5q-66 -1 -107.5 -38t-41.5 -93t42 -90.5t109 -34.5zM70 266q0 132 114 209q-80 62 -80 176q0 121 77.5 195t205.5 74
t205.5 -74t77.5 -195q0 -114 -80 -176q115 -77 115 -209q0 -129 -87.5 -207.5t-230.5 -78.5t-230 78.5t-87 207.5z" />
    <glyph glyph-name="nine.dnom" horiz-adv-x="739" 
d="M348 326q-129 4 -207 85t-78 210q0 135 84 218t220 83q137 0 221 -83t84 -218q0 -76 -35 -148l-217 -461q-6 -12 -19 -12h-153q-19 0 -10 18l147 310q-8 -2 -37 -2zM369 489q60 0 97.5 37.5t37.5 98.5q0 60 -37 96.5t-98 36.5q-62 0 -100 -36.5t-38 -96.5q0 -61 38 -98.5
t100 -37.5z" />
    <glyph glyph-name="zero.tnum" 
d="M1126 711q0 -331 -141 -531q-137 -198 -369 -198q-231 0 -372 200q-140 202 -140 529t142 528t370 201q230 0 369 -201q141 -199 141 -528zM315 711q0 -236 82 -379q83 -142 219 -142q132 0 215 144q82 143 82 377q0 233 -82 376q-83 144 -215 144q-136 0 -219 -144
q-82 -143 -82 -376z" />
    <glyph glyph-name="one.tnum" 
d="M283 1245v154q0 22 20 22h402q20 0 20 -22v-1223h279q20 0 20 -20v-133q0 -23 -23 -23h-776q-20 0 -20 20v136q0 20 22 20h285v1049h-209q-20 0 -20 20z" />
    <glyph glyph-name="two.tnum" 
d="M989 795l-24 -37l-70 -90l-182 -240l-176 -231h510q22 0 22 -23v-154q0 -20 -20 -20h-656h-55h-164q-13 0 -16.5 9t4.5 20l618 817l19 28q21 34 40 83.5t19 84.5q0 87 -55 143t-146 56q-138 0 -251 -143q-12 -18 -31 4l-105 110q-15 18 4 37q150 191 398 191
q170 0 280 -107q111 -105 111 -284q0 -67 -23 -140t-51 -114z" />
    <glyph glyph-name="three.tnum" 
d="M528 825h97q85 0 141.5 61t56.5 152q0 88 -55.5 141.5t-146.5 53.5q-135 0 -248 -137q-15 -17 -29 0l-111 125q-15 15 0 30q154 189 396 189q176 0 289 -107q114 -105 114 -276q0 -200 -145 -312q190 -105 190 -333q0 -195 -131 -320t-332 -125q-198 0 -325 115
q-126 117 -135 303q0 21 20 21h168q23 0 23 -19q6 -94 75.5 -152.5t175.5 -58.5q110 0 179 69t69 175q0 101 -59.5 168t-155.5 71h-121q-20 0 -20 21v125q0 20 20 20z" />
    <glyph glyph-name="four.tnum" 
d="M983 489h152q20 0 20 -20v-143q0 -21 -20 -21h-152v-285q0 -20 -20 -20h-172q-21 0 -21 20v285h-487h-39h-146q-28 0 -16 27l649 1071q9 18 31 18l201 -2q20 0 20 -20v-910zM770 489v623l-375 -623h375z" />
    <glyph glyph-name="five.tnum" 
d="M952 1225h-487l-27 -385q80 45 180 45q205 0 330 -125q125 -122 125 -324q0 -205 -127 -338q-125 -131 -332 -131q-198 0 -323 113q-124 112 -133 297q0 20 20 20h168q20 0 23 -20q6 -91 73.5 -148t171.5 -57q110 0 179 74t69 190t-70 188t-188 72q-121 0 -182 -67h-186
q-22 0 -19 20l57 750q0 22 23 22h655q21 0 21 -22v-154q0 -20 -21 -20z" />
    <glyph glyph-name="six.tnum" 
d="M1069 432q0 -205 -125 -330q-122 -125 -328 -125q-204 0 -329 125t-125 328q0 101 35 188q54 128 108 244l137 297l115 242q6 20 29 20h172q34 0 18 -28l-244 -529q44 15 93 15q200 -3 321 -127q123 -120 123 -320zM860 430q0 113 -67 180q-64 70 -177 70
q-110 0 -180 -70q-67 -70 -67 -180q0 -111 67.5 -179.5t179.5 -68.5q108 0 176 69.5t68 178.5z" />
    <glyph glyph-name="seven.tnum" 
d="M186 1421h850q35 0 21 -32l-518 -1369q-6 -20 -29 -20h-184q-21 0 -15 20l463 1205h-588q-20 0 -20 20v154q0 22 20 22z" />
    <glyph glyph-name="eight.tnum" 
d="M1018 1044q0 -190 -146 -286q207 -109 207 -342q0 -198 -129 -318q-124 -118 -336 -118q-211 0 -338 118q-126 120 -126 318q0 235 204 342q-143 94 -143 286q0 179 111 287q112 109 292 109q181 0 293 -109q111 -108 111 -287zM872 424q0 109 -71.5 177.5t-184.5 68.5
q-112 0 -186 -70t-74 -176q0 -105 72.5 -171.5t187.5 -66.5q112 0 184 67t72 171zM616 844q91 0 145 55.5t54 147.5q0 93 -54 147.5t-145 54.5q-92 0 -147 -55t-55 -147t55 -147.5t147 -55.5z" />
    <glyph glyph-name="nine.tnum" 
d="M1006 737l-332 -719q-9 -18 -31 -18h-172q-29 0 -16 29l243 524q-46 -12 -90 -12q-200 3 -323 123q-123 123 -123 323q0 207 123 330q125 125 329 125q203 0 328 -125q127 -127 127 -328q0 -111 -63 -252zM614 739q109 0 177.5 70t68.5 180q0 112 -67.5 180t-178.5 68
q-109 0 -177 -69t-68 -179q0 -113 67.5 -181.5t177.5 -68.5z" />
    <glyph glyph-name="zero.pnum" horiz-adv-x="1222" 
d="M1122 711q0 -331 -141 -531q-137 -198 -369 -198q-231 0 -372 200q-140 202 -140 529t142 528t370 201q230 0 369 -201q141 -199 141 -528zM311 711q0 -236 82 -379q83 -142 219 -142q132 0 215 144q82 143 82 377q0 233 -82 376q-83 144 -215 144q-136 0 -219 -144
q-82 -143 -82 -376z" />
    <glyph glyph-name="one.pnum" horiz-adv-x="669" 
d="M127 1245v154q0 22 20 22h375q21 0 21 -22l2 -1379q0 -20 -21 -20h-172q-20 0 -20 20v1205h-185q-20 0 -20 20z" />
    <glyph glyph-name="two.pnum" horiz-adv-x="1128" 
d="M932 795l-25 -37l-69 -90l-183 -240l-176 -231h510q23 0 23 -23v-154q0 -20 -21 -20h-655h-55h-164q-13 0 -17 9t4 20l619 817l18 28q22 34 41 83.5t19 84.5q0 87 -55 143t-146 56q-139 0 -252 -143q-12 -18 -31 4l-104 110q-15 18 4 37q150 191 397 191q171 0 281 -107
q111 -105 111 -284q0 -67 -23 -140t-51 -114z" />
    <glyph glyph-name="three.pnum" horiz-adv-x="1116" 
d="M467 825h96q85 0 142 61t57 152q0 88 -56 141.5t-147 53.5q-135 0 -248 -137q-14 -17 -28 0l-111 125q-15 15 0 30q154 189 395 189q176 0 289 -107q115 -106 115 -276q0 -199 -146 -312q191 -105 191 -333q0 -195 -131 -320t-332 -125q-199 0 -326 115
q-126 117 -135 303q0 21 21 21h168q22 0 22 -19q6 -94 76 -152.5t176 -58.5q110 0 179 69t69 175q0 101 -59.5 168t-155.5 71h-121q-21 0 -21 21v125q0 20 21 20z" />
    <glyph glyph-name="four.pnum" horiz-adv-x="1253" 
d="M973 489h151q21 0 21 -20v-143q0 -21 -21 -21h-151v-285q0 -20 -21 -20h-172q-20 0 -20 20v285h-488h-39h-145q-31 0 -16 27l649 1071q9 18 31 18l200 -2q21 0 21 -20v-910zM760 489v623l-375 -623h375z" />
    <glyph glyph-name="five.pnum" horiz-adv-x="1116" 
d="M895 1225h-487l-27 -385q80 45 180 45q205 0 330 -125q125 -122 125 -324q0 -205 -127 -338q-125 -131 -332 -131q-199 0 -324 113q-124 112 -133 297q0 20 21 20h168q19 0 22 -20q6 -91 74 -148t172 -57q110 0 179 74t69 190t-70 188t-188 72q-121 0 -182 -67h-187
q-21 0 -18 20l57 750q0 22 23 22h655q20 0 20 -22v-154q0 -20 -20 -20z" />
    <glyph glyph-name="six.pnum" horiz-adv-x="1107" 
d="M1008 432q0 -205 -125 -330q-122 -125 -328 -125q-205 0 -330 125t-125 328q0 101 35 188q44 104 109 244l137 297l115 242q6 20 28 20h172q35 0 19 -28l-244 -529q43 15 92 15q201 -3 322 -127q123 -120 123 -320zM799 430q0 112 -68 180q-64 70 -176 70
q-110 0 -180 -70q-68 -71 -68 -180q0 -111 68 -179.5t180 -68.5q108 0 176 69.5t68 178.5z" />
    <glyph glyph-name="seven.pnum" horiz-adv-x="997" 
d="M86 1421h850q34 0 20 -32l-518 -1369q-6 -20 -28 -20h-185q-20 0 -14 20l463 1205h-588q-20 0 -20 20v154q0 22 20 22z" />
    <glyph glyph-name="eight.pnum" horiz-adv-x="1130" 
d="M969 1044q0 -190 -146 -286q207 -109 207 -342q0 -198 -129 -318q-124 -118 -336 -118q-211 0 -338 118q-127 121 -127 318q0 234 205 342q-143 94 -143 286q0 180 110 287q112 109 293 109t293 -109q111 -108 111 -287zM823 424q0 109 -71.5 177.5t-184.5 68.5
q-112 0 -186 -70t-74 -176q0 -105 72.5 -171.5t187.5 -66.5q112 0 184 67t72 171zM567 844q91 0 145 55.5t54 147.5q0 93 -54 147.5t-145 54.5q-92 0 -147 -55t-55 -147t55 -147.5t147 -55.5z" />
    <glyph glyph-name="nine.pnum" horiz-adv-x="1107" 
d="M944 737l-332 -719q-9 -18 -30 -18h-172q-30 0 -17 29l244 524q-47 -12 -90 -12q-201 3 -324 123q-123 123 -123 323q0 207 123 330q125 125 330 125q203 0 328 -125q127 -127 127 -328q0 -109 -64 -252zM553 739q109 0 177.5 70t68.5 180q0 112 -67.5 180t-178.5 68
q-109 0 -177.5 -69t-68.5 -179q0 -112 68 -181t178 -69z" />
    <glyph glyph-name="zero.onum.pnum" horiz-adv-x="1153" 
d="M82 473q0 219 141 354q144 138 375 138q232 0 373 -138q141 -135 141 -354q0 -223 -141 -358q-142 -133 -373 -133q-230 0 -375 133q-141 135 -141 358zM598 188q134 0 217.5 79t83.5 206t-83.5 206t-217.5 79q-136 0 -220.5 -78.5t-84.5 -206.5t84.5 -206.5t220.5 -78.5
z" />
    <glyph glyph-name="one.onum.pnum" horiz-adv-x="903" 
d="M90 762l275 182h192q23 0 23 -22v-748h251q23 0 23 -20v-134q0 -20 -23 -20h-737q-20 0 -20 20v134q0 20 20 20h271v576l-261 -172q-14 -8 -20 -4.5t-6 20.5v145q0 17 12 23z" />
    <glyph glyph-name="two.onum.pnum" horiz-adv-x="999" 
d="M895 0h-807q-20 0 -24.5 11.5t12.5 23.5l512 426q114 92 108 172q-5 58 -53 90.5t-133 32.5q-147 0 -248 -131q-12 -14 -26 0l-113 125q-13 16 0 32q151 183 393 183q170 0 275.5 -84t113.5 -217q9 -174 -149 -308l-33 -26l-191 -156h363q20 0 20 -22v-129q0 -23 -20 -23
z" />
    <glyph glyph-name="three.onum.pnum" horiz-adv-x="1026" 
d="M449 322q-21 0 -21 22v170l197 219h-467q-21 0 -21 21v168q0 22 21 22h706q21 0 21 -22v-189l-232 -258q136 -45 212.5 -145.5t76.5 -239.5q0 -182 -119 -295q-118 -112 -311 -112q-186 0 -304.5 112.5t-125.5 296.5q0 23 22 23h170q23 0 23 -23q6 -91 64.5 -144.5
t150.5 -53.5q99 0 158 54t59 144q0 105 -72 167t-208 63z" />
    <glyph glyph-name="four.onum.pnum" horiz-adv-x="1187" 
d="M719 944h217q20 -3 20 -22v-746h140q20 0 20 -20v-133q0 -21 -20 -21h-140v-276q0 -23 -22 -23h-170q-21 0 -21 23v276h-688q-13 0 -17.5 8.5t3.5 20.5l645 895q9 18 33 18zM743 176v518l-376 -518h376z" />
    <glyph glyph-name="five.onum.pnum" horiz-adv-x="1050" 
d="M535 551q193 0 313 -123q122 -122 119 -313q3 -194 -123 -314q-121 -118 -324 -118q-189 0 -309 114t-129 299q0 23 22 23h170q23 0 23 -23q6 -91 67.5 -146.5t155.5 -55.5q105 0 168.5 61.5t63.5 163.5q0 106 -61.5 168.5t-164.5 62.5q-91 0 -200 -53h-166q-21 0 -21 20
l35 607q0 20 25 20h641q20 0 20 -20v-158q0 -23 -20 -23h-488l-14 -233q96 41 197 41z" />
    <glyph glyph-name="six.onum.pnum" horiz-adv-x="1036" 
d="M530 1257h168q36 0 17 -28l-236 -406q27 8 68 8q186 -9 297 -126q112 -118 112 -297q0 -185 -120 -308q-120 -120 -316 -120q-199 0 -317 118q-121 121 -121 312q0 136 70 243l344 584q9 20 34 20zM743 412q0 97 -62.5 159t-160.5 62q-100 0 -162.5 -61.5t-62.5 -159.5
t62.5 -158.5t162.5 -60.5q98 0 160.5 62.5t62.5 156.5z" />
    <glyph glyph-name="seven.onum.pnum" horiz-adv-x="952" 
d="M635 741h-572q-22 0 -22 23v158q0 20 22 20h836q13 0 20.5 -9.5t2.5 -21.5l-455 -1187q-6 -21 -31 -21h-178q-23 0 -14 25z" />
    <glyph glyph-name="eight.onum.pnum" horiz-adv-x="1064" 
d="M82 377q0 206 182 311q-96 81 -96 227q0 155 102 254q105 99 262 99q159 0 261 -99q104 -98 104 -254q0 -146 -96 -227q182 -105 182 -311q0 -174 -125 -287q-125 -110 -326 -110q-200 0 -325 110q-125 113 -125 287zM297 387q0 -88 66 -142.5t172 -54.5
q104 0 168.5 54.5t64.5 142.5q0 94 -64.5 151.5t-168.5 57.5q-103 0 -170.5 -58.5t-67.5 -150.5zM371 915q0 -69 44.5 -111t116.5 -42t117 42t45 111q0 68 -44.5 109t-117.5 41t-117 -41t-44 -109z" />
    <glyph glyph-name="nine.onum.pnum" horiz-adv-x="1036" 
d="M510 -309h-170q-32 0 -16 28l235 404q-35 -6 -67 -6q-184 9 -297 125q-113 119 -113 297q0 186 121 307q120 123 315 123q197 0 316 -119q120 -120 120 -311q0 -140 -67 -244l-344 -586q-15 -18 -33 -18zM295 537q0 -97 62.5 -159.5t160.5 -62.5q100 0 161.5 61.5
t61.5 160.5q0 98 -61.5 157.5t-161.5 59.5q-97 0 -160 -62t-63 -155z" />
    <glyph glyph-name="zero.onum.tnum" 
d="M100 473q0 218 142 354q144 138 374 138t371 -138q141 -135 141 -354q0 -223 -141 -358q-139 -133 -371 -133q-229 0 -374 133q-142 136 -142 358zM616 188q134 0 216.5 79t82.5 206t-82.5 206t-216.5 79q-136 0 -220.5 -78.5t-84.5 -206.5t84.5 -206.5t220.5 -78.5z" />
    <glyph glyph-name="one.onum.tnum" 
d="M242 762l274 182h193q22 0 22 -22v-748h252q23 0 23 -20v-134q0 -20 -23 -20h-737q-21 0 -21 20v134q0 20 21 20h270v576l-260 -172q-27 -15 -27 16v145q0 17 13 23z" />
    <glyph glyph-name="two.onum.tnum" 
d="M1022 0h-807q-20 0 -24.5 11.5t12.5 23.5l512 426q114 92 108 172q-5 58 -53 90.5t-133 32.5q-147 0 -248 -131q-12 -15 -27 0l-112 125q-13 16 0 32q151 183 393 183q170 0 275.5 -84t113.5 -217q9 -174 -149 -308l-33 -26l-191 -156h363q20 0 20 -22v-129
q0 -23 -20 -23z" />
    <glyph glyph-name="three.onum.tnum" 
d="M551 322q-21 0 -21 22v170l197 219h-467q-20 0 -20 21v168q0 22 20 22h707q20 0 20 -22v-189l-231 -258q136 -45 212 -145.5t76 -239.5q0 -183 -118 -295t-312 -112q-186 0 -304.5 112.5t-125.5 296.5q0 23 23 23h170q22 0 22 -23q6 -91 64.5 -144.5t150.5 -53.5
q99 0 158 54t59 144q0 105 -72 167t-208 63z" />
    <glyph glyph-name="four.onum.tnum" 
d="M760 944h217q20 -3 20 -22v-746h140q20 0 20 -20v-133q0 -21 -20 -21h-140v-276q0 -23 -22 -23h-170q-21 0 -21 23v276h-688q-13 0 -17.5 8.5t3.5 20.5l645 895q9 18 33 18zM784 176v518l-376 -518h376z" />
    <glyph glyph-name="five.onum.tnum" 
d="M625 551q193 0 313 -123q122 -122 119 -313q3 -194 -123 -314q-121 -118 -324 -118q-189 0 -309 114t-129 299q0 23 23 23h170q22 0 22 -23q6 -91 67.5 -146.5t155.5 -55.5q105 0 168.5 61.5t63.5 163.5q0 106 -61.5 168.5t-164.5 62.5q-91 0 -200 -53h-166q-21 0 -21 20
l35 607q0 20 25 20h641q20 0 20 -20v-158q0 -23 -20 -23h-488l-14 -233q96 41 197 41z" />
    <glyph glyph-name="six.onum.tnum" 
d="M625 1257h168q35 0 16 -28l-236 -406q27 8 68 8q186 -9 297 -126q113 -119 113 -297q0 -184 -121 -308q-120 -120 -316 -120q-199 0 -317 118q-121 121 -121 312q0 136 70 243l344 584q9 20 35 20zM838 412q0 97 -63 159t-161 62q-100 0 -162.5 -61.5t-62.5 -159.5
t62.5 -158.5t162.5 -60.5q98 0 161 62.5t63 156.5z" />
    <glyph glyph-name="seven.onum.tnum" 
d="M764 741h-571q-23 0 -23 23v158q0 20 23 20h835q13 0 20.5 -9.5t2.5 -21.5l-455 -1187q-6 -21 -31 -21h-178q-23 0 -14 25z" />
    <glyph glyph-name="eight.onum.tnum" 
d="M164 377q0 206 182 311q-96 81 -96 227q0 155 102 254q105 99 262 99q158 0 260 -99q105 -99 105 -254q0 -146 -96 -227q182 -105 182 -311q0 -174 -125 -287q-125 -110 -326 -110q-200 0 -325 110q-125 113 -125 287zM379 387q0 -88 65.5 -142.5t171.5 -54.5
q104 0 169 54.5t65 142.5q0 94 -65 151.5t-169 57.5q-103 0 -170 -58.5t-67 -150.5zM453 915q0 -69 44.5 -111t116.5 -42t117 42t45 111q0 68 -44.5 109t-117.5 41t-117 -41t-44 -109z" />
    <glyph glyph-name="nine.onum.tnum" 
d="M606 -309h-170q-32 0 -16 28l235 404q-35 -6 -67 -6q-184 9 -297 125q-113 119 -113 297q0 186 121 307q120 123 315 123q197 0 316 -119q121 -121 121 -311q0 -138 -68 -244l-344 -586q-15 -18 -33 -18zM391 537q0 -97 62.5 -159.5t160.5 -62.5q100 0 162 62t62 160
t-62 157.5t-162 59.5q-97 0 -160 -62t-63 -155z" />
    </font>
</defs>
</svg>
