<?xml version="1.0" standalone="no"?>
<!DOCTYPE svg PUBLIC "-//W3C//DTD SVG 1.1//EN" "http://www.w3.org/Graphics/SVG/1.1/DTD/svg11.dtd" >
<svg xmlns="http://www.w3.org/2000/svg" xmlns:xlink="http://www.w3.org/1999/xlink" version="1.1">
<metadata>
Created by FontForge 20170731 at Tue Dec  1 20:03:39 2020
 By Aleksey,,,
Copyright (c) 2019 by Eko Bimantara. All rights reserved.
</metadata>
<defs>
<font id="Ageo-Heavy" horiz-adv-x="1228" >
  <font-face 
    font-family="Ageo Heavy"
    font-weight="900"
    font-stretch="normal"
    units-per-em="2048"
    panose-1="2 0 0 0 0 0 0 0 0 0"
    ascent="1546"
    descent="-502"
    x-height="997"
    cap-height="1421"
    bbox="-99.6818 -492 2425 1899.53"
    underline-thickness="102"
    underline-position="-358"
    unicode-range="U+000D-FB04"
  />
<missing-glyph horiz-adv-x="0" 
 />
    <glyph glyph-name="f_f" unicode="ff" horiz-adv-x="1396" 
d="M1364 977v-240q0 -7 -7.5 -13.5t-13.5 -6.5h-227v-697q0 -20 -20 -20h-260q-21 0 -21 20l-2 697h-356v-697q0 -20 -21 -20h-260q-20 0 -20 20l-2 697h-113q-21 0 -21 20v240q0 20 21 20h113v97q0 219 85 313t261 94q83 0 156.5 -28t109.5 -62q13 -13 6 -29l-88 -211
q-10 -17 -29 -4q-62 39 -102 39q-51 0 -73.5 -30.5t-22.5 -108.5v-70h356v97q0 219 85 313t261 94q83 0 156.5 -28t109.5 -62q13 -13 7 -29l-89 -211q-10 -16 -28 -4q-62 39 -103 39q-51 0 -73.5 -30.5t-22.5 -108.5v-70h227q21 0 21 -20z" />
    <glyph glyph-name="fi" unicode="fi" horiz-adv-x="1204" 
d="M1057 1317l-90 -211q-6 -16 -27 -4q-186 107 -287 104q-196 0 -196 -139v-70h626q19 0 19 -18v-959q0 -20 -19 -20h-262q-18 0 -18 20v697h-346v-697q0 -20 -21 -20h-260q-20 0 -20 20l-2 697h-113q-21 0 -21 20v240q0 20 21 20h113v97q0 92 24.5 164t64.5 117t96.5 74
t116 40.5t126.5 11.5q301 0 469 -155q13 -13 6 -29z" />
    <glyph glyph-name="fl" unicode="fl" horiz-adv-x="1239" 
d="M158 20l-2 697h-115q-21 0 -21 20v240q0 20 21 20h115v97q0 92 24.5 164t64.5 117t96.5 74t116 40.5t126.5 11.5q102 0 215 -22q48 -7 98 -19l113 -26l100 -25q27 -9 27 -35v-1347q0 -27 -31 -27h-242q-28 0 -28 27v1134q-96 45 -199 45q-178 0 -178 -139v-70h262
q20 0 20 -20v-240q0 -7 -7 -13.5t-13 -6.5h-262v-697q0 -20 -21 -20h-260q-20 0 -20 20z" />
    <glyph glyph-name="f_f_i" unicode="ffi" horiz-adv-x="1857" 
d="M500 1501q83 0 156.5 -28t109.5 -62q13 -13 6 -29l-88 -211q-10 -17 -29 -4q-62 39 -102 39q-51 0 -73.5 -30.5t-22.5 -108.5v-70h350v97q0 92 24.5 164t64.5 117t96.5 74t116 40.5t126.5 11.5q301 0 469 -155q13 -13 6 -29l-90 -211q-6 -16 -27 -4q-186 107 -286 104
q-197 0 -197 -139v-70h627q18 0 18 -18v-959q0 -20 -18 -20h-262q-19 0 -19 20v697h-346v-697q0 -20 -20 -20h-261q-20 0 -20 20l-2 697h-350v-697q0 -20 -21 -20h-260q-20 0 -20 20l-2 697h-113q-21 0 -21 20v240q0 20 21 20h113v97q0 219 85 313t261 94z" />
    <glyph glyph-name="f_f_l" unicode="ffl" horiz-adv-x="1888" 
d="M655 1167q-62 39 -102 39q-51 0 -73.5 -30.5t-22.5 -108.5v-70h348v97q0 92 24.5 164t64.5 117t96.5 74t116 40.5t126.5 11.5q109 0 217 -22l96 -19q60 -12 115 -26l98 -25q27 -9 27 -35v-1347q0 -27 -31 -27h-242q-28 0 -28 27v1134q-96 45 -199 45q-178 0 -178 -139
v-70h262q21 0 21 -20v-240q0 -7 -7.5 -13.5t-13.5 -6.5h-262v-697q0 -20 -21 -20h-260q-20 0 -20 20l-2 697h-348v-697q0 -20 -21 -20h-260q-20 0 -20 20l-2 697h-113q-21 0 -21 20v240q0 20 21 20h113v97q0 219 85 313t261 94q83 0 156.5 -28t109.5 -62q13 -13 6 -29
l-88 -211q-10 -17 -29 -4z" />
    <glyph glyph-name=".notdef" horiz-adv-x="0" 
 />
    <glyph glyph-name=".null" horiz-adv-x="0" 
 />
    <glyph glyph-name="nonmarkingreturn" horiz-adv-x="682" 
 />
    <glyph glyph-name="NULL" horiz-adv-x="0" 
 />
    <glyph glyph-name="NULL" horiz-adv-x="0" 
 />
    <glyph glyph-name="CR.001" unicode="&#xd;" horiz-adv-x="0" 
 />
    <glyph glyph-name="space" unicode=" " horiz-adv-x="512" 
 />
    <glyph glyph-name="exclam" unicode="!" horiz-adv-x="516" 
d="M387 426h-266q-21 0 -21 20l-4 955q0 20 21 20h276q19 0 19 -20l-4 -955q0 -20 -21 -20zM420 145q0 -74 -45.5 -119.5t-118.5 -45.5q-74 0 -120 46t-46 119t46 118.5t120 45.5t119 -44.5t45 -119.5z" />
    <glyph glyph-name="quotedbl" unicode="&#x22;" horiz-adv-x="755" 
d="M475 862l-98 76q-16 9 2 27q118 90 153 213l-4 2h-4q-51 13 -79.5 53.5t-28.5 97.5q0 73 43.5 117.5t115.5 44.5q69 0 114 -43.5t46 -112.5q9 -141 -65 -286q-70 -144 -166 -197q-15 -6 -29 8zM182 1178q-4 0 -6 2q-51 14 -80.5 54t-29.5 97q0 72 43.5 117t115.5 45
q69 0 114 -43.5t46 -112.5q9 -139 -66 -286q-71 -145 -165 -197q-15 -6 -29 8l-98 76q-16 9 2 27q118 90 153 213z" />
    <glyph glyph-name="numbersign" unicode="#" horiz-adv-x="1333" 
d="M2 348l72 238q9 20 26 20h133l58 217h-139q-21 0 -15 21l72 235q6 21 29 21h127l77 301q6 20 27 20h252q19 0 16 -20l-80 -301h242l80 301q3 20 25 20h251q23 0 17 -20l-80 -301h125q20 0 14 -21l-71 -235q-6 -21 -29 -21h-113l-57 -217h121q23 0 14 -20l-74 -238
q-3 -18 -26 -18h-109l-82 -310q-3 -20 -24 -20h-252q-23 0 -17 20l82 310h-241l-82 -310q-3 -20 -25 -20h-254q-20 0 -14 20l82 310h-146q-18 0 -12 18zM526 606h242l57 217h-241z" />
    <glyph glyph-name="dollar" unicode="$" horiz-adv-x="1218" 
d="M539 301v262q-234 45 -345.5 145t-117.5 277q-6 185 119 307q126 126 344 144v61q0 21 18 21h107q20 0 20 -21v-61q132 -12 242 -56q105 -42 143 -77q16 -9 6 -29l-108 -248q-9 -18 -29 -6q-128 82 -254 100v-258q237 -57 347 -159.5t116 -284.5q3 -175 -123 -295
q-123 -117 -340 -139v-193q0 -20 -20 -20h-105q-20 0 -20 20v191q-160 15 -285 69q-128 58 -174 101q-14 9 -4 26l135 242q14 20 33 4q43 -36 127 -73t168 -50zM684 535v-238q67 8 108.5 37.5t41.5 71.5q0 86 -150 129zM539 897v223q-67 -10 -107.5 -40.5t-40.5 -69.5
q0 -42 33.5 -67t114.5 -46z" />
    <glyph glyph-name="percent" unicode="%" horiz-adv-x="1644" 
d="M397 750q-171 0 -274 102t-103 272t103.5 273.5t273.5 103.5t272.5 -103.5t102.5 -273.5q0 -171 -104 -272q-102 -102 -271 -102zM313 1206q-31 -31 -31 -82t31 -82t82 -31t82 31q32 31 32 82t-32 82q-31 32 -82 32t-82 -32zM1249 469q-53 0 -83.5 -31.5t-30.5 -83.5
q0 -51 31.5 -81.5t82.5 -30.5t82 30.5t31 81.5t-31 83t-82 32zM1249 -20q-171 0 -274 102t-103 272t103.5 273.5t273.5 103.5t272.5 -103.5t102.5 -273.5q0 -171 -104 -272q-102 -102 -271 -102zM276 31l809 1433q9 15 31 15h246q12 0 18.5 -7.5t1.5 -15.5l-813 -1442
q-8 -14 -30 -14h-242q-37 0 -21 31z" />
    <glyph glyph-name="ampersand" unicode="&#x26;" horiz-adv-x="1376" 
d="M573 1124q-37 0 -60.5 -25.5t-23.5 -66.5q0 -55 52 -119q6 -6 22.5 -25.5t24.5 -27.5q16 -15 66 -61t65 -62l203 -200q19 102 22 258q0 20 21 20h262q20 0 20 -20q-3 -345 -69 -512l254 -254q10 -11 6.5 -20t-17.5 -9h-344q-23 0 -37 14l-43 43q-140 -90 -364 -90
q-265 0 -430 127q-162 125 -162 334q0 113 60 202t167 146q-110 125 -110 287q0 170 108 272q108 105 287 105q157 0 247 -60t144 -182q9 -19 -8 -29l-209 -133q-17 -10 -29 4l-8 10q-7 10 -15.5 20.5t-12.5 14.5q-39 39 -89 39zM426 618q-76 -70 -76 -161q0 -100 78.5 -164
t202.5 -64q90 0 149 41q-86 80 -354 348z" />
    <glyph glyph-name="quotesingle" unicode="'" horiz-adv-x="405" 
d="M125 860l-100 78q-10 13 4 27q117 87 155 213q-8 0 -10 2q-50 14 -79 55t-29 98q0 71 44.5 115.5t114.5 44.5q69 0 113.5 -44.5t46.5 -113.5q9 -137 -66 -284q-69 -140 -167 -195q-10 -10 -27 4z" />
    <glyph glyph-name="parenleft" unicode="(" horiz-adv-x="661" 
d="M315 1405q9 15 33 18l260 -2q19 -3 10 -18q-57 -92 -133 -293q-46 -121 -74 -269.5t-28 -295.5q-3 -465 233 -856q14 -17 -8 -17h-260q-24 0 -33 19q-56 85 -133 280q-46 116 -73 268t-27 306q0 448 233 860z" />
    <glyph glyph-name="parenright" unicode=")" horiz-adv-x="661" 
d="M53 1419l262 2q20 3 31 -16q43 -75 84 -164q44 -91 96 -297q54 -208 54 -399q0 -154 -27.5 -306t-73.5 -268q-77 -195 -133 -280q-10 -19 -31 -19h-262q-22 0 -8 17q237 393 234 856q0 191 -54 399q-53 208 -96 295q-54 110 -86 164q-6 16 10 16z" />
    <glyph glyph-name="asterisk" unicode="*" horiz-adv-x="868" 
d="M553 631l-113 192l-112 -192q-6 -7 -20 -7t-21 7l-176 160q-7 8 -6.5 20t8.5 18l118 125l-196 93q-18 9 -15 30l138 215q12 21 35 4l118 -94l-24 189q0 26 20 26h268q19 0 19 -26l-23 -189l119 94q22 16 33 -4l137 -215q9 -21 -12 -30l-199 -93l121 -125q20 -20 2 -38
l-178 -160q-6 -7 -20.5 -7t-20.5 7z" />
    <glyph glyph-name="plus" unicode="+" horiz-adv-x="1206" 
d="M717 150h-228q-20 0 -20 20v299h-293q-20 0 -20 20v218q0 20 20 20h293v297q0 20 20 20h228q20 0 20 -20v-297h293q21 0 21 -20v-218q0 -20 -21 -20h-293v-299q0 -20 -20 -20z" />
    <glyph glyph-name="comma" unicode="," horiz-adv-x="522" 
d="M158 -365l-111 86q-17 14 4 29q131 101 172 236q-2 2 -10 2q-56 17 -88.5 62.5t-32.5 107.5q0 79 49 128.5t129 51.5q78 0 126 -48t50 -126q9 -158 -71 -318q-78 -160 -187 -219q-16 -6 -30 8z" />
    <glyph glyph-name="hyphen" unicode="-" horiz-adv-x="894" 
d="M115 496v204q0 25 26 25h613q26 0 26 -25v-204q0 -25 -26 -25h-613q-26 0 -26 25z" />
    <glyph glyph-name="period" unicode="." horiz-adv-x="538" 
d="M109 141q0 74 44 119t117 45q72 0 116 -45t44 -119q0 -71 -45 -116t-115 -45q-73 0 -117 44.5t-44 116.5z" />
    <glyph glyph-name="slash" unicode="/" horiz-adv-x="917" 
d="M2 27l623 1433q9 19 26 19h250q27 0 14 -29l-622 -1430q-9 -20 -31 -20h-248q-8 0 -12 8.5t0 18.5z" />
    <glyph glyph-name="zero" unicode="0" horiz-adv-x="1222" 
d="M223 182q-147 200 -147 529t147 528q148 201 389 201q242 0 387 -201q148 -201 148 -528q0 -330 -148 -531q-143 -198 -387 -198q-242 0 -389 200zM612 295q100 0 161 113.5t61 302.5q0 188 -61 301.5t-161 113.5t-161.5 -113.5t-61.5 -301.5q0 -190 60.5 -303
t162.5 -113z" />
    <glyph glyph-name="one" unicode="1" horiz-adv-x="716" 
d="M98 1147v252q0 22 21 22h479q20 0 20 -22v-1379q0 -20 -20 -20h-272q-21 0 -21 20v1106h-186q-21 0 -21 21z" />
    <glyph glyph-name="two" unicode="2" horiz-adv-x="1134" 
d="M958 786l-24 -41l-318 -450h377q22 0 25 -25v-250q0 -20 -23 -20h-583h-88h-234q-12 0 -16 13t4 24q48 59 188 256l254 358l117 164q93 124 96 207q-2 52 -38.5 88.5t-104.5 36.5q-91 0 -205 -141q-13 -10 -19 -8t-20 16l-160 170q-14 14 11 43q168 213 432 213
q172 0 289 -105q118 -103 118 -299q0 -57 -24.5 -129.5t-53.5 -120.5z" />
    <glyph glyph-name="three" unicode="3" horiz-adv-x="1116" 
d="M467 868l84 2q51 0 91 41.5t40 96.5q0 54 -39.5 86t-105.5 32q-90 0 -201 -129q-16 -16 -31 2l-172 203q-17 16 -2 31q177 207 430 207q175 0 305 -109q129 -108 129 -274q0 -182 -133 -312q178 -117 178 -315q0 -201 -143 -332t-350 -131q-209 0 -346 125t-146 330
q0 20 21 20h266q23 0 23 -16q1 -65 53.5 -105t132.5 -40q79 0 127.5 46.5t48.5 121.5q0 72 -43 120t-111 54h-106q-21 0 -21 20v205q0 20 21 20z" />
    <glyph glyph-name="four" unicode="4" horiz-adv-x="1253" 
d="M1018 571h119q20 0 20 -20v-225q0 -21 -20 -21h-119v-285q0 -20 -21 -20h-272q-20 0 -20 20v285h-396h-76h-204q-29 0 -17 27l647 1071q9 18 31 18h307q21 0 21 -22v-828zM705 571v390l-236 -390h236z" />
    <glyph glyph-name="five" unicode="5" horiz-adv-x="1116" 
d="M913 1126h-432l-20 -239q58 22 125 22q208 0 331 -120t123 -328q0 -223 -133 -359q-132 -135 -350 -135q-209 0 -340 119q-132 120 -141 315q0 21 20 21h266q23 0 23 -21q1 -59 49.5 -95t122.5 -36q78 0 126 52.5t48 138.5t-47 136t-131 50q-74 0 -117 -43h-293
q-23 0 -20 21l67 774q3 22 23 22h700q21 0 21 -22v-252q0 -21 -21 -21z" />
    <glyph glyph-name="six" unicode="6" horiz-adv-x="1112" 
d="M1036 461q0 -221 -131 -352q-129 -132 -348 -132q-218 0 -350 132q-131 131 -131 350q0 103 33 188q53 138 100 240q58 125 133 278q27 55 64.5 134t48.5 102q9 20 30 20h271q34 0 18 -28l-215 -463h19q205 -6 331 -135q127 -127 127 -334zM555 625q-74 0 -120 -46.5
t-46 -121.5t46 -120.5t120 -45.5q75 0 121.5 45.5t46.5 120.5t-46.5 121.5t-121.5 46.5z" />
    <glyph glyph-name="seven" unicode="7" horiz-adv-x="1007" 
d="M96 1421h885q38 0 23 -37l-519 -1364q-6 -20 -26 -20h-285q-20 0 -14 20l426 1106h-490q-20 0 -20 21v252q0 22 20 22z" />
    <glyph glyph-name="eight" unicode="8" horiz-adv-x="1103" 
d="M985 1026q0 -167 -133 -276q176 -117 176 -322q0 -204 -131 -326t-346 -122q-213 0 -344 122t-131 326q0 209 174 322q-131 107 -131 276q0 186 119 299q121 115 313 115t313 -115t121 -299zM727 446q0 69 -49.5 116.5t-124.5 47.5t-125.5 -47.5t-50.5 -116.5
q0 -68 51.5 -115.5t124.5 -47.5t123.5 47.5t50.5 115.5zM553 891q63 0 101 38t38 101q0 67 -39 100q-37 37 -100.5 37t-101.5 -37q-39 -36 -39 -100t38 -101.5t103 -37.5z" />
    <glyph glyph-name="nine" unicode="9" horiz-adv-x="1112" 
d="M956 666l-301 -646q-6 -20 -28 -20h-271q-34 0 -18 29l213 460h-8q-209 3 -340 134q-127 130 -127 338q0 220 129 352q131 131 348 131t350 -133t133 -348q0 -57 -12 -109q-3 -15 -6 -27.5t-7.5 -26.5t-6.5 -21.5t-9.5 -25t-10 -23.5t-13.5 -30t-15 -34zM434 840
q45 -45 121 -45t121 45q47 47 47 123q0 73 -47 120q-45 45 -121 45t-121 -45t-45 -120q0 -78 45 -123z" />
    <glyph glyph-name="colon" unicode=":" horiz-adv-x="487" 
d="M66 901q2 80 50.5 129t127.5 49q78 0 127 -49.5t49 -128.5q0 -78 -49 -128t-127 -50q-80 0 -129 49.5t-49 128.5zM66 164q2 80 50.5 129t127.5 49q78 0 127 -49.5t49 -128.5q0 -78 -49 -128t-127 -50q-80 0 -129 49t-49 129z" />
    <glyph glyph-name="semicolon" unicode=";" horiz-adv-x="522" 
d="M440 901q0 -78 -50 -128t-128 -50q-80 0 -129 49q-47 50 -47 129t47 129q49 49 129 49t129 -49.5t49 -128.5zM170 -365l-109 86q-17 10 2 29q132 102 173 236q-2 2 -9 2q-121 38 -121 170q0 81 48.5 129.5t128.5 50.5q78 0 126 -48t50 -126q9 -160 -70 -318
q-78 -161 -186 -219q-18 -7 -33 8z" />
    <glyph glyph-name="less" unicode="&#x3c;" horiz-adv-x="1103" 
d="M78 465v285q0 30 18 36l903 316q27 6 27 -21v-264q0 -29 -20 -35l-560 -174l560 -174q20 -6 20 -35v-264q0 -26 -27 -20l-903 315q-18 6 -18 35z" />
    <glyph glyph-name="equal" unicode="=" horiz-adv-x="1073" 
d="M930 662h-789q-26 0 -26 28v189q0 28 26 28h789q28 0 28 -28v-189q0 -28 -28 -28zM930 272h-789q-26 0 -26 29v188q0 29 26 29h789q28 0 28 -29v-188q0 -29 -28 -29z" />
    <glyph glyph-name="greater" unicode="&#x3e;" horiz-adv-x="1103" 
d="M98 434l559 174l-559 174q-20 6 -20 35v264q0 27 26 21l904 -316q18 -6 18 -36v-285q0 -29 -18 -35l-904 -315q-26 -6 -26 20v264q0 29 20 35z" />
    <glyph glyph-name="question" unicode="?" horiz-adv-x="966" 
d="M592 1008q0 65 -40.5 99t-105.5 34q-105 0 -204 -123q-16 -16 -29 -2l-176 196q-15 16 0 31q159 197 434 197q178 0 305 -109q129 -108 129 -274q0 -93 -29.5 -169.5t-76.5 -127.5q-17 -19 -52 -52.5t-56 -57t-45.5 -56.5t-38 -71.5t-15.5 -82.5q0 -20 -21 -20h-278
q-21 0 -21 20q4 87 37.5 166.5t81.5 134.5q20 22 55 56t56.5 56t44.5 50t34 54t11 51zM264 152q0 76 47 123t125 47q73 0 121 -48q47 -47 47 -122q0 -78 -47 -125t-121 -47q-76 0 -124 47.5t-48 124.5z" />
    <glyph glyph-name="at" unicode="@" horiz-adv-x="1855" 
d="M1739 682q0 -172 -97 -289q-94 -111 -258 -117q-113 0 -221 91q-85 -131 -268 -131q-163 0 -270 110q-104 110 -107 285q0 176 105 284q109 109 272 109q145 0 235 -90l35 39q9 12 23 12h147q21 0 21 -22v-363q0 -106 78 -106q48 0 73 53t23 135q3 240 -154 385
q-154 145 -407 145q-285 0 -455 -161q-169 -159 -172 -416q3 -263 174 -418q175 -158 453 -158q193 0 356 129q24 20 39 5l125 -127q21 -22 0 -43q-193 -193 -520 -193q-381 0 -619 221q-233 220 -233 582q0 364 233 584q235 223 619 223q343 0 555 -209q215 -209 215 -549z
M928 516q54 1 85 32t31 81q0 51 -31 82.5t-85 31.5q-55 0 -89 -31.5t-34 -82.5t34 -82.5t89 -30.5z" />
    <glyph glyph-name="A" unicode="A" horiz-adv-x="1384" 
d="M1071 14l-115 308h-526l-117 -308q-6 -14 -22 -14h-273q-26 0 -16 23l522 1378q6 18 27 18h285q20 0 26 -18l520 -1378q10 -23 -14 -23h-276q-18 0 -21 14zM856 588l-164 434l-164 -434h328z" />
    <glyph glyph-name="B" unicode="B" horiz-adv-x="1253" 
d="M694 627h-248v-328l230 2q90 0 144 48t54 126q0 73 -47.5 112.5t-132.5 39.5zM446 860h181q159 0 159 144q0 54 -49 86t-131 32l-160 -2v-260zM156 1421h487q206 0 330 -106t127 -283q3 -154 -121 -260q206 -111 209 -348q3 -192 -133 -307q-138 -117 -365 -117h-536
q-21 0 -21 20v1379q0 22 23 22z" />
    <glyph glyph-name="C" unicode="C" horiz-adv-x="1359" 
d="M1300 168q-197 -188 -509 -188q-327 0 -527 200q-198 201 -198 529q0 174 60 316t165 232q217 183 500 183q301 3 507 -191q12 -12 0 -26l-151 -215q-10 -19 -29 0q-140 122 -327 122q-186 0 -299 -116q-113 -113 -113 -305q0 -190 113 -303q115 -115 299 -115
q183 0 327 123q19 15 29 -2l153 -215q16 -19 0 -29z" />
    <glyph glyph-name="D" unicode="D" horiz-adv-x="1398" 
d="M606 1122h-160v-821h160q188 0 301 113q115 115 115 297q0 184 -115 299q-112 112 -301 112zM606 0h-452q-21 0 -21 20v1381q0 20 21 20h452q331 0 529 -192t198 -518q0 -329 -198 -521q-199 -190 -529 -190z" />
    <glyph glyph-name="E" unicode="E" horiz-adv-x="1097" 
d="M883 578h-437v-277h553q21 0 21 -20v-263q0 -18 -19 -18h-847q-21 0 -21 20v1381q0 20 21 20h827q20 0 20 -20v-262q0 -19 -20 -19h-535v-248h437q20 0 20 -20v-254q0 -20 -20 -20z" />
    <glyph glyph-name="F" unicode="F" horiz-adv-x="1050" 
d="M883 578h-437v-553q0 -25 -22 -25h-270q-21 0 -21 20v1381q0 20 21 20h827q20 0 20 -20v-262q0 -19 -20 -19h-535v-248h437q20 0 20 -20v-254q0 -20 -20 -20z" />
    <glyph glyph-name="G" unicode="G" horiz-adv-x="1495" 
d="M1106 532h-309q-21 0 -21 21v213q0 18 21 18h602q28 0 28 -28q-6 -378 -170 -576.5t-491 -197.5q-317 3 -508 200q-192 198 -192 529q0 328 200 528q201 201 529 201q304 0 514 -195q14 -12 0 -26l-160 -215q-13 -13 -29 0q-34 30 -63 47q-41 28 -116.5 51.5t-143.5 23.5
q-189 0 -303 -114q-115 -115 -115 -301q0 -189 106 -301q109 -115 283 -115q268 0 338 237z" />
    <glyph glyph-name="H" unicode="H" horiz-adv-x="1419" 
d="M428 0h-274q-21 0 -21 20v1381q0 20 21 20h274q18 0 18 -18v-559h527v557q0 20 20 20h275q18 0 18 -18v-1383q0 -20 -20 -20h-273q-20 0 -20 20v558h-527v-558q0 -20 -18 -20z" />
    <glyph glyph-name="I" unicode="I" horiz-adv-x="579" 
d="M446 1401v-1383q0 -18 -18 -18h-274q-21 0 -21 18v1383q0 20 19 20h276q18 0 18 -20z" />
    <glyph glyph-name="J" unicode="J" horiz-adv-x="872" 
d="M426 496l-2 905q0 20 20 20h273q20 0 20 -20l2 -973q1 -214 -91 -330t-259 -118q-245 3 -375 118q-14 9 -4 29l127 227q13 23 35 11l29 -17q82 -48 149 -53q33 0 49 22t20.5 55t6.5 124z" />
    <glyph glyph-name="K" unicode="K" horiz-adv-x="1212" 
d="M446 1401v-596l416 604q12 12 27 12h297q32 0 12 -26l-471 -676l549 -694q22 -25 -10 -25h-328q-20 0 -27 10l-465 615v-607q0 -18 -18 -18h-274q-21 0 -21 18v1383q0 20 19 20h276q18 0 18 -20z" />
    <glyph glyph-name="L" unicode="L" horiz-adv-x="954" 
d="M446 1401v-1120h428q21 0 21 -21v-242q0 -18 -18 -18h-723q-21 0 -21 18v1383q0 20 19 20h276q18 0 18 -20z" />
    <glyph glyph-name="M" unicode="M" horiz-adv-x="1769" 
d="M164 1421h268q17 0 27 -16l424 -873l407 875q6 14 25 14h301q20 0 20 -20v-1381q0 -20 -20 -20h-273q-20 0 -20 20v809l-297 -600q-6 -16 -25 -16h-239q-17 0 -25 14l-291 588v-795q0 -20 -20 -20h-272q-21 0 -21 20v1371q0 30 31 30z" />
    <glyph glyph-name="N" unicode="N" horiz-adv-x="1478" 
d="M1053 1421h274q19 0 19 -20v-1381q0 -20 -21 -20h-311q-12 0 -21 12l-547 885v-877q0 -20 -20 -20h-272q-21 0 -21 20v1381q0 20 21 20h311q19 0 27 -14l540 -879v873q0 20 21 20z" />
    <glyph glyph-name="O" unicode="O" horiz-adv-x="1589" 
d="M1524 711q0 -330 -201 -531q-198 -198 -528 -198q-329 0 -529 200t-200 529q0 328 200 528q201 201 529 201q327 0 528 -201t201 -528zM379 711q0 -188 115 -303q113 -113 303 -113q184 0 299 115q114 114 114 301q3 186 -112 301q-114 114 -301 114q-189 0 -303 -114
q-115 -115 -115 -301z" />
    <glyph glyph-name="P" unicode="P" horiz-adv-x="1150" 
d="M694 510h-248v-490q0 -20 -20 -20h-272q-21 0 -21 20v1379q0 22 23 22h538q209 0 332 -129q122 -128 125 -325q-3 -200 -125 -328q-123 -129 -332 -129zM446 1120v-309h211q80 0 129.5 37t49.5 117t-50.5 119.5t-128.5 37.5z" />
    <glyph glyph-name="Q" unicode="Q" horiz-adv-x="1593" 
d="M1245 115l273 -168q16 -13 6 -29l-127 -213q-10 -20 -27 -6l-448 291q-49 -8 -127 -8q-329 0 -529 200t-200 529q0 328 200 528q201 201 529 201q327 0 528 -201t201 -528q0 -397 -279 -596zM1210 711q0 187 -114 301t-299 114q-189 0 -303 -114q-115 -115 -115 -301
t115 -301q118 -115 303 -115q189 0 301 113.5t112 302.5z" />
    <glyph glyph-name="R" unicode="R" horiz-adv-x="1243" 
d="M881 10l-279 500h-156v-490q0 -20 -20 -20h-272q-21 0 -21 20v1381q0 20 21 20h571q209 0 332 -129q122 -128 125 -325q-2 -150 -75.5 -263.5t-203.5 -162.5l309 -516q12 -25 -12 -25h-297q-12 0 -22 10zM729 1122h-283v-311h283q50 0 94.5 40.5t44.5 113.5t-44.5 114
t-94.5 43z" />
    <glyph glyph-name="S" unicode="S" horiz-adv-x="1218" 
d="M80 152q-14 9 -4 26l135 242q14 20 33 4q49 -41 159 -88q110 -43 224 -43q88 0 147.5 30.5t59.5 82.5q0 109 -248 149q-259 43 -381.5 144.5t-128.5 285.5q-6 202 141 328q148 130 397 127q161 -3 285 -49q125 -46 170 -88q16 -9 6 -29l-108 -248q-9 -18 -29 -6
q-160 106 -336 106q-91 0 -151 -34t-60 -82q0 -50 52.5 -78.5t197.5 -59.5q262 -57 381 -160t125 -294q6 -188 -146 -316q-149 -125 -401 -122q-173 3 -319 61q-150 63 -201 111z" />
    <glyph glyph-name="T" unicode="T" horiz-adv-x="1134" 
d="M412 18v1102h-353q-18 0 -18 19v262q0 20 20 20h1014q19 0 19 -20v-260q0 -21 -19 -21h-350v-1102q0 -18 -20 -18h-275q-18 0 -18 18z" />
    <glyph glyph-name="U" unicode="U" horiz-adv-x="1400" 
d="M133 557v844q0 18 21 18h274q18 0 18 -18v-846q0 -117 70.5 -188.5t185.5 -71.5t183.5 71.5t66.5 188.5v846q0 18 21 18h274q21 0 21 -18v-846q0 -274 -166 -424q-165 -149 -402 -149q-233 0 -401 151q-166 150 -166 424z" />
    <glyph glyph-name="V" unicode="V" horiz-adv-x="1392" 
d="M502 18l-500 1377q-9 24 16 24h285q17 0 23 -14l370 -1022l371 1022q3 14 23 14h284q26 0 17 -24l-502 -1377q-6 -18 -27 -18h-332q-19 0 -28 18z" />
    <glyph glyph-name="W" unicode="W" horiz-adv-x="1972" 
d="M1272 16l-287 1012l-287 -1012q-3 -16 -20 -16h-240q-17 0 -20 16l-416 1385q-6 20 14 20h277q18 0 24 -18l250 -920l273 920q6 18 24 18h242q13 0 22 -18l279 -930l254 934q0 14 18 14h277q20 0 14 -20l-418 -1385q-3 -16 -22 -16h-236q-19 0 -22 16z" />
    <glyph glyph-name="X" unicode="X" horiz-adv-x="1253" 
d="M332 0h-316q-23 0 -12 20l447 682l-439 699q-9 20 13 20h323q18 0 27 -12l254 -426l264 424q9 12 27 12h319q24 0 10 -20l-454 -694l432 -685q14 -20 -13 -20h-323q-16 0 -25 12l-248 414l-260 -414q-9 -12 -26 -12z" />
    <glyph glyph-name="Y" unicode="Y" horiz-adv-x="1298" 
d="M492 18v547l-488 830q-15 24 14 24h287q17 0 27 -16l317 -565l318 565q10 16 26 16h287q29 0 14 -24l-489 -830v-547q0 -18 -21 -18h-272q-20 0 -20 18z" />
    <glyph glyph-name="Z" unicode="Z" horiz-adv-x="1255" 
d="M1178 1386l-619 -1091h588q20 0 20 -21v-254q0 -20 -20 -20h-1051q-38 0 -18 33l618 1093h-520q-20 0 -20 19v256q0 20 20 20h983q40 0 19 -35z" />
    <glyph glyph-name="bracketleft" unicode="[" horiz-adv-x="681" 
d="M369 1167v-1243h153q25 0 25 -26v-203q0 -27 -25 -27h-420q-26 0 -26 27v1700q0 26 26 26h418q25 0 25 -26v-203q3 -25 -25 -25h-151z" />
    <glyph glyph-name="backslash" unicode="\" horiz-adv-x="917" 
d="M16 1479h250q18 0 27 -19l622 -1433q4 -10 0 -18.5t-12 -8.5h-248q-21 0 -30 20l-623 1430q-13 29 14 29z" />
    <glyph glyph-name="bracketright" unicode="]" horiz-adv-x="684" 
d="M100 -76h154v1243h-152q-26 0 -26 25v203q0 26 26 26h418q27 0 27 -26l-2 -1700q3 -27 -25 -27h-420q-24 0 -24 27v203q0 26 24 26z" />
    <glyph glyph-name="asciicircum" unicode="^" horiz-adv-x="1196" 
d="M53 559l371 842q6 18 29 18h290q23 0 29 -18l371 -842q10 -29 -21 -29h-266q-25 0 -35 23l-223 547l-223 -547q-10 -23 -35 -23h-266q-31 0 -21 29z" />
    <glyph glyph-name="underscore" unicode="_" horiz-adv-x="1230" 
d="M102 -33h1024q29 0 29 -33v-176q0 -32 -29 -32h-1024q-26 0 -26 30v183q0 28 26 28z" />
    <glyph glyph-name="grave" unicode="`" horiz-adv-x="567" 
d="M420 1087l-369 242q-22 15 -6 31l131 160q16 19 35 0l309 -318q12 -14 2 -24l-69 -88q-18 -15 -33 -3z" />
    <glyph glyph-name="a" unicode="a" horiz-adv-x="1214" 
d="M819 893l35 84q6 20 23 20h217q18 0 18 -20v-957q0 -20 -20 -20h-218q-16 0 -22 20l-33 80q-102 -123 -268 -123q-224 -3 -363 142q-137 143 -137 377q0 232 137 372q137 143 363 146q168 0 268 -121zM350 496q0 -97 60.5 -158.5t156.5 -61.5q100 0 160.5 60t60.5 160
q0 98 -61.5 158.5t-159.5 60.5t-157.5 -60.5t-59.5 -158.5z" />
    <glyph glyph-name="b" unicode="b" horiz-adv-x="1191" 
d="M313 0h-190q-21 0 -21 18v1442q0 21 21 21h258q22 0 22 -21v-536q96 90 236 90q224 0 362 -144q140 -146 140 -374q0 -229 -140 -375q-138 -144 -362 -144q-168 0 -268 127l-33 -84q-9 -20 -25 -20zM625 717q-100 0 -161 -60.5t-61 -160.5q0 -98 61 -159t161 -61
q94 0 154.5 61.5t60.5 158.5q0 99 -59.5 160t-155.5 61z" />
    <glyph glyph-name="c" unicode="c" horiz-adv-x="1052" 
d="M987 182q-135 -205 -420 -205q-230 0 -374 144q-142 145 -142 375q0 237 148 376q150 138 354 144q298 6 457 -228q9 -22 -2 -30l-195 -160q-19 -13 -35 6q-79 113 -211 113q-98 0 -157.5 -60.5t-59.5 -160.5t59.5 -161t157.5 -61q57 0 103 21q40 18 61 35l41 43
q18 21 37 6l176 -168q14 -14 2 -29z" />
    <glyph glyph-name="d" unicode="d" horiz-adv-x="1193" 
d="M553 -23q-225 0 -363 144q-137 143 -137 375q0 231 137 374q138 144 363 144q142 0 238 -90v536q0 21 20 21h258q23 0 23 -21v-1440q0 -20 -23 -20h-188q-19 0 -25 20l-33 84q-100 -127 -270 -127zM788 496q1 100 -59 160.5t-160 60.5q-98 0 -157.5 -61t-59.5 -160
q0 -97 60.5 -158.5t156.5 -61.5q99 0 159 59t60 161z" />
    <glyph glyph-name="e" unicode="e" horiz-adv-x="1132" 
d="M367 592h397q-40 143 -197 143q-160 0 -200 -143zM1059 381h-684q55 -125 217 -125q116 0 186 55q22 15 35 2l158 -168q14 -14 2 -30q-129 -135 -402 -138q-231 0 -376 142q-144 144 -144 377q0 229 142 374q144 144 374 144q245 0 379.5 -152.5t134.5 -458.5
q0 -22 -22 -22z" />
    <glyph glyph-name="f" unicode="f" horiz-adv-x="751" 
d="M664 717h-207v-697q0 -20 -21 -20h-260q-20 0 -20 20l-2 697h-113q-21 0 -21 20v240q0 20 21 20h113v97q0 219 85 313t261 94q83 0 156.5 -28t109.5 -62q13 -13 6 -29l-86 -204q-10 -26 -31 -11q-62 39 -102 39q-51 0 -73.5 -30.5t-22.5 -108.5v-70h207q20 0 20 -20v-240
q0 -20 -20 -20z" />
    <glyph glyph-name="g" unicode="g" horiz-adv-x="1202" 
d="M555 1020q177 0 279 -135l38 92q7 17 25 20h182q21 0 21 -22l4 -924q0 -241 -148 -389q-143 -149 -383 -149q-247 3 -413 106q-20 12 -8 33l108 227q8 17 29 8q131 -70 262 -73q121 0 185.5 67t64.5 187v4q-97 -97 -246 -97q-227 3 -367 146q-137 143 -137 377
q0 233 137 376q140 146 367 146zM352 500q0 -99 60 -160t157 -61q105 2 167.5 62t62.5 159q0 103 -62 162t-168 57q-98 0 -157.5 -60.5t-59.5 -158.5z" />
    <glyph glyph-name="h" unicode="h" horiz-adv-x="1136" 
d="M102 23v1433q0 23 21 23h258q22 0 22 -21v-536q93 100 265 100q164 0 266 -123q104 -122 104 -324v-552q0 -23 -20 -23h-260q-21 0 -21 23v483q0 97 -46.5 156t-119.5 57q-72 -2 -117 -59t-51 -173v-464q0 -23 -20 -23h-258q-23 0 -23 23z" />
    <glyph glyph-name="i" unicode="i" horiz-adv-x="503" 
d="M401 979v-959q0 -20 -20 -20h-258q-21 0 -21 20v955q0 22 23 22h258q18 0 18 -18zM434 1311q0 -84 -50 -134.5t-132 -50.5t-133 51.5t-51 133.5q0 81 51 130.5t133 49.5t132 -49t50 -131z" />
    <glyph glyph-name="j" unicode="j" horiz-adv-x="579" 
d="M141 1309q0 82 49 131q51 51 136 51q84 0 133 -49t49 -133t-50 -134.5t-132 -50.5q-85 0 -135 50t-50 135zM178 -86l-2 1063q0 20 21 20l260 -2q18 0 18 -20l2 -1098q2 -169 -83.5 -266.5t-239.5 -97.5q-158 0 -246 88q-13 13 -4 28l90 217q13 28 37 7q36 -33 75 -33
q37 0 54 21.5t18 72.5z" />
    <glyph glyph-name="k" unicode="k" horiz-adv-x="1026" 
d="M659 995h342q28 0 11 -26l-324 -451l389 -491q21 -27 -10 -27h-334q-16 0 -26 10l-304 402v-394q0 -18 -18 -18h-262q-21 0 -21 18v1442q0 19 19 19h264q18 0 18 -19v-839l238 364q7 10 18 10z" />
    <glyph glyph-name="l" unicode="l" horiz-adv-x="505" 
d="M403 1458v-1438q0 -20 -20 -20h-260q-21 0 -21 20v1438q0 21 21 21h260q20 0 20 -21z" />
    <glyph glyph-name="m" unicode="m" horiz-adv-x="1648" 
d="M123 997h213q23 0 26 -20l19 -72q91 117 260 117q191 0 285 -178q88 178 301 178q153 0 248 -123q96 -125 96 -324v-552q0 -23 -21 -23h-258q-22 0 -22 23v483q0 216 -137 213q-146 -3 -146 -260v-436q0 -23 -20 -23h-260q-21 0 -21 23v483q0 105 -35 159.5t-104 53.5
q-135 -3 -144 -227v-472q0 -20 -20 -20h-260q-21 0 -21 20v957q0 20 21 20z" />
    <glyph glyph-name="n" unicode="n" horiz-adv-x="1136" 
d="M102 20v955q0 22 21 22h213q20 0 26 -20l21 -78q102 123 285 123q164 0 266 -123q104 -122 104 -324v-552q0 -23 -20 -23h-260q-21 0 -21 23v483q0 97 -46.5 156t-119.5 57q-71 -2 -116.5 -60t-51.5 -174v-465q0 -18 -20 -18h-258q-23 0 -23 18z" />
    <glyph glyph-name="o" unicode="o" horiz-adv-x="1140" 
d="M51 502q0 231 144 375q145 145 374 145q232 0 377 -145q144 -144 144 -375q0 -235 -144 -379q-143 -143 -377 -143q-231 0 -374 143q-144 144 -144 379zM569 279q99 2 159 63t60 160q0 100 -60.5 160t-158.5 59q-98 0 -157.5 -59.5t-59.5 -159.5t59.5 -161.5t157.5 -61.5
z" />
    <glyph glyph-name="p" unicode="p" horiz-adv-x="1196" 
d="M383 -467h-260q-21 0 -21 23v1421q0 20 23 20h182q23 0 29 -20l35 -84q100 127 270 127q225 0 365 -146q139 -145 139 -376q0 -232 -139 -377q-138 -144 -365 -144q-141 0 -238 91v-514q0 -21 -20 -21zM408 500q0 -100 60.5 -162t158.5 -62t157.5 61t59.5 161
t-59.5 160.5t-157.5 60.5t-158.5 -60.5t-60.5 -158.5z" />
    <glyph glyph-name="q" unicode="q" horiz-adv-x="1196" 
d="M1094 975v-1419q0 -23 -21 -23h-254q-24 0 -24 23l-2 512q-97 -91 -238 -91q-229 0 -367 144q-137 143 -137 377q0 233 137 376q140 146 367 146q170 0 270 -127l35 84q6 20 25 20h188q21 0 21 -22zM569 276q99 0 159 62t60 162q0 99 -60 159t-159 60q-97 0 -157 -61
t-60 -160q0 -100 60 -161t157 -61z" />
    <glyph glyph-name="r" unicode="r" horiz-adv-x="770" 
d="M674 684q-72 29 -127 29q-40 0 -79 -24t-62 -66v-600q0 -23 -21 -23h-260q-23 0 -23 23v952q0 19 21 22h182q23 0 29 -22l24 -55q113 98 248 98q45 0 148 -25q20 -6 14 -26l-63 -271q-9 -21 -31 -12z" />
    <glyph glyph-name="s" unicode="s" horiz-adv-x="944" 
d="M76 90q-16 13 -6 29l100 205q9 18 31 8q122 -64 217 -76q65 -7 112.5 5t47.5 36q0 9 -5 17t-17.5 15t-25 13t-34.5 13t-40 12t-47.5 13.5t-50.5 14.5q-283 82 -292 297q-6 157 116 242q125 87 307 84q118 0 213 -39q101 -41 142 -74q15 -12 6 -28l-105 -195
q-8 -17 -32 -8l-31 14q-65 37 -147 51q-65 12 -116.5 -2.5t-51.5 -38.5q0 -42 159 -77q182 -38 265.5 -108t87.5 -200q4 -152 -106 -242.5t-292 -88.5q-136 0 -248 36q-122 42 -157 72z" />
    <glyph glyph-name="t" unicode="t" horiz-adv-x="704" 
d="M471 717l-2 -213q0 -117 10 -168q6 -29 18.5 -38t37.5 -9q11 0 41 12l30 12q21 12 29 -8l67 -225q9 -26 -8 -33q-33 -26 -95.5 -46t-129.5 -19q-137 0 -216.5 89.5t-78.5 241.5v404h-113q-20 0 -20 18v242q0 20 20 20h113l2 287q0 21 19 21h256q20 0 20 -21v-287h172
q21 0 21 -20v-242q0 -18 -21 -18h-172z" />
    <glyph glyph-name="u" unicode="u" horiz-adv-x="1155" 
d="M793 20l-21 76q-127 -121 -317 -121q-161 0 -260 123t-99 324v553q0 20 21 20h258q22 0 22 -20v-483q0 -236 176 -236q75 2 124 63.5t55 188.5v467q0 22 22 22h256q21 0 21 -20l2 -957q0 -20 -23 -20h-211q-20 0 -26 20z" />
    <glyph glyph-name="v" unicode="v" horiz-adv-x="1064" 
d="M1063 971l-354 -953q-6 -18 -29 -18h-295q-21 0 -27 18l-356 953q-12 26 18 26h275q16 0 22 -16l215 -623l216 623q6 16 22 16h277q28 0 16 -26z" />
    <glyph glyph-name="w" unicode="w" horiz-adv-x="1411" 
d="M328 979l106 -543l144 543q3 18 20 18h215q16 0 25 -18l141 -586l102 586q3 18 19 18h295q23 0 14 -20l-256 -961q-6 -16 -25 -16h-274q-20 0 -23 16l-129 539l-129 -539q-3 -16 -22 -16h-264q-19 0 -25 16l-262 961q-3 20 14 20h293q18 0 21 -18z" />
    <glyph glyph-name="x" unicode="x" horiz-adv-x="1069" 
d="M526 258l-166 -242q-13 -16 -30 -16h-312q-10 0 -14 9t2 16l340 475l-340 471q-6 7 -3 16.5t13 9.5h318q21 0 33 -18l163 -234l162 234q9 18 33 18h309q11 0 14 -7.5t-4 -18.5l-333 -465l340 -479q6 -11 2.5 -19t-15.5 -8h-319q-18 0 -31 16z" />
    <glyph glyph-name="y" unicode="y" horiz-adv-x="1058" 
d="M774 997h264q28 0 19 -26l-547 -1420q-9 -18 -27 -18h-266q-12 0 -17.5 8t-0.5 19l174 448l-371 963q-10 23 14 26h275q18 0 24 -18l201 -600l232 600q9 18 26 18z" />
    <glyph glyph-name="z" unicode="z" horiz-adv-x="946" 
d="M862 0h-784q-24 0 -15 25l355 692h-314q-18 0 -18 18v242q0 20 18 20h766q27 0 9 -34l-351 -682h334q19 0 19 -21v-240q0 -20 -19 -20z" />
    <glyph glyph-name="braceleft" unicode="{" horiz-adv-x="739" 
d="M129 659l18 9l27 12q1 1 24 15t29 22q43 43 43 92v315q0 118 33 201q40 94 172 94h160q29 0 29 -28v-207q0 -31 -29 -31h-51q-27 0 -27 -29v-307q0 -183 -162 -274q162 -88 162 -275v-307q0 -29 27 -29h51q29 0 29 -30v-207q0 -29 -29 -29h-160q-132 0 -172 94
q-33 83 -33 201v315q0 70 -57 105q-42 28 -84 45q-14 8 -14 18v197q0 12 14 18z" />
    <glyph glyph-name="bar" unicode="|" horiz-adv-x="442" 
d="M362 1448v-1884q0 -31 -28 -31h-221q-31 0 -31 31l-2 1884q0 31 31 31h223q28 0 28 -31z" />
    <glyph glyph-name="braceright" unicode="}" horiz-adv-x="739" 
d="M154 1153h-52q-28 0 -28 31v207q0 28 28 28h160q133 0 170 -94q35 -82 35 -201v-315q0 -15 3 -29t10.5 -26t14 -21.5t19 -19t19.5 -15.5t21.5 -13.5t19.5 -10t20 -8.5l14 -7q15 -6 15 -18v-197q0 -9 -15 -18q-51 -23 -84 -45q-57 -37 -57 -105v-315q0 -119 -35 -201
q-37 -94 -170 -94h-160q-28 0 -28 29v207q0 30 28 30h52q26 0 26 29v307q0 187 162 275q-162 91 -162 274v307q0 29 -26 29z" />
    <glyph glyph-name="asciitilde" unicode="~" horiz-adv-x="1169" 
d="M287 377l-45 -98q-4 -11 -16 -12t-19 7l-156 164q-17 17 -8 45q44 123 132 198t202 75q65 0 121.5 -21.5t96 -53t73 -62.5t66.5 -52.5t63 -21.5q43 0 63 45q3 5 8.5 14t9 16.5t7.5 18.5q7 15 19.5 47.5t15.5 38.5q15 36 41 10l155 -162q19 -16 10 -38
q-45 -128 -134 -209.5t-201 -81.5q-56 -2 -113.5 20t-102 54t-83.5 65t-70.5 54.5t-50.5 19.5q-35 0 -62 -41q-8 -12 -22 -39z" />
    <glyph glyph-name="uni00A0" unicode="&#xa0;" horiz-adv-x="641" 
 />
    <glyph glyph-name="exclamdown" unicode="&#xa1;" horiz-adv-x="516" 
d="M121 993h266q21 0 21 -20l4 -953q0 -20 -19 -20h-276q-21 0 -21 20l4 953q0 20 21 20zM135 1155q-44 44 -44 119t44 119q47 47 121 47q72 0 119 -47q44 -44 44 -119t-44 -119q-45 -45 -119 -45q-76 0 -121 45z" />
    <glyph glyph-name="cent" unicode="&#xa2;" horiz-adv-x="1052" 
d="M637 707l-80 -431q2 -2 10 -2q57 0 103 21q40 18 61 35l41 43q20 21 31 10l184 -174q13 -10 0 -27q-135 -205 -420 -205q-44 0 -65 3l-35 -181q-3 -20 -25 -20h-75q-22 0 -19 20l39 205q-156 50 -246 180t-90 312q0 237 148 376q150 138 354 144h22l19 94q3 20 24 20h78
q20 0 17 -20l-21 -106q198 -40 318 -216q9 -22 -2 -30l-201 -164q-15 -9 -29 10q-58 82 -141 103zM444 307l76 406h-4q-78 -17 -122 -74t-44 -143q0 -131 94 -189z" />
    <glyph glyph-name="sterling" unicode="&#xa3;" horiz-adv-x="989" 
d="M842 0h-692q-33 0 -21 31q179 392 121 590h-150q-26 0 -26 30v72q0 31 26 31h95q-77 151 -80 290q3 172 123 283q119 113 294 113q226 0 373 -176q12 -16 -2 -33l-172 -187q-21 -15 -37 7q-76 94 -164 94q-49 0 -79.5 -28t-30.5 -73t14 -86q9 -22 43.5 -99t44.5 -105h189
q28 0 28 -31v-72q0 -30 -28 -30h-158q21 -154 -31 -340h320q26 0 26 -25v-227q0 -29 -26 -29z" />
    <glyph glyph-name="currency" unicode="&#xa4;" horiz-adv-x="1196" 
d="M598 954q108 0 195 -41l114 129q15 14 29 0l174 -176q16 -12 2 -26l-131 -123q33 -79 33 -176q0 -109 -41 -199l135 -123q14 -12 0 -26l-174 -177q-16 -13 -29 0l-131 142q-177 -66 -346 -4l-129 -146q-12 -15 -29 -2l-176 178q-15 15 0 27l131 125q-45 86 -45 205
q0 89 31 168l-137 122q-12 12 0 27l176 176q14 14 29 0l116 -125q86 45 203 45zM385 541q3 -98 59 -154q57 -57 154 -57q95 0 152 57q56 56 59 154q1 94 -56.5 151.5t-154.5 59.5q-98 2 -156 -55.5t-57 -155.5z" />
    <glyph glyph-name="yen" unicode="&#xa5;" horiz-adv-x="1298" 
d="M494 18v234h-211q-21 0 -21 20v64q0 20 21 20h211v144h-211q-21 0 -21 20v64q0 20 21 20h178h8l-465 791q-15 24 14 24h285q19 0 29 -16l317 -565l318 565q10 16 28 16h285q29 0 14 -24l-465 -791h13h162q20 0 20 -20v-64q0 -20 -20 -20h-199v-144h199q20 0 20 -20v-64
q0 -20 -20 -20h-199v-234q0 -18 -21 -18h-272q-21 0 -18 18z" />
    <glyph glyph-name="brokenbar" unicode="&#xa6;" horiz-adv-x="440" 
d="M113 254h213q20 0 20 -21v-679q0 -21 -20 -21h-213q-21 0 -21 21v679q0 21 21 21zM113 1479h215q20 0 20 -21v-680q0 -20 -20 -20h-215q-21 0 -21 20v680q0 21 21 21z" />
    <glyph glyph-name="section" unicode="&#xa7;" horiz-adv-x="1218" 
d="M76 1026q-6 196 137.5 306t400.5 108q161 -3 285 -49q125 -46 170 -88q16 -9 6 -29l-108 -227q-9 -18 -29 -7q-162 107 -338 107q-97 0 -154 -26t-57 -70q0 -24 8 -36.5t31 -19.5q19 -8 45 -12q66 -4 168 -29q257 -55 377 -157t129 -310q3 -123 -76 -231q70 -76 76 -221
q6 -189 -143 -293q-146 -107 -404 -104q-175 3 -321 61t-199 108q-12 12 -6 27l137 223q13 19 31 4q52 -43 161 -86q107 -45 222 -45q209 0 209 93q-3 38 -50 59q-51 23 -198 49q-262 43 -383 143t-127 287q-6 139 74 254q-71 77 -74 211zM641 428l55 -12q26 -5 68 -17
q70 34 70 88q-6 130 -248 170q-89 18 -115 21q-80 -35 -80 -92t57 -93t193 -65z" />
    <glyph glyph-name="dieresis" unicode="&#xa8;" horiz-adv-x="724" 
d="M61 1325q0 63 38.5 101t101.5 38q61 0 99 -38.5t38 -100.5q0 -61 -38.5 -100t-98.5 -39q-63 0 -101.5 38.5t-38.5 100.5zM381 1325q0 63 38 101t101 38q61 0 99 -38.5t38 -100.5q0 -61 -38.5 -100t-98.5 -39q-63 0 -101 38.5t-38 100.5z" />
    <glyph glyph-name="copyright" unicode="&#xa9;" horiz-adv-x="1601" 
d="M1133 465q-112 -154 -324 -154q-179 0 -287 111t-108 289q0 155 88 256q89 102 205 129q120 27 241 -13q126 -42 189 -141q9 -16 -4 -29l-148 -131q-18 -15 -37 4q-71 68 -139 68q-63 2 -103 -37.5t-40 -105.5q0 -67 38.5 -106.5t104.5 -39.5q89 0 141 64q18 21 41 2
l137 -129q17 -17 5 -37zM72 709q0 332 198 530q201 201 531 201q327 0 528 -201t201 -530q0 -328 -201 -529q-200 -200 -528 -200q-329 0 -529 200t-200 529zM244 709q0 -251 153 -404q154 -151 404 -151q251 0 405 151q156 153 156 404q0 252 -156 405q-154 154 -405 154
q-250 0 -404 -154q-153 -153 -153 -405z" />
    <glyph glyph-name="ordfeminine" unicode="&#xaa;" horiz-adv-x="886" 
d="M608 1446h180q19 0 19 -21v-653q0 -22 -21 -22h-178q-15 0 -24 20l-23 49q-63 -84 -172 -84q-158 0 -254 99.5t-96 263.5q0 158 96 262q93 100 254 100q110 0 172 -86l25 51q6 21 22 21zM412 987q53 0 83.5 30.5t32.5 82.5q4 36 -17.5 63.5t-53 38t-68 5t-61.5 -28.5
t-30.5 -58t6.5 -65.5t41.5 -51t66.5 -16.5z" />
    <glyph glyph-name="guillemotleft" unicode="&#xab;" horiz-adv-x="1052" 
d="M524 524v41q0 23 17 43l311 320q18 27 45 0l127 -125q22 -21 2 -41l-217 -217l217 -217q20 -20 -2 -41l-127 -125q-27 -27 -45 0l-311 319q-17 20 -17 43zM426 928l127 -125q21 -21 2 -41l-217 -217l217 -217q19 -20 -2 -41l-127 -125q-27 -27 -45 0l-311 319
q-17 20 -17 43v41q0 23 17 43l311 320q18 27 45 0z" />
    <glyph glyph-name="logicalnot" unicode="&#xac;" horiz-adv-x="1292" 
d="M1159 819v-442q0 -27 -26 -27h-195q-25 0 -25 27v219h-753q-27 0 -27 31v188q0 30 27 33h970q29 0 29 -29z" />
    <glyph glyph-name="uni00AD" unicode="&#xad;" horiz-adv-x="681" 
 />
    <glyph glyph-name="registered" unicode="&#xae;" horiz-adv-x="1601" 
d="M72 709q0 332 198 530q201 201 531 201q327 0 528 -201t201 -530q0 -328 -201 -529q-200 -200 -528 -200q-329 0 -529 200t-200 529zM801 1268q-250 0 -404 -154q-153 -153 -153 -405q0 -249 153 -402t404 -153q253 0 407 151q154 154 154 404q0 254 -154 405
q-154 154 -407 154zM1110 858q0 -79 -36 -139.5t-101 -91.5l141 -275q5 -8 -1 -17t-19 -9h-191q-24 0 -33 18l-104 258h-33v-248q0 -28 -33 -28h-184q-33 0 -33 32v717q0 27 29 27h348q115 0 182.5 -67t67.5 -177zM733 889v-92h103q45 0 45 47q0 45 -45 45h-103z" />
    <glyph glyph-name="overscore" unicode="&#xaf;" horiz-adv-x="665" 
d="M61 1425h543q21 0 21 -20v-145q0 -21 -21 -21h-543q-20 0 -20 21v145q0 20 20 20z" />
    <glyph glyph-name="degree" unicode="&#xb0;" horiz-adv-x="872" 
d="M842 1073q0 -180 -113 -293q-110 -110 -293 -110q-182 0 -295 110q-110 110 -110 293t110 293q113 113 295 113q183 0 293 -113q113 -110 113 -293zM299 1071q0 -60 38.5 -97.5t100.5 -37.5q56 0 95.5 39t39.5 96q0 65 -37 103t-98 38q-67 0 -103 -37t-36 -104z" />
    <glyph glyph-name="plusminus" unicode="&#xb1;" horiz-adv-x="1206" 
d="M717 362h-228q-20 0 -20 21v258h-293q-20 0 -20 21v217q0 20 20 20h293v256q0 21 20 21h228q20 0 20 -21v-256h293q21 0 21 -20v-217q0 -21 -21 -21h-293v-258q0 -21 -20 -21zM1047 238v-177q0 -24 -27 -24h-830q-26 0 -26 24v177q0 24 26 24h830q27 0 27 -24z" />
    <glyph glyph-name="twosuperior" unicode="&#xb2;" horiz-adv-x="663" 
d="M590 963l-27 -54l-96 -151h149q19 0 19 -19v-196q0 -23 -19 -23h-540q-46 3 -25 49l301 465q52 79 49 121q-3 45 -55 45q-60 0 -106 -55q-10 -13 -25 2l-125 145q-12 12 -2 21q111 129 295 129q123 0 192.5 -71.5t69.5 -190.5q0 -63 -27 -146q-11 -40 -28 -71z" />
    <glyph glyph-name="threesuperior" unicode="&#xb3;" horiz-adv-x="731" 
d="M256 924v139q0 20 20 20h50q71 3 71 74q0 29 -18 46.5t-45 17.5q-56 0 -115 -50q-14 -8 -22 0l-107 127q-10 17 0 27q95 115 277 115q126 0 205 -68.5t79 -175.5q0 -122 -82 -207q111 -65 111 -213q0 -124 -90 -200t-236 -76q-137 0 -226.5 81t-96.5 214q0 20 20 20h201
q16 0 16 -16q3 -58 82 -58q33 0 53.5 21.5t20.5 56.5q0 78 -82 84h-66q-23 0 -20 21z" />
    <glyph glyph-name="acute" unicode="&#xb4;" horiz-adv-x="567" 
d="M393 1520l129 -160q15 -15 -4 -31l-371 -242q-18 -9 -30 3l-72 86q-9 15 4 28l309 316q19 16 35 0z" />
    <glyph glyph-name="mu" unicode="&#xb5;" horiz-adv-x="1161" 
d="M758 508v463q0 26 22 26h256q23 0 23 -20v-957q0 -20 -21 -20h-217q-16 0 -22 20l-21 76q-127 -121 -315 -121q-7 0 -16.5 1t-23 2t-22.5 2v-408q0 -37 -34 -37h-230q-35 0 -35 37v1403q0 20 21 20h260q20 0 20 -22v-481q0 -236 177 -236q75 2 123.5 63t54.5 189z" />
    <glyph glyph-name="paragraph" unicode="&#xb6;" horiz-adv-x="1198" 
d="M817 1143h-164v-1217q0 -24 -22 -24h-191q-26 0 -26 26v742q-167 0 -270 103.5t-103 270.5t103 271t270 104h86q3 3 6 0h627q24 0 24 -22v-230q0 -24 -24 -24h-76v-1217q-3 -24 -25 -24h-186q-29 0 -29 28v1213z" />
    <glyph glyph-name="middot" unicode="&#xb7;" horiz-adv-x="432" 
d="M418 571q0 -88 -55.5 -144t-145.5 -56q-91 0 -146 54.5t-55 145.5t55 147t146 56t146 -56t55 -147z" />
    <glyph glyph-name="cedilla" unicode="&#xb8;" horiz-adv-x="612" 
d="M201 0h231l-33 -76q83 -11 128 -53t44 -117q-1 -95 -73.5 -147.5t-186.5 -52.5q-65 -1 -138.5 22t-123.5 57q-13 8 -4 27l47 80q7 10 27 4q82 -31 160 -31q37 0 59 14.5t22 39.5q0 53 -100 53h-117q-21 0 -12 18z" />
    <glyph glyph-name="onesuperior" unicode="&#xb9;" horiz-adv-x="440" 
d="M41 1421h319q25 0 25 -24v-850q0 -29 -29 -29h-206q-32 0 -29 29v633h-76q-26 0 -29 24v193q0 24 25 24z" />
    <glyph glyph-name="ordmasculine" unicode="&#xba;" horiz-adv-x="800" 
d="M39 1100q0 161 99.5 261.5t260.5 100.5q164 0 263.5 -99t99.5 -263t-99.5 -264.5t-263.5 -100.5q-161 0 -262 101q-98 101 -98 264zM289 1100q0 -51 30 -82t80 -31q49 0 79 31t30 82q0 49 -29.5 78.5t-79.5 29.5t-80 -29.5t-30 -78.5z" />
    <glyph glyph-name="guillemotright" unicode="&#xbb;" horiz-adv-x="1058" 
d="M549 565v-41q0 -24 -19 -43l-309 -319q-25 -22 -47 0l-125 125q-20 20 -2 41l217 217l-217 217q-18 21 2 41l125 125q22 22 47 0l309 -320q19 -19 19 -43zM520 803l125 125q22 22 47 0l309 -320q19 -19 19 -43v-41q0 -24 -19 -43l-309 -319q-25 -22 -47 0l-125 125
q-20 20 -2 41l217 217l-217 217q-18 21 2 41z" />
    <glyph glyph-name="onequarter" unicode="&#xbc;" horiz-adv-x="1705" 
d="M1645 324v-152q3 -20 -19 -20h-74v-125q3 -27 -22 -27h-215q-28 0 -25 25v127h-405q-42 0 -27 34l350 697q8 19 31 16h293q17 0 20 -20v-537h70q23 0 23 -18zM270 31l809 1433q6 15 29 15h246q12 0 18.5 -7.5t1.5 -15.5l-813 -1442q-8 -14 -31 -14h-241q-38 0 -19 31z
M166 547v633h-76q-26 0 -29 24v193q0 24 25 24h320q24 0 24 -24v-850q0 -29 -29 -29h-206q-32 0 -29 29zM1149 342h141v291z" />
    <glyph glyph-name="onehalf" unicode="&#xbd;" horiz-adv-x="1705" 
d="M270 31l809 1433q6 15 29 15h246q12 0 18.5 -7.5t1.5 -15.5l-813 -1442q-8 -14 -31 -14h-241q-38 0 -19 31zM86 1421h320q24 0 24 -24v-850q0 -29 -29 -29h-206q-32 0 -29 29v633h-76q-26 0 -29 24v193q0 24 25 24zM1561 389l-95 -151h148q18 0 18 -19v-196
q0 -23 -18 -23h-539q-47 3 -26 49l110 178q127 194 133 203l58 84q52 85 49 121q0 45 -56 45q-61 0 -104 -55q-13 -13 -27 2l-125 145q-9 9 0 21q108 129 295 129q121 0 192 -73t71 -190q-7 -88 -33 -172q-19 -44 -27 -55q-1 -5 -11.5 -23t-12.5 -20z" />
    <glyph glyph-name="threequarters" unicode="&#xbe;" horiz-adv-x="1910" 
d="M461 31l809 1433q9 15 30 15h244q12 0 19 -7.5t2 -15.5l-813 -1442q-6 -14 -29 -14h-242q-39 0 -20 31zM297 924v139q0 20 20 20h50q71 3 71 74q0 29 -18 46.5t-45 17.5q-56 0 -115 -50q-14 -8 -22 0l-107 127q-10 17 0 27q95 115 277 115q126 0 205 -68.5t79 -175.5
q0 -122 -82 -207q111 -65 111 -213q0 -124 -90 -200t-236 -76q-137 0 -226.5 81t-96.5 214q0 20 20 20h201q16 0 16 -16q3 -58 82 -58q33 0 53.5 21.5t20.5 56.5q0 78 -82 84h-66q-23 0 -20 21zM1847 324v-152q3 -20 -18 -20h-74v-125q3 -27 -22 -27h-215q-25 0 -25 25v127
h-406q-41 0 -26 34l350 697q8 19 31 16h293q17 0 20 -20v-537h72q10 0 16 -5t4 -13zM1352 342h141v291z" />
    <glyph glyph-name="questiondown" unicode="&#xbf;" horiz-adv-x="966" 
d="M375 979q0 20 20 20h279q20 0 20 -20q-4 -88 -37.5 -167.5t-83.5 -133.5q-21 -23 -84 -86t-88.5 -101t-25.5 -77q0 -65 40 -99t105 -36q112 0 205 124q13 16 29 0l176 -196q16 -15 0 -31q-163 -196 -434 -196q-181 0 -308 106q-127 109 -127 276q0 181 105 297
q15 16 53 52.5t57.5 58.5t45 56.5t38.5 72t15 80.5zM530 1100q-75 0 -121.5 46.5t-46.5 121.5q0 79 46 125q47 47 122 47q77 0 123 -49q49 -46 49 -123q0 -75 -47 -121.5t-125 -46.5z" />
    <glyph glyph-name="Agrave" unicode="&#xc0;" horiz-adv-x="1384" 
d="M1071 14l-115 308h-526l-117 -308q-6 -14 -22 -14h-273q-26 0 -16 23l522 1378q6 18 27 18h283q22 0 28 -18l520 -1378q10 -23 -14 -23h-276q-18 0 -21 14zM856 588l-164 434l-164 -434h328zM852 1442l-399 186q-8 5 -10.5 15t3.5 16l105 176q9 19 35 6l350 -270
q16 -13 6 -29l-59 -94q-9 -15 -31 -6z" />
    <glyph glyph-name="Aacute" unicode="&#xc1;" horiz-adv-x="1384" 
d="M1071 14l-115 308h-526l-117 -308q-6 -14 -22 -14h-273q-26 0 -16 23l522 1378q6 18 27 18h283q22 0 28 -18l520 -1378q10 -23 -14 -23h-276q-18 0 -21 14zM856 588l-164 434l-164 -434h328zM860 1841l105 -176q6 -6 2.5 -16t-11.5 -15l-399 -186q-22 -9 -31 6l-57 94
q-9 15 6 27l350 270q20 17 35 -4z" />
    <glyph glyph-name="Acircumflex" unicode="&#xc2;" horiz-adv-x="1384" 
d="M1071 14l-115 308h-526l-117 -308q-6 -14 -22 -14h-273q-26 0 -16 23l522 1378q6 18 27 18h283q22 0 28 -18l520 -1378q10 -23 -14 -23h-276q-18 0 -21 14zM856 588l-164 434l-164 -434h328zM780 1536l-88 80l-88 -80q-17 -10 -24 -10h-226q-25 0 -8 14l223 219
q17 10 31 10h184q12 0 29 -10l225 -219q17 -14 -6 -14h-227q-8 0 -25 10z" />
    <glyph glyph-name="Atilde" unicode="&#xc3;" horiz-adv-x="1384" 
d="M1071 14l-115 308h-526l-117 -308q-6 -14 -22 -14h-273q-26 0 -16 23l522 1378q6 18 27 18h283q22 0 28 -18l520 -1378q10 -23 -14 -23h-276q-18 0 -21 14zM856 588l-164 434l-164 -434h328zM469 1518q-12 -27 -27 -9l-73 82q-10 14 -7 23q29 83 88 135.5t117 52.5
q38 0 69 -16t52 -38.5t40 -44.5t41.5 -37t47.5 -13q72 0 107 92q11 25 24 8l78 -84q6 -9 6 -16q-29 -86 -87.5 -139.5t-121.5 -53.5q-38 0 -70 16t-53 38.5t-39.5 45t-40.5 38.5t-47 16q-70 -3 -104 -96z" />
    <glyph glyph-name="Adieresis" unicode="&#xc4;" horiz-adv-x="1384" 
d="M1071 14l-115 308h-526l-117 -308q-6 -14 -22 -14h-273q-26 0 -16 23l522 1378q6 18 27 18h283q22 0 28 -18l520 -1378q10 -23 -14 -23h-276q-18 0 -21 14zM856 588l-164 434l-164 -434h328zM393 1614q0 63 37 101t100 38q62 0 100 -38t38 -101q0 -61 -39 -99t-99 -38
q-63 0 -100 37.5t-37 99.5zM711 1614q0 63 38 101t101 38q61 0 98 -38t37 -101q0 -62 -37 -99.5t-98 -37.5q-63 0 -101 37.5t-38 99.5z" />
    <glyph glyph-name="Aring" unicode="&#xc5;" horiz-adv-x="1384" 
d="M1071 14l-115 308h-526l-117 -308q-6 -14 -22 -14h-273q-26 0 -16 23l522 1378q6 18 27 18h283q22 0 28 -18l520 -1378q10 -23 -14 -23h-276q-18 0 -21 14zM856 588l-164 434l-164 -434h328zM678 1849q91 0 146 -54t55 -144q0 -91 -55 -145t-146 -54t-145 54t-54 145
q0 90 55 144t144 54zM623 1706q-20 -20 -20 -55t20 -58q20 -20 55 -20t55 20q23 23 23 58t-23 55q-20 20 -55 20t-55 -20z" />
    <glyph glyph-name="AE" unicode="&#xc6;" horiz-adv-x="1695" 
d="M307 0h-278q-39 0 -25 33l721 1370q9 18 31 18h819q24 0 24 -28v-224q0 -28 -24 -28h-344v-281h250q20 0 20 -22v-234q0 -20 -20 -20h-250v-303h366q21 0 21 -23v-235q0 -23 -19 -23h-661q-20 3 -20 23v309h-420l-160 -314q-9 -18 -31 -18zM918 1157l-285 -559h285v559z
" />
    <glyph glyph-name="Ccedilla" unicode="&#xc7;" horiz-adv-x="1359" 
d="M1300 168q-197 -188 -509 -188q-327 0 -527 200q-198 201 -198 529q0 174 60 316t165 232q217 183 500 183q301 3 507 -191q12 -12 0 -26l-151 -215q-10 -19 -29 0q-140 122 -327 122q-186 0 -299 -116q-113 -113 -113 -305q0 -190 113 -303q115 -115 299 -115
q183 0 327 123q19 15 29 -2l153 -215q16 -19 0 -29zM702 0h222l-33 -72q167 -22 164 -161q-1 -91 -69.5 -141t-176.5 -50q-132 -3 -250 76q-16 9 -4 24l45 76q7 10 25 4q95 -28 151 -28q35 0 56.5 14t21.5 37q0 49 -94 49h-111q-21 0 -12 18z" />
    <glyph glyph-name="Egrave" unicode="&#xc8;" horiz-adv-x="1097" 
d="M883 578h-437v-277h553q21 0 21 -20v-263q0 -18 -19 -18h-847q-21 0 -21 20v1381q0 20 21 20h827q20 0 20 -20v-262q0 -19 -20 -19h-535v-248h437q20 0 20 -20v-254q0 -20 -20 -20zM657 1442l-399 186q-27 12 -8 31l104 176q9 22 35 6l350 -270q16 -13 6 -29l-57 -94
q-9 -18 -31 -6z" />
    <glyph glyph-name="Eacute" unicode="&#xc9;" horiz-adv-x="1097" 
d="M883 578h-437v-277h553q21 0 21 -20v-263q0 -18 -19 -18h-847q-21 0 -21 20v1381q0 20 21 20h827q20 0 20 -20v-262q0 -19 -20 -19h-535v-248h437q20 0 20 -20v-254q0 -20 -20 -20zM782 1841l105 -176q6 -6 3 -16t-11 -15l-400 -186q-21 -9 -30 6l-58 94q-9 15 6 27
l351 270q20 16 34 -4z" />
    <glyph glyph-name="Ecircumflex" unicode="&#xca;" horiz-adv-x="1097" 
d="M883 578h-437v-277h553q21 0 21 -20v-263q0 -18 -19 -18h-847q-21 0 -21 20v1381q0 20 21 20h827q20 0 20 -20v-262q0 -19 -20 -19h-535v-248h437q20 0 20 -20v-254q0 -20 -20 -20zM659 1526l-86 80l-90 -80q-17 -10 -22 -10h-228q-23 0 -6 14l224 219q17 10 28 10h185
q13 0 30 -10l226 -219q17 -14 -9 -14h-225q-10 0 -27 10z" />
    <glyph glyph-name="Edieresis" unicode="&#xcb;" horiz-adv-x="1097" 
d="M883 578h-437v-277h553q21 0 21 -20v-263q0 -18 -19 -18h-847q-21 0 -21 20v1381q0 20 21 20h827q20 0 20 -20v-262q0 -19 -20 -19h-535v-248h437q20 0 20 -20v-254q0 -20 -20 -20zM408 1497q-60 0 -96 36.5t-36 96.5t36 95.5t96 35.5q59 0 95 -36.5t36 -94.5
q0 -57 -37 -95t-94 -38zM711 1497q-60 0 -95.5 36.5t-35.5 96.5t35.5 95.5t95.5 35.5q59 0 95 -36.5t36 -94.5q0 -57 -37 -95t-94 -38z" />
    <glyph glyph-name="Igrave" unicode="&#xcc;" horiz-adv-x="579" 
d="M446 1401v-1383q0 -18 -18 -18h-274q-21 0 -21 18v1383q0 20 19 20h276q18 0 18 -20zM432 1442l-397 186q-27 12 -8 31l104 176q9 22 35 6l350 -270q16 -13 6 -29l-57 -94q-10 -16 -33 -6z" />
    <glyph glyph-name="Iacute" unicode="&#xcd;" horiz-adv-x="579" 
d="M446 1401v-1383q0 -18 -18 -18h-274q-21 0 -21 18v1383q0 20 19 20h276q18 0 18 -20zM459 1841l104 -176q6 -6 3 -16t-11 -15l-399 -186q-22 -9 -31 6l-57 94q-9 15 6 27l350 270q20 17 35 -4z" />
    <glyph glyph-name="Icircumflex" unicode="&#xce;" horiz-adv-x="579" 
d="M446 1401v-1383q0 -18 -18 -18h-274q-21 0 -21 18v1383q0 20 19 20h276q18 0 18 -20zM160 1735l37 45h190q9 0 27 -15l237 -227q18 -18 -8 -18h-240q-9 0 -24 12zM-78 1538l238 227q15 15 26 15h191l37 -45l-219 -203q-15 -12 -27 -12h-240q-24 0 -6 18z" />
    <glyph glyph-name="Idieresis" unicode="&#xcf;" horiz-adv-x="579" 
d="M446 1401v-1383q0 -18 -18 -18h-274q-21 0 -21 18v1383q0 20 19 20h276q18 0 18 -20zM-10 1634q0 63 38 101.5t101 38.5q61 0 98 -38.5t37 -101.5q0 -61 -37.5 -99t-97.5 -38q-63 0 -101 37.5t-38 99.5zM309 1634q0 63 38.5 101.5t101.5 38.5q60 0 97.5 -38.5
t37.5 -101.5q0 -61 -37.5 -99t-97.5 -38q-63 0 -101.5 37.5t-38.5 99.5z" />
    <glyph glyph-name="Eth" unicode="&#xd0;" horiz-adv-x="1398" 
d="M606 0h-452q-21 0 -21 20v615h-94q-19 0 -19 20v95q0 20 19 20h94v631q0 20 21 20h452q331 0 529 -192t198 -518q0 -329 -198 -521q-199 -190 -529 -190zM446 635v-334h160q188 0 301 113q115 115 115 297q0 184 -115 299q-112 112 -301 112h-160v-352h240q21 0 21 -20
v-95q0 -20 -21 -20h-240z" />
    <glyph glyph-name="Ntilde" unicode="&#xd1;" horiz-adv-x="1478" 
d="M1053 1421h274q19 0 19 -20v-1381q0 -20 -21 -20h-311q-12 0 -21 12l-547 885v-877q0 -20 -20 -20h-272q-21 0 -21 20v1381q0 20 21 20h311q19 0 27 -14l540 -879v873q0 20 21 20zM512 1518q-10 -26 -27 -9l-73 82q-9 13 -6 23q29 84 87 136t119 52q38 0 69 -16
t51.5 -38.5t39 -44.5t41 -37t47.5 -13q72 0 107 92q11 25 24 8l78 -84q9 -13 6 -16q-26 -86 -86 -139.5t-123 -53.5q-32 -2 -63 13.5t-54.5 39t-45.5 47.5t-44.5 40t-42.5 14q-67 -3 -104 -96z" />
    <glyph glyph-name="Ograve" unicode="&#xd2;" horiz-adv-x="1589" 
d="M1524 711q0 -330 -201 -531q-198 -198 -528 -198q-329 0 -529 200t-200 529q0 328 200 528q201 201 529 201q327 0 528 -201t201 -528zM379 711q0 -188 115 -303q113 -113 303 -113q184 0 299 115q114 114 114 301q3 186 -112 301q-114 114 -301 114q-189 0 -303 -114
q-115 -115 -115 -301zM893 1462l-399 187q-10 4 -12.5 14t3.5 16l107 176q7 23 35 7l350 -271q12 -12 6 -28l-59 -95q-9 -15 -31 -6z" />
    <glyph glyph-name="Oacute" unicode="&#xd3;" horiz-adv-x="1589" 
d="M1524 711q0 -330 -201 -531q-198 -198 -528 -198q-329 0 -529 200t-200 529q0 328 200 528q201 201 529 201q327 0 528 -201t201 -528zM379 711q0 -188 115 -303q113 -113 303 -113q184 0 299 115q114 114 114 301q3 186 -112 301q-114 114 -301 114q-189 0 -303 -114
q-115 -115 -115 -301zM985 1841l105 -176q6 -6 2.5 -16t-11.5 -15l-399 -186q-22 -9 -31 6l-57 94q-9 15 6 27l350 270q20 17 35 -4z" />
    <glyph glyph-name="Ocircumflex" unicode="&#xd4;" horiz-adv-x="1589" 
d="M1524 711q0 -330 -201 -531q-198 -198 -528 -198q-329 0 -529 200t-200 529q0 328 200 528q201 201 529 201q327 0 528 -201t201 -528zM379 711q0 -188 115 -303q113 -113 303 -113q184 0 299 115q114 114 114 301q3 186 -112 301q-114 114 -301 114q-189 0 -303 -114
q-115 -115 -115 -301zM868 1530l-88 80l-90 -80q-10 -10 -22 -10h-226q-25 0 -8 14l223 219q17 10 29 10h186q12 0 29 -10l225 -219q17 -14 -8 -14h-225q-8 0 -25 10z" />
    <glyph glyph-name="Otilde" unicode="&#xd5;" horiz-adv-x="1589" 
d="M1524 711q0 -330 -201 -531q-198 -198 -528 -198q-329 0 -529 200t-200 529q0 328 200 528q201 201 529 201q327 0 528 -201t201 -528zM379 711q0 -188 115 -303q113 -113 303 -113q184 0 299 115q114 114 114 301q3 186 -112 301q-114 114 -301 114q-189 0 -303 -114
q-115 -115 -115 -301zM571 1518q-10 -25 -26 -9l-74 82q-9 13 -6 23q29 83 88.5 135.5t118.5 52.5q38 0 69 -16t51.5 -38.5t39 -44.5t41 -37t47.5 -13q71 0 106 92q5 11 12 13t13 -5l77 -84q10 -13 7 -16q-26 -86 -86 -139.5t-123 -53.5q-32 -2 -63 13.5t-54.5 39
t-45.5 47.5t-44.5 40t-42.5 14q-68 -3 -105 -96z" />
    <glyph glyph-name="Odieresis" unicode="&#xd6;" horiz-adv-x="1589" 
d="M1524 711q0 -330 -201 -531q-198 -198 -528 -198q-329 0 -529 200t-200 529q0 328 200 528q201 201 529 201q327 0 528 -201t201 -528zM379 711q0 -188 115 -303q113 -113 303 -113q184 0 299 115q114 114 114 301q3 186 -112 301q-114 114 -301 114q-189 0 -303 -114
q-115 -115 -115 -301zM496 1634q0 63 37 101.5t100 38.5q62 0 99.5 -38.5t37.5 -101.5q0 -61 -38.5 -99t-98.5 -38q-63 0 -100 37.5t-37 99.5zM815 1634q0 63 37 101.5t100 38.5q62 0 100 -38.5t38 -101.5q0 -61 -38 -99t-100 -38q-63 0 -100 37.5t-37 99.5z" />
    <glyph glyph-name="multiply" unicode="&#xd7;" horiz-adv-x="948" 
d="M289 659l-207 207q-13 13 0 29l151 154q15 12 31 0l207 -209l211 211q14 15 29 0l159 -160q14 -15 0 -29l-211 -211l209 -207q8 -14 0 -28l-153 -154q-15 -14 -29 0l-209 207l-211 -211q-14 -14 -28 0l-160 160q-12 16 0 28z" />
    <glyph glyph-name="Oslash" unicode="&#xd8;" horiz-adv-x="1589" 
d="M1524 711q0 -330 -201 -531q-198 -198 -528 -198q-329 0 -529 200t-200 529q0 328 200 528q201 201 529 201q327 0 528 -201t201 -528zM379 711q0 -188 115 -303q113 -113 303 -113q184 0 299 115q114 114 114 301q3 186 -112 301q-114 114 -301 114q-189 0 -303 -114
q-115 -115 -115 -301zM135 47l1237 1380q14 17 31 3l61 -56q14 -14 0 -28l-1237 -1383q-14 -14 -28 0l-62 55q-15 12 -2 29z" />
    <glyph glyph-name="Ugrave" unicode="&#xd9;" horiz-adv-x="1400" 
d="M133 557v844q0 18 21 18h274q18 0 18 -18v-846q0 -117 70.5 -188.5t185.5 -71.5t183.5 71.5t66.5 188.5v846q0 18 21 18h274q21 0 21 -18v-846q0 -274 -166 -424q-165 -149 -402 -149q-233 0 -401 151q-166 150 -166 424zM762 1442l-400 186q-27 12 -8 31l107 176
q6 22 35 6l350 -270q13 -13 6 -29l-59 -94q-9 -15 -31 -6z" />
    <glyph glyph-name="Uacute" unicode="&#xda;" horiz-adv-x="1400" 
d="M133 557v844q0 18 21 18h274q18 0 18 -18v-846q0 -117 70.5 -188.5t185.5 -71.5t183.5 71.5t66.5 188.5v846q0 18 21 18h274q21 0 21 -18v-846q0 -274 -166 -424q-165 -149 -402 -149q-233 0 -401 151q-166 150 -166 424zM868 1841l105 -176q6 -6 3 -16t-11 -15
l-400 -186q-21 -9 -30 6l-58 94q-9 15 6 27l351 270q20 16 34 -4z" />
    <glyph glyph-name="Ucircumflex" unicode="&#xdb;" horiz-adv-x="1400" 
d="M133 557v844q0 18 21 18h274q18 0 18 -18v-846q0 -117 70.5 -188.5t185.5 -71.5t183.5 71.5t66.5 188.5v846q0 18 21 18h274q21 0 21 -18v-846q0 -274 -166 -424q-165 -149 -402 -149q-233 0 -401 151q-166 150 -166 424zM788 1530l-88 80l-90 -80q-10 -10 -22 -10h-226
q-25 0 -8 14l224 219q17 10 30 10h185q11 0 28 -10l226 -219q17 -14 -9 -14h-225q-8 0 -25 10z" />
    <glyph glyph-name="Udieresis" unicode="&#xdc;" horiz-adv-x="1400" 
d="M133 557v844q0 18 21 18h274q18 0 18 -18v-846q0 -117 70.5 -188.5t185.5 -71.5t183.5 71.5t66.5 188.5v846q0 18 21 18h274q21 0 21 -18v-846q0 -274 -166 -424q-165 -149 -402 -149q-233 0 -401 151q-166 150 -166 424zM403 1634q0 63 38 101.5t100 38.5t99.5 -38.5
t37.5 -101.5q0 -61 -38.5 -99t-98.5 -38q-62 0 -100 38t-38 99zM723 1634q0 63 37 101.5t100 38.5q62 0 99.5 -38.5t37.5 -101.5q0 -62 -37.5 -99.5t-99.5 -37.5q-63 0 -100 37.5t-37 99.5z" />
    <glyph glyph-name="Yacute" unicode="&#xdd;" horiz-adv-x="1298" 
d="M492 18v547l-488 830q-15 24 14 24h287q17 0 27 -16l317 -565l318 565q10 16 26 16h287q29 0 14 -24l-489 -830v-547q0 -18 -21 -18h-272q-20 0 -20 18zM817 1841l105 -176q6 -6 2.5 -16t-11.5 -15l-399 -186q-22 -9 -31 6l-57 94q-9 15 6 27l350 270q20 17 35 -4z" />
    <glyph glyph-name="Thorn" unicode="&#xde;" horiz-adv-x="1128" 
d="M115 23v1374q0 24 24 24h267q22 0 22 -22v-232q129 0 182 -2q209 0 332 -129q122 -128 125 -325q-3 -200 -125 -328q-123 -129 -332 -129h-182v-231q0 -23 -25 -23h-266q-22 0 -22 23zM573 866h-145v-311h145q80 0 129.5 37t49.5 117t-50.5 119.5t-128.5 37.5z" />
    <glyph glyph-name="germandbls" unicode="&#xdf;" horiz-adv-x="1210" 
d="M645 291q44 -33 96 -33q46 4 67 24.5t21 45.5q0 63 -137 182q-57 53 -97 125t-40 145q0 65 72 162q71 95 71 133q0 92 -90 92q-156 0 -159 -352v-792q0 -23 -27 -23h-262q-27 0 -27 25v950q0 223 126.5 345t338.5 124q183 -3 295 -103q117 -99 117 -266q0 -86 -82 -168
t-88 -131q0 -27 22.5 -53.5t56.5 -47.5t73.5 -53t73.5 -67.5t56.5 -93.5t22.5 -129q3 -173 -111 -281q-112 -106 -299 -106q-91 0 -207 55q-19 9 -10 35l98 248q10 24 29 8z" />
    <glyph glyph-name="agrave" unicode="&#xe0;" horiz-adv-x="1214" 
d="M819 893l35 84q6 20 23 20h217q18 0 18 -20v-957q0 -20 -20 -20h-218q-16 0 -22 20l-33 80q-102 -123 -268 -123q-224 -3 -363 142q-137 143 -137 377q0 232 137 372q137 143 363 146q168 0 268 -121zM350 496q0 -97 60.5 -158.5t156.5 -61.5q100 0 160.5 60t60.5 160
q0 98 -61.5 158.5t-159.5 60.5t-157.5 -60.5t-59.5 -158.5zM643 1040l-367 242q-22 15 -6 31l131 160q15 20 35 0l309 -318q12 -12 3 -25l-72 -88q-14 -14 -33 -2z" />
    <glyph glyph-name="aacute" unicode="&#xe1;" horiz-adv-x="1214" 
d="M819 893l35 84q6 20 23 20h217q18 0 18 -20v-957q0 -20 -20 -20h-218q-16 0 -22 20l-33 80q-102 -123 -268 -123q-224 -3 -363 142q-137 143 -137 377q0 232 137 372q137 143 363 146q168 0 268 -121zM350 496q0 -97 60.5 -158.5t156.5 -61.5q100 0 160.5 60t60.5 160
q0 98 -61.5 158.5t-159.5 60.5t-157.5 -60.5t-59.5 -158.5zM778 1481l129 -160q5 -6 4 -16.5t-8 -16.5l-371 -239q-16 -12 -30 2l-70 86q-10 10 2 26l309 318q16 16 35 0z" />
    <glyph glyph-name="acircumflex" unicode="&#xe2;" horiz-adv-x="1214" 
d="M819 893l35 84q6 20 23 20h217q18 0 18 -20v-957q0 -20 -20 -20h-218q-16 0 -22 20l-33 80q-102 -123 -268 -123q-224 -3 -363 142q-137 143 -137 377q0 232 137 372q137 143 363 146q168 0 268 -121zM350 496q0 -97 60.5 -158.5t156.5 -61.5q100 0 160.5 60t60.5 160
q0 98 -61.5 158.5t-159.5 60.5t-157.5 -60.5t-59.5 -158.5zM279 1122l186 273q7 11 24 14h201q19 0 27 -14l186 -273q11 -14 -8 -14h-209q-12 0 -22 10l-72 125l-74 -125q-10 -10 -24 -10h-207q-19 0 -8 14z" />
    <glyph glyph-name="atilde" unicode="&#xe3;" horiz-adv-x="1214" 
d="M819 893l35 84q6 20 23 20h217q18 0 18 -20v-957q0 -20 -20 -20h-218q-16 0 -22 20l-33 80q-102 -123 -268 -123q-224 -3 -363 142q-137 143 -137 377q0 232 137 372q137 143 363 146q168 0 268 -121zM350 496q0 -97 60.5 -158.5t156.5 -61.5q100 0 160.5 60t60.5 160
q0 98 -61.5 158.5t-159.5 60.5t-157.5 -60.5t-59.5 -158.5zM375 1120q-9 -24 -25 -8l-69 78q-12 9 -9 18q26 80 83 130.5t116 50.5q35 0 64 -15t49 -36t37.5 -42t39 -36t44.5 -15q68 3 102 90q9 21 22 8l74 -79q6 -6 6 -19q-26 -80 -82.5 -130t-115.5 -50q-35 0 -64.5 14.5
t-49.5 35.5t-38.5 42.5t-39.5 36t-44 14.5q-66 -3 -100 -88z" />
    <glyph glyph-name="adieresis" unicode="&#xe4;" horiz-adv-x="1214" 
d="M819 893l35 84q6 20 23 20h217q18 0 18 -20v-957q0 -20 -20 -20h-218q-16 0 -22 20l-33 80q-102 -123 -268 -123q-224 -3 -363 142q-137 143 -137 377q0 232 137 372q137 143 363 146q168 0 268 -121zM350 496q0 -97 60.5 -158.5t156.5 -61.5q100 0 160.5 60t60.5 160
q0 98 -61.5 158.5t-159.5 60.5t-157.5 -60.5t-59.5 -158.5zM293 1251q0 63 38 100.5t101 37.5q61 0 98 -38t37 -100t-37 -100.5t-98 -38.5q-63 0 -101 38.5t-38 100.5zM612 1251q0 63 38.5 100.5t101.5 37.5q60 0 98.5 -38.5t38.5 -99.5t-38.5 -100t-98.5 -39
q-63 0 -101.5 38.5t-38.5 100.5z" />
    <glyph glyph-name="aring" unicode="&#xe5;" horiz-adv-x="1214" 
d="M819 893l35 84q6 20 23 20h217q18 0 18 -20v-957q0 -20 -20 -20h-218q-16 0 -22 20l-33 80q-102 -123 -268 -123q-224 -3 -363 142q-137 143 -137 377q0 232 137 372q137 143 363 146q168 0 268 -121zM350 496q0 -97 60.5 -158.5t156.5 -61.5q100 0 160.5 60t60.5 160
q0 98 -61.5 158.5t-159.5 60.5t-157.5 -60.5t-59.5 -158.5zM391 1278q0 88 54.5 142.5t144.5 54.5t145.5 -54.5t55.5 -142.5q0 -91 -55 -146t-146 -55t-145 55t-54 146zM649 1276q0 61 -59 61q-40 0 -55.5 -38t12.5 -66t65 -11.5t37 54.5z" />
    <glyph glyph-name="ae" unicode="&#xe6;" horiz-adv-x="1892" 
d="M1538 311q20 17 35 2l158 -166q16 -16 2 -30q-128 -137 -402 -140q-118 0 -219 39v-2q-3 -14 -20 -14h-218q-16 0 -22 20l-33 80q-102 -123 -268 -123q-224 -3 -363 142q-137 143 -137 377q0 232 137 372q137 143 363 146q168 0 268 -121l35 84q6 20 23 20h217
q18 0 18 -20v-2q98 39 213 39q269 0 391 -168q125 -168 125 -443q0 -22 -22 -22h-684q55 -125 215 -125q112 0 188 55zM567 276q100 0 160.5 60t60.5 160q0 98 -61.5 158.5t-159.5 60.5t-157.5 -60.5t-59.5 -158.5q0 -97 60.5 -158.5t156.5 -61.5zM1126 592h398
q-40 143 -199 143t-199 -143z" />
    <glyph glyph-name="ccedilla" unicode="&#xe7;" horiz-adv-x="1052" 
d="M987 182q-135 -205 -420 -205q-230 0 -374 144q-142 145 -142 375q0 237 148 376q150 138 354 144q298 6 457 -228q9 -22 -2 -30l-195 -160q-19 -13 -35 6q-79 113 -211 113q-98 0 -157.5 -60.5t-59.5 -160.5t59.5 -161t157.5 -61q57 0 103 21q40 18 61 35l41 43
q18 21 37 6l176 -168q14 -14 2 -29zM434 0h219l-30 -72q166 -22 163 -161q-1 -91 -69.5 -141t-177.5 -50q-61 -1 -132 21.5t-116 54.5q-16 9 -4 24l45 76q3 10 24 4q89 -28 152 -28q35 0 56.5 14t21.5 37q0 49 -97 49h-110q-19 0 -10 18z" />
    <glyph glyph-name="egrave" unicode="&#xe8;" horiz-adv-x="1132" 
d="M367 592h397q-40 143 -197 143q-160 0 -200 -143zM1059 381h-684q55 -125 217 -125q116 0 186 55q22 15 35 2l158 -168q14 -14 2 -30q-129 -135 -402 -138q-231 0 -376 142q-144 144 -144 377q0 229 142 374q144 144 374 144q245 0 379.5 -152.5t134.5 -458.5
q0 -22 -22 -22zM623 1038l-367 242q-22 15 -6 31l129 159q15 22 37 0l309 -317q10 -17 2 -25l-72 -88q-14 -14 -32 -2z" />
    <glyph glyph-name="eacute" unicode="&#xe9;" horiz-adv-x="1132" 
d="M367 592h397q-40 143 -197 143q-160 0 -200 -143zM1059 381h-684q55 -125 217 -125q116 0 186 55q22 15 35 2l158 -168q14 -14 2 -30q-129 -135 -402 -138q-231 0 -376 142q-144 144 -144 377q0 229 142 374q144 144 374 144q245 0 379.5 -152.5t134.5 -458.5
q0 -22 -22 -22zM696 1479l127 -160q17 -17 -2 -33l-370 -239q-16 -13 -31 2l-70 86q-10 10 2 26l310 318q15 15 34 0z" />
    <glyph glyph-name="ecircumflex" unicode="&#xea;" horiz-adv-x="1132" 
d="M367 592h397q-40 143 -197 143q-160 0 -200 -143zM1059 381h-684q55 -125 217 -125q116 0 186 55q22 15 35 2l158 -168q14 -14 2 -30q-129 -135 -402 -138q-231 0 -376 142q-144 144 -144 377q0 229 142 374q144 144 374 144q245 0 379.5 -152.5t134.5 -458.5
q0 -22 -22 -22zM238 1102l186 272q8 12 25 15h200q18 0 27 -15l186 -272q15 -15 -8 -15h-209q-11 0 -22 11l-72 125l-74 -125q-11 -11 -24 -11h-207q-23 0 -8 15z" />
    <glyph glyph-name="edieresis" unicode="&#xeb;" horiz-adv-x="1132" 
d="M367 592h397q-40 143 -197 143q-160 0 -200 -143zM1059 381h-684q55 -125 217 -125q116 0 186 55q22 15 35 2l158 -168q14 -14 2 -30q-129 -135 -402 -138q-231 0 -376 142q-144 144 -144 377q0 229 142 374q144 144 374 144q245 0 379.5 -152.5t134.5 -458.5
q0 -22 -22 -22zM403 1112q-60 0 -95.5 36.5t-35.5 96.5t35.5 95.5t95.5 35.5q59 0 95.5 -36.5t36.5 -94.5q0 -57 -37.5 -95t-94.5 -38zM838 1245q0 -59 -37 -96t-94 -37q-58 0 -95 37t-37 96q0 60 36 95.5t96 35.5q59 0 95 -36.5t36 -94.5z" />
    <glyph glyph-name="igrave" unicode="&#xec;" horiz-adv-x="505" 
d="M403 979v-961q0 -18 -20 -18h-260q-21 0 -21 18v961q0 8 0.5 10.5t5 5t15.5 2.5h260q20 0 20 -18zM369 1059l-367 241q-8 5 -10 15t4 16l131 160q15 15 35 0l309 -317q12 -15 2 -25l-72 -88q-14 -14 -32 -2z" />
    <glyph glyph-name="iacute" unicode="&#xed;" horiz-adv-x="503" 
d="M401 979v-961q0 -18 -18 -18h-260q-21 0 -21 18v961q0 8 0.5 10.5t5 5t15.5 2.5h260q18 0 18 -18zM354 1477l129 -160q12 -15 -4 -31l-370 -242q-16 -12 -31 3l-70 88q-12 12 2 24l309 318q16 19 35 0z" />
    <glyph glyph-name="icircumflex" unicode="&#xee;" horiz-adv-x="505" 
d="M403 979v-961q0 -18 -20 -18h-260q-21 0 -21 18v961q0 8 0.5 10.5t5 5t15.5 2.5h260q20 0 20 -18zM-68 1114l197 287q7 11 27 14h211q18 0 26 -14l197 -287q13 -16 -8 -16h-220q-15 0 -24 12l-76 131l-78 -131q-9 -12 -24 -12h-219q-22 0 -9 16z" />
    <glyph glyph-name="idieresis" unicode="&#xef;" horiz-adv-x="505" 
d="M403 979v-961q0 -18 -20 -18h-260q-21 0 -21 18v961q0 8 0.5 10.5t5 5t15.5 2.5h260q20 0 20 -18zM-51 1227q0 63 37 101t100 38q61 0 99 -38.5t38 -100.5q0 -60 -38 -98.5t-99 -38.5q-62 0 -99.5 38t-37.5 99zM266 1227q0 63 38.5 101t101.5 38q61 0 99 -38.5t38 -100.5
q0 -60 -38 -98.5t-99 -38.5t-100.5 38.5t-39.5 98.5z" />
    <glyph glyph-name="eth" unicode="&#xf0;" horiz-adv-x="1103" 
d="M551 -20q-200 0 -338 126q-137 125 -137 320q0 197 117 317q118 121 305 121q59 0 118 -20q-61 98 -174 192l-182 -94q-9 -9 -22 4l-58 58q-15 15 4 24l158 80q-49 35 -156 90q-21 9 -10 27l121 213q10 16 29 10q181 -60 323 -182l172 88q17 10 27 -4l55 -58
q15 -15 -4 -24l-164 -82q141 -144 217.5 -330t75.5 -385q0 -234 -137 -362q-135 -129 -340 -129zM731 434q0 75 -47.5 117.5t-132.5 42.5q-78 0 -126 -44.5t-48 -117.5q0 -72 48 -115t126 -43q72 0 126 48.5t54 111.5z" />
    <glyph glyph-name="ntilde" unicode="&#xf1;" horiz-adv-x="1124" 
d="M90 20v955q0 22 21 22h213q20 0 26 -20l21 -78q102 123 284 123q165 0 267 -123q104 -122 104 -324v-552q0 -23 -20 -23h-261q-20 0 -20 23v483q0 97 -46.5 156t-119.5 57q-71 -2 -116.5 -60t-51.5 -174v-465q0 -18 -20 -18h-258q-23 0 -23 18zM342 1161q-9 -24 -25 -8
l-69 78q-11 8 -8 18q26 80 83 130.5t115 50.5q35 0 64 -15t49 -36t37.5 -42t39 -36t44.5 -15q68 3 102 90q9 22 23 8l73 -79q7 -7 7 -19q-26 -80 -83 -130t-116 -50q-35 0 -64.5 14.5t-49.5 36t-38.5 42.5t-39.5 35.5t-44 14.5q-66 -3 -100 -88z" />
    <glyph glyph-name="ograve" unicode="&#xf2;" horiz-adv-x="1140" 
d="M51 502q0 231 144 375q145 145 374 145q232 0 377 -145q144 -144 144 -375q0 -235 -144 -379q-143 -143 -377 -143q-231 0 -374 143q-144 144 -144 379zM569 279q99 2 159 63t60 160q0 100 -60.5 160t-158.5 59q-98 0 -157.5 -59.5t-59.5 -159.5t59.5 -161.5t157.5 -61.5
zM623 1038l-367 242q-22 15 -6 31l129 159q15 22 37 0l309 -317q10 -17 2 -25l-72 -88q-14 -14 -32 -2z" />
    <glyph glyph-name="oacute" unicode="&#xf3;" horiz-adv-x="1140" 
d="M51 502q0 231 144 375q145 145 374 145q232 0 377 -145q144 -144 144 -375q0 -235 -144 -379q-143 -143 -377 -143q-231 0 -374 143q-144 144 -144 379zM352 500q2 -99 61.5 -159.5t155.5 -59.5q98 0 159 60.5t63 158.5q0 100 -61 160.5t-161 60.5q-98 0 -157.5 -60.5
t-59.5 -160.5zM696 1479l129 -160q18 -18 -4 -33l-368 -239q-18 -15 -31 2l-72 86q-8 8 2 26l310 318q19 15 34 0z" />
    <glyph glyph-name="ocircumflex" unicode="&#xf4;" horiz-adv-x="1140" 
d="M51 502q0 231 144 375q145 145 374 145q232 0 377 -145q144 -144 144 -375q0 -235 -144 -379q-143 -143 -377 -143q-231 0 -374 143q-144 144 -144 379zM569 279q99 2 159 63t60 160q0 100 -60.5 160t-158.5 59q-98 0 -157.5 -59.5t-59.5 -159.5t59.5 -161.5t157.5 -61.5
zM258 1135l186 272q7 11 25 14h201q18 0 26 -14l187 -272q15 -15 -9 -15h-208q-13 0 -23 10l-72 125l-73 -125q-10 -10 -25 -10h-207q-23 0 -8 15z" />
    <glyph glyph-name="otilde" unicode="&#xf5;" horiz-adv-x="1140" 
d="M51 502q0 231 144 375q145 145 374 145q232 0 377 -145q144 -144 144 -375q0 -235 -144 -379q-143 -143 -377 -143q-231 0 -374 143q-144 144 -144 379zM569 279q99 2 159 63t60 160q0 100 -60.5 160t-158.5 59q-98 0 -157.5 -59.5t-59.5 -159.5t59.5 -161.5t157.5 -61.5
zM354 1133q-9 -24 -24 -9l-70 78q-11 8 -8 21q26 78 83.5 128t115.5 50q35 0 64 -14.5t48.5 -35.5t37 -41.5t39 -35t44.5 -14.5q68 3 102 88q9 23 21 8l76 -80q7 -10 4 -16q-24 -80 -81.5 -131.5t-115.5 -51.5q-31 -2 -61 13t-52 37.5t-42.5 45t-41 37.5t-38.5 13
q-67 -3 -101 -90z" />
    <glyph glyph-name="odieresis" unicode="&#xf6;" horiz-adv-x="1140" 
d="M51 502q0 231 144 375q145 145 374 145q232 0 377 -145q144 -144 144 -375q0 -235 -144 -379q-143 -143 -377 -143q-231 0 -374 143q-144 144 -144 379zM569 279q99 2 159 63t60 160q0 100 -60.5 160t-158.5 59q-98 0 -157.5 -59.5t-59.5 -159.5t59.5 -161.5t157.5 -61.5
zM270 1249q0 63 37.5 100t100.5 37t98 -38q38 -37 38 -99t-38 -100q-36 -39 -98 -39q-61 0 -99.5 38.5t-38.5 100.5zM588 1249q0 63 38 100t101 37q61 0 99 -38t38 -99q0 -62 -38 -100.5t-99 -38.5q-63 0 -101 38.5t-38 100.5z" />
    <glyph glyph-name="divide" unicode="&#xf7;" horiz-adv-x="1103" 
d="M391 924q0 74 44.5 118.5t117.5 44.5q72 0 116 -45t44 -118q0 -71 -45 -115.5t-115 -44.5q-73 0 -117.5 44t-44.5 116zM391 262q0 74 44.5 119t117.5 45q72 0 116 -45t44 -119q0 -69 -45.5 -114.5t-114.5 -45.5q-73 0 -117.5 44t-44.5 116zM74 494v196q0 21 20 21h916
q20 0 20 -21v-196q0 -21 -20 -21h-916q-20 0 -20 21z" />
    <glyph glyph-name="oslash" unicode="&#xf8;" horiz-adv-x="1140" 
d="M887 928l53 61q13 17 31 2l61 -55q13 -13 0 -29l-55 -63q113 -137 113 -342q0 -235 -144 -379q-143 -143 -377 -143q-172 0 -297 79l-94 -104q-14 -14 -28 0l-62 55q-15 12 -2 29l92 102q-127 139 -127 361q0 231 144 375q145 145 374 145q187 0 318 -94zM766 610
l-283 -315q43 -16 86 -16q99 2 159 63t60 160q0 53 -22 108zM387 373l291 325q-54 23 -109 23q-98 0 -157.5 -59.5t-59.5 -159.5q0 -76 35 -129z" />
    <glyph glyph-name="ugrave" unicode="&#xf9;" horiz-adv-x="1155" 
d="M793 20l-21 76q-127 -121 -317 -121q-161 0 -260 123t-99 324v553q0 20 21 20h258q22 0 22 -20v-483q0 -236 176 -236q75 2 124 63.5t55 188.5v467q0 22 22 22h256q21 0 21 -20l2 -957q0 -20 -23 -20h-211q-20 0 -26 20zM610 1038l-368 242q-22 9 -6 31l131 159
q15 15 34 0l310 -317q15 -15 2 -25l-70 -88q-17 -14 -33 -2z" />
    <glyph glyph-name="uacute" unicode="&#xfa;" horiz-adv-x="1155" 
d="M793 20l-21 76q-127 -121 -317 -121q-161 0 -260 123t-99 324v553q0 20 21 20h258q22 0 22 -20v-483q0 -236 176 -236q75 2 124 63.5t55 188.5v467q0 22 22 22h256q21 0 21 -20l2 -957q0 -20 -23 -20h-211q-20 0 -26 20zM768 1483l129 -160q16 -16 -4 -31l-371 -241
q-14 -14 -30 2l-70 88q-13 9 2 24l309 318q16 16 35 0z" />
    <glyph glyph-name="ucircumflex" unicode="&#xfb;" horiz-adv-x="1155" 
d="M793 20l-21 76q-127 -121 -317 -121q-161 0 -260 123t-99 324v553q0 20 21 20h258q22 0 22 -20v-483q0 -236 176 -236q75 2 124 63.5t55 188.5v467q0 22 22 22h256q21 0 21 -20l2 -957q0 -20 -23 -20h-211q-20 0 -26 20zM248 1114l196 287q7 11 27 14h211q19 0 27 -14
l196 -287q13 -16 -8 -16h-219q-16 0 -25 12l-75 131l-78 -131q-9 -12 -25 -12h-219q-21 0 -8 16z" />
    <glyph glyph-name="udieresis" unicode="&#xfc;" horiz-adv-x="1155" 
d="M793 20l-21 76q-127 -121 -317 -121q-161 0 -260 123t-99 324v553q0 20 21 20h258q22 0 22 -20v-483q0 -236 176 -236q75 2 124 63.5t55 188.5v467q0 22 22 22h256q21 0 21 -20l2 -957q0 -20 -23 -20h-211q-20 0 -26 20zM281 1227q0 63 37 101t100 38q61 0 99 -38.5
t38 -100.5q0 -60 -38 -98.5t-99 -38.5q-62 0 -99.5 38t-37.5 99zM600 1227q0 63 37 101t100 38q61 0 99 -38.5t38 -100.5q0 -60 -38 -98.5t-99 -38.5t-99 38t-38 99z" />
    <glyph glyph-name="yacute" unicode="&#xfd;" horiz-adv-x="1058" 
d="M774 997h264q28 0 19 -26l-547 -1420q-9 -18 -27 -18h-266q-12 0 -17.5 8t-0.5 19l174 448l-371 963q-10 23 14 26h275q18 0 24 -18l201 -600l232 600q9 18 26 18zM700 1458l127 -160q6 -6 5.5 -16t-7.5 -14l-370 -242q-16 -13 -31 2l-70 86q-11 11 2 27l310 317
q15 15 34 0z" />
    <glyph glyph-name="thorn" unicode="&#xfe;" horiz-adv-x="1183" 
d="M117 1479h250q18 0 18 -21v-526q94 88 236 88q224 0 364 -146q139 -145 139 -376q0 -232 -139 -377q-138 -144 -364 -144q-141 0 -236 89v-512q0 -21 -18 -21h-248q-21 0 -21 21v1904q0 21 19 21zM823 498q0 98 -60 159.5t-157 61.5q-100 0 -160.5 -59t-60.5 -158
q0 -103 60.5 -164.5t160.5 -61.5q98 0 157.5 61t59.5 161z" />
    <glyph glyph-name="ydieresis" unicode="&#xff;" horiz-adv-x="1058" 
d="M774 997h264q28 0 19 -26l-547 -1420q-9 -18 -27 -18h-266q-12 0 -17.5 8t-0.5 19l174 448l-371 963q-10 23 14 26h275q18 0 24 -18l201 -600l232 600q9 18 26 18zM145 1208q0 63 37.5 100.5t100.5 37.5q62 0 98 -39q38 -37 38 -99t-38 -100q-36 -39 -98 -39
q-61 0 -99.5 38.5t-38.5 100.5zM465 1208q0 63 37 100.5t100 37.5q62 0 98 -39q38 -37 38 -99t-38 -100q-36 -39 -98 -39q-61 0 -99 38.5t-38 100.5z" />
    <glyph glyph-name="Amacron" unicode="&#x100;" horiz-adv-x="1384" 
d="M1071 14l-115 308h-526l-117 -308q-6 -14 -22 -14h-273q-26 0 -16 23l522 1378q6 18 27 18h285q20 0 26 -18l520 -1378q10 -23 -14 -23h-276q-18 0 -21 14zM856 588l-164 434l-164 -434h328zM424 1714h543q18 0 18 -20v-156q0 -18 -18 -18h-543q-23 0 -23 18v156
q0 20 23 20z" />
    <glyph glyph-name="amacron" unicode="&#x101;" horiz-adv-x="1214" 
d="M819 893l35 84q6 20 23 20h217q18 0 18 -20v-957q0 -20 -20 -20h-218q-16 0 -22 20l-33 80q-102 -123 -268 -123q-224 -3 -363 142q-137 143 -137 377q0 232 137 372q137 143 363 146q168 0 268 -121zM350 496q0 -97 60.5 -158.5t156.5 -61.5q100 0 160.5 60t60.5 160
q0 98 -61.5 158.5t-159.5 60.5t-157.5 -60.5t-59.5 -158.5zM326 1380h530q12 -1 20.5 -8.5t6.5 -15.5v-154q1 -12 -7 -20t-20 -8h-530q-27 0 -27 26v156q0 21 27 24z" />
    <glyph glyph-name="Abreve" unicode="&#x102;" horiz-adv-x="1384" 
d="M1071 14l-115 308h-526l-117 -308q-6 -14 -22 -14h-273q-26 0 -16 23l522 1378q6 18 27 18h285q20 0 26 -18l520 -1378q10 -23 -14 -23h-276q-18 0 -21 14zM856 588l-164 434l-164 -434h328zM827 1757l146 2q19 0 16 -18q-4 -129 -83 -198.5t-214 -69.5t-213 69.5
t-84 198.5q0 18 21 18h143q21 0 21 -18q5 -38 37 -66t75 -28q46 0 79 27.5t38 66.5q0 16 18 16z" />
    <glyph glyph-name="abreve" unicode="&#x103;" horiz-adv-x="1214" 
d="M819 893l35 84q6 20 23 20h217q18 0 18 -20v-957q0 -20 -20 -20h-218q-16 0 -22 20l-33 80q-102 -123 -268 -123q-224 -3 -363 142q-137 143 -137 377q0 232 137 372q137 143 363 146q168 0 268 -121zM350 496q0 -97 60.5 -158.5t156.5 -61.5q100 0 160.5 60t60.5 160
q0 98 -61.5 158.5t-159.5 60.5t-157.5 -60.5t-59.5 -158.5zM715 1403h145q19 0 19 -21q-5 -134 -86 -214.5t-211 -80.5q-129 0 -210 80.5t-87 214.5q0 21 20 21h144q17 0 20 -21q5 -50 35.5 -80t77.5 -30q45 0 77.5 30.5t38.5 79.5q3 21 17 21z" />
    <glyph glyph-name="Aogonek" unicode="&#x104;" horiz-adv-x="1431" 
d="M1071 14l-115 308h-526l-117 -308q-6 -14 -22 -14h-273q-26 0 -16 23l522 1378q6 18 27 18h285q20 0 26 -18l520 -1378q10 -23 -14 -23h-276q-18 0 -21 14zM856 588l-164 434l-164 -434h328zM1425 -360q-26 -35 -82.5 -57.5t-113.5 -22.5q-111 0 -170.5 54.5t-61.5 152.5
q0 95 93 194q96 90 186 154l90 -115l-135 -143q-59 -62 -12 -103q17 -19 45.5 -17t46.5 25q6 11 14 0l102 -104q7 -7 -2 -18z" />
    <glyph glyph-name="aogonek" unicode="&#x105;" horiz-adv-x="1214" 
d="M819 893l35 84q6 20 23 20h217q18 0 18 -20v-957q0 -20 -20 -20h-218q-16 0 -22 20l-33 80q-102 -123 -268 -123q-224 -3 -363 142q-137 143 -137 377q0 232 137 372q137 143 363 146q168 0 268 -121zM350 496q0 -97 60.5 -158.5t156.5 -61.5q100 0 160.5 60t60.5 160
q0 98 -61.5 158.5t-159.5 60.5t-157.5 -60.5t-59.5 -158.5zM1165 -352q-26 -35 -82.5 -57.5t-113.5 -22.5q-111 0 -170.5 54.5t-61.5 152.5q0 96 92 194q93 87 187 154l90 -115l-135 -143q-59 -63 -13 -103q17 -19 46 -17t47 26q6 8 14 0l102 -105q6 -10 -2 -18z" />
    <glyph glyph-name="Cacute" unicode="&#x106;" horiz-adv-x="1359" 
d="M1300 168q-197 -188 -509 -188q-327 0 -527 200q-198 201 -198 529q0 174 60 316t165 232q217 183 500 183q301 3 507 -191q12 -12 0 -26l-151 -215q-10 -19 -29 0q-140 122 -327 122q-186 0 -299 -116q-113 -113 -113 -305q0 -190 113 -303q115 -115 299 -115
q183 0 327 123q19 15 29 -2l153 -215q16 -19 0 -29zM915 1841l105 -176q6 -6 3 -16t-11 -15l-400 -186q-21 -9 -30 6l-58 94q-9 15 6 27l351 270q20 16 34 -4z" />
    <glyph glyph-name="cacute" unicode="&#x107;" horiz-adv-x="1052" 
d="M987 182q-135 -205 -420 -205q-230 0 -374 144q-142 145 -142 375q0 237 148 376q150 138 354 144q298 6 457 -228q9 -22 -2 -30l-195 -160q-19 -13 -35 6q-79 113 -211 113q-98 0 -157.5 -60.5t-59.5 -160.5t59.5 -161t157.5 -61q57 0 103 21q40 18 61 35l41 43
q18 21 37 6l176 -168q14 -14 2 -29zM705 1481l129 -158q5 -6 3.5 -16.5t-8.5 -16.5l-370 -239q-12 -12 -31 0l-70 88q-10 10 2 26l310 316q19 19 35 0z" />
    <glyph glyph-name="Ccircumflex" unicode="&#x108;" horiz-adv-x="1359" 
d="M1300 168q-197 -188 -509 -188q-327 0 -527 200q-198 201 -198 529q0 174 60 316t165 232q217 183 500 183q301 3 507 -191q12 -12 0 -26l-151 -215q-10 -19 -29 0q-140 122 -327 122q-186 0 -299 -116q-113 -113 -113 -305q0 -190 113 -303q115 -115 299 -115
q183 0 327 123q19 15 29 -2l153 -215q16 -19 0 -29zM836 1513l-86 80l-91 -80q-17 -10 -22 -10h-227q-25 0 -7 15l224 219q17 10 28 10h185q13 0 30 -10l226 -219q18 -15 -9 -15h-225q-9 0 -26 10z" />
    <glyph glyph-name="ccircumflex" unicode="&#x109;" horiz-adv-x="1052" 
d="M987 182q-135 -205 -420 -205q-230 0 -374 144q-142 145 -142 375q0 237 148 376q150 138 354 144q298 6 457 -228q9 -22 -2 -30l-195 -160q-19 -13 -35 6q-79 113 -211 113q-98 0 -157.5 -60.5t-59.5 -160.5t59.5 -161t157.5 -61q57 0 103 21q40 18 61 35l41 43
q18 21 37 6l176 -168q14 -14 2 -29zM242 1104l186 272q8 12 27 15h200q16 0 25 -15l186 -272q11 -14 -8 -14h-207q-14 0 -24 10l-72 125l-74 -125q-10 -10 -22 -10h-209q-19 0 -8 14z" />
    <glyph glyph-name="Cdotaccent" unicode="&#x10a;" horiz-adv-x="1359" 
d="M1300 168q-197 -188 -509 -188q-327 0 -527 200q-198 201 -198 529q0 174 60 316t165 232q217 183 500 183q301 3 507 -191q12 -12 0 -26l-151 -215q-10 -19 -29 0q-140 122 -327 122q-186 0 -299 -116q-113 -113 -113 -305q0 -190 113 -303q115 -115 299 -115
q183 0 327 123q19 15 29 -2l153 -215q16 -19 0 -29zM745 1749q57 0 91 -33.5t34 -89.5t-34 -89.5t-91 -33.5q-55 0 -88.5 33.5t-33.5 89.5t33.5 89.5t88.5 33.5z" />
    <glyph glyph-name="cdotaccent" unicode="&#x10b;" horiz-adv-x="1052" 
d="M987 182q-135 -205 -420 -205q-230 0 -374 144q-142 145 -142 375q0 237 148 376q150 138 354 144q298 6 457 -228q9 -22 -2 -30l-195 -160q-19 -13 -35 6q-79 113 -211 113q-98 0 -157.5 -60.5t-59.5 -160.5t59.5 -161t157.5 -61q57 0 103 21q40 18 61 35l41 43
q18 21 37 6l176 -168q14 -14 2 -29zM551 1128q-57 0 -93 36t-36 96t34.5 94.5t94.5 34.5t95.5 -34.5t35.5 -94.5t-35.5 -96t-95.5 -36z" />
    <glyph glyph-name="Ccaron" unicode="&#x10c;" horiz-adv-x="1359" 
d="M1300 168q-197 -188 -509 -188q-327 0 -527 200q-198 201 -198 529q0 174 60 316t165 232q217 183 500 183q301 3 507 -191q12 -12 0 -26l-151 -215q-10 -19 -29 0q-140 122 -327 122q-186 0 -299 -116q-113 -113 -113 -305q0 -190 113 -303q115 -115 299 -115
q183 0 327 123q19 15 29 -2l153 -215q16 -19 0 -29zM647 1749l94 -86l93 86q10 10 26 10h238q24 0 8 -16l-238 -227q-12 -15 -30 -15h-195q-16 0 -31 15l-235 227q-16 16 8 16h238q7 0 24 -10z" />
    <glyph glyph-name="ccaron" unicode="&#x10d;" horiz-adv-x="1052" 
d="M987 182q-135 -205 -420 -205q-230 0 -374 144q-142 145 -142 375q0 237 148 376q150 138 354 144q298 6 457 -228q9 -22 -2 -30l-195 -160q-19 -13 -35 6q-79 113 -211 113q-98 0 -157.5 -60.5t-59.5 -160.5t59.5 -161t157.5 -61q57 0 103 21q40 18 61 35l41 43
q18 21 37 6l176 -168q14 -14 2 -29zM242 1419h209q12 0 22 -10l74 -125l71 125q10 10 25 10h207q22 0 8 -14l-186 -272q-10 -13 -25 -13h-201q-16 0 -26 13l-187 272q-14 14 9 14z" />
    <glyph glyph-name="Dcaron" unicode="&#x10e;" horiz-adv-x="1398" 
d="M606 1122h-160v-821h160q188 0 301 113q115 115 115 297q0 184 -115 299q-112 112 -301 112zM606 0h-452q-21 0 -21 20v1381q0 20 21 20h452q331 0 529 -192t198 -518q0 -329 -198 -521q-199 -190 -529 -190zM592 1749l94 -86l92 86q10 10 27 10h237q25 0 9 -16
l-238 -227q-12 -15 -31 -15h-194q-16 0 -31 15l-235 227q-16 16 8 16h237q8 0 25 -10z" />
    <glyph glyph-name="dcaron" unicode="&#x10f;" horiz-adv-x="1568" 
d="M553 -23q-225 0 -363 144q-137 143 -137 375q0 231 137 374q138 144 363 144q142 0 238 -90v536q0 21 20 21h258q23 0 23 -21v-1440q0 -20 -23 -20h-188q-19 0 -25 20l-33 84q-100 -127 -270 -127zM788 496q1 100 -59 160.5t-160 60.5q-98 0 -157.5 -61t-59.5 -160
q0 -97 60.5 -158.5t156.5 -61.5q99 0 159 59t60 161zM1245 989l-100 76q-10 13 4 27q119 91 154 213q-7 0 -9 2q-51 13 -79.5 53.5t-28.5 97.5q0 73 44 117.5t116 44.5q69 0 113 -43.5t46 -112.5q9 -141 -65 -286q-70 -142 -168 -197q-13 -6 -27 8z" />
    <glyph glyph-name="Dcroat" unicode="&#x110;" horiz-adv-x="1398" 
d="M606 0h-452q-21 0 -21 20v615h-94q-19 0 -19 20v95q0 20 19 20h94v631q0 20 21 20h452q331 0 529 -192t198 -518q0 -329 -198 -521q-199 -190 -529 -190zM446 635v-334h160q188 0 301 113q115 115 115 297q0 184 -115 299q-112 112 -301 112h-160v-352h240q21 0 21 -20
v-95q0 -20 -21 -20h-240z" />
    <glyph glyph-name="dslash" unicode="&#x111;" horiz-adv-x="1198" 
d="M612 1239h179v221q0 21 20 21h258q23 0 23 -21v-221h65q21 0 21 -20v-97q0 -18 -21 -18h-65v-1084q0 -20 -23 -20h-188q-19 0 -25 20l-33 84q-100 -127 -270 -127q-225 0 -363 144q-137 143 -137 375q0 231 137 374q138 144 363 144q142 0 238 -90v180h-179q-20 0 -20 18
v97q0 20 20 20zM569 276q99 0 159 59t60 161q1 100 -59 160.5t-160 60.5q-98 0 -157.5 -61t-59.5 -160q0 -97 60.5 -158.5t156.5 -61.5z" />
    <glyph glyph-name="Emacron" unicode="&#x112;" horiz-adv-x="1097" 
d="M883 578h-437v-277h553q21 0 21 -20v-263q0 -18 -19 -18h-847q-21 0 -21 20v1381q0 20 21 20h827q20 0 20 -20v-262q0 -19 -20 -19h-535v-248h437q20 0 20 -20v-254q0 -20 -20 -20zM285 1724h544q19 0 19 -20v-156q0 -18 -19 -18h-544q-21 0 -21 18v156q0 20 21 20z" />
    <glyph glyph-name="emacron" unicode="&#x113;" horiz-adv-x="1132" 
d="M367 592h397q-40 143 -197 143q-160 0 -200 -143zM1059 381h-684q55 -125 217 -125q116 0 186 55q22 15 35 2l158 -168q14 -14 2 -30q-129 -135 -402 -138q-231 0 -376 142q-144 144 -144 377q0 229 142 374q144 144 374 144q245 0 379.5 -152.5t134.5 -458.5
q0 -22 -22 -22zM287 1380h530q13 -2 20.5 -8t6.5 -16v-154q3 -26 -27 -26h-530q-27 0 -27 24v156q0 21 27 24z" />
    <glyph glyph-name="Ebreve" unicode="&#x114;" horiz-adv-x="1097" 
d="M883 578h-437v-277h553q21 0 21 -20v-263q0 -18 -19 -18h-847q-21 0 -21 20v1381q0 20 21 20h827q20 0 20 -20v-262q0 -19 -20 -19h-535v-248h437q20 0 20 -20v-254q0 -20 -20 -20zM690 1778l144 2q21 0 18 -19q-4 -129 -83 -198.5t-214 -69.5t-213 69.5t-84 198.5
q0 19 21 19h143q18 0 18 -19q5 -38 38.5 -66t76.5 -28q46 0 79 27.5t38 66.5q0 17 18 17z" />
    <glyph glyph-name="ebreve" unicode="&#x115;" horiz-adv-x="1132" 
d="M367 592h397q-40 143 -197 143q-160 0 -200 -143zM1059 381h-684q55 -125 217 -125q116 0 186 55q22 15 35 2l158 -168q14 -14 2 -30q-129 -135 -402 -138q-231 0 -376 142q-144 144 -144 377q0 229 142 374q144 144 374 144q245 0 379.5 -152.5t134.5 -458.5
q0 -22 -22 -22zM682 1401h145q17 0 17 -21q-4 -133 -86 -214t-211 -81t-210 80.5t-85 214.5q0 21 18 21h144q17 0 20 -21q6 -49 37.5 -79.5t75.5 -30.5q45 0 78 30.5t39 79.5q3 21 18 21z" />
    <glyph glyph-name="Edotaccent" unicode="&#x116;" horiz-adv-x="1097" 
d="M883 578h-437v-277h553q21 0 21 -20v-263q0 -18 -19 -18h-847q-21 0 -21 20v1381q0 20 21 20h827q20 0 20 -20v-262q0 -19 -20 -19h-535v-248h437q20 0 20 -20v-254q0 -20 -20 -20zM422 1636q0 58 35 92.5t94 34.5q60 0 95.5 -35t35.5 -92q0 -60 -35.5 -95.5t-95.5 -35.5
q-57 0 -93 35.5t-36 95.5z" />
    <glyph glyph-name="edotaccent" unicode="&#x117;" horiz-adv-x="1132" 
d="M367 592h397q-40 143 -197 143q-160 0 -200 -143zM1059 381h-684q55 -125 217 -125q116 0 186 55q22 15 35 2l158 -168q14 -14 2 -30q-129 -135 -402 -138q-231 0 -376 142q-144 144 -144 377q0 229 142 374q144 144 374 144q245 0 379.5 -152.5t134.5 -458.5
q0 -22 -22 -22zM420 1268q0 57 35 92q37 37 96 37t94 -35t35 -94q0 -60 -36 -95.5t-93 -35.5q-60 0 -95.5 35.5t-35.5 95.5z" />
    <glyph glyph-name="Eogonek" unicode="&#x118;" horiz-adv-x="1097" 
d="M883 578h-437v-277h553q21 0 21 -20v-263q0 -18 -19 -18h-847q-21 0 -21 20v1381q0 20 21 20h827q20 0 20 -20v-262q0 -19 -20 -19h-535v-248h437q20 0 20 -20v-254q0 -20 -20 -20zM987 -356q-26 -35 -82.5 -57.5t-113.5 -22.5q-111 0 -170.5 54.5t-61.5 152.5
q0 96 92 194q93 87 187 154l92 -115l-137 -143q-55 -64 -13 -103q18 -19 46.5 -17t45.5 26q8 9 17 0l100 -105q8 -8 -2 -18z" />
    <glyph glyph-name="eogonek" unicode="&#x119;" horiz-adv-x="1132" 
d="M367 592h397q-40 143 -197 143q-160 0 -200 -143zM1059 381h-684q55 -125 217 -125q116 0 186 55q22 15 35 2l158 -168q14 -14 2 -30q-129 -135 -402 -138q-231 0 -376 142q-144 144 -144 377q0 229 142 374q144 144 374 144q245 0 379.5 -152.5t134.5 -458.5
q0 -22 -22 -22zM883 -340q-26 -35 -83 -57.5t-114 -22.5q-111 0 -170 54.5t-61 152.5q0 97 92 195q91 86 186 153l92 -115l-137 -143q-54 -63 -10 -102q17 -19 45 -17.5t45 25.5q8 8 16 0l101 -105q8 -8 -2 -18z" />
    <glyph glyph-name="Ecaron" unicode="&#x11a;" horiz-adv-x="1097" 
d="M883 578h-437v-277h553q21 0 21 -20v-263q0 -18 -19 -18h-847q-21 0 -21 20v1381q0 20 21 20h827q20 0 20 -20v-262q0 -19 -20 -19h-535v-248h437q20 0 20 -20v-254q0 -20 -20 -20zM471 1749l94 -86l92 86q10 10 27 10h238q24 0 8 -16l-238 -227q-12 -15 -30 -15h-195
q-16 0 -31 15l-235 227q-16 16 8 16h237q8 0 25 -10z" />
    <glyph glyph-name="ecaron" unicode="&#x11b;" horiz-adv-x="1132" 
d="M367 592h397q-40 143 -197 143q-160 0 -200 -143zM1059 381h-684q55 -125 217 -125q116 0 186 55q22 15 35 2l158 -168q14 -14 2 -30q-129 -135 -402 -138q-231 0 -376 142q-144 144 -144 377q0 229 142 374q144 144 374 144q245 0 379.5 -152.5t134.5 -458.5
q0 -22 -22 -22zM258 1417h209q12 0 22 -10l74 -125l72 125q10 10 24 10h207q22 0 8 -14l-186 -270q-9 -15 -24 -15h-201q-21 0 -27 15l-186 270q-14 14 8 14z" />
    <glyph glyph-name="Gcircumflex" unicode="&#x11c;" horiz-adv-x="1556" 
d="M1137 532h-310q-20 0 -20 21v213q0 18 20 18h603q28 0 28 -28q-6 -378 -170 -576.5t-491 -197.5q-317 3 -508 200q-193 199 -193 529q0 327 201 528t528 201q304 0 514 -195q14 -12 0 -26l-159 -215q-13 -13 -29 0q-32 28 -64 47q-41 28 -116.5 51.5t-143.5 23.5
q-189 0 -303 -114t-114 -301q0 -189 106 -301q109 -115 283 -115q267 0 338 237zM866 1528l-88 80l-90 -80q-10 -10 -22 -10h-226q-25 0 -8 14l223 219q17 10 31 10h184q12 0 29 -10l225 -219q17 -14 -8 -14h-225q-8 0 -25 10z" />
    <glyph glyph-name="gcircumflex" unicode="&#x11d;" horiz-adv-x="1202" 
d="M555 1020q177 0 279 -135l38 92q7 17 25 20h182q21 0 21 -22l4 -924q0 -241 -148 -389q-143 -149 -383 -149q-247 3 -413 106q-20 12 -8 33l108 227q8 17 29 8q131 -70 262 -73q121 0 185.5 67t64.5 187v4q-97 -97 -246 -97q-227 3 -367 146q-137 143 -137 377
q0 233 137 376q140 146 367 146zM352 500q0 -99 60 -160t157 -61q105 2 167.5 62t62.5 159q0 103 -62 162t-168 57q-98 0 -157.5 -60.5t-59.5 -158.5zM256 1116l188 273q4 11 25 14h201q16 0 24 -14l187 -273q11 -14 -9 -14h-206q-15 0 -25 10l-72 125l-73 -125
q-10 -10 -23 -10h-209q-16 0 -8 14z" />
    <glyph glyph-name="Gbreve" unicode="&#x11e;" horiz-adv-x="1556" 
d="M1137 532h-310q-20 0 -20 21v213q0 18 20 18h603q28 0 28 -28q-6 -378 -170 -576.5t-491 -197.5q-317 3 -508 200q-193 199 -193 529q0 327 201 528t528 201q304 0 514 -195q14 -12 0 -26l-159 -215q-13 -13 -29 0q-32 28 -64 47q-41 28 -116.5 51.5t-143.5 23.5
q-189 0 -303 -114t-114 -301q0 -189 106 -301q109 -115 283 -115q267 0 338 237zM913 1778l144 2q18 0 18 -19q-4 -129 -83 -198.5t-216 -69.5q-132 0 -210.5 69.5t-84.5 198.5q0 19 19 19h145q19 0 19 -19q5 -38 37.5 -66t74.5 -28q46 0 79 27.5t38 66.5q0 17 20 17z" />
    <glyph glyph-name="gbreve" unicode="&#x11f;" horiz-adv-x="1202" 
d="M555 1020q177 0 279 -135l38 92q7 17 25 20h182q21 0 21 -22l4 -924q0 -241 -148 -389q-143 -149 -383 -149q-247 3 -413 106q-20 12 -8 33l108 227q8 17 29 8q131 -70 262 -73q121 0 185.5 67t64.5 187v4q-97 -97 -246 -97q-227 3 -367 146q-137 143 -137 377
q0 233 137 376q140 146 367 146zM352 500q0 -99 60 -160t157 -61q105 2 167.5 62t62.5 159q0 103 -62 162t-168 57q-98 0 -157.5 -60.5t-59.5 -158.5zM688 1401h148q16 0 16 -21q-4 -133 -86 -214t-211 -81t-210 80.5t-87 214.5q0 21 21 21h143q17 0 20 -21q5 -50 35.5 -80
t77.5 -30q45 0 78 30.5t39 79.5q3 21 16 21z" />
    <glyph glyph-name="Gdotaccent" unicode="&#x120;" horiz-adv-x="1556" 
d="M1137 532h-310q-20 0 -20 21v213q0 18 20 18h603q28 0 28 -28q-6 -378 -170 -576.5t-491 -197.5q-317 3 -508 200q-193 199 -193 529q0 327 201 528t528 201q304 0 514 -195q14 -12 0 -26l-159 -215q-13 -13 -29 0q-32 28 -64 47q-41 28 -116.5 51.5t-143.5 23.5
q-189 0 -303 -114t-114 -301q0 -189 106 -301q109 -115 283 -115q267 0 338 237zM649 1628q0 58 34.5 92.5t94.5 34.5t95.5 -35t35.5 -92q0 -60 -35.5 -95.5t-95.5 -35.5q-58 0 -93.5 35.5t-35.5 95.5z" />
    <glyph glyph-name="gdotaccent" unicode="&#x121;" horiz-adv-x="1202" 
d="M555 1020q177 0 279 -135l38 92q7 17 25 20h182q21 0 21 -22l4 -924q0 -241 -148 -389q-143 -149 -383 -149q-247 3 -413 106q-20 12 -8 33l108 227q8 17 29 8q131 -70 262 -73q121 0 185.5 67t64.5 187v4q-97 -97 -246 -97q-227 3 -367 146q-137 143 -137 377
q0 233 137 376q140 146 367 146zM352 500q0 -99 60 -160t157 -61q105 2 167.5 62t62.5 159q0 103 -62 162t-168 57q-98 0 -157.5 -60.5t-59.5 -158.5zM436 1255q0 57 36 93t95 36q60 0 95.5 -34.5t35.5 -94.5t-35.5 -95.5t-95.5 -35.5t-95.5 35.5t-35.5 95.5z" />
    <glyph glyph-name="uni0122" unicode="&#x122;" horiz-adv-x="1495" 
d="M1106 532h-309q-21 0 -21 21v213q0 18 21 18h602q28 0 28 -28q-6 -378 -170 -576.5t-491 -197.5q-317 3 -508 200q-192 198 -192 529q0 328 200 528q201 201 529 201q304 0 514 -195q14 -12 0 -26l-160 -215q-13 -13 -29 0q-34 30 -63 47q-41 28 -116.5 51.5t-143.5 23.5
q-189 0 -303 -114q-115 -115 -115 -301q0 -189 106 -301q109 -115 283 -115q268 0 338 237zM702 -322q-3 0 -6 3q-75 34 -75 129q0 63 38 102t101 39q61 1 100 -38.5t41 -102.5q6 -120 -74 -209q-81 -90 -176 -93q-19 0 -22 9l-39 77q-9 16 4 19q72 20 108 65z" />
    <glyph glyph-name="uni0123" unicode="&#x123;" horiz-adv-x="1202" 
d="M555 1020q177 0 279 -135l38 92q7 17 25 20h182q21 0 21 -22l4 -924q0 -241 -148 -389q-143 -149 -383 -149q-247 3 -413 106q-20 12 -8 33l108 227q8 17 29 8q131 -70 262 -73q121 0 185.5 67t64.5 187v4q-97 -97 -246 -97q-227 3 -367 146q-137 143 -137 377
q0 233 137 376q140 146 367 146zM352 500q0 -99 60 -160t157 -61q105 2 167.5 62t62.5 159q0 103 -62 162t-168 57q-98 0 -157.5 -60.5t-59.5 -158.5zM633 1356h2l4 -2q76 -34 76 -129q0 -63 -38.5 -102.5t-101.5 -39.5q-61 -1 -100 39t-41 103q-6 120 74 209t176 92
q20 0 23 -8l38 -78q9 -16 -4 -19q-72 -20 -108 -65z" />
    <glyph glyph-name="Hcircumflex" unicode="&#x124;" horiz-adv-x="1419" 
d="M428 0h-274q-21 0 -21 20v1381q0 20 21 20h274q18 0 18 -18v-559h527v557q0 20 20 20h275q18 0 18 -18v-1383q0 -20 -20 -20h-273q-20 0 -20 20v558h-527v-558q0 -20 -18 -20zM797 1536l-86 80l-90 -80q-17 -10 -23 -10h-227q-23 0 -6 14l223 219q17 10 28 10h185
q13 0 30 -10l226 -219q17 -14 -8 -14h-226q-9 0 -26 10z" />
    <glyph glyph-name="hcircumflex" unicode="&#x125;" horiz-adv-x="1136" 
d="M102 23v1433q0 23 21 23h258q22 0 22 -21v-536q93 100 265 100q164 0 266 -123q104 -122 104 -324v-552q0 -23 -20 -23h-260q-21 0 -21 23v483q0 97 -46.5 156t-119.5 57q-72 -2 -117 -59t-51 -173v-464q0 -23 -20 -23h-258q-23 0 -23 23zM645 1561l-86 79l-90 -79
q-13 -13 -25 -13h-225q-10 0 -12 5.5t4 11.5l225 217q12 12 29 12h184q20 0 29 -12l227 -217q6 -6 3 -11.5t-11 -5.5h-225q-14 0 -27 13z" />
    <glyph glyph-name="Hbar" unicode="&#x126;" horiz-adv-x="1361" 
d="M430 1331v-178h502v178q0 19 18 19h260q19 0 19 -19v-178h28q21 0 21 -20v-95q0 -20 -21 -20h-28v-1000q0 -18 -19 -18h-260q-20 0 -20 18v531h-500v-531q0 -18 -18 -18h-260q-19 0 -19 18v1000h-33q-20 0 -20 20v95q0 20 20 20h33v178q0 19 19 19h262q16 0 16 -19z
M932 1018h-502v-217h502v217z" />
    <glyph glyph-name="hbar" unicode="&#x127;" horiz-adv-x="1136" 
d="M625 1194v-94q0 -21 -19 -21h-203v-157q93 100 265 100q164 0 266 -123q104 -122 104 -324v-552q0 -23 -20 -23h-260q-21 0 -21 23v483q0 97 -46.5 156t-119.5 57q-72 -2 -117 -59t-51 -173v-464q0 -23 -20 -23h-258q-23 0 -23 23v1056h-69q-19 0 -19 21v94q0 20 19 20
h69v242q0 23 21 23h258q22 0 22 -21v-244h203q19 0 19 -20z" />
    <glyph glyph-name="Itilde" unicode="&#x128;" horiz-adv-x="579" 
d="M446 1401v-1383q0 -18 -18 -18h-274q-21 0 -21 18v1383q0 20 19 20h276q18 0 18 -20zM68 1518q-10 -28 -29 -9l-74 82q-9 13 -6 23q29 83 88.5 135.5t118.5 52.5q38 0 69 -16t52 -38.5t40 -44.5t41.5 -37t47.5 -13q71 0 106 92q5 11 11.5 13t11.5 -5l78 -84q9 -13 6 -16
q-26 -86 -85 -139.5t-122 -53.5q-38 0 -70 16t-53 38.5t-39.5 45t-40.5 38.5t-47 16q-70 -3 -104 -96z" />
    <glyph glyph-name="itilde" unicode="&#x129;" horiz-adv-x="505" 
d="M403 979v-961q0 -18 -20 -18h-260q-21 0 -21 18v961q0 8 0.5 10.5t5 5t15.5 2.5h260q20 0 20 -18zM37 1167q-12 -22 -25 -6l-69 78q-11 11 -9 18q26 80 83 130.5t116 50.5q35 0 64 -15t49 -36t37.5 -42t39 -36t44.5 -15q68 3 102 90q6 20 20 9l74 -80q9 -9 6 -19
q-24 -80 -80.5 -130t-117.5 -50q-35 0 -64.5 14.5t-49.5 36t-38 42.5t-39.5 35.5t-44.5 14.5q-64 -3 -98 -90z" />
    <glyph glyph-name="Imacron" unicode="&#x12a;" horiz-adv-x="579" 
d="M446 1401v-1383q0 -18 -18 -18h-274q-21 0 -21 18v1383q0 20 19 20h276q18 0 18 -20zM25 1739h532q11 0 18.5 -7.5t6.5 -17.5v-153q3 -27 -25 -27h-532q-27 0 -27 25v155q0 25 27 25z" />
    <glyph glyph-name="imacron" unicode="&#x12b;" horiz-adv-x="505" 
d="M403 979v-961q0 -18 -20 -18h-260q-21 0 -21 18v961q0 8 0.5 10.5t5 5t15.5 2.5h260q20 0 20 -18zM-14 1380h530q30 -3 27 -26v-154q1 -10 -7 -18t-20 -8h-530q-27 0 -27 24v156q0 23 27 26z" />
    <glyph glyph-name="Ibreve" unicode="&#x12c;" horiz-adv-x="579" 
d="M446 1401v-1383q0 -18 -18 -18h-274q-21 0 -21 18v1383q0 20 19 20h276q18 0 18 -20zM434 1782l152 2q21 0 18 -21q-4 -135 -87.5 -208.5t-225.5 -73.5q-141 0 -223 73.5t-88 208.5q0 21 20 21h152q20 0 20 -21q5 -39 40 -68.5t79 -29.5q49 0 83.5 28t39.5 70q0 19 20 19
z" />
    <glyph glyph-name="ibreve" unicode="&#x12d;" horiz-adv-x="503" 
d="M403 979v-959q0 -20 -20 -20h-260q-21 0 -21 20v959q0 18 21 18h260q20 0 20 -18zM397 1409h154q18 0 18 -20q-4 -141 -90 -226.5t-223 -85.5q-135 0 -220 86t-91 226q0 20 20 20h152q17 0 20 -20q6 -52 38 -84.5t81 -32.5q50 0 83.5 31.5t39.5 85.5q3 20 18 20z" />
    <glyph glyph-name="Iogonek" unicode="&#x12e;" horiz-adv-x="579" 
d="M446 1401v-1383q0 -18 -18 -18h-274q-21 0 -21 18v1383q0 20 19 20h276q18 0 18 -20zM500 -352q-26 -35 -83 -57.5t-114 -22.5q-111 0 -170 54.5t-61 152.5q0 96 92 194q96 90 186 154l92 -115l-137 -143q-55 -64 -10 -103q17 -19 45 -17t45 26q8 8 16 0l101 -105
q8 -8 -2 -18z" />
    <glyph glyph-name="iogonek" unicode="&#x12f;" horiz-adv-x="505" 
d="M403 979v-961q0 -18 -20 -18h-260q-21 0 -21 18v961q0 8 0.5 10.5t5 5t15.5 2.5h260q20 0 20 -18zM68 1309q0 85 49.5 134.5t134.5 49.5t133.5 -49.5t48.5 -134.5q0 -83 -49 -134t-133 -51q-82 0 -133 51.5t-51 133.5zM395 -340q-26 -35 -82 -57.5t-112 -22.5
q-111 0 -171.5 54.5t-62.5 152.5q0 95 94 195q74 74 185 153l92 -115l-137 -143q-53 -63 -11 -102q17 -19 45.5 -17.5t45.5 25.5q8 8 16 0l100 -105q8 -8 -2 -18z" />
    <glyph glyph-name="Idot" unicode="&#x130;" horiz-adv-x="579" 
d="M446 1401v-1383q0 -18 -18 -18h-274q-21 0 -21 18v1383q0 20 19 20h276q18 0 18 -20zM172 1534q-45 45 -45 121t45 121t123 45q76 0 121 -45t45 -121t-45 -121t-121 -45q-78 0 -123 45z" />
    <glyph glyph-name="dotlessi" unicode="&#x131;" horiz-adv-x="493" 
d="M391 881v-856q0 -7 -9 -16t-17 -9h-234q-8 0 -17.5 9t-9.5 16l-2 856q0 10 8.5 18t16.5 8h238q8 2 17 -7t9 -19z" />
    <glyph glyph-name="IJ" unicode="&#x132;" horiz-adv-x="1361" 
d="M446 1401v-1383q0 -18 -18 -18h-274q-21 0 -21 18v1383q0 20 19 20h276q18 0 18 -20zM1008 496l-2 905q0 20 20 20h272q21 0 21 -20l2 -973q1 -214 -91 -330t-259 -118q-245 3 -375 118q-14 9 -4 29l127 227q13 23 35 11l28 -17q82 -47 150 -53q33 0 49 22t20.5 55
t6.5 124z" />
    <glyph glyph-name="ij" unicode="&#x133;" horiz-adv-x="962" 
d="M403 979v-961q0 -18 -20 -18h-260q-21 0 -21 18v961q0 8 0.5 10.5t5 5t15.5 2.5h260q20 0 20 -18zM68 1309q0 85 49.5 134.5t134.5 49.5t133.5 -49.5t48.5 -134.5q0 -83 -49 -134t-133 -51q-82 0 -133 51.5t-51 133.5zM709 1491q82 0 131 -49t49 -133q0 -85 -49 -135
t-131 -50q-84 0 -135.5 51.5t-51.5 133.5t51 132t136 50zM561 -86l-2 1063q0 18 21 18h258q20 0 20 -18l2 -1102q0 -167 -86.5 -264t-238.5 -96q-151 0 -246 86q-9 16 -2 28l88 217q13 30 37 9q41 -35 75 -35q71 0 74 94z" />
    <glyph glyph-name="Jcircumflex" unicode="&#x134;" horiz-adv-x="872" 
d="M426 496l-2 905q0 20 20 20h273q20 0 20 -20l2 -973q1 -214 -91 -330t-259 -118q-245 3 -375 118q-14 9 -4 29l127 227q13 23 35 11l29 -17q82 -48 149 -53q33 0 49 22t20.5 55t6.5 124zM670 1526l-88 80l-90 -80q-10 -10 -23 -10h-225q-25 0 -8 14l223 219q17 10 28 10
h187q11 0 28 -10l226 -219q17 -14 -8 -14h-226q-7 0 -24 10z" />
    <glyph glyph-name="jcircumflex" unicode="&#x135;" horiz-adv-x="544" 
d="M178 -86l-2 1063q0 20 21 20l260 -2q18 0 18 -20l2 -1098q2 -169 -83.5 -266.5t-239.5 -97.5q-158 0 -246 88q-13 13 -4 28l90 217q13 28 37 7q36 -33 75 -33q37 0 54 21.5t18 72.5zM-10 1114l196 287q7 11 27 14h211q19 0 27 -14l196 -287q13 -16 -8 -16h-219
q-16 0 -25 12l-76 131l-77 -131q-9 -12 -25 -12h-219q-21 0 -8 16z" />
    <glyph glyph-name="uni0136" unicode="&#x136;" horiz-adv-x="1212" 
d="M416 1401v-596l415 604q12 12 27 12h297q32 0 12 -26l-471 -676l549 -694q22 -25 -10 -25h-328q-19 0 -26 10l-465 615v-607q0 -18 -19 -18h-274q-21 0 -21 18v1383q0 20 19 20h276q19 0 19 -20zM573 -322l-2 3h-4q-75 34 -75 129q0 63 38 102t101 39q61 1 100 -38.5
t41 -102.5q6 -120 -74 -209q-81 -90 -176 -93q-19 0 -22 9l-39 77q-9 16 4 19q72 20 108 65z" />
    <glyph glyph-name="uni0137" unicode="&#x137;" horiz-adv-x="1026" 
d="M659 995h342q28 0 11 -26l-324 -451l389 -491q21 -27 -10 -27h-334q-16 0 -26 10l-304 402v-394q0 -18 -18 -18h-262q-21 0 -21 18v1442q0 19 19 19h264q18 0 18 -19v-839l238 364q7 10 18 10zM504 -322l-2 3h-4q-76 34 -76 129q0 63 38 102t101 39q61 1 100 -38.5
t41 -102.5q6 -121 -73 -209q-81 -90 -176 -93q-20 0 -23 9l-39 77q-9 16 4 19q73 20 109 65z" />
    <glyph glyph-name="kgreenlandic" unicode="&#x138;" horiz-adv-x="1011" 
d="M659 995h342q28 0 11 -26l-324 -471l389 -471q21 -27 -10 -27h-334q-16 0 -26 10l-304 381v-373q0 -18 -18 -18h-262q-21 0 -21 18v957q0 20 19 20h264q18 0 18 -20v-375l238 385q7 10 18 10z" />
    <glyph glyph-name="Lacute" unicode="&#x139;" horiz-adv-x="954" 
d="M446 1401v-1120h428q21 0 21 -21v-242q0 -18 -18 -18h-723q-21 0 -21 18v1383q0 20 19 20h276q18 0 18 -20zM461 1841l104 -176q6 -6 3 -16t-11 -15l-399 -186q-22 -9 -31 6l-57 94q-9 15 6 27l350 270q20 17 35 -4z" />
    <glyph glyph-name="lacute" unicode="&#x13a;" horiz-adv-x="505" 
d="M403 1458v-1438q0 -20 -20 -20h-260q-21 0 -21 20v1438q0 21 21 21h260q20 0 20 -21zM412 1890l98 -168q6 -6 4 -16.5t-12 -11.5l-377 -178q-19 -9 -31 6l-55 90q-9 9 6 24l334 256q15 16 33 -2z" />
    <glyph glyph-name="uni013B" unicode="&#x13b;" horiz-adv-x="954" 
d="M446 1401v-1120h428q21 0 21 -21v-242q0 -18 -18 -18h-723q-21 0 -21 18v1383q0 20 19 20h276q18 0 18 -20zM469 -322q-3 0 -6 3q-76 34 -76 129q0 63 38 102t101 39q61 1 100.5 -38.5t41.5 -102.5q6 -120 -74 -209q-81 -90 -176 -93q-20 0 -23 9l-39 77q-9 16 4 19
q73 20 109 65z" />
    <glyph glyph-name="uni013C" unicode="&#x13c;" horiz-adv-x="505" 
d="M403 1458v-1438q0 -20 -20 -20h-260q-21 0 -21 20v1438q0 21 21 21h260q20 0 20 -21zM188 -322l-2 3h-4q-76 34 -76 129q0 63 38.5 102t101.5 39q61 1 100 -38.5t41 -102.5q6 -120 -74 -209q-81 -90 -176 -93q-19 0 -22 9l-39 77q-9 16 4 19q72 20 108 65z" />
    <glyph glyph-name="Lcaron" unicode="&#x13d;" horiz-adv-x="954" 
d="M446 1401v-1120h428q21 0 21 -21v-242q0 -18 -18 -18h-723q-21 0 -21 18v1383q0 20 19 20h276q18 0 18 -20zM639 862l-100 78q-17 10 4 25q118 90 153 213q-2 2 -8 2q-51 13 -79.5 53.5t-28.5 97.5q0 73 43.5 117.5t115.5 44.5q69 0 112.5 -42t47.5 -114q9 -141 -65 -286
q-70 -144 -166 -197q-14 -4 -29 8z" />
    <glyph glyph-name="lcaron" unicode="&#x13e;" horiz-adv-x="860" 
d="M403 1458v-1438q0 -20 -20 -20h-260q-21 0 -21 20v1438q0 21 21 21h260q20 0 20 -21zM555 862l-100 78q-17 10 4 25q118 90 153 213q-2 2 -8 2q-51 13 -79.5 53.5t-28.5 97.5q0 73 43.5 117.5t115.5 44.5q69 0 112.5 -42t47.5 -114q9 -141 -65 -286q-70 -144 -166 -197
q-14 -4 -29 8z" />
    <glyph glyph-name="Ldot" unicode="&#x13f;" horiz-adv-x="954" 
d="M446 1401v-1120h428q21 0 21 -21v-242q0 -18 -18 -18h-723q-21 0 -21 18v1383q0 20 19 20h276q18 0 18 -20zM541 778q0 78 46 126t124 48q73 0 121.5 -49.5t48.5 -124.5q0 -73 -48 -120.5t-122 -47.5q-77 0 -123.5 47t-46.5 121z" />
    <glyph glyph-name="ldot" unicode="&#x140;" horiz-adv-x="835" 
d="M403 1458v-1438q0 -20 -20 -20h-260q-21 0 -21 20v1438q0 21 21 21h260q20 0 20 -21zM627 907q63 0 100 -36.5t37 -98.5t-37 -99.5t-100 -37.5q-62 0 -100 38t-38 99t38 98t100 37z" />
    <glyph glyph-name="Lslash" unicode="&#x141;" horiz-adv-x="954" 
d="M96 641l551 236q19 9 19 -13v-98q0 -23 -19 -29l-551 -237q-20 -6 -20 12v100q0 20 20 29zM446 1401v-1120h428q21 0 21 -21v-242q0 -18 -18 -18h-723q-21 0 -21 18v1383q0 20 19 20h276q18 0 18 -20z" />
    <glyph glyph-name="lslash" unicode="&#x142;" horiz-adv-x="532" 
d="M143 1405h246q21 0 21 -19v-585l114 57q19 10 19 -12v-98q0 -22 -19 -31l-114 -55v-642q0 -20 -21 -20h-246q-20 0 -20 20v498l-113 -57q-20 -9 -20 14v92q0 26 20 35l113 55v727q0 21 20 21z" />
    <glyph glyph-name="Nacute" unicode="&#x143;" horiz-adv-x="1478" 
d="M1053 1421h274q19 0 19 -20v-1381q0 -20 -21 -20h-311q-12 0 -21 12l-547 885v-877q0 -20 -20 -20h-272q-21 0 -21 20v1381q0 20 21 20h311q19 0 27 -14l540 -879v873q0 20 21 20zM868 1841l105 -176q6 -6 3 -16t-11 -15l-400 -186q-21 -9 -30 6l-58 94q-9 15 6 27
l351 270q20 16 34 -4z" />
    <glyph glyph-name="nacute" unicode="&#x144;" horiz-adv-x="1136" 
d="M102 20v955q0 22 21 22h213q20 0 26 -20l21 -78q102 123 285 123q164 0 266 -123q104 -122 104 -324v-552q0 -23 -20 -23h-260q-21 0 -21 23v483q0 97 -46.5 156t-119.5 57q-71 -2 -116.5 -60t-51.5 -174v-465q0 -18 -20 -18h-258q-23 0 -23 18zM707 1481l127 -160
q17 -17 -3 -33l-370 -239q-16 -13 -31 2l-70 86q-10 10 2 26l310 318q16 16 35 0z" />
    <glyph glyph-name="uni0145" unicode="&#x145;" horiz-adv-x="1478" 
d="M1053 1421h274q19 0 19 -20v-1381q0 -20 -21 -20h-311q-12 0 -21 12l-547 885v-877q0 -20 -20 -20h-272q-21 0 -21 20v1381q0 20 21 20h311q19 0 27 -14l540 -879v873q0 20 21 20zM694 -322q-3 0 -6 3q-76 34 -76 129q0 63 38.5 102t101.5 39q61 1 100 -38.5t41 -102.5
q6 -120 -74 -209q-81 -90 -176 -93q-19 0 -22 9l-39 77q-9 16 4 19q72 20 108 65z" />
    <glyph glyph-name="uni0146" unicode="&#x146;" horiz-adv-x="1136" 
d="M102 20v955q0 22 21 22h213q20 0 26 -20l21 -78q102 123 285 123q164 0 266 -123q104 -122 104 -324v-552q0 -23 -20 -23h-260q-21 0 -21 23v483q0 97 -46.5 156t-119.5 57q-71 -2 -116.5 -60t-51.5 -174v-465q0 -18 -20 -18h-258q-23 0 -23 18zM526 -322q-3 0 -6 3
q-76 34 -76 129q0 63 38.5 102t101.5 39q61 1 100 -38.5t41 -102.5q6 -120 -74 -209q-81 -90 -176 -93q-19 0 -22 9l-39 77q-9 16 4 19q72 20 108 65z" />
    <glyph glyph-name="Ncaron" unicode="&#x147;" horiz-adv-x="1478" 
d="M1053 1421h274q19 0 19 -20v-1381q0 -20 -21 -20h-311q-12 0 -21 12l-547 885v-877q0 -20 -20 -20h-272q-21 0 -21 20v1381q0 20 21 20h311q19 0 27 -14l540 -879v873q0 20 21 20zM645 1749l94 -86l92 86q10 10 27 10h238q24 0 8 -16l-238 -227q-12 -15 -30 -15h-195
q-16 0 -31 15l-235 227q-16 16 8 16h238q7 0 24 -10z" />
    <glyph glyph-name="ncaron" unicode="&#x148;" horiz-adv-x="1136" 
d="M102 20v955q0 22 21 22h213q20 0 26 -20l21 -78q102 123 285 123q164 0 266 -123q104 -122 104 -324v-552q0 -23 -20 -23h-260q-21 0 -21 23v483q0 97 -46.5 156t-119.5 57q-71 -2 -116.5 -60t-51.5 -174v-465q0 -18 -20 -18h-258q-23 0 -23 18zM240 1425h219
q14 0 24 -10l78 -133l76 133q10 10 25 10h219q21 0 8 -16l-197 -285q-8 -14 -26 -14h-211q-21 0 -27 14l-197 285q-13 16 9 16z" />
    <glyph glyph-name="napostrophe" unicode="&#x149;" horiz-adv-x="1368" 
d="M336 20v955q0 22 20 22h213q21 0 27 -20l20 -78q102 123 285 123q164 0 266 -123q105 -123 105 -324v-552q0 -23 -21 -23h-260q-20 0 -20 23v483q0 97 -46.5 156t-119.5 57q-71 -2 -116.5 -60t-51.5 -174v-465q0 -18 -21 -18h-258q-22 0 -22 18zM129 946l-98 76
q-13 12 2 27q116 89 155 213h-4l-4 2q-51 14 -80.5 54t-29.5 97q2 74 44.5 118t114.5 44q71 0 114.5 -43t45.5 -113q9 -139 -63 -286q-68 -140 -168 -195q-13 -10 -29 6z" />
    <glyph glyph-name="Eng" unicode="&#x14a;" horiz-adv-x="1478" 
d="M1032 -92v92l-586 897v-877q0 -20 -20 -20h-272q-21 0 -21 20v1381q0 20 21 20h311q19 0 27 -14l540 -877v871q0 20 21 20h274q19 0 19 -20v-1503q0 -180 -87.5 -277t-250.5 -96q-85 0 -181 41q-92 41 -131 74q-15 15 -6 43l121 198q15 28 33 13q88 -64 133 -64
q55 0 55 78z" />
    <glyph glyph-name="eng" unicode="&#x14b;" horiz-adv-x="1140" 
d="M469 -399q-9 9 -6 28l92 217q13 28 37 7q36 -33 76 -33q37 0 53 21.5t16 72.5v592q0 97 -46.5 156t-119.5 57q-71 -2 -116.5 -60t-51.5 -174v-465q0 -18 -20 -18h-258q-23 0 -23 18v955q0 22 21 22h213q20 0 26 -20l21 -78q102 123 285 123q164 0 266 -123
q104 -122 104 -324v-698q2 -169 -83.5 -266.5t-239.5 -97.5q-158 0 -246 88z" />
    <glyph glyph-name="Omacron" unicode="&#x14c;" horiz-adv-x="1589" 
d="M1524 711q0 -330 -201 -531q-198 -198 -528 -198q-329 0 -529 200t-200 529q0 328 200 528q201 201 529 201q327 0 528 -201t201 -528zM379 711q0 -188 115 -303q113 -113 303 -113q184 0 299 115q114 114 114 301q3 186 -112 301q-114 114 -301 114q-189 0 -303 -114
q-115 -115 -115 -301zM526 1735h543q18 0 18 -21v-155q0 -19 -18 -19h-543q-22 0 -22 19v155q0 21 22 21z" />
    <glyph glyph-name="omacron" unicode="&#x14d;" horiz-adv-x="1140" 
d="M51 502q0 231 144 375q145 145 374 145q232 0 377 -145q144 -144 144 -375q0 -235 -144 -379q-143 -143 -377 -143q-231 0 -374 143q-144 144 -144 379zM569 279q99 2 159 63t60 160q0 100 -60.5 160t-158.5 59q-98 0 -157.5 -59.5t-59.5 -159.5t59.5 -161.5t157.5 -61.5
zM307 1380h531q13 -2 20 -8t6 -16v-154q3 -26 -26 -26h-531q-26 0 -26 24v156q0 21 26 24z" />
    <glyph glyph-name="Obreve" unicode="&#x14e;" horiz-adv-x="1589" 
d="M1524 711q0 -330 -201 -531q-198 -198 -528 -198q-329 0 -529 200t-200 529q0 328 200 528q201 201 529 201q327 0 528 -201t201 -528zM379 711q0 -188 115 -303q113 -113 303 -113q184 0 299 115q114 114 114 301q3 186 -112 301q-114 114 -301 114q-189 0 -303 -114
q-115 -115 -115 -301zM922 1774h137q18 0 18 -17q-4 -123 -79.5 -189.5t-204.5 -66.5q-126 0 -200.5 66.5t-80.5 189.5q0 17 18 17h138q18 0 18 -17q5 -36 35.5 -62t71.5 -26q43 0 74 26t36 62q0 17 19 17z" />
    <glyph glyph-name="obreve" unicode="&#x14f;" horiz-adv-x="1140" 
d="M51 502q0 231 144 375q145 145 374 145q232 0 377 -145q144 -144 144 -375q0 -235 -144 -379q-143 -143 -377 -143q-231 0 -374 143q-144 144 -144 379zM569 279q99 2 159 63t60 160q0 100 -60.5 160t-158.5 59q-98 0 -157.5 -59.5t-59.5 -159.5t59.5 -161.5t157.5 -61.5
zM700 1401h148q16 0 16 -21q-4 -133 -86 -214t-211 -81t-210 80.5t-85 214.5q0 21 19 21h143q18 0 21 -21q6 -49 37 -79.5t75 -30.5q45 0 78 30.5t39 79.5q3 21 16 21z" />
    <glyph glyph-name="Ohungarumlaut" unicode="&#x150;" horiz-adv-x="1589" 
d="M1524 711q0 -330 -201 -531q-198 -198 -528 -198q-329 0 -529 200t-200 529q0 328 200 528q201 201 529 201q327 0 528 -201t201 -528zM379 711q0 -188 115 -303q113 -113 303 -113q184 0 299 115q114 114 114 301q3 186 -112 301q-114 114 -301 114q-189 0 -303 -114
q-115 -115 -115 -301zM1008 1864l145 -99q17 -14 6 -28l-209 -267q-13 -13 -26 -4l-99 74q-15 12 -6 27l160 286q9 21 29 11zM688 1864l154 -99q16 -13 4 -28l-209 -267q-14 -14 -27 -4l-100 72q-16 16 -8 29l160 288q12 18 26 9z" />
    <glyph glyph-name="ohungarumlaut" unicode="&#x151;" horiz-adv-x="1140" 
d="M51 502q0 231 144 375q145 145 374 145q232 0 377 -145q144 -144 144 -375q0 -235 -144 -379q-143 -143 -377 -143q-231 0 -374 143q-144 144 -144 379zM569 279q99 2 159 63t60 160q0 100 -60.5 160t-158.5 59q-98 0 -157.5 -59.5t-59.5 -159.5t59.5 -161.5t157.5 -61.5
zM766 1458l137 -94q20 -10 6 -27l-198 -252q-13 -16 -25 -4l-94 70q-16 15 -6 25l151 272q9 20 29 10zM461 1458l147 -94q15 -9 4 -27l-198 -252q-14 -14 -27 -4l-94 68q-17 14 -8 27l151 274q12 21 25 8z" />
    <glyph glyph-name="OE" unicode="&#x152;" horiz-adv-x="1513" 
d="M1417 0h-661q-309 0 -500 197q-190 196 -190 514t188 512q189 195 496 198h643q24 0 24 -28v-224q0 -28 -24 -28h-344v-281h249q21 0 21 -22v-234q0 -20 -21 -20h-249v-303h366q21 0 21 -23v-235q0 -23 -19 -23zM733 309l2 801q-163 -17 -258.5 -123t-95.5 -276
q0 -173 93.5 -279t258.5 -123z" />
    <glyph glyph-name="oe" unicode="&#x153;" horiz-adv-x="1871" 
d="M569 279q99 2 159 63t60 160q0 100 -60.5 160t-158.5 59q-98 0 -157.5 -59.5t-59.5 -159.5t59.5 -161.5t157.5 -61.5zM1106 592h397q-40 143 -198 143q-159 0 -199 -143zM51 502q0 231 144 375q145 145 374 145q232 0 373 -141q145 133 363 133q516 0 516 -611
q0 -22 -23 -22h-684q55 -125 215 -125q113 0 189 55q19 17 34 2l160 -168q12 -16 0 -28q-128 -137 -401 -140q-232 0 -373 138q-141 -135 -369 -135q-231 0 -374 143q-144 144 -144 379z" />
    <glyph glyph-name="Racute" unicode="&#x154;" horiz-adv-x="1243" 
d="M881 10l-279 500h-156v-490q0 -20 -20 -20h-272q-21 0 -21 20v1381q0 20 21 20h571q209 0 332 -129q122 -128 125 -325q-2 -150 -75.5 -263.5t-203.5 -162.5l309 -516q12 -25 -12 -25h-297q-12 0 -22 10zM729 1122h-283v-311h283q50 0 94.5 40.5t44.5 113.5t-44.5 114
t-94.5 43zM815 1841l105 -176q6 -6 2.5 -16t-11.5 -15l-399 -186q-22 -9 -31 6l-57 94q-9 15 6 27l350 270q20 17 35 -4z" />
    <glyph glyph-name="racute" unicode="&#x155;" horiz-adv-x="770" 
d="M674 684q-72 29 -127 29q-40 0 -79 -24t-62 -66v-600q0 -23 -21 -23h-260q-23 0 -23 23v952q0 19 21 22h182q23 0 29 -22l24 -55q113 98 248 98q45 0 148 -25q20 -6 14 -26l-63 -271q-9 -21 -31 -12zM526 1477l127 -160q6 -6 5.5 -16.5t-7.5 -14.5l-370 -242
q-16 -12 -31 3l-70 86q-10 10 2 26l310 318q15 15 34 0z" />
    <glyph glyph-name="uni0156" unicode="&#x156;" horiz-adv-x="1241" 
d="M881 10l-279 500h-156v-490q0 -20 -20 -20h-272q-21 0 -21 20v1381q0 20 21 20h571q209 0 332 -129q122 -128 125 -325q-2 -150 -75.5 -263.5t-203.5 -162.5l309 -516q12 -25 -12 -25h-297q-12 0 -22 10zM729 1122h-283v-311h283q50 0 94.5 40.5t44.5 113.5t-44.5 114
t-94.5 43zM580 -322q-4 0 -7 3q-75 34 -75 129q0 63 38 102t101 39q61 1 100 -38.5t41 -102.5q6 -121 -73 -209q-81 -90 -177 -93q-19 0 -22 9l-39 77q-9 16 4 19q73 20 109 65z" />
    <glyph glyph-name="uni0157" unicode="&#x157;" horiz-adv-x="772" 
d="M674 684q-72 29 -127 29q-40 0 -79 -24t-62 -66v-600q0 -23 -21 -23h-260q-23 0 -23 23v952q0 19 21 22h182q23 0 29 -22l24 -55q113 98 248 98q45 0 148 -25q20 -6 14 -26l-63 -271q-9 -21 -31 -12zM186 -322q-3 0 -6 3q-76 34 -76 129q0 63 38.5 102t101.5 39
q61 1 100 -38.5t41 -102.5q6 -120 -74 -209q-81 -90 -176 -93q-19 0 -22 9l-39 77q-9 16 4 19q72 20 108 65z" />
    <glyph glyph-name="Rcaron" unicode="&#x158;" horiz-adv-x="1243" 
d="M881 10l-279 500h-156v-490q0 -20 -20 -20h-272q-21 0 -21 20v1381q0 20 21 20h571q209 0 332 -129q122 -128 125 -325q-2 -150 -75.5 -263.5t-203.5 -162.5l309 -516q12 -25 -12 -25h-297q-12 0 -22 10zM729 1122h-283v-311h283q50 0 94.5 40.5t44.5 113.5t-44.5 114
t-94.5 43zM512 1749l94 -86l92 86q10 10 27 10h238q24 0 8 -16l-238 -227q-12 -15 -31 -15h-194q-16 0 -31 15l-235 227q-16 16 8 16h237q8 0 25 -10z" />
    <glyph glyph-name="rcaron" unicode="&#x159;" horiz-adv-x="770" 
d="M674 684q-72 29 -127 29q-40 0 -79 -24t-62 -66v-600q0 -23 -21 -23h-260q-23 0 -23 23v952q0 19 21 22h182q23 0 29 -22l24 -55q113 98 248 98q45 0 148 -25q20 -6 14 -26l-63 -271q-9 -21 -31 -12zM66 1421h219q14 0 24 -10l78 -133l76 133q10 10 24 10h220q21 0 8 -16
l-197 -285q-8 -14 -26 -14h-211q-19 0 -27 14l-197 285q-13 16 9 16z" />
    <glyph glyph-name="Sacute" unicode="&#x15a;" horiz-adv-x="1218" 
d="M80 152q-14 9 -4 26l135 242q14 20 33 4q49 -41 159 -88q110 -43 224 -43q88 0 147.5 30.5t59.5 82.5q0 109 -248 149q-259 43 -381.5 144.5t-128.5 285.5q-6 202 141 328q148 130 397 127q161 -3 285 -49q125 -46 170 -88q16 -9 6 -29l-108 -248q-9 -18 -29 -6
q-160 106 -336 106q-91 0 -151 -34t-60 -82q0 -50 52.5 -78.5t197.5 -59.5q262 -57 381 -160t125 -294q6 -188 -146 -316q-149 -125 -401 -122q-173 3 -319 61q-150 63 -201 111zM780 1841l105 -176q6 -6 3 -16t-11 -15l-400 -186q-22 -9 -31 6l-57 94q-9 15 6 27l350 270
q20 17 35 -4z" />
    <glyph glyph-name="sacute" unicode="&#x15b;" horiz-adv-x="944" 
d="M76 90q-16 13 -6 29l102 209q8 13 27 4q113 -61 221 -76q66 -6 112 6t46 35q0 9 -5 17t-17.5 15.5t-24.5 13t-35.5 13t-40 12t-47.5 13.5t-50 14q-283 82 -292 297q-6 159 116 244q128 87 307 84q76 0 162 -25q125 -37 193 -88q15 -15 6 -30l-102 -193q-9 -21 -39 -8
l-29 16q-82 36 -145 47q-66 12 -117 -1.5t-51 -39.5q0 -42 159 -77q182 -38 265.5 -108t87.5 -200q4 -152 -106 -242.5t-292 -88.5q-136 0 -245 36q-121 43 -160 72zM596 1481l129 -160q5 -6 4 -16.5t-8 -16.5l-371 -239q-16 -13 -31 2l-69 86q-10 10 2 26l309 318
q16 16 35 0z" />
    <glyph glyph-name="Scircumflex" unicode="&#x15c;" horiz-adv-x="1218" 
d="M80 152q-14 9 -4 26l135 242q14 20 33 4q49 -41 159 -88q110 -43 224 -43q88 0 147.5 30.5t59.5 82.5q0 109 -248 149q-259 43 -381.5 144.5t-128.5 285.5q-6 202 141 328q148 130 397 127q161 -3 285 -49q125 -46 170 -88q16 -9 6 -29l-108 -248q-9 -18 -29 -6
q-160 106 -336 106q-91 0 -151 -34t-60 -82q0 -50 52.5 -78.5t197.5 -59.5q262 -57 381 -160t125 -294q6 -188 -146 -316q-149 -125 -401 -122q-173 3 -319 61q-150 63 -201 111zM698 1516l-86 79l-90 -79q-18 -11 -22 -11h-228q-24 0 -6 15l223 219q17 10 29 10h184
q14 0 31 -10l225 -219q15 -15 -8 -15h-225q-9 0 -27 11z" />
    <glyph glyph-name="scircumflex" unicode="&#x15d;" horiz-adv-x="944" 
d="M76 90q-16 13 -6 29l100 205q9 18 31 8q122 -64 217 -76q65 -7 112.5 5t47.5 36q0 9 -5 17t-17.5 15t-25 13t-34.5 13t-40 12t-47.5 13.5t-50.5 14.5q-283 82 -292 297q-6 157 116 242q125 87 307 84q118 0 213 -39q101 -41 142 -74q15 -12 6 -28l-105 -195
q-8 -17 -32 -8l-31 14q-65 37 -147 51q-65 12 -116.5 -2.5t-51.5 -38.5q0 -42 159 -77q182 -38 265.5 -108t87.5 -200q4 -152 -106 -242.5t-292 -88.5q-136 0 -248 36q-122 42 -157 72zM143 1116l197 287q7 11 27 14h211q18 0 26 -14l197 -287q13 -16 -8 -16h-220
q-15 0 -24 12l-76 131l-78 -131q-9 -12 -24 -12h-219q-22 0 -9 16z" />
    <glyph glyph-name="Scedilla" unicode="&#x15e;" horiz-adv-x="1218" 
d="M80 152q-14 9 -4 26l135 242q14 20 33 4q49 -41 159 -88q110 -43 224 -43q88 0 147.5 30.5t59.5 82.5q0 109 -248 149q-259 43 -381.5 144.5t-128.5 285.5q-6 202 141 328q148 130 397 127q161 -3 285 -49q125 -46 170 -88q16 -9 6 -29l-108 -248q-9 -18 -29 -6
q-160 106 -336 106q-91 0 -151 -34t-60 -82q0 -50 52.5 -78.5t197.5 -59.5q262 -57 381 -160t125 -294q6 -188 -146 -316q-149 -125 -401 -122q-173 3 -319 61q-150 63 -201 111zM512 0h219l-31 -72q79 -11 122 -50.5t42 -110.5q-1 -91 -70 -141t-178 -50q-131 -3 -249 76
q-11 8 -2 24l43 76q6 10 26 4q89 -28 152 -28q35 0 56.5 14t21.5 37q0 49 -97 49h-110q-16 0 -13 18z" />
    <glyph glyph-name="scedilla" unicode="&#x15f;" horiz-adv-x="944" 
d="M76 90q-16 13 -6 29l100 205q9 18 31 8q122 -64 217 -76q65 -7 112.5 5t47.5 36q0 9 -5 17t-17.5 15t-25 13t-34.5 13t-40 12t-47.5 13.5t-50.5 14.5q-283 82 -292 297q-6 157 116 242q125 87 307 84q118 0 213 -39q101 -41 142 -74q15 -12 6 -28l-105 -195
q-8 -17 -32 -8l-31 14q-65 37 -147 51q-65 12 -116.5 -2.5t-51.5 -38.5q0 -42 159 -77q182 -38 265.5 -108t87.5 -200q4 -152 -106 -242.5t-292 -88.5q-136 0 -248 36q-122 42 -157 72zM367 0h231l-33 -76q83 -11 128 -53t44 -117q-1 -95 -73.5 -147.5t-186.5 -52.5
q-65 -1 -138.5 22t-123.5 57q-13 8 -4 27l47 80q7 10 27 4q82 -31 159 -31q37 0 59.5 14.5t22.5 39.5q0 53 -100 53h-117q-21 0 -12 18z" />
    <glyph glyph-name="Scaron" unicode="&#x160;" horiz-adv-x="1218" 
d="M80 152q-14 9 -4 26l135 242q14 20 33 4q49 -41 159 -88q110 -43 224 -43q88 0 147.5 30.5t59.5 82.5q0 109 -248 149q-259 43 -381.5 144.5t-128.5 285.5q-6 202 141 328q148 130 397 127q161 -3 285 -49q125 -46 170 -88q16 -9 6 -29l-108 -248q-9 -18 -29 -6
q-160 106 -336 106q-91 0 -151 -34t-60 -82q0 -50 52.5 -78.5t197.5 -59.5q262 -57 381 -160t125 -294q6 -188 -146 -316q-149 -125 -401 -122q-173 3 -319 61q-150 63 -201 111zM518 1749l94 -86l93 86q10 10 26 10h238q24 0 8 -16l-238 -227q-12 -15 -30 -15h-195
q-16 0 -31 15l-235 227q-16 16 8 16h238q7 0 24 -10z" />
    <glyph glyph-name="scaron" unicode="&#x161;" horiz-adv-x="944" 
d="M76 90q-16 13 -6 29l100 205q9 18 31 8q122 -64 217 -76q65 -7 112.5 5t47.5 36q0 9 -5 17t-17.5 15t-25 13t-34.5 13t-40 12t-47.5 13.5t-50.5 14.5q-283 82 -292 297q-6 157 116 242q125 87 307 84q118 0 213 -39q101 -41 142 -74q15 -12 6 -28l-105 -195
q-8 -17 -32 -8l-31 14q-65 37 -147 51q-65 12 -116.5 -2.5t-51.5 -38.5q0 -42 159 -77q182 -38 265.5 -108t87.5 -200q4 -152 -106 -242.5t-292 -88.5q-136 0 -248 36q-122 42 -157 72zM143 1425h219q15 0 25 -10l78 -133l76 133q10 10 24 10h219q22 0 9 -16l-197 -285
q-8 -14 -27 -14h-211q-18 0 -26 14l-197 285q-13 16 8 16z" />
    <glyph glyph-name="uni0162" unicode="&#x162;" horiz-adv-x="1134" 
d="M723 1401v-1383q0 -18 -18 -18h-275q-20 0 -20 18v1383q0 18 20 18h275q18 0 18 -18zM41 1141v260q0 18 20 18h1014q21 0 21 -18v-260q0 -21 -23 -21h-1014q-18 0 -18 21z" />
    <glyph glyph-name="uni0163" unicode="&#x163;" horiz-adv-x="706" 
d="M606 313q22 13 25 -2l71 -231q3 -24 -2 -29q-34 -28 -99 -49t-132 -20q-137 0 -217 89t-80 242l4 971q0 19 21 19l256 2q16 0 16 -19v-784q0 -115 10 -166q6 -28 18.5 -37.5t37.5 -9.5q9 0 39 12t32 12zM41 735v242q0 18 20 18h582q21 0 21 -18v-242q0 -18 -21 -18h-582
q-20 0 -20 18z" />
    <glyph glyph-name="Tcaron" unicode="&#x164;" horiz-adv-x="1134" 
d="M412 18v1102h-353q-18 0 -18 19v262q0 20 20 20h1014q19 0 19 -20v-260q0 -21 -19 -21h-350v-1102q0 -18 -20 -18h-275q-18 0 -18 18zM473 1749l94 -86l92 86q10 10 27 10h238q24 0 8 -16l-238 -227q-12 -15 -30 -15h-195q-16 0 -31 15l-235 227q-16 16 8 16h238
q7 0 24 -10z" />
    <glyph glyph-name="tcaron" unicode="&#x165;" horiz-adv-x="892" 
d="M471 717l-2 -213q0 -117 10 -168q6 -29 18.5 -38t37.5 -9q11 0 41 12l30 12q21 12 29 -8l67 -225q9 -26 -8 -33q-33 -26 -95.5 -46t-129.5 -19q-137 0 -216.5 89.5t-78.5 241.5v404h-113q-20 0 -20 18v242q0 20 20 20h113l2 287q0 21 19 21h256q20 0 20 -21v-287h172
q21 0 21 -20v-242q0 -18 -21 -18h-172zM649 1247q-4 0 -6 2q-76 34 -76 129q0 63 38.5 102.5t101.5 39.5q61 1 100 -39t41 -103q6 -120 -74 -209t-176 -92q-20 0 -23 8l-38 78q-9 16 4 19q72 20 108 65z" />
    <glyph glyph-name="Tbar" unicode="&#x166;" horiz-adv-x="1134" 
d="M1094 1401v-260q0 -21 -19 -21h-350v-309h176q21 0 21 -18v-97q0 -18 -21 -18h-176v-660q0 -18 -20 -18h-275q-18 0 -18 18v660h-179q-18 0 -18 18v97q0 18 18 18h179v309h-353q-18 0 -18 19v262q0 20 20 20h1014q19 0 19 -20z" />
    <glyph glyph-name="tbar" unicode="&#x167;" horiz-adv-x="704" 
d="M608 455h-137v-11q2 -93 14 -124t50 -31q11 0 41 12l30 12q21 12 29 -8l67 -225q9 -26 -8 -33q-33 -26 -95.5 -46t-129.5 -19q-137 0 -216.5 89.5t-78.5 241.5v142h-111q-20 0 -20 18v96q0 19 20 19h111v129h-113q-20 0 -20 18v242q0 20 20 20h113l2 287q0 21 19 21h256
q20 0 20 -21v-287h172q21 0 21 -20v-242q0 -18 -21 -18h-172v-129h137q19 0 19 -19v-96q0 -18 -19 -18z" />
    <glyph glyph-name="Utilde" unicode="&#x168;" horiz-adv-x="937" 
d="M-98 557v844q0 18 20 18h275q18 0 18 -18v-846q0 -117 70.5 -188.5t185.5 -71.5t183.5 71.5t66.5 188.5v846q0 18 20 18h275q20 0 20 -18v-846q0 -274 -166 -424q-165 -149 -401 -149q-233 0 -401 151q-166 150 -166 424zM242 1518q-12 -27 -27 -9l-76 82q-7 17 -4 23
q29 83 88 135.5t117 52.5q38 0 69 -16t52 -38.5t40 -44.5t41.5 -37t47.5 -13q71 0 106 92q5 11 11.5 13t11.5 -5l78 -84q9 -13 6 -16q-26 -86 -85 -139.5t-122 -53.5q-38 0 -70 16t-53 38.5t-39.5 45t-40.5 38.5t-47 16q-70 -3 -104 -96z" />
    <glyph glyph-name="utilde" unicode="&#x169;" horiz-adv-x="1155" 
d="M793 20l-21 76q-127 -121 -317 -121q-161 0 -260 123t-99 324v553q0 20 21 20h258q22 0 22 -20v-483q0 -236 176 -236q75 2 124 63.5t55 188.5v467q0 22 22 22h256q21 0 21 -20l2 -957q0 -20 -23 -20h-211q-20 0 -26 20zM362 1137q-12 -24 -26 -7l-70 78q-11 11 -8 19
q26 80 83 130t116 50q45 0 80 -22.5t53.5 -49t44.5 -49t55 -22.5q69 3 103 90q6 21 22 8l74 -80q9 -9 6 -18q-24 -80 -81 -130.5t-118 -50.5q-36 0 -65.5 15t-49 36t-37 42t-39 36t-44.5 15q-72 -3 -99 -90z" />
    <glyph glyph-name="Umacron" unicode="&#x16a;" horiz-adv-x="1400" 
d="M133 557v844q0 18 21 18h274q18 0 18 -18v-846q0 -117 70.5 -188.5t185.5 -71.5t183.5 71.5t66.5 188.5v846q0 18 21 18h274q21 0 21 -18v-846q0 -274 -166 -424q-165 -149 -402 -149q-233 0 -401 151q-166 150 -166 424zM430 1724h543q18 0 18 -20v-156q0 -18 -18 -18
h-543q-22 0 -22 18v156q0 20 22 20z" />
    <glyph glyph-name="umacron" unicode="&#x16b;" horiz-adv-x="1155" 
d="M793 20l-21 76q-127 -121 -317 -121q-161 0 -260 123t-99 324v553q0 20 21 20h258q22 0 22 -20v-483q0 -236 176 -236q75 2 124 63.5t55 188.5v467q0 22 22 22h256q21 0 21 -20l2 -957q0 -20 -23 -20h-211q-20 0 -26 20zM305 1378h531q26 -3 26 -26v-154q0 -27 -26 -27
h-531q-26 0 -26 25v156q0 23 26 26z" />
    <glyph glyph-name="Ubreve" unicode="&#x16c;" horiz-adv-x="1400" 
d="M133 557v844q0 18 21 18h274q18 0 18 -18v-846q0 -117 70.5 -188.5t185.5 -71.5t183.5 71.5t66.5 188.5v846q0 18 21 18h274q21 0 21 -18v-846q0 -274 -166 -424q-165 -149 -402 -149q-233 0 -401 151q-166 150 -166 424zM836 1778l143 2q18 0 18 -19q-4 -129 -83 -198.5
t-216 -69.5q-132 0 -210.5 69.5t-84.5 198.5q0 19 19 19h145q19 0 19 -19q5 -38 37.5 -66t74.5 -28q46 0 79 27.5t38 66.5q0 17 21 17z" />
    <glyph glyph-name="ubreve" unicode="&#x16d;" horiz-adv-x="1155" 
d="M793 20l-21 76q-127 -121 -317 -121q-161 0 -260 123t-99 324v553q0 20 21 20h258q22 0 22 -20v-483q0 -236 176 -236q75 2 124 63.5t55 188.5v467q0 22 22 22h256q21 0 21 -20l2 -957q0 -20 -23 -20h-211q-20 0 -26 20zM698 1401h146q18 0 18 -21q-5 -134 -86 -214.5
t-211 -80.5q-129 0 -210 80.5t-87 214.5q0 21 21 21h143q18 0 21 -21q5 -50 35 -80t77 -30q45 0 78 30.5t39 79.5q3 21 16 21z" />
    <glyph glyph-name="Uring" unicode="&#x16e;" horiz-adv-x="1400" 
d="M133 557v844q0 18 21 18h274q18 0 18 -18v-846q0 -117 70.5 -188.5t185.5 -71.5t183.5 71.5t66.5 188.5v846q0 18 21 18h274q21 0 21 -18v-846q0 -274 -166 -424q-165 -149 -402 -149q-233 0 -401 151q-166 150 -166 424zM502 1653q0 88 54 141t144 53q91 0 145 -53
t54 -141q0 -91 -54 -146t-145 -55q-90 0 -144 55t-54 146zM641 1651q0 -62 59 -62q60 0 60 62q0 59 -60 59q-59 0 -59 -59z" />
    <glyph glyph-name="uring" unicode="&#x16f;" horiz-adv-x="1155" 
d="M793 20l-21 76q-127 -121 -317 -121q-161 0 -260 123t-99 324v553q0 20 21 20h258q22 0 22 -20v-483q0 -236 176 -236q75 2 124 63.5t55 188.5v467q0 22 22 22h256q21 0 21 -20l2 -957q0 -20 -23 -20h-211q-20 0 -26 20zM371 1255q0 88 54 142.5t144 54.5t144.5 -54.5
t54.5 -142.5q0 -91 -54 -145.5t-145 -54.5t-144.5 54.5t-53.5 145.5zM510 1253q0 -28 18.5 -44.5t41 -16.5t41 16.5t18.5 44.5q0 60 -60 60q-59 0 -59 -60z" />
    <glyph glyph-name="Uhungarumlaut" unicode="&#x170;" horiz-adv-x="1400" 
d="M133 557v844q0 18 21 18h274q18 0 18 -18v-846q0 -117 70.5 -188.5t185.5 -71.5t183.5 71.5t66.5 188.5v846q0 18 21 18h274q21 0 21 -18v-846q0 -274 -166 -424q-165 -149 -402 -149q-233 0 -401 151q-166 150 -166 424zM891 1839l145 -98q18 -15 6 -29l-208 -266
q-14 -14 -27 -4l-98 74q-15 12 -7 26l160 287q9 20 29 10zM571 1839l154 -98q17 -13 4 -29l-209 -266q-13 -13 -26 -4l-101 71q-16 16 -8 29l160 289q11 17 26 8z" />
    <glyph glyph-name="uhungarumlaut" unicode="&#x171;" horiz-adv-x="1155" 
d="M793 20l-21 76q-127 -121 -317 -121q-161 0 -260 123t-99 324v553q0 20 21 20h258q22 0 22 -20v-483q0 -236 176 -236q75 2 124 63.5t55 188.5v467q0 22 22 22h256q21 0 21 -20l2 -957q0 -20 -23 -20h-211q-20 0 -26 20zM766 1417l139 -94q15 -12 6 -27l-198 -254
q-12 -16 -27 -4l-92 72q-15 9 -6 25l151 272q10 20 27 10zM463 1417l145 -94q16 -15 4 -27l-198 -254q-8 -14 -25 -4l-94 70q-19 9 -8 27l151 274q10 17 25 8z" />
    <glyph glyph-name="Uogonek" unicode="&#x172;" horiz-adv-x="1400" 
d="M133 557v844q0 18 21 18h274q18 0 18 -18v-846q0 -117 70.5 -188.5t185.5 -71.5t183.5 71.5t66.5 188.5v846q0 18 21 18h274q21 0 21 -18v-846q0 -274 -166 -424q-165 -149 -402 -149q-233 0 -401 151q-166 150 -166 424zM838 -358q-26 -35 -83 -57.5t-114 -22.5
q-111 0 -170 54.5t-61 152.5q0 96 92 194q96 90 186 154l90 -115l-135 -141q-53 -65 -12 -105q19 -19 46 -17t46 25q11 14 14 0l103 -102q9 -9 -2 -20z" />
    <glyph glyph-name="uogonek" unicode="&#x173;" horiz-adv-x="1153" 
d="M793 20l-21 76q-127 -121 -317 -121q-161 0 -260 123t-99 324v553q0 20 21 20h258q22 0 22 -20v-483q0 -236 176 -236q75 2 124 63.5t55 188.5v467q0 22 22 22h256q21 0 21 -20l2 -957q0 -20 -23 -20h-211q-20 0 -26 20zM1104 -352q-26 -35 -83 -57.5t-114 -22.5
q-111 0 -170 54.5t-61 152.5q0 96 92 194q96 90 186 154l93 -115l-138 -143q-55 -64 -10 -103q17 -19 45 -17t45 26q9 9 17 0l100 -105q8 -8 -2 -18z" />
    <glyph glyph-name="Wcircumflex" unicode="&#x174;" horiz-adv-x="1972" 
d="M418 16l-416 1385q-6 20 14 20h277q18 0 24 -18l250 -920l273 920q6 18 24 18h242q13 0 22 -18l279 -930l254 934q0 14 18 14h277q20 0 14 -20l-418 -1385q-3 -16 -22 -16h-236q-19 0 -22 16l-287 1012l-287 -1012q-3 -16 -20 -16h-240q-17 0 -20 16zM893 1769h184
q14 0 31 -10l225 -219q17 -14 -8 -14h-225q-10 0 -27 10l-86 80l-90 -80q-17 -10 -23 -10h-227q-23 0 -6 14l223 219q17 10 29 10z" />
    <glyph glyph-name="wcircumflex" unicode="&#x175;" horiz-adv-x="1411" 
d="M1128 0h-274q-20 0 -23 16l-129 539l-129 -539q-3 -16 -22 -16h-264q-19 0 -25 16l-262 961q-3 20 14 20h293q18 0 21 -18l106 -543l144 543q3 18 20 18h215q16 0 25 -18l141 -586l102 586q3 18 19 18h295q23 0 14 -20l-256 -961q-6 -16 -25 -16zM604 1096h-219
q-21 0 -8 16l196 287q7 11 27 14h211q19 0 27 -14l196 -287q13 -16 -8 -16h-219q-16 0 -25 12l-75 131l-78 -131q-9 -12 -25 -12z" />
    <glyph glyph-name="Ycircumflex" unicode="&#x176;" horiz-adv-x="1298" 
d="M492 18v547l-488 830q-15 24 14 24h287q17 0 27 -16l317 -565l318 565q10 16 26 16h287q29 0 14 -24l-489 -830v-547q0 -18 -21 -18h-272q-20 0 -20 18zM737 1528l-88 80l-88 -80q-17 -10 -24 -10h-226q-22 0 -8 14l225 219q17 10 29 10h184q19 0 29 -10l227 -219
q14 -14 -8 -14h-225q-10 0 -27 10z" />
    <glyph glyph-name="ycircumflex" unicode="&#x177;" horiz-adv-x="1058" 
d="M774 997h264q28 0 19 -26l-547 -1420q-9 -18 -27 -18h-266q-12 0 -17.5 8t-0.5 19l174 448l-371 963q-10 23 14 26h275q18 0 24 -18l201 -600l232 600q9 18 26 18zM201 1094l196 286q8 12 27 15h211q18 0 27 -15l196 -286q14 -17 -8 -17h-219q-15 0 -25 13l-76 131
l-77 -131q-10 -13 -25 -13h-219q-22 0 -8 17z" />
    <glyph glyph-name="Ydieresis" unicode="&#x178;" horiz-adv-x="1298" 
d="M492 18v547l-488 830q-15 24 14 24h287q17 0 27 -16l317 -565l318 565q10 16 26 16h287q29 0 14 -24l-489 -830v-547q0 -18 -21 -18h-272q-20 0 -20 18zM350 1634q0 63 37.5 101.5t99.5 38.5t100 -38.5t38 -101.5q0 -61 -39 -99t-99 -38q-61 0 -99 37.5t-38 99.5z
M670 1634q0 63 37 101.5t100 38.5q62 0 99.5 -38.5t37.5 -101.5q0 -62 -38 -99.5t-99 -37.5q-63 0 -100 37.5t-37 99.5z" />
    <glyph glyph-name="Zacute" unicode="&#x179;" horiz-adv-x="1255" 
d="M1178 1386l-619 -1091h588q20 0 20 -21v-254q0 -20 -20 -20h-1051q-38 0 -18 33l618 1093h-520q-20 0 -20 19v256q0 20 20 20h983q40 0 19 -35zM793 1841l104 -176q6 -6 3 -16t-11 -15l-400 -186q-21 -9 -30 6l-58 94q-9 14 7 27l350 270q20 17 35 -4z" />
    <glyph glyph-name="zacute" unicode="&#x17a;" horiz-adv-x="946" 
d="M862 0h-784q-24 0 -15 25l355 692h-314q-18 0 -18 18v242q0 20 18 20h766q27 0 9 -34l-351 -682h334q19 0 19 -21v-240q0 -20 -19 -20zM651 1477l127 -160q16 -16 -4 -31l-368 -242q-16 -12 -31 3l-70 88q-9 13 2 24l309 318q16 19 35 0z" />
    <glyph glyph-name="Zdotaccent" unicode="&#x17b;" horiz-adv-x="1255" 
d="M1178 1386l-619 -1091h588q20 0 20 -21v-254q0 -20 -20 -20h-1051q-38 0 -18 33l618 1093h-520q-20 0 -20 19v256q0 20 20 20h983q40 0 19 -35zM526 1647q0 57 35 92t94 35q60 0 95.5 -35t35.5 -92q0 -60 -35.5 -95.5t-95.5 -35.5q-57 0 -93 36t-36 95z" />
    <glyph glyph-name="zdotaccent" unicode="&#x17c;" horiz-adv-x="946" 
d="M862 0h-784q-24 0 -15 25l355 692h-314q-18 0 -18 18v242q0 20 18 20h766q27 0 9 -34l-351 -682h334q19 0 19 -21v-240q0 -20 -19 -20zM473 1399q63 0 100 -36.5t37 -98.5t-37 -100t-100 -38q-61 0 -99 38t-38 100q0 61 37.5 98t99.5 37z" />
    <glyph glyph-name="Zcaron" unicode="&#x17d;" horiz-adv-x="1255" 
d="M1178 1386l-619 -1091h588q20 0 20 -21v-254q0 -20 -20 -20h-1051q-38 0 -18 33l618 1093h-520q-20 0 -20 19v256q0 20 20 20h983q40 0 19 -35zM535 1749l94 -86l92 86q10 10 27 10h237q24 0 8 -16l-237 -227q-12 -15 -31 -15h-195q-15 0 -30 15l-236 227q-16 16 8 16
h238q8 0 25 -10z" />
    <glyph glyph-name="zcaron" unicode="&#x17e;" horiz-adv-x="946" 
d="M860 0h-784q-24 0 -15 25l355 692h-314q-18 0 -18 18v242q0 20 18 20h766q27 0 9 -34l-351 -682h334q19 0 19 -21v-240q0 -20 -19 -20zM164 1419h219q15 0 25 -10l77 -133l76 133q10 10 25 10h219q21 0 8 -16l-197 -285q-8 -14 -26 -14h-211q-19 0 -27 14l-196 285
q-13 16 8 16z" />
    <glyph glyph-name="longs" unicode="&#x17f;" horiz-adv-x="641" 
d="M406 1067v-1047q0 -20 -21 -20h-260q-21 0 -21 20l-2 1074q0 219 85.5 313t261.5 94q83 0 156.5 -28t109.5 -62q13 -13 6 -29l-88 -211q-10 -17 -29 -4q-62 39 -102 39q-51 0 -73.5 -30.5t-22.5 -108.5z" />
    <glyph glyph-name="florin" unicode="&#x192;" horiz-adv-x="997" 
d="M1071 1358l-147 -172q-16 -16 -33 -6q-3 2 -15 11t-20.5 14.5t-21 10.5t-23.5 5q-44 0 -53 -64l-23 -160h139q8 0 15 -6.5t6 -13.5l-33 -240q-3 -20 -20 -20h-146l-73 -529q-21 -149 -127 -239q-104 -91 -245 -99t-292 62q-8 2 -11 12.5t3 18.5l123 209q9 15 24 6
q100 -50 170.5 -11t87.5 154l58 416h-150q-23 0 -20 20l37 240q0 20 20 20h152l24 170q18 140 105 236q85 98 202 98q158 0 289 -104q19 -15 -2 -39z" />
    <glyph glyph-name="uni0218" unicode="&#x218;" horiz-adv-x="1218" 
d="M80 152q-14 9 -4 26l135 242q14 20 33 4q49 -41 159 -88q110 -43 224 -43q88 0 147.5 30.5t59.5 82.5q0 109 -248 149q-259 43 -381.5 144.5t-128.5 285.5q-6 202 141 328q148 130 397 127q161 -3 285 -49q125 -46 170 -88q16 -9 6 -29l-108 -248q-9 -18 -29 -6
q-160 106 -336 106q-91 0 -151 -34t-60 -82q0 -50 52.5 -78.5t197.5 -59.5q262 -57 381 -160t125 -294q6 -188 -146 -316q-149 -125 -401 -122q-173 3 -319 61q-150 63 -201 111zM567 -322q-3 0 -6 3q-76 34 -76 129q0 63 38.5 102t101.5 39q61 1 100 -38.5t41 -102.5
q6 -120 -74 -209q-81 -90 -176 -93q-19 0 -22 9l-39 77q-9 16 4 19q72 20 108 65z" />
    <glyph glyph-name="uni0219" unicode="&#x219;" horiz-adv-x="944" 
d="M76 90q-16 13 -6 29l100 205q9 18 31 8q122 -64 217 -76q65 -7 112.5 5t47.5 36q0 9 -5 17t-17.5 15t-25 13t-34.5 13t-40 12t-47.5 13.5t-50.5 14.5q-283 82 -292 297q-6 157 116 242q125 87 307 84q118 0 213 -39q101 -41 142 -74q15 -12 6 -28l-105 -195
q-8 -17 -32 -8l-31 14q-65 37 -147 51q-65 12 -116.5 -2.5t-51.5 -38.5q0 -42 159 -77q182 -38 265.5 -108t87.5 -200q4 -152 -106 -242.5t-292 -88.5q-136 0 -248 36q-122 42 -157 72zM426 -322l-2 3h-4q-76 34 -76 129q0 63 38 102t101 39q61 1 100.5 -38.5t41.5 -102.5
q6 -120 -74 -209q-81 -90 -176 -93q-20 0 -23 9l-39 77q-9 16 4 19q73 20 109 65z" />
    <glyph glyph-name="uni021A" unicode="&#x21a;" horiz-adv-x="1134" 
d="M412 18v1102h-353q-18 0 -18 19v262q0 20 20 20h1014q19 0 19 -20v-260q0 -21 -19 -21h-350v-1102q0 -18 -20 -18h-275q-18 0 -18 18zM502 -322q-3 0 -6 3q-76 34 -76 129q0 63 38 102t101 39q61 1 100 -38.5t41 -102.5q6 -121 -73 -209q-81 -90 -176 -93q-20 0 -23 9
l-39 77q-9 16 4 19q73 20 109 65z" />
    <glyph glyph-name="uni021B" unicode="&#x21b;" horiz-adv-x="706" 
d="M471 717l-2 -213q0 -117 10 -168q6 -29 18.5 -38t37.5 -9q11 0 41 12l30 12q21 12 29 -8l67 -225q9 -26 -8 -33q-33 -26 -95.5 -46t-129.5 -19q-137 0 -216.5 89.5t-78.5 241.5v404h-113q-20 0 -20 18v242q0 20 20 20h113l2 287q0 21 19 21h256q20 0 20 -21v-287h172
q21 0 21 -20v-242q0 -18 -21 -18h-172zM295 -322l-2 3h-4q-76 34 -76 129q0 63 38 102t101 39q61 1 100.5 -38.5t41.5 -102.5q6 -120 -74 -209q-81 -90 -176 -93q-20 0 -23 9l-39 77q-9 16 4 19q73 20 109 65z" />
    <glyph glyph-name="uni0237" unicode="&#x237;" horiz-adv-x="548" 
d="M178 -86l-2 1063q0 20 21 20l260 -2q18 0 18 -20l2 -1098q2 -169 -83.5 -266.5t-239.5 -97.5q-158 0 -246 88q-13 13 -4 28l90 217q16 28 37 7q36 -33 75 -33q37 0 54 21.5t18 72.5z" />
    <glyph glyph-name="circumflex" unicode="&#x2c6;" horiz-adv-x="747" 
d="M45 1122l197 287q8 11 26 14h211q19 0 27 -14l196 -287q13 -16 -8 -16h-219q-15 0 -24 12l-76 131l-78 -131q-9 -12 -25 -12h-219q-21 0 -8 16z" />
    <glyph glyph-name="caron" unicode="&#x2c7;" horiz-adv-x="747" 
d="M53 1421h219q15 0 25 -10l78 -133l76 133q10 10 24 10h219q21 0 8 -16l-196 -285q-8 -14 -27 -14h-211q-18 0 -26 14l-197 285q-13 16 8 16z" />
    <glyph glyph-name="uni02C9" unicode="&#x2c9;" horiz-adv-x="665" 
d="M61 1425h543q21 0 21 -20v-145q0 -21 -21 -21h-543q-20 0 -20 21v145q0 20 20 20z" />
    <glyph glyph-name="breve" unicode="&#x2d8;" horiz-adv-x="675" 
d="M471 1419h145q19 0 19 -18q-4 -133 -86 -214t-213 -83q-128 2 -208.5 83t-86.5 214q0 18 18 18h146q15 0 18 -18q6 -49 37.5 -80t75.5 -31q47 0 79 30.5t38 80.5q3 18 18 18z" />
    <glyph glyph-name="dotaccent" unicode="&#x2d9;" horiz-adv-x="415" 
d="M203 1470q63 0 100 -36.5t37 -98.5t-37 -99.5t-100 -37.5q-61 0 -99 38t-38 99t37.5 98t99.5 37z" />
    <glyph glyph-name="ring" unicode="&#x2da;" horiz-adv-x="479" 
d="M41 1300q0 88 55.5 143.5t143.5 55.5q91 0 143 -55q55 -52 55 -144q0 -90 -55 -145q-53 -53 -143 -53q-91 0 -145 53.5t-54 144.5zM240 1239q59 0 59 61q0 38 -37 54.5t-65 -11.5t-12.5 -66t55.5 -38z" />
    <glyph glyph-name="ogonek" unicode="&#x2db;" horiz-adv-x="516" 
d="M469 -360q-26 -35 -83.5 -57.5t-115.5 -22.5q-106 1 -166.5 59.5t-62.5 147.5q-7 63 68 161q15 18 49 52l49 43l59 49l53 43l93 -115l-138 -141q-56 -65 -12 -105q18 -19 43.5 -18t42.5 24q11 19 21 2l102 -102q7 -7 -2 -20z" />
    <glyph glyph-name="tilde" unicode="&#x2dc;" horiz-adv-x="753" 
d="M150 1178q-12 -27 -27 -9l-74 82q-11 8 -8 21q29 84 88 136t121 52q38 0 69 -15.5t51 -37t38 -43.5t40 -37.5t48 -15.5q71 3 108 94q9 22 23 8l78 -84q9 -9 6 -18q-26 -84 -86 -137.5t-123 -53.5q-37 0 -68.5 15.5t-52.5 38t-40 45t-41 38t-46 15.5q-70 -3 -104 -94z" />
    <glyph glyph-name="hungarumlaut" unicode="&#x2dd;" horiz-adv-x="745" 
d="M549 1505l145 -98q18 -15 6 -29l-208 -266q-12 -16 -27 -4l-98 74q-15 15 -7 26l160 287q9 20 29 10zM229 1505l154 -98q17 -13 4 -29l-209 -266q-13 -13 -26 -4l-101 72q-15 16 -8 28l160 289q11 17 26 8z" />
    <glyph glyph-name="uni0313" unicode="&#x313;" horiz-adv-x="458" 
d="M111 -322l-2 3h-5q-75 34 -75 129q0 63 38 102t101 39q61 1 100 -38.5t41 -102.5q6 -121 -73 -209q-81 -90 -177 -93q-19 0 -22 9l-39 77q-9 16 4 19q73 20 109 65z" />
    <glyph glyph-name="uni0394" unicode="&#x394;" horiz-adv-x="1347" 
d="M729 1384l-541 -1364l-2 -2q-6 -18 -26 -18h-109q-29 0 -20 27l561 1372q9 20 29 20h106zM621 1419h106h-2q22 0 31 -20l559 -1368q9 -31 -21 -31h-92q-22 0 -28 20l-553 1364v35zM1210 0h-1063v135h1063v-135z" />
    <glyph glyph-name="uni03A9" unicode="&#x3a9;" horiz-adv-x="1632" 
d="M1409 317l145 2q8 0 17.5 -9t9.5 -19v-262q0 -8 -10 -18.5t-17 -10.5h-532q-21 0 -18 20v293q98 40 159 150q64 113 64 248q0 189 -115 307q-114 117 -295 117q-184 0 -301 -117q-115 -118 -115 -307q0 -127 70 -240q71 -111 176 -152v-299q-6 -20 -20 -20h-533
q-7 0 -15.5 8.5t-8.5 16.5v270q0 7 8 15.5t16 8.5h125q-131 168 -131 392q0 329 199 528q201 201 530 201q325 0 526 -201q200 -200 203 -528q0 -226 -137 -394z" />
    <glyph glyph-name="uni03BC" unicode="&#x3bc;" horiz-adv-x="1161" 
d="M367 -465h-230q-35 0 -35 37v1403q0 20 21 20h260q20 0 20 -20v-483q0 -236 177 -236q75 2 123.5 63t54.5 189v467q0 22 22 22h256q23 0 23 -20v-957q0 -20 -21 -20h-217q-16 0 -22 20l-21 76q-127 -121 -315 -121q-7 0 -16.5 1t-23 2t-22.5 2v-408q0 -37 -34 -37z" />
    <glyph glyph-name="pi" unicode="&#x3c0;" horiz-adv-x="1089" 
d="M20 737v236q0 24 23 24h1004q22 0 22 -24v-236q0 -22 -20 -22h-82v-695q0 -20 -19 -20h-243q-21 0 -21 20v695h-276v-695q0 -20 -21 -20h-244q-18 0 -18 20v695h-82q-23 0 -23 22z" />
    <glyph glyph-name="Wgrave" unicode="&#x1e80;" horiz-adv-x="1972" 
d="M418 16l-416 1385q-6 20 14 20h277q18 0 24 -18l250 -920l273 920q6 18 24 18h242q13 0 22 -18l279 -930l254 934q0 14 18 14h277q20 0 14 -20l-418 -1385q-3 -16 -22 -16h-236q-19 0 -22 16l-287 1012l-287 -1012q-3 -16 -20 -16h-240q-17 0 -20 16zM1085 1462l-399 187
q-26 12 -8 30l104 176q10 23 35 7l350 -271q16 -13 7 -28l-58 -95q-9 -18 -31 -6z" />
    <glyph glyph-name="wgrave" unicode="&#x1e81;" horiz-adv-x="1411" 
d="M340 0l-8 47l243 932q6 16 23 16h176q36 0 27 -34l-226 -943q-3 -18 -24 -18h-211zM514 25l-10 -25h-217q-23 0 -23 16l-264 963q-3 16 14 16h291q20 0 23 -16zM934 0l-19 23l166 956q0 16 23 16h291q20 0 14 -18l-256 -959q-6 -18 -25 -18h-194zM1059 63v-63h-205
q-20 0 -23 18l-217 916q0 34 -10 61h39h170q22 0 25 -16zM743 1036l-366 242q-8 6 -10 16t4 15l129 159q15 22 37 0l309 -317q12 -12 2 -25l-72 -88q-11 -11 -33 -2z" />
    <glyph glyph-name="Wacute" unicode="&#x1e82;" horiz-adv-x="1972" 
d="M418 16l-416 1385q-6 20 14 20h277q18 0 24 -18l250 -920l273 920q6 18 24 18h242q13 0 22 -18l279 -930l254 934q0 14 18 14h277q20 0 14 -20l-418 -1385q-3 -16 -22 -16h-236q-19 0 -22 16l-287 1012l-287 -1012q-3 -16 -20 -16h-240q-17 0 -20 16zM1094 1841l104 -176
q6 -6 3 -16t-11 -15l-399 -186q-22 -9 -31 6l-58 94q-9 14 7 27l350 270q20 17 35 -4z" />
    <glyph glyph-name="wacute" unicode="&#x1e83;" horiz-adv-x="1411" 
d="M1128 0h-274q-20 0 -23 16l-129 539l-129 -539q-3 -16 -22 -16h-264q-19 0 -25 16l-262 961q-3 20 14 20h293q18 0 21 -18l106 -543l144 543q3 18 20 18h215q16 0 25 -18l141 -586l102 586q3 18 19 18h295q23 0 14 -20l-256 -961q-6 -16 -25 -16zM838 1477l129 -160
q5 -6 4 -16.5t-8 -14.5l-371 -242q-16 -12 -31 3l-69 86q-10 10 2 26l309 318q16 16 35 0z" />
    <glyph glyph-name="Wdieresis" unicode="&#x1e84;" horiz-adv-x="1972" 
d="M418 16l-416 1385q-6 20 14 20h277q18 0 24 -18l250 -920l273 920q6 18 24 18h242q13 0 22 -18l279 -930l254 934q0 14 18 14h277q20 0 14 -20l-418 -1385q-3 -16 -22 -16h-236q-19 0 -22 16l-287 1012l-287 -1012q-3 -16 -20 -16h-240q-17 0 -20 16zM690 1634
q0 63 37 101.5t100 38.5q61 0 98.5 -38.5t37.5 -101.5q0 -61 -38 -99t-98 -38q-63 0 -100 37.5t-37 99.5zM1008 1634q0 63 38 101.5t101 38.5q61 0 98 -38.5t37 -101.5q0 -62 -37 -99.5t-98 -37.5q-63 0 -101 37.5t-38 99.5z" />
    <glyph glyph-name="wdieresis" unicode="&#x1e85;" horiz-adv-x="1411" 
d="M1128 0h-274q-20 0 -23 16l-129 539l-129 -539q-3 -16 -22 -16h-264q-19 0 -25 16l-262 961q-3 20 14 20h293q18 0 21 -18l106 -543l144 543q3 18 20 18h215q16 0 25 -18l141 -586l102 586q3 18 19 18h295q23 0 14 -20l-256 -961q-6 -16 -25 -16zM406 1227q0 63 37 100
t100 37q62 0 98 -39q38 -37 38 -99t-38 -100q-36 -39 -98 -39q-61 0 -99 39t-38 101zM723 1227q0 63 38 100t101 37q62 0 99.5 -38t37.5 -99q0 -62 -38 -101t-99 -39q-63 0 -101 39t-38 101z" />
    <glyph glyph-name="LatinCapitalLetterSharpS" unicode="&#x1e9e;" horiz-adv-x="1300" 
d="M717 291q44 -33 98 -33q45 4 65.5 25t20.5 45q0 35 -39 84.5t-98 97.5q-57 53 -97 125t-40 145q0 67 71 162q72 97 72 133q0 92 -117 92q-110 0 -156 -80t-48 -272v-792q0 -23 -27 -23h-262q-27 0 -27 25v950q0 225 139 346q138 120 365 123q196 -3 319 -103
q125 -98 125 -266q0 -86 -82 -168t-88 -131q0 -27 23 -53.5t57 -47.5t74 -53t74 -67.5t57 -93.5t23 -129q0 -174 -113 -281q-112 -106 -297 -106q-93 0 -209 55q-19 9 -10 35l100 248q6 23 27 8z" />
    <glyph glyph-name="endash" unicode="&#x2013;" horiz-adv-x="1185" 
d="M182 725h817q27 0 27 -25v-204q0 -25 -27 -25h-817q-26 0 -26 25v204q0 25 26 25z" />
    <glyph glyph-name="emdash" unicode="&#x2014;" horiz-adv-x="1730" 
d="M182 725h1366q27 0 27 -25v-204q0 -25 -27 -25h-1366q-26 0 -26 25v204q0 25 26 25z" />
    <glyph glyph-name="quoteleft" unicode="&#x2018;" horiz-adv-x="405" 
d="M281 1483l100 -78q15 -9 -4 -25q-120 -99 -154 -215q6 0 8 -2q51 -13 80 -53.5t29 -97.5q0 -72 -44 -117t-116 -45q-68 0 -111.5 43t-48.5 113q-9 139 66 286q74 145 168 197q11 7 27 -6z" />
    <glyph glyph-name="quoteright" unicode="&#x2019;" horiz-adv-x="405" 
d="M125 862l-100 78q-17 10 4 25q118 90 153 213q-2 2 -8 2q-51 13 -79.5 53.5t-28.5 97.5q0 73 43.5 117.5t115.5 44.5q69 0 112.5 -42t47.5 -114q9 -139 -66 -286q-71 -145 -165 -197q-14 -4 -29 8z" />
    <glyph glyph-name="quotesinglbase" unicode="&#x201a;" horiz-adv-x="446" 
d="M145 -367l-98 76q-16 12 2 27q119 91 154 213l-2 2h-6q-51 13 -80 53.5t-29 97.5q0 73 44 117.5t116 44.5q69 0 114 -43t46 -112q9 -138 -66 -285q-70 -144 -166 -197q-14 -9 -29 6z" />
    <glyph glyph-name="quotedblleft" unicode="&#x201c;" horiz-adv-x="755" 
d="M281 1483l100 -78q15 -9 -4 -25q-120 -99 -154 -215q6 0 8 -2q51 -13 80 -53.5t29 -97.5q0 -72 -44 -117t-116 -45q-68 0 -111.5 43t-48.5 113q-9 139 66 286q74 145 168 197q11 7 27 -6zM573 1165q7 0 9 -2q50 -14 79 -54t29 -97q0 -72 -44 -117t-116 -45q-68 0 -111 43
t-48 113q-9 141 65 286t168 197q11 7 27 -6l100 -78q15 -9 -4 -25q-120 -99 -154 -215z" />
    <glyph glyph-name="quotedblright" unicode="&#x201d;" horiz-adv-x="755" 
d="M475 862l-98 76q-16 9 2 27q118 90 153 213l-4 2h-4q-51 13 -79.5 53.5t-28.5 97.5q0 73 43.5 117.5t115.5 44.5q69 0 114 -43.5t46 -112.5q9 -141 -65 -286q-70 -144 -166 -197q-15 -6 -29 8zM182 1178q-4 0 -6 2q-51 14 -80.5 54t-29.5 97q0 72 43.5 117t115.5 45
q69 0 114 -43.5t46 -112.5q9 -139 -66 -286q-71 -145 -165 -197q-15 -6 -29 8l-98 76q-16 9 2 27q118 90 153 213z" />
    <glyph glyph-name="quotedblbase" unicode="&#x201e;" horiz-adv-x="796" 
d="M496 -375l-99 78q-16 10 2 25q119 91 154 213q-2 2 -8 2q-109 35 -109 153q0 72 44 117t116 45q69 0 113.5 -44.5t46.5 -113.5q9 -137 -66 -284q-70 -144 -166 -197q-13 -6 -28 6zM203 -59q-2 2 -6 2q-111 30 -111 153q0 72 44 117t116 45q69 0 113.5 -44.5t46.5 -113.5
q9 -137 -66 -284q-70 -144 -166 -197q-13 -7 -29 6l-98 78q-16 10 2 25q119 91 154 213z" />
    <glyph glyph-name="dagger" unicode="&#x2020;" horiz-adv-x="868" 
d="M788 825h-206v-1030q0 -20 -21 -20h-254q-20 0 -20 20v1030h-209q-19 0 -19 19v260q0 18 19 18h209v336q0 21 20 21h254q21 0 21 -21v-336h206q21 0 21 -18v-260q0 -19 -21 -19z" />
    <glyph glyph-name="daggerdbl" unicode="&#x2021;" horiz-adv-x="868" 
d="M287 190h-209q-21 0 -21 19v260q0 18 21 18h209v338h-209q-21 0 -21 19v260q0 18 21 18h209v336q0 21 20 21h254q21 0 21 -21v-336h206q21 0 21 -18v-260q0 -19 -21 -19h-206v-338h206q21 0 21 -18v-260q0 -19 -21 -19h-206v-395q0 -20 -21 -20h-254q-20 0 -20 20v395z
" />
    <glyph glyph-name="bullet" unicode="&#x2022;" horiz-adv-x="768" 
d="M723 664q0 -152 -93 -245t-245 -93t-244 93t-92 245t92 243.5t244 91.5t245 -92.5t93 -242.5z" />
    <glyph glyph-name="ellipsis" unicode="&#x2026;" horiz-adv-x="1617" 
d="M1188 141q0 73 44 117.5t116 44.5q68 3 116 -45q44 -44 44 -116.5t-44 -116.5q-45 -45 -116 -45q-72 0 -116 44.5t-44 116.5zM270 303q69 2 114.5 -44t45.5 -118t-44 -116.5t-116 -44.5q-73 0 -117 44.5t-44 116.5q0 74 44 118t117 44zM813 -20q-73 0 -117.5 44.5
t-44.5 116.5q0 73 44.5 117.5t117.5 44.5q69 2 114.5 -44t45.5 -118t-44 -116.5t-116 -44.5z" />
    <glyph glyph-name="perthousand" unicode="&#x2030;" horiz-adv-x="2457" 
d="M397 750q-167 0 -272 102q-102 102 -102 272q0 171 102 274t272 103t273.5 -103.5t103.5 -273.5t-103 -272t-274 -102zM315 1206q-31 -31 -31 -82t31 -82t82 -31t82 31q32 31 32 82t-32 82q-31 32 -82 32t-82 -32zM1167 436q-31 -31 -31 -82t31 -82q32 -31 83.5 -31
t82.5 31t31 82t-31 82q-31 32 -82.5 32t-83.5 -32zM977 82q-103 103 -103 272q0 170 103 273q104 104 274 104q172 0 273 -104q102 -102 102 -273q0 -170 -102 -272t-273 -102q-169 0 -274 102zM1776 82q-103 103 -103 272q0 170 103 273q104 104 274 104q171 0 272 -104
q103 -103 103 -273q0 -169 -103 -272q-102 -102 -272 -102q-169 0 -274 102zM1966 436q-31 -31 -31 -82t31 -82q32 -31 83.5 -31t82.5 31t31 82t-31 82q-31 32 -82.5 32t-83.5 -32zM270 31l809 1433q9 15 31 15h246q11 0 17.5 -8t2.5 -15l-813 -1442q-8 -14 -31 -14h-241
q-40 0 -21 31z" />
    <glyph glyph-name="guilsinglleft" unicode="&#x2039;" horiz-adv-x="698" 
d="M467 928l127 -125q20 -20 2 -41l-217 -217l217 -217q18 -21 -2 -41l-127 -125q-23 -22 -45 0l-311 319q-17 20 -17 43v41q0 23 17 43l311 320q22 22 45 0z" />
    <glyph glyph-name="guilsinglright" unicode="&#x203a;" horiz-adv-x="698" 
d="M109 803l124 125q26 22 48 0l311 -320q16 -19 16 -43v-41q0 -24 -16 -43l-311 -319q-22 -22 -48 0l-124 125q-22 22 -3 41l218 217l-218 217q-19 19 3 41z" />
    <glyph glyph-name="fraction" unicode="&#x2044;" horiz-adv-x="1112" 
d="M4 31l809 1433q9 15 31 15h248q12 0 16 -10.5t-2 -18.5l-809 -1436q-8 -14 -31 -14h-241q-37 0 -21 31z" />
    <glyph glyph-name="franc" unicode="&#x20a3;" horiz-adv-x="1024" 
d="M446 256v-231q0 -25 -22 -25h-270q-21 0 -21 20v236h-74q-20 0 -20 20v91q0 20 20 20h74v1014q0 20 21 20h827q20 0 20 -20v-262q0 -19 -20 -19h-535v-248h437q20 0 20 -20v-254q0 -20 -20 -20h-437v-191h228q20 0 20 -20v-91q0 -20 -20 -20h-228z" />
    <glyph glyph-name="lira" unicode="&#x20a4;" horiz-adv-x="1069" 
d="M563 281h322q24 0 24 -23v-229q0 -29 -26 -29h-693q-11 0 -17.5 10.5t-2.5 20.5q99 212 127 372h-156q-26 0 -26 31v72q0 31 26 31h164q-3 38 -18 100h-146q-26 0 -26 31v71q0 31 26 31h86q-68 139 -71 274q3 172 123 283q119 113 294 113q226 0 373 -176q12 -16 -2 -33
l-172 -187q-21 -15 -37 7q-76 94 -164 94q-49 0 -79.5 -28t-30.5 -73q0 -40 12 -81q10 -29 43.5 -100t40.5 -93h195q28 0 28 -31v-71q0 -31 -28 -31h-160q8 -36 8 -100h152q28 0 28 -31v-72q0 -31 -28 -31h-162q-2 -31 -27 -122z" />
    <glyph glyph-name="peseta" unicode="&#x20a7;" horiz-adv-x="2293" 
d="M612 510h-247v-490q0 -20 -21 -20h-272q-21 0 -21 20v1379q0 22 23 22h538q209 0 332 -129q122 -128 125 -325q-3 -200 -125 -328q-123 -129 -332 -129zM575 1122l-210 -2v-309h210q80 0 129.5 37t49.5 117t-50.5 119.5t-128.5 37.5zM1116 1305h256q21 0 21 -19v-289h172
q20 0 20 -20v-242q0 -18 -20 -18h-172l-2 -213q0 -129 10 -174q12 -41 55 -41q15 0 43.5 17.5t36.5 25.5q24 17 27 -6l61 -246q3 -26 -2 -29q-32 -27 -98 -48.5t-133 -20.5q-137 0 -216.5 89.5t-78.5 241.5v404h-113q-20 0 -20 18v242q0 20 20 20h113l2 287q0 21 18 21z
M1442 90q-19 9 -6 29l102 209q8 13 27 4q113 -61 219 -76q65 -7 112.5 5t47.5 36q0 9 -5 17t-17.5 15.5t-24.5 13t-35.5 13t-40 12t-47.5 13.5t-50 14q-283 82 -292 297q-6 157 116 242q125 87 307 84q118 0 213 -39q101 -41 142 -74q15 -9 6 -28l-102 -191q-9 -21 -37 -12
q-5 2 -24.5 12.5t-36.5 18.5t-48.5 18t-66.5 16q-65 12 -116.5 -2.5t-51.5 -38.5q0 -42 159 -77q182 -38 265.5 -108t87.5 -200q4 -152 -106 -242.5t-292 -88.5q-136 0 -248 36q-122 42 -157 72z" />
    <glyph glyph-name="Euro" unicode="&#x20ac;" horiz-adv-x="1273" 
d="M913 438l220 -137q14 -9 4 -29q-63 -140 -169 -215t-239 -75q-171 0 -295.5 122t-171.5 336h-153q-27 0 -27 31v72q0 30 27 30h131q-7 75 -7 138v4h-124q-27 0 -27 30v72q0 31 27 31h131q27 271 159 430q131 162 330 162q142 0 253 -86.5t173 -245.5q9 -21 -8 -31
l-227 -139q-22 -13 -29 10q-43 114 -76 155.5t-88 41.5q-63 0 -109 -80.5t-63 -216.5h174q29 0 29 -31v-72q0 -30 -29 -30h-180v-4q0 -73 6 -138h174q29 0 29 -30v-72q0 -31 -29 -31h-147q49 -166 145 -166q89 0 154 158q9 22 32 6z" />
    <glyph glyph-name="uni2113" unicode="&#x2113;" horiz-adv-x="919" 
d="M487 1440q154 0 263 -92q110 -88 110 -279q0 -311 -418 -551q0 -172 22 -247.5t85 -75.5q30 0 47 20q23 23 43 70q20 50 25 55q3 12 18 6l211 -96q14 -9 8 -21q-107 -290 -348 -290q-173 0 -263 116t-118 334l-39 -14q-21 -6 -27 10l-94 219q-9 24 11 27q53 12 133 43
q-3 43 -1 98.5t2.5 117.5t10 126.5t22 125.5t38.5 115t59.5 94.5t85 64.5t114.5 24zM514 1159q-75 -37 -72 -321q102 83 129 161q23 66 18 110t-27.5 51t-47.5 -1z" />
    <glyph glyph-name="trademark" unicode="&#x2122;" horiz-adv-x="1400" 
d="M659 1419l140 -2q21 0 30 -18l142 -269l141 271q9 18 29 18h164q20 0 20 -22v-586q0 -20 -20 -20h-160q-21 0 -21 20v256l-86 -164q-9 -18 -28 -18h-64q-22 0 -31 18l-81 156v-248q0 -20 -21 -20h-164q-20 0 -20 20v575q0 33 30 33zM602 1401v-117q0 -20 -20 -20h-152
v-449q0 -20 -20 -20h-164q-21 0 -21 20v449h-149q-21 0 -21 18v117q0 22 21 22h506q20 0 20 -20z" />
    <glyph glyph-name="Omega" unicode="&#x2126;" horiz-adv-x="1652" 
d="M104 319h125q-133 174 -133 392q0 327 201 528t530 201q326 0 527 -201q200 -200 200 -528q0 -225 -135 -394l146 2q7 0 15.5 -10t8.5 -18v-262q0 -8 -8.5 -18.5t-15.5 -10.5h-533q-20 0 -20 20v293q101 40 162 150q63 111 63 248q0 189 -115 307q-114 117 -295 117
q-187 0 -301 -117t-114 -307q0 -128 69 -240q70 -111 174 -152v-299q-3 -20 -18 -20h-533q-8 0 -17 9t-9 16v270q0 7 9 15.5t17 8.5z" />
    <glyph glyph-name="estimated" unicode="&#x212e;" horiz-adv-x="1824" 
d="M911 70q423 0 602 270q9 12 23 12h94q24 0 15 -20q-101 -180 -297 -283q-192 -98 -437 -98q-356 0 -589 205q-234 206 -234 555t234 555q235 204 589 204q358 0 590 -204q236 -205 236 -555v-25q3 -31 -29 -31h-1309v-417q186 -168 512 -168zM399 1184v-414h1024v414
q-186 168 -512 168t-512 -168z" />
    <glyph glyph-name="partialdiff" unicode="&#x2202;" horiz-adv-x="1103" 
d="M555 1438q432 0 432 -607q0 -244 -53 -444q-44 -183 -155.5 -292t-297.5 -113q-178 0 -286 120q-107 119 -107 304q0 180 115 307q117 126 297 123q143 0 221 -84v79q0 113 -12 175q-18 157 -164 168q-67 0 -137 -52q-18 -15 -31 4l-123 191q-9 16 6 31q122 90 295 90z
M662 377q5 89 -35 142.5t-127 53.5q-67 0 -108.5 -46t-41.5 -121q0 -74 35 -116t96 -42q123 0 181 129z" />
    <glyph glyph-name="increment" unicode="&#x2206;" horiz-adv-x="1347" 
d="M842 1399l485 -1370q10 -29 -20 -29h-1270q-28 0 -19 27l482 1374q6 18 30 18h279q24 0 33 -20zM446 291h482l-250 710z" />
    <glyph glyph-name="product" unicode="&#x220f;" horiz-adv-x="1271" 
d="M854 -250v1290h-457v-1290q0 -22 -20 -22h-262q-21 0 -21 22v1573q0 20 21 20h1022q20 0 20 -20v-1573q0 -22 -20 -22h-263q-20 0 -20 22z" />
    <glyph glyph-name="summation" unicode="&#x2211;" horiz-adv-x="1236" 
d="M74 -244l465 779l-467 780q-16 28 16 28h1047q22 0 22 -24v-256q0 -23 -22 -23h-486l307 -489q13 -17 0 -33l-305 -483h484q22 0 22 -25v-258q0 -29 -24 -26h-1045q-29 0 -14 30z" />
    <glyph glyph-name="minus" unicode="&#x2212;" horiz-adv-x="1185" 
d="M141 725h906q26 0 26 -25v-204q0 -25 -26 -25h-906q-26 0 -26 25v204q0 25 26 25z" />
    <glyph glyph-name="uni2215" unicode="&#x2215;" horiz-adv-x="1112" 
d="M4 31l809 1433q9 15 31 15h250q10 0 14.5 -8.5t-0.5 -18.5l-811 -1438q-8 -14 -31 -14h-241q-37 0 -21 31z" />
    <glyph glyph-name="uni2219" unicode="&#x2219;" horiz-adv-x="538" 
d="M272 717q86 0 140.5 -54.5t54.5 -142.5t-54.5 -142t-140.5 -54q-88 0 -141 54t-53 142t53.5 142.5t140.5 54.5z" />
    <glyph glyph-name="radical" unicode="&#x221a;" horiz-adv-x="1155" 
d="M403 20l-149 611h-193q-28 0 -28 31v215q0 12 8.5 21t19.5 9h396q21 0 24 -18l105 -428l295 997q6 21 28 21h240q20 0 14 -21l-424 -1438q-6 -20 -28 -20h-281q-24 0 -27 20z" />
    <glyph glyph-name="infinity" unicode="&#x221e;" horiz-adv-x="1884" 
d="M942 702q138 191 381 191q205 0 330 -125t125 -330q0 -204 -125 -329t-330 -125q-231 0 -381 190q-150 -190 -381 -190q-205 0 -330 125t-125 329q0 205 125 330t330 125q243 0 381 -191zM561 618q-82 0 -131 -49t-49 -131t49 -131t131 -49q164 0 234 178
q-83 182 -234 182zM1090 436q70 -178 233 -178q82 0 131 49t49 131t-49 131t-131 49q-150 0 -233 -182z" />
    <glyph glyph-name="integral" unicode="&#x222b;" horiz-adv-x="815" 
d="M862 1374l-125 -198q-9 -13 -22 -5q-5 4 -18 14t-21.5 16.5t-21.5 12t-25 5.5q-65 0 -62 -111l2 -586l6 -651q5 -172 -88.5 -264.5t-273.5 -93.5q-63 0 -133.5 24.5t-106.5 52.5q-11 11 -2 27l127 195q10 19 25 4q38 -23 72 -23q42 0 56.5 26t16.5 85l-2 585l-6 676
q-1 161 86.5 246.5t239.5 87.5q148 0 274 -102q11 -8 2 -23z" />
    <glyph glyph-name="approxequal" unicode="&#x2248;" horiz-adv-x="1220" 
d="M879 961q4 13 16.5 16t19.5 -8l140 -146q16 -16 10 -37q-40 -115 -121.5 -189.5t-183.5 -74.5q-66 0 -131.5 28.5t-104.5 67.5q-97 97 -145 97q-33 0 -55 -37l-21 -35q-6 -10 -22 -46.5t-19 -41.5q-9 -28 -33 -4l-141 147q-15 15 -8 41q39 112 120.5 180t184.5 68
q68 0 130.5 -28t100.5 -68q94 -94 150 -94q20 0 37 16.5t26 35t24.5 55.5t25.5 57zM879 469q4 13 16.5 16t19.5 -8l140 -145q16 -16 10 -37q-40 -115 -121.5 -189.5t-183.5 -74.5q-66 0 -131.5 28.5t-104.5 67.5q-96 96 -145 96q-33 0 -55 -37l-21 -34q-6 -10 -22 -47
t-19 -42q-9 -28 -33 -4l-141 148q-15 15 -8 41q39 112 120.5 180t184.5 68q68 0 130 -28.5t101 -68.5q94 -94 150 -94q20 0 37 16.5t26 35t24.5 55.5t25.5 57z" />
    <glyph glyph-name="notequal" unicode="&#x2260;" horiz-adv-x="1073" 
d="M803 907h127q28 0 28 -28v-189q0 -28 -28 -28h-234l-61 -144h295q28 0 28 -29v-188q0 -29 -28 -29h-402l-55 -127q-6 -16 -22 -16h-218q-25 0 -16 25l51 118h-127q-26 0 -26 29v188q0 29 26 29h234l61 144h-295q-26 0 -26 28v189q0 28 26 28h402l57 131q7 17 23 17h217
q25 0 16 -25z" />
    <glyph glyph-name="lessequal" unicode="&#x2264;" horiz-adv-x="1107" 
d="M999 322l-903 294q-18 6 -18 37v285q0 29 18 35l903 274q27 6 27 -20v-264q0 -29 -20 -35l-517 -137l517 -150q20 -6 20 -35v-264q0 -26 -27 -20zM1010 -2h-912q-20 0 -20 20v226q0 20 20 20h912q20 0 20 -20v-226q0 -20 -20 -20z" />
    <glyph glyph-name="greaterequal" unicode="&#x2265;" horiz-adv-x="1107" 
d="M1012 616l-903 -294q-12 -4 -19.5 2t-5.5 18v264q0 29 18 35l516 150l-516 137q-18 6 -18 35v264q-2 12 5.5 18t19.5 2l903 -274q18 -6 18 -35v-285q0 -31 -18 -37zM1010 -2h-912q-20 0 -20 20v226q0 20 20 20h912q20 0 20 -20v-226q0 -20 -20 -20z" />
    <glyph glyph-name="uni24C5" unicode="&#x24c5;" horiz-adv-x="1691" 
d="M102 709q0 331 199 530q201 201 530 201q328 0 529 -201t201 -530q0 -328 -201 -529q-200 -200 -529 -200q-328 0 -528 200q-201 201 -201 529zM1393 709q0 254 -154 405q-154 154 -408 154q-249 0 -403 -154t-154 -405q0 -248 154 -402q153 -153 403 -153q254 0 408 151
q154 154 154 404zM561 358v717q0 27 29 27h221h127q115 0 182.5 -67t67.5 -177q0 -111 -68.5 -183.5t-181.5 -72.5h-127v-248q0 -28 -33 -28h-184q-33 0 -33 32zM913 889h-102v-92h102q45 0 45 47q0 45 -45 45z" />
    <glyph glyph-name="lozenge" unicode="&#x25ca;" horiz-adv-x="1075" 
d="M295 -66l-266 713q-10 23 0 39l264 715q9 18 33 18h90h225h88q27 0 33 -18l266 -715q6 -21 0 -39l-266 -713q-9 -20 -31 -20h-90h-227h-90q-20 0 -29 20zM528 1178l-178 -510l180 -510l179 510z" />
    <glyph glyph-name="ijacute" unicode="&#xe132;" horiz-adv-x="968" 
d="M586 997l260 -2q20 0 20 -20l2 -1098q0 -169 -85.5 -266.5t-239.5 -97.5q-158 0 -246 88q-13 13 -4 28l90 217q4 10 15.5 12.5t21.5 -5.5q36 -33 76 -33q37 0 53.5 21.5t17.5 72.5l-2 1063q0 20 21 20zM125 997h258q18 0 18 -18l2 -959q0 -20 -22 -20h-258q-21 0 -21 20
v955q0 22 23 22zM55 1143l310 315q19 19 34 0l129 -160q16 -16 -4 -30l-368 -242q-22 -13 -31 2l-72 86q-9 15 2 29zM864 1458l129 -160q16 -16 -4 -30l-371 -242q-19 -9 -30 2l-72 86q-9 16 4 29l309 315q19 19 35 0z" />
    <glyph glyph-name="IJacute" unicode="&#xe133;" horiz-adv-x="1294" 
d="M446 1401v-1383q0 -18 -18 -18h-274q-21 0 -21 18v1383q0 20 19 20h274q20 0 20 -20zM918 496l-3 905q0 20 21 20h272q21 0 21 -20l2 -973q1 -214 -91 -330t-259 -118q-245 3 -375 118q-14 9 -4 29l127 227q13 23 35 11l28 -17q82 -47 150 -53q33 0 49 22t20.5 55
t6.5 124zM1217 1835l106 -176q15 -21 -10 -31l-398 -186q-21 -9 -30 6l-60 94q-9 15 6 27l351 270q23 17 35 -4zM446 1835l105 -176q19 -19 -8 -31l-400 -186q-21 -12 -30 6l-58 94q-9 15 6 27l351 270q19 14 34 -4z" />
    <glyph glyph-name="_1" horiz-adv-x="0" 
 />
    <glyph glyph-name="CR" horiz-adv-x="681" 
 />
    <glyph glyph-name="grave.case" horiz-adv-x="585" 
d="M45 1640l105 177q14 20 34 4l351 -271q15 -12 6 -26l-58 -94q-9 -16 -30 -7l-400 187q-8 5 -11 14.5t3 15.5z" />
    <glyph glyph-name="dieresis.case" horiz-adv-x="724" 
d="M61 1616q0 63 38.5 101t101.5 38q61 0 99 -38.5t38 -100.5q0 -61 -38.5 -100t-98.5 -39q-63 0 -101.5 38.5t-38.5 100.5zM381 1616q0 63 38 101t101 38q61 0 99 -38.5t38 -100.5q0 -61 -38.5 -100t-98.5 -39q-63 0 -101 38.5t-38 100.5z" />
    <glyph glyph-name="macron.case" horiz-adv-x="665" 
d="M61 1686h543q21 0 21 -21v-156q0 -20 -21 -20h-543q-20 0 -20 20v156q0 21 20 21z" />
    <glyph glyph-name="acute.case" horiz-adv-x="585" 
d="M426 1821l104 -176q19 -19 -8 -31l-397 -187q-20 -9 -33 7l-57 94q-9 14 6 26l350 271q20 14 35 -4z" />
    <glyph glyph-name="circumflex.case" horiz-adv-x="823" 
d="M504 1513l-92 84l-95 -84q-12 -12 -24 -12h-238q-10 0 -13 5.5t5 11.5l236 229q15 12 30 12h195q19 0 31 -12l237 -229q8 -6 5 -11.5t-13 -5.5h-238q-14 0 -26 12z" />
    <glyph glyph-name="caron.case" horiz-adv-x="823" 
d="M317 1749l95 -86l92 86q10 10 26 10h238q24 0 8 -16l-237 -227q-12 -15 -31 -15h-195q-15 0 -30 15l-236 227q-16 16 8 16h238q7 0 24 -10z" />
    <glyph glyph-name="breve.case" horiz-adv-x="675" 
d="M471 1759h145q19 0 19 -18q-4 -129 -84 -198.5t-215 -69.5q-132 0 -210.5 69.5t-84.5 198.5q0 18 18 18h146q18 0 18 -18q5 -37 38 -64.5t75 -27.5q44 0 78 27.5t39 64.5q0 18 18 18z" />
    <glyph glyph-name="dotaccent.case" horiz-adv-x="415" 
d="M203 1761q63 0 100 -36.5t37 -98.5t-37 -99.5t-100 -37.5q-61 0 -99 37.5t-38 99.5q0 61 37.5 98t99.5 37z" />
    <glyph glyph-name="ring.case" horiz-adv-x="477" 
d="M238 1849q91 0 145.5 -53.5t54.5 -144.5t-54.5 -145t-145.5 -54t-144 54t-53 145q0 90 54.5 144t142.5 54zM315 1651q6 46 -35 66t-82 0.5t-36 -66.5q-5 -48 36 -68t82 0t35 68z" />
    <glyph glyph-name="tilde.case" horiz-adv-x="753" 
d="M150 1499q-12 -26 -27 -8l-74 82q-11 8 -8 20q29 84 88.5 136.5t120.5 52.5q38 0 69 -15.5t51 -37.5t38 -44t40 -37.5t48 -15.5q71 3 108 94q10 22 23 9l78 -84q9 -9 6 -19q-26 -84 -86 -137t-123 -53q-37 0 -68.5 15.5t-52.5 38t-40 44.5t-41 37.5t-46 15.5
q-70 -3 -104 -94z" />
    <glyph glyph-name="hungarumlaut.case" horiz-adv-x="745" 
d="M549 1819l145 -99q17 -14 6 -28l-208 -267q-14 -14 -27 -4l-98 74q-16 13 -7 27l160 286q9 21 29 11zM229 1819l154 -99q16 -13 4 -28l-209 -267q-13 -13 -26 -4l-101 72q-16 16 -8 29l160 288q12 18 26 9z" />
    <glyph glyph-name="zero.onum" horiz-adv-x="1210" 
d="M606 1016q246 0 393 -144q150 -141 150 -374t-150 -377q-147 -141 -393 -141q-245 0 -395 141q-150 144 -150 377t150 374q150 144 395 144zM606 297q98 0 158.5 55t60.5 146q0 92 -60 146t-159 54q-100 0 -161.5 -55t-61.5 -145q0 -91 61.5 -146t161.5 -55z" />
    <glyph glyph-name="one.onum" horiz-adv-x="948" 
d="M78 817l256 180h299q22 0 22 -22v-731h209q23 0 23 -23v-198q0 -23 -23 -23h-780q-23 0 -23 23v198q0 23 23 23h250v469l-240 -172q-28 -17 -28 16v238q0 13 12 22z" />
    <glyph glyph-name="two.onum" horiz-adv-x="1042" 
d="M958 0h-878q-20 0 -27 18.5t10 30.5q14 11 183 156l221 196l96 86q4 4 22 20.5t33 31t19 20.5q29 29 29 76q-3 74 -125 74q-124 0 -215 -119q-16 -16 -31 0l-176 203q-15 18 -2 34q74 89 190 141t252 52q184 0 297 -85t121 -222q15 -213 -154 -357q0 -2 -125 -112h260
q23 0 23 -23v-196q0 -25 -23 -25z" />
    <glyph glyph-name="three.onum" horiz-adv-x="1044" 
d="M426 246q-23 0 -23 22v275l138 139h-400q-22 0 -22 23v270q0 22 22 22h748q22 0 22 -22l-2 -295l-194 -201q126 -58 197 -157.5t71 -225.5q0 -194 -125 -313t-330 -119q-197 0 -327 127q-131 128 -140 330q0 24 23 24h276q23 0 23 -24q5 -63 44.5 -101t100.5 -38
q60 0 97 31.5t37 82.5q0 76 -53 113t-183 37z" />
    <glyph glyph-name="four.onum" horiz-adv-x="1234" 
d="M694 997h346q23 0 23 -22v-731h88q23 0 23 -23v-196q0 -23 -23 -23h-88v-293q0 -22 -23 -22h-272q-23 0 -23 22v293h-712q-14 0 -20 11.5t1 23.5l645 942q9 18 35 18zM745 244v379l-260 -379h260z" />
    <glyph glyph-name="five.onum" horiz-adv-x="1105" 
d="M586 606q205 0 332 -133q126 -132 126 -336q0 -214 -137 -342q-134 -131 -358 -131q-208 0 -344 127q-135 129 -144 334q0 22 23 22h276q23 0 23 -22q5 -63 51 -103t115 -40q75 0 124.5 46.5t49.5 118.5q0 78 -44 124t-118 46q-88 0 -174 -51h-246q-22 0 -22 23l39 688
q3 22 26 22h713q23 0 23 -22v-262q0 -23 -23 -23h-485l-6 -117q91 31 180 31z" />
    <glyph glyph-name="six.onum" horiz-adv-x="1046" 
d="M535 1317h272q17 0 21.5 -8.5t-3.5 -20.5l-243 -411h8q179 -21 287 -144t108 -303q0 -195 -129 -324q-126 -129 -332 -129q-208 0 -336 125q-127 127 -127 330q0 144 80 268l359 596q9 21 35 21zM666 434q0 63 -39.5 101t-102.5 38t-102 -38t-39 -101q0 -61 39 -99
t102 -38t102.5 38t39.5 99z" />
    <glyph glyph-name="seven.onum" horiz-adv-x="1019" 
d="M571 690h-508q-22 0 -22 23v262q0 22 22 22h916q17 0 25 -11t2 -25l-480 -1252q-6 -22 -30 -22h-281q-11 0 -16.5 8t-1.5 18z" />
    <glyph glyph-name="eight.onum" horiz-adv-x="1099" 
d="M61 424q0 192 154 313q-63 86 -63 211q0 173 114 281q116 110 283 110t280 -110q117 -108 117 -281q0 -127 -63 -211q155 -122 155 -313q0 -187 -137 -315q-138 -129 -352 -129t-352 129q-136 130 -136 315zM383 442q0 -62 47.5 -103.5t120.5 -41.5q71 0 117.5 41.5
t46.5 103.5q0 72 -44.5 109t-121.5 37q-74 0 -120 -38t-46 -108zM551 1044q-63 7 -89.5 -45.5t0 -105.5t89.5 -47q61 -6 86 47t0 105.5t-86 45.5z" />
    <glyph glyph-name="nine.onum" horiz-adv-x="1046" 
d="M512 -315h-272q-17 0 -22 8t3 20l244 412h-8q-182 21 -289 143t-107 303q0 194 127 324q129 129 334 129q209 0 334 -125q129 -126 129 -330q0 -144 -80 -268l-358 -596q-9 -20 -35 -20zM381 567q0 -63 39 -101t102 -38t102.5 38t39.5 101q0 61 -39.5 99.5t-102.5 38.5
t-102 -38t-39 -100z" />
    <glyph glyph-name="zero.numr" horiz-adv-x="780" 
d="M31 971q0 212 98 340q102 129 262 129q161 0 260 -129t99 -340q0 -213 -99 -342t-260 -129q-160 0 -262 129q-98 128 -98 342zM305 1135q-33 -59 -33 -164q0 -104 33 -166q32 -63 85.5 -63t84.5 63q33 62 33 166q0 105 -33 164q-31 63 -84.5 63t-85.5 -63z" />
    <glyph glyph-name="one.numr" horiz-adv-x="442" 
d="M121 547v633h-76q-26 0 -29 24v193q0 24 25 24h319q25 0 25 -24v-850q0 -29 -29 -29h-206q-32 0 -29 29z" />
    <glyph glyph-name="two.numr" horiz-adv-x="712" 
d="M616 520h-540q-19 2 -27 17t2 32l301 465q4 8 15 27t17 30.5t11.5 29.5t5.5 34q-3 45 -55 45q-60 0 -106 -55q-10 -13 -25 2l-125 145q-12 12 -2 21q111 129 295 129q123 0 192.5 -71.5t69.5 -190.5q0 -63 -27 -146q-11 -40 -28 -71l-27 -54l-96 -151h149q19 0 19 -19
v-196q0 -23 -19 -23z" />
    <glyph glyph-name="three.numr" horiz-adv-x="706" 
d="M256 924v139q0 20 20 20h50q71 3 71 74q0 29 -18 46.5t-45 17.5q-56 0 -115 -50q-14 -8 -22 0l-107 127q-10 17 0 27q95 115 277 115q126 0 205 -68.5t79 -175.5q0 -122 -82 -207q111 -65 111 -213q0 -124 -90 -200t-236 -76q-137 0 -226.5 81t-96.5 214q0 20 20 20h201
q16 0 16 -16q3 -58 82 -58q33 0 53.5 21.5t20.5 56.5q0 78 -82 84h-66q-23 0 -20 21z" />
    <glyph glyph-name="four.numr" horiz-adv-x="788" 
d="M293 862h141v289zM788 842v-152q0 -20 -20 -20h-72v-123q0 -29 -24 -29h-215q-26 0 -23 25v127h-405q-42 0 -27 37l350 694q9 18 31 18h291q19 -3 22 -20v-537h70q22 -3 22 -20z" />
    <glyph glyph-name="five.numr" horiz-adv-x="745" 
d="M295 805q34 -64 88 -64q41 0 63.5 27t22.5 72q0 41 -28.5 63.5t-67.5 22.5q-4 0 -60 -17h-211q-12 0 -12 13l33 485q0 14 14 14h481q13 0 13 -14v-211q0 -14 -13 -14h-286l-6 -82q27 6 55 6q148 0 237.5 -76t90.5 -203q1 -147 -89.5 -237t-238.5 -90q-143 0 -233.5 85
t-96.5 224q0 14 12 14h216q7 0 16 -18z" />
    <glyph glyph-name="six.numr" horiz-adv-x="739" 
d="M305 1421l225 -2q21 0 11 -16l-127 -273h6q129 -17 203.5 -100.5t74.5 -212.5q0 -143 -89.5 -230t-237.5 -87q-149 0 -239.5 87t-90.5 230q0 71 27 135l217 457q9 12 20 12zM371 731q53 -7 75.5 38.5t0 91.5t-75.5 40q-54 6 -77 -40t-0.5 -91.5t77.5 -38.5z" />
    <glyph glyph-name="seven.numr" horiz-adv-x="638" 
d="M315 1180h-292q-13 0 -13 14v213q0 14 13 14h610q23 0 14 -22l-328 -869q-7 -10 -14 -10h-227q-13 0 -10 15z" />
    <glyph glyph-name="eight.numr" horiz-adv-x="774" 
d="M340 1200q-19 -17 -19 -47t19 -49t47 -19t47 19t19 49t-19 47q-19 19 -47 19t-47 -19zM293 819q0 -33 27 -55.5t69 -22.5q57 -3 80.5 37.5t-0.5 81t-82 37.5q-41 -1 -67.5 -24t-26.5 -54zM51 807q0 109 90 190q-61 67 -61 158q0 127 85 206t222 79t222 -79t85 -206
q0 -94 -61 -158q90 -81 90 -190q0 -136 -93.5 -221.5t-242.5 -85.5t-242.5 85.5t-93.5 221.5z" />
    <glyph glyph-name="nine.numr" horiz-adv-x="739" 
d="M322 809l-5 2q-129 13 -204.5 97.5t-75.5 213.5q0 143 90.5 231.5t237.5 88.5q149 0 239 -88.5t90 -231.5q0 -73 -26 -135l-217 -455q-6 -12 -21 -12h-225q-19 0 -10 19zM365 1040q41 0 64.5 23.5t23.5 62.5q0 55 -55.5 77.5t-96.5 -15.5q-17 -17 -20.5 -44t4.5 -51.5
t30 -40.5t50 -12z" />
    <glyph glyph-name="zero.dnom" horiz-adv-x="780" 
d="M31 451q0 212 98 340q102 129 262 129q161 0 260 -129t99 -340q0 -213 -99 -342t-260 -129q-160 0 -262 129q-98 128 -98 342zM305 614q-33 -59 -33 -163t33 -166q32 -63 85.5 -63t84.5 63q33 62 33 166t-33 163q-31 63 -84.5 63t-85.5 -63z" />
    <glyph glyph-name="one.dnom" horiz-adv-x="442" 
d="M41 901h319q25 0 25 -24v-850q0 -29 -29 -29h-206q-32 0 -29 29v632h-76q-26 0 -29 25v193q0 24 25 24z" />
    <glyph glyph-name="two.dnom" horiz-adv-x="712" 
d="M295 0h-219q-46 3 -25 49l111 178q127 194 133 203l57 84q52 94 49 121q-3 45 -55 45q-60 0 -106 -55q-10 -13 -25 2l-125 145q-12 12 -2 21q111 129 295 129q123 0 192.5 -72t69.5 -191q0 -62 -27 -145q-11 -42 -28 -72l-27 -53q-84 -143 -88 -151h141q19 0 19 -19v-196
q0 -23 -19 -23h-299h-22z" />
    <glyph glyph-name="three.dnom" horiz-adv-x="706" 
d="M250 403v140q0 20 20 20h49q72 3 72 74q0 29 -18 46t-45 17q-57 0 -115 -49q-14 -9 -23 0l-106 127q-10 17 0 27q95 115 276 115q127 0 206 -68.5t79 -175.5q0 -122 -82 -207q111 -65 111 -213q0 -124 -90 -200t-236 -76q-137 0 -226.5 80.5t-96.5 213.5q0 21 20 21h201
q16 0 16 -16q3 -58 82 -58q33 0 53.5 21.5t20.5 56.5q0 78 -82 84h-66q-23 0 -20 20z" />
    <glyph glyph-name="four.dnom" horiz-adv-x="788" 
d="M293 344h141v289zM788 324v-152q0 -20 -20 -20h-72v-123q0 -29 -24 -29h-215q-26 0 -23 25v127h-405q-19 0 -26.5 9.5t-0.5 26.5l350 695q9 18 31 18h291q19 -3 22 -20v-537h70q22 -3 22 -20z" />
    <glyph glyph-name="five.dnom" horiz-adv-x="745" 
d="M274 285q34 -64 88 -64q41 0 64 26.5t23 71.5q0 41 -29 64t-68 23q-3 0 -59 -17h-211q-12 0 -12 12l32 486q0 14 15 14h481q12 0 12 -14v-211q0 -14 -12 -14h-287l-6 -82q27 6 55 6q148 0 237.5 -76t90.5 -203q1 -147 -89.5 -237t-238.5 -90q-143 0 -233 85t-96 224
q0 14 12 14h215q7 0 16 -18z" />
    <glyph glyph-name="six.dnom" horiz-adv-x="739" 
d="M303 901l225 -2q21 0 11 -16l-127 -273h6q129 -17 203.5 -100.5t74.5 -212.5q0 -143 -89.5 -230t-237.5 -87q-149 0 -239.5 87t-90.5 230q0 71 27 135l217 457q9 12 20 12zM369 211q53 -7 75.5 38.5t0 91.5t-75.5 40q-54 6 -77 -40t-0.5 -91.5t77.5 -38.5z" />
    <glyph glyph-name="seven.dnom" horiz-adv-x="638" 
d="M315 662h-292q-13 0 -13 14v213q0 14 13 14h610q23 0 14 -22l-328 -869q-7 -10 -14 -10h-227q-13 0 -10 14z" />
    <glyph glyph-name="eight.dnom" horiz-adv-x="774" 
d="M340 678q-19 -17 -19 -47t19 -49t47 -19t47 19t19 49t-19 47q-19 19 -47 19t-47 -19zM293 297q0 -33 27 -55.5t69 -22.5q57 -3 80.5 37.5t-0.5 81t-82 37.5q-41 -1 -67.5 -24t-26.5 -54zM51 285q0 109 90 190q-61 67 -61 158q0 127 85 206t222 79t222 -79t85 -206
q0 -94 -61 -158q90 -81 90 -190q0 -137 -93.5 -222.5t-242.5 -85.5t-242.5 85.5t-93.5 222.5z" />
    <glyph glyph-name="nine.dnom" horiz-adv-x="739" 
d="M324 289l-5 2q-129 13 -204.5 97.5t-75.5 213.5q0 143 90.5 231.5t237.5 88.5q149 0 239 -88.5t90 -231.5q0 -73 -26 -135l-217 -455q-6 -12 -21 -12h-225q-19 0 -10 18zM367 520q41 0 64.5 23.5t23.5 62.5q0 55 -55.5 77.5t-96.5 -15.5q-17 -17 -20.5 -44t4.5 -51.5
t30 -40.5t50 -12z" />
    <glyph glyph-name="zero.tnum" 
d="M227 182q-147 200 -147 529t147 528q148 201 389 201q243 0 388 -201q147 -199 147 -528q0 -331 -147 -531q-143 -198 -388 -198q-242 0 -389 200zM616 295q100 0 161 113.5t61 302.5q0 188 -61 301.5t-161 113.5t-161.5 -113.5t-61.5 -301.5q0 -190 60.5 -303
t162.5 -113z" />
    <glyph glyph-name="one.tnum" 
d="M254 1147v252q0 22 20 22h482q20 0 20 -22v-1141h225q23 0 23 -22v-211q0 -25 -25 -25h-772q-22 0 -22 23v213q0 22 24 22h234v868h-189q-20 0 -20 21z" />
    <glyph glyph-name="two.tnum" 
d="M1024 786l-27 -41l-317 -450h377q21 0 24 -25v-250q0 -20 -22 -20h-584h-88h-233q-12 0 -16.5 13t3.5 24q56 70 189 256l256 358l114 164q94 125 97 207q-2 52 -39 88.5t-105 36.5q-90 0 -204 -141q-3 -3 -5.5 -4.5t-4 -3t-4 -1t-3.5 0.5t-4 2l-4.5 3t-6 5t-7.5 6
l-160 170q-15 15 10 43q168 213 432 213q172 0 289 -105q119 -104 119 -299q0 -57 -24 -129t-52 -121z" />
    <glyph glyph-name="three.tnum" 
d="M535 868l83 2q51 0 91.5 41.5t40.5 96.5q0 54 -40 86t-106 32q-90 0 -201 -129q-15 -15 -30 2l-172 203q-17 16 -2 31q177 207 430 207q175 0 305 -109q129 -108 129 -274q0 -182 -133 -312q178 -117 178 -315q0 -201 -143 -332t-351 -131q-209 0 -346 125
q-136 124 -145 330q0 20 20 20h267q22 0 22 -16q1 -65 53.5 -105t132.5 -40q79 0 128 46.5t49 121.5q0 72 -43 120t-111 54h-106q-21 0 -21 20v205q0 20 21 20z" />
    <glyph glyph-name="four.tnum" 
d="M1051 571h118q21 0 21 -20v-225q0 -21 -21 -21h-118v-285q0 -20 -21 -20h-272q-21 0 -21 20v285h-395h-76h-205q-28 0 -16 27l647 1071q9 18 31 18h307q21 0 21 -22v-828zM737 571v390l-235 -390h235z" />
    <glyph glyph-name="five.tnum" 
d="M971 1126h-432l-21 -239q58 22 125 22q208 0 331.5 -120t123.5 -328q0 -223 -133 -359q-132 -135 -351 -135q-209 0 -340 119q-132 120 -141 315q0 21 21 21h266q22 0 22 -21q1 -59 49.5 -95t122.5 -36q78 0 126 52.5t48 138.5t-47 136t-131 50q-73 0 -116 -43h-293
q-24 0 -21 21l68 774q3 22 22 22h701q20 0 20 -22v-252q0 -21 -20 -21z" />
    <glyph glyph-name="six.tnum" 
d="M1096 461q0 -221 -131 -352q-129 -132 -349 -132q-218 0 -350 132q-131 131 -131 350q0 103 33 188q53 138 100 240q58 125 133 278q27 55 64.5 134t48.5 102q9 20 31 20h270q35 0 19 -28l-216 -463h19q206 -6 332 -135q127 -127 127 -334zM614 625q-74 0 -119.5 -46.5
t-45.5 -121.5t45.5 -120.5t119.5 -45.5q75 0 121.5 45.5t46.5 120.5t-46.5 121.5t-121.5 46.5z" />
    <glyph glyph-name="seven.tnum" 
d="M168 1421h885q37 0 22 -37l-518 -1364q-6 -20 -27 -20h-284q-21 0 -15 20l426 1106h-489q-21 0 -21 21v252q0 22 21 22z" />
    <glyph glyph-name="eight.tnum" 
d="M1049 1026q0 -166 -134 -276q177 -118 177 -322t-131 -326t-347 -122q-213 0 -344 122t-131 326q0 209 174 322q-131 107 -131 276q0 186 119 299q121 115 313 115q193 0 314 -115t121 -299zM791 446q0 69 -50 116.5t-125 47.5t-125.5 -47.5t-50.5 -116.5
q0 -68 51.5 -115.5t124.5 -47.5t124 47.5t51 115.5zM616 891q63 0 101.5 38t38.5 101q0 67 -39 100q-37 37 -101 37t-102 -37q-39 -36 -39 -100t37.5 -101.5t103.5 -37.5z" />
    <glyph glyph-name="nine.tnum" 
d="M1016 666l-301 -646q-6 -20 -29 -20h-270q-35 0 -19 29l213 460h-8q-209 3 -340 134q-127 130 -127 338q0 220 129 352q131 131 348 131q218 0 351 -133t133 -348q0 -52 -13 -109q-2 -11 -4.5 -21t-4 -17.5t-5 -17.5t-5 -15.5t-6 -17t-6 -15.5t-8 -18.5t-8 -18.5
t-10 -22.5t-10.5 -24.5zM494 840q45 -45 120 -45q76 0 121 45q47 47 47 123q0 73 -47 120q-45 45 -121 45q-75 0 -120 -45t-45 -120q0 -78 45 -123z" />
    <glyph glyph-name="zero.pnum" horiz-adv-x="1222" 
d="M223 182q-147 200 -147 529t147 528q148 201 389 201q242 0 387 -201q148 -201 148 -528q0 -330 -148 -531q-143 -198 -387 -198q-242 0 -389 200zM612 295q100 0 161 113.5t61 302.5q0 188 -61 301.5t-161 113.5t-161.5 -113.5t-61.5 -301.5q0 -190 60.5 -303
t162.5 -113z" />
    <glyph glyph-name="one.pnum" horiz-adv-x="716" 
d="M98 1147v252q0 22 21 22h479q20 0 20 -22v-1379q0 -20 -20 -20h-272q-21 0 -21 20v1106h-186q-21 0 -21 21z" />
    <glyph glyph-name="two.pnum" horiz-adv-x="1134" 
d="M958 786l-24 -41l-318 -450h377q22 0 25 -25v-250q0 -20 -23 -20h-583h-88h-234q-12 0 -16 13t4 24q48 59 188 256l254 358l117 164q93 124 96 207q-2 52 -38.5 88.5t-104.5 36.5q-91 0 -205 -141q-13 -10 -19 -8t-20 16l-160 170q-14 14 11 43q168 213 432 213
q172 0 289 -105q118 -103 118 -299q0 -57 -24.5 -129.5t-53.5 -120.5z" />
    <glyph glyph-name="three.pnum" horiz-adv-x="1116" 
d="M467 868l84 2q51 0 91 41.5t40 96.5q0 54 -39.5 86t-105.5 32q-90 0 -201 -129q-16 -16 -31 2l-172 203q-17 16 -2 31q177 207 430 207q175 0 305 -109q129 -108 129 -274q0 -182 -133 -312q178 -117 178 -315q0 -201 -143 -332t-350 -131q-209 0 -346 125t-146 330
q0 20 21 20h266q23 0 23 -16q1 -65 53.5 -105t132.5 -40q79 0 127.5 46.5t48.5 121.5q0 72 -43 120t-111 54h-106q-21 0 -21 20v205q0 20 21 20z" />
    <glyph glyph-name="four.pnum" horiz-adv-x="1253" 
d="M1018 571h119q20 0 20 -20v-225q0 -21 -20 -21h-119v-285q0 -20 -21 -20h-272q-20 0 -20 20v285h-396h-76h-204q-29 0 -17 27l647 1071q9 18 31 18h307q21 0 21 -22v-828zM705 571v390l-236 -390h236z" />
    <glyph glyph-name="five.pnum" horiz-adv-x="1116" 
d="M913 1126h-432l-20 -239q58 22 125 22q208 0 331 -120t123 -328q0 -223 -133 -359q-132 -135 -350 -135q-209 0 -340 119q-132 120 -141 315q0 21 20 21h266q23 0 23 -21q1 -59 49.5 -95t122.5 -36q78 0 126 52.5t48 138.5t-47 136t-131 50q-74 0 -117 -43h-293
q-23 0 -20 21l67 774q3 22 23 22h700q21 0 21 -22v-252q0 -21 -21 -21z" />
    <glyph glyph-name="six.pnum" horiz-adv-x="1112" 
d="M1036 461q0 -221 -131 -352q-129 -132 -348 -132q-218 0 -350 132q-131 131 -131 350q0 103 33 188q53 138 100 240q58 125 133 278q27 55 64.5 134t48.5 102q9 20 30 20h271q34 0 18 -28l-215 -463h19q205 -6 331 -135q127 -127 127 -334zM555 625q-74 0 -120 -46.5
t-46 -121.5t46 -120.5t120 -45.5q75 0 121.5 45.5t46.5 120.5t-46.5 121.5t-121.5 46.5z" />
    <glyph glyph-name="seven.pnum" horiz-adv-x="1007" 
d="M96 1421h885q38 0 23 -37l-519 -1364q-6 -20 -26 -20h-285q-20 0 -14 20l426 1106h-490q-20 0 -20 21v252q0 22 20 22z" />
    <glyph glyph-name="eight.pnum" horiz-adv-x="1103" 
d="M985 1026q0 -167 -133 -276q176 -117 176 -322q0 -204 -131 -326t-346 -122q-213 0 -344 122t-131 326q0 209 174 322q-131 107 -131 276q0 186 119 299q121 115 313 115t313 -115t121 -299zM727 446q0 69 -49.5 116.5t-124.5 47.5t-125.5 -47.5t-50.5 -116.5
q0 -68 51.5 -115.5t124.5 -47.5t123.5 47.5t50.5 115.5zM553 891q63 0 101 38t38 101q0 67 -39 100q-37 37 -100.5 37t-101.5 -37q-39 -36 -39 -100t38 -101.5t103 -37.5z" />
    <glyph glyph-name="nine.pnum" horiz-adv-x="1112" 
d="M956 666l-301 -646q-6 -20 -28 -20h-271q-34 0 -18 29l213 460h-8q-209 3 -340 134q-127 130 -127 338q0 220 129 352q131 131 348 131t350 -133t133 -348q0 -57 -12 -109q-3 -15 -6 -27.5t-7.5 -26.5t-6.5 -21.5t-9.5 -25t-10 -23.5t-13.5 -30t-15 -34zM434 840
q45 -45 121 -45t121 45q47 47 47 123q0 73 -47 120q-45 45 -121 45t-121 -45t-45 -120q0 -78 45 -123z" />
    <glyph glyph-name="zero.onum.pnum" horiz-adv-x="1112" 
d="M606 1016q246 0 393 -144q150 -141 150 -374t-150 -377q-147 -141 -393 -141q-245 0 -395 141q-150 144 -150 377t150 374q150 144 395 144zM606 297q98 0 158.5 55t60.5 146q0 92 -60 146t-159 54q-100 0 -161.5 -55t-61.5 -145q0 -91 61.5 -146t161.5 -55z" />
    <glyph glyph-name="one.onum.pnum" horiz-adv-x="948" 
d="M78 817l256 180h299q22 0 22 -22v-731h209q23 0 23 -23v-198q0 -23 -23 -23h-780q-23 0 -23 23v198q0 23 23 23h250v469l-240 -172q-28 -17 -28 16v238q0 13 12 22z" />
    <glyph glyph-name="two.onum.pnum" horiz-adv-x="1042" 
d="M958 0h-878q-20 0 -27 18.5t10 30.5q14 11 183 156l221 196l96 86q4 4 22 20.5t33 31t19 20.5q29 29 29 76q-3 74 -125 74q-124 0 -215 -119q-16 -16 -31 0l-176 203q-15 18 -2 34q74 89 190 141t252 52q184 0 297 -85t121 -222q15 -213 -154 -357q0 -2 -125 -112h260
q23 0 23 -23v-196q0 -25 -23 -25z" />
    <glyph glyph-name="three.onum.pnum" horiz-adv-x="1044" 
d="M426 246q-23 0 -23 22v275l138 139h-400q-22 0 -22 23v270q0 22 22 22h748q22 0 22 -22l-2 -295l-194 -201q126 -58 197 -157.5t71 -225.5q0 -194 -125 -313t-330 -119q-197 0 -327 127q-131 128 -140 330q0 24 23 24h276q23 0 23 -24q5 -63 44.5 -101t100.5 -38
q60 0 97 31.5t37 82.5q0 76 -53 113t-183 37z" />
    <glyph glyph-name="four.onum.pnum" horiz-adv-x="1234" 
d="M694 997h346q23 0 23 -22v-731h88q23 0 23 -23v-196q0 -23 -23 -23h-88v-293q0 -22 -23 -22h-272q-23 0 -23 22v293h-712q-14 0 -20 11.5t1 23.5l645 942q9 18 35 18zM745 244v379l-260 -379h260z" />
    <glyph glyph-name="five.onum.pnum" horiz-adv-x="1105" 
d="M586 606q205 0 332 -133q126 -132 126 -336q0 -214 -137 -342q-134 -131 -358 -131q-208 0 -344 127q-135 129 -144 334q0 22 23 22h276q23 0 23 -22q5 -63 51 -103t115 -40q75 0 124.5 46.5t49.5 118.5q0 78 -44 124t-118 46q-88 0 -174 -51h-246q-22 0 -22 23l39 688
q3 22 26 22h713q23 0 23 -22v-262q0 -23 -23 -23h-485l-6 -117q91 31 180 31z" />
    <glyph glyph-name="six.onum.pnum" horiz-adv-x="1046" 
d="M535 1317h272q17 0 21.5 -8.5t-3.5 -20.5l-243 -411h8q179 -21 287 -144t108 -303q0 -195 -129 -324q-126 -129 -332 -129q-208 0 -336 125q-127 127 -127 330q0 144 80 268l359 596q9 21 35 21zM666 434q0 63 -39.5 101t-102.5 38t-102 -38t-39 -101q0 -61 39 -99
t102 -38t102.5 38t39.5 99z" />
    <glyph glyph-name="seven.onum.pnum" horiz-adv-x="1019" 
d="M571 690h-508q-22 0 -22 23v262q0 22 22 22h916q17 0 25 -11t2 -25l-480 -1252q-6 -22 -30 -22h-281q-11 0 -16.5 8t-1.5 18z" />
    <glyph glyph-name="eight.onum.pnum" horiz-adv-x="1099" 
d="M61 424q0 192 154 313q-63 86 -63 211q0 173 114 281q116 110 283 110t280 -110q117 -108 117 -281q0 -127 -63 -211q155 -122 155 -313q0 -187 -137 -315q-138 -129 -352 -129t-352 129q-136 130 -136 315zM383 442q0 -62 47.5 -103.5t120.5 -41.5q71 0 117.5 41.5
t46.5 103.5q0 72 -44.5 109t-121.5 37q-74 0 -120 -38t-46 -108zM551 1044q-63 7 -89.5 -45.5t0 -105.5t89.5 -47q61 -6 86 47t0 105.5t-86 45.5z" />
    <glyph glyph-name="nine.onum.pnum" horiz-adv-x="1046" 
d="M512 -315h-272q-17 0 -22 8t3 20l244 412h-8q-182 21 -289 143t-107 303q0 194 127 324q129 129 334 129q209 0 334 -125q129 -126 129 -330q0 -144 -80 -268l-358 -596q-9 -20 -35 -20zM381 567q0 -63 39 -101t102 -38t102.5 38t39.5 101q0 61 -39.5 99.5t-102.5 38.5
t-102 -38t-39 -100z" />
    <glyph glyph-name="zero.onum.tnum" 
d="M616 1016q244 0 394 -144q149 -140 149 -374t-149 -377q-150 -141 -394 -141q-245 0 -395 141q-149 143 -149 377t149 374q150 144 395 144zM616 297q98 0 158 55t60 146q0 92 -59.5 146t-158.5 54q-100 0 -161.5 -55t-61.5 -145q0 -91 61.5 -146t161.5 -55z" />
    <glyph glyph-name="one.onum.tnum" 
d="M219 817l256 180h299q23 0 23 -22v-731h209q22 0 22 -23v-198q0 -23 -22 -23h-781q-22 0 -22 23v198q0 23 22 23h250v469l-239 -172q-29 -18 -29 16v238q0 13 12 22z" />
    <glyph glyph-name="two.onum.tnum" 
d="M1057 0h-879q-20 0 -26.5 18.5t10.5 30.5q17 14 42.5 35.5t67 58t72.5 62.5l221 196l97 86q4 4 21.5 20.5t32.5 31t19 20.5q29 29 29 76q-3 74 -125 74q-124 0 -215 -119q-16 -16 -31 0l-176 203q-15 18 -2 34q74 89 190 141t252 52q184 0 297 -85t121 -222
q15 -214 -153 -357q0 -2 -125 -112h260q22 0 22 -23v-196q0 -25 -22 -25z" />
    <glyph glyph-name="three.onum.tnum" 
d="M518 246q-22 0 -22 22v275l137 139h-400q-22 0 -22 23v270q0 22 22 22h748q23 0 23 -22l-3 -295l-194 -201q126 -58 197 -157.5t71 -225.5q0 -194 -125 -313t-329 -119q-198 0 -328 127t-139 330q0 24 22 24h277q22 0 22 -24q4 -63 44 -101t102 -38q60 0 96.5 31.5
t36.5 82.5q0 76 -53 113t-183 37z" />
    <glyph glyph-name="four.onum.tnum" 
d="M719 997h346q22 0 22 -22v-731h89q22 0 22 -23v-196q0 -23 -22 -23h-89v-293q0 -22 -22 -22h-272q-23 0 -23 22v293h-713q-14 0 -19.5 11.5t1.5 23.5l645 942q9 18 35 18zM770 244v379l-260 -379h260z" />
    <glyph glyph-name="five.onum.tnum" 
d="M647 606q205 0 332 -133t127 -336q0 -214 -137 -342q-134 -131 -359 -131q-208 0 -344 127q-134 128 -143 334q0 22 22 22h277q22 0 22 -22q5 -63 51 -103t115 -40q75 0 124.5 46.5t49.5 118.5q0 78 -43.5 124t-117.5 46q-88 0 -174 -51h-246q-23 0 -23 23l39 688
q3 22 27 22h712q23 0 23 -22v-262q0 -23 -23 -23h-485l-6 -117q91 31 180 31z" />
    <glyph glyph-name="six.onum.tnum" 
d="M625 1317h272q17 0 21.5 -8.5t-3.5 -20.5l-243 -411h8q179 -21 287 -144t108 -303q0 -195 -129 -324q-126 -129 -332 -129q-207 0 -335 125q-127 127 -127 330q0 146 79 268l359 596q9 21 35 21zM756 434q0 63 -39.5 101t-102.5 38t-102 -38t-39 -101q0 -61 39 -99
t102 -38t102.5 38t39.5 99z" />
    <glyph glyph-name="seven.onum.tnum" 
d="M659 690h-507q-23 0 -23 23v262q0 22 23 22h915q17 0 25 -11t2 -25l-480 -1252q-6 -22 -30 -22h-281q-11 0 -16.5 8t-1.5 18z" />
    <glyph glyph-name="eight.onum.tnum" 
d="M127 424q0 192 154 313q-64 88 -64 211q0 172 115 281q116 110 282 110q168 0 281 -110q117 -108 117 -281q0 -126 -64 -211q156 -123 156 -313q0 -187 -137 -315q-138 -129 -353 -129q-214 0 -352 129q-135 129 -135 315zM449 442q0 -62 47 -103.5t120 -41.5
q71 0 117.5 41.5t46.5 103.5q0 72 -44.5 109t-121.5 37q-74 0 -119.5 -38t-45.5 -108zM616 1044q-63 7 -89.5 -45.5t0 -105.5t89.5 -47q61 -6 86 47t0 105.5t-86 45.5z" />
    <glyph glyph-name="nine.onum.tnum" 
d="M604 -315h-272q-17 0 -22 8t3 20l244 412h-8q-182 21 -289 143q-106 121 -106 303q0 194 127 324q129 129 333 129q209 0 334 -125q129 -126 129 -330q0 -144 -80 -268l-358 -596q-9 -20 -35 -20zM473 567q0 -63 39 -101t102 -38t102.5 38t39.5 101q0 61 -39.5 99.5
t-102.5 38.5t-102 -38t-39 -100z" />
    </font>
</defs>
</svg>
