<?xml version="1.0" standalone="no"?>
<!DOCTYPE svg PUBLIC "-//W3C//DTD SVG 1.1//EN" "http://www.w3.org/Graphics/SVG/1.1/DTD/svg11.dtd" >
<svg xmlns="http://www.w3.org/2000/svg" xmlns:xlink="http://www.w3.org/1999/xlink" version="1.1">
<metadata>
Created by FontForge 20170731 at Tue Dec  1 20:03:39 2020
 By Aleksey,,,
Copyright (c) 2019 by Eko Bimantara. All rights reserved.
</metadata>
<defs>
<font id="Ageo-Medium" horiz-adv-x="1228" >
  <font-face 
    font-family="Ageo Medium"
    font-weight="500"
    font-stretch="normal"
    units-per-em="2048"
    panose-1="2 0 0 0 0 0 0 0 0 0"
    ascent="1546"
    descent="-502"
    x-height="924"
    cap-height="1421"
    bbox="-157.24 -508 2238 1906.45"
    underline-thickness="102"
    underline-position="-358"
    unicode-range="U+000D-FB04"
  />
<missing-glyph horiz-adv-x="0" 
 />
    <glyph glyph-name="f_f" unicode="ff" horiz-adv-x="1257" 
d="M1219 903v-106q0 -21 -21 -21h-231v-756q0 -20 -21 -20h-125q-20 0 -20 20v756h-455v-756q0 -20 -20 -20h-125q-21 0 -21 20v756h-145q-23 0 -23 21v106q0 23 23 23h145l-2 227q0 166 74.5 257t204.5 91q120 0 221 -67q15 -12 6 -31l-59 -103q-10 -16 -27 -6
q-70 43 -127 43q-122 0 -125 -198v-213h453v227q0 166 74 257t204 91q120 0 221 -67q15 -15 5 -31l-58 -103q-10 -16 -26 -6q-70 43 -127 43q-125 0 -125 -198v-213h231q21 0 21 -23z" />
    <glyph glyph-name="fi" unicode="fi" horiz-adv-x="1083" 
d="M928 1266l-78 -92q-10 -10 -25 2l-10 16q-48 60 -86 88q-72 57 -170 57q-210 0 -213 -198v-213h572q20 0 20 -21l2 -885q0 -20 -20 -20h-125q-21 0 -21 20v756h-428v-756q0 -20 -20 -20h-125q-21 0 -21 20v756h-145q-23 0 -23 21v106q0 23 23 23h145l-2 227
q1 166 98.5 257t266.5 91q75 0 144.5 -19t111.5 -46q31 -18 71 -62q32 -35 43.5 -50t18.5 -34q9 -14 -4 -24z" />
    <glyph glyph-name="fl" unicode="fl" horiz-adv-x="1091" 
d="M182 20l-2 754h-147q-21 0 -21 21v110q3 19 21 19h147v229q0 164 103 256q107 93 262 90q119 0 221 -29l94 -24l66 -16q18 -6 18 -29l2 -1381q0 -20 -22 -20h-123q-21 0 -21 20l-2 1268q-116 49 -221 49q-208 0 -211 -198v-215h240q20 0 20 -19v-110q0 -21 -20 -21h-240
l2 -756q0 -18 -20 -18h-127q-19 0 -19 20z" />
    <glyph glyph-name="f_f_i" unicode="ffi" horiz-adv-x="1703" 
d="M457 1501q120 0 221 -67q15 -9 6 -31l-59 -103q-9 -15 -27 -6q-64 43 -127 43q-122 0 -125 -198v-213h453v227q-1 165 96 256.5t266 91.5q75 0 144.5 -19t111.5 -46q33 -19 72 -62q49 -53 61 -84q9 -14 -4 -24l-78 -92q-13 -13 -22 2q-3 3 -19 25t-36 42t-49.5 43t-72 37
t-91.5 14q-99 0 -155.5 -50t-57.5 -148v-213h573q21 0 21 -21v-885q0 -20 -21 -20h-125q-20 0 -20 20v756h-428l2 -756q0 -20 -21 -20h-125q-20 0 -20 20l-2 756h-453v-756q0 -20 -20 -20h-125q-21 0 -21 20v756h-145q-23 0 -23 21v106q0 23 23 23h145l-2 227q1 166 75 257
t204 91z" />
    <glyph glyph-name="f_f_l" unicode="ffl" horiz-adv-x="1710" 
d="M598 1294q-64 43 -127 43q-122 0 -125 -198v-213h453v227q0 165 102 256q107 93 262 90q99 0 221 -26q48 -12 95 -27q16 -4 33.5 -8.5t24 -6t7.5 -1.5q21 -6 21 -29v-1381q0 -20 -21 -20h-123q-22 0 -22 20l-2 1268q-116 49 -219 49q-210 0 -213 -198v-213h239
q21 0 21 -23v-106q0 -21 -21 -21h-237v-758q0 -18 -21 -18h-127q-18 0 -18 20l-2 756h-453v-756q0 -20 -20 -20h-125q-21 0 -21 20v756h-145q-23 0 -23 21v106q0 23 23 23h145l-2 227q1 166 75 257t204 91q120 0 221 -67q15 -9 6 -31l-59 -103q-9 -15 -27 -6z" />
    <glyph glyph-name=".notdef" horiz-adv-x="0" 
 />
    <glyph glyph-name=".null" horiz-adv-x="0" 
 />
    <glyph glyph-name="nonmarkingreturn" horiz-adv-x="682" 
 />
    <glyph glyph-name="NULL" horiz-adv-x="0" 
 />
    <glyph glyph-name="NULL" horiz-adv-x="0" 
 />
    <glyph glyph-name="CR.001" unicode="&#xd;" horiz-adv-x="0" 
 />
    <glyph glyph-name="space" unicode=" " horiz-adv-x="512" 
 />
    <glyph glyph-name="exclam" unicode="!" horiz-adv-x="516" 
d="M326 393h-136q-20 0 -20 21l-4 987q0 20 20 20h144q20 0 20 -20l-4 -987q0 -21 -20 -21zM373 96q7 -72 -54 -102.5t-122 0t-54 102.5q0 52 30.5 82.5t84.5 30.5t84.5 -30.5t30.5 -82.5z" />
    <glyph glyph-name="quotedbl" unicode="&#x22;" horiz-adv-x="743" 
d="M434 903l-45 47q-13 16 4 29q129 105 150 242h-4q-51 5 -82 37t-31 83q0 57 33.5 91t89.5 34q44 0 75.5 -23.5t41.5 -64.5q36 -117 -29 -272q-64 -153 -172 -211q-18 -9 -31 8zM223 1221h-2q-54 4 -84.5 36.5t-30.5 83.5q0 56 34 90.5t91 34.5q93 0 117 -88
q34 -118 -31 -272q-64 -153 -172 -211q-17 -8 -30 8l-45 47q-13 16 4 29q131 101 149 242z" />
    <glyph glyph-name="numbersign" unicode="#" horiz-adv-x="1333" 
d="M63 424l35 106q9 21 29 21h176l80 301h-207q-20 0 -14 18l35 107q6 20 28 20h197l106 404q6 20 25 20h123q20 0 14 -20l-106 -404h307l106 404q6 20 27 20h121q19 0 16 -20l-108 -404h202q21 0 15 -20l-35 -107q-6 -18 -27 -18h-194l-78 -301h221q20 0 14 -21l-34 -106
q-6 -18 -27 -18h-213l-102 -386q-6 -20 -27 -20h-121q-20 0 -14 20l100 386h-307l-100 -386q-6 -20 -27 -20h-121q-19 0 -16 20l102 386h-186q-21 0 -15 18zM465 551h307l80 301h-307z" />
    <glyph glyph-name="dollar" unicode="$" horiz-adv-x="1159" 
d="M524 160v456q-216 55 -318.5 157t-107.5 263q-3 161 115 273q120 114 311 129v59q0 21 21 21h73q21 0 21 -21v-59q125 -10 219 -48t143 -85q16 -16 7 -33l-60 -129q-9 -16 -24 -4q-125 103 -285 121v-472q227 -60 327.5 -149.5t104.5 -237.5q6 -185 -107 -296t-325 -123
v-191q0 -20 -21 -20h-71q-23 0 -23 20v191q-110 9 -211 43q-89 33 -134 61t-83 64q-13 13 -4 32l72 119q10 17 26 4q52 -49 140 -91t194 -54zM639 590v-432q118 7 186 68t68 155q0 73 -59.5 122t-194.5 87zM524 819v441q-109 -12 -178.5 -72t-69.5 -144q0 -83 54 -133
t194 -92z" />
    <glyph glyph-name="percent" unicode="%" horiz-adv-x="1544" 
d="M156 887q-90 90 -90 237q0 148 90 238t237 90q148 0 238 -90t90 -238q0 -147 -90 -237q-88 -88 -238 -88q-149 0 -237 88zM231 1124q0 -72 45 -116.5t117 -44.5q73 0 119 43q44 44 44 118.5t-44 118.5q-45 45 -119 45q-73 0 -117.5 -45t-44.5 -119zM1069 307
q0 -73 45.5 -118.5t118.5 -45.5t117.5 45t44.5 119q0 72 -44.5 117t-117.5 45t-118.5 -45t-45.5 -117zM995 70q-90 90 -90 237q0 146 90 236t238 90q145 0 235 -90q91 -91 91 -236q0 -146 -91 -237q-90 -90 -235 -90q-148 0 -238 90zM338 25l813 1439q9 15 23 15h137
q23 0 10 -23l-813 -1442q-8 -14 -23 -14h-137q-26 0 -10 25z" />
    <glyph glyph-name="ampersand" unicode="&#x26;" horiz-adv-x="1368" 
d="M530 1268q-76 0 -124 -51t-48 -136q0 -76 66 -161q8 -9 27 -32.5t38 -43.5l37 -35l39 -37l39 -35l369 -348q73 155 76 373q0 20 20 20h135q21 0 21 -20q-3 -305 -115 -506l246 -233q10 -11 8 -17t-16 -6h-172q-20 0 -37 14l-123 115q-155 -162 -400 -162q-249 0 -405 129
q-154 130 -154 332q0 132 66 227.5t186 145.5q-129 135 -129 291q0 155 98.5 251.5t258.5 96.5q225 0 307 -172q10 -16 -8 -31l-113 -76q-17 -10 -27 6q-55 101 -166 101zM887 252l-473 444q-84 -32 -131 -102.5t-47 -161.5q0 -130 104 -215q109 -86 274 -86q161 0 273 121z
" />
    <glyph glyph-name="quotesingle" unicode="'" horiz-adv-x="423" 
d="M115 903l-47 49q-12 12 4 27q130 106 151 242q-2 0 -4 2q-51 1 -82 35t-31 88q0 56 33 89t90 33q98 0 119 -88q34 -119 -31 -274q-65 -154 -172 -209q-15 -9 -30 6z" />
    <glyph glyph-name="parenleft" unicode="(" horiz-adv-x="604" 
d="M324 1403q9 18 32 18h129q20 -3 11 -18q-60 -96 -134 -293q-46 -121 -74 -269.5t-28 -295.5q-3 -463 234 -856q14 -17 -9 -17h-129q-22 0 -32 19q-59 89 -134 280q-46 116 -73 268t-27 306q0 195 53 399q52 200 97 295q41 89 84 164z" />
    <glyph glyph-name="parenright" unicode=")" horiz-adv-x="604" 
d="M119 1421h131q22 0 31 -18q43 -75 84 -164q43 -90 96 -295q53 -204 53 -399q0 -154 -27 -306t-73 -268q-77 -195 -133 -280q-9 -19 -31 -19h-131q-18 0 -8 17q236 391 233 856q0 196 -53 397q-56 215 -96 297q-57 115 -86 164q-9 18 10 18z" />
    <glyph glyph-name="asterisk" unicode="*" horiz-adv-x="854" 
d="M588 672l-160 229l-160 -229q-15 -17 -30 -2l-95 86q-16 13 -2 30l168 191l-246 135q-14 8 -8 27l72 112q13 22 29 6l200 -139l-14 277q-3 22 18 22h136q20 0 20 -22l-16 -277l200 139q20 13 29 -6l72 -112q11 -18 -8 -27l-244 -135l166 -191q14 -17 -2 -30l-95 -86
q-15 -18 -30 2z" />
    <glyph glyph-name="plus" unicode="+" horiz-adv-x="1140" 
d="M635 150h-129q-21 0 -21 20v348h-342q-20 0 -20 21v118q0 21 20 21h342v346q0 20 21 20h129q20 0 20 -20v-346h342q21 0 21 -21v-118q0 -21 -21 -21h-342v-348q0 -20 -20 -20z" />
    <glyph glyph-name="comma" unicode="," horiz-adv-x="481" 
d="M139 -326l-47 50q-17 17 2 26q135 108 156 248h-4q-54 1 -85.5 35.5t-31.5 89.5q0 57 35 92t92 35q44 1 77 -23.5t44 -66.5q34 -125 -33 -281q-63 -153 -174 -213q-16 -10 -31 8z" />
    <glyph glyph-name="hyphen" unicode="-" horiz-adv-x="829" 
d="M115 541v116q0 21 20 21h559q21 0 21 -21v-116q0 -21 -21 -21h-559q-20 0 -20 21z" />
    <glyph glyph-name="period" unicode="." horiz-adv-x="538" 
d="M270 229q54 0 88.5 -35t34.5 -90t-34.5 -89.5t-88.5 -34.5q-77 -7 -109.5 58.5t0 131.5t109.5 59z" />
    <glyph glyph-name="slash" unicode="/" horiz-adv-x="796" 
d="M2 20l623 1440q9 19 28 19h127q21 0 15 -21l-625 -1440q-9 -18 -29 -18h-127q-18 0 -12 20z" />
    <glyph glyph-name="zero" unicode="0" horiz-adv-x="1222" 
d="M109 711q0 330 137 528q139 201 366 201q224 0 363 -201t139 -528q0 -328 -139 -529q-138 -200 -363 -200q-229 0 -366 198t-137 531zM612 156q145 0 234 151q90 156 90 404q0 245 -90 401q-89 154 -234 154q-148 0 -237 -154q-88 -149 -88 -401t88 -404
q89 -151 237 -151z" />
    <glyph glyph-name="one" unicode="1" horiz-adv-x="655" 
d="M135 1278v121q3 22 23 22h340q20 0 20 -22v-1379q0 -20 -20 -20h-136q-20 0 -20 20v1237h-184q-23 0 -23 21z" />
    <glyph glyph-name="two" unicode="2" horiz-adv-x="1126" 
d="M922 799l-23 -37l-76 -98q-80 -99 -205 -261l-186 -239h557q21 0 21 -23v-121q0 -20 -21 -20h-678h-45h-139q-13 0 -16.5 8t4.5 19l635 829q73 101 73 193q0 99 -61 161t-160 62q-149 0 -264 -142q-16 -16 -31 0l-86 93q-13 16 2 34q151 183 385 183q173 0 280 -105
t107 -282q0 -69 -23 -142t-50 -112z" />
    <glyph glyph-name="three" unicode="3" horiz-adv-x="1116" 
d="M467 811h100q96 0 158.5 68.5t62.5 169.5q0 98 -61.5 158.5t-159.5 60.5q-151 0 -264 -140q-12 -15 -29 -2l-88 101q-11 14 -2 30q151 183 385 183q176 0 283 -107q111 -105 111 -276q0 -204 -150 -312q195 -100 195 -339q0 -189 -127 -316q-126 -123 -326 -123
q-196 0 -319 111q-123 114 -132 295q0 20 21 20h135q20 0 23 -20q6 -103 81.5 -167.5t190.5 -64.5q121 0 197.5 76.5t76.5 192.5q0 113 -64.5 185.5t-170.5 76.5h-127q-21 0 -21 20v99q0 20 21 20z" />
    <glyph glyph-name="four" unicode="4" horiz-adv-x="1253" 
d="M956 463h164q21 0 21 -21v-116q0 -21 -21 -21h-164v-285q0 -20 -20 -20h-135q-21 0 -21 20v285h-520h-27h-127q-29 0 -14 27l649 1071q9 18 31 18l166 -2q18 0 18 -20v-936zM780 463v700l-424 -700h424z" />
    <glyph glyph-name="five" unicode="5" horiz-adv-x="1116" 
d="M889 1257h-504l-31 -432q88 52 199 52q203 0 328 -125q127 -127 127 -324q0 -204 -125 -332q-123 -129 -326 -129q-196 0 -318 109.5t-130 292.5q0 20 20 20h135q20 0 23 -20q6 -103 80.5 -166.5t189.5 -63.5q120 0 196 81.5t76 207.5q0 125 -78.5 205t-205.5 80
q-141 0 -205 -76h-150q-21 0 -18 20l53 742q0 22 23 22h641q20 0 20 -22v-121q0 -21 -20 -21z" />
    <glyph glyph-name="six" unicode="6" horiz-adv-x="1105" 
d="M997 422q0 -201 -120 -324q-121 -121 -322 -121t-324 123q-122 122 -122 322q0 105 34 186l365 793q9 20 31 20h139q27 0 18 -28l-256 -549q69 16 119 16q198 -2 318 -121t120 -317zM825 422q0 125 -74.5 200.5t-197.5 75.5q-121 0 -196.5 -76.5t-75.5 -199.5
q0 -124 74.5 -199.5t197.5 -75.5q121 0 196.5 76.5t75.5 198.5z" />
    <glyph glyph-name="seven" unicode="7" horiz-adv-x="993" 
d="M82 1421h840q29 0 20 -30l-518 -1371q-9 -20 -29 -20h-153q-22 0 -13 20l473 1237h-620q-21 0 -21 21v121q0 22 21 22z" />
    <glyph glyph-name="eight" unicode="8" horiz-adv-x="1138" 
d="M963 1051q0 -196 -148 -291q101 -50 158 -141t57 -207q0 -193 -127 -314q-124 -118 -334 -118q-209 0 -333 118q-127 121 -127 314q0 116 57 207t158 141q-146 96 -146 291q0 177 107 283t284 106q176 0 285 -109t109 -280zM854 418q0 122 -78 196t-205 74
q-124 0 -205 -76.5t-81 -193.5t79 -190.5t207 -73.5q125 0 204 73.5t79 190.5zM571 827q98 0 159 63t61 163q0 101 -60 161q-59 62 -160 62q-99 0 -161 -62t-62 -161q0 -100 62 -163t161 -63z" />
    <glyph glyph-name="nine" unicode="9" horiz-adv-x="1105" 
d="M940 762l-342 -744q-9 -18 -31 -18h-139q-28 0 -18 29l254 546q-56 -16 -115 -16q-201 0 -320 119q-120 120 -120 319q0 200 120 320q123 123 322 123q200 0 323 -123q123 -120 123 -320q0 -106 -57 -235zM553 721q121 0 196.5 76.5t75.5 199.5q0 124 -74.5 199.5
t-197.5 75.5q-122 0 -197 -76t-75 -199q0 -125 74.5 -200.5t197.5 -75.5z" />
    <glyph glyph-name="colon" unicode=":" horiz-adv-x="487" 
d="M106 897q0 61 38 98t100 37t98.5 -37t36.5 -98q0 -60 -37 -97.5t-98 -37.5t-99.5 37.5t-38.5 97.5zM143 18q-37 38 -37 100t37 99q38 37 100 37t99 -37t37 -99t-37 -100q-37 -37 -99 -37t-100 37z" />
    <glyph glyph-name="semicolon" unicode=";" horiz-adv-x="522" 
d="M129 897q0 61 37.5 98t99.5 37t99.5 -37t37.5 -98q0 -60 -38 -97.5t-99 -37.5t-99 37.5t-38 97.5zM147 -326l-49 50q-13 16 4 26q136 109 154 248h-2q-54 1 -85.5 35.5t-31.5 89.5q0 57 35 92t92 35q44 1 77 -23.5t44 -66.5q34 -125 -33 -281q-63 -153 -174 -213
q-16 -10 -31 8z" />
    <glyph glyph-name="less" unicode="&#x3c;" horiz-adv-x="1103" 
d="M78 530v160q0 22 18 31l910 383q20 6 20 -14v-142q0 -21 -20 -30l-752 -308l752 -309q20 -6 20 -29v-141q0 -20 -20 -14l-910 383q-18 9 -18 30z" />
    <glyph glyph-name="equal" unicode="=" horiz-adv-x="1073" 
d="M903 702h-733q-23 0 -23 23v113q0 22 23 22h733q23 0 23 -22v-113q0 -20 -23 -23zM903 379h-733q-23 0 -23 22v113q0 23 23 23h733q23 0 23 -23v-113q0 -22 -23 -22z" />
    <glyph glyph-name="greater" unicode="&#x3e;" horiz-adv-x="1103" 
d="M96 301l754 309l-754 308q-18 9 -18 30v142q0 20 20 14l910 -383q18 -9 18 -31v-160q0 -21 -18 -30l-910 -383q-20 -6 -20 14v141q0 20 18 29z" />
    <glyph glyph-name="question" unicode="?" horiz-adv-x="978" 
d="M690 1047q0 102 -61.5 163.5t-161.5 61.5q-149 0 -264 -139q-13 -17 -27 -3l-90 99q-16 15 0 31q146 180 385 180q175 0 285 -107q112 -103 112 -276q0 -182 -116 -309q-15 -16 -57 -57t-62.5 -64t-49 -61t-42 -76.5t-15.5 -81.5q-3 -21 -20 -21h-148q-20 0 -20 21
q4 87 40 162t91 128q12 12 49.5 48.5t53.5 52.5t44 50.5t40.5 60t23 62.5t10.5 75zM522 180q32 -31 32 -84.5t-32 -85.5q-31 -31 -82.5 -30.5t-83.5 32.5t-32 84t32 84t83.5 32t82.5 -32z" />
    <glyph glyph-name="at" unicode="@" horiz-adv-x="1855" 
d="M1739 682q0 -178 -91.5 -289.5t-240.5 -116.5q-143 0 -223 117q-86 -157 -289 -157q-164 0 -266 108q-100 109 -103 287q0 175 103 284t266 109q174 0 262 -119l29 68q3 12 16 12h86q12 0 12 -14v-408q-5 -63 32 -104t100 -41q75 0 120 73.5t43 190.5q0 265 -178 434
q-176 170 -448 170q-314 0 -506 -180t-195 -471q3 -291 195 -471t506 -180q235 0 411 159q16 15 31 0l84 -84q14 -17 -2 -30q-199 -199 -524 -199q-381 0 -619 221q-233 220 -233 582q0 364 233 584q235 223 619 223q343 0 555 -209q215 -209 215 -549zM909 399
q99 0 158 63.5t59 166.5q0 108 -59 170q-58 61 -158 61q-99 0 -159 -63q-60 -66 -60 -168q0 -104 60.5 -167t158.5 -63z" />
    <glyph glyph-name="A" unicode="A" horiz-adv-x="1333" 
d="M1143 14l-166 416h-621l-168 -416q-6 -14 -20 -14h-139q-25 0 -15 23l553 1378q6 18 29 18h141q21 0 27 -18l555 -1378q10 -23 -16 -23h-138q-14 0 -22 14zM913 588l-245 618l-250 -618h495z" />
    <glyph glyph-name="B" unicode="B" horiz-adv-x="1218" 
d="M674 702l-330 -2v-536h311q139 0 220 73t81 197q0 119 -76.5 193.5t-205.5 74.5zM344 831h262q130 0 196 59t66 165q0 97 -73 149.5t-209 52.5h-240zM188 1421h404q211 0 333.5 -96.5t123.5 -263.5q0 -183 -168 -277q251 -100 254 -360q3 -190 -123 -307t-342 -117h-482
q-20 0 -20 20v1379q0 22 20 22z" />
    <glyph glyph-name="C" unicode="C" horiz-adv-x="1390" 
d="M1319 168q-197 -188 -512 -188q-324 0 -524 200q-199 202 -199 529q0 174 60 316t165 232q217 183 500 183q141 2 273.5 -48t234.5 -143q14 -14 -2 -26l-84 -95q-12 -12 -31 -2q-158 140 -393 140q-244 0 -395 -154q-149 -152 -152 -403q3 -253 152 -402
q150 -150 395 -153q239 3 393 139q16 15 31 0l88 -96q15 -15 0 -29z" />
    <glyph glyph-name="D" unicode="D" horiz-adv-x="1380" 
d="M569 1257h-223l-2 -1093h225q252 0 402 147q149 146 149 400q0 253 -149 399q-150 147 -402 147zM569 0h-381q-20 0 -20 20v1381q0 20 20 20h381q331 0 529 -192q200 -194 200 -518q0 -329 -198 -521q-199 -190 -531 -190z" />
    <glyph glyph-name="E" unicode="E" horiz-adv-x="1062" 
d="M848 643h-504v-479h621q20 0 20 -21v-125q0 -18 -20 -18h-777q-20 0 -20 20v1381q0 20 20 20h756q21 0 21 -20v-125q0 -21 -21 -21h-598v-448h502q20 0 20 -21v-122q0 -21 -20 -21z" />
    <glyph glyph-name="F" unicode="F" horiz-adv-x="1021" 
d="M848 643h-504v-623q0 -20 -20 -20h-136q-20 0 -20 20v1381q0 20 20 20h756q21 0 21 -20v-125q0 -21 -21 -21h-598l-2 -448h504q20 0 20 -21v-122q0 -21 -20 -21z" />
    <glyph glyph-name="G" unicode="G" horiz-adv-x="1529" 
d="M1270 588h-441q-18 0 -18 20v115q0 20 20 20h594q21 0 21 -20q-6 -355 -176.5 -548.5t-485.5 -192.5q-316 0 -508 198t-192 531q0 327 201 528t528 201q300 0 506 -191q12 -12 0 -26l-90 -97q-12 -12 -27 0q-155 140 -389 140q-247 0 -401 -154q-152 -155 -152 -401
q0 -250 143 -402q144 -153 381 -153q210 0 333.5 111t152.5 321z" />
    <glyph glyph-name="H" unicode="H" horiz-adv-x="1382" 
d="M326 0h-138q-20 0 -20 20v1381q0 20 20 20h138q20 0 20 -18l-2 -602h690v600q0 20 21 20h141q18 0 18 -18v-1383q0 -20 -20 -20h-139q-21 0 -21 20v623h-690v-623q0 -20 -18 -20z" />
    <glyph glyph-name="I" unicode="I" horiz-adv-x="512" 
d="M344 1401v-1383q0 -18 -18 -18h-140q-18 0 -18 18v1383q0 20 18 20h140q18 0 18 -20z" />
    <glyph glyph-name="J" unicode="J" horiz-adv-x="817" 
d="M475 358l-2 1043q0 20 21 20h135q20 0 20 -20l2 -1065q1 -170 -82 -262t-239 -94q-172 3 -295 114q-16 13 -4 31l65 111q15 21 33 6q130 -86 195 -86q81 0 113.5 44.5t37.5 157.5z" />
    <glyph glyph-name="K" unicode="K" horiz-adv-x="1157" 
d="M344 1401v-656l545 664q12 12 22 12h168q32 0 11 -24l-564 -684l631 -688q22 -25 -10 -25h-184q-15 0 -25 10l-594 668v-660q0 -18 -18 -18h-140q-18 0 -18 18v1383q0 20 18 20h140q18 0 18 -20z" />
    <glyph glyph-name="L" unicode="L" horiz-adv-x="917" 
d="M344 1401l2 -1241h494q18 0 18 -21v-121q0 -18 -18 -18h-654q-18 0 -18 18v1383q0 20 18 20h140q18 0 18 -20z" />
    <glyph glyph-name="M" unicode="M" horiz-adv-x="1746" 
d="M199 1421h133q18 0 24 -16l516 -1016l512 1018q8 14 25 14h150q20 0 20 -20v-1381q0 -20 -20 -20h-138q-20 0 -20 20v1051l-436 -842q-6 -16 -23 -16h-137q-19 0 -25 14l-434 840l-2 -1047q0 -20 -20 -20h-127q-29 0 -29 29v1362q0 30 31 30z" />
    <glyph glyph-name="N" unicode="N" horiz-adv-x="1460" 
d="M1137 1421h137q20 0 20 -20l-2 -1381q0 -20 -18 -20h-166q-13 0 -25 12l-737 1129l-2 -1121q0 -20 -18 -20h-140q-18 0 -18 20v1381q0 20 20 20h166q17 0 25 -14l737 -1126v1120q0 20 21 20z" />
    <glyph glyph-name="O" unicode="O" horiz-adv-x="1624" 
d="M84 711q0 327 201 528t528 201t528 -201t201 -528q0 -330 -201 -531q-198 -198 -528 -198q-332 0 -530 198q-199 199 -199 531zM813 156q246 0 397 151q152 155 152 404q3 245 -150 401q-151 154 -399 154q-247 0 -401 -154q-152 -152 -152 -401t152 -404
q151 -151 401 -151z" />
    <glyph glyph-name="P" unicode="P" horiz-adv-x="1124" 
d="M651 592h-305v-572q0 -20 -20 -20h-138q-20 0 -20 20v1379q0 22 20 22h463q213 0 334 -110t123 -303q-2 -195 -123 -305.5t-334 -110.5zM346 1257v-499h301q135 -2 209 62.5t74 185.5t-74 186t-209 65h-301z" />
    <glyph glyph-name="Q" unicode="Q" horiz-adv-x="1624" 
d="M1161 57l355 -200q16 -10 6 -27l-68 -113q-13 -16 -29 -6l-467 281q-85 -10 -145 -10q-332 0 -530 198q-199 199 -199 531q0 327 201 528t528 201t528 -201t201 -528q0 -226 -100 -396.5t-281 -257.5zM1210 307q152 155 152 404t-152 401q-151 154 -397 154
q-247 0 -401 -154q-152 -155 -152 -401q0 -247 152 -402q153 -153 401 -153q246 0 397 151z" />
    <glyph glyph-name="R" unicode="R" horiz-adv-x="1155" 
d="M889 10l-348 582h-195v-572q0 -20 -20 -20h-138q-20 0 -20 20v1381q0 20 18 20h138h301q213 0 333.5 -110t122.5 -303q-2 -168 -95 -274.5t-263 -131.5l367 -577q16 -25 -13 -25h-168q-13 0 -20 10zM629 1257h-283v-499h283q130 -2 202 62.5t72 185.5q0 118 -72.5 184.5
t-201.5 66.5z" />
    <glyph glyph-name="S" unicode="S" horiz-adv-x="1159" 
d="M96 152q-14 8 -4 28l70 119q9 20 31 4q45 -40 79 -59q54 -34 145.5 -61t180.5 -27q135 0 216 61t81 164q-1 85 -78 136.5t-262 92.5q-232 54 -341 157t-114 269q-3 177 133 289q139 118 355 115q104 0 205 -29q148 -45 211 -108q14 -8 4 -31l-58 -125q-9 -20 -28 -4
q-154 121 -344 121q-129 0 -214 -63t-85 -157q0 -93 69 -147q67 -50 273 -104q236 -61 341 -150.5t109 -241.5q6 -195 -122.5 -308.5t-364.5 -112.5q-133 0 -242 36q-101 33 -154 65t-92 71z" />
    <glyph glyph-name="T" unicode="T" horiz-adv-x="1101" 
d="M463 18l-2 1237h-418q-18 0 -18 21v125q0 20 20 20h1014q18 0 18 -20v-125q0 -21 -20 -21h-418v-1237q0 -18 -18 -18h-140q-18 0 -18 18z" />
    <glyph glyph-name="U" unicode="U" horiz-adv-x="1372" 
d="M168 557v844q0 18 18 18h140q20 0 20 -20v-844q0 -192 91 -295.5t249 -103.5q161 0 250 102.5t88 296.5v846q0 18 20 18h140q20 0 20 -18v-846q-1 -274 -141 -423.5t-377 -149.5t-377.5 151t-140.5 424z" />
    <glyph glyph-name="V" unicode="V" horiz-adv-x="1325" 
d="M559 18l-549 1377q-9 24 17 24h151q20 0 23 -14l463 -1190l458 1190q8 14 23 14h153q26 0 17 -24l-549 -1377q-6 -18 -29 -18h-151q-21 0 -27 18z" />
    <glyph glyph-name="W" unicode="W" horiz-adv-x="1802" 
d="M1208 16l-309 1180l-311 -1180q-3 -16 -23 -16h-119q-16 0 -22 16l-416 1385q-6 20 15 20h143q15 0 24 -18l316 -1108l299 1108q3 18 24 18h140q19 0 22 -18l303 -1116l320 1120q3 14 18 14h148q20 0 14 -20l-418 -1385q-6 -16 -24 -16h-119q-19 0 -25 16z" />
    <glyph glyph-name="X" unicode="X" horiz-adv-x="1185" 
d="M193 0h-170q-25 0 -11 20l477 687l-464 694q-14 20 12 20h176q18 0 27 -12l354 -549l373 547q9 12 26 12h170q27 0 13 -20l-484 -690l465 -689q14 -20 -12 -20h-174q-18 0 -27 12l-356 543l-371 -543q-9 -12 -24 -12z" />
    <glyph glyph-name="Y" unicode="Y" horiz-adv-x="1177" 
d="M500 18v547l-488 830q-15 24 15 24h153q19 0 29 -16l381 -678l381 678q6 16 28 16h152q32 0 14 -24l-487 -828v-549q0 -18 -19 -18h-139q-20 0 -20 18z" />
    <glyph glyph-name="Z" unicode="Z" horiz-adv-x="1161" 
d="M1079 1386l-739 -1222h739q21 0 21 -21v-123q0 -20 -21 -20h-1001q-39 0 -19 33l740 1224h-690q-19 0 -19 19v125q0 20 19 20h950q38 0 20 -35z" />
    <glyph glyph-name="bracketleft" unicode="[" horiz-adv-x="679" 
d="M307 1274v-1456h232q20 0 20 -23v-104q0 -23 -20 -23l-377 2q-23 0 -23 21v1708q0 22 23 22h377q20 0 20 -22v-105q0 -20 -20 -20h-232z" />
    <glyph glyph-name="backslash" unicode="\" horiz-adv-x="780" 
d="M20 1479h125q18 0 25 -17l623 -1437q9 -25 -17 -25h-125q-18 0 -24 16l-623 1438q-9 25 16 25z" />
    <glyph glyph-name="bracketright" unicode="]" horiz-adv-x="679" 
d="M131 -180h231v1454h-231q-22 0 -22 20v105q0 22 22 22h377q20 0 20 -22v-1708q0 -21 -20 -21h-379q-20 0 -20 23v104q0 23 22 23z" />
    <glyph glyph-name="asciicircum" unicode="^" horiz-adv-x="1187" 
d="M109 555l374 846q9 18 29 18h164q20 0 29 -18l374 -846q9 -25 -16 -25h-139q-20 0 -27 17l-303 708l-303 -708q-10 -17 -27 -17h-139q-32 0 -16 25z" />
    <glyph glyph-name="underscore" unicode="_" horiz-adv-x="1198" 
d="M131 -133h936q23 0 23 -23v-96q0 -22 -23 -22h-936q-22 0 -22 22v96q0 23 22 23z" />
    <glyph glyph-name="grave" unicode="`" horiz-adv-x="563" 
d="M408 1118l-326 223q-19 12 -2 29l84 107q16 13 29 0l290 -275q13 -9 2 -20l-53 -62q-8 -11 -24 -2z" />
    <glyph glyph-name="a" unicode="a" horiz-adv-x="1187" 
d="M885 770l26 137q3 19 23 19h96q19 0 19 -19v-887q0 -20 -21 -20h-96q-14 0 -23 18l-24 138q-114 -176 -346 -176q-208 0 -338 133q-129 135 -129 350q0 216 129 348t338 135q232 0 346 -176zM553 143q143 0 234 89t92 231q-3 139 -95 231q-88 88 -231 88t-231 -88
q-86 -89 -86 -231t88 -231t229 -89z" />
    <glyph glyph-name="b" unicode="b" horiz-adv-x="1183" 
d="M246 0h-86q-21 0 -21 20v1438q0 21 21 21h125q20 0 20 -21v-684q111 172 340 172q210 0 336 -135q129 -132 129 -348q0 -215 -129 -350q-127 -133 -336 -133q-235 0 -348 180l-27 -140q-6 -20 -24 -20zM631 782q-143 0 -234.5 -89t-91.5 -230t91.5 -230.5t234.5 -89.5
q141 0 229 89t88 231t-88 230.5t-229 88.5z" />
    <glyph glyph-name="c" unicode="c" horiz-adv-x="1026" 
d="M952 176q-132 -196 -399 -196q-215 0 -348 133q-133 136 -133 350q0 231 143 356q144 129 340 129q263 0 401 -205q10 -20 -4 -28l-94 -80q-18 -15 -33 6q-89 139 -272 139q-143 0 -230 -87t-87 -230t87.5 -231.5t229.5 -88.5q180 0 272 136q12 21 33 6l90 -80
q14 -9 4 -29z" />
    <glyph glyph-name="d" unicode="d" horiz-adv-x="1183" 
d="M539 -20q-208 0 -338 133q-127 136 -127 350q0 215 127 348q129 135 338 135q229 0 340 -170v684q0 19 20 19h127q18 0 18 -19v-1440q0 -20 -18 -20h-88q-20 0 -23 18l-28 140q-114 -178 -348 -178zM553 782q-141 0 -229 -88.5t-88 -230.5t88 -231t229 -89
q143 0 234.5 89.5t91.5 230.5t-91.5 230t-234.5 89z" />
    <glyph glyph-name="e" unicode="e" horiz-adv-x="1105" 
d="M242 530h620q-19 117 -102 186.5t-207 69.5q-127 0 -209.5 -69t-101.5 -187zM1014 393h-770q20 -117 109 -185.5t222 -68.5q163 0 252 92q17 17 33 2l84 -81q16 -16 2 -29q-125 -143 -375 -143q-223 0 -362 133q-137 131 -137 350q0 215 133 348q132 135 348 135
q227 0 353.5 -140t125.5 -392q0 -21 -18 -21z" />
    <glyph glyph-name="f" unicode="f" horiz-adv-x="638" 
d="M573 776h-227v-756q0 -20 -20 -20h-125q-21 0 -21 20v756h-145q-23 0 -23 21v106q0 23 23 23h145l-2 227q0 166 74.5 257t204.5 91q120 0 221 -67q15 -9 6 -31l-57 -103q-9 -16 -29 -6q-64 43 -127 43q-122 0 -125 -198v-213h227q21 0 21 -23v-106q0 -21 -21 -21z" />
    <glyph glyph-name="g" unicode="g" horiz-adv-x="1185" 
d="M539 946q237 0 350 -180l31 139q3 21 22 21h86q19 0 19 -21l2 -905q3 -217 -138 -352q-139 -133 -356 -133q-195 0 -367 96q-18 9 -8 31l60 110q9 18 24 6q118 -74 287 -80q155 0 242.5 84.5t89.5 233.5v154q-117 -173 -344 -173q-208 3 -338 136q-129 132 -129 348
q0 218 129 350q129 135 338 135zM553 143q146 0 237 88.5t91 231.5q0 142 -91 230.5t-237 88.5q-141 0 -229 -88.5t-88 -230.5t88 -231t229 -89z" />
    <glyph glyph-name="h" unicode="h" horiz-adv-x="1116" 
d="M139 20v1438q0 21 19 21h127q18 0 18 -21l2 -688q99 176 311 176q170 0 267.5 -106.5t97.5 -307.5l2 -512q0 -20 -20 -20h-127q-19 0 -19 20v500q0 262 -231 262q-118 0 -197 -94q-78 -97 -84 -237v-431q0 -20 -20 -20h-127q-19 0 -19 20z" />
    <glyph glyph-name="i" unicode="i" horiz-adv-x="454" 
d="M309 905l2 -885q0 -20 -20 -20h-127q-19 0 -19 20v885q0 21 19 21h127q18 0 18 -21zM229 1147q-54 0 -87 33.5t-33 87.5t33 85t87 31t85.5 -31t31.5 -85t-33 -87.5t-84 -33.5z" />
    <glyph glyph-name="j" unicode="j" horiz-adv-x="507" 
d="M193 1180q-32 32 -32 86t32 86t86 32t86 -32t32 -86t-32 -86t-86 -32t-86 32zM199 -131l-2 1036q0 21 20 21l125 -2q20 0 20 -19l3 -1052q2 -155 -73 -247.5t-202 -92.5q-121 0 -215 67q-16 9 -6 29l57 104q12 18 33 6q62 -41 119 -41q118 0 121 191z" />
    <glyph glyph-name="k" unicode="k" horiz-adv-x="946" 
d="M690 926h178q40 0 11 -29l-387 -399l454 -471q27 -27 -12 -27h-176q-17 0 -27 10l-426 445v-437q0 -18 -20 -18h-127q-19 0 -19 18v1442q0 19 19 19h127q20 0 20 -19v-932l361 385q13 13 24 13z" />
    <glyph glyph-name="l" unicode="l" horiz-adv-x="454" 
d="M311 1458v-1438q0 -20 -20 -20h-127q-19 0 -19 20v1438q0 21 19 21h127q20 0 20 -21z" />
    <glyph glyph-name="m" unicode="m" horiz-adv-x="1683" 
d="M160 926h90q21 0 24 -21l23 -135q95 176 293 176q222 0 299 -194q105 194 323 194q158 0 248 -106.5t90 -307.5v-512q0 -20 -18 -20h-127q-21 0 -21 20v500q0 262 -204 262q-113 0 -182 -93.5t-70 -252.5v-416q0 -20 -21 -20h-125q-20 0 -20 20v500q0 262 -205 262
q-105 0 -175.5 -93.5t-76.5 -237.5v-431q0 -20 -20 -20h-125q-21 0 -21 20v885q0 21 21 21z" />
    <glyph glyph-name="n" unicode="n" horiz-adv-x="1116" 
d="M139 20v885q0 21 19 21h92q21 0 24 -21l23 -143q102 184 319 184q170 0 267.5 -106.5t97.5 -307.5l2 -512q0 -20 -20 -20h-127q-19 0 -19 20v500q0 262 -231 262q-116 0 -197 -96q-78 -97 -84 -237v-429q0 -20 -20 -20h-125q-21 0 -21 20z" />
    <glyph glyph-name="o" unicode="o" horiz-adv-x="1107" 
d="M72 465q0 215 133 348t348 133t348 -133t133 -348q0 -216 -133 -352q-133 -133 -348 -133t-348 133q-133 136 -133 352zM236 463q0 -141 88 -230.5t229 -89.5t229 89.5t88 230.5q0 143 -87.5 231t-229.5 88q-141 0 -229 -88.5t-88 -230.5z" />
    <glyph glyph-name="p" unicode="p" horiz-adv-x="1183" 
d="M285 -467h-125q-21 0 -21 21v1351q0 21 21 21h84q21 0 24 -21l29 -137q114 178 348 178q209 0 338 -135q129 -132 129 -350q0 -216 -129 -348q-130 -133 -338 -133q-231 0 -340 167v-593q0 -21 -20 -21zM395 692q-90 -90 -90 -229q0 -142 90 -232q91 -88 236 -88
q144 0 229 88q88 88 88 232q0 143 -88 231q-85 88 -229 88q-143 0 -236 -90z" />
    <glyph glyph-name="q" unicode="q" horiz-adv-x="1183" 
d="M1047 905l-3 -1351q0 -21 -20 -21h-123q-20 0 -20 21v593q-112 -167 -342 -167q-208 0 -338 133q-129 132 -129 348q0 218 129 350q129 135 338 135q234 0 348 -178l28 137q6 21 25 21h86q21 0 21 -21zM553 143q143 0 234.5 89.5t91.5 230.5t-91.5 230t-234.5 89
q-141 0 -229 -88.5t-88 -230.5t88 -231t229 -89z" />
    <glyph glyph-name="r" unicode="r" horiz-adv-x="710" 
d="M627 752q-68 26 -131 26q-127 0 -191 -143v-615q0 -20 -20 -20h-125q-21 0 -21 20v885q0 21 19 21h86q21 0 24 -21l17 -74q101 113 241 113q74 0 148 -24q18 -3 12 -25l-35 -131q-3 -18 -24 -12z" />
    <glyph glyph-name="s" unicode="s" horiz-adv-x="835" 
d="M76 82q-16 13 -4 31l55 98q6 15 27 6q118 -75 252 -78q90 -1 143 29.5t53 81.5q0 52 -47 80.5t-174 62.5q-157 42 -227.5 106.5t-71.5 172.5q-1 124 95.5 201t252.5 75q170 -3 285 -90q15 -12 6 -31l-49 -100q-9 -16 -29 -6q-104 64 -209 67q-82 2 -134 -27.5t-52 -76.5
q0 -53 43 -81.5t164 -61.5q165 -44 238 -105.5t77 -171.5q2 -129 -96 -206t-262 -76q-210 0 -336 100z" />
    <glyph glyph-name="t" unicode="t" horiz-adv-x="651" 
d="M356 774v-414q0 -120 22 -166.5t77 -48.5q43 0 92 43q20 9 28 -4l58 -104q10 -23 -4 -31q-88 -70 -193 -67q-121 0 -184.5 85t-61.5 246v463h-145q-20 0 -20 19v110q0 21 20 21h145l3 309q0 20 18 20h127q18 0 18 -20v-311h222q20 0 20 -19v-110q0 -21 -20 -21h-222z" />
    <glyph glyph-name="u" unicode="u" horiz-adv-x="1120" 
d="M846 18l-23 146q-105 -187 -325 -187q-170 0 -266.5 107t-96.5 307l-2 514q0 21 21 21h127q18 0 18 -21v-499q0 -267 233 -267q118 0 197.5 95t85.5 243v428q0 21 21 21h125q20 0 20 -21v-887q0 -18 -18 -18h-93q-21 0 -24 18z" />
    <glyph glyph-name="v" unicode="v" horiz-adv-x="948" 
d="M936 899l-365 -881q-6 -18 -28 -18h-137q-20 0 -29 18l-363 881q-12 27 17 27h143q16 0 23 -17l278 -716l277 714q6 16 24 19l142 -2q27 0 18 -25z" />
    <glyph glyph-name="w" unicode="w" horiz-adv-x="1314" 
d="M197 907l176 -696l198 696q7 17 25 17h123q17 0 24 -17l199 -704l174 704q7 17 23 17h149q18 0 15 -19l-263 -889q-6 -16 -22 -16h-144q-18 0 -24 16l-193 693l-194 -693q-6 -16 -25 -16h-141q-20 0 -23 16l-262 891q-3 17 13 17h149q20 0 23 -17z" />
    <glyph glyph-name="x" unicode="x" horiz-adv-x="958" 
d="M469 324l-221 -308q-10 -16 -31 -16h-162q-31 0 -12 25l328 430l-334 444q-18 27 12 27h164q17 0 33 -19l231 -313l236 315q17 17 32 17h162q33 0 11 -25l-343 -436l330 -440q22 -25 -12 -25h-162q-23 0 -33 16z" />
    <glyph glyph-name="y" unicode="y" horiz-adv-x="958" 
d="M782 926h140q29 -3 16 -29l-553 -1346q-9 -18 -29 -18h-127q-27 0 -18 27l180 444l-373 893q-10 26 17 29h141q18 0 27 -19l268 -700l285 700q10 19 26 19z" />
    <glyph glyph-name="z" unicode="z" horiz-adv-x="921" 
d="M815 0h-704q-41 0 -19 31l469 743h-432q-20 0 -20 21v110q0 19 20 19l676 2q17 0 22 -11t-6 -24l-469 -741h463q19 0 19 -21v-109q0 -20 -19 -20z" />
    <glyph glyph-name="braceleft" unicode="{" horiz-adv-x="739" 
d="M162 614q56 11 98.5 64.5t42.5 130.5v332q0 95 33 178q43 100 172 100h100q23 0 23 -20v-111q0 -22 -23 -22h-76q-65 0 -65 -125v-324q0 -183 -150 -274q150 -89 150 -273v-323q0 -127 65 -127h76q23 0 23 -23v-108q0 -23 -23 -23h-100q-205 0 -205 281v332
q0 77 -43 130.5t-98 61.5q-15 3 -15 18v111q0 11 15 14z" />
    <glyph glyph-name="bar" unicode="|" horiz-adv-x="442" 
d="M303 1456v-1900q0 -23 -22 -23h-117q-23 0 -23 23v1900q0 23 23 23h117q22 0 22 -23z" />
    <glyph glyph-name="braceright" unicode="}" horiz-adv-x="739" 
d="M205 1266h-74q-22 0 -22 22v111q0 20 22 20h100q63 0 107 -26t63 -74q35 -82 35 -178v-332q-1 -77 41.5 -130.5t100.5 -64.5q14 -3 14 -16v-111q0 -13 -14 -16q-58 -8 -100.5 -61t-41.5 -131v-332q0 -281 -205 -281h-100q-22 0 -22 23v110q0 23 22 23h74q65 0 65 125v323
q0 183 152 273q-152 90 -152 274v324q0 125 -65 125z" />
    <glyph glyph-name="asciitilde" unicode="~" horiz-adv-x="1155" 
d="M195 334q-9 -28 -31 -6l-82 86q-15 15 -6 30q42 116 120.5 184t174.5 68q75 0 139.5 -31.5t103.5 -76.5q97 -105 177 -103q100 3 170 189q9 27 30 6l82 -86q15 -15 6 -29q-39 -115 -119 -186.5t-176 -71.5q-63 0 -116.5 22.5t-90 55t-69.5 64t-69 52.5t-74 19
q-100 -3 -170 -186z" />
    <glyph glyph-name="uni00A0" unicode="&#xa0;" horiz-adv-x="641" 
 />
    <glyph glyph-name="exclamdown" unicode="&#xa1;" horiz-adv-x="509" 
d="M186 1026h136q20 0 20 -20l4 -986q0 -20 -20 -20h-144q-20 0 -20 20l4 986q0 20 20 20zM254 1210q-51 0 -83 32t-32 83t32 83t83 32t83 -32t32 -83q0 -52 -31 -83.5t-84 -31.5z" />
    <glyph glyph-name="cent" unicode="&#xa2;" horiz-adv-x="1026" 
d="M649 768l-117 -625h21q181 0 272 138q15 22 31 6l94 -84q12 -9 2 -25q-131 -198 -399 -198q-41 0 -51 2l-35 -183q-3 -20 -25 -20h-75q-22 0 -19 20l39 205q-147 44 -231 166.5t-84 292.5q0 226 141 352q142 130 336 133h14l31 162q3 20 24 20h78q20 0 17 -20l-33 -176
q182 -47 276 -193q9 -16 -2 -24l-98 -82q-16 -16 -31 6q-63 100 -176 127zM418 168l114 612h-4q-133 -7 -212.5 -93.5t-79.5 -223.5q0 -104 48 -182t134 -113z" />
    <glyph glyph-name="sterling" unicode="&#xa3;" horiz-adv-x="1052" 
d="M879 0h-705q-23 0 -14 25q176 392 133 596h-164q-20 0 -20 22v88q0 23 20 23h117q-70 155 -70 290q0 173 109 285q108 111 280 111q226 0 373 -176q16 -16 0 -31l-86 -94q-19 -19 -35 4q-108 129 -254 129q-96 0 -155.5 -64.5t-59.5 -163.5q0 -68 19 -126l16 -52l45 -112
h258q23 0 23 -23v-88q0 -22 -23 -22h-223q27 -190 -74 -461h490q22 0 22 -21v-116q0 -23 -22 -23z" />
    <glyph glyph-name="currency" unicode="&#xa4;" horiz-adv-x="1196" 
d="M602 954q141 0 242 -67l108 114q14 15 29 0l94 -94q12 -16 0 -28l-114 -115q57 -92 57 -225q0 -139 -68 -242l121 -119q14 -14 0 -26l-94 -95q-13 -16 -27 -2l-125 125q-91 -55 -223 -55q-125 0 -217 51l-125 -129q-12 -15 -27 0l-94 96q-12 12 0 27l119 119
q-74 109 -74 250q0 112 54 217l-119 114q-12 15 0 27l94 96q15 15 29 0l110 -110q109 71 250 71zM340 539q0 -117 72 -188.5t190 -71.5q117 0 188.5 71.5t71.5 188.5t-71.5 188.5t-188.5 71.5q-118 1 -190 -70t-72 -190z" />
    <glyph glyph-name="yen" unicode="&#xa5;" horiz-adv-x="1177" 
d="M500 20v232h-273q-20 0 -20 20v64q0 20 20 20h273v144h-273q-20 0 -20 20v64q0 20 20 20h244h6l-465 791q-15 24 15 24h153q19 0 29 -16l381 -678l379 678q10 16 30 16h152q32 0 14 -24l-465 -791h11h237q21 0 21 -20v-64q0 -20 -21 -20h-270v-144h270q21 0 21 -20v-64
q0 -20 -21 -20h-270v-232q0 -20 -21 -20h-137q-20 0 -20 20z" />
    <glyph glyph-name="brokenbar" unicode="&#xa6;" horiz-adv-x="442" 
d="M164 254h115q20 0 20 -21v-679q0 -21 -20 -21h-115q-21 0 -21 21v679q0 21 21 21zM164 1479h115q20 0 20 -21v-680q0 -20 -20 -20h-115q-21 0 -21 20v680q0 21 21 21z" />
    <glyph glyph-name="section" unicode="&#xa7;" horiz-adv-x="1093" 
d="M100 1087q-3 156 119 254q123 102 318 99q231 -3 368 -119q14 -14 4 -33l-53 -108q-9 -22 -31 -6q-131 94 -299 94q-110 0 -180 -48.5t-70 -123.5q0 -83 62 -127q60 -42 227 -86q213 -56 306.5 -136.5t97.5 -218.5q3 -146 -92 -245q98 -82 92 -238q-9 -163 -131 -248
q-124 -89 -306 -86q-115 0 -213 33q-90 28 -137 54.5t-84 62.5q-14 14 -4 30l64 105q12 18 30 6q154 -121 357 -121q106 0 176 46.5t70 133.5q0 72 -61 114t-222 79q-209 47 -306 138.5t-102 240.5q-3 127 88 229q-85 85 -88 225zM276 643q0 -86 63.5 -136t225.5 -91
q67 -16 144 -45q82 52 82 143q0 76 -63.5 123.5t-219.5 83.5q-91 21 -158 49q-74 -53 -74 -127z" />
    <glyph glyph-name="dieresis" unicode="&#xa8;" horiz-adv-x="731" 
d="M111 1239q-32 32 -32 86t32 86t86 32t86 -32t32 -86t-32 -86t-86 -32t-86 32zM446 1239q-31 32 -31 86t31 86q32 32 86 32t86 -32t32 -86t-32 -86t-86 -32t-86 32z" />
    <glyph glyph-name="copyright" unicode="&#xa9;" horiz-adv-x="1675" 
d="M1165 471q-106 -158 -321 -158q-176 0 -285 109q-106 109 -106 287q0 151 86 254q85 102 200 129q118 27 238 -13q124 -38 190 -137q11 -18 -2 -27l-75 -67q-16 -13 -31 8q-73 98 -215 98q-110 1 -178 -66.5t-68 -178.5q0 -112 67.5 -180t178.5 -68q143 0 215 96
q18 21 33 6l73 -63q16 -10 0 -29zM109 709q0 332 198 530q201 201 529 201q329 0 530 -201t201 -530t-203 -529q-200 -200 -528 -200q-329 0 -529 200q-198 198 -198 529zM238 709q0 -270 165 -435q166 -163 435 -163q271 0 434 163q166 166 166 435q0 271 -166 434
q-166 166 -434 166q-271 0 -437 -166q-163 -163 -163 -434z" />
    <glyph glyph-name="ordfeminine" unicode="&#xaa;" horiz-adv-x="886" 
d="M678 1430h80q20 0 20 -21v-621q0 -22 -20 -22h-82q-20 0 -23 20l-16 82q-94 -116 -248 -116q-149 0 -241.5 96t-92.5 250q0 155 92.5 250.5t241.5 95.5q162 0 250 -113l14 78q6 21 25 21zM412 1307q-99 0 -157 -56.5t-58 -152.5q0 -93 59 -152q57 -57 156 -57
q98 0 155 57q60 60 60 152q0 93 -60.5 151t-154.5 58z" />
    <glyph glyph-name="guillemotleft" unicode="&#xab;" horiz-adv-x="1052" 
d="M512 532v27q0 23 14 37l281 307q16 13 33 0l78 -80q15 -17 0 -32l-230 -246l230 -246q16 -15 0 -31l-78 -80q-15 -15 -33 0l-281 308q-14 14 -14 36zM463 903l78 -80q13 -16 0 -32l-232 -246l232 -246q15 -18 -2 -31l-76 -80q-17 -16 -33 0l-280 308q-15 15 -15 36v27
q0 22 15 37l280 307q15 15 33 0z" />
    <glyph glyph-name="logicalnot" unicode="&#xac;" horiz-adv-x="1280" 
d="M1128 784v-411q0 -23 -22 -23h-113q-20 0 -20 23v276h-801q-20 0 -20 23v110q0 22 20 25h934q22 0 22 -23z" />
    <glyph glyph-name="uni00AD" unicode="&#xad;" horiz-adv-x="681" 
 />
    <glyph glyph-name="registered" unicode="&#xae;" horiz-adv-x="1650" 
d="M96 709q0 331 199 530q201 201 530 201q328 0 529 -201q200 -200 200 -530q0 -329 -200 -529t-529 -200q-328 0 -528 200q-201 201 -201 529zM825 1309q-268 0 -434 -166q-164 -164 -164 -434q0 -268 164 -435q166 -163 434 -163q272 0 435 163q165 165 165 435
q0 272 -165 434q-163 166 -435 166zM1102 877q0 -88 -49.5 -146.5t-137.5 -75.5l191 -307q16 -22 -14 -22h-117q-19 0 -27 14l-176 309h-65l-2 -301q2 -11 -4 -16.5t-19 -5.5h-98q-25 0 -25 24v729q0 23 25 23h268q117 0 183.5 -59.5t66.5 -165.5zM707 967v-187h143
q111 0 111 92q0 95 -111 95h-143z" />
    <glyph glyph-name="overscore" unicode="&#xaf;" horiz-adv-x="665" 
d="M94 1421h479q19 0 19 -20v-105q0 -20 -19 -20h-479q-20 0 -20 20v105q0 20 20 20z" />
    <glyph glyph-name="degree" unicode="&#xb0;" horiz-adv-x="864" 
d="M100 1114q0 152 91 243t241 91q149 0 241.5 -92.5t92.5 -241.5t-92.5 -240.5t-241.5 -91.5t-240.5 91.5t-91.5 240.5zM250 1114q0 -79 49 -131q52 -49 133 -49q82 0 131 49q51 48 51 131q0 82 -50 132t-132 50q-84 0 -133 -50t-49 -132z" />
    <glyph glyph-name="plusminus" unicode="&#xb1;" horiz-adv-x="1206" 
d="M668 362h-129q-21 0 -21 21v307h-342q-20 0 -20 21v118q0 21 20 21h342v309q0 18 21 21h129q20 0 20 -21v-309h342q21 0 21 -21v-118q0 -21 -21 -21h-342v-307q0 -21 -20 -21zM1044 217v-111q0 -20 -20 -20h-842q-20 0 -20 20v111q0 21 20 21h842q20 0 20 -21z" />
    <glyph glyph-name="twosuperior" unicode="&#xb2;" horiz-adv-x="679" 
d="M565 971l-10 -15l-231 -297h276q21 0 21 -22v-96q0 -23 -21 -23h-520q-41 3 -17 37l353 471l6 8q2 5 19.5 33.5t29.5 58t12 56.5q0 52 -32.5 83.5t-85.5 30.5q-96 0 -156 -75q-12 -12 -27 0l-65 79q-12 15 0 27q94 113 248 113q122 0 194 -68t72 -194q0 -32 -9 -67.5
t-16.5 -54t-23.5 -51.5t-17 -34z" />
    <glyph glyph-name="threesuperior" unicode="&#xb3;" horiz-adv-x="690" 
d="M266 956v74q0 21 21 21h57q50 0 81.5 38t31.5 99q0 51 -30.5 82t-80.5 33q-82 0 -147 -74q-15 -12 -25 -2l-65 78q-9 9 0 24q91 111 243 111q113 0 183.5 -67.5t70.5 -176.5q0 -124 -84 -199q111 -68 111 -221q0 -122 -80.5 -199t-210.5 -77q-124 0 -202.5 69t-86.5 185
q0 20 21 20h106q17 0 17 -16q6 -54 44.5 -84.5t100.5 -30.5q66 0 104.5 38.5t38.5 102.5q0 66 -34 106.5t-91 45.5h-73q-21 0 -21 20z" />
    <glyph glyph-name="acute" unicode="&#xb4;" horiz-adv-x="563" 
d="M397 1475l86 -105q14 -14 -2 -27l-327 -227q-17 -10 -29 4l-47 58q-12 14 2 28l291 271q14 14 26 -2z" />
    <glyph glyph-name="mu" unicode="&#xb5;" horiz-adv-x="1126" 
d="M821 477v426q0 23 21 23h125q20 0 20 -21v-885q0 -20 -20 -20h-93q-19 0 -22 20l-25 144q-105 -187 -325 -187q-123 0 -199 58v-475q0 -25 -24 -25h-117q-23 0 -23 25v1343q0 23 21 23h125q20 0 20 -23v-497q0 -267 232 -267q119 0 198 94q80 95 86 244z" />
    <glyph glyph-name="paragraph" unicode="&#xb6;" horiz-adv-x="1155" 
d="M811 1260h-184v-1336q0 -22 -21 -22h-108q-23 0 -23 22v746q-167 0 -270 103.5t-103 270.5t103 271t270 104h60h4h493q23 0 23 -20v-117q0 -22 -23 -22h-69v-1336q0 -22 -21 -22h-111q-20 0 -20 22v1336z" />
    <glyph glyph-name="middot" unicode="&#xb7;" horiz-adv-x="432" 
d="M86 571q0 60 35.5 97t95.5 37t95.5 -37t35.5 -97q0 -57 -37 -94t-94 -37q-59 0 -95 36.5t-36 94.5z" />
    <glyph glyph-name="cedilla" unicode="&#xb8;" horiz-adv-x="595" 
d="M231 0h138l-33 -76q186 -21 186 -174q0 -87 -64 -140.5t-163 -51.5q-118 -3 -213 71q-13 8 -4 27l43 59q8 11 24 2q82 -43 144 -43q44 0 71 21.5t27 56.5q0 68 -119 68h-94q-21 0 -12 18z" />
    <glyph glyph-name="onesuperior" unicode="&#xb9;" horiz-adv-x="450" 
d="M72 1421h237q21 0 21 -20v-860q0 -23 -21 -23h-108q-23 0 -23 23v737h-106q-20 0 -23 20v101q0 22 23 22z" />
    <glyph glyph-name="ordmasculine" unicode="&#xba;" horiz-adv-x="800" 
d="M745 1100q0 -158 -95 -253t-251 -95q-155 0 -249.5 96t-94.5 252q0 155 94.5 250.5t249.5 95.5t250.5 -95.5t95.5 -250.5zM604 1100q0 92 -57 150.5t-148 58.5t-149 -58q-55 -58 -55 -151q0 -96 55 -154q57 -57 149 -57t148.5 58.5t56.5 152.5z" />
    <glyph glyph-name="guillemotright" unicode="&#xbb;" horiz-adv-x="1054" 
d="M545 559v-27q0 -21 -15 -36l-280 -308q-18 -15 -33 0l-78 80q-15 16 0 31l230 246l-230 246q-15 15 0 32l78 80q15 15 33 0l280 -307q15 -15 15 -37zM516 823l78 80q15 15 33 0l280 -307q15 -15 15 -37v-27q0 -21 -15 -36l-280 -308q-18 -15 -33 0l-76 80q-17 13 -2 31
l232 246l-232 246q-13 16 0 32z" />
    <glyph glyph-name="onequarter" unicode="&#xbc;" horiz-adv-x="1628" 
d="M1522 289v-82q3 -21 -19 -21h-100v-163q0 -23 -21 -23h-110q-23 0 -23 20v166h-413q-44 0 -23 37l387 660q11 19 31 16h151q21 0 21 -20v-570h98q24 0 21 -20zM291 25l813 1439q6 15 24 15h132q11 0 15.5 -6.5t-1.5 -16.5l-813 -1442q-8 -14 -27 -14h-129q-30 0 -14 25z
M233 541v737h-104q-23 0 -23 20v101q0 22 21 22h238q20 0 20 -20l2 -860q0 -23 -22 -23h-109q-23 0 -23 23zM1006 309h243v416z" />
    <glyph glyph-name="onehalf" unicode="&#xbd;" horiz-adv-x="1660" 
d="M293 27l811 1437q6 15 24 15h127q32 0 17 -27l-811 -1438q-8 -14 -27 -14h-125q-31 0 -16 27zM129 1421h236q22 0 22 -20v-860q0 -23 -22 -23h-107q-22 0 -22 23v737h-107q-23 0 -23 20v101q0 22 23 22zM1481 438l-39 -49l-99 -127l-94 -123h277q20 0 20 -20v-96
q0 -23 -20 -23h-520q-40 0 -19 37l352 471q68 103 68 156q0 50 -33 82t-84 32q-93 0 -157 -76q-9 -19 -25 0l-68 80q-9 12 0 27q98 113 248 113q121 0 193.5 -68.5t72.5 -194.5q0 -99 -73 -221z" />
    <glyph glyph-name="threequarters" unicode="&#xbe;" horiz-adv-x="1869" 
d="M492 29l804 1425q16 25 43 25h115q31 0 16 -27l-804 -1427q-16 -25 -43 -25h-115q-29 0 -16 29zM322 956v74q0 21 20 21h57q50 2 81.5 39t31.5 98q0 50 -30.5 81.5t-78.5 33.5q-84 0 -149 -74q-12 -12 -25 -2l-65 78q-9 12 0 24q95 111 244 111q113 0 183.5 -67.5
t70.5 -176.5q0 -127 -84 -199q110 -67 110 -221q3 -121 -80 -198q-81 -78 -211 -78q-124 0 -202 69t-86 185q0 20 20 20h107q15 0 18 -16q4 -54 42.5 -84.5t100.5 -30.5q66 0 105 39t39 102q0 68 -34 109.5t-91 42.5h-74q-20 0 -20 20zM1765 289v-82q0 -21 -20 -21h-100
v-163q0 -23 -21 -23h-111q-22 0 -22 20v166h-414q-43 0 -22 37l387 660q11 19 31 16h151q21 0 21 -20v-570h100q20 0 20 -20zM1247 309h244v416z" />
    <glyph glyph-name="questiondown" unicode="&#xbf;" horiz-adv-x="978" 
d="M453 1012q0 20 20 20h148q20 0 20 -20q-8 -170 -131 -293q-10 -10 -42.5 -40.5t-46 -43.5t-39.5 -41.5t-38.5 -49t-27.5 -49.5t-21 -59t-6 -63q0 -102 61 -162.5t160 -60.5q154 0 266 139q15 15 27 0l88 -99q16 -13 2 -30q-152 -180 -387 -180q-172 0 -285 104
q-110 107 -110 278q0 93 31.5 173t82.5 135q19 21 58 59t62 63.5t50 61.5t41.5 75.5t16.5 82.5zM655 1323q0 -52 -31.5 -83.5t-84.5 -31.5q-48 0 -84 31q-31 31 -31 84t31 84q25 25 61.5 31t68 -5.5t53 -41t17.5 -68.5z" />
    <glyph glyph-name="Agrave" unicode="&#xc0;" horiz-adv-x="1333" 
d="M1143 14l-166 416h-621l-168 -416q-6 -14 -20 -14h-139q-25 0 -15 23l553 1378q6 18 29 18h141q21 0 27 -18l555 -1378q10 -23 -16 -23h-138q-14 0 -22 14zM913 588l-245 618l-250 -618h495zM782 1454l-376 205q-17 10 -7 29l70 116q12 16 27 4l348 -254q15 -12 6 -26
l-41 -68q-12 -15 -27 -6z" />
    <glyph glyph-name="Aacute" unicode="&#xc1;" horiz-adv-x="1333" 
d="M1143 14l-166 416h-621l-168 -416q-6 -14 -20 -14h-139q-25 0 -15 23l553 1378q6 18 29 18h141q21 0 27 -18l555 -1378q10 -23 -16 -23h-138q-14 0 -22 14zM913 588l-245 618l-250 -618h495zM850 1806l72 -116q10 -20 -9 -29l-374 -205q-20 -10 -29 8l-41 64q-9 16 6 28
l346 254q19 16 29 -4z" />
    <glyph glyph-name="Acircumflex" unicode="&#xc2;" horiz-adv-x="1333" 
d="M1143 14l-166 416h-621l-168 -416q-6 -14 -20 -14h-139q-25 0 -15 23l553 1378q6 18 29 18h141q21 0 27 -18l555 -1378q10 -23 -16 -23h-138q-14 0 -22 14zM913 588l-245 618l-250 -618h495zM809 1534l-141 117l-144 -117q-17 -10 -26 -10h-158q-29 0 -8 18l246 203
q17 10 26 10h125q10 0 27 -10l243 -201q26 -20 -8 -20h-157q-8 0 -25 10z" />
    <glyph glyph-name="Atilde" unicode="&#xc3;" horiz-adv-x="1333" 
d="M1143 14l-166 416h-621l-168 -416q-6 -14 -20 -14h-139q-25 0 -15 23l553 1378q6 18 29 18h141q21 0 27 -18l555 -1378q10 -23 -16 -23h-138q-14 0 -22 14zM913 588l-245 618l-250 -618h495zM473 1538q-10 -22 -24 -8l-52 43q-13 13 -10 26q29 84 78.5 131.5t105.5 47.5
q36 0 65.5 -15t49 -36.5t37.5 -43t39 -36.5t45 -15q65 3 102 105q9 22 27 8l53 -45q15 -9 8 -25q-26 -81 -77 -128.5t-107 -47.5q-31 -2 -61 13t-52 37.5t-43 45t-42 37.5t-40 13q-59 -3 -102 -107z" />
    <glyph glyph-name="Adieresis" unicode="&#xc4;" horiz-adv-x="1333" 
d="M1143 14l-166 416h-621l-168 -416q-6 -14 -20 -14h-139q-25 0 -15 23l553 1378q6 18 29 18h141q21 0 27 -18l555 -1378q10 -23 -16 -23h-138q-14 0 -22 14zM913 588l-245 618l-250 -618h495zM379 1622q0 56 32 88.5t87 32.5q54 0 86 -33.5t32 -87.5q0 -53 -33 -86
t-85 -33q-55 0 -87 32.5t-32 86.5zM748 1536q-32 32 -32 86t32 86q32 35 86 35t86 -35q33 -33 33 -86.5t-35 -85.5q-32 -32 -83.5 -32t-86.5 32z" />
    <glyph glyph-name="Aring" unicode="&#xc5;" horiz-adv-x="1333" 
d="M1143 14l-166 416h-621l-168 -416q-6 -14 -20 -14h-139q-25 0 -15 23l553 1378q6 18 29 18h141q21 0 27 -18l555 -1378q10 -23 -16 -23h-138q-14 0 -22 14zM913 588l-245 618l-250 -618h495zM475 1640q0 85 51 136t136 51q86 0 138 -51t52 -136q0 -86 -52 -137t-138 -51
q-85 0 -136 51t-51 137zM571 1640q-6 -58 43.5 -82t98.5 0t43 82q6 57 -43 80.5t-98.5 0t-43.5 -80.5z" />
    <glyph glyph-name="AE" unicode="&#xc6;" horiz-adv-x="1662" 
d="M166 0h-146q-32 0 -16 29l756 1374q9 18 31 18h753q23 0 23 -22v-115q0 -22 -23 -22h-481v-457h385q20 0 20 -21v-118q0 -21 -20 -21h-387v-483h504q20 0 20 -23v-119q0 -20 -18 -20h-662q-20 3 -20 23v409h-467l-225 -418q-8 -14 -27 -14zM885 1294l-381 -704h381v704z
" />
    <glyph glyph-name="Ccedilla" unicode="&#xc7;" horiz-adv-x="1390" 
d="M1319 168q-197 -188 -512 -188q-324 0 -524 200q-199 202 -199 529q0 174 60 316t165 232q217 183 500 183q141 2 273.5 -48t234.5 -143q14 -14 -2 -26l-84 -95q-12 -12 -31 -2q-158 140 -393 140q-244 0 -395 -154q-149 -152 -152 -403q3 -253 152 -402
q150 -150 395 -153q239 3 393 139q16 15 31 0l88 -96q15 -15 0 -29zM750 0h131l-33 -72q178 -21 178 -166q0 -84 -61 -134t-156 -48q-112 -3 -201 68q-16 9 -4 24l41 58q6 12 23 2q74 -41 135 -41q42 0 68 20.5t26 52.5q0 64 -113 64h-90q-19 0 -10 18z" />
    <glyph glyph-name="Egrave" unicode="&#xc8;" horiz-adv-x="1062" 
d="M848 643h-504v-479h621q20 0 20 -21v-125q0 -18 -20 -18h-777q-20 0 -20 20v1381q0 20 20 20h756q21 0 21 -20v-125q0 -21 -21 -21h-598v-448h502q20 0 20 -21v-122q0 -21 -20 -21zM674 1454l-375 205q-21 9 -8 29l71 116q10 17 27 4l348 -254q15 -12 6 -26l-41 -68
q-12 -15 -28 -6z" />
    <glyph glyph-name="Eacute" unicode="&#xc9;" horiz-adv-x="1062" 
d="M848 643h-504v-479h621q20 0 20 -21v-125q0 -18 -20 -18h-777q-20 0 -20 20v1381q0 20 20 20h756q21 0 21 -20v-125q0 -21 -21 -21h-598v-448h502q20 0 20 -21v-122q0 -21 -20 -21zM768 1806l72 -116q10 -20 -9 -29l-374 -205q-20 -10 -29 8l-41 64q-9 16 6 28l346 254
q19 16 29 -4z" />
    <glyph glyph-name="Ecircumflex" unicode="&#xca;" horiz-adv-x="1062" 
d="M848 643h-504v-479h621q20 0 20 -21v-125q0 -18 -20 -18h-777q-20 0 -20 20v1381q0 20 20 20h756q21 0 21 -20v-125q0 -21 -21 -21h-598v-448h502q20 0 20 -21v-122q0 -21 -20 -21zM727 1520l-141 116l-144 -116q-11 -11 -26 -11h-158q-29 0 -8 21l246 203q13 8 26 8h125
q16 0 29 -8l242 -201q9 -7 11 -12t-3.5 -8t-16.5 -3h-155q-9 0 -27 11z" />
    <glyph glyph-name="Edieresis" unicode="&#xcb;" horiz-adv-x="1062" 
d="M848 643h-504v-479h621q20 0 20 -21v-125q0 -18 -20 -18h-777q-20 0 -20 20v1381q0 20 20 20h756q21 0 21 -20v-125q0 -21 -21 -21h-598v-448h502q20 0 20 -21v-122q0 -21 -20 -21zM293 1628q0 51 31 83t82 32t81.5 -32t30.5 -83q0 -50 -30.5 -81t-81.5 -31t-82 31
t-31 81zM612 1628q0 51 31 83t82 32t82 -32t31 -83q0 -49 -31.5 -80.5t-81.5 -31.5q-51 0 -82 31t-31 81z" />
    <glyph glyph-name="Igrave" unicode="&#xcc;" horiz-adv-x="512" 
d="M344 1401v-1383q0 -18 -18 -18h-140q-18 0 -18 18v1383q0 20 18 20h140q18 0 18 -20zM369 1454l-375 205q-21 9 -8 29l69 116q15 16 27 4l348 -254q15 -12 6 -26l-41 -68q-12 -15 -26 -6z" />
    <glyph glyph-name="Iacute" unicode="&#xcd;" horiz-adv-x="512" 
d="M344 1401v-1383q0 -18 -18 -18h-140q-18 0 -18 18v1383q0 20 18 20h140q18 0 18 -20zM440 1806l72 -116q10 -20 -8 -29l-375 -205q-20 -10 -29 8l-41 64q-9 15 7 28l346 254q18 15 28 -4z" />
    <glyph glyph-name="Icircumflex" unicode="&#xce;" horiz-adv-x="512" 
d="M344 1401v-1383q0 -18 -18 -18h-140q-18 0 -18 18v1383q0 20 18 20h140q18 0 18 -20zM164 1731l31 34h127q14 0 26 -12l258 -211q23 -20 -8 -20h-166q-9 0 -26 10zM-96 1540l256 213q15 12 28 12h127l29 -34l-238 -199q-17 -10 -28 -10h-166q-17 0 -18.5 5t10.5 13z" />
    <glyph glyph-name="Idieresis" unicode="&#xcf;" horiz-adv-x="512" 
d="M344 1401v-1383q0 -18 -18 -18h-140q-18 0 -18 18v1383q0 20 18 20h140q18 0 18 -20zM-31 1626q0 56 32 88.5t87 32.5q51 0 84 -33.5t33 -87.5t-32.5 -86.5t-84.5 -32.5q-55 0 -87 32.5t-32 86.5zM338 1540q-32 32 -32 86t32 86q32 35 86 35t86 -35q33 -33 33 -86.5
t-35 -85.5q-32 -32 -83.5 -32t-86.5 32z" />
    <glyph glyph-name="Eth" unicode="&#xd0;" horiz-adv-x="1372" 
d="M569 0h-381q-20 0 -20 20v615h-102q-19 0 -19 20v95q0 20 19 20h102v631q0 20 20 20h381q331 0 529 -192q200 -194 200 -518q0 -329 -198 -521q-199 -190 -531 -190zM344 635v-471h225q252 0 402 147q149 146 149 400q0 253 -149 399q-150 147 -402 147h-225v-487h287
q18 0 18 -20v-95q0 -20 -18 -20h-287z" />
    <glyph glyph-name="Ntilde" unicode="&#xd1;" horiz-adv-x="1460" 
d="M1137 1421h137q20 0 20 -20l-2 -1381q0 -20 -18 -20h-166q-13 0 -25 12l-737 1129l-2 -1121q0 -20 -18 -20h-140q-18 0 -18 20v1381q0 20 20 20h166q17 0 25 -14l737 -1126v1120q0 20 21 20zM502 1532q-3 -24 -25 -8l-55 45q-12 12 -6 26q29 86 80 135.5t108 49.5
q38 0 69 -15.5t51 -37.5t38.5 -44t40.5 -37.5t47 -15.5q66 3 106 107q9 21 29 10l55 -45q13 -13 7 -27q-26 -85 -78 -134.5t-113 -49.5q-37 0 -67.5 15.5t-51 37.5t-39.5 44.5t-41 38t-47 15.5q-65 -3 -108 -110z" />
    <glyph glyph-name="Ograve" unicode="&#xd2;" horiz-adv-x="1624" 
d="M84 711q0 327 201 528t528 201t528 -201t201 -528q0 -330 -201 -531q-198 -198 -528 -198q-332 0 -530 198q-199 199 -199 531zM813 156q246 0 397 151q152 155 152 404q3 245 -150 401q-151 154 -399 154q-247 0 -401 -154q-152 -152 -152 -401t152 -404
q151 -151 401 -151zM915 1458l-374 205q-22 9 -9 29l70 116q13 17 29 4l348 -253q14 -14 4 -27l-41 -68q-9 -15 -27 -6z" />
    <glyph glyph-name="Oacute" unicode="&#xd3;" horiz-adv-x="1624" 
d="M84 711q0 327 201 528t528 201t528 -201t201 -528q0 -330 -201 -531q-198 -198 -528 -198q-332 0 -530 198q-199 199 -199 531zM813 156q246 0 397 151q152 155 152 404q3 245 -150 401q-151 154 -399 154q-247 0 -401 -154q-152 -152 -152 -401t152 -404
q151 -151 401 -151zM1001 1806l72 -116q10 -20 -8 -29l-375 -205q-19 -10 -28 8l-41 64q-9 16 6 28l346 254q18 15 28 -4z" />
    <glyph glyph-name="Ocircumflex" unicode="&#xd4;" horiz-adv-x="1624" 
d="M82 713q0 325 201 526t530 201q327 0 528 -201t201 -526q0 -329 -201 -533q-200 -200 -528 -200q-330 0 -530 200q-201 204 -201 533zM260 713q0 -251 152 -406q150 -153 401 -153q249 0 399 153q152 155 152 406q0 249 -152 401t-399 152q-246 0 -401 -152
q-152 -152 -152 -401zM952 1536l-143 117l-141 -117q-13 -8 -27 -8h-158q-29 0 -8 18l246 203q17 10 27 10h124q10 0 27 -10l244 -201q20 -20 -8 -20h-158q-12 0 -25 8z" />
    <glyph glyph-name="Otilde" unicode="&#xd5;" horiz-adv-x="1624" 
d="M84 711q0 327 201 528t528 201t528 -201t201 -528q0 -330 -201 -531q-198 -198 -528 -198q-332 0 -530 198q-199 199 -199 531zM813 156q246 0 397 151q152 155 152 404q3 245 -150 401q-151 154 -399 154q-247 0 -401 -154q-152 -152 -152 -401t152 -404
q151 -151 401 -151zM586 1532q-9 -24 -25 -8l-55 45q-15 9 -8 26q29 86 80 135.5t108 49.5q33 2 64 -13.5t54 -38.5t44 -46t43 -38.5t43 -13.5q70 3 104 107q10 25 31 10l53 -45q15 -9 8 -27q-26 -85 -77.5 -134.5t-112.5 -49.5q-37 0 -68.5 15.5t-52.5 37.5t-40 44.5
t-41 38t-46 15.5q-66 -3 -106 -110z" />
    <glyph glyph-name="Odieresis" unicode="&#xd6;" horiz-adv-x="1624" 
d="M84 711q0 327 201 528t528 201t528 -201t201 -528q0 -330 -201 -531q-198 -198 -528 -198q-332 0 -530 198q-199 199 -199 531zM813 156q246 0 397 151q152 155 152 404q3 245 -150 401q-151 154 -399 154q-247 0 -401 -154q-152 -152 -152 -401t152 -404
q151 -151 401 -151zM557 1540q-32 32 -32 86t32 86q32 35 86 35t86 -35q32 -32 32 -86t-32 -86t-86 -32t-86 32zM981 1507q-54 0 -86.5 32.5t-32.5 86.5t32.5 87.5t86.5 33.5t85.5 -33.5t31.5 -87.5t-33 -86.5t-84 -32.5z" />
    <glyph glyph-name="multiply" unicode="&#xd7;" horiz-adv-x="1009" 
d="M391 655l-246 244q-13 16 0 29l84 84q16 13 29 0l246 -244l246 246q14 14 28 0l86 -86q14 -14 0 -29l-246 -246l244 -245q16 -10 0 -29l-84 -84q-12 -12 -26 0l-246 246l-246 -246q-16 -13 -29 0l-86 86q-15 12 0 27z" />
    <glyph glyph-name="Oslash" unicode="&#xd8;" horiz-adv-x="1558" 
d="M84 711q0 327 201 528t528 201t528 -201t201 -528q0 -330 -201 -531q-198 -198 -528 -198q-332 0 -530 198q-199 199 -199 531zM813 156q246 0 397 151q152 155 152 404q3 245 -150 401q-151 154 -399 154q-247 0 -401 -154q-152 -152 -152 -401t152 -404
q151 -151 401 -151zM135 47l1237 1380q14 17 31 3l61 -56q14 -14 0 -28l-1237 -1383q-14 -14 -28 0l-62 55q-15 12 -2 29z" />
    <glyph glyph-name="Ugrave" unicode="&#xd9;" horiz-adv-x="1327" 
d="M145 557v844q0 18 19 18h139q21 0 21 -20v-844q0 -192 91 -295.5t249 -103.5q161 0 249.5 102.5t87.5 296.5v846q0 18 21 18h139q21 0 21 -18v-846q-1 -274 -141 -423.5t-377 -149.5t-378 151.5t-141 423.5zM760 1454l-377 205q-16 10 -8 29l71 116q10 17 27 4l348 -254
q15 -12 6 -26l-41 -68q-12 -15 -26 -6z" />
    <glyph glyph-name="Uacute" unicode="&#xda;" horiz-adv-x="1327" 
d="M145 557v844q0 18 19 18h139q21 0 21 -20v-844q0 -192 91 -295.5t249 -103.5q161 0 249.5 102.5t87.5 296.5v846q0 18 21 18h139q21 0 21 -18v-846q-1 -274 -141 -423.5t-377 -149.5t-378 151.5t-141 423.5zM848 1806l72 -116q10 -20 -9 -29l-374 -205q-20 -10 -29 8
l-41 64q-9 16 6 28l346 254q19 16 29 -4z" />
    <glyph glyph-name="Ucircumflex" unicode="&#xdb;" horiz-adv-x="1327" 
d="M145 557v844q0 20 19 20l137 -2q21 0 21 -18v-844q0 -194 91 -298.5t251 -104.5t250 104t90 299v844q0 20 20 20h137q19 0 19 -20v-844q-1 -274 -140 -425.5t-376 -151.5q-239 0 -379 151.5t-140 425.5zM805 1536l-141 117l-142 -117q-13 -8 -28 -8h-158q-27 0 -6 18
l243 203q17 10 29 10h123q12 0 29 -10l241 -201q20 -20 -6 -20h-158q-13 0 -26 8z" />
    <glyph glyph-name="Udieresis" unicode="&#xdc;" horiz-adv-x="1327" 
d="M145 557v844q0 18 19 18h139q21 0 21 -20v-844q0 -192 91 -295.5t249 -103.5q161 0 249.5 102.5t87.5 296.5v846q0 18 21 18h139q21 0 21 -18v-846q-1 -274 -141 -423.5t-377 -149.5t-378 151.5t-141 423.5zM408 1540q-32 32 -32 86t32 86q32 35 86 35t86 -35
q32 -32 32 -86t-32 -86t-86 -32t-86 32zM745 1540q-32 32 -32 86t32 86q32 35 86.5 35t86.5 -35q32 -32 32 -86t-32 -86t-86.5 -32t-86.5 32z" />
    <glyph glyph-name="Yacute" unicode="&#xdd;" horiz-adv-x="1177" 
d="M500 18v547l-488 830q-15 24 15 24h153q19 0 29 -16l381 -678l381 678q6 16 28 16h152q32 0 14 -24l-487 -828v-549q0 -18 -19 -18h-139q-20 0 -20 18zM774 1806l72 -116q10 -20 -8 -29l-375 -205q-20 -10 -29 8l-41 64q-9 16 6 28l346 254q19 16 29 -4z" />
    <glyph glyph-name="Thorn" unicode="&#xde;" horiz-adv-x="1128" 
d="M147 23v1376q0 22 23 22h137q21 0 21 -20l-2 -277h260q214 0 334.5 -109t121.5 -304q-2 -193 -122.5 -303.5t-333.5 -110.5h-260v-277q0 -20 -21 -20h-135q-23 0 -23 23zM582 961h-256v-500h256q135 0 208.5 64.5t73.5 183.5q0 121 -73.5 186.5t-208.5 65.5z" />
    <glyph glyph-name="germandbls" unicode="&#xdf;" horiz-adv-x="1159" 
d="M573 166q61 -43 140 -43q81 0 131.5 44.5t50.5 111.5q0 49 -26 96t-65 82.5t-85 75.5t-85 75.5t-65 82t-26 95.5q-2 33 18.5 70.5t51 71t61 66t51 65t18.5 57.5q0 76 -49 116t-133 40q-96 0 -139 -43q-16 -15 -19 -18t-15 -16t-16 -20.5t-10.5 -21.5t-11.5 -31
q-3 -14 -9 -35.5t-8.5 -32t-5 -31t-3.5 -46.5q-4 -68 -5 -76v-82q3 -59 3 -74v-725q0 -20 -23 -20h-133q-23 0 -23 20v955q0 206 109 336q106 130 307 133q158 -3 258 -90q105 -86 105 -238q0 -52 -20.5 -96t-50.5 -74.5t-60 -57t-52 -54t-24 -54.5q0 -23 19.5 -46.5
t51.5 -47.5t70.5 -51.5t77 -62.5t70.5 -75t51.5 -95.5t19.5 -118.5q0 -150 -104 -244t-256 -94q-106 0 -209 53q-19 10 -10 31l51 129q6 17 26 8z" />
    <glyph glyph-name="agrave" unicode="&#xe0;" horiz-adv-x="1187" 
d="M885 770l26 137q3 19 23 19h96q19 0 19 -19v-887q0 -20 -21 -20h-96q-14 0 -23 18l-24 138q-114 -176 -346 -176q-208 0 -338 133q-129 135 -129 350q0 216 129 348t338 135q232 0 346 -176zM553 143q143 0 234 89t92 231q-3 139 -95 231q-88 88 -231 88t-231 -88
q-86 -89 -86 -231t88 -231t229 -89zM651 1071l-325 225q-16 13 -2 27l84 107q16 12 28 0l291 -275q10 -10 2 -20l-53 -62q-11 -11 -25 -2z" />
    <glyph glyph-name="aacute" unicode="&#xe1;" horiz-adv-x="1187" 
d="M885 770l26 137q3 19 23 19h96q19 0 19 -19v-887q0 -20 -21 -20h-96q-14 0 -23 18l-24 138q-114 -176 -346 -176q-208 0 -338 133q-129 135 -129 350q0 216 129 348t338 135q232 0 346 -176zM553 143q143 0 234 89t92 231q-3 139 -95 231q-88 88 -231 88t-231 -88
q-86 -89 -86 -231t88 -231t229 -89zM768 1419l90 -110q14 -13 -2 -29l-342 -236q-15 -12 -29 5l-49 59q-10 16 2 31l301 282q13 13 29 -2z" />
    <glyph glyph-name="acircumflex" unicode="&#xe2;" horiz-adv-x="1187" 
d="M885 770l26 137q3 19 23 19h96q19 0 19 -19v-887q0 -20 -21 -20h-96q-14 0 -23 18l-24 138q-114 -176 -346 -176q-208 0 -338 133q-129 135 -129 350q0 216 129 348t338 135q232 0 346 -176zM553 143q143 0 234 89t92 231q-3 139 -95 231q-88 88 -231 88t-231 -88
q-86 -89 -86 -231t88 -231t229 -89zM252 1104l217 272q10 10 29 10h129q13 0 30 -10l215 -270q16 -19 -8 -19h-137q-11 0 -22 11l-142 182l-141 -180q-10 -13 -27 -13h-135q-22 0 -8 17z" />
    <glyph glyph-name="atilde" unicode="&#xe3;" horiz-adv-x="1187" 
d="M885 770l26 137q3 19 23 19h96q19 0 19 -19v-887q0 -20 -21 -20h-96q-14 0 -23 18l-24 138q-114 -176 -346 -176q-208 0 -338 133q-129 135 -129 350q0 216 129 348t338 135q232 0 346 -176zM553 143q143 0 234 89t92 231q-3 139 -95 231q-88 88 -231 88t-231 -88
q-86 -89 -86 -231t88 -231t229 -89zM348 1126q-8 -17 -26 -8l-56 47q-11 8 -8 23q30 85 82.5 135.5t108.5 50.5q37 0 67.5 -15.5t51 -37t39 -43.5t40.5 -37.5t47 -15.5q67 3 107 110q9 20 20 6l62 -49q12 -6 6 -18q-26 -86 -78.5 -136.5t-112.5 -50.5q-36 0 -66 16t-51 38
t-40 44t-41 37t-45 13q-63 0 -107 -109z" />
    <glyph glyph-name="adieresis" unicode="&#xe4;" horiz-adv-x="1187" 
d="M885 770l26 137q3 19 23 19h96q19 0 19 -19v-887q0 -20 -21 -20h-96q-14 0 -23 18l-24 138q-114 -176 -346 -176q-208 0 -338 133q-129 135 -129 350q0 216 129 348t338 135q232 0 346 -176zM553 143q143 0 234 89t92 231q-3 139 -95 231q-88 88 -231 88t-231 -88
q-86 -89 -86 -231t88 -231t229 -89zM336 1149q-32 32 -32 86t32 86q33 33 86.5 33t85.5 -35q32 -32 32 -83.5t-32 -86.5q-32 -32 -86 -32t-86 32zM639 1235q2 54 33.5 86.5t85.5 32.5t86.5 -32.5t32.5 -86.5q0 -52 -33 -85.5t-86 -33.5t-86 33.5t-33 85.5z" />
    <glyph glyph-name="aring" unicode="&#xe5;" horiz-adv-x="1187" 
d="M885 770l26 137q3 19 23 19h96q19 0 19 -19v-887q0 -20 -21 -20h-96q-14 0 -23 18l-24 138q-114 -176 -346 -176q-208 0 -338 133q-129 135 -129 350q0 216 129 348t338 135q232 0 346 -176zM553 143q143 0 234 89t92 231q-3 139 -95 231q-88 88 -231 88t-231 -88
q-86 -89 -86 -231t88 -231t229 -89zM401 1251q0 85 51 136t136 51q86 0 139 -51t53 -136q0 -86 -53 -138t-139 -52q-85 0 -136 52t-51 138zM590 1161q41 0 65.5 24.5t24.5 63.5q0 41 -24.5 65.5t-65.5 24.5q-54 4 -76.5 -43t0 -93.5t76.5 -41.5z" />
    <glyph glyph-name="ae" unicode="&#xe6;" horiz-adv-x="1921" 
d="M1645 233q15 15 30 3l84 -84q15 -16 2 -29q-125 -143 -372 -143q-208 0 -340 120v-80q0 -20 -21 -20h-94q-19 0 -25 20l-24 136q-114 -176 -346 -176q-208 0 -338 133q-129 135 -129 350q0 216 129 348t338 135q232 0 346 -176l26 137q3 19 25 19h94q19 0 19 -19v-78
q126 117 319 117q227 0 354 -145q130 -145 127 -387q0 -21 -20 -21h-768q20 -117 108.5 -185.5t221.5 -68.5q166 0 254 94zM553 143q143 0 234 89t92 231q-3 139 -95 231q-88 88 -231 88t-231 -88q-86 -89 -86 -231t88 -231t229 -89zM1059 530h620q-19 118 -101.5 187
t-209.5 69q-124 0 -207 -69.5t-102 -186.5z" />
    <glyph glyph-name="ccedilla" unicode="&#xe7;" horiz-adv-x="1026" 
d="M952 176q-132 -196 -399 -196q-215 0 -348 133q-133 136 -133 350q0 231 143 356q144 129 340 129q263 0 401 -205q10 -20 -4 -28l-94 -80q-18 -15 -33 6q-89 139 -272 139q-143 0 -230 -87t-87 -230t87.5 -231.5t229.5 -88.5q180 0 272 136q12 21 33 6l90 -80
q14 -9 4 -29zM455 0h131l-31 -72q176 -21 176 -166q0 -84 -60.5 -134t-154.5 -48q-114 -3 -203 68q-16 9 -4 24l41 58q10 10 23 2q74 -41 137 -41q41 0 66.5 20.5t25.5 52.5q0 64 -113 64h-90q-19 0 -10 18z" />
    <glyph glyph-name="egrave" unicode="&#xe8;" horiz-adv-x="1105" 
d="M242 530h620q-19 117 -102 186.5t-207 69.5q-127 0 -209.5 -69t-101.5 -187zM1014 393h-770q20 -117 109 -185.5t222 -68.5q163 0 252 92q17 17 33 2l84 -81q16 -16 2 -29q-125 -143 -375 -143q-223 0 -362 133q-137 131 -137 350q0 215 133 348q132 135 348 135
q227 0 353.5 -140t125.5 -392q0 -21 -18 -21zM625 1069l-326 225q-19 12 -4 27l86 106q17 17 27 0l292 -274q10 -10 2 -20l-53 -62q-11 -8 -24 -2z" />
    <glyph glyph-name="eacute" unicode="&#xe9;" horiz-adv-x="1105" 
d="M242 530h620q-19 117 -102 186.5t-207 69.5q-127 0 -209.5 -69t-101.5 -187zM1014 393h-770q20 -117 109 -185.5t222 -68.5q163 0 252 92q17 17 33 2l84 -81q16 -16 2 -29q-125 -143 -375 -143q-223 0 -362 133q-137 131 -137 350q0 215 133 348q132 135 348 135
q227 0 353.5 -140t125.5 -392q0 -21 -18 -21zM711 1419l84 -104q12 -12 0 -27l-328 -225q-15 -15 -29 2l-47 57q-10 14 2 29l289 270q14 13 29 -2z" />
    <glyph glyph-name="ecircumflex" unicode="&#xea;" horiz-adv-x="1103" 
d="M242 530h620q-19 117 -102 186.5t-207 69.5q-127 0 -209.5 -69t-101.5 -187zM1014 393h-770q20 -117 109 -185.5t222 -68.5q163 0 252 92q17 17 33 2l84 -81q16 -16 2 -29q-125 -143 -375 -143q-223 0 -362 133q-137 131 -137 350q0 215 133 348q132 135 348 135
q227 0 353.5 -140t125.5 -392q0 -21 -18 -21zM240 1100l217 272q10 10 26 10h131q12 0 29 -10l217 -270q13 -19 -8 -19h-139q-10 0 -21 11l-141 182l-143 -180q-10 -13 -25 -13h-137q-20 0 -6 17z" />
    <glyph glyph-name="edieresis" unicode="&#xeb;" horiz-adv-x="1105" 
d="M242 530h620q-19 117 -102 186.5t-207 69.5q-127 0 -209.5 -69t-101.5 -187zM1014 393h-770q20 -117 109 -185.5t222 -68.5q163 0 252 92q17 17 33 2l84 -81q16 -16 2 -29q-125 -143 -375 -143q-223 0 -362 133q-137 131 -137 350q0 215 133 348q132 135 348 135
q227 0 353.5 -140t125.5 -392q0 -21 -18 -21zM266 1247q-4 39 17.5 69t53.5 42t68.5 6t61.5 -33q27 -25 33 -61.5t-6 -68.5t-42 -53.5t-69 -17.5q-51 0 -84 33t-33 84zM717 1366q51 0 84 -33t33 -86q0 -51 -33 -84q-31 -32 -84.5 -32.5t-85.5 30.5q-24 25 -29.5 62.5t6 70.5
t41 54.5t68.5 17.5z" />
    <glyph glyph-name="igrave" unicode="&#xec;" horiz-adv-x="454" 
d="M311 907l2 -887q0 -20 -20 -20h-129q-21 0 -21 20v887q0 19 21 19h129q18 0 18 -19zM326 1057l-326 223q-21 12 -4 29l86 106q15 12 27 0l292 -274q11 -8 2 -23l-53 -59q-15 -15 -24 -2z" />
    <glyph glyph-name="iacute" unicode="&#xed;" horiz-adv-x="454" 
d="M311 907l2 -887q0 -20 -20 -20h-129q-21 0 -21 20v887q0 19 21 19h129q18 0 18 -19zM377 1421l86 -106q13 -17 -4 -27l-326 -227q-15 -12 -29 2l-47 59q-13 14 2 29l291 272q17 14 27 -2z" />
    <glyph glyph-name="icircumflex" unicode="&#xee;" horiz-adv-x="454" 
d="M311 907l2 -887q0 -20 -20 -20h-129q-21 0 -21 20v887q0 19 21 19h129q18 0 18 -19zM-98 1081l229 287q9 12 29 12h137q19 0 31 -12l227 -285q15 -18 -8 -18h-146q-12 0 -22 10l-150 193l-149 -191q-9 -12 -27 -12h-143q-21 0 -8 16z" />
    <glyph glyph-name="idieresis" unicode="&#xef;" horiz-adv-x="454" 
d="M311 907l2 -887q0 -20 -20 -20h-129q-21 0 -21 20v887q0 19 21 19h129q18 0 18 -19zM-63 1227q0 55 31 87t85 32t86.5 -32.5t32.5 -86.5t-32.5 -86.5t-86.5 -32.5t-85 32.5t-31 86.5zM272 1227q2 55 33.5 87t85.5 32t86.5 -32.5t32.5 -86.5q0 -51 -34 -85t-85 -34t-85 34
t-34 85z" />
    <glyph glyph-name="eth" unicode="&#xf0;" horiz-adv-x="1103" 
d="M551 -20q-197 0 -320 120q-122 119 -122 316q0 198 118 313q119 119 314 119q124 0 211 -66q-69 169 -205 305l-221 -112q-10 -9 -23 4l-57 57q-12 15 4 25l209 106q-89 74 -211 133q-19 9 -10 27l59 111q9 20 29 10q165 -67 303 -193l192 99q16 7 27 -4l55 -58
q15 -15 -4 -24l-190 -97q136 -155 211 -356q78 -199 75 -401q-3 -200 -127 -318q-122 -116 -317 -116zM829 422q-2 128 -75 199t-203 71q-123 0 -197.5 -75.5t-74.5 -200.5q0 -122 75.5 -197.5t196.5 -75.5q123 0 200.5 78.5t77.5 200.5z" />
    <glyph glyph-name="ntilde" unicode="&#xf1;" horiz-adv-x="1118" 
d="M137 20v885q0 21 19 21h92q21 0 24 -21l23 -143q102 184 319 184q170 0 267.5 -106.5t97.5 -307.5l2 -512q0 -20 -20 -20h-127q-19 0 -19 20v500q0 262 -231 262q-116 0 -197 -96q-78 -97 -84 -237v-429q0 -20 -20 -20h-125q-21 0 -21 20zM342 1153q-9 -22 -25 -6l-55 45
q-11 3 -8 18q29 84 78.5 131.5t105.5 47.5q35 0 64 -14.5t49 -35.5t38 -42t39.5 -35.5t45.5 -14.5q59 3 100 105q6 21 23 8l57 -49q10 -3 6 -15q-26 -84 -75.5 -133t-106.5 -49q-35 0 -64.5 15t-49.5 36.5t-38.5 43t-39.5 36.5t-44 15q-60 -3 -100 -107z" />
    <glyph glyph-name="ograve" unicode="&#xf2;" horiz-adv-x="1107" 
d="M72 465q0 215 133 348t348 133t348 -133t133 -348q0 -216 -133 -352q-133 -133 -348 -133t-348 133q-133 136 -133 352zM236 463q0 -141 88 -230.5t229 -89.5t229 89.5t88 230.5q0 143 -87.5 231t-229.5 88q-141 0 -229 -88.5t-88 -230.5zM608 1069l-325 225
q-19 12 -4 27l86 106q16 16 26 0l293 -274q10 -10 2 -20l-53 -62q-12 -9 -25 -2z" />
    <glyph glyph-name="oacute" unicode="&#xf3;" horiz-adv-x="1107" 
d="M72 465q0 215 133 348q132 135 348 135q218 0 350 -135q133 -133 133 -348q0 -216 -133 -352q-133 -133 -350 -133q-215 0 -348 133q-133 136 -133 352zM553 145q142 0 229.5 88.5t87.5 231.5t-87 230t-230 87q-141 0 -228 -87.5t-87 -229.5q0 -143 87 -231.5t228 -88.5z
M694 1417l86 -106q12 -13 -2 -27l-327 -225q-16 -13 -29 4l-47 55q-10 16 2 31l291 270q12 12 26 -2z" />
    <glyph glyph-name="ocircumflex" unicode="&#xf4;" horiz-adv-x="1107" 
d="M72 465q0 215 133 348t348 133t348 -133t133 -348q0 -216 -133 -352q-133 -133 -348 -133t-348 133q-133 136 -133 352zM236 463q0 -141 88 -230.5t229 -89.5t229 89.5t88 230.5q0 143 -87.5 231t-229.5 88q-141 0 -229 -88.5t-88 -230.5zM244 1102l217 272q9 12 26 12
h131q17 0 29 -12l217 -270q14 -17 -8 -17h-139q-9 0 -21 9l-141 184l-143 -182q-11 -11 -25 -11h-137q-21 0 -6 15z" />
    <glyph glyph-name="otilde" unicode="&#xf5;" horiz-adv-x="1107" 
d="M72 465q0 215 133 348t348 133t348 -133t133 -348q0 -216 -133 -352q-133 -133 -348 -133t-348 133q-133 136 -133 352zM236 463q0 -141 88 -230.5t229 -89.5t229 89.5t88 230.5q0 143 -87.5 231t-229.5 88q-141 0 -229 -88.5t-88 -230.5zM328 1128q-9 -21 -29 -8l-55 47
q-11 8 -8 21q31 86 82.5 136t107.5 50q38 0 69 -15.5t51 -37t38 -43.5t40 -37.5t48 -15.5q66 3 106 110q9 20 23 6l59 -47q12 -6 6 -18q-24 -86 -75.5 -136t-112.5 -50q-45 0 -82 24t-58 52t-49 50.5t-57 20.5q-64 -3 -104 -109z" />
    <glyph glyph-name="odieresis" unicode="&#xf6;" horiz-adv-x="1107" 
d="M72 465q0 215 133 348t348 133t348 -133t133 -348q0 -216 -133 -352q-133 -133 -348 -133t-348 133q-133 136 -133 352zM236 463q0 -141 88 -230.5t229 -89.5t229 89.5t88 230.5q0 143 -87.5 231t-229.5 88q-141 0 -229 -88.5t-88 -230.5zM383 1368q52 0 85.5 -33
t33.5 -86t-33.5 -86t-85.5 -33q-54 0 -86.5 32.5t-32.5 86.5t32.5 86.5t86.5 32.5zM602 1249q2 54 33.5 86.5t85.5 32.5t86.5 -32.5t32.5 -86.5t-32.5 -86.5t-86.5 -32.5t-86.5 32.5t-32.5 86.5z" />
    <glyph glyph-name="divide" unicode="&#xf7;" horiz-adv-x="1103" 
d="M422 918q0 57 35.5 91.5t95.5 34.5t94.5 -34.5t34.5 -91.5q0 -60 -36 -96t-93 -36q-60 0 -95.5 36t-35.5 96zM422 301q0 57 36 93t95 36q58 0 93.5 -35t35.5 -94t-35.5 -94t-93.5 -35q-60 0 -95.5 34.5t-35.5 94.5zM139 543v116q0 22 21 19h784q21 0 21 -19v-116
q0 -19 -21 -19h-784q-21 0 -21 19z" />
    <glyph glyph-name="oslash" unicode="&#xf8;" horiz-adv-x="1107" 
d="M834 870l84 93q15 15 28 2l62 -56q15 -15 2 -28l-84 -95q108 -126 108 -321q0 -216 -133 -352q-133 -133 -348 -133q-164 0 -283 79l-92 -104q-14 -14 -28 0l-62 55q-15 12 -2 29l94 104q-108 126 -108 322q0 215 133 348t348 133q165 0 281 -76zM811 659l-426 -473
q76 -43 168 -43q141 0 229 89.5t88 230.5q0 119 -59 196zM293 268l426 475q-71 39 -166 39q-141 0 -229 -88.5t-88 -230.5q0 -115 57 -195z" />
    <glyph glyph-name="ugrave" unicode="&#xf9;" horiz-adv-x="1120" 
d="M846 18l-23 146q-105 -187 -325 -187q-170 0 -266.5 107t-96.5 307l-2 514q0 21 21 21h127q18 0 18 -21v-499q0 -267 233 -267q118 0 197.5 95t85.5 243v428q0 21 21 21h125q20 0 20 -21v-887q0 -18 -18 -18h-93q-21 0 -24 18zM625 1053l-324 223q-21 12 -4 29l86 106
q15 15 27 0l290 -274q11 -8 2 -23l-51 -59q-11 -11 -26 -2z" />
    <glyph glyph-name="uacute" unicode="&#xfa;" horiz-adv-x="1120" 
d="M846 18l-23 146q-105 -187 -325 -187q-170 0 -266.5 107t-96.5 307l-2 514q0 21 21 21h127q18 0 18 -21v-499q0 -267 233 -267q118 0 197.5 95t85.5 243v428q0 21 21 21h125q20 0 20 -21v-887q0 -18 -18 -18h-93q-21 0 -24 18zM713 1413l84 -104q17 -17 -2 -27l-326 -227
q-20 -10 -29 4l-47 57q-10 14 2 29l289 270q14 13 29 -2z" />
    <glyph glyph-name="ucircumflex" unicode="&#xfb;" horiz-adv-x="1120" 
d="M846 18l-23 146q-105 -187 -325 -187q-170 0 -266.5 107t-96.5 307l-2 514q0 21 21 21h127q18 0 18 -21v-499q0 -267 233 -267q118 0 197.5 95t85.5 243v428q0 21 21 21h125q20 0 20 -21v-887q0 -18 -18 -18h-93q-21 0 -24 18zM246 1098l221 276q9 12 27 12h133
q16 0 28 -12l217 -274q17 -17 -6 -17h-141q-9 0 -20 11l-144 184l-143 -182q-10 -13 -27 -13h-137q-23 0 -8 15z" />
    <glyph glyph-name="udieresis" unicode="&#xfc;" horiz-adv-x="1120" 
d="M846 18l-23 146q-105 -187 -325 -187q-170 0 -266.5 107t-96.5 307l-2 514q0 21 21 21h127q18 0 18 -21v-499q0 -267 233 -267q118 0 197.5 95t85.5 243v428q0 21 21 21h125q20 0 20 -21v-887q0 -18 -18 -18h-93q-21 0 -24 18zM272 1227q0 55 32.5 87t86.5 32t86.5 -32.5
t32.5 -86.5q0 -51 -34 -85t-85 -34q-54 0 -86.5 32.5t-32.5 86.5zM608 1227q-3 40 19 69.5t54 41t69.5 6t62.5 -30.5t31 -62.5t-6 -70.5t-42 -54.5t-69 -17.5q-51 0 -85 34t-34 85z" />
    <glyph glyph-name="yacute" unicode="&#xfd;" horiz-adv-x="958" 
d="M782 926h140q29 -3 16 -29l-553 -1346q-9 -18 -29 -18h-127q-27 0 -18 27l180 444l-373 893q-10 26 17 29h141q18 0 27 -19l268 -700l285 700q10 19 26 19zM676 1380l86 -106q16 -12 -2 -27l-326 -225q-15 -15 -31 4l-45 55q-10 16 2 31l289 270q17 17 27 -2z" />
    <glyph glyph-name="thorn" unicode="&#xfe;" horiz-adv-x="1183" 
d="M160 1479h123q20 0 20 -21v-682q111 170 340 170q208 0 338 -133q129 -132 129 -350q0 -215 -129 -350q-130 -133 -338 -133q-229 0 -340 172v-598q0 -21 -20 -21h-123q-21 0 -21 21v1904q0 21 21 21zM629 782q-143 0 -234 -87.5t-92 -229.5q1 -145 92 -233.5t234 -88.5
q141 0 229 89t88 231t-88 230.5t-229 88.5z" />
    <glyph glyph-name="ydieresis" unicode="&#xff;" horiz-adv-x="958" 
d="M782 926h140q29 -3 16 -29l-553 -1346q-9 -18 -29 -18h-127q-27 0 -18 27l180 444l-373 893q-10 26 17 29h141q18 0 27 -19l268 -700l285 700q10 19 26 19zM205 1122q-31 32 -31 86t31 86q32 32 86 32t86 -32t32 -86t-32 -86t-86 -32t-86 32zM510 1208q1 54 34.5 86.5
t84.5 32.5q39 4 69 -17.5t42 -54.5t6 -70.5t-33 -62.5q-24 -25 -61 -31t-69.5 6t-54.5 42t-18 69z" />
    <glyph glyph-name="Amacron" unicode="&#x100;" horiz-adv-x="1333" 
d="M1143 14l-166 416h-621l-168 -416q-6 -14 -20 -14h-139q-25 0 -15 23l553 1378q6 18 29 18h141q21 0 27 -18l555 -1378q10 -23 -16 -23h-138q-14 0 -22 14zM913 588l-245 618l-250 -618h495zM426 1696h481q19 0 19 -19v-106q0 -21 -19 -21h-481q-18 0 -18 21v106
q0 19 18 19z" />
    <glyph glyph-name="amacron" unicode="&#x101;" horiz-adv-x="1187" 
d="M885 770l26 137q3 19 23 19h96q19 0 19 -19v-887q0 -20 -21 -20h-96q-14 0 -23 18l-24 138q-114 -176 -346 -176q-208 0 -338 133q-129 135 -129 350q0 216 129 348t338 135q232 0 346 -176zM553 143q143 0 234 89t92 231q-3 139 -95 231q-88 88 -231 88t-231 -88
q-86 -89 -86 -231t88 -231t229 -89zM326 1331h475q20 0 20 -20v-109q0 -18 -20 -18h-475q-23 0 -23 18v109q0 20 23 20z" />
    <glyph glyph-name="Abreve" unicode="&#x102;" horiz-adv-x="1333" 
d="M1143 14l-166 416h-621l-168 -416q-6 -14 -20 -14h-139q-25 0 -15 23l553 1378q6 18 29 18h141q21 0 27 -18l555 -1378q10 -23 -16 -23h-138q-14 0 -22 14zM913 588l-245 618l-250 -618h495zM852 1759l94 2q17 0 17 -20q-5 -113 -86 -180.5t-211 -67.5q-128 0 -208.5 68
t-86.5 180q0 20 18 20h92q19 0 19 -20q8 -50 53.5 -81.5t112.5 -31.5q69 0 115.5 31.5t52.5 81.5q3 18 18 18z" />
    <glyph glyph-name="abreve" unicode="&#x103;" horiz-adv-x="1187" 
d="M885 770l26 137q3 19 23 19h96q19 0 19 -19v-887q0 -20 -21 -20h-96q-14 0 -23 18l-24 138q-114 -176 -346 -176q-208 0 -338 133q-129 135 -129 350q0 216 129 348t338 135q232 0 346 -176zM553 143q143 0 234 89t92 231q-3 139 -95 231q-88 88 -231 88t-231 -88
q-86 -89 -86 -231t88 -231t229 -89zM745 1403h95q18 0 18 -21q-4 -133 -86 -214t-213 -81q-127 0 -208 80.5t-87 214.5q0 21 19 21h94q18 0 18 -21q6 -68 51.5 -113.5t112.5 -45.5q70 0 116 45.5t54 115.5q0 19 16 19z" />
    <glyph glyph-name="Aogonek" unicode="&#x104;" horiz-adv-x="1341" 
d="M1143 14l-166 416h-621l-168 -416q-6 -14 -20 -14h-139q-25 0 -15 23l553 1378q6 18 29 18h141q21 0 27 -18l555 -1378q10 -23 -16 -23h-138q-14 0 -22 14zM913 588l-245 618l-250 -618h495zM1391 -362q-58 -76 -177 -76q-94 0 -151 50.5t-57 135.5q0 59 41 127
q40 61 80 100t114 97l72 -70q-94 -93 -127 -136.5t-37 -94.5q-9 -72 63 -84q54 -6 82 26q11 14 27 4l65 -53q17 -10 5 -26z" />
    <glyph glyph-name="aogonek" unicode="&#x105;" horiz-adv-x="1187" 
d="M885 770l26 137q3 19 23 19h96q19 0 19 -19v-887q0 -20 -21 -20h-96q-14 0 -23 18l-24 138q-114 -176 -346 -176q-208 0 -338 133q-129 135 -129 350q0 216 129 348t338 135q232 0 346 -176zM553 143q143 0 234 89t92 231q-3 139 -95 231q-88 88 -231 88t-231 -88
q-86 -89 -86 -231t88 -231t229 -89zM1124 -346q-58 -76 -174 -76q-97 0 -154 50.5t-57 135.5q-3 139 236 322l72 -70q-91 -87 -125.5 -133t-38.5 -98q-5 -33 12.5 -55.5t52.5 -28.5q57 -3 82 29q10 13 25 4l65 -56q7 -4 8 -12t-4 -12z" />
    <glyph glyph-name="Cacute" unicode="&#x106;" horiz-adv-x="1390" 
d="M1319 168q-197 -188 -512 -188q-324 0 -524 200q-199 202 -199 529q0 174 60 316t165 232q217 183 500 183q141 2 273.5 -48t234.5 -143q14 -14 -2 -26l-84 -95q-12 -12 -31 -2q-158 140 -393 140q-244 0 -395 -154q-149 -152 -152 -403q3 -253 152 -402
q150 -150 395 -153q239 3 393 139q16 15 31 0l88 -96q15 -15 0 -29zM932 1806l72 -116q10 -20 -9 -29l-374 -205q-20 -10 -29 8l-41 64q-9 16 6 28l346 254q19 16 29 -4z" />
    <glyph glyph-name="cacute" unicode="&#x107;" horiz-adv-x="1026" 
d="M952 176q-132 -196 -399 -196q-215 0 -348 133q-133 136 -133 350q0 231 143 356q144 129 340 129q263 0 401 -205q10 -20 -4 -28l-94 -80q-18 -15 -33 6q-89 139 -272 139q-143 0 -230 -87t-87 -230t87.5 -231.5t229.5 -88.5q180 0 272 136q12 21 33 6l90 -80
q14 -9 4 -29zM713 1421l86 -106q16 -12 -2 -27l-326 -225q-15 -15 -31 4l-47 55q-8 14 2 31l291 270q16 9 27 -2z" />
    <glyph glyph-name="Ccircumflex" unicode="&#x108;" horiz-adv-x="1390" 
d="M1319 168q-197 -188 -512 -188q-324 0 -524 200q-199 202 -199 529q0 174 60 316t165 232q217 183 500 183q141 2 273.5 -48t234.5 -143q14 -14 -2 -26l-84 -95q-12 -12 -31 -2q-158 140 -393 140q-244 0 -395 -154q-149 -152 -152 -403q3 -253 152 -402
q150 -150 395 -153q239 3 393 139q16 15 31 0l88 -96q15 -15 0 -29zM895 1528l-147 121l-148 -121q-17 -10 -29 -10h-163q-32 0 -9 20l254 211q17 10 29 10h131q17 0 27 -10l254 -209q28 -22 -9 -22h-163q-10 0 -27 10z" />
    <glyph glyph-name="ccircumflex" unicode="&#x109;" horiz-adv-x="1026" 
d="M952 176q-132 -196 -399 -196q-215 0 -348 133q-133 136 -133 350q0 231 143 356q144 129 340 129q263 0 401 -205q10 -20 -4 -28l-94 -80q-18 -15 -33 6q-89 139 -272 139q-143 0 -230 -87t-87 -230t87.5 -231.5t229.5 -88.5q180 0 272 136q12 21 33 6l90 -80
q14 -9 4 -29zM221 1098l217 272q9 12 27 12h131q17 0 29 -12l217 -270q13 -19 -8 -19h-140q-9 0 -20 11l-142 182l-143 -180q-10 -13 -24 -13h-138q-20 0 -6 17z" />
    <glyph glyph-name="Cdotaccent" unicode="&#x10a;" horiz-adv-x="1390" 
d="M1319 168q-197 -188 -512 -188q-324 0 -524 200q-199 202 -199 529q0 174 60 316t165 232q217 183 500 183q141 2 273.5 -48t234.5 -143q14 -14 -2 -26l-84 -95q-12 -12 -31 -2q-158 140 -393 140q-244 0 -395 -154q-149 -152 -152 -403q3 -253 152 -402
q150 -150 395 -153q239 3 393 139q16 15 31 0l88 -96q15 -15 0 -29zM748 1757q49 0 77.5 -29t28.5 -77q0 -50 -28.5 -79.5t-77.5 -29.5q-47 0 -78 31t-31 78t30.5 76.5t78.5 29.5z" />
    <glyph glyph-name="cdotaccent" unicode="&#x10b;" horiz-adv-x="1026" 
d="M952 176q-132 -196 -399 -196q-215 0 -348 133q-133 136 -133 350q0 231 143 356q144 129 340 129q263 0 401 -205q10 -20 -4 -28l-94 -80q-18 -15 -33 6q-89 139 -272 139q-143 0 -230 -87t-87 -230t87.5 -231.5t229.5 -88.5q180 0 272 136q12 21 33 6l90 -80
q14 -9 4 -29zM522 1124q-47 0 -76.5 29t-29.5 76t29.5 75.5t76.5 28.5t75 -28.5t28 -75.5t-29 -76t-74 -29z" />
    <glyph glyph-name="Ccaron" unicode="&#x10c;" horiz-adv-x="1390" 
d="M1319 168q-197 -188 -512 -188q-324 0 -524 200q-199 202 -199 529q0 174 60 316t165 232q217 183 500 183q141 2 273.5 -48t234.5 -143q14 -14 -2 -26l-84 -95q-12 -12 -31 -2q-158 140 -393 140q-244 0 -395 -154q-149 -152 -152 -403q3 -253 152 -402
q150 -150 395 -153q239 3 393 139q16 15 31 0l88 -96q15 -15 0 -29zM596 1735l149 -125l150 125q10 10 29 10h161q35 0 9 -23l-254 -211q-17 -10 -29 -10h-131q-19 0 -29 10l-256 211q-26 23 8 23h164q12 0 29 -10z" />
    <glyph glyph-name="ccaron" unicode="&#x10d;" horiz-adv-x="1026" 
d="M952 176q-132 -196 -399 -196q-215 0 -348 133q-133 136 -133 350q0 231 143 356q144 129 340 129q263 0 401 -205q10 -20 -4 -28l-94 -80q-18 -15 -33 6q-89 139 -272 139q-143 0 -230 -87t-87 -230t87.5 -231.5t229.5 -88.5q180 0 272 136q12 21 33 6l90 -80
q14 -9 4 -29zM242 1386h135q12 0 22 -10l144 -182l141 180q13 13 27 15h133q24 0 8 -19l-215 -270q-13 -13 -29 -13h-133q-14 0 -24 13l-218 270q-13 16 9 16z" />
    <glyph glyph-name="Dcaron" unicode="&#x10e;" horiz-adv-x="1380" 
d="M569 1257h-223l-2 -1093h225q252 0 402 147q149 146 149 400q0 253 -149 399q-150 147 -402 147zM569 0h-381q-20 0 -20 20v1381q0 20 20 20h381q331 0 529 -192q200 -194 200 -518q0 -329 -198 -521q-199 -190 -531 -190zM545 1735l149 -125l150 125q10 10 28 10h162
q34 0 8 -23l-254 -211q-17 -10 -28 -10h-131q-19 0 -29 10l-256 211q-26 23 8 23h164q12 0 29 -10z" />
    <glyph glyph-name="dcaron" unicode="&#x10f;" horiz-adv-x="1480" 
d="M539 -20q-208 0 -338 133q-127 136 -127 350q0 215 127 348q129 135 338 135q229 0 340 -170v684q0 19 20 19h127q18 0 18 -19v-1440q0 -20 -18 -20h-88q-20 0 -23 18l-28 140q-114 -178 -348 -178zM553 782q-141 0 -229 -88.5t-88 -230.5t88 -231t229 -89
q143 0 234.5 89.5t91.5 230.5t-91.5 230t-234.5 89zM1165 928l-45 49q-12 11 4 27q132 102 150 241h-4q-51 1 -82 35t-31 88q0 56 33.5 89.5t89.5 33.5q96 0 117 -86q37 -118 -29 -275q-64 -153 -172 -208q-16 -9 -31 6z" />
    <glyph glyph-name="Dcroat" unicode="&#x110;" horiz-adv-x="1380" 
d="M569 0h-381q-20 0 -20 20v615h-102q-19 0 -19 20v95q0 20 19 20h102v631q0 20 20 20h381q331 0 529 -192q200 -194 200 -518q0 -329 -198 -521q-199 -190 -531 -190zM344 635v-471h225q252 0 402 147q149 146 149 400q0 253 -149 399q-150 147 -402 147h-225v-487h287
q18 0 18 -20v-95q0 -20 -18 -20h-287z" />
    <glyph glyph-name="dslash" unicode="&#x111;" horiz-adv-x="1198" 
d="M662 1239h217v221q0 19 20 19h127q18 0 18 -19v-221h97q20 0 20 -20v-97q0 -18 -20 -18h-97v-1084q0 -20 -18 -20h-88q-20 0 -23 18l-28 140q-114 -178 -348 -178q-208 0 -338 133q-127 136 -127 350q0 215 127 348q129 135 338 135q229 0 340 -170v328h-217
q-21 0 -21 18v97q0 20 21 20zM553 143q143 0 234.5 89.5t91.5 230.5t-91.5 230t-234.5 89q-141 0 -229 -88.5t-88 -230.5t88 -231t229 -89z" />
    <glyph glyph-name="Emacron" unicode="&#x112;" horiz-adv-x="1062" 
d="M848 643h-504v-479h621q20 0 20 -21v-125q0 -18 -20 -18h-777q-20 0 -20 20v1381q0 20 20 20h756q21 0 21 -20v-125q0 -21 -21 -21h-598v-448h502q20 0 20 -21v-122q0 -21 -20 -21zM332 1698h479q20 0 20 -19v-106q0 -21 -20 -21h-479q-21 0 -21 21v106q0 19 21 19z" />
    <glyph glyph-name="emacron" unicode="&#x113;" horiz-adv-x="1105" 
d="M242 530h620q-19 117 -102 186.5t-207 69.5q-127 0 -209.5 -69t-101.5 -187zM1014 393h-770q20 -117 109 -185.5t222 -68.5q163 0 252 92q17 17 33 2l84 -81q16 -16 2 -29q-125 -143 -375 -143q-223 0 -362 133q-137 131 -137 350q0 215 133 348q132 135 348 135
q227 0 353.5 -140t125.5 -392q0 -21 -18 -21zM313 1329h478q20 0 20 -20v-107q0 -20 -20 -20h-478q-20 0 -20 20v107q0 20 20 20z" />
    <glyph glyph-name="Ebreve" unicode="&#x114;" horiz-adv-x="1062" 
d="M848 643h-504v-479h621q20 0 20 -21v-125q0 -18 -20 -18h-777q-20 0 -20 20v1381q0 20 20 20h756q21 0 21 -20v-125q0 -21 -21 -21h-598v-448h502q20 0 20 -21v-122q0 -21 -20 -21zM758 1763l92 2q18 0 18 -20q-6 -113 -87 -180.5t-210 -67.5q-127 0 -208 67.5t-89 180.5
q0 20 21 20h90q21 0 21 -20q8 -50 53 -81.5t112 -31.5t113.5 31.5t52.5 81.5q3 18 21 18z" />
    <glyph glyph-name="ebreve" unicode="&#x115;" horiz-adv-x="1105" 
d="M242 530h620q-19 117 -102 186.5t-207 69.5q-127 0 -209.5 -69t-101.5 -187zM1014 393h-770q20 -117 109 -185.5t222 -68.5q163 0 252 92q17 17 33 2l84 -81q16 -16 2 -29q-125 -143 -375 -143q-223 0 -362 133q-137 131 -137 350q0 215 133 348q132 135 348 135
q227 0 353.5 -140t125.5 -392q0 -21 -18 -21zM733 1401h94q17 0 17 -21q-4 -133 -86 -214t-211 -81t-210 80.5t-85 214.5q0 21 18 21h95q16 0 16 -21q8 -68 53.5 -113.5t112.5 -45.5q70 0 116 46t54 115q0 19 16 19z" />
    <glyph glyph-name="Edotaccent" unicode="&#x116;" horiz-adv-x="1062" 
d="M848 643h-504v-479h621q20 0 20 -21v-125q0 -18 -20 -18h-777q-20 0 -20 20v1381q0 20 20 20h756q21 0 21 -20v-125q0 -21 -21 -21h-598v-448h502q20 0 20 -21v-122q0 -21 -20 -21zM678 1632q0 -50 -29 -79t-78 -29t-79.5 30t-30.5 78q0 47 30.5 77t79.5 30t78 -29.5
t29 -77.5z" />
    <glyph glyph-name="edotaccent" unicode="&#x117;" horiz-adv-x="1105" 
d="M242 530h620q-19 117 -102 186.5t-207 69.5q-127 0 -209.5 -69t-101.5 -187zM1014 393h-770q20 -117 109 -185.5t222 -68.5q163 0 252 92q17 17 33 2l84 -81q16 -16 2 -29q-125 -143 -375 -143q-223 0 -362 133q-137 131 -137 350q0 215 133 348q132 135 348 135
q227 0 353.5 -140t125.5 -392q0 -21 -18 -21zM471 1169q-31 31 -31 80t31 78q31 31 80 31t78 -31q29 -29 29 -78t-29 -80q-29 -29 -78 -29t-80 29z" />
    <glyph glyph-name="Eogonek" unicode="&#x118;" horiz-adv-x="1062" 
d="M848 643h-504v-479h621q20 0 20 -21v-125q0 -18 -20 -18h-777q-20 0 -20 20v1381q0 20 20 20h756q21 0 21 -20v-125q0 -21 -21 -21h-598v-448h502q20 0 20 -21v-122q0 -21 -20 -21zM983 -348q-64 -76 -176 -76q-97 0 -154 50.5t-57 135.5q0 91 82 185q79 82 153 139
l74 -70q-94 -93 -127 -136.5t-37 -94.5q-9 -72 64 -84q49 -6 82 27q12 16 24 4l68 -54q14 -10 4 -26z" />
    <glyph glyph-name="eogonek" unicode="&#x119;" horiz-adv-x="1105" 
d="M242 530h620q-19 117 -102 186.5t-207 69.5q-127 0 -209.5 -69t-101.5 -187zM1014 393h-770q20 -117 109 -185.5t222 -68.5q163 0 252 92q17 17 33 2l84 -81q16 -16 2 -29q-125 -143 -375 -143q-223 0 -362 133q-137 131 -137 350q0 215 133 348q132 135 348 135
q227 0 353.5 -140t125.5 -392q0 -21 -18 -21zM872 -344q-64 -76 -176 -76q-96 0 -153.5 51t-57.5 136q0 90 82 184q76 79 154 139l74 -70q-90 -86 -125 -133.5t-39 -99.5q-9 -73 63 -82q53 -6 82 27q13 16 25 4l67 -55q13 -10 4 -25z" />
    <glyph glyph-name="Ecaron" unicode="&#x11a;" horiz-adv-x="1062" 
d="M848 643h-504v-479h621q20 0 20 -21v-125q0 -18 -20 -18h-777q-20 0 -20 20v1381q0 20 20 20h756q21 0 21 -20v-125q0 -21 -21 -21h-598v-448h502q20 0 20 -21v-122q0 -21 -20 -21zM424 1735l149 -125l150 125q10 10 29 10h161q35 0 9 -23l-254 -211q-17 -10 -29 -10
h-131q-19 0 -29 10l-256 211q-26 23 8 23h164q12 0 29 -10z" />
    <glyph glyph-name="ecaron" unicode="&#x11b;" horiz-adv-x="1105" 
d="M242 530h620q-19 117 -102 186.5t-207 69.5q-127 0 -209.5 -69t-101.5 -187zM1014 393h-770q20 -117 109 -185.5t222 -68.5q163 0 252 92q17 17 33 2l84 -81q16 -16 2 -29q-125 -143 -375 -143q-223 0 -362 133q-137 131 -137 350q0 215 133 348q132 135 348 135
q227 0 353.5 -140t125.5 -392q0 -21 -18 -21zM252 1389h133q14 0 25 -11l143 -182l139 180q13 13 29 15h131q25 0 10 -21l-215 -268q-9 -12 -31 -12h-131q-16 0 -26 10l-215 270q-16 19 8 19z" />
    <glyph glyph-name="Gcircumflex" unicode="&#x11c;" horiz-adv-x="1556" 
d="M1276 588h-440q-19 0 -19 20v115q0 20 21 20h594q20 0 20 -20q-6 -355 -176 -548.5t-485 -192.5q-316 0 -508 198q-193 199 -193 531q0 327 201 528t528 201q300 0 506 -191q14 -12 0 -26l-90 -97q-15 -12 -27 0q-155 140 -389 140q-247 0 -401 -154q-152 -155 -152 -401
q0 -249 144 -402t381 -153q209 0 332.5 110.5t152.5 321.5zM922 1534l-144 117l-141 -117q-17 -10 -27 -10h-157q-36 0 -9 18l246 203q10 10 27 10h125q9 0 26 -10l244 -201q23 -20 -8 -20h-158q-14 0 -24 10z" />
    <glyph glyph-name="gcircumflex" unicode="&#x11d;" horiz-adv-x="1185" 
d="M539 946q237 0 350 -180l31 139q3 21 22 21h86q19 0 19 -21l2 -905q3 -217 -138 -352q-139 -133 -356 -133q-195 0 -367 96q-18 9 -8 31l60 110q9 18 24 6q118 -74 287 -80q155 0 242.5 84.5t89.5 233.5v154q-117 -173 -344 -173q-208 3 -338 136q-129 132 -129 348
q0 218 129 350q129 135 338 135zM553 143q146 0 237 88.5t91 231.5q0 142 -91 230.5t-237 88.5q-141 0 -229 -88.5t-88 -230.5t88 -231t229 -89zM262 1087l227 285q9 12 29 12h135q19 0 31 -12l225 -282q16 -19 -8 -19h-143q-13 0 -23 10l-147 191l-150 -189q-6 -12 -24 -12
h-144q-21 0 -8 16z" />
    <glyph glyph-name="Gbreve" unicode="&#x11e;" horiz-adv-x="1556" 
d="M1284 588h-440q-19 0 -19 20v115q0 20 21 20h594q20 0 20 -20q-6 -355 -176 -548.5t-485 -192.5q-316 0 -508 198q-193 199 -193 531q0 327 201 528t528 201q300 0 506 -191q14 -12 0 -26l-90 -97q-14 -12 -26 0q-155 140 -390 140q-247 0 -401 -154q-152 -155 -152 -401
q0 -249 144 -402t381 -153q209 0 332.5 110.5t152.5 321.5zM956 1763l95 2q16 0 16 -20q-6 -113 -87 -180.5t-210 -67.5q-127 0 -208 67.5t-89 180.5q0 20 21 20h92q18 0 18 -20q8 -50 53.5 -81.5t112.5 -31.5q69 0 115.5 31.5t52.5 81.5q3 18 18 18z" />
    <glyph glyph-name="gbreve" unicode="&#x11f;" horiz-adv-x="1185" 
d="M539 946q237 0 350 -180l31 139q3 21 22 21h86q19 0 19 -21l2 -905q3 -217 -138 -352q-139 -133 -356 -133q-195 0 -367 96q-18 9 -8 31l60 110q9 18 24 6q118 -74 287 -80q155 0 242.5 84.5t89.5 233.5v154q-117 -173 -344 -173q-208 3 -338 136q-129 132 -129 348
q0 218 129 350q129 135 338 135zM553 143q146 0 237 88.5t91 231.5q0 142 -91 230.5t-237 88.5q-141 0 -229 -88.5t-88 -230.5t88 -231t229 -89zM770 1401h92q19 0 19 -21q-4 -133 -86 -214t-211 -81t-210 80.5t-87 214.5q0 21 20 21h92q19 0 19 -21q8 -68 53.5 -113.5
t112.5 -45.5q70 0 116 46.5t52 114.5q0 19 18 19z" />
    <glyph glyph-name="Gdotaccent" unicode="&#x120;" horiz-adv-x="1556" 
d="M1284 588h-440q-19 0 -19 20v115q0 20 21 20h594q20 0 20 -20q-6 -355 -176 -548.5t-485 -192.5q-316 0 -508 198q-193 199 -193 531q0 327 201 528t528 201q300 0 506 -191q14 -12 0 -26l-90 -97q-14 -12 -26 0q-155 140 -390 140q-247 0 -401 -154q-152 -155 -152 -401
q0 -249 144 -402t381 -153q209 0 332.5 110.5t152.5 321.5zM670 1647q0 49 30 78.5t78 29.5q65 7 92.5 -51t0 -115.5t-92.5 -50.5q-47 0 -77.5 31t-30.5 78z" />
    <glyph glyph-name="gdotaccent" unicode="&#x121;" horiz-adv-x="1185" 
d="M539 946q237 0 350 -180l31 139q3 21 22 21h86q19 0 19 -21l2 -905q3 -217 -138 -352q-139 -133 -356 -133q-195 0 -367 96q-18 9 -8 31l60 110q9 18 24 6q118 -74 287 -80q155 0 242.5 84.5t89.5 233.5v154q-117 -173 -344 -173q-208 3 -338 136q-129 132 -129 348
q0 218 129 350q129 135 338 135zM553 143q146 0 237 88.5t91 231.5q0 142 -91 230.5t-237 88.5q-141 0 -229 -88.5t-88 -230.5t88 -231t229 -89zM449 1280q0 47 30.5 76.5t79.5 29.5t78 -29t29 -77q0 -50 -29 -79.5t-78 -29.5q-50 0 -80 30t-30 79z" />
    <glyph glyph-name="uni0122" unicode="&#x122;" horiz-adv-x="1529" 
d="M1270 588h-441q-18 0 -18 20v115q0 20 20 20h594q21 0 21 -20q-6 -355 -176.5 -548.5t-485.5 -192.5q-316 0 -508 198t-192 531q0 327 201 528t528 201q300 0 506 -191q12 -12 0 -26l-90 -97q-12 -12 -27 0q-155 140 -389 140q-247 0 -401 -154q-152 -155 -152 -401
q0 -250 143 -402q144 -153 381 -153q210 0 333.5 111t152.5 321zM750 -276q-2 2 -9 2q-77 21 -77 106q0 51 30.5 82t81.5 31q41 0 69 -21.5t36 -58.5q27 -96 -31 -184q-60 -90 -160 -130q-17 -9 -28 9l-31 49q-9 15 6 24q77 39 113 91z" />
    <glyph glyph-name="uni0123" unicode="&#x123;" horiz-adv-x="1185" 
d="M539 946q237 0 350 -180l31 139q3 21 22 21h86q19 0 19 -21l2 -905q3 -217 -138 -352q-139 -133 -356 -133q-195 0 -367 96q-18 9 -8 31l60 110q9 18 24 6q118 -74 287 -80q155 0 242.5 84.5t89.5 233.5v154q-117 -173 -344 -173q-208 3 -338 136q-129 132 -129 348
q0 218 129 350q129 135 338 135zM553 143q146 0 237 88.5t91 231.5q0 142 -91 230.5t-237 88.5q-141 0 -229 -88.5t-88 -230.5t88 -231t229 -89zM582 1233q2 -2 8 -2q78 -21 78 -107q0 -51 -31 -81.5t-82 -30.5q-41 0 -68.5 21.5t-35.5 58.5q-28 97 30 184q59 89 160 129
q19 9 29 -8l30 -49q9 -16 -6 -25q-76 -39 -112 -90z" />
    <glyph glyph-name="Hcircumflex" unicode="&#x124;" horiz-adv-x="1380" 
d="M326 0h-138q-20 0 -20 20v1381q0 20 20 20h138q20 0 20 -18l-2 -602h690v600q0 20 21 20h141q18 0 18 -18v-1383q0 -20 -20 -20h-139q-21 0 -21 20v623h-690v-623q0 -20 -18 -20zM834 1528l-144 117l-141 -117q-17 -10 -27 -10h-157q-32 0 -9 20l246 203q8 8 27 8h125
q18 0 26 -8l244 -201q22 -22 -8 -22h-158q-7 0 -24 10z" />
    <glyph glyph-name="hcircumflex" unicode="&#x125;" horiz-adv-x="1116" 
d="M139 20v1438q0 21 19 21h127q18 0 18 -21l2 -688q99 176 311 176q170 0 267.5 -106.5t97.5 -307.5l2 -512q0 -20 -20 -20h-127q-19 0 -19 20v500q0 262 -231 262q-118 0 -197 -94q-78 -97 -84 -237v-431q0 -20 -20 -20h-127q-19 0 -19 20zM700 1561l-141 116l-143 -116
q-11 -11 -27 -11h-158q-30 0 -8 19l246 203q17 10 27 10h125q16 0 26 -10l244 -201q27 -21 -8 -21h-158q-7 0 -25 11z" />
    <glyph glyph-name="Hbar" unicode="&#x126;" horiz-adv-x="1370" 
d="M342 1389v-236h684v233q0 21 21 21h137q18 0 18 -18v-236h55q21 0 21 -20v-95q0 -20 -21 -20h-55v-1000q0 -18 -20 -18h-135q-21 0 -21 20v617h-684v-619q0 -18 -20 -18h-136q-18 0 -18 20v998h-68q-20 0 -20 20v95q0 20 20 20h68v233q0 21 20 21h136q18 0 18 -18z
M1026 1018h-684v-225h684v225z" />
    <glyph glyph-name="hbar" unicode="&#x127;" horiz-adv-x="1116" 
d="M592 1178v-95q0 -20 -19 -20h-268v-293q99 176 311 176q170 0 267.5 -106.5t97.5 -307.5l2 -512q0 -20 -20 -20h-127q-19 0 -19 20v500q0 262 -231 262q-118 0 -197 -94q-78 -97 -84 -237v-431q0 -20 -20 -20h-127q-19 0 -19 20v1043h-84q-20 0 -20 20v95q0 20 20 20h84
v260q0 21 19 21h127q18 0 18 -21v-260h270q19 0 19 -20z" />
    <glyph glyph-name="Itilde" unicode="&#x128;" horiz-adv-x="512" 
d="M344 1401v-1383q0 -18 -18 -18h-140q-18 0 -18 18v1383q0 20 18 20h140q18 0 18 -20zM47 1538q-10 -22 -24 -8l-52 43q-13 13 -10 26q29 84 77.5 131.5t104.5 47.5q37 0 67 -15t49.5 -36.5t37.5 -43t39 -36.5t45 -15q65 3 102 105q9 22 27 8l53 -45q11 -6 8 -25
q-29 -82 -78.5 -129t-105.5 -47q-31 -2 -60.5 13t-52 37.5t-43 45t-41.5 37.5t-40 13q-63 -3 -103 -107z" />
    <glyph glyph-name="itilde" unicode="&#x129;" horiz-adv-x="454" 
d="M311 907v-889q0 -18 -20 -18h-127q-19 0 -19 18v889q0 19 19 19h127q20 0 20 -19zM-2 1118q-9 -22 -27 -8l-57 47q-10 10 -6 21q31 86 82.5 137t107.5 51q40 2 77.5 -22t61.5 -54t52.5 -54t52.5 -22q69 3 109 113q6 18 20 4l61 -47q10 -7 5 -18q-24 -86 -76 -136.5
t-113 -50.5q-31 -2 -61.5 14t-53.5 38.5t-44.5 45.5t-43.5 38t-41 12q-66 -3 -106 -109z" />
    <glyph glyph-name="Imacron" unicode="&#x12a;" horiz-adv-x="512" 
d="M344 1401v-1383q0 -18 -18 -18h-140q-18 0 -18 18v1383q0 20 18 20h140q18 0 18 -20zM18 1702h478q18 0 18 -21v-108q0 -19 -18 -19h-478q-20 0 -20 19v108q0 21 20 21z" />
    <glyph glyph-name="imacron" unicode="&#x12b;" horiz-adv-x="454" 
d="M311 907v-889q0 -18 -20 -18h-127q-19 0 -19 18v889q0 19 19 19h127q20 0 20 -19zM-10 1329h475q20 0 20 -20v-109q0 -18 -20 -18h-475q-23 0 -23 18v109q0 20 23 20z" />
    <glyph glyph-name="Ibreve" unicode="&#x12c;" horiz-adv-x="512" 
d="M344 1401v-1383q0 -18 -18 -18h-140q-18 0 -18 18v1383q0 20 18 20h140q18 0 18 -20zM457 1769l98 3q18 0 18 -21q-6 -118 -91 -189t-222 -71q-134 0 -219 71t-92 189q0 21 20 21h97q20 0 20 -21q8 -54 55 -86.5t119 -32.5q74 0 122 32.5t54 86.5q3 18 21 18z" />
    <glyph glyph-name="ibreve" unicode="&#x12d;" horiz-adv-x="460" 
d="M311 905v-887q0 -18 -20 -18h-125q-21 0 -21 18v887q0 21 19 21h127q20 0 20 -21zM422 1397h98q19 0 19 -21q-4 -141 -90.5 -226t-223.5 -85q-135 0 -220 85.5t-91 225.5q0 21 20 21h99q18 0 18 -21q8 -71 56 -120.5t118 -49.5q73 0 121.5 49t56.5 123q0 19 19 19z" />
    <glyph glyph-name="Iogonek" unicode="&#x12e;" horiz-adv-x="512" 
d="M344 1401v-1383q0 -18 -18 -18h-140q-18 0 -18 18v1383q0 20 18 20h140q18 0 18 -20zM418 -358q-58 -76 -176 -76q-97 0 -154 50.5t-57 135.5q0 60 43 127q27 42 58.5 76.5t54 54.5t79.5 66l74 -70q-94 -93 -127 -136.5t-37 -94.5q-9 -72 64 -84q54 -6 82 26q12 16 24 4
l68 -55q13 -6 4 -24z" />
    <glyph glyph-name="iogonek" unicode="&#x12f;" horiz-adv-x="454" 
d="M311 905v-887q0 -18 -20 -18h-127q-19 0 -19 18v887q0 19 19 19h127q20 0 20 -19zM104 1266q0 55 32.5 86.5t88.5 31.5q54 0 85.5 -31.5t31.5 -86.5q0 -54 -31.5 -86.5t-85.5 -32.5t-87.5 32.5t-33.5 86.5zM371 -344q-58 -76 -176 -76q-94 0 -151.5 51t-57.5 136
q0 59 41 127q39 61 78.5 99.5t115.5 96.5l72 -70q-90 -86 -125 -133.5t-39 -99.5q-5 -31 13.5 -54.5t50.5 -27.5q55 -6 81 27q11 14 27 4l66 -55q16 -10 4 -25z" />
    <glyph glyph-name="Idot" unicode="&#x130;" horiz-adv-x="512" 
d="M344 1401v-1383q0 -18 -18 -18h-140q-18 0 -18 18v1383q0 20 18 20h140q18 0 18 -20zM143 1636q0 52 31 83.5t84 31.5t84 -31.5t31 -83.5q7 -72 -54 -102.5t-122 0t-54 102.5z" />
    <glyph glyph-name="dotlessi" unicode="&#x131;" horiz-adv-x="452" 
d="M307 885v-865q0 -20 -20 -20h-121q-19 0 -19 20l-2 865q0 22 19 22h123q20 0 20 -22z" />
    <glyph glyph-name="IJ" unicode="&#x132;" horiz-adv-x="1296" 
d="M344 1401v-1381q0 -20 -20 -20h-138q-18 0 -18 20l-2 1381q0 20 20 20h138q20 0 20 -20zM971 358v1043q0 20 20 20h135q19 0 19 -20l2 -1065q1 -171 -83 -263.5t-239 -92.5q-170 0 -293 114q-16 13 -4 31l64 108q15 21 33 9q125 -88 194 -88q81 0 115.5 46.5t36.5 157.5z
" />
    <glyph glyph-name="ij" unicode="&#x133;" horiz-adv-x="917" 
d="M311 905v-887q0 -18 -20 -18h-127q-19 0 -19 18v887q0 19 19 19h127q20 0 20 -19zM104 1266q0 55 32.5 86.5t88.5 31.5q54 0 85.5 -31.5t31.5 -86.5q0 -54 -31.5 -86.5t-85.5 -32.5t-87.5 32.5t-33.5 86.5zM569 1266q0 55 31.5 85.5t87.5 30.5q54 0 85.5 -30.5
t31.5 -85.5q0 -54 -31.5 -86.5t-85.5 -32.5t-86.5 32.5t-32.5 86.5zM606 -131v1036q0 19 19 19h125q22 0 22 -19l2 -1052q2 -156 -72.5 -247.5t-201.5 -90.5q-132 0 -217 67q-16 9 -7 27l60 102q9 21 31 8q62 -41 120 -41q56 0 87.5 49t31.5 142z" />
    <glyph glyph-name="Jcircumflex" unicode="&#x134;" horiz-adv-x="817" 
d="M475 358l-2 1043q0 20 21 20h135q20 0 20 -20l2 -1065q1 -170 -82 -262t-239 -94q-172 3 -295 114q-16 13 -4 31l65 111q15 21 33 6q130 -86 195 -86q81 0 113.5 44.5t37.5 157.5zM702 1532l-143 117l-141 -117q-17 -10 -27 -10h-158q-35 0 -8 18l246 203q17 10 27 10
h125q9 0 26 -10l244 -201q26 -20 -8 -20h-158q-8 0 -25 10z" />
    <glyph glyph-name="jcircumflex" unicode="&#x135;" horiz-adv-x="501" 
d="M199 -131l-2 1036q0 21 20 21l125 -2q20 0 20 -19l3 -1052q2 -155 -73 -247.5t-202 -92.5q-121 0 -215 67q-16 9 -6 29l57 104q12 18 33 6q62 -41 119 -41q118 0 121 191zM-47 1085l229 287q9 12 29 12h137q19 0 31 -12l227 -285q15 -18 -8 -18h-145q-13 0 -23 10
l-149 193l-150 -191q-9 -12 -27 -12h-143q-21 0 -8 16z" />
    <glyph glyph-name="uni0136" unicode="&#x136;" horiz-adv-x="1159" 
d="M317 1401v-656l545 664q12 12 23 12h168q31 0 10 -24l-563 -684l630 -688q22 -25 -10 -25h-184q-15 0 -25 10l-594 668v-660q0 -18 -18 -18h-139q-19 0 -19 18v1383q0 20 19 20h139q18 0 18 -20zM565 -276q-2 2 -8 2q-78 21 -78 106q0 51 31 82t82 31q41 0 68.5 -21.5
t35.5 -58.5q28 -97 -30 -184q-60 -90 -160 -130q-18 -9 -29 9l-31 49q-9 15 7 24q75 38 112 91z" />
    <glyph glyph-name="uni0137" unicode="&#x137;" horiz-adv-x="948" 
d="M690 926h178q40 0 11 -29l-387 -399l454 -471q27 -27 -12 -27h-176q-17 0 -27 10l-426 445v-437q0 -18 -20 -18h-127q-19 0 -19 18v1442q0 19 19 19h127q20 0 20 -19v-932l361 385q13 13 24 13zM475 -276q-2 2 -8 2q-78 21 -78 106q0 51 31 82t82 31q41 0 68.5 -21.5
t35.5 -58.5q27 -96 -31 -184q-60 -91 -159 -130q-18 -9 -29 9l-31 49q-9 15 6 24q77 39 113 91z" />
    <glyph glyph-name="kgreenlandic" unicode="&#x138;" horiz-adv-x="921" 
d="M690 926h178q17 0 20 -8t-9 -21l-387 -428l454 -442q27 -27 -12 -27h-176q-17 0 -27 10l-426 416v-408q0 -18 -20 -18h-127q-19 0 -19 18v887q0 21 19 21h127q20 0 20 -21v-405l361 413q10 13 24 13z" />
    <glyph glyph-name="Lacute" unicode="&#x139;" horiz-adv-x="917" 
d="M344 1401l2 -1241h494q18 0 18 -21v-121q0 -18 -18 -18h-654q-18 0 -18 18v1383q0 20 18 20h140q18 0 18 -20zM442 1806l72 -116q10 -20 -8 -29l-375 -205q-20 -10 -29 8l-41 64q-9 15 7 28l346 254q18 15 28 -4z" />
    <glyph glyph-name="lacute" unicode="&#x13a;" horiz-adv-x="454" 
d="M311 1458v-1438q0 -20 -20 -20h-127q-19 0 -19 20v1438q0 21 19 21h127q20 0 20 -21zM408 1896l69 -114q13 -20 -8 -29l-371 -203q-19 -9 -28 9l-39 61q-10 20 4 29l346 252q16 13 27 -5z" />
    <glyph glyph-name="uni013B" unicode="&#x13b;" horiz-adv-x="917" 
d="M344 1401l2 -1241h494q18 0 18 -21v-121q0 -18 -18 -18h-654q-18 0 -18 18v1383q0 20 18 20h140q18 0 18 -20zM489 -276q-2 2 -8 2q-78 21 -78 106q0 51 31 82t82 31q41 0 69 -21.5t36 -58.5q27 -96 -31 -184q-60 -90 -160 -130q-18 -9 -29 9l-30 49q-9 15 6 24
q75 38 112 91z" />
    <glyph glyph-name="uni013C" unicode="&#x13c;" horiz-adv-x="454" 
d="M311 1458v-1438q0 -20 -20 -20h-127q-19 0 -19 20v1438q0 21 19 21h127q20 0 20 -21zM197 -276q-2 2 -9 2q-77 21 -77 106q0 51 30.5 82t81.5 31q41 0 69 -21.5t36 -58.5q27 -96 -31 -184q-60 -90 -160 -130q-17 -9 -28 9l-31 49q-9 15 6 24q77 39 113 91z" />
    <glyph glyph-name="Lcaron" unicode="&#x13d;" horiz-adv-x="917" 
d="M344 1401l2 -1241h494q18 0 18 -21v-121q0 -18 -18 -18h-654q-18 0 -18 18v1383q0 20 18 20h140q18 0 18 -20zM551 903l-45 47q-15 19 2 29q130 106 151 242l-4 2q-54 4 -84 36.5t-30 83.5q0 57 34.5 91t90.5 34q97 0 118 -88q35 -121 -30 -274q-65 -154 -172 -209
q-16 -9 -31 6z" />
    <glyph glyph-name="lcaron" unicode="&#x13e;" horiz-adv-x="745" 
d="M311 1458v-1438q0 -20 -20 -20h-127q-19 0 -19 20v1438q0 21 19 21h127q20 0 20 -21zM442 903l-47 47q-15 19 2 29q133 106 154 242l-4 2q-54 1 -84.5 33.5t-30.5 86.5q0 57 34 91t91 34q45 0 77.5 -23.5t39.5 -64.5q34 -119 -31 -274q-65 -154 -172 -209q-13 -10 -29 6z
" />
    <glyph glyph-name="Ldot" unicode="&#x13f;" horiz-adv-x="917" 
d="M344 1401l2 -1241h494q18 0 18 -21v-121q0 -18 -18 -18h-654q-18 0 -18 18v1383q0 20 18 20h140q18 0 18 -20zM526 807q0 57 34 92t91 35q56 0 90.5 -35t34.5 -92q0 -55 -35 -90t-90 -35q-57 0 -91 34.5t-34 90.5z" />
    <glyph glyph-name="ldot" unicode="&#x140;" horiz-adv-x="741" 
d="M311 1458v-1438q0 -20 -20 -20h-127q-19 0 -19 20v1438q0 21 19 21h127q20 0 20 -21zM434 688q-32 32 -32 86t32 86q32 35 86 35t86 -35q32 -32 32 -86t-32 -86t-86 -32t-86 32z" />
    <glyph glyph-name="Lslash" unicode="&#x141;" horiz-adv-x="917" 
d="M94 641l553 236q19 9 19 -13v-98q0 -23 -19 -29l-553 -237q-18 -9 -18 12v100q0 20 18 29zM344 1401l2 -1241h494q18 0 18 -21v-121q0 -18 -18 -18h-654q-18 0 -18 18v1383q0 20 18 20h140q18 0 18 -20z" />
    <glyph glyph-name="lslash" unicode="&#x142;" horiz-adv-x="460" 
d="M168 1464h125q18 0 18 -20v-678l150 72q18 9 18 -13v-98q0 -20 -18 -29l-150 -71v-607q0 -20 -18 -20h-125q-18 0 -18 20v527l-144 -70q-22 -9 -22 15v92q0 25 22 34l144 70v756q0 20 18 20z" />
    <glyph glyph-name="Nacute" unicode="&#x143;" horiz-adv-x="1460" 
d="M1137 1421h137q20 0 20 -20l-2 -1381q0 -20 -18 -20h-166q-13 0 -25 12l-737 1129l-2 -1121q0 -20 -18 -20h-140q-18 0 -18 20v1381q0 20 20 20h166q17 0 25 -14l737 -1126v1120q0 20 21 20zM907 1806l72 -116q10 -20 -8 -29l-375 -205q-20 -10 -29 8l-41 64q-9 16 6 28
l347 254q18 15 28 -4z" />
    <glyph glyph-name="nacute" unicode="&#x144;" horiz-adv-x="1120" 
d="M139 20v885q0 21 19 21h92q21 0 24 -21l23 -143q102 184 319 184q170 0 267.5 -106.5t97.5 -307.5l2 -512q0 -20 -20 -20h-127q-19 0 -19 20v500q0 262 -231 262q-116 0 -197 -96q-78 -97 -84 -237v-429q0 -20 -20 -20h-125q-21 0 -21 20zM719 1419l86 -106
q16 -12 -2 -27l-326 -225q-15 -15 -31 4l-45 55q-13 16 2 31l289 270q17 14 27 -2z" />
    <glyph glyph-name="uni0145" unicode="&#x145;" horiz-adv-x="1460" 
d="M1137 1421h137q20 0 20 -20l-2 -1381q0 -20 -18 -20h-166q-13 0 -25 12l-737 1129l-2 -1121q0 -20 -18 -20h-140q-18 0 -18 20v1381q0 20 20 20h166q17 0 25 -14l737 -1126v1120q0 20 21 20zM684 -276q-2 2 -8 2q-78 21 -78 106q0 51 31 82t82 31q41 0 68.5 -21.5
t35.5 -58.5q27 -96 -31 -184q-60 -91 -159 -130q-18 -9 -29 9l-31 49q-9 15 6 24q77 39 113 91z" />
    <glyph glyph-name="uni0146" unicode="&#x146;" horiz-adv-x="1116" 
d="M139 20v885q0 21 19 21h92q21 0 24 -21l23 -143q102 184 319 184q170 0 267.5 -106.5t97.5 -307.5l2 -512q0 -20 -20 -20h-127q-19 0 -19 20v500q0 262 -231 262q-116 0 -197 -96q-78 -97 -84 -237v-429q0 -20 -20 -20h-125q-21 0 -21 20zM539 -276q-2 2 -9 2
q-77 21 -77 106q0 51 30.5 82t81.5 31q41 0 69 -21.5t36 -58.5q27 -96 -31 -184q-60 -90 -160 -130q-17 -9 -28 9l-31 49q-9 15 6 24q77 39 113 91z" />
    <glyph glyph-name="Ncaron" unicode="&#x147;" horiz-adv-x="1460" 
d="M1137 1421h137q20 0 20 -20l-2 -1381q0 -20 -18 -20h-166q-13 0 -25 12l-737 1129l-2 -1121q0 -20 -18 -20h-140q-18 0 -18 20v1381q0 20 20 20h166q17 0 25 -14l737 -1126v1120q0 20 21 20zM582 1735l149 -125l150 125q10 10 28 10h162q34 0 8 -23l-254 -211
q-17 -10 -28 -10h-131q-19 0 -29 10l-256 211q-26 23 8 23h164q12 0 29 -10z" />
    <glyph glyph-name="ncaron" unicode="&#x148;" horiz-adv-x="1120" 
d="M139 20v885q0 21 19 21h92q21 0 24 -21l23 -143q102 184 319 184q170 0 267.5 -106.5t97.5 -307.5l2 -512q0 -20 -20 -20h-127q-19 0 -19 20v500q0 262 -231 262q-116 0 -197 -96q-78 -97 -84 -237v-429q0 -20 -20 -20h-125q-21 0 -21 20zM242 1389h141q14 0 25 -11
l151 -192l148 190q13 13 28 15h139q26 0 11 -21l-228 -283q-11 -14 -30 -14h-140q-17 0 -26 12l-228 285q-16 19 9 19z" />
    <glyph glyph-name="napostrophe" unicode="&#x149;" horiz-adv-x="1185" 
d="M207 20v885q0 21 18 21h92q22 0 25 -21l23 -143q102 184 319 184q170 0 267.5 -106.5t97.5 -307.5l2 -512q0 -20 -21 -20h-127q-18 0 -18 20v500q0 262 -232 262q-115 0 -196 -96q-78 -97 -84 -237v-429q0 -20 -21 -20h-125q-20 0 -20 20zM23 920l-46 47q-11 14 3 28
q129 100 151 242h-4q-51 1 -82 35t-31 86q0 57 33.5 91t89.5 34q96 0 117 -88q34 -120 -31 -275q-66 -154 -170 -207q-14 -9 -30 7z" />
    <glyph glyph-name="Eng" unicode="&#x14a;" horiz-adv-x="1415" 
d="M1094 -131v123l-770 1149l-2 -1121q0 -20 -19 -20h-139q-19 0 -19 20v1381q0 20 21 20h166q16 0 24 -14l738 -1110v1104q0 20 20 20h137q21 0 21 -20l-2 -1542q1 -164 -82.5 -253t-237.5 -89t-278 112q-15 15 -6 35l65 109q9 19 29 6q107 -88 188 -88q78 0 111 40.5
t35 137.5z" />
    <glyph glyph-name="eng" unicode="&#x14b;" horiz-adv-x="1126" 
d="M492 -420q-15 9 -5 29l58 106q10 19 28 4q62 -41 123 -41q56 0 88 49t33 142v651q0 262 -231 262q-116 0 -197 -96q-78 -97 -84 -237v-429q0 -20 -20 -20h-125q-21 0 -21 20v885q0 21 21 21h90q21 0 24 -21l23 -143q102 184 319 184q170 0 267.5 -106.5t97.5 -307.5
l2 -679q0 -156 -73.5 -248t-200.5 -92q-119 3 -217 67z" />
    <glyph glyph-name="Omacron" unicode="&#x14c;" horiz-adv-x="1624" 
d="M84 711q0 327 201 528t528 201t528 -201t201 -528q0 -330 -201 -531q-198 -198 -528 -198q-332 0 -530 198q-199 199 -199 531zM813 156q246 0 397 151q152 155 152 404q3 245 -150 401q-151 154 -399 154q-247 0 -401 -154q-152 -152 -152 -401t152 -404
q151 -151 401 -151zM573 1700h480q20 0 20 -19v-106q0 -21 -20 -21h-480q-20 0 -20 21v106q0 19 20 19z" />
    <glyph glyph-name="omacron" unicode="&#x14d;" horiz-adv-x="1107" 
d="M72 465q0 215 133 348t348 133t348 -133t133 -348q0 -216 -133 -352q-133 -133 -348 -133t-348 133q-133 136 -133 352zM236 463q0 -141 88 -230.5t229 -89.5t229 89.5t88 230.5q0 143 -87.5 231t-229.5 88q-141 0 -229 -88.5t-88 -230.5zM317 1331h478q20 0 20 -20v-107
q0 -20 -20 -20h-478q-20 0 -20 20v107q0 20 20 20z" />
    <glyph glyph-name="Obreve" unicode="&#x14e;" horiz-adv-x="1624" 
d="M84 711q0 327 201 528t528 201t528 -201t201 -528q0 -330 -201 -531q-198 -198 -528 -198q-332 0 -530 198q-199 199 -199 531zM813 156q246 0 397 151q152 155 152 404q3 245 -150 401q-151 154 -399 154q-247 0 -401 -154q-152 -152 -152 -401t152 -404
q151 -151 401 -151zM997 1761h93q16 0 16 -16q-5 -113 -85 -179.5t-210 -66.5q-127 0 -206 66.5t-85 179.5q0 16 17 16h92q18 0 18 -16q8 -50 53.5 -81.5t112.5 -31.5t113.5 31.5t52.5 81.5q3 16 18 16z" />
    <glyph glyph-name="obreve" unicode="&#x14f;" horiz-adv-x="1107" 
d="M72 465q0 215 133 348t348 133t348 -133t133 -348q0 -216 -133 -352q-133 -133 -348 -133t-348 133q-133 136 -133 352zM236 463q0 -141 88 -230.5t229 -89.5t229 89.5t88 230.5q0 143 -87.5 231t-229.5 88q-141 0 -229 -88.5t-88 -230.5zM737 1401h94q17 0 17 -21
q-4 -133 -86 -214t-211 -81t-209.5 80.5t-85.5 214.5q0 21 18 21h95q16 0 16 -21q8 -68 53.5 -113.5t112.5 -45.5q70 0 116 46t54 115q0 19 16 19z" />
    <glyph glyph-name="Ohungarumlaut" unicode="&#x150;" horiz-adv-x="1624" 
d="M84 711q0 327 201 528t528 201t528 -201t201 -528q0 -330 -201 -531q-198 -198 -528 -198q-332 0 -530 198q-199 199 -199 531zM813 156q246 0 397 151q152 155 152 404q3 245 -150 401q-151 154 -399 154q-247 0 -401 -154q-152 -152 -152 -401t152 -404
q151 -151 401 -151zM1044 1802l113 -80q15 -15 2 -28l-194 -211q-15 -15 -31 -2l-64 45q-15 12 -6 28l152 242q12 15 28 6zM727 1802l115 -80q15 -15 4 -26l-199 -213q-14 -14 -29 -2l-65 45q-12 15 -4 28l151 242q10 16 27 6z" />
    <glyph glyph-name="ohungarumlaut" unicode="&#x151;" horiz-adv-x="1107" 
d="M72 465q0 215 133 348t348 133t348 -133t133 -348q0 -216 -133 -352q-133 -133 -348 -133t-348 133q-133 136 -133 352zM236 463q0 -141 88 -230.5t229 -89.5t229 89.5t88 230.5q0 143 -87.5 231t-229.5 88q-141 0 -229 -88.5t-88 -230.5zM766 1452l111 -61q21 -15 8 -31
l-209 -264q-12 -12 -27 -6l-61 40q-21 9 -8 29l157 283q9 20 29 10zM451 1452l114 -63q19 -9 6 -29l-209 -264q-12 -12 -26 -4l-62 38q-18 9 -8 29l158 285q9 19 27 8z" />
    <glyph glyph-name="OE" unicode="&#x152;" horiz-adv-x="1552" 
d="M1456 0h-665q-321 3 -515 197q-192 192 -192 514q0 323 192 512q192 192 512 198h646q22 0 22 -22v-117q0 -22 -20 -22h-484v-455h385q21 0 21 -23v-116q0 -21 -21 -21h-385v-485h502q21 0 21 -21v-119q0 -20 -19 -20zM774 174v1071q-235 -9 -373 -153
q-139 -145 -139 -381q0 -238 138.5 -381.5t373.5 -155.5z" />
    <glyph glyph-name="oe" unicode="&#x153;" horiz-adv-x="1904" 
d="M236 463q0 -141 88 -230.5t229 -89.5q143 0 230 88t87 234q0 141 -87.5 229t-229.5 88q-141 0 -229 -88.5t-88 -230.5zM1040 530h621q-19 117 -102 186.5t-207 69.5q-127 0 -210 -69t-102 -187zM72 465q0 215 133 348t348 133q271 0 401 -201q130 201 398 201
q233 0 357 -143.5t122 -388.5q0 -21 -21 -21h-768q20 -117 109.5 -185.5t222.5 -68.5q166 0 254 94q15 15 31 3l84 -84q15 -16 2 -29q-131 -143 -375 -143q-284 0 -416 202q-132 -202 -401 -202q-215 0 -348 133q-133 136 -133 352z" />
    <glyph glyph-name="Racute" unicode="&#x154;" horiz-adv-x="1073" 
d="M825 10l-348 582h-194v-572q0 -20 -21 -20h-137q-21 0 -21 20v1381q0 20 19 20h137h301q213 0 334 -110t123 -303q-2 -168 -95.5 -274.5t-263.5 -131.5l367 -577q16 -25 -12 -25h-168q-14 0 -21 10zM565 1257h-282v-499h282q130 -2 202.5 62.5t72.5 185.5
q0 118 -73 184.5t-202 66.5zM756 1806l71 -116q10 -20 -8 -29l-375 -205q-19 -10 -28 8l-41 64q-9 16 6 28l346 254q19 16 29 -4z" />
    <glyph glyph-name="racute" unicode="&#x155;" horiz-adv-x="710" 
d="M627 752q-68 26 -131 26q-127 0 -191 -143v-615q0 -20 -20 -20h-125q-21 0 -21 20v885q0 21 19 21h86q21 0 24 -21l17 -74q101 113 241 113q74 0 148 -24q18 -3 12 -25l-35 -131q-3 -18 -24 -12zM532 1415l84 -106q15 -12 0 -27l-327 -225q-19 -16 -29 4l-47 55
q-13 16 2 31l289 270q13 13 28 -2z" />
    <glyph glyph-name="uni0156" unicode="&#x156;" horiz-adv-x="1155" 
d="M889 10l-348 582h-195v-572q0 -20 -20 -20h-138q-20 0 -20 20v1381q0 20 18 20h138h301q213 0 333.5 -110t122.5 -303q-2 -168 -95 -274.5t-263 -131.5l367 -577q16 -25 -13 -25h-168q-13 0 -20 10zM629 1257h-283v-499h283q130 -2 202 62.5t72 185.5q0 118 -72.5 184.5
t-201.5 66.5zM569 -276q-2 2 -8 2q-78 21 -78 106q0 51 31 82t82 31q41 0 68.5 -21.5t35.5 -58.5q28 -97 -30 -184q-60 -90 -160 -130q-18 -9 -29 9l-30 49q-9 15 6 24q75 38 112 91z" />
    <glyph glyph-name="uni0157" unicode="&#x157;" horiz-adv-x="710" 
d="M627 752q-68 26 -131 26q-127 0 -191 -143v-615q0 -20 -20 -20h-125q-21 0 -21 20v885q0 21 19 21h86q21 0 24 -21l17 -74q101 113 241 113q74 0 148 -24q18 -3 12 -25l-35 -131q-3 -18 -24 -12zM190 -276q-2 2 -8 2q-78 21 -78 106q0 51 31 82t82 31q41 0 69 -21.5
t36 -58.5q27 -96 -31 -184q-60 -90 -160 -130q-18 -9 -29 9l-30 49q-9 15 6 24q75 38 112 91z" />
    <glyph glyph-name="Rcaron" unicode="&#x158;" horiz-adv-x="1116" 
d="M866 10l-348 582h-194v-572q0 -20 -21 -20h-137q-21 0 -21 20v1381q0 20 19 20h137h301q213 0 334 -110t123 -303q-2 -168 -95.5 -274.5t-263.5 -131.5l367 -577q16 -25 -12 -25h-168q-14 0 -21 10zM606 1257h-282v-499h282q130 -2 202.5 62.5t72.5 185.5
q0 118 -73 184.5t-202 66.5zM406 1735l149 -125l150 125q10 10 28 10h162q34 0 8 -23l-254 -211q-17 -10 -28 -10h-132q-18 0 -28 10l-256 211q-26 23 8 23h164q12 0 29 -10z" />
    <glyph glyph-name="rcaron" unicode="&#x159;" horiz-adv-x="710" 
d="M627 752q-68 26 -131 26q-127 0 -191 -143v-615q0 -20 -20 -20h-125q-21 0 -21 20v885q0 21 19 21h86q21 0 24 -21l17 -74q101 113 241 113q74 0 148 -24q18 -3 12 -25l-35 -131q-3 -18 -24 -12zM72 1389h141q14 0 25 -11l151 -192l148 190q13 13 28 15h140q25 0 10 -21
l-228 -283q-11 -14 -30 -14h-140q-17 0 -26 12l-228 285q-7 9 -4.5 14t13.5 5z" />
    <glyph glyph-name="Sacute" unicode="&#x15a;" horiz-adv-x="1159" 
d="M96 152q-14 8 -4 28l70 119q9 20 31 4q45 -40 79 -59q54 -34 145.5 -61t180.5 -27q135 0 216 61t81 164q-1 85 -78 136.5t-262 92.5q-232 54 -341 157t-114 269q-3 177 133 289q139 118 355 115q104 0 205 -29q148 -45 211 -108q14 -8 4 -31l-58 -125q-9 -20 -28 -4
q-154 121 -344 121q-129 0 -214 -63t-85 -157q0 -93 69 -147q67 -50 273 -104q236 -61 341 -150.5t109 -241.5q6 -195 -122.5 -308.5t-364.5 -112.5q-133 0 -242 36q-101 33 -154 65t-92 71zM766 1806l72 -116q10 -20 -9 -29l-374 -205q-20 -10 -29 8l-41 64q-9 16 6 28
l346 254q19 16 29 -4z" />
    <glyph glyph-name="sacute" unicode="&#x15b;" horiz-adv-x="835" 
d="M76 84q-19 12 -4 27l57 102q6 16 23 6q130 -77 254 -80q88 -1 142 29.5t54 81.5q0 52 -47 80.5t-174 62.5q-156 43 -225.5 108t-73.5 173q-3 122 96 198q102 79 254 76q172 0 285 -90q16 -9 6 -29l-51 -102q-9 -18 -29 -6q-101 64 -209 67q-82 1 -133 -28t-51 -76
q0 -53 42.5 -81.5t162.5 -61.5q166 -42 240 -104.5t75 -172.5q1 -129 -96.5 -206.5t-259.5 -77.5q-210 3 -338 104zM553 1419l84 -106q16 -12 -2 -27l-326 -225q-18 -15 -28 4l-48 55q-12 16 3 31l288 270q15 12 29 -2z" />
    <glyph glyph-name="Scircumflex" unicode="&#x15c;" horiz-adv-x="1159" 
d="M96 152q-14 8 -4 28l70 119q9 20 31 4q45 -40 79 -59q54 -34 145.5 -61t180.5 -27q135 0 216 61t81 164q-1 85 -78 136.5t-262 92.5q-232 54 -341 157t-114 269q-3 177 133 289q139 118 355 115q104 0 205 -29q148 -45 211 -108q14 -8 4 -31l-58 -125q-9 -20 -28 -4
q-154 121 -344 121q-129 0 -214 -63t-85 -157q0 -93 69 -147q67 -50 273 -104q236 -61 341 -150.5t109 -241.5q6 -195 -122.5 -308.5t-364.5 -112.5q-133 0 -242 36q-101 33 -154 65t-92 71zM725 1516l-141 116l-144 -116q-18 -11 -26 -11h-158q-29 0 -8 21l246 203
q8 8 26 8h125q19 0 27 -8l243 -201q14 -10 11.5 -16.5t-19.5 -6.5h-157q-7 0 -25 11z" />
    <glyph glyph-name="scircumflex" unicode="&#x15d;" horiz-adv-x="835" 
d="M76 82q-16 13 -4 31l55 98q6 15 27 6q118 -75 252 -78q90 -1 143 29.5t53 81.5q0 52 -47 80.5t-174 62.5q-157 42 -227.5 106.5t-71.5 172.5q-1 124 95.5 201t252.5 75q170 -3 285 -90q15 -12 6 -31l-49 -100q-9 -16 -29 -6q-104 64 -209 67q-82 2 -134 -27.5t-52 -76.5
q0 -53 43 -81.5t164 -61.5q165 -44 238 -105.5t77 -171.5q2 -129 -96 -206t-262 -76q-210 0 -336 100zM92 1087l230 287q9 12 28 12h137q19 0 31 -12l227 -284q16 -19 -8 -19h-145q-13 0 -23 10l-149 193l-150 -191q-9 -12 -26 -12h-144q-21 0 -8 16z" />
    <glyph glyph-name="Scedilla" unicode="&#x15e;" horiz-adv-x="1159" 
d="M96 152q-14 8 -4 28l70 119q9 20 31 4q45 -40 79 -59q54 -34 145.5 -61t180.5 -27q135 0 216 61t81 164q-1 85 -78 136.5t-262 92.5q-232 54 -341 157t-114 269q-3 177 133 289q139 118 355 115q104 0 205 -29q148 -45 211 -108q14 -8 4 -31l-58 -125q-9 -20 -28 -4
q-154 121 -344 121q-129 0 -214 -63t-85 -157q0 -93 69 -147q67 -50 273 -104q236 -61 341 -150.5t109 -241.5q6 -195 -122.5 -308.5t-364.5 -112.5q-133 0 -242 36q-101 33 -154 65t-92 71zM520 0h129l-31 -72q179 -21 179 -166q0 -84 -61 -134t-156 -48q-111 -3 -203 68
q-13 10 -4 24l41 58q8 11 24 2q74 -41 135 -41q43 0 69 20.5t26 52.5q0 64 -113 64h-90q-15 0 -12 18z" />
    <glyph glyph-name="scedilla" unicode="&#x15f;" horiz-adv-x="835" 
d="M76 82q-16 13 -4 31l55 98q6 15 27 6q118 -75 252 -78q90 -1 143 29.5t53 81.5q0 52 -47 80.5t-174 62.5q-157 42 -227.5 106.5t-71.5 172.5q-1 124 95.5 201t252.5 75q170 -3 285 -90q15 -12 6 -31l-49 -100q-9 -16 -29 -6q-104 64 -209 67q-82 2 -134 -27.5t-52 -76.5
q0 -53 43 -81.5t164 -61.5q165 -44 238 -105.5t77 -171.5q2 -129 -96 -206t-262 -76q-210 0 -336 100zM352 0h137l-32 -76q186 -21 186 -174q0 -87 -64 -140.5t-163 -51.5q-118 -3 -213 71q-13 8 -4 27l43 59q8 11 24 2q82 -43 144 -43q44 0 71 21.5t27 56.5q0 68 -119 68
h-94q-21 0 -12 18z" />
    <glyph glyph-name="Scaron" unicode="&#x160;" horiz-adv-x="1159" 
d="M96 152q-14 8 -4 28l70 119q9 20 31 4q45 -40 79 -59q54 -34 145.5 -61t180.5 -27q135 0 216 61t81 164q-1 85 -78 136.5t-262 92.5q-232 54 -341 157t-114 269q-3 177 133 289q139 118 355 115q104 0 205 -29q148 -45 211 -108q14 -8 4 -31l-58 -125q-9 -20 -28 -4
q-154 121 -344 121q-129 0 -214 -63t-85 -157q0 -93 69 -147q67 -50 273 -104q236 -61 341 -150.5t109 -241.5q6 -195 -122.5 -308.5t-364.5 -112.5q-133 0 -242 36q-101 33 -154 65t-92 71zM434 1735l150 -125l149 125q10 10 29 10h162q34 0 8 -23l-254 -211
q-17 -10 -29 -10h-131q-19 0 -29 10l-256 211q-26 23 9 23h164q11 0 28 -10z" />
    <glyph glyph-name="scaron" unicode="&#x161;" horiz-adv-x="841" 
d="M80 82q-16 13 -4 31l55 98q6 15 27 6q118 -75 252 -78q90 -1 143 29.5t53 81.5q0 52 -47 80.5t-174 62.5q-157 42 -227.5 106.5t-71.5 172.5q-1 124 95.5 201t252.5 75q170 -3 285 -90q15 -12 6 -31l-49 -100q-9 -16 -29 -6q-104 64 -209 67q-82 2 -134 -27.5t-52 -76.5
q0 -53 43 -81.5t164 -61.5q165 -44 238 -105.5t77 -171.5q2 -129 -96 -206t-262 -76q-210 0 -336 100zM94 1389h142q13 0 24 -11l152 -192l147 190q13 13 29 15h139q25 0 10 -21l-227 -283q-11 -14 -31 -14h-139q-18 0 -27 12l-227 285q-16 19 8 19z" />
    <glyph glyph-name="uni0162" unicode="&#x162;" horiz-adv-x="1101" 
d="M639 1401l2 -1383q0 -18 -20 -18h-140q-20 0 -20 18v1383q0 18 20 18h137q21 0 21 -18zM23 1276v125q0 18 22 18h1014q18 0 18 -18v-125q0 -19 -20 -19h-1014q-20 0 -20 19z" />
    <glyph glyph-name="uni0163" unicode="&#x163;" horiz-adv-x="653" 
d="M547 188q20 10 28 -4l58 -104q9 -21 -2 -29q-84 -69 -195 -69q-121 0 -184.5 85t-61.5 246l3 922q0 20 18 20h125q20 0 20 -20v-875q1 -120 24 -167.5t75 -47.5q37 0 92 43zM25 797v108q0 19 20 19h533q20 0 20 -19v-108q0 -23 -20 -23h-533q-20 0 -20 23z" />
    <glyph glyph-name="Tcaron" unicode="&#x164;" horiz-adv-x="1101" 
d="M463 18l-2 1237h-418q-18 0 -18 21v125q0 20 20 20h1014q18 0 18 -20v-125q0 -21 -20 -21h-418v-1237q0 -18 -18 -18h-140q-18 0 -18 18zM401 1735l150 -125l149 125q10 10 29 10h162q34 0 8 -23l-254 -211q-17 -10 -29 -10h-131q-18 0 -28 10l-256 211q-26 23 8 23h164
q11 0 28 -10z" />
    <glyph glyph-name="tcaron" unicode="&#x165;" horiz-adv-x="802" 
d="M356 774v-414q0 -120 22 -166.5t77 -48.5q43 0 92 43q20 9 28 -4l58 -104q10 -23 -4 -31q-88 -70 -193 -67q-121 0 -184.5 85t-61.5 246v463h-145q-20 0 -20 19v110q0 21 20 21h145l3 309q0 20 18 20h127q18 0 18 -20v-311h222q20 0 20 -19v-110q0 -21 -20 -21h-222z
M608 1225q-2 2 -8 2q-78 21 -78 106q0 51 31 82t82 31q41 0 68.5 -21.5t35.5 -58.5q28 -98 -30 -186q-57 -86 -160 -127q-19 -9 -29 8l-31 49q-9 15 7 25q76 39 112 90z" />
    <glyph glyph-name="Tbar" unicode="&#x166;" horiz-adv-x="1101" 
d="M1077 1401v-125q0 -21 -20 -21h-418v-444h229q19 0 19 -18v-97q0 -18 -19 -18h-229v-660q0 -18 -18 -18h-140q-18 0 -18 18l-2 660h-228q-20 0 -20 18v97q0 18 20 18h228v444h-418q-18 0 -18 21v125q0 20 20 20h1014q18 0 18 -20z" />
    <glyph glyph-name="tbar" unicode="&#x167;" horiz-adv-x="651" 
d="M565 461h-209v-113q0 -110 23.5 -155.5t75.5 -47.5q43 0 92 43q20 9 28 -4l58 -104q10 -23 -4 -31q-88 -70 -193 -67q-121 0 -184.5 85t-61.5 246v148h-137q-20 0 -20 18v96q0 19 20 19h137v180h-145q-20 0 -20 21v110q0 19 20 19h145l3 311q0 20 18 20h127q18 0 18 -20
v-309h222q20 0 20 -21v-110q0 -19 -20 -19h-222v-182h209q19 0 19 -19v-96q0 -18 -19 -18z" />
    <glyph glyph-name="Utilde" unicode="&#x168;" horiz-adv-x="1232" 
d="M98 557v844q0 18 19 18h139q20 0 20 -20v-844q0 -192 91 -295.5t249 -103.5q161 0 250 102.5t88 296.5v846q0 18 21 18h139q21 0 21 -18v-846q-1 -137 -38.5 -245.5t-105.5 -180.5t-163 -109.5t-212 -37.5q-237 0 -377.5 151t-140.5 424zM389 1532q-6 -23 -27 -8l-53 45
q-15 9 -8 26q29 86 80 135.5t108 49.5q33 2 64 -13.5t54 -38.5t44 -46t43 -38.5t43 -13.5q71 3 105 107q10 25 28 10l56 -45q15 -9 8 -27q-26 -85 -78 -134.5t-113 -49.5q-37 0 -68.5 15.5t-52 37.5t-39.5 44.5t-41 38t-46 15.5q-67 -3 -107 -110z" />
    <glyph glyph-name="utilde" unicode="&#x169;" horiz-adv-x="1120" 
d="M846 18l-23 146q-105 -187 -325 -187q-170 0 -266.5 107t-96.5 307l-2 514q0 21 21 21h127q18 0 18 -21v-499q0 -267 233 -267q118 0 197.5 95t85.5 243v428q0 21 21 21h125q20 0 20 -21v-887q0 -18 -18 -18h-93q-21 0 -24 18zM332 1112q-9 -19 -27 -8l-57 47
q-10 9 -6 20q31 86 82.5 137.5t107.5 51.5q40 2 77.5 -22t61.5 -54t52.5 -54t52.5 -22q68 3 108 113q6 19 21 4l61 -47q10 -6 4 -18q-24 -87 -75.5 -137t-112.5 -50q-31 -2 -61.5 14t-53.5 38.5t-44.5 45.5t-43.5 38t-41 12q-66 -3 -106 -109z" />
    <glyph glyph-name="Umacron" unicode="&#x16a;" horiz-adv-x="1327" 
d="M145 557v844q0 18 19 18h139q21 0 21 -20v-844q0 -192 91 -295.5t249 -103.5q161 0 249.5 102.5t87.5 296.5v846q0 18 21 18h139q21 0 21 -18v-846q-1 -274 -141 -423.5t-377 -149.5t-378 151.5t-141 423.5zM424 1698h479q21 0 21 -19v-106q0 -21 -21 -21h-479
q-21 0 -21 21v106q0 19 21 19z" />
    <glyph glyph-name="umacron" unicode="&#x16b;" horiz-adv-x="1120" 
d="M846 18l-23 146q-105 -187 -325 -187q-170 0 -266.5 107t-96.5 307l-2 514q0 21 21 21h127q18 0 18 -21v-499q0 -267 233 -267q118 0 197.5 95t85.5 243v428q0 21 21 21h125q20 0 20 -21v-887q0 -18 -18 -18h-93q-21 0 -24 18zM322 1331h477q18 0 18 -22v-107
q0 -20 -18 -20h-477q-21 0 -21 20v107q0 22 21 22z" />
    <glyph glyph-name="Ubreve" unicode="&#x16c;" horiz-adv-x="1327" 
d="M145 557v844q0 18 19 18h139q21 0 21 -20v-844q0 -192 91 -295.5t249 -103.5q161 0 249.5 102.5t87.5 296.5v846q0 18 21 18h139q21 0 21 -18v-846q-1 -274 -141 -423.5t-377 -149.5t-378 151.5t-141 423.5zM850 1763l92 2q19 0 19 -20q-6 -113 -87.5 -180.5
t-211.5 -67.5q-127 0 -207 67.5t-88 180.5q0 20 20 20h90q21 0 21 -20q6 -50 51.5 -81.5t112.5 -31.5q69 0 115 31.5t52 81.5q3 18 21 18z" />
    <glyph glyph-name="ubreve" unicode="&#x16d;" horiz-adv-x="1120" 
d="M846 18l-23 146q-105 -187 -325 -187q-170 0 -266.5 107t-96.5 307l-2 514q0 21 21 21h127q18 0 18 -21v-499q0 -267 233 -267q118 0 197.5 95t85.5 243v428q0 21 21 21h125q20 0 20 -21v-887q0 -18 -18 -18h-93q-21 0 -24 18zM741 1384h93q18 0 18 -20q-4 -133 -86 -214
t-211 -81t-210 80.5t-87 214.5q0 20 21 20h92q18 0 18 -20q8 -69 53.5 -115.5t112.5 -46.5q70 0 116 47t52 117q0 18 18 18z" />
    <glyph glyph-name="Uring" unicode="&#x16e;" horiz-adv-x="1327" 
d="M145 557v844q0 18 19 18h139q21 0 21 -20v-844q0 -192 91 -295.5t249 -103.5q161 0 249.5 102.5t87.5 296.5v846q0 18 21 18h139q21 0 21 -18v-846q-1 -274 -141 -423.5t-377 -149.5t-378 151.5t-141 423.5zM475 1657q0 85 51 135.5t136 50.5q86 0 138 -50.5t52 -135.5
q0 -86 -52 -138.5t-138 -52.5q-85 0 -136 52.5t-51 138.5zM573 1655q0 -38 25 -62t66 -24q38 0 63 24t25 62q0 41 -24.5 65.5t-63.5 24.5q-41 0 -66 -24.5t-25 -65.5z" />
    <glyph glyph-name="uring" unicode="&#x16f;" horiz-adv-x="1120" 
d="M846 18l-23 146q-105 -187 -325 -187q-170 0 -266.5 107t-96.5 307l-2 514q0 21 21 21h127q18 0 18 -21v-499q0 -267 233 -267q118 0 197.5 95t85.5 243v428q0 21 21 21h125q20 0 20 -21v-887q0 -18 -18 -18h-93q-21 0 -24 18zM557 1415q87 0 139 -51t52 -137
t-52.5 -138.5t-138.5 -52.5q-85 0 -136.5 52.5t-51.5 138.5t51.5 137t136.5 51zM469 1225q0 -39 24.5 -62.5t65.5 -23.5q38 0 63 24t25 62q0 41 -24.5 65.5t-63.5 24.5q-41 0 -65.5 -24.5t-24.5 -65.5z" />
    <glyph glyph-name="Uhungarumlaut" unicode="&#x170;" horiz-adv-x="1327" 
d="M145 557v844q0 18 19 18h139q21 0 21 -20v-844q0 -192 91 -295.5t249 -103.5q161 0 249.5 102.5t87.5 296.5v846q0 18 21 18h139q21 0 21 -18v-846q-1 -274 -141 -423.5t-377 -149.5t-378 151.5t-141 423.5zM874 1806l113 -80q18 -12 4 -26l-196 -213q-14 -11 -29 -2
l-66 45q-16 13 -6 29l152 241q12 15 28 6zM557 1806l115 -80q16 -12 2 -26l-195 -213q-11 -11 -30 -2l-64 45q-16 16 -8 29l153 243q9 15 27 4z" />
    <glyph glyph-name="uhungarumlaut" unicode="&#x171;" horiz-adv-x="1120" 
d="M846 18l-23 146q-105 -187 -325 -187q-170 0 -266.5 107t-96.5 307l-2 514q0 21 21 21h127q18 0 18 -21v-499q0 -267 233 -267q118 0 197.5 95t85.5 243v428q0 21 21 21h125q20 0 20 -21v-887q0 -18 -18 -18h-93q-21 0 -24 18zM756 1427l110 -63q20 -14 8 -29l-208 -264
q-12 -12 -27 -6l-64 41q-16 10 -6 27l158 284q7 20 29 10zM440 1427l115 -65q18 -9 6 -27l-209 -264q-12 -12 -26 -4l-64 39q-16 9 -6 29l158 284q10 16 26 8z" />
    <glyph glyph-name="Uogonek" unicode="&#x172;" horiz-adv-x="1327" 
d="M145 557v844q0 18 19 18h139q21 0 21 -20v-844q0 -192 91 -295.5t249 -103.5q161 0 249.5 102.5t87.5 296.5v846q0 18 21 18h139q21 0 21 -18v-846q-1 -274 -141 -423.5t-377 -149.5t-378 151.5t-141 423.5zM799 -362q-61 -76 -176 -76q-96 0 -152.5 50.5t-56.5 135.5
q0 59 41 127q40 61 80 100t114 97l72 -70q-94 -93 -127 -136.5t-37 -94.5q-9 -72 64 -84q53 -6 81 26q13 16 25 4l68 -53q17 -10 4 -26z" />
    <glyph glyph-name="uogonek" unicode="&#x173;" horiz-adv-x="1120" 
d="M846 18l-23 146q-105 -187 -325 -187q-170 0 -266.5 107t-96.5 307l-2 514q0 21 21 21h127q18 0 18 -21v-499q0 -267 233 -267q118 0 197.5 95t85.5 243v428q0 21 21 21h125q20 0 20 -21v-887q0 -18 -18 -18h-93q-21 0 -24 18zM1055 -356q-58 -76 -174 -76
q-97 0 -154 50.5t-57 135.5q0 59 41 127q40 61 80 100t114 97l72 -70q-93 -92 -126.5 -137t-37.5 -96q-5 -31 13 -54.5t53 -27.5q54 -6 82 26q10 16 24 5l66 -56q16 -9 4 -24z" />
    <glyph glyph-name="Wcircumflex" unicode="&#x174;" horiz-adv-x="1802" 
d="M424 16l-416 1385q-6 20 15 20h143q15 0 24 -18l316 -1108l299 1108q3 18 24 18h140q19 0 22 -18l303 -1116l320 1120q3 14 18 14h148q20 0 14 -20l-418 -1385q-6 -16 -24 -16h-119q-19 0 -25 16l-309 1180l-311 -1180q-3 -16 -23 -16h-119q-16 0 -22 16zM840 1755h125
q9 0 26 -10l244 -201q23 -20 -8 -20h-158q-15 0 -25 10l-143 117l-141 -117q-17 -10 -27 -10h-158q-35 0 -8 18l244 203q17 10 29 10z" />
    <glyph glyph-name="wcircumflex" unicode="&#x175;" horiz-adv-x="1314" 
d="M1018 0h-144q-18 0 -24 16l-193 693l-194 -693q-6 -16 -25 -16h-141q-20 0 -23 16l-262 891q-3 17 13 17h149q20 0 23 -17l176 -696l198 696q7 17 25 17h123q17 0 24 -17l199 -704l174 704q7 17 23 17h149q18 0 15 -19l-263 -889q-6 -16 -22 -16zM481 1069h-143
q-21 0 -8 16l229 287q9 12 29 12h137q19 0 31 -12l227 -285q15 -18 -8 -18h-146q-12 0 -22 10l-150 193l-149 -191q-9 -12 -27 -12z" />
    <glyph glyph-name="Ycircumflex" unicode="&#x176;" horiz-adv-x="1177" 
d="M500 18v547l-488 830q-15 24 15 24h153q19 0 29 -16l381 -678l381 678q6 16 28 16h152q32 0 14 -24l-487 -828v-549q0 -18 -19 -18h-139q-20 0 -20 18zM731 1520l-141 116l-141 -116q-18 -11 -29 -11h-158q-30 0 -6 21l244 203q8 8 28 8h123q21 0 29 -8l242 -201
q14 -10 12 -16.5t-19 -6.5h-157q-9 0 -27 11z" />
    <glyph glyph-name="ycircumflex" unicode="&#x177;" horiz-adv-x="958" 
d="M782 926h140q29 -3 16 -29l-553 -1346q-9 -18 -29 -18h-127q-27 0 -18 27l180 444l-373 893q-10 26 17 29h141q18 0 27 -19l268 -700l285 700q10 19 26 19zM152 1081l229 287q9 12 29 12h137q19 0 31 -12l227 -285q15 -18 -8 -18h-146q-12 0 -22 10l-150 193l-149 -191
q-9 -12 -27 -12h-143q-21 0 -8 16z" />
    <glyph glyph-name="Ydieresis" unicode="&#x178;" horiz-adv-x="1177" 
d="M500 18v547l-488 830q-15 24 15 24h153q19 0 29 -16l381 -678l381 678q6 16 28 16h152q32 0 14 -24l-487 -828v-549q0 -18 -19 -18h-139q-20 0 -20 18zM420 1507q-54 0 -86.5 32.5t-32.5 86.5t32.5 87.5t86.5 33.5t86.5 -33.5t32.5 -87.5q0 -53 -33.5 -86t-85.5 -33z
M756 1747q55 0 86.5 -32.5t31.5 -88.5q0 -54 -32 -86.5t-86 -32.5q-52 0 -85.5 33t-33.5 86q0 54 32.5 87.5t86.5 33.5z" />
    <glyph glyph-name="Zacute" unicode="&#x179;" horiz-adv-x="1161" 
d="M1079 1386l-739 -1222h739q21 0 21 -21v-123q0 -20 -21 -20h-1001q-39 0 -19 33l740 1224h-690q-19 0 -19 19v125q0 20 19 20h950q38 0 20 -35zM762 1806l72 -116q10 -20 -9 -29l-374 -205q-20 -10 -29 8l-41 64q-9 16 6 28l346 254q19 16 29 -4z" />
    <glyph glyph-name="zacute" unicode="&#x17a;" horiz-adv-x="921" 
d="M815 0h-704q-41 0 -19 31l469 743h-432q-20 0 -20 21v110q0 19 20 19l676 2q17 0 22 -11t-6 -24l-469 -741h463q19 0 19 -21v-109q0 -20 -19 -20zM651 1399l84 -105q14 -14 -2 -26l-325 -226q-15 -15 -29 2l-47 58q-10 13 2 28l289 271q13 13 28 -2z" />
    <glyph glyph-name="Zdotaccent" unicode="&#x17b;" horiz-adv-x="1161" 
d="M1079 1386l-739 -1222h739q21 0 21 -21v-123q0 -20 -21 -20h-1001q-39 0 -19 33l740 1224h-690q-19 0 -19 19v125q0 20 19 20h950q38 0 20 -35zM584 1741q68 8 96 -49.5t-1 -115t-95 -50.5q-47 0 -78 30.5t-31 77.5t31 77t78 30z" />
    <glyph glyph-name="zdotaccent" unicode="&#x17c;" horiz-adv-x="921" 
d="M815 0h-704q-41 0 -19 31l469 743h-432q-20 0 -20 21v110q0 19 20 19l676 2q17 0 22 -11t-6 -24l-469 -741h463q19 0 19 -21v-109q0 -20 -19 -20zM387 1184q-31 31 -31 79.5t31 77.5q31 31 80 31t78 -31q31 -29 31 -77.5t-31 -79.5q-29 -31 -78 -31t-80 31z" />
    <glyph glyph-name="Zcaron" unicode="&#x17d;" horiz-adv-x="1161" 
d="M1079 1386l-739 -1222h739q21 0 21 -21v-123q0 -20 -21 -20h-1001q-39 0 -19 33l740 1224h-690q-19 0 -19 19v125q0 20 19 20h950q38 0 20 -35zM432 1735l150 -125l149 125q10 10 29 10h162q34 0 8 -23l-254 -211q-17 -10 -29 -10h-131q-19 0 -29 10l-256 211
q-26 23 9 23h163q12 0 29 -10z" />
    <glyph glyph-name="zcaron" unicode="&#x17e;" horiz-adv-x="921" 
d="M815 0h-704q-41 0 -19 31l469 743h-432q-20 0 -20 21v110q0 19 20 19l676 2q17 0 22 -11t-6 -24l-469 -741h463q19 0 19 -21v-109q0 -20 -19 -20zM152 1389h141q13 0 24 -11l152 -192l147 190q13 13 29 15h139q26 0 11 -21l-228 -283q-11 -14 -30 -14h-140q-17 0 -26 12
l-228 285q-16 19 9 19z" />
    <glyph glyph-name="longs" unicode="&#x17f;" horiz-adv-x="626" 
d="M350 1139v-1119q0 -20 -18 -20h-127q-21 0 -21 20l-2 1133q0 166 74.5 257t204.5 91q129 0 221 -69q16 -10 6 -27l-59 -107q-9 -15 -27 -4q-64 43 -127 43q-125 0 -125 -198z" />
    <glyph glyph-name="florin" unicode="&#x192;" horiz-adv-x="944" 
d="M1001 1399l-77 -96q-11 -14 -33 -5q-58 43 -115 43q-111 0 -141 -184l-31 -231h230q21 0 18 -23l-14 -106q-3 -21 -25 -21h-231l-82 -588q-27 -203 -185 -280q-158 -78 -362 4q-22 10 -8 27l67 106q12 14 31 8q119 -49 200.5 -1t100.5 177l76 547h-137q-22 0 -19 21
l17 106q3 23 22 23h137l35 241q20 150 104.5 242t202.5 92q114 0 217 -69q16 -13 2 -33z" />
    <glyph glyph-name="uni0218" unicode="&#x218;" horiz-adv-x="1159" 
d="M96 152q-14 8 -4 28l70 119q9 20 31 4q45 -40 79 -59q54 -34 145.5 -61t180.5 -27q135 0 216 61t81 164q-1 85 -78 136.5t-262 92.5q-232 54 -341 157t-114 269q-3 177 133 289q139 118 355 115q104 0 205 -29q148 -45 211 -108q14 -8 4 -31l-58 -125q-9 -20 -28 -4
q-154 121 -344 121q-129 0 -214 -63t-85 -157q0 -93 69 -147q67 -50 273 -104q236 -61 341 -150.5t109 -241.5q6 -195 -122.5 -308.5t-364.5 -112.5q-133 0 -242 36q-101 33 -154 65t-92 71zM547 -276q-2 2 -8 2q-78 21 -78 106q0 51 30.5 82t81.5 31q41 0 69 -21.5
t36 -58.5q27 -96 -31 -184q-60 -90 -160 -130q-17 -9 -28 9l-31 49q-9 15 6 24q77 39 113 91z" />
    <glyph glyph-name="uni0219" unicode="&#x219;" horiz-adv-x="835" 
d="M76 82q-16 13 -4 31l55 98q6 15 27 6q118 -75 252 -78q90 -1 143 29.5t53 81.5q0 52 -47 80.5t-174 62.5q-157 42 -227.5 106.5t-71.5 172.5q-1 124 95.5 201t252.5 75q170 -3 285 -90q15 -12 6 -31l-49 -100q-9 -16 -29 -6q-104 64 -209 67q-82 2 -134 -27.5t-52 -76.5
q0 -53 43 -81.5t164 -61.5q165 -44 238 -105.5t77 -171.5q2 -129 -96 -206t-262 -76q-210 0 -336 100zM395 -276q-2 2 -8 2q-78 21 -78 106q0 51 31 82t82 31q41 0 68.5 -21.5t35.5 -58.5q28 -97 -30 -184q-60 -90 -160 -130q-18 -9 -29 9l-31 49q-9 15 7 24q75 38 112 91z
" />
    <glyph glyph-name="uni021A" unicode="&#x21a;" horiz-adv-x="1101" 
d="M463 18l-2 1237h-418q-18 0 -18 21v125q0 20 20 20h1014q18 0 18 -20v-125q0 -21 -20 -21h-418v-1237q0 -18 -18 -18h-140q-18 0 -18 18zM524 -276q-2 2 -8 2q-78 21 -78 106q0 51 31 82t82 31q41 0 68.5 -21.5t35.5 -58.5q28 -97 -30 -184q-60 -90 -160 -130
q-18 -9 -29 9l-30 49q-9 15 6 24q75 38 112 91z" />
    <glyph glyph-name="uni021B" unicode="&#x21b;" horiz-adv-x="651" 
d="M356 774v-414q0 -120 22 -166.5t77 -48.5q43 0 92 43q20 9 28 -4l58 -104q10 -23 -4 -31q-88 -70 -193 -67q-121 0 -184.5 85t-61.5 246v463h-145q-20 0 -20 19v110q0 21 20 21h145l3 309q0 20 18 20h127q18 0 18 -20v-311h222q20 0 20 -19v-110q0 -21 -20 -21h-222z
M367 -276q-2 2 -9 2q-77 21 -77 106q0 51 30.5 82t81.5 31q41 0 69 -21.5t36 -58.5q27 -96 -31 -184q-60 -90 -160 -130q-17 -9 -28 9l-31 49q-9 15 6 24q77 39 113 91z" />
    <glyph glyph-name="uni0237" unicode="&#x237;" horiz-adv-x="475" 
d="M190 -137l-2 1079q0 21 23 21h127q22 0 22 -21l2 -1096q0 -164 -76.5 -259t-207.5 -95q-124 0 -225 72q-16 10 -7 28l62 111q10 17 29 4q64 -43 126 -43q124 0 127 199z" />
    <glyph glyph-name="circumflex" unicode="&#x2c6;" horiz-adv-x="778" 
d="M61 1090l230 286q10 13 28 13h138q17 0 30 -13l228 -284q16 -19 -8 -19h-146q-12 0 -22 10l-150 193l-149 -191q-9 -12 -27 -12h-143q-23 0 -9 17z" />
    <glyph glyph-name="caron" unicode="&#x2c7;" horiz-adv-x="808" 
d="M88 1389h141q14 0 25 -11l152 -192l147 190q13 13 29 15h139q25 0 10 -21l-227 -283q-11 -14 -31 -14h-139q-18 0 -27 12l-227 285q-16 19 8 19z" />
    <glyph glyph-name="uni02C9" unicode="&#x2c9;" horiz-adv-x="665" 
d="M94 1421h477q21 0 21 -20v-103q0 -20 -21 -20h-477q-20 0 -20 20v103q0 20 20 20z" />
    <glyph glyph-name="breve" unicode="&#x2d8;" horiz-adv-x="741" 
d="M557 1419h92q19 0 19 -18q-4 -133 -86 -214t-213 -83q-128 2 -208.5 83t-86.5 214q0 18 18 18h92q18 0 21 -18q6 -68 51.5 -114t112.5 -46q71 0 117 46t51 114q3 18 20 18z" />
    <glyph glyph-name="dotaccent" unicode="&#x2d9;" horiz-adv-x="376" 
d="M109 1266q-31 31 -31 79.5t31 77.5q31 31 79.5 31t77.5 -31q31 -29 31 -77.5t-31 -79.5q-29 -31 -77.5 -31t-79.5 31z" />
    <glyph glyph-name="ring" unicode="&#x2da;" horiz-adv-x="524" 
d="M74 1274q0 85 50.5 135.5t135.5 50.5q86 0 138.5 -50.5t52.5 -135.5q0 -86 -52.5 -137.5t-138.5 -51.5q-85 0 -135.5 51.5t-50.5 137.5zM197 1337q-23 -23 -23 -63.5t23 -65.5q25 -25 65.5 -25t63.5 25q25 25 25 65.5t-25 63.5q-23 25 -63.5 25t-65.5 -25z" />
    <glyph glyph-name="ogonek" unicode="&#x2db;" horiz-adv-x="458" 
d="M440 -365q-57 -75 -174 -75q-96 0 -153.5 52.5t-57.5 135.5q0 91 84 182l70 70l82 70l71 -70q-89 -86 -123 -132.5t-40 -98.5q-5 -33 13 -57t52 -25q49 -9 82 24q8 14 25 4l67 -53q16 -10 2 -27z" />
    <glyph glyph-name="tilde" unicode="&#x2dc;" horiz-adv-x="786" 
d="M166 1188q-10 -25 -27 -8l-57 47q-11 8 -8 20q31 87 83 138t109 51q38 0 69 -15.5t51 -37.5t38.5 -44t41 -37.5t48.5 -15.5q63 3 107 111q6 17 24 8l60 -51q10 -6 6 -17q-26 -87 -79 -138.5t-114 -51.5q-36 0 -67 15.5t-52 37.5t-40.5 44.5t-42 38t-46.5 15.5
q-64 -3 -104 -110z" />
    <glyph glyph-name="hungarumlaut" unicode="&#x2dd;" horiz-adv-x="778" 
d="M582 1489l112 -66q22 -9 6 -28l-208 -267q-14 -14 -27 -4l-66 41q-15 12 -6 27l160 287q9 20 29 10zM262 1489l117 -66q22 -9 6 -28l-211 -267q-8 -14 -24 -4l-64 39q-24 10 -8 29l158 289q11 17 26 8z" />
    <glyph glyph-name="uni0313" unicode="&#x313;" horiz-adv-x="446" 
d="M199 -276q-2 2 -9 2q-77 21 -77 106q0 51 30.5 82t81.5 31q41 0 69 -21.5t36 -58.5q27 -96 -31 -184q-60 -90 -160 -130q-17 -9 -28 9l-31 49q-9 15 6 24q77 39 113 91z" />
    <glyph glyph-name="uni0394" unicode="&#x394;" horiz-adv-x="1347" 
d="M729 1384l-541 -1364l-2 -2q-6 -18 -26 -18h-109q-29 0 -20 27l561 1372q9 20 29 20h106zM621 1419h106h-2q22 0 31 -20l559 -1368q9 -31 -21 -31h-92q-22 0 -28 20l-553 1364v35zM1210 0h-1063v135h1063v-135z" />
    <glyph glyph-name="uni03A9" unicode="&#x3a9;" horiz-adv-x="1632" 
d="M1288 178l273 2q20 0 20 -20v-137q0 -23 -20 -23h-539q-21 0 -18 20v158q163 64 262 211q100 144 100 322q0 249 -152 401q-151 154 -397 154q-248 0 -399 -154q-152 -152 -152 -401q0 -175 105 -322q109 -145 276 -209v-160q-3 -20 -20 -20h-539q-18 0 -18 20v140
q0 20 18 20h254q-122 99 -188 236t-66 295q0 327 201 528t528 201q325 0 526 -201q200 -200 203 -528q-3 -325 -258 -533z" />
    <glyph glyph-name="uni03BC" unicode="&#x3bc;" horiz-adv-x="1124" 
d="M279 -465h-117q-23 0 -23 25v1343q0 23 21 23h125q20 0 20 -23v-497q0 -267 232 -267q118 0 197 95t87 243v426q0 23 21 23h123q22 0 22 -21v-885q0 -20 -20 -20h-93q-19 0 -22 20l-25 144q-105 -187 -325 -187q-123 0 -199 58v-475q0 -25 -24 -25z" />
    <glyph glyph-name="pi" unicode="&#x3c0;" horiz-adv-x="1155" 
d="M53 784v123q0 21 21 21h1007q21 0 21 -21v-123q0 -20 -21 -20h-139v-744q0 -20 -20 -20h-123q-21 0 -21 20v744h-401v-744q0 -20 -21 -20h-120q-21 0 -21 20v744h-141q-21 0 -21 20z" />
    <glyph glyph-name="Wgrave" unicode="&#x1e80;" horiz-adv-x="1802" 
d="M424 16l-416 1385q-6 20 15 20h143q15 0 24 -18l316 -1108l299 1108q3 18 24 18h140q19 0 22 -18l303 -1116l320 1120q3 14 18 14h148q20 0 14 -20l-418 -1385q-6 -16 -24 -16h-119q-19 0 -25 16l-309 1180l-311 -1180q-3 -16 -23 -16h-119q-16 0 -22 16zM1006 1458
l-377 205q-16 9 -6 29l69 116q12 16 27 4l348 -253q15 -12 6 -27l-41 -68q-12 -15 -26 -6z" />
    <glyph glyph-name="wgrave" unicode="&#x1e81;" horiz-adv-x="1314" 
d="M317 0l9 47l245 860q7 17 25 17h82q38 0 29 -35l-244 -871q-6 -18 -23 -18h-123zM416 25l-10 -25h-109q-17 0 -23 16l-260 891q-3 7 0 12t11 5h149q15 0 25 -17zM922 0l-19 23l213 884q10 17 25 17h147q22 0 12 -19l-260 -887q-6 -18 -22 -18h-96zM981 63l14 -63h-121
q-18 0 -24 18l-232 844q-15 50 -20 62h47h72q19 0 26 -17zM741 1055l-323 223q-19 12 -4 27l86 108q12 9 26 0l291 -274q11 -8 2 -23l-51 -59q-11 -11 -27 -2z" />
    <glyph glyph-name="Wacute" unicode="&#x1e82;" horiz-adv-x="1802" 
d="M424 16l-416 1385q-6 20 15 20h143q15 0 24 -18l316 -1108l299 1108q3 18 24 18h140q19 0 22 -18l303 -1116l320 1120q3 14 18 14h148q20 0 14 -20l-418 -1385q-6 -16 -24 -16h-119q-19 0 -25 16l-309 1180l-311 -1180q-3 -16 -23 -16h-119q-16 0 -22 16zM1073 1806
l72 -116q10 -20 -8 -29l-375 -205q-20 -10 -29 8l-41 64q-9 16 6 28l346 254q19 16 29 -4z" />
    <glyph glyph-name="wacute" unicode="&#x1e83;" horiz-adv-x="1314" 
d="M1018 0h-144q-18 0 -24 16l-193 693l-194 -693q-6 -16 -25 -16h-141q-20 0 -23 16l-262 891q-3 17 13 17h149q20 0 23 -17l176 -696l198 696q7 17 25 17h123q17 0 24 -17l199 -704l174 704q7 17 23 17h149q18 0 15 -19l-263 -889q-6 -16 -22 -16zM799 1401l86 -105
q13 -13 -2 -28l-328 -226q-14 -14 -29 5l-47 57q-8 8 2 29l291 270q14 14 27 -2z" />
    <glyph glyph-name="Wdieresis" unicode="&#x1e84;" horiz-adv-x="1802" 
d="M424 16l-416 1385q-6 20 15 20h143q15 0 24 -18l316 -1108l299 1108q3 18 24 18h140q19 0 22 -18l303 -1116l320 1120q3 14 18 14h148q20 0 14 -20l-418 -1385q-6 -16 -24 -16h-119q-19 0 -25 16l-309 1180l-311 -1180q-3 -16 -23 -16h-119q-16 0 -22 16zM645 1540
q-32 32 -32 86t32 86q32 35 86 35t86 -35q32 -32 32 -86t-32 -86t-86 -32t-86 32zM983 1540q-32 32 -32 86t32 86q32 35 86 35t86 -35q32 -32 32 -86t-32 -86t-86 -32t-86 32z" />
    <glyph glyph-name="wdieresis" unicode="&#x1e85;" horiz-adv-x="1314" 
d="M1018 0h-144q-18 0 -24 16l-193 693l-194 -693q-6 -16 -25 -16h-141q-20 0 -23 16l-262 891q-3 17 13 17h149q20 0 23 -17l176 -696l198 696q7 17 25 17h123q17 0 24 -17l199 -704l174 704q7 17 23 17h149q18 0 15 -19l-263 -889q-6 -16 -22 -16zM401 1143q-32 32 -32 86
t32 86t86 32t86 -32t32 -86t-32 -86t-86 -32t-86 32zM823 1348q55 0 87 -32.5t32 -86.5t-32.5 -86.5t-86.5 -32.5q-51 0 -83.5 32.5t-32.5 86.5t31 86.5t85 32.5z" />
    <glyph glyph-name="LatinCapitalLetterSharpS" unicode="&#x1e9e;" horiz-adv-x="1277" 
d="M690 166q61 -43 139 -43q81 0 132 44.5t51 111.5q0 43 -19.5 83.5t-50.5 73.5t-68.5 65t-75.5 64.5t-69 65t-50.5 73t-19.5 82.5q-2 33 18.5 70.5t51 71t61.5 66t51.5 65t18.5 57.5q0 72 -69 114t-168 42q-139 0 -219 -103.5t-80 -283.5v-862q0 -23 -23 -23h-133
q-23 0 -23 23v923q0 228 129 363q132 135 344 135q167 0 295 -90q125 -88 125 -238q0 -52 -20.5 -96t-50.5 -74.5t-60 -57t-52 -54t-24 -54.5q0 -28 32 -60.5t95 -76.5q36 -25 63.5 -47t61.5 -57.5t56 -70.5t37.5 -84t15.5 -101q0 -149 -105 -244q-104 -94 -258 -94
q-103 0 -206 53q-20 10 -11 31l52 129q7 16 26 8z" />
    <glyph glyph-name="endash" unicode="&#x2013;" horiz-adv-x="1185" 
d="M178 678h830q22 0 22 -23v-114q0 -23 -22 -23h-830q-22 0 -22 23v114q0 23 22 23z" />
    <glyph glyph-name="emdash" unicode="&#x2014;" horiz-adv-x="1730" 
d="M178 676h1374q23 0 23 -21v-116q0 -23 -23 -23h-1374q-22 0 -22 23v116q0 21 22 21z" />
    <glyph glyph-name="quoteleft" unicode="&#x2018;" horiz-adv-x="423" 
d="M309 1454l45 -47q13 -16 -4 -29q-128 -104 -149 -241h4q50 -1 81 -35t31 -86q0 -57 -33 -91t-89 -34q-96 0 -117 88q-37 118 28 272q65 153 173 209q15 9 30 -6z" />
    <glyph glyph-name="quoteright" unicode="&#x2019;" horiz-adv-x="423" 
d="M113 903l-47 47q-15 19 2 29q132 108 153 242l-4 2q-54 1 -84.5 33.5t-30.5 86.5q0 57 34 91t91 34q45 0 77.5 -23.5t39.5 -64.5q34 -119 -31 -274q-65 -154 -172 -209q-13 -9 -28 6z" />
    <glyph glyph-name="quotesinglbase" unicode="&#x201a;" horiz-adv-x="464" 
d="M135 -342l-45 47q-13 16 4 29q132 102 150 241h-2q-54 4 -84.5 37t-30.5 84q2 57 35 91t90 34q93 0 117 -88q34 -118 -31 -272t-172 -209q-19 -9 -31 6z" />
    <glyph glyph-name="quotedblleft" unicode="&#x201c;" horiz-adv-x="743" 
d="M309 1454l45 -47q13 -16 -4 -29q-134 -110 -149 -241h4q50 -1 81 -35t31 -86q0 -57 -33 -91t-89 -34q-95 0 -119 86q-35 121 30 274t173 209q15 9 30 -6zM520 1137h2q51 -1 83 -35.5t32 -85.5q0 -57 -34 -91t-91 -34q-93 0 -117 86q-34 119 31 274q65 154 172 209
q16 9 31 -6l45 -47q13 -16 -4 -29q-132 -102 -150 -241z" />
    <glyph glyph-name="quotedblright" unicode="&#x201d;" horiz-adv-x="806" 
d="M467 903l-45 47q-13 16 4 29q128 104 149 242h-4q-51 5 -81.5 37t-30.5 83q0 57 33.5 91t89.5 34q44 0 74.5 -23.5t41.5 -64.5q37 -118 -28 -272q-64 -153 -172 -211q-18 -9 -31 8zM256 1221h-2q-54 4 -84.5 36.5t-30.5 83.5q0 56 34 90.5t91 34.5q93 0 117 -88
q34 -118 -31 -272q-64 -153 -172 -211q-18 -9 -31 8l-45 47q-13 16 4 29q132 102 150 242z" />
    <glyph glyph-name="quotedblbase" unicode="&#x201e;" horiz-adv-x="784" 
d="M455 -346l-45 49q-15 15 4 27q128 104 149 241h-4q-51 4 -82 38t-31 85q0 56 34 89.5t89 33.5q44 1 75 -22t42 -64q37 -118 -29 -274q-65 -154 -172 -209q-15 -9 -30 6zM244 -29h-2q-51 2 -83 35.5t-32 87.5q0 56 34 89.5t91 33.5q96 0 117 -86q34 -119 -31 -274
q-65 -154 -172 -209q-16 -9 -31 6l-45 49q-15 15 4 27q132 102 150 241z" />
    <glyph glyph-name="dagger" unicode="&#x2020;" horiz-adv-x="868" 
d="M788 891h-272v-1096q0 -20 -20 -20h-123q-21 0 -21 20v1096h-274q-19 0 -19 18v129q0 19 19 19h274v401q0 21 21 21h123q20 0 20 -21v-401h272q21 0 21 -19v-129q0 -18 -21 -18z" />
    <glyph glyph-name="daggerdbl" unicode="&#x2021;" horiz-adv-x="868" 
d="M352 254h-274q-21 0 -21 20v127q0 21 21 21h274v469h-274q-19 0 -19 18v129q0 19 19 19h274v401q0 21 21 21h123q20 0 20 -21v-401h275q18 0 18 -19v-129q0 -18 -18 -18h-275v-469h272q21 0 21 -21v-127q0 -20 -21 -20h-272v-459q0 -20 -20 -20h-123q-21 0 -21 20v459z
" />
    <glyph glyph-name="bullet" unicode="&#x2022;" horiz-adv-x="768" 
d="M102 662q0 125 77 201.5t204 76.5t205 -76.5t78 -201.5q0 -128 -78 -205.5t-205 -77.5t-204 77.5t-77 205.5z" />
    <glyph glyph-name="ellipsis" unicode="&#x2026;" horiz-adv-x="1617" 
d="M1257 14q-32 35 -32 90.5t32 90.5q35 35 90.5 35t90.5 -35t35 -90.5t-35 -90.5t-90.5 -35t-90.5 35zM270 229q54 0 88.5 -35t34.5 -90t-34.5 -89.5t-88.5 -34.5q-77 -7 -109.5 58.5t0 131.5t109.5 59zM811 -20q-77 -7 -109.5 58.5t0 131.5t109.5 59q54 0 88.5 -35
t34.5 -90t-34.5 -89.5t-88.5 -34.5z" />
    <glyph glyph-name="perthousand" unicode="&#x2030;" horiz-adv-x="2306" 
d="M156 887q-88 88 -88 237q0 150 88 238q90 90 237 90q148 0 238 -90t90 -238q0 -147 -90 -237q-88 -88 -238 -88q-149 0 -237 88zM231 1124q0 -72 45 -116.5t117 -44.5q74 0 119 44t45 117q0 74 -45.5 119t-118.5 45q-72 0 -117 -45.5t-45 -118.5zM987 307
q0 -73 45.5 -118.5t118.5 -45.5t117.5 45t44.5 119q0 72 -44.5 117t-117.5 45t-118.5 -45t-45.5 -117zM913 70q-90 90 -90 237q0 146 90 236t238 90t238 -90t90 -236q0 -147 -90 -237t-238 -90t-238 90zM1673 70q-90 90 -90 237q0 146 90 236t238 90q147 0 237 -90t90 -236
q0 -147 -90 -237t-237 -90q-148 0 -238 90zM1749 307q0 -73 45 -118.5t117 -45.5q73 0 118.5 45.5t45.5 118.5q0 72 -45.5 117t-118.5 45q-72 0 -117 -45t-45 -117zM322 25l813 1439q6 15 24 15h131q28 0 15 -23l-813 -1442q-8 -14 -27 -14h-129q-30 0 -14 25z" />
    <glyph glyph-name="guilsinglleft" unicode="&#x2039;" horiz-adv-x="698" 
d="M471 903l78 -80q13 -16 0 -32l-232 -246l232 -246q15 -18 -2 -31l-76 -80q-15 -15 -33 0l-280 308q-15 15 -15 36v27q0 22 15 37l280 307q18 15 33 0z" />
    <glyph glyph-name="guilsinglright" unicode="&#x203a;" horiz-adv-x="698" 
d="M154 823l75 80q17 17 33 -2l281 -305q14 -14 14 -37v-27q0 -24 -14 -38l-281 -304q-15 -20 -33 -2l-75 78q-16 16 -2 33l231 246l-231 246q-15 15 2 32z" />
    <glyph glyph-name="fraction" unicode="&#x2044;" horiz-adv-x="993" 
d="M6 25l813 1439q9 15 25 15h131q28 0 12 -25l-811 -1440q-8 -14 -26 -14h-130q-30 0 -14 25z" />
    <glyph glyph-name="franc" unicode="&#x20a3;" horiz-adv-x="1024" 
d="M348 330v-310q0 -20 -20 -20h-135q-21 0 -21 20v310h-113q-20 0 -20 20v90q0 21 20 21h113v940q0 20 21 20h755q21 0 21 -20v-125q0 -21 -21 -21h-600v-448h502q20 0 20 -21v-122q0 -21 -20 -21h-502v-182h279q20 0 20 -21v-90q0 -20 -20 -20h-279z" />
    <glyph glyph-name="lira" unicode="&#x20a4;" horiz-adv-x="1069" 
d="M397 160h490q22 0 22 -21v-116q0 -23 -22 -23h-703q-10 0 -15.5 8.5t-0.5 16.5q94 212 121 333h-156q-22 0 -22 23v86q0 22 22 22h176q3 75 -10 138h-162q-20 0 -20 22v86q0 23 20 23h115q-68 157 -68 286q0 173 109 285q108 111 280 111q226 0 373 -176q16 -16 0 -31
l-90 -96q-15 -15 -29 2q-109 133 -256 133q-96 0 -155.5 -64.5t-59.5 -163.5q0 -66 25 -149l27 -72l26 -65h260q23 0 23 -23v-86q0 -22 -23 -22h-223q9 -61 6 -138h213q21 0 21 -22v-86q0 -23 -21 -23h-231q-25 -100 -62 -198z" />
    <glyph glyph-name="peseta" unicode="&#x20a7;" horiz-adv-x="2179" 
d="M578 592h-271v-572q0 -20 -22 -20h-135q-23 0 -23 20l2 1379q0 22 21 22h428q214 -1 335 -111t121 -302q0 -195 -120.5 -305.5t-335.5 -110.5zM573 1255h-266v-497h266q137 -2 211 62.5t74 185.5t-74 186t-211 63zM1124 1255h123q21 0 21 -20v-309h221q20 0 20 -21v-110
q0 -19 -20 -19h-221v-416q0 -120 21.5 -166.5t76.5 -48.5q46 0 94 48q20 12 27 -5l57 -108q10 -20 -4 -31q-85 -67 -192 -67q-121 0 -184.5 85t-61.5 246v463h-146q-20 0 -20 19v110q0 21 20 21h146l2 309q0 20 20 20zM1419 82q-18 12 -6 31l55 98q9 15 27 6
q118 -75 252 -78q90 -1 144.5 29.5t52.5 81.5q0 52 -47 80.5t-175 62.5q-157 42 -227.5 106.5t-71.5 172.5q-1 124 96 201t253 75q178 -3 284 -90q15 -12 6 -31l-51 -100q-9 -17 -26 -6q-98 64 -209 67q-82 2 -134.5 -27.5t-52.5 -76.5q0 -53 43 -81.5t164 -61.5
q165 -44 238 -105.5t77 -171.5q2 -129 -96 -206t-262 -76q-109 0 -198 30t-136 70z" />
    <glyph glyph-name="Euro" unicode="&#x20ac;" horiz-adv-x="1273" 
d="M1018 373l110 -70q18 -12 9 -31q-63 -140 -169 -215t-239 -75q-172 0 -296 122.5t-171 337.5h-162q-22 0 -22 21v90q0 22 22 22h140q-7 75 -7 136v4h-133q-22 0 -22 22v88q0 23 22 23h140q27 271 159 430q131 162 330 162q142 0 253 -86.5t173 -245.5q6 -21 -10 -31
l-113 -69q-22 -16 -31 10q-89 250 -274 250q-120 0 -202 -113t-105 -307h248q22 0 22 -23v-88q0 -22 -22 -22h-256v-4q0 -71 6 -136h250q22 0 22 -22v-90q0 -21 -22 -21h-224q35 -137 110 -213.5t173 -76.5q170 0 258 210q13 23 33 11z" />
    <glyph glyph-name="uni2113" unicode="&#x2113;" horiz-adv-x="919" 
d="M506 1440q126 0 190 -113q66 -117 66 -258q0 -317 -383 -504q18 -477 194 -477q73 0 138 115q6 16 26 10l105 -43q16 -6 10 -25q-43 -94 -116 -150t-163 -56q-306 0 -346 559q-43 -19 -110 -41q-21 -6 -27 10l-45 104q-6 21 10 27q1 1 17 6.5t60.5 21t88.5 31.5
q-3 297 12 414q49 369 273 369zM510 1284q-133 -12 -133 -551q224 119 227 322q9 79 -12 155q-21 77 -82 74z" />
    <glyph glyph-name="trademark" unicode="&#x2122;" horiz-adv-x="1400" 
d="M692 1417h72q22 0 31 -18l180 -348l184 350q6 16 29 16h84q20 0 20 -20v-586q0 -20 -20 -20h-82q-21 0 -21 20v375l-147 -283q-9 -18 -29 -18h-30q-22 0 -31 18l-148 281v-373q0 -20 -20 -20h-82q-20 0 -20 20v575q0 31 30 31zM586 1401v-68q0 -20 -21 -20h-159v-498
q0 -20 -21 -20h-82q-20 0 -20 20v498h-158q-21 0 -21 18v68q0 22 21 22h440q21 0 21 -20z" />
    <glyph glyph-name="Omega" unicode="&#x2126;" horiz-adv-x="1652" 
d="M98 180h254q-122 98 -189 237t-67 294q0 327 201 528q204 201 530 201t527 -201q200 -200 200 -528q0 -321 -256 -533l273 2q18 0 18 -20v-137q0 -23 -18 -23h-539q-20 0 -20 20v158q165 64 264 211q100 144 100 322q0 250 -151 401q-151 154 -398 154t-401 -154
q-152 -152 -152 -401q0 -175 105 -322q109 -145 276 -209v-160q0 -20 -18 -20h-539q-20 0 -20 20v140q0 20 20 20z" />
    <glyph glyph-name="estimated" unicode="&#x212e;" horiz-adv-x="1824" 
d="M911 70q423 0 602 270q9 12 23 12h94q24 0 15 -20q-101 -180 -297 -283q-192 -98 -437 -98q-356 0 -589 205q-234 206 -234 555t234 555q235 204 589 204q358 0 590 -204q236 -205 236 -555v-25q3 -31 -29 -31h-1309v-417q186 -168 512 -168zM399 1184v-414h1024v414
q-186 168 -512 168t-512 -168z" />
    <glyph glyph-name="partialdiff" unicode="&#x2202;" horiz-adv-x="1103" 
d="M555 1438q432 0 432 -607q0 -244 -53 -444q-44 -183 -155.5 -292t-297.5 -113q-178 0 -286 120q-107 119 -107 304q0 178 115 305q116 125 297 125q242 0 325 -207q9 99 9 202q0 150 -25 246q-54 209 -256 209q-112 0 -209 -69q-20 -10 -29 6l-59 94q-10 17 4 31
q122 90 295 90zM760 336q11 156 -53.5 252t-206.5 96q-116 0 -188 -79t-72 -199q0 -121 64 -196t177 -75q190 0 279 201z" />
    <glyph glyph-name="increment" unicode="&#x2206;" horiz-adv-x="1347" 
d="M772 1401l545 -1372q10 -29 -21 -29h-1249q-27 0 -18 27l544 1374q9 18 31 18h139q23 0 29 -18zM276 166h811l-411 1034z" />
    <glyph glyph-name="product" unicode="&#x220f;" horiz-adv-x="1271" 
d="M952 -250v1421h-637v-1421q0 -22 -20 -22h-131q-21 0 -21 22v1573q0 20 21 20h940q20 0 20 -20v-1573q0 -22 -20 -22h-131q-21 0 -21 22z" />
    <glyph glyph-name="summation" unicode="&#x2211;" horiz-adv-x="1236" 
d="M123 -244l547 779l-549 780q-10 12 -5.5 20t21.5 8h983q21 0 21 -20v-131q0 -21 -21 -21h-669l448 -620q13 -17 0 -33l-448 -618h669q21 0 21 -21v-133q0 -20 -23 -20h-981q-35 0 -14 30z" />
    <glyph glyph-name="minus" unicode="&#x2212;" horiz-adv-x="1185" 
d="M170 672h848q20 0 20 -21v-106q0 -21 -20 -21h-848q-23 0 -23 21v106q0 21 23 21z" />
    <glyph glyph-name="uni2215" unicode="&#x2215;" horiz-adv-x="993" 
d="M6 25l813 1439q9 15 25 15h131q28 0 12 -25l-811 -1440q-8 -14 -26 -14h-130q-30 0 -14 25z" />
    <glyph glyph-name="uni2219" unicode="&#x2219;" horiz-adv-x="538" 
d="M139 516q0 60 35.5 96.5t95.5 36.5q57 0 93 -36.5t36 -96.5q0 -57 -36 -93t-93 -36q-60 0 -95.5 35.5t-35.5 93.5z" />
    <glyph glyph-name="radical" unicode="&#x221a;" horiz-adv-x="1124" 
d="M469 20l-219 730h-174q-23 0 -23 22v111q0 24 23 24h276q18 0 27 -18l199 -660l376 1229q6 21 29 21h119q19 0 16 -21l-442 -1438q-6 -20 -27 -20h-151q-23 0 -29 20z" />
    <glyph glyph-name="infinity" unicode="&#x221e;" horiz-adv-x="1884" 
d="M942 584q89 112 205.5 177.5t232.5 65.5q173 0 281 -108t108 -281q0 -174 -108 -282q-107 -107 -281 -107q-119 0 -234 66.5t-204 175.5q-89 -109 -204 -175.5t-234 -66.5q-176 0 -283 107q-106 106 -106 282q0 175 106 281q108 108 283 108q116 0 233.5 -66t204.5 -177z
M504 668q-103 0 -166.5 -63.5t-63.5 -166.5t63.5 -166t166.5 -63q93 0 194 61q102 64 154 166q-61 104 -162 168t-186 64zM1032 436q52 -102 154 -166q101 -61 194 -61q104 0 167 63t63 166t-63.5 166.5t-166.5 63.5q-85 0 -186 -64t-162 -168z" />
    <glyph glyph-name="integral" unicode="&#x222b;" horiz-adv-x="815" 
d="M821 1389l-61 -97q-10 -16 -27 -6q-83 53 -123 53q-66 0 -92 -44t-26 -150v-623l4 -672q3 -334 -283 -337q-118 0 -211 75q-14 8 -4 31l61 96q10 16 27 6q70 -49 121 -49q66 0 92.5 44t28.5 151l-2 622l-2 676q-3 331 274 334q116 0 219 -80q16 -13 4 -30z" />
    <glyph glyph-name="approxequal" unicode="&#x2248;" horiz-adv-x="1220" 
d="M911 903q10 29 29 6l74 -73q12 -15 6 -31q-38 -107 -110 -174.5t-158 -67.5q-65 0 -125 27.5t-95 66.5q-85 97 -159 97q-93 -3 -154 -156q-10 -29 -33 -6l-67 72q-15 18 -8 34q37 101 109.5 163.5t156.5 62.5q68 0 126.5 -28.5t92.5 -68.5q84 -92 162 -92q89 3 153 168z
M909 459q10 25 29 6l74 -78q13 -13 6 -29q-38 -107 -110 -174t-158 -67q-65 0 -125 27.5t-95 66.5q-84 96 -159 96q-93 -3 -154 -155q-10 -30 -33 -7l-67 72q-15 18 -8 35q37 103 109.5 164t158.5 61q68 0 125.5 -28t91.5 -68q87 -95 162 -92q89 3 153 170z" />
    <glyph glyph-name="notequal" unicode="&#x2260;" horiz-adv-x="1073" 
d="M684 860h219q23 0 23 -22v-113q0 -20 -23 -23h-289l-71 -165h360q23 0 23 -23v-113q0 -22 -23 -22h-428l-74 -172q-8 -14 -24 -14h-119q-25 0 -16 24l71 162h-143q-23 0 -23 22v113q0 23 23 23h211l72 165h-283q-23 0 -23 23v113q0 22 23 22h350l78 178q7 17 23 17h120
q11 0 16 -7.5t-1 -17.5z" />
    <glyph glyph-name="lessequal" unicode="&#x2264;" horiz-adv-x="1107" 
d="M1001 254l-905 377q-18 9 -18 31v159q0 22 18 31l905 373q25 9 25 -17v-141q0 -19 -16 -25l-748 -303l748 -303q16 -6 16 -26v-140q0 -25 -25 -16zM1010 -2h-912q-20 0 -20 20v111q0 21 20 21h912q20 0 20 -21v-111q0 -20 -20 -20z" />
    <glyph glyph-name="greaterequal" unicode="&#x2265;" horiz-adv-x="1107" 
d="M1012 631l-903 -377q-12 -5 -19 -0.5t-6 16.5v140q0 20 14 26l748 303l-748 303q-14 6 -14 25v141q-2 11 5.5 16t19.5 1l903 -373q18 -6 18 -31v-159q0 -25 -18 -31zM1010 -2h-912q-20 0 -20 20v111q0 21 20 21h912q20 0 20 -21v-111q0 -20 -20 -20z" />
    <glyph glyph-name="uni24C5" unicode="&#x24c5;" horiz-adv-x="1691" 
d="M115 709q0 332 198 530q201 201 529 201q329 0 530 -201t201 -530t-203 -529q-200 -200 -528 -200q-329 0 -529 200q-198 198 -198 529zM1444 709q0 271 -166 434q-163 166 -434 166q-270 0 -436 -166q-164 -164 -164 -434q0 -269 166 -435q166 -163 434 -163
q271 0 434 163q166 166 166 435zM618 350v729q0 23 23 23h123h147q117 0 182.5 -59.5t65.5 -165.5q0 -105 -66 -166.5t-182 -61.5h-147v-301q0 -22 -25 -22h-98q-23 0 -23 24zM907 967h-143v-187h143q111 0 111 92q0 95 -111 95z" />
    <glyph glyph-name="lozenge" unicode="&#x25ca;" horiz-adv-x="1075" 
d="M389 -66l-299 713q-6 21 0 39l299 715q9 18 31 18h49h119h47q25 0 31 -18l299 -715q11 -18 2 -39l-301 -713q-6 -20 -29 -20h-49h-119h-49q-22 0 -31 20zM528 1286l-260 -618l260 -619l260 619z" />
    <glyph glyph-name="ijacute" unicode="&#xe132;" horiz-adv-x="917" 
d="M627 926l125 -2q20 0 20 -19l2 -1052q0 -158 -73 -249t-201 -91q-121 0 -215 67q-16 9 -6 29l57 104q12 18 33 6q62 -41 118 -41q118 0 121 191l-2 1036q0 21 21 21zM166 926h125q18 0 18 -21l2 -885q0 -20 -20 -20h-127q-19 0 -19 20v885q0 21 21 21zM76 1147l289 272
q12 12 26 -2l86 -106q13 -13 -2 -27l-328 -225q-14 -12 -28 2l-47 57q-10 17 4 29zM868 1413l86 -106q14 -14 -2 -27l-327 -227q-14 -8 -29 4l-45 57q-13 17 2 29l289 270q14 14 26 0z" />
    <glyph glyph-name="IJacute" unicode="&#xe133;" horiz-adv-x="1282" 
d="M344 1401v-1383q0 -18 -18 -18h-140q-18 0 -18 18v1383q0 20 18 20h140q18 0 18 -20zM952 358v1043q0 20 19 20h137q20 0 20 -20l2 -1065q1 -170 -83 -262t-240 -94q-170 3 -293 114q-16 13 -4 31l65 111q10 23 33 6q121 -86 195 -86q81 0 114 45.5t35 156.5zM1208 1780
l70 -117q13 -20 -8 -29l-375 -202q-20 -10 -29 6l-39 65q-9 16 4 29l349 254q16 9 28 -6zM444 1780l70 -117q12 -21 -8 -27l-375 -204q-20 -10 -29 6l-39 65q-9 16 7 29l346 254q19 9 28 -6z" />
    <glyph glyph-name="_1" horiz-adv-x="0" 
 />
    <glyph glyph-name="CR" horiz-adv-x="681" 
 />
    <glyph glyph-name="grave.case" horiz-adv-x="614" 
d="M55 1667l72 119q12 19 27 4l348 -254q16 -13 6 -29l-41 -65q-10 -16 -27 -6l-377 204q-19 9 -8 27z" />
    <glyph glyph-name="dieresis.case" horiz-adv-x="694" 
d="M297 1608q0 -51 -34 -85t-85 -34q-39 -4 -69 17.5t-42 54.5t-6 70.5t31 62.5q25 27 62.5 33t70.5 -6.5t54.5 -43t17.5 -69.5zM633 1608q0 -51 -34 -85t-85 -34q-39 -4 -69 17.5t-42 54.5t-6 70.5t31 62.5q25 27 62.5 33t70.5 -6.5t54.5 -43t17.5 -69.5z" />
    <glyph glyph-name="macron.case" horiz-adv-x="628" 
d="M74 1659h479q20 0 20 -19v-108q0 -19 -20 -19h-479q-19 0 -19 19v108q0 19 19 19z" />
    <glyph glyph-name="acute.case" horiz-adv-x="614" 
d="M434 1786l72 -117q13 -20 -8 -29l-375 -204q-20 -10 -29 8l-39 63q-10 20 4 29l349 254q16 13 26 -4z" />
    <glyph glyph-name="circumflex.case" horiz-adv-x="774" 
d="M537 1511l-150 123l-149 -123q-17 -10 -29 -10h-166q-32 0 -8 21l258 213q17 10 29 10h131q11 0 28 -10l256 -211q14 -10 11.5 -16.5t-19.5 -6.5h-166q-9 0 -26 10z" />
    <glyph glyph-name="caron.case" horiz-adv-x="774" 
d="M238 1735l149 -125l150 125q10 10 28 10h162q34 0 8 -23l-254 -211q-17 -10 -28 -10h-131q-19 0 -29 10l-256 211q-26 23 8 23h164q12 0 29 -10z" />
    <glyph glyph-name="breve.case" horiz-adv-x="702" 
d="M539 1745h92q19 0 16 -19q-4 -115 -85 -181t-212 -66q-130 0 -209.5 66t-85.5 181q0 19 19 19h92q17 0 20 -19q6 -50 51.5 -82t112.5 -32q69 0 115.5 31.5t52.5 82.5q3 19 21 19z" />
    <glyph glyph-name="dotaccent.case" horiz-adv-x="473" 
d="M156 1552q-31 31 -31 80t31 78q31 31 79.5 31t77.5 -31q31 -29 31 -78t-31 -80q-29 -31 -77.5 -31t-79.5 31z" />
    <glyph glyph-name="ring.case" horiz-adv-x="485" 
d="M55 1651q0 85 51 136.5t136 51.5q86 0 138 -51.5t52 -136.5q0 -86 -52 -137.5t-138 -51.5q-85 0 -136 51.5t-51 137.5zM242 1559q58 -6 82 43t0 98t-82 43q-56 6 -79.5 -43t0 -98t79.5 -43z" />
    <glyph glyph-name="tilde.case" horiz-adv-x="745" 
d="M145 1511q-9 -22 -26 -8l-53 45q-14 9 -11 29q31 86 82.5 135t108.5 49q38 0 69 -16t51.5 -38.5t39 -44.5t41 -37t47.5 -13q64 0 104 106q10 24 29 11l55 -46q11 -8 8 -26q-29 -85 -80.5 -134.5t-109.5 -49.5q-32 -2 -63.5 14t-55 39t-45 46t-43.5 38t-41 12
q-66 0 -107 -111z" />
    <glyph glyph-name="hungarumlaut.case" horiz-adv-x="710" 
d="M545 1786l112 -80q15 -16 2 -29l-194 -211q-15 -15 -31 -2l-63 45q-16 13 -6 29l151 242q13 16 29 6zM227 1786l115 -80q16 -16 4 -27l-199 -213q-14 -14 -28 -2l-66 45q-14 12 -4 29l152 242q10 16 26 6z" />
    <glyph glyph-name="zero.onum" horiz-adv-x="1187" 
d="M594 946q225 0 364 -133q140 -134 140 -350t-140 -350q-137 -131 -364 -131q-228 0 -365 131q-139 133 -139 350t139 350t365 133zM356 688q-90 -87 -90 -225t90 -225q92 -86 238 -86t235 86q93 87 93 225t-93 225q-89 86 -235 86t-238 -86z" />
    <glyph glyph-name="one.onum" horiz-adv-x="886" 
d="M94 743l281 183h157q21 0 21 -21v-753h268q21 0 21 -21v-111q0 -20 -21 -20h-723q-20 0 -20 20v111q0 21 20 21h277v612l-266 -172q-27 -15 -27 14v115q0 16 12 22z" />
    <glyph glyph-name="two.onum" horiz-adv-x="985" 
d="M872 0h-782q-18 0 -21 9.5t11 21.5l516 422q117 85 111 180q-5 64 -58.5 101.5t-148.5 37.5q-150 0 -258 -135q-13 -16 -27 -2l-90 100q-13 17 0 33q144 178 379 178q166 0 267.5 -84t109.5 -215q9 -161 -148 -291q-1 -1 -256 -204h395q23 0 23 -23v-106q0 -23 -23 -23z
" />
    <glyph glyph-name="three.onum" horiz-adv-x="1017" 
d="M457 348q-21 0 -21 21v135l217 248h-489q-21 0 -21 20v133q0 21 21 21h692q21 0 21 -21v-155l-244 -275q141 -43 219 -143.5t78 -241.5q0 -180 -117 -291q-116 -110 -305 -110q-183 0 -297 108q-112 106 -121 285q-3 22 21 22h137q20 0 20 -22q8 -99 73 -159t167 -60
q110 0 176 62t66 165q0 114 -77.5 184t-215.5 74z" />
    <glyph glyph-name="four.onum" horiz-adv-x="1171" 
d="M727 926h172q21 -3 21 -21v-751h157q21 0 21 -21v-110q0 -21 -21 -21h-157v-272q0 -21 -21 -21h-137q-21 0 -21 21v272h-680q-33 0 -12 27l645 880q14 17 33 17zM741 154v563l-413 -563h413z" />
    <glyph glyph-name="five.onum" horiz-adv-x="1030" 
d="M516 532q190 0 307 -120q119 -119 119 -306q0 -190 -119 -303q-117 -114 -311 -114q-183 0 -299 110q-114 108 -123 287q-3 23 21 23h137q20 0 20 -23q6 -100 73 -161.5t171 -61.5q112 0 181 68t69 178q0 116 -67.5 184.5t-178.5 68.5q-100 0 -211 -57h-139q-21 0 -21 23
l33 577q3 21 25 21h616q23 0 23 -21v-123q0 -22 -23 -22h-487l-17 -273q86 45 201 45z" />
    <glyph glyph-name="six.onum" horiz-adv-x="1034" 
d="M528 1237h136q29 0 14 -27l-232 -403q31 8 86 8q186 -3 299 -119q115 -118 115 -295q0 -182 -119 -301q-115 -118 -307 -118q-193 0 -313 114q-117 114 -117 305q0 129 64 236l342 582q9 18 32 18zM768 403q0 109 -69 178.5t-181 69.5q-111 0 -181.5 -69t-70.5 -179
t69.5 -177.5t182.5 -67.5q108 0 179 70t71 175z" />
    <glyph glyph-name="seven.onum" horiz-adv-x="929" 
d="M653 760h-592q-20 0 -20 20v123q0 21 20 21h809q31 0 21 -29l-445 -1165q-9 -21 -30 -21h-144q-10 0 -14.5 7.5t0.5 15.5z" />
    <glyph glyph-name="eight.onum" horiz-adv-x="1054" 
d="M90 360q0 102 50 183.5t141 128.5q-107 79 -107 233q0 153 98 244q98 94 254 94q158 0 256 -94q99 -91 99 -244q0 -150 -109 -233q193 -99 193 -312q0 -167 -121 -276q-119 -104 -318 -104q-198 0 -317 104q-119 107 -119 276zM268 369q0 -97 71.5 -155t188.5 -58
q116 0 186 58t70 155q0 103 -70.5 166t-185.5 63q-113 0 -186.5 -64.5t-73.5 -164.5zM344 903q0 -76 50 -123t134 -47q80 0 131.5 47.5t51.5 122.5q0 78 -50.5 124t-132.5 46q-85 0 -134.5 -46t-49.5 -124z" />
    <glyph glyph-name="nine.onum" horiz-adv-x="1034" 
d="M508 -307h-135q-29 0 -17 26l234 404q-52 -10 -86 -10q-185 3 -299 120q-115 118 -115 295q0 180 119 299q121 121 307 121q192 0 309 -117q119 -113 119 -303q0 -135 -63 -235l-340 -582q-9 -18 -33 -18zM266 526q0 -107 70.5 -178.5t179.5 -71.5q112 0 182 69.5
t70 180.5q0 110 -69.5 178t-182.5 68q-108 0 -179 -70.5t-71 -175.5z" />
    <glyph glyph-name="zero.numr" horiz-adv-x="780" 
d="M717 971q0 -211 -90 -342q-89 -129 -236 -129q-148 0 -237 129q-91 136 -91 342q0 207 91 340q88 129 237 129q147 0 236 -129q90 -131 90 -340zM207 971q0 -149 50 -238.5t134 -89.5q82 0 132 90t50 238q0 146 -50 235.5t-132 89.5t-133 -89.5t-51 -235.5z" />
    <glyph glyph-name="one.numr" horiz-adv-x="442" 
d="M166 541v737h-107q-22 0 -22 20v101q0 22 20 22h238q22 0 22 -20v-860q0 -23 -22 -23h-107q-22 0 -22 23z" />
    <glyph glyph-name="two.numr" horiz-adv-x="712" 
d="M604 520h-520q-19 0 -23.5 10t5.5 27l354 471l10 16q21 26 38 65t17 75q0 50 -32.5 82t-83.5 32q-95 0 -158 -75q-9 -16 -25 0l-65 80q-14 12 0 26q94 113 246 113q122 0 194 -68t72 -194q0 -52 -18.5 -104.5t-37 -84.5t-18.5 -33l-231 -299h276q21 0 21 -20v-96
q0 -23 -21 -23z" />
    <glyph glyph-name="three.numr" horiz-adv-x="706" 
d="M268 956v74q0 21 21 21h57q50 2 81.5 39t31.5 98q0 51 -30.5 82t-80.5 33q-82 0 -147 -74q-12 -15 -25 -2l-65 76q-9 12 0 26q94 111 245 111q112 0 182 -67.5t70 -176.5q0 -121 -84 -199q113 -70 113 -221q0 -122 -81.5 -199t-211.5 -77q-125 0 -204 69.5t-85 184.5
q-3 20 19 20h108q16 0 19 -16q1 -51 41 -83t102 -32q63 0 103 39t40 102q0 66 -34 108.5t-91 43.5h-73q-21 0 -21 20z" />
    <glyph glyph-name="four.numr" horiz-adv-x="788" 
d="M223 829h244v414zM739 809v-82q0 -20 -20 -20h-101v-166q3 -23 -20 -23h-111q-20 0 -20 23v166h-416q-41 0 -20 34l385 660q9 18 30 18h152q20 0 20 -20v-570h101q20 0 20 -20z" />
    <glyph glyph-name="five.numr" horiz-adv-x="745" 
d="M213 756q8 -50 51.5 -81.5t106.5 -31.5q72 0 115.5 44t43.5 116t-46.5 113.5t-121.5 41.5q-77 0 -131 -32h-129q-12 0 -12 12l33 469q0 14 14 14h447q12 0 12 -14v-115q0 -12 -12 -12h-328l-16 -221q60 31 125 31q137 0 221.5 -79.5t85.5 -209.5q1 -135 -82.5 -218
t-220.5 -83q-131 0 -214 71.5t-87 188.5q0 14 12 14h117q13 0 16 -18z" />
    <glyph glyph-name="six.numr" horiz-adv-x="739" 
d="M348 1421l127 -2q18 0 12 -16l-153 -324q46 4 47 4q130 -5 207.5 -83.5t77.5 -206.5q0 -133 -80.5 -213t-214.5 -80q-133 0 -215 81t-82 212q0 87 37 151l219 465q3 12 18 12zM371 641q67 0 109 42t42 108q0 67 -42 109t-109 42q-69 0 -111.5 -41.5t-42.5 -109.5
q0 -67 42.5 -108.5t111.5 -41.5z" />
    <glyph glyph-name="seven.numr" horiz-adv-x="638" 
d="M420 1278h-381q-12 0 -12 14v115q0 14 12 14h561q23 0 14 -22l-327 -869q-7 -10 -15 -10h-129q-13 0 -10 15z" />
    <glyph glyph-name="eight.numr" horiz-adv-x="774" 
d="M518 1171q0 60 -35.5 94.5t-95.5 34.5q-59 0 -95 -36t-36 -93t35.5 -92t95.5 -35t95.5 35t35.5 92zM219 784q0 -63 47.5 -102t122.5 -39t120.5 39t45.5 102q0 66 -46 107t-120 41q-73 0 -121.5 -43t-48.5 -105zM76 780q0 142 123 213q-86 65 -86 185q0 118 75.5 190
t198.5 72q124 0 199.5 -71.5t75.5 -190.5t-87 -185q123 -73 123 -213q0 -127 -85.5 -203.5t-225.5 -76.5t-225.5 76.5t-85.5 203.5z" />
    <glyph glyph-name="nine.numr" horiz-adv-x="739" 
d="M358 856q-129 5 -206.5 83.5t-77.5 207.5q0 133 81 214t214 81q134 0 215.5 -81t81.5 -214q0 -71 -37 -152l-219 -463q-6 -12 -19 -12h-127q-18 0 -12 19l154 321q-46 -4 -48 -4zM369 999q69 0 111 42t42 108q0 68 -42 109.5t-111 41.5q-68 0 -110 -42t-42 -109
t42 -108.5t110 -41.5z" />
    <glyph glyph-name="zero.dnom" horiz-adv-x="780" 
d="M63 451q0 207 91 340q88 129 237 129q147 0 236 -129q90 -131 90 -340q0 -211 -90 -342q-89 -129 -236 -129q-148 0 -237 129q-91 133 -91 342zM207 451q0 -149 50 -238.5t134 -89.5q82 0 132 90t50 238q0 146 -50 235.5t-132 89.5t-133 -89.5t-51 -235.5z" />
    <glyph glyph-name="one.dnom" horiz-adv-x="442" 
d="M57 901l238 2q19 0 22 -22v-858q0 -23 -22 -23h-109q-23 0 -20 23l-2 737h-105q-22 -3 -22 20v101q0 20 20 20z" />
    <glyph glyph-name="two.dnom" horiz-adv-x="712" 
d="M203 0h-119q-39 0 -18 37l354 471l10 16q21 26 38 65t17 75q0 50 -32.5 82t-83.5 32q-94 0 -158 -76q-9 -16 -25 0l-65 80q-15 12 0 27q94 113 246 113q121 0 193.5 -68.5t72.5 -194.5q0 -52 -18.5 -104.5t-37 -84t-18.5 -32.5l-229 -299h274q21 0 21 -20v-96
q0 -23 -21 -23h-379h-22z" />
    <glyph glyph-name="three.dnom" horiz-adv-x="706" 
d="M266 436v74q0 20 21 20h59q50 2 80.5 39.5t30.5 98.5q0 50 -30.5 81t-78.5 33q-85 0 -149 -73q-15 -12 -25 -2l-65 77q-9 12 0 25q95 111 245 111q112 0 182 -67.5t70 -176.5q0 -127 -84 -199q113 -70 113 -221q0 -122 -81 -199t-210 -77q-125 0 -204.5 69t-86.5 184
q0 21 21 21h106q16 0 19 -16q4 -54 42.5 -84.5t100.5 -30.5q66 0 104.5 38.5t38.5 102.5q0 66 -34 108.5t-91 43.5h-73q-21 0 -21 20z" />
    <glyph glyph-name="four.dnom" horiz-adv-x="788" 
d="M223 311h244v414zM739 291v-82q0 -21 -20 -21h-101v-165q3 -23 -20 -23h-111q-20 0 -20 23v165h-416q-41 0 -20 35l385 660q9 18 30 18h152q20 0 20 -20v-570h101q20 0 20 -20z" />
    <glyph glyph-name="five.dnom" horiz-adv-x="745" 
d="M209 236q8 -50 51.5 -81.5t106.5 -31.5q72 0 115.5 44t43.5 116t-46.5 113.5t-121.5 41.5q-77 0 -131 -32h-129q-12 0 -12 12l33 469q0 14 14 14h447q12 0 12 -14v-115q0 -12 -12 -12h-328l-16 -221q58 30 124 30q137 0 222 -79t86 -209q1 -135 -82.5 -218t-220.5 -83
q-131 0 -214.5 71.5t-87.5 188.5q0 14 13 14h117q13 0 16 -18z" />
    <glyph glyph-name="six.dnom" horiz-adv-x="739" 
d="M348 901l127 -2q18 0 12 -16l-153 -324q46 4 47 4q129 -5 207 -83.5t78 -207.5q0 -133 -80.5 -212.5t-214.5 -79.5q-133 0 -215 80.5t-82 211.5q0 71 37 152l219 465q3 12 18 12zM371 121q67 0 109 41.5t42 107.5q0 68 -42 110t-109 42q-69 0 -111.5 -42t-42.5 -110
q0 -67 42.5 -108t111.5 -41z" />
    <glyph glyph-name="seven.dnom" horiz-adv-x="638" 
d="M420 758h-381q-12 0 -12 14v115q0 14 12 14h561q23 0 14 -20l-327 -871q-7 -10 -15 -10h-129q-13 0 -10 14z" />
    <glyph glyph-name="eight.dnom" horiz-adv-x="774" 
d="M518 651q0 60 -35.5 94.5t-95.5 34.5q-59 0 -95 -36t-36 -93t35.5 -92t95.5 -35t95.5 35t35.5 92zM219 264q0 -63 47.5 -102t122.5 -39t120.5 39t45.5 102q0 66 -46 107t-120 41q-73 0 -121.5 -43t-48.5 -105zM76 260q0 142 123 213q-86 65 -86 184q0 118 75.5 190.5
t198.5 72.5q124 0 199.5 -72t75.5 -191q0 -118 -87 -184q123 -73 123 -213q0 -127 -85.5 -203.5t-225.5 -76.5t-225.5 76.5t-85.5 203.5z" />
    <glyph glyph-name="nine.dnom" horiz-adv-x="739" 
d="M358 336q-129 5 -206.5 83.5t-77.5 207.5q0 133 81 214t214 81q134 0 215.5 -81t81.5 -214q0 -71 -37 -152l-219 -463q-6 -12 -19 -12h-127q-18 0 -12 18l154 322q-46 -4 -48 -4zM369 479q69 0 111 42t42 108q0 68 -42 109.5t-111 41.5q-68 0 -110 -42t-42 -109
t42 -108.5t110 -41.5z" />
    <glyph glyph-name="zero.tnum" 
d="M113 711q0 330 137 528q139 201 366 201q224 0 363 -201t139 -528q0 -328 -139 -529q-138 -200 -363 -200q-229 0 -366 198t-137 531zM616 156q145 0 234 151q90 156 90 404q0 245 -90 401q-89 154 -234 154q-148 0 -237 -154q-88 -149 -88 -401t88 -404
q89 -151 237 -151z" />
    <glyph glyph-name="one.tnum" 
d="M291 1278v121q0 22 22 22h373q21 0 21 -22v-1249h297q20 0 20 -21v-109q0 -20 -20 -20h-779q-20 0 -20 20v109q0 21 20 21h305v1107h-217q-22 0 -22 21z" />
    <glyph glyph-name="two.tnum" 
d="M979 799l-25 -37l-77 -98q-39 -48 -203 -261l-187 -239h557q21 0 21 -23v-121q0 -20 -21 -20h-677h-45h-140q-13 0 -16.5 8t4.5 19l635 829q74 103 74 193q0 99 -61.5 161t-160.5 62q-149 0 -264 -142q-15 -16 -31 0l-86 93q-12 16 3 34q151 183 385 183q173 0 280 -105
t107 -282q0 -69 -22.5 -142t-49.5 -112z" />
    <glyph glyph-name="three.tnum" 
d="M526 811h101q96 0 158.5 68.5t62.5 169.5q0 98 -61.5 158.5t-159.5 60.5q-152 0 -265 -140q-12 -15 -28 -2l-88 101q-11 14 -2 30q151 183 385 183q175 0 282 -107q111 -105 111 -276q0 -204 -150 -312q195 -100 195 -339q0 -189 -127 -316q-126 -123 -326 -123
q-196 0 -319 111q-122 113 -131 295q0 20 20 20h135q20 0 23 -20q6 -103 81.5 -167.5t190.5 -64.5q121 0 198 76.5t77 192.5q0 113 -65 185.5t-171 76.5h-127q-20 0 -20 20v99q0 20 20 20z" />
    <glyph glyph-name="four.tnum" 
d="M958 463h164q21 0 21 -21v-116q0 -21 -21 -21h-164v-285q0 -20 -20 -20h-135q-21 0 -21 20v285h-520h-26h-127q-30 0 -15 27l649 1071q9 18 31 18l166 -2q18 0 18 -20v-936zM782 463v700l-424 -700h424z" />
    <glyph glyph-name="five.tnum" 
d="M946 1257h-504l-30 -432q88 52 198 52q203 0 328 -125q127 -127 127 -324q0 -204 -125 -332q-123 -129 -326 -129q-196 0 -318 109.5t-130 292.5q0 20 20 20h136q19 0 22 -20q6 -103 80.5 -166.5t189.5 -63.5q121 0 197 82t76 207q0 124 -78.5 204.5t-206.5 80.5
q-141 0 -205 -76h-149q-22 0 -19 20l54 742q0 22 22 22h641q21 0 21 -22v-121q0 -21 -21 -21z" />
    <glyph glyph-name="six.tnum" 
d="M1059 422q0 -200 -121 -324q-121 -121 -322 -121q-200 0 -323 123t-123 322q0 102 35 186l364 793q9 20 31 20h139q28 0 19 -28l-256 -549q69 16 119 16q198 -2 318 -121t120 -317zM887 422q0 124 -75 200t-198 76q-121 0 -196.5 -76.5t-75.5 -199.5q0 -124 74.5 -199.5
t197.5 -75.5q121 0 197 76.5t76 198.5z" />
    <glyph glyph-name="seven.tnum" 
d="M190 1421h840q30 0 21 -30l-519 -1371q-9 -20 -28 -20h-154q-21 0 -12 20l473 1237h-621q-20 0 -20 21v121q0 22 20 22z" />
    <glyph glyph-name="eight.tnum" 
d="M1008 1051q0 -196 -148 -291q101 -50 158 -141t57 -207q0 -193 -127 -314q-124 -118 -334 -118q-209 0 -333 118q-127 121 -127 314q0 116 57 207t158 141q-146 96 -146 291q0 177 107 283t284 106q176 0 285 -109t109 -280zM899 418q0 122 -78 196t-205 74
q-124 0 -205 -76.5t-81 -193.5t79 -190.5t207 -73.5q125 0 204 73.5t79 190.5zM616 827q98 0 159 63t61 163q0 101 -60 161q-59 62 -160 62q-99 0 -161 -62t-62 -161q0 -100 62 -163t161 -63z" />
    <glyph glyph-name="nine.tnum" 
d="M1001 762l-342 -744q-9 -18 -30 -18h-140q-28 0 -18 29l254 546q-56 -16 -115 -16q-200 0 -319 119q-121 121 -121 319q0 199 121 320q123 123 321 123q201 0 324 -123q123 -120 123 -320q0 -104 -58 -235zM614 721q122 0 197.5 76.5t75.5 199.5q0 124 -75 199.5
t-198 75.5q-122 0 -197 -76t-75 -199q0 -125 74.5 -200.5t197.5 -75.5z" />
    <glyph glyph-name="zero.pnum" horiz-adv-x="1222" 
d="M109 711q0 330 137 528q139 201 366 201q224 0 363 -201t139 -528q0 -328 -139 -529q-138 -200 -363 -200q-229 0 -366 198t-137 531zM612 156q145 0 234 151q90 156 90 404q0 245 -90 401q-89 154 -234 154q-148 0 -237 -154q-88 -149 -88 -401t88 -404
q89 -151 237 -151z" />
    <glyph glyph-name="one.pnum" horiz-adv-x="655" 
d="M135 1278v121q3 22 23 22h340q20 0 20 -22v-1379q0 -20 -20 -20h-136q-20 0 -20 20v1237h-184q-23 0 -23 21z" />
    <glyph glyph-name="two.pnum" horiz-adv-x="1126" 
d="M922 799l-23 -37l-76 -98q-80 -99 -205 -261l-186 -239h557q21 0 21 -23v-121q0 -20 -21 -20h-678h-45h-139q-13 0 -16.5 8t4.5 19l635 829q73 101 73 193q0 99 -61 161t-160 62q-149 0 -264 -142q-16 -16 -31 0l-86 93q-13 16 2 34q151 183 385 183q173 0 280 -105
t107 -282q0 -69 -23 -142t-50 -112z" />
    <glyph glyph-name="three.pnum" horiz-adv-x="1116" 
d="M467 811h100q96 0 158.5 68.5t62.5 169.5q0 98 -61.5 158.5t-159.5 60.5q-151 0 -264 -140q-12 -15 -29 -2l-88 101q-11 14 -2 30q151 183 385 183q176 0 283 -107q111 -105 111 -276q0 -204 -150 -312q195 -100 195 -339q0 -189 -127 -316q-126 -123 -326 -123
q-196 0 -319 111q-123 114 -132 295q0 20 21 20h135q20 0 23 -20q6 -103 81.5 -167.5t190.5 -64.5q121 0 197.5 76.5t76.5 192.5q0 113 -64.5 185.5t-170.5 76.5h-127q-21 0 -21 20v99q0 20 21 20z" />
    <glyph glyph-name="four.pnum" horiz-adv-x="1253" 
d="M956 463h164q21 0 21 -21v-116q0 -21 -21 -21h-164v-285q0 -20 -20 -20h-135q-21 0 -21 20v285h-520h-27h-127q-29 0 -14 27l649 1071q9 18 31 18l166 -2q18 0 18 -20v-936zM780 463v700l-424 -700h424z" />
    <glyph glyph-name="five.pnum" horiz-adv-x="1116" 
d="M889 1257h-504l-31 -432q88 52 199 52q203 0 328 -125q127 -127 127 -324q0 -204 -125 -332q-123 -129 -326 -129q-196 0 -318 109.5t-130 292.5q0 20 20 20h135q20 0 23 -20q6 -103 80.5 -166.5t189.5 -63.5q120 0 196 81.5t76 207.5q0 125 -78.5 205t-205.5 80
q-141 0 -205 -76h-150q-21 0 -18 20l53 742q0 22 23 22h641q20 0 20 -22v-121q0 -21 -20 -21z" />
    <glyph glyph-name="six.pnum" horiz-adv-x="1105" 
d="M997 422q0 -201 -120 -324q-121 -121 -322 -121t-324 123q-122 122 -122 322q0 105 34 186l365 793q9 20 31 20h139q27 0 18 -28l-256 -549q69 16 119 16q198 -2 318 -121t120 -317zM825 422q0 125 -74.5 200.5t-197.5 75.5q-121 0 -196.5 -76.5t-75.5 -199.5
q0 -124 74.5 -199.5t197.5 -75.5q121 0 196.5 76.5t75.5 198.5z" />
    <glyph glyph-name="seven.pnum" horiz-adv-x="993" 
d="M82 1421h840q29 0 20 -30l-518 -1371q-9 -20 -29 -20h-153q-22 0 -13 20l473 1237h-620q-21 0 -21 21v121q0 22 21 22z" />
    <glyph glyph-name="eight.pnum" horiz-adv-x="1138" 
d="M963 1051q0 -196 -148 -291q101 -50 158 -141t57 -207q0 -193 -127 -314q-124 -118 -334 -118q-209 0 -333 118q-127 121 -127 314q0 116 57 207t158 141q-146 96 -146 291q0 177 107 283t284 106q176 0 285 -109t109 -280zM854 418q0 122 -78 196t-205 74
q-124 0 -205 -76.5t-81 -193.5t79 -190.5t207 -73.5q125 0 204 73.5t79 190.5zM571 827q98 0 159 63t61 163q0 101 -60 161q-59 62 -160 62q-99 0 -161 -62t-62 -161q0 -100 62 -163t161 -63z" />
    <glyph glyph-name="nine.pnum" horiz-adv-x="1105" 
d="M940 762l-342 -744q-9 -18 -31 -18h-139q-28 0 -18 29l254 546q-56 -16 -115 -16q-201 0 -320 119q-120 120 -120 319q0 200 120 320q123 123 322 123q200 0 323 -123q123 -120 123 -320q0 -106 -57 -235zM553 721q121 0 196.5 76.5t75.5 199.5q0 124 -74.5 199.5
t-197.5 75.5q-122 0 -197 -76t-75 -199q0 -125 74.5 -200.5t197.5 -75.5z" />
    <glyph glyph-name="zero.onum.pnum" horiz-adv-x="1167" 
d="M594 946q225 0 364 -133q140 -134 140 -350t-140 -350q-137 -131 -364 -131q-228 0 -365 131q-139 133 -139 350t139 350t365 133zM356 688q-90 -87 -90 -225t90 -225q92 -86 238 -86t235 86q93 87 93 225t-93 225q-89 86 -235 86t-238 -86z" />
    <glyph glyph-name="one.onum.pnum" horiz-adv-x="886" 
d="M94 743l281 183h157q21 0 21 -21v-753h268q21 0 21 -21v-111q0 -20 -21 -20h-723q-20 0 -20 20v111q0 21 20 21h277v612l-266 -172q-27 -15 -27 14v115q0 16 12 22z" />
    <glyph glyph-name="two.onum.pnum" horiz-adv-x="985" 
d="M872 0h-782q-18 0 -21 9.5t11 21.5l516 422q117 85 111 180q-5 64 -58.5 101.5t-148.5 37.5q-150 0 -258 -135q-13 -16 -27 -2l-90 100q-13 17 0 33q144 178 379 178q166 0 267.5 -84t109.5 -215q9 -161 -148 -291q-1 -1 -256 -204h395q23 0 23 -23v-106q0 -23 -23 -23z
" />
    <glyph glyph-name="three.onum.pnum" horiz-adv-x="1017" 
d="M457 348q-21 0 -21 21v135l217 248h-489q-21 0 -21 20v133q0 21 21 21h692q21 0 21 -21v-155l-244 -275q141 -43 219 -143.5t78 -241.5q0 -180 -117 -291q-116 -110 -305 -110q-183 0 -297 108q-112 106 -121 285q-3 22 21 22h137q20 0 20 -22q8 -99 73 -159t167 -60
q110 0 176 62t66 165q0 114 -77.5 184t-215.5 74z" />
    <glyph glyph-name="four.onum.pnum" horiz-adv-x="1171" 
d="M727 926h172q21 -3 21 -21v-751h157q21 0 21 -21v-110q0 -21 -21 -21h-157v-272q0 -21 -21 -21h-137q-21 0 -21 21v272h-680q-33 0 -12 27l645 880q14 17 33 17zM741 154v563l-413 -563h413z" />
    <glyph glyph-name="five.onum.pnum" horiz-adv-x="1030" 
d="M516 532q190 0 307 -120q119 -119 119 -306q0 -190 -119 -303q-117 -114 -311 -114q-183 0 -299 110q-114 108 -123 287q-3 23 21 23h137q20 0 20 -23q6 -100 73 -161.5t171 -61.5q112 0 181 68t69 178q0 116 -67.5 184.5t-178.5 68.5q-100 0 -211 -57h-139q-21 0 -21 23
l33 577q3 21 25 21h616q23 0 23 -21v-123q0 -22 -23 -22h-487l-17 -273q86 45 201 45z" />
    <glyph glyph-name="six.onum.pnum" horiz-adv-x="1034" 
d="M528 1237h136q29 0 14 -27l-232 -403q31 8 86 8q186 -3 299 -119q115 -118 115 -295q0 -182 -119 -301q-115 -118 -307 -118q-193 0 -313 114q-117 114 -117 305q0 129 64 236l342 582q9 18 32 18zM768 403q0 109 -69 178.5t-181 69.5q-111 0 -181.5 -69t-70.5 -179
t69.5 -177.5t182.5 -67.5q108 0 179 70t71 175z" />
    <glyph glyph-name="seven.onum.pnum" horiz-adv-x="929" 
d="M653 760h-592q-20 0 -20 20v123q0 21 20 21h809q31 0 21 -29l-445 -1165q-9 -21 -30 -21h-144q-10 0 -14.5 7.5t0.5 15.5z" />
    <glyph glyph-name="eight.onum.pnum" horiz-adv-x="1054" 
d="M90 360q0 102 50 183.5t141 128.5q-107 79 -107 233q0 153 98 244q98 94 254 94q158 0 256 -94q99 -91 99 -244q0 -150 -109 -233q193 -99 193 -312q0 -167 -121 -276q-119 -104 -318 -104q-198 0 -317 104q-119 107 -119 276zM268 369q0 -97 71.5 -155t188.5 -58
q116 0 186 58t70 155q0 103 -70.5 166t-185.5 63q-113 0 -186.5 -64.5t-73.5 -164.5zM344 903q0 -76 50 -123t134 -47q80 0 131.5 47.5t51.5 122.5q0 78 -50.5 124t-132.5 46q-85 0 -134.5 -46t-49.5 -124z" />
    <glyph glyph-name="nine.onum.pnum" horiz-adv-x="1034" 
d="M508 -307h-135q-29 0 -17 26l234 404q-52 -10 -86 -10q-185 3 -299 120q-115 118 -115 295q0 180 119 299q121 121 307 121q192 0 309 -117q119 -113 119 -303q0 -135 -63 -235l-340 -582q-9 -18 -33 -18zM266 526q0 -107 70.5 -178.5t179.5 -71.5q112 0 182 69.5
t70 180.5q0 110 -69.5 178t-182.5 68q-108 0 -179 -70.5t-71 -175.5z" />
    <glyph glyph-name="zero.onum.tnum" 
d="M1118 463q0 -219 -137 -350t-365 -131q-229 0 -366 131q-139 133 -139 350t139 350t366 133q226 0 365 -133q137 -131 137 -350zM616 152q146 0 236 87t90 224q0 140 -90 225.5t-236 85.5q-148 0 -238.5 -85.5t-90.5 -225.5t90.5 -225.5t238.5 -85.5z" />
    <glyph glyph-name="one.onum.tnum" 
d="M248 743l280 183h158q21 0 21 -21v-753h268q20 0 20 -21v-111q0 -20 -20 -20h-723q-21 0 -21 20v111q0 21 21 21h276v612l-266 -172q-26 -14 -26 14v115q0 16 12 22z" />
    <glyph glyph-name="two.onum.tnum" 
d="M1008 0h-783q-18 0 -21 9.5t11 21.5l516 422q117 85 111 180q-5 64 -58.5 101.5t-148.5 37.5q-150 0 -258 -135q-13 -16 -27 -2l-90 100q-13 17 0 33q144 178 379 178q166 0 267.5 -84t109.5 -215q9 -161 -148 -291q-1 -1 -256 -204h396q22 0 22 -23v-106q0 -23 -22 -23z
" />
    <glyph glyph-name="three.onum.tnum" 
d="M561 348q-20 0 -20 21v135l217 248h-490q-20 0 -20 20v133q0 21 20 21h693q20 0 20 -21v-155l-244 -275q141 -43 219 -143.5t78 -241.5q0 -181 -116 -291t-306 -110q-183 0 -297 108q-111 105 -120 285q-3 22 20 22h137q21 0 21 -22q8 -99 72.5 -159t166.5 -60
q110 0 176 62t66 165q0 114 -77.5 184t-215.5 74z" />
    <glyph glyph-name="four.onum.tnum" 
d="M774 926h172q21 -3 21 -21v-751h157q21 0 21 -21v-110q0 -21 -21 -21h-157v-272q0 -21 -21 -21h-137q-21 0 -21 21v272h-679q-34 0 -13 27l645 880q14 17 33 17zM788 154v563l-413 -563h413z" />
    <glyph glyph-name="five.onum.tnum" 
d="M614 532q191 0 308 -120q118 -118 118 -306q0 -191 -118 -303q-117 -114 -312 -114q-183 0 -299 110q-114 108 -123 287q-3 23 21 23h137q21 0 21 -23q6 -100 72.5 -161.5t170.5 -61.5q112 0 181 68t69 178q0 116 -67.5 184.5t-178.5 68.5q-100 0 -211 -57h-139
q-20 0 -20 23l32 577q3 21 25 21h617q22 0 22 -21v-123q0 -22 -22 -22h-488l-16 -273q86 45 200 45z" />
    <glyph glyph-name="six.onum.tnum" 
d="M625 1237h135q29 0 14 -27l-231 -403q31 8 86 8q186 -3 299 -119q114 -117 114 -295q0 -183 -118 -301q-115 -118 -308 -118t-313 114q-117 114 -117 305q0 129 64 236l342 582q9 18 33 18zM864 403q0 109 -69 178.5t-181 69.5q-111 0 -181.5 -69t-70.5 -179t69.5 -177.5
t182.5 -67.5q108 0 179 70t71 175z" />
    <glyph glyph-name="seven.onum.tnum" 
d="M799 760h-592q-21 0 -21 20v123q0 21 21 21h809q30 0 20 -29l-444 -1165q-9 -21 -31 -21h-143q-25 0 -15 23z" />
    <glyph glyph-name="eight.onum.tnum" 
d="M178 360q0 102 50 183.5t141 128.5q-107 79 -107 233q0 153 98 244q98 94 254 94q158 0 256 -94q99 -91 99 -244q0 -150 -109 -233q193 -99 193 -312q0 -167 -121 -276q-119 -104 -318 -104q-198 0 -317 104q-119 107 -119 276zM356 369q0 -97 71.5 -155t188.5 -58
q116 0 186 58t70 155q0 103 -70.5 166t-185.5 63q-113 0 -186.5 -64.5t-73.5 -164.5zM432 903q0 -76 50 -123t134 -47q80 0 131.5 47.5t51.5 122.5q0 78 -50.5 124t-132.5 46q-85 0 -134.5 -46t-49.5 -124z" />
    <glyph glyph-name="nine.onum.tnum" 
d="M606 -307h-135q-28 0 -16 26l233 404q-52 -10 -86 -10q-185 3 -299 120q-115 118 -115 295q0 180 119 299q121 121 307 121q193 0 310 -117q118 -112 118 -303q0 -135 -63 -235l-340 -582q-9 -18 -33 -18zM365 526q0 -107 70 -178.5t179 -71.5q112 0 182 69.5t70 180.5
q0 110 -69.5 178t-182.5 68q-108 0 -178.5 -70.5t-70.5 -175.5z" />
    </font>
</defs>
</svg>
