<svg width="176" height="115" viewBox="0 0 176 115" fill="none" xmlns="http://www.w3.org/2000/svg">
<path d="M150.283 59.3764C147.273 59.3764 144.923 56.8712 144.923 53.8669C144.923 50.9225 147.273 48.5171 150.283 48.5171C153.263 48.5171 155.643 50.9125 155.643 53.8669C155.643 54.0366 155.643 54.0366 155.643 54.0366V54.1763V54.2861C155.473 57.0907 153.123 59.3764 150.283 59.3764ZM157.243 53.8669C157.243 50.144 154.153 47.0599 150.283 47.0599C146.393 47.0599 143.293 50.144 143.293 53.8669C143.293 57.7495 146.383 60.8435 150.283 60.8435C152.413 60.8435 154.373 59.8554 155.643 58.2485V60.1249C155.643 60.6439 156.083 60.9833 156.443 60.9833C156.943 60.9833 157.243 60.6539 157.243 60.1249V54.2861C157.243 54.1663 157.243 54.0266 157.243 53.8669ZM133.733 47C129.893 47 126.803 49.9743 126.803 53.807V60.095C126.803 60.4842 127.163 60.8435 127.553 60.8435C128.053 60.8435 128.303 60.4842 128.303 60.095L128.413 53.807C128.413 50.8327 130.763 48.4872 133.743 48.4872C136.723 48.4872 139.073 50.8327 139.073 53.807V59.9852C139.073 60.3445 139.433 60.7338 139.933 60.7338C140.323 60.7338 140.683 60.3445 140.683 59.9852V53.807C140.663 49.9843 137.563 47 133.733 47ZM116.373 59.3764C113.363 59.3764 111.013 56.8712 111.013 53.8669C111.013 50.9225 113.363 48.5171 116.373 48.5171C119.353 48.5171 121.733 50.9125 121.733 53.8669C121.733 54.0366 121.733 54.0366 121.733 54.0366V54.1763V54.2861C121.563 57.0907 119.223 59.3764 116.373 59.3764ZM123.333 53.8669C123.333 50.144 120.243 47.0599 116.373 47.0599C112.483 47.0599 109.383 50.144 109.383 53.8669C109.383 57.7495 112.473 60.8435 116.373 60.8435C118.503 60.8435 120.463 59.8554 121.733 58.2485V60.1249C121.733 60.6439 122.173 60.9833 122.533 60.9833C123.033 60.9833 123.333 60.6539 123.333 60.1249V54.2861C123.333 54.1663 123.333 54.0266 123.333 53.8669ZM105.093 47.6388V60.1249C105.093 60.5341 105.393 60.8935 105.893 60.8935C106.223 60.8935 106.643 60.5341 106.643 60.1249V47.6388C106.643 47.1198 106.233 46.8403 105.893 46.8403C105.403 46.8403 105.093 47.1098 105.093 47.6388ZM92.1631 47.03C91.6631 47.03 91.283 47.4192 91.283 47.7785V54.0066V60.075C91.283 60.4643 91.673 60.8435 92.1631 60.8435C92.5231 60.8435 92.9131 60.4543 92.9131 60.075V54.0066C92.9131 50.8926 95.403 48.5171 98.383 48.5171C99.133 48.5171 99.7631 48.6569 100.513 48.9064L101.013 49.1559L101.123 49.2657L101.373 49.4054C101.763 49.655 102.253 49.5152 102.503 49.1559C102.613 49.0162 102.613 48.9064 102.613 48.7667C102.613 48.5171 102.553 48.2177 102.313 48.1079L102.093 47.9382L101.763 47.7686L101.013 47.519C100.133 47.1597 99.273 47.02 98.393 47.02C96.153 47.02 94.163 48.0081 92.923 49.635V47.7586C92.903 47.4192 92.5231 47.03 92.1631 47.03ZM80.523 59.3764C77.593 59.3764 75.113 56.8911 75.113 53.9767C75.113 51.0024 77.603 48.6569 80.523 48.6569C83.503 48.6569 85.853 51.0024 85.853 53.9767C85.853 56.9011 83.503 59.3764 80.523 59.3764ZM87.313 53.9767V53.837V41.6802C87.313 41.291 87.063 40.9316 86.563 40.9316C86.173 40.9316 85.843 41.291 85.843 41.6802V49.6749C84.573 48.2177 82.6431 47.0799 80.5131 47.0799C76.733 47.0799 73.633 50.1141 73.633 53.9667C73.633 57.7694 76.723 60.8336 80.5131 60.8336C84.253 60.8435 87.313 57.7794 87.313 53.9767ZM63.863 59.3764C60.853 59.3764 58.503 56.8712 58.503 53.8669C58.503 50.9225 60.853 48.5171 63.863 48.5171C66.843 48.5171 69.223 50.9125 69.223 53.8669C69.223 54.0366 69.223 54.0366 69.223 54.0366V54.1763V54.2861C69.053 57.0907 66.703 59.3764 63.863 59.3764ZM70.823 53.8669C70.823 50.144 67.733 47.0599 63.863 47.0599C59.973 47.0599 56.873 50.144 56.873 53.8669C56.873 57.7495 59.963 60.8435 63.863 60.8435C65.993 60.8435 67.953 59.8554 69.223 58.2485V60.1249C69.223 60.6439 69.663 60.9833 70.023 60.9833C70.523 60.9833 70.823 60.6539 70.823 60.1249V54.2861C70.823 54.1663 70.823 54.0266 70.823 53.8669Z" fill="white"/>
<path d="M163.943 74.5972C163.943 73.3595 164.303 72.2517 165.153 71.2935C166.013 70.1956 167.363 69.447 168.683 69.3372C170.173 69.2274 171.523 69.5868 172.633 70.5749C172.743 70.6847 172.853 70.6847 172.993 70.7944C172.003 71.6728 165.753 76.773 164.903 77.6613C164.303 76.6632 163.943 75.6751 163.943 74.5972ZM168.613 67.87C166.763 68.0098 165.163 68.8382 164.053 70.2954C162.813 71.6728 162.343 73.4893 162.453 75.3358C162.703 77.1523 163.553 78.7492 164.913 79.8571C167.863 82.2825 172.153 81.8134 174.633 78.9788C174.823 78.6494 174.713 78.1204 174.463 77.9009C174.073 77.6513 173.603 77.6513 173.383 78.0106C171.533 80.1865 168.223 80.5757 165.903 78.7592C166.873 77.9009 174.633 71.4033 174.633 71.4033C174.713 71.2935 174.823 71.044 174.823 70.9342C174.823 70.6847 174.713 70.5749 174.633 70.4351C174.353 70.0459 173.973 69.6866 173.613 69.3372C172.153 68.1994 170.463 67.6205 168.613 67.87ZM150.393 67.6205C149.893 67.6205 149.513 68.0098 149.513 68.3691V74.5972V80.6656C149.513 81.0548 149.903 81.4341 150.393 81.4341C150.753 81.4341 151.143 81.0448 151.143 80.6656V74.5972C151.143 71.4831 153.633 69.1077 156.613 69.1077C157.363 69.1077 157.993 69.2474 158.743 69.4969L159.243 69.7464L159.353 69.8562L159.603 69.996C159.993 70.2455 160.483 70.1058 160.733 69.7464C160.843 69.6067 160.843 69.4969 160.843 69.3572C160.843 69.1077 160.783 68.8082 160.543 68.6985L160.323 68.5288L159.993 68.3591L159.243 68.1096C158.363 67.7503 157.503 67.6105 156.623 67.6105C154.383 67.6105 152.393 68.5986 151.153 70.2255V68.3691C151.143 68.0098 150.753 67.6205 150.393 67.6205ZM144.633 74.4075C144.633 77.4417 142.123 79.9469 139.113 79.9469C136.043 79.9469 133.673 77.4417 133.673 74.4075C133.673 71.5131 136.043 68.9779 139.113 68.9779C140.573 68.9779 141.983 69.4969 142.983 70.6547C144.003 71.6528 144.633 73.0501 144.633 74.4075ZM132.043 74.4075C132.043 78.2901 135.193 81.4341 139.113 81.4341C142.983 81.4341 146.123 78.2901 146.123 74.4075C146.123 72.621 145.373 70.9042 144.083 69.4969C142.733 68.1495 140.993 67.4808 139.113 67.4808C135.193 67.4908 132.043 70.6547 132.043 74.4075ZM123.273 69.2474H128.743C129.243 69.2474 129.493 68.8881 129.493 68.5288C129.493 68.0297 129.243 67.6704 128.743 67.6704H123.273V62.8496C123.273 62.3506 122.913 62.1011 122.553 62.1011C122.053 62.1011 121.693 62.3506 121.693 62.8496V74.6171C121.693 78.37 124.843 81.3942 128.483 81.3942C128.983 81.3942 129.343 81.0349 129.343 80.6755C129.343 80.2863 128.983 79.927 128.483 79.927C125.583 79.927 123.263 77.5016 123.263 74.7169V69.2474H123.273ZM118.343 77.9607C118.593 77.5715 118.483 77.2122 118.093 76.9726L108.373 70.8244C109.473 69.7265 110.833 69.1177 112.433 69.1177C114.143 69.1177 115.883 70.0858 116.883 71.4332C117.103 71.8225 117.603 71.9323 117.853 71.6827C118.243 71.4332 118.353 70.9342 118.103 70.7146C116.893 68.7284 114.653 67.6305 112.443 67.6305C110.233 67.6305 108.133 68.6186 106.893 70.3353C106.783 70.4751 106.783 70.5848 106.783 70.7246C106.643 70.8344 106.643 70.9442 106.643 71.0839C106.643 71.3334 106.783 71.5829 107.033 71.6927C107.033 71.6927 115.513 77.0924 116.643 77.841C115.653 79.1884 114.043 79.9369 112.443 79.9369C110.483 79.9369 108.743 78.9488 107.773 77.3419C107.523 76.9826 107.133 76.8728 106.783 77.0924C106.393 77.3419 106.283 77.841 106.533 78.2202C107.773 80.1765 109.983 81.4141 112.443 81.4141C114.883 81.4041 117.093 80.1665 118.343 77.9607ZM96.6432 79.9769C93.6332 79.9769 91.2832 77.4717 91.2832 74.4674C91.2832 71.523 93.6332 69.1177 96.6432 69.1177C99.6232 69.1177 102.003 71.5131 102.003 74.4674C102.003 74.6371 102.003 74.6371 102.003 74.6371V74.7768V74.8866C101.833 77.6813 99.4832 79.9769 96.6432 79.9769ZM103.603 74.4574C103.603 70.7346 100.513 67.6505 96.6432 67.6505C92.7532 67.6505 89.6532 70.7346 89.6532 74.4574C89.6532 78.34 92.7432 81.4341 96.6432 81.4341C98.7732 81.4341 100.733 80.446 102.003 78.8391V80.7155C102.003 81.2345 102.443 81.5738 102.803 81.5738C103.303 81.5738 103.603 81.2445 103.603 80.7155V74.8766C103.603 74.7668 103.603 74.6271 103.603 74.4574ZM75.5532 74.4574C75.5532 71.563 78.0432 69.0777 81.0232 69.0777C82.4832 69.0777 83.7532 69.5967 84.8632 70.7046C85.8832 71.7227 86.3832 73.0701 86.3832 74.4574C86.3832 77.4317 84.0132 79.917 81.0232 79.917C78.0432 79.917 75.5532 77.4417 75.5532 74.4574ZM88.0132 74.4574C88.0132 72.7208 87.2432 70.9541 85.8832 69.6067C84.6132 68.2293 82.9032 67.6205 81.0232 67.6205C77.2632 67.6205 74.1432 70.5948 74.0332 74.3476V74.4574V86.3647C74.0332 86.7739 74.3932 87.1332 74.7832 87.1332C75.3032 87.1332 75.5532 86.7739 75.5532 86.3647V78.7892C76.9032 80.416 78.7532 81.4041 81.0232 81.4041C84.8632 81.4041 88.0132 78.2901 88.0132 74.4574Z" fill="white"/>
<path d="M174.203 90.3072C174.203 91.9241 172.863 93.2715 171.253 93.2715C169.613 93.2715 168.343 91.9341 168.343 90.3072C168.343 88.7601 169.613 87.4027 171.253 87.4027C172.033 87.4027 172.793 87.6822 173.323 88.301C173.863 88.83 174.203 89.5786 174.203 90.3072ZM167.473 90.3072C167.473 92.3832 169.153 94.06 171.253 94.06C173.323 94.06 175.003 92.3832 175.003 90.3072C175.003 89.349 174.603 88.4407 173.913 87.6822C173.193 86.9636 172.263 86.6043 171.253 86.6043C169.153 86.6043 167.473 88.301 167.473 90.3072ZM164.373 87.0035V93.6807C164.373 93.9003 164.533 94.0899 164.803 94.0899C164.983 94.0899 165.203 93.9003 165.203 93.6807V87.0035C165.203 86.724 164.983 86.5743 164.803 86.5743C164.533 86.5743 164.373 86.724 164.373 87.0035ZM161.843 92.2036C161.973 91.994 161.913 91.8043 161.713 91.6746L156.513 88.3908C157.103 87.802 157.823 87.4726 158.683 87.4726C159.603 87.4726 160.533 87.9916 161.063 88.7102C161.183 88.9198 161.443 88.9797 161.583 88.84C161.793 88.7102 161.853 88.4407 161.713 88.321C161.063 87.263 159.863 86.6741 158.683 86.6741C157.503 86.6741 156.383 87.2031 155.713 88.1214C155.653 88.1912 155.653 88.2511 155.653 88.331C155.583 88.3908 155.583 88.4507 155.583 88.5206C155.583 88.6504 155.653 88.7901 155.793 88.84C155.793 88.84 160.323 91.7245 160.933 92.1237C160.403 92.8423 159.543 93.2416 158.693 93.2416C157.643 93.2416 156.713 92.7126 156.203 91.8542C156.073 91.6646 155.863 91.6047 155.673 91.7245C155.463 91.8542 155.403 92.1237 155.543 92.3333C156.203 93.3813 157.393 94.04 158.703 94.04C160.003 94.05 161.183 93.3813 161.843 92.2036ZM152.323 87.0035V93.6807C152.323 93.9003 152.483 94.0899 152.753 94.0899C152.933 94.0899 153.153 93.9003 153.153 93.6807V87.0035C153.153 86.724 152.933 86.5743 152.753 86.5743C152.493 86.5743 152.323 86.724 152.323 87.0035ZM149.833 86.7141H147.253C147.463 85.4165 148.553 84.5183 149.973 84.5183C150.153 84.5183 150.353 84.3087 150.353 84.119C150.353 83.9394 150.143 83.7397 149.973 83.7397C147.983 83.7397 146.313 85.3567 146.313 87.273V87.3429V93.6508C146.313 93.8304 146.563 94.0301 146.743 94.0301C146.993 94.0301 147.143 93.8205 147.143 93.6508V87.5525H149.843C150.093 87.5525 150.243 87.3429 150.243 87.1532C150.233 86.9137 150.083 86.7141 149.833 86.7141Z" fill="white"/>
<path fill-rule="evenodd" clip-rule="evenodd" d="M10.343 0C12.983 10.5498 25.273 23.5949 31.573 25.3016C38.503 27.717 57.543 18.8739 67.803 18.1852C48.703 25.4613 30.893 36.6499 22.683 49.4354C30.613 68.7385 29.273 84.668 24.203 99.2501C25.323 82.4223 25.383 65.9438 16.613 52.28C10.223 57.4701 6.73297 65.874 3.89297 75.0065C11.433 67.7404 21.093 64.9757 31.793 64.3968C21.533 68.5888 12.353 73.3996 4.84297 79.1685C-9.23703 82.2626 11.843 45.9621 12.053 45.6427C15.373 40.6422 18.063 35.7117 22.613 30.302C23.723 28.5753 24.253 25.7707 22.103 23.1058C14.263 14.4623 11.233 6.75707 10.343 0Z" fill="white"/>
<path fill-rule="evenodd" clip-rule="evenodd" d="M31.4231 71.6528C32.9531 70.9142 34.4731 70.1756 36.0031 69.437C38.4631 89.1693 33.2431 103.532 23.8931 115C28.9831 102.883 34.3231 90.9658 31.4231 71.6528Z" fill="white"/>
<path fill-rule="evenodd" clip-rule="evenodd" d="M36.4429 64.8759C49.5629 63.778 59.7129 68.0798 66.1329 79.1786C53.6529 82.6519 45.2229 87.343 36.7329 92.004C41.1829 86.8339 44.0129 81.574 57.1229 76.8131C53.8029 69.7866 45.3229 67.1616 36.4429 64.8759Z" fill="white"/>
<path fill-rule="evenodd" clip-rule="evenodd" d="M37.8629 10.9189C41.0229 10.9189 42.7829 13.6537 41.7829 17.0273C40.7929 20.4008 37.4229 23.1356 34.2629 23.1356C31.1029 23.1356 29.3429 20.4008 30.3429 17.0273C31.3429 13.6437 34.7029 10.9189 37.8629 10.9189Z" fill="white"/>
<path fill-rule="evenodd" clip-rule="evenodd" d="M22.4131 65.5746L23.4331 65.0356L27.2331 64.7761L27.7731 65.2852L27.4431 66.5028L23.2531 68.3892L22.8931 68.1896C22.8931 68.1896 22.3331 65.6245 22.4131 65.5746Z" fill="white"/>
</svg>
